<?xml version="1.0" encoding="UTF-8" standalone="no"?>
<!-- Created with Inkscape (http://www.inkscape.org/) -->

<svg
   xmlns:dc="http://purl.org/dc/elements/1.1/"
   xmlns:cc="http://creativecommons.org/ns#"
   xmlns:rdf="http://www.w3.org/1999/02/22-rdf-syntax-ns#"
   xmlns:svg="http://www.w3.org/2000/svg"
   xmlns="http://www.w3.org/2000/svg"
   xmlns:sodipodi="http://sodipodi.sourceforge.net/DTD/sodipodi-0.dtd"
   xmlns:inkscape="http://www.inkscape.org/namespaces/inkscape"
   width="318.89764"
   height="124.01575"
   id="svg3581"
   version="1.1"
   inkscape:version="0.48.4 r9939"
   sodipodi:docname="putting-you-in-control.svg">
  <defs
     id="defs3583" />
  <sodipodi:namedview
     id="base"
     pagecolor="#ffffff"
     bordercolor="#666666"
     borderopacity="1.0"
     inkscape:pageopacity="0.0"
     inkscape:pageshadow="2"
     inkscape:zoom="1.4142136"
     inkscape:cx="111.13306"
     inkscape:cy="99.788793"
     inkscape:document-units="px"
     inkscape:current-layer="layer1"
     showgrid="false"
     fit-margin-top="0"
     fit-margin-left="0"
     fit-margin-right="0"
     fit-margin-bottom="0"
     units="mm"
     inkscape:window-width="1600"
     inkscape:window-height="840"
     inkscape:window-x="0"
     inkscape:window-y="27"
     inkscape:window-maximized="1">
    <inkscape:grid
       type="xygrid"
       id="grid3011" />
  </sodipodi:namedview>
  <metadata
     id="metadata3586">
    <rdf:RDF>
      <cc:Work
         rdf:about="">
        <dc:format>image/svg+xml</dc:format>
        <dc:type
           rdf:resource="http://purl.org/dc/dcmitype/StillImage" />
        <dc:title />
      </cc:Work>
    </rdf:RDF>
  </metadata>
  <g
     inkscape:label="Layer 1"
     inkscape:groupmode="layer"
     id="layer1"
     transform="translate(-449.12261,-324.64003)">
    <rect
       y="324.64001"
       x="449.12262"
       height="124.01575"
       width="318.89764"
       id="rect3528"
       style="fill:#555753;fill-opacity:1;stroke:none" />
    <g
       transform="matrix(0.23204574,0,0,0.23204574,300.25616,619.11968)"
       id="g3530">
      <path
         style="font-size:medium;font-style:normal;font-variant:normal;font-weight:normal;font-stretch:normal;text-indent:0;text-align:start;text-decoration:none;line-height:normal;letter-spacing:normal;word-spacing:normal;text-transform:none;direction:ltr;block-progression:tb;writing-mode:lr-tb;text-anchor:start;baseline-shift:baseline;color:#bebebe;fill:#ffffff;fill-opacity:1;stroke:none;stroke-width:20;marker:none;visibility:visible;display:inline;overflow:visible;enable-background:accumulate;font-family:Sans;-inkscape-font-specification:Sans"
         d="m 1235.6143,-1155.3883 0,110.9645 c 0,32.9486 23.5913,57.57614 43.3062,75.21994 19.8575,17.77129 39.4846,29.72207 39.4846,29.72207 l 0.091,0.0546 0.072,0.0544 7.2811,4.09335 2.898,1.6301 2.8798,-1.6844 7.7339,-4.54618 0.054,-0.0361 0.036,-0.0362 c 0,0 19.2352,-11.83384 39.0318,-29.72207 19.6282,-17.73597 43.2699,-42.15441 43.2699,-74.74901 l 0,-110.9645 -186.1388,0 z m 11.5918,28.5837 162.9553,0 0,87.443 c 0,26.875 -20.3653,48.9024 -39.4483,66.1457 -18.7697,16.96038 -36.9602,28.22779 -37.2387,28.39991 l -4.854,2.86174 -4.184,-2.3546 c 0,0 -0.089,-0.0532 -0.091,-0.0546 l -0.091,-0.0544 c -0.5067,-0.31015 -18.9076,-11.61601 -37.6008,-28.34527 -19.0959,-17.08965 -39.4484,-39.28118 -39.4484,-66.59848 l 0,-87.4431 z"
         id="path3532"
         inkscape:connector-curvature="0"
         sodipodi:nodetypes="ccscccccccccsccccccsscccccsscc" />
      <g
         transform="matrix(0.97962528,0,0,0.97962528,1283.0892,-1104.3009)"
         style="fill:#ffffff;fill-opacity:1;fill-rule:nonzero;stroke:none"
         id="g3534">
        <g
           style="fill:#ffffff;fill-opacity:1"
           id="g3536">
          <path
             inkscape:connector-curvature="0"
             d="M 86.068,0 C 61.466,0 56.851,35.041 70.691,35.041 84.529,35.041 110.671,0 86.068,0 z"
             style="fill:#ffffff;fill-opacity:1"
             id="path3538" />
          <path
             inkscape:connector-curvature="0"
             d="M 45.217,30.699 C 52.586,31.149 60.671,2.577 46.821,4.374 32.976,6.171 37.845,30.249 45.217,30.699 z"
             style="fill:#ffffff;fill-opacity:1"
             id="path3540" />
          <path
             inkscape:connector-curvature="0"
             d="M 11.445,48.453 C 16.686,46.146 12.12,23.581 3.208,29.735 -5.7,35.89 6.204,50.759 11.445,48.453 z"
             style="fill:#ffffff;fill-opacity:1"
             id="path3542" />
          <path
             inkscape:connector-curvature="0"
             d="M 26.212,36.642 C 32.451,35.37 32.793,9.778 21.667,14.369 10.539,18.961 19.978,37.916 26.212,36.642 l 0,0 z"
             style="fill:#ffffff;fill-opacity:1"
             id="path3544" />
          <path
             inkscape:connector-curvature="0"
             d="m 58.791,93.913 c 1.107,8.454 -6.202,12.629 -13.36,7.179 C 22.644,83.743 83.16,75.088 79.171,51.386 75.86,31.712 15.495,37.769 8.621,68.553 3.968,89.374 27.774,118.26 52.614,118.26 c 12.22,0 26.315,-11.034 28.952,-25.012 C 83.58,82.589 57.867,86.86 58.791,93.913 l 0,0 z"
             style="fill:#ffffff;fill-opacity:1"
             id="path3546" />
        </g>
      </g>
    </g>
    <flowRoot
       xml:space="preserve"
       id="flowRoot3548"
       style="font-size:8.17282104px;font-style:normal;font-variant:normal;font-weight:normal;font-stretch:normal;text-align:center;line-height:125%;letter-spacing:0px;word-spacing:0px;writing-mode:lr-tb;text-anchor:middle;fill:#ffffff;fill-opacity:1;stroke:none;font-family:Cantarell;-inkscape-font-specification:Cantarell"
       transform="matrix(1.6021782,0,0,1.6021782,369.53278,-161.35097)"><flowRegion
         id="flowRegion3550"><rect
           id="rect3552"
           width="220.92854"
           height="57.743011"
           x="38.57143"
           y="359.80878"
           style="font-size:8.17282104px;font-style:normal;font-variant:normal;font-weight:normal;font-stretch:normal;text-align:center;line-height:125%;writing-mode:lr-tb;text-anchor:middle;fill:#ffffff;fill-opacity:1;font-family:Cantarell;-inkscape-font-specification:Cantarell" /></flowRegion><flowPara
         style="font-size:8.17282104px;font-style:normal;font-variant:normal;font-weight:normal;font-stretch:normal;text-align:center;line-height:125%;letter-spacing:0.27861893;writing-mode:lr-tb;text-anchor:middle;fill:#ffffff;fill-opacity:1;font-family:Cantarell;-inkscape-font-specification:Cantarell"
         id="flowPara3554">PUTTING YOU IN CONTROL</flowPara></flowRoot>  </g>
</svg>
