<?xml version="1.0" encoding="UTF-8" standalone="no"?>
<!-- Created with Inkscape (http://www.inkscape.org/) -->

<svg
   xmlns:dc="http://purl.org/dc/elements/1.1/"
   xmlns:cc="http://creativecommons.org/ns#"
   xmlns:rdf="http://www.w3.org/1999/02/22-rdf-syntax-ns#"
   xmlns:svg="http://www.w3.org/2000/svg"
   xmlns="http://www.w3.org/2000/svg"
   xmlns:sodipodi="http://sodipodi.sourceforge.net/DTD/sodipodi-0.dtd"
   xmlns:inkscape="http://www.inkscape.org/namespaces/inkscape"
   width="290"
   height="190"
   id="svg3020"
   version="1.1"
   inkscape:version="0.48.4 r9939"
   sodipodi:docname="round-stickers.svg">
  <defs
     id="defs3022">
    <mask
       maskUnits="userSpaceOnUse"
       id="mask9193">
      <g
         id="g9195"
         style="fill:#ffffff;fill-opacity:1;stroke:none"
         transform="matrix(0.92705708,0,0,0.92705708,1025.5987,-1883.2558)">
        <path
           id="path9197"
           style="fill:#ffffff;fill-opacity:1;stroke:none"
           d="m 287.99515,17.7087 c -71.71229,0 -85.16454,102.14091 -44.82237,102.14091 40.33635,0 116.53759,-102.14091 44.82237,-102.14091 z"
           inkscape:connector-curvature="0" />
        <path
           id="path9199"
           style="fill:#ffffff;fill-opacity:1;stroke:none"
           d="m 168.9187,107.19312 c 21.47987,1.31171 45.04682,-81.97273 4.67549,-76.734661 -40.35675,5.23807 -26.16411,75.422961 -4.67549,76.734661 z"
           inkscape:connector-curvature="0" />
        <path
           id="path9201"
           style="fill:#ffffff;fill-opacity:1;stroke:none"
           d="m 70.476796,158.9442 c 15.276975,-6.72466 1.967556,-72.499314 -24.010006,-54.56104 -25.965903,17.94119 8.733031,61.2828 24.010006,54.56104 z"
           inkscape:connector-curvature="0" />
        <path
           id="path9203"
           style="fill:#ffffff;fill-opacity:1;stroke:none"
           d="m 113.52108,124.51636 c 18.18604,-3.70775 19.18294,-78.305797 -13.24821,-64.923505 -32.436971,13.385207 -4.923258,68.637075 13.24821,64.923505 l 0,0 z"
           inkscape:connector-curvature="0" />
        <path
           id="path9205"
           style="fill:#ffffff;fill-opacity:1;stroke:none"
           d="m 208.48551,291.45542 c 3.22679,24.64254 -18.07819,36.81224 -38.94302,20.92605 C 103.12073,261.81092 279.51863,236.58249 267.89111,167.4936 258.23989,110.14591 82.282129,127.80144 62.245127,217.53363 48.682111,278.2247 118.07415,362.42442 190.48019,362.42442 c 35.62004,0 76.70552,-32.16297 84.3921,-72.9074 5.8706,-31.06989 -69.08015,-18.62037 -66.38678,1.9384 l 0,0 z"
           inkscape:connector-curvature="0" />
      </g>
    </mask>
    <mask
       maskUnits="userSpaceOnUse"
       id="mask21245">
      <g
         transform="matrix(0.92705708,0,0,0.92705707,2445.5988,-1888.2558)"
         style="fill:#ffffff;fill-opacity:1;stroke:none"
         id="g21247">
        <path
           inkscape:connector-curvature="0"
           d="m 287.99515,17.7087 c -71.71229,0 -85.16454,102.14091 -44.82237,102.14091 40.33635,0 116.53759,-102.14091 44.82237,-102.14091 z"
           style="fill:#ffffff;fill-opacity:1;stroke:none"
           id="path21249" />
        <path
           inkscape:connector-curvature="0"
           d="m 168.9187,107.19312 c 21.47987,1.31171 45.04682,-81.97273 4.67549,-76.734661 -40.35675,5.23807 -26.16411,75.422961 -4.67549,76.734661 z"
           style="fill:#ffffff;fill-opacity:1;stroke:none"
           id="path21251" />
        <path
           inkscape:connector-curvature="0"
           d="m 70.476796,158.9442 c 15.276975,-6.72466 1.967556,-72.499314 -24.010006,-54.56104 -25.965903,17.94119 8.733031,61.2828 24.010006,54.56104 z"
           style="fill:#ffffff;fill-opacity:1;stroke:none"
           id="path21253" />
        <path
           inkscape:connector-curvature="0"
           d="m 113.52108,124.51636 c 18.18604,-3.70775 19.18294,-78.305797 -13.24821,-64.923505 -32.436971,13.385207 -4.923258,68.637075 13.24821,64.923505 l 0,0 z"
           style="fill:#ffffff;fill-opacity:1;stroke:none"
           id="path21255" />
        <path
           inkscape:connector-curvature="0"
           d="m 208.48551,291.45542 c 3.22679,24.64254 -18.07819,36.81224 -38.94302,20.92605 C 103.12073,261.81092 279.51863,236.58249 267.89111,167.4936 258.23989,110.14591 82.282129,127.80144 62.245127,217.53363 48.682111,278.2247 118.07415,362.42442 190.48019,362.42442 c 35.62004,0 76.70552,-32.16297 84.3921,-72.9074 5.8706,-31.06989 -69.08015,-18.62037 -66.38678,1.9384 l 0,0 z"
           style="fill:#ffffff;fill-opacity:1;stroke:none"
           id="path21257" />
      </g>
    </mask>
  </defs>
  <sodipodi:namedview
     id="base"
     pagecolor="#ffffff"
     bordercolor="#666666"
     borderopacity="1.0"
     inkscape:pageopacity="0.0"
     inkscape:pageshadow="2"
     inkscape:zoom="1.4142136"
     inkscape:cx="227.76379"
     inkscape:cy="68.317708"
     inkscape:document-units="px"
     inkscape:current-layer="layer1"
     showgrid="false"
     units="px"
     inkscape:window-width="1920"
     inkscape:window-height="1134"
     inkscape:window-x="0"
     inkscape:window-y="27"
     inkscape:window-maximized="1">
    <inkscape:grid
       type="xygrid"
       id="grid3117"
       empspacing="5"
       visible="true"
       enabled="true"
       snapvisiblegridlinesonly="true" />
  </sodipodi:namedview>
  <metadata
     id="metadata3025">
    <rdf:RDF>
      <cc:Work
         rdf:about="">
        <dc:format>image/svg+xml</dc:format>
        <dc:type
           rdf:resource="http://purl.org/dc/dcmitype/StillImage" />
        <dc:title />
      </cc:Work>
    </rdf:RDF>
  </metadata>
  <g
     inkscape:label="Layer 1"
     inkscape:groupmode="layer"
     id="layer1"
     transform="translate(0,-862.3598)">
    <path
       sodipodi:type="arc"
       style="fill:#f57900;stroke:none"
       id="path3119"
       sodipodi:cx="45"
       sodipodi:cy="45"
       sodipodi:rx="45"
       sodipodi:ry="45"
       d="M 90,45 C 90,69.852814 69.852814,90 45,90 20.147186,90 0,69.852814 0,45 0,20.147186 20.147186,0 45,0 69.852814,0 90,20.147186 90,45 z"
       transform="translate(0,862.35975)" />
    <g
       transform="matrix(0.456621,0,0,0.456621,23.034269,880.35975)"
       style="fill:#000000;fill-opacity:1;fill-rule:nonzero;stroke:none"
       id="g3771">
      <g
         style="fill:#000000;fill-opacity:1"
         id="g3773">
        <path
           inkscape:connector-curvature="0"
           d="M 86.068,0 C 61.466,0 56.851,35.041 70.691,35.041 84.529,35.041 110.671,0 86.068,0 z"
           style="fill:#000000;fill-opacity:1"
           id="path3775" />
        <path
           inkscape:connector-curvature="0"
           d="M 45.217,30.699 C 52.586,31.149 60.671,2.577 46.821,4.374 32.976,6.171 37.845,30.249 45.217,30.699 z"
           style="fill:#000000;fill-opacity:1"
           id="path3777" />
        <path
           inkscape:connector-curvature="0"
           d="M 11.445,48.453 C 16.686,46.146 12.12,23.581 3.208,29.735 -5.7,35.89 6.204,50.759 11.445,48.453 z"
           style="fill:#000000;fill-opacity:1"
           id="path3779" />
        <path
           inkscape:connector-curvature="0"
           d="M 26.212,36.642 C 32.451,35.37 32.793,9.778 21.667,14.369 10.539,18.961 19.978,37.916 26.212,36.642 l 0,0 z"
           style="fill:#000000;fill-opacity:1"
           id="path3781" />
        <path
           inkscape:connector-curvature="0"
           d="m 58.791,93.913 c 1.107,8.454 -6.202,12.629 -13.36,7.179 C 22.644,83.743 83.16,75.088 79.171,51.386 75.86,31.712 15.495,37.769 8.621,68.553 3.968,89.374 27.774,118.26 52.614,118.26 c 12.22,0 26.315,-11.034 28.952,-25.012 C 83.58,82.589 57.867,86.86 58.791,93.913 l 0,0 z"
           style="fill:#000000;fill-opacity:1"
           id="path3783" />
      </g>
    </g>
    <path
       transform="translate(100,862.35975)"
       d="M 90,45 C 90,69.852814 69.852814,90 45,90 20.147186,90 0,69.852814 0,45 0,20.147186 20.147186,0 45,0 69.852814,0 90,20.147186 90,45 z"
       sodipodi:ry="45"
       sodipodi:rx="45"
       sodipodi:cy="45"
       sodipodi:cx="45"
       id="path4070"
       style="fill:#75507b;stroke:none"
       sodipodi:type="arc" />
    <g
       id="g4072"
       style="fill:#000000;fill-opacity:1;fill-rule:nonzero;stroke:none"
       transform="matrix(0.456621,0,0,0.456621,123.03427,880.35975)">
      <g
         id="g4074"
         style="fill:#000000;fill-opacity:1">
        <path
           id="path4076"
           style="fill:#000000;fill-opacity:1"
           d="M 86.068,0 C 61.466,0 56.851,35.041 70.691,35.041 84.529,35.041 110.671,0 86.068,0 z"
           inkscape:connector-curvature="0" />
        <path
           id="path4078"
           style="fill:#000000;fill-opacity:1"
           d="M 45.217,30.699 C 52.586,31.149 60.671,2.577 46.821,4.374 32.976,6.171 37.845,30.249 45.217,30.699 z"
           inkscape:connector-curvature="0" />
        <path
           id="path4080"
           style="fill:#000000;fill-opacity:1"
           d="M 11.445,48.453 C 16.686,46.146 12.12,23.581 3.208,29.735 -5.7,35.89 6.204,50.759 11.445,48.453 z"
           inkscape:connector-curvature="0" />
        <path
           id="path4082"
           style="fill:#000000;fill-opacity:1"
           d="M 26.212,36.642 C 32.451,35.37 32.793,9.778 21.667,14.369 10.539,18.961 19.978,37.916 26.212,36.642 l 0,0 z"
           inkscape:connector-curvature="0" />
        <path
           id="path4084"
           style="fill:#000000;fill-opacity:1"
           d="m 58.791,93.913 c 1.107,8.454 -6.202,12.629 -13.36,7.179 C 22.644,83.743 83.16,75.088 79.171,51.386 75.86,31.712 15.495,37.769 8.621,68.553 3.968,89.374 27.774,118.26 52.614,118.26 c 12.22,0 26.315,-11.034 28.952,-25.012 C 83.58,82.589 57.867,86.86 58.791,93.913 l 0,0 z"
           inkscape:connector-curvature="0" />
      </g>
    </g>
    <path
       sodipodi:type="arc"
       style="fill:#4e9a06;stroke:none"
       id="path4086"
       sodipodi:cx="45"
       sodipodi:cy="45"
       sodipodi:rx="45"
       sodipodi:ry="45"
       d="M 90,45 C 90,69.852814 69.852814,90 45,90 20.147186,90 0,69.852814 0,45 0,20.147186 20.147186,0 45,0 69.852814,0 90,20.147186 90,45 z"
       transform="translate(200,862.35975)" />
    <g
       transform="matrix(0.456621,0,0,0.456621,223.03427,880.35975)"
       style="fill:#000000;fill-opacity:1;fill-rule:nonzero;stroke:none"
       id="g4088">
      <g
         style="fill:#000000;fill-opacity:1"
         id="g4090">
        <path
           inkscape:connector-curvature="0"
           d="M 86.068,0 C 61.466,0 56.851,35.041 70.691,35.041 84.529,35.041 110.671,0 86.068,0 z"
           style="fill:#000000;fill-opacity:1"
           id="path4092" />
        <path
           inkscape:connector-curvature="0"
           d="M 45.217,30.699 C 52.586,31.149 60.671,2.577 46.821,4.374 32.976,6.171 37.845,30.249 45.217,30.699 z"
           style="fill:#000000;fill-opacity:1"
           id="path4094" />
        <path
           inkscape:connector-curvature="0"
           d="M 11.445,48.453 C 16.686,46.146 12.12,23.581 3.208,29.735 -5.7,35.89 6.204,50.759 11.445,48.453 z"
           style="fill:#000000;fill-opacity:1"
           id="path4096" />
        <path
           inkscape:connector-curvature="0"
           d="M 26.212,36.642 C 32.451,35.37 32.793,9.778 21.667,14.369 10.539,18.961 19.978,37.916 26.212,36.642 l 0,0 z"
           style="fill:#000000;fill-opacity:1"
           id="path4098" />
        <path
           inkscape:connector-curvature="0"
           d="m 58.791,93.913 c 1.107,8.454 -6.202,12.629 -13.36,7.179 C 22.644,83.743 83.16,75.088 79.171,51.386 75.86,31.712 15.495,37.769 8.621,68.553 3.968,89.374 27.774,118.26 52.614,118.26 c 12.22,0 26.315,-11.034 28.952,-25.012 C 83.58,82.589 57.867,86.86 58.791,93.913 l 0,0 z"
           style="fill:#000000;fill-opacity:1"
           id="path4100" />
      </g>
    </g>
    <path
       transform="translate(0,962.3598)"
       d="M 90,45 C 90,69.852814 69.852814,90 45,90 20.147186,90 0,69.852814 0,45 0,20.147186 20.147186,0 45,0 69.852814,0 90,20.147186 90,45 z"
       sodipodi:ry="45"
       sodipodi:rx="45"
       sodipodi:cy="45"
       sodipodi:cx="45"
       id="path4102"
       style="fill:#babdb6;stroke:none"
       sodipodi:type="arc" />
    <g
       id="g4104"
       style="fill:#000000;fill-opacity:1;fill-rule:nonzero;stroke:none"
       transform="matrix(0.456621,0,0,0.456621,23.034269,980.3598)">
      <g
         id="g4106"
         style="fill:#000000;fill-opacity:1">
        <path
           id="path4108"
           style="fill:#000000;fill-opacity:1"
           d="M 86.068,0 C 61.466,0 56.851,35.041 70.691,35.041 84.529,35.041 110.671,0 86.068,0 z"
           inkscape:connector-curvature="0" />
        <path
           id="path4110"
           style="fill:#000000;fill-opacity:1"
           d="M 45.217,30.699 C 52.586,31.149 60.671,2.577 46.821,4.374 32.976,6.171 37.845,30.249 45.217,30.699 z"
           inkscape:connector-curvature="0" />
        <path
           id="path4112"
           style="fill:#000000;fill-opacity:1"
           d="M 11.445,48.453 C 16.686,46.146 12.12,23.581 3.208,29.735 -5.7,35.89 6.204,50.759 11.445,48.453 z"
           inkscape:connector-curvature="0" />
        <path
           id="path4114"
           style="fill:#000000;fill-opacity:1"
           d="M 26.212,36.642 C 32.451,35.37 32.793,9.778 21.667,14.369 10.539,18.961 19.978,37.916 26.212,36.642 l 0,0 z"
           inkscape:connector-curvature="0" />
        <path
           id="path4116"
           style="fill:#000000;fill-opacity:1"
           d="m 58.791,93.913 c 1.107,8.454 -6.202,12.629 -13.36,7.179 C 22.644,83.743 83.16,75.088 79.171,51.386 75.86,31.712 15.495,37.769 8.621,68.553 3.968,89.374 27.774,118.26 52.614,118.26 c 12.22,0 26.315,-11.034 28.952,-25.012 C 83.58,82.589 57.867,86.86 58.791,93.913 l 0,0 z"
           inkscape:connector-curvature="0" />
      </g>
    </g>
    <path
       sodipodi:type="arc"
       style="fill:#edd400;stroke:none"
       id="path4118"
       sodipodi:cx="45"
       sodipodi:cy="45"
       sodipodi:rx="45"
       sodipodi:ry="45"
       d="M 90,45 C 90,69.852814 69.852814,90 45,90 20.147186,90 0,69.852814 0,45 0,20.147186 20.147186,0 45,0 69.852814,0 90,20.147186 90,45 z"
       transform="translate(100,962.3598)" />
    <g
       transform="matrix(0.456621,0,0,0.456621,123.03427,980.3598)"
       style="fill:#000000;fill-opacity:1;fill-rule:nonzero;stroke:none"
       id="g4120">
      <g
         style="fill:#000000;fill-opacity:1"
         id="g4122">
        <path
           inkscape:connector-curvature="0"
           d="M 86.068,0 C 61.466,0 56.851,35.041 70.691,35.041 84.529,35.041 110.671,0 86.068,0 z"
           style="fill:#000000;fill-opacity:1"
           id="path4124" />
        <path
           inkscape:connector-curvature="0"
           d="M 45.217,30.699 C 52.586,31.149 60.671,2.577 46.821,4.374 32.976,6.171 37.845,30.249 45.217,30.699 z"
           style="fill:#000000;fill-opacity:1"
           id="path4126" />
        <path
           inkscape:connector-curvature="0"
           d="M 11.445,48.453 C 16.686,46.146 12.12,23.581 3.208,29.735 -5.7,35.89 6.204,50.759 11.445,48.453 z"
           style="fill:#000000;fill-opacity:1"
           id="path4128" />
        <path
           inkscape:connector-curvature="0"
           d="M 26.212,36.642 C 32.451,35.37 32.793,9.778 21.667,14.369 10.539,18.961 19.978,37.916 26.212,36.642 l 0,0 z"
           style="fill:#000000;fill-opacity:1"
           id="path4130" />
        <path
           inkscape:connector-curvature="0"
           d="m 58.791,93.913 c 1.107,8.454 -6.202,12.629 -13.36,7.179 C 22.644,83.743 83.16,75.088 79.171,51.386 75.86,31.712 15.495,37.769 8.621,68.553 3.968,89.374 27.774,118.26 52.614,118.26 c 12.22,0 26.315,-11.034 28.952,-25.012 C 83.58,82.589 57.867,86.86 58.791,93.913 l 0,0 z"
           style="fill:#000000;fill-opacity:1"
           id="path4132" />
      </g>
    </g>
    <path
       transform="translate(200,962.3598)"
       d="M 90,45 C 90,69.852814 69.852814,90 45,90 20.147186,90 0,69.852814 0,45 0,20.147186 20.147186,0 45,0 69.852814,0 90,20.147186 90,45 z"
       sodipodi:ry="45"
       sodipodi:rx="45"
       sodipodi:cy="45"
       sodipodi:cx="45"
       id="path4134"
       style="fill:#729fcf;stroke:none"
       sodipodi:type="arc" />
    <g
       id="g4136"
       style="fill:#000000;fill-opacity:1;fill-rule:nonzero;stroke:none"
       transform="matrix(0.456621,0,0,0.456621,223.03427,980.3598)">
      <g
         id="g4138"
         style="fill:#000000;fill-opacity:1">
        <path
           id="path4140"
           style="fill:#000000;fill-opacity:1"
           d="M 86.068,0 C 61.466,0 56.851,35.041 70.691,35.041 84.529,35.041 110.671,0 86.068,0 z"
           inkscape:connector-curvature="0" />
        <path
           id="path4142"
           style="fill:#000000;fill-opacity:1"
           d="M 45.217,30.699 C 52.586,31.149 60.671,2.577 46.821,4.374 32.976,6.171 37.845,30.249 45.217,30.699 z"
           inkscape:connector-curvature="0" />
        <path
           id="path4144"
           style="fill:#000000;fill-opacity:1"
           d="M 11.445,48.453 C 16.686,46.146 12.12,23.581 3.208,29.735 -5.7,35.89 6.204,50.759 11.445,48.453 z"
           inkscape:connector-curvature="0" />
        <path
           id="path4146"
           style="fill:#000000;fill-opacity:1"
           d="M 26.212,36.642 C 32.451,35.37 32.793,9.778 21.667,14.369 10.539,18.961 19.978,37.916 26.212,36.642 l 0,0 z"
           inkscape:connector-curvature="0" />
        <path
           id="path4148"
           style="fill:#000000;fill-opacity:1"
           d="m 58.791,93.913 c 1.107,8.454 -6.202,12.629 -13.36,7.179 C 22.644,83.743 83.16,75.088 79.171,51.386 75.86,31.712 15.495,37.769 8.621,68.553 3.968,89.374 27.774,118.26 52.614,118.26 c 12.22,0 26.315,-11.034 28.952,-25.012 C 83.58,82.589 57.867,86.86 58.791,93.913 l 0,0 z"
           inkscape:connector-curvature="0" />
      </g>
    </g>
  </g>
</svg>
