<?xml version="1.0" encoding="UTF-8" standalone="no"?>
<!-- Created with Inkscape (http://www.inkscape.org/) -->

<svg
   xmlns:dc="http://purl.org/dc/elements/1.1/"
   xmlns:cc="http://creativecommons.org/ns#"
   xmlns:rdf="http://www.w3.org/1999/02/22-rdf-syntax-ns#"
   xmlns:svg="http://www.w3.org/2000/svg"
   xmlns="http://www.w3.org/2000/svg"
   xmlns:xlink="http://www.w3.org/1999/xlink"
   xmlns:sodipodi="http://sodipodi.sourceforge.net/DTD/sodipodi-0.dtd"
   xmlns:inkscape="http://www.inkscape.org/namespaces/inkscape"
   width="744.09448819"
   height="1052.3622047"
   id="svg2"
   version="1.1"
   inkscape:version="0.48.4 r9939"
   sodipodi:docname="New document 34">
  <defs
     id="defs4">
    <linearGradient
       y2="203.94012"
       x2="513.42859"
       y1="760.55048"
       x1="513.42859"
       gradientTransform="matrix(0.96541646,0,0,1.3453243,3.9104262,-229.67202)"
       gradientUnits="userSpaceOnUse"
       id="linearGradient6790"
       xlink:href="#linearGradient3778-2"
       inkscape:collect="always" />
    <linearGradient
       inkscape:collect="always"
       id="linearGradient3778-2">
      <stop
         style="stop-color:#688c9d;stop-opacity:1"
         offset="0"
         id="stop3780-7" />
      <stop
         style="stop-color:#93adb9;stop-opacity:1"
         offset="1"
         id="stop3782-6" />
    </linearGradient>
  </defs>
  <sodipodi:namedview
     id="base"
     pagecolor="#ffffff"
     bordercolor="#666666"
     borderopacity="1.0"
     inkscape:pageopacity="0.0"
     inkscape:pageshadow="2"
     inkscape:zoom="0.24748737"
     inkscape:cx="1092.1112"
     inkscape:cy="778.58671"
     inkscape:document-units="px"
     inkscape:current-layer="layer1"
     showgrid="false"
     inkscape:snap-nodes="false"
     inkscape:snap-bbox="true"
     inkscape:window-width="1920"
     inkscape:window-height="1014"
     inkscape:window-x="0"
     inkscape:window-y="27"
     inkscape:window-maximized="1"
     inkscape:snap-global="false"
     showborder="true"
     inkscape:showpageshadow="false">
    <inkscape:grid
       type="xygrid"
       id="grid6061"
       empspacing="5"
       visible="true"
       enabled="true"
       snapvisiblegridlinesonly="true" />
  </sodipodi:namedview>
  <metadata
     id="metadata7">
    <rdf:RDF>
      <cc:Work
         rdf:about="">
        <dc:format>image/svg+xml</dc:format>
        <dc:type
           rdf:resource="http://purl.org/dc/dcmitype/StillImage" />
        <dc:title></dc:title>
      </cc:Work>
    </rdf:RDF>
  </metadata>
  <g
     inkscape:label="Layer 1"
     inkscape:groupmode="layer"
     id="layer1">
    <path
       style="color:#000000;fill:url(#linearGradient6790);fill-opacity:1;fill-rule:nonzero;stroke:none;stroke-width:0.99999994;marker:none;visibility:visible;display:inline;overflow:visible;enable-background:new"
       d="m -0.08919384,0.18744929 749.16317384,0 0,916.71429071 -749.16317384,0 z"
       id="rect3008-2"
       inkscape:connector-curvature="0"
       inkscape:export-filename="/home/andreasn/SparkleShare/gnome-marketing/guadec/sponsor-2014.png"
       inkscape:export-xdpi="90"
       inkscape:export-ydpi="90" />
    <path
       d="m 264.61278,373.1066 0,-23.27793 -25.8099,0 0,8.82111 15.927,0 0,10.86303 c -2.45031,1.96025 -6.0441,3.34876 -10.78136,3.34876 -12.25153,0 -21.07265,-8.41274 -21.07265,-20.1742 0,-12.08818 9.63789,-19.19408 19.76582,-19.19408 5.71738,0 11.18974,2.04192 14.29346,3.67546 l 1.47019,0.81677 4.16552,-7.92266 -1.38851,-0.81677 c -4.81893,-2.69534 -11.3531,-4.98229 -18.94904,-4.98229 -19.03071,0 -29.48537,13.96677 -29.48537,28.83195 0,13.96674 9.31119,29.07699 29.64872,29.07699 13.64003,0 20.09253,-6.77919 22.21612,-9.06614"
       id="path8946"
       inkscape:connector-curvature="0"
       style="font-size:81.67692566px;font-style:normal;font-variant:normal;font-weight:bold;font-stretch:normal;text-align:start;line-height:125%;letter-spacing:0px;word-spacing:0px;writing-mode:lr-tb;text-anchor:start;fill:#eeeeec;fill-opacity:1;stroke:none;font-family:Cantarell;-inkscape-font-specification:Cantarell Bold"
       inkscape:export-filename="/home/andreasn/SparkleShare/gnome-marketing/guadec/sponsor-2014.png"
       inkscape:export-xdpi="90"
       inkscape:export-ydpi="90" />
    <path
       d="m 300.13076,382.17274 c 22.2161,0 23.19625,-14.37515 23.19625,-21.236 0,-3.67546 -0.0817,-4e-5 -0.0817,-36.26456 l -9.96458,0 0,35.93785 c 0,1.71521 -0.16336,3.34875 -0.57174,4.81894 -1.22515,4.90061 -5.88075,7.59595 -12.57825,7.59595 -6.53415,0 -9.63788,-2.61366 -10.618,-3.67546 -2.28695,-2.45031 -2.53198,-5.309 -2.53198,-8.73943 l 0,-35.93785 -10.04627,0 0,36.83629 0,0.49007 c 0,6.28911 0.32674,20.1742 23.19625,20.1742"
       id="path8948"
       inkscape:connector-curvature="0"
       style="font-size:81.67692566px;font-style:normal;font-variant:normal;font-weight:bold;font-stretch:normal;text-align:start;line-height:125%;letter-spacing:0px;word-spacing:0px;writing-mode:lr-tb;text-anchor:start;fill:#eeeeec;fill-opacity:1;stroke:none;font-family:Cantarell;-inkscape-font-specification:Cantarell Bold"
       inkscape:export-filename="/home/andreasn/SparkleShare/gnome-marketing/guadec/sponsor-2014.png"
       inkscape:export-xdpi="90"
       inkscape:export-ydpi="90" />
    <path
       d="m 352.69117,324.67218 -21.15435,56.68379 9.80123,0 5.63571,-14.8652 20.82761,0 5.7174,14.8652 10.373,0 -21.236,-56.68379 -9.9646,0 m 11.9248,32.67077 -14.4568,0 7.2692,-21.07265 7.1876,21.07265"
       id="path8950"
       inkscape:connector-curvature="0"
       style="font-size:81.67692566px;font-style:normal;font-variant:normal;font-weight:bold;font-stretch:normal;text-align:start;line-height:125%;letter-spacing:0px;word-spacing:0px;writing-mode:lr-tb;text-anchor:start;fill:#eeeeec;fill-opacity:1;stroke:none;font-family:Cantarell;-inkscape-font-specification:Cantarell Bold"
       inkscape:export-filename="/home/andreasn/SparkleShare/gnome-marketing/guadec/sponsor-2014.png"
       inkscape:export-xdpi="90"
       inkscape:export-ydpi="90" />
    <path
       d="m 411.38747,333.90167 c 1.7152,0 3.3488,0.0817 4.9006,0.32671 6.7792,1.0618 14.7836,6.37081 14.7836,18.45899 0,5.30899 -1.4702,8.73943 -2.4503,10.618 -4.6556,8.57607 -13.7218,8.82111 -19.9292,8.82111 l -6.5342,0 0,-38.22481 9.2295,0 m -0.245,-9.22949 -19.0307,0 0,56.68379 14.1301,0 c 4.7372,0 9.7195,0 14.5385,-1.22516 15.7636,-3.75713 20.3375,-17.23384 20.3375,-28.75027 0,-12.49656 -6.5342,-26.70836 -29.9754,-26.70836"
       id="path8952"
       inkscape:connector-curvature="0"
       style="font-size:81.67692566px;font-style:normal;font-variant:normal;font-weight:bold;font-stretch:normal;text-align:start;line-height:125%;letter-spacing:0px;word-spacing:0px;writing-mode:lr-tb;text-anchor:start;fill:#eeeeec;fill-opacity:1;stroke:none;font-family:Cantarell;-inkscape-font-specification:Cantarell Bold"
       inkscape:export-filename="/home/andreasn/SparkleShare/gnome-marketing/guadec/sponsor-2014.png"
       inkscape:export-xdpi="90"
       inkscape:export-ydpi="90" />
    <path
       d="m 451.77417,381.35597 37.6531,0 0,-9.22949 -27.6068,0 0,-15.35527 25.4832,0 0,-9.22949 -25.4832,0 0,-13.64005 27.6068,0 0,-9.22949 -37.6531,0 0,56.68379"
       id="path8954"
       inkscape:connector-curvature="0"
       style="font-size:81.67692566px;font-style:normal;font-variant:normal;font-weight:bold;font-stretch:normal;text-align:start;line-height:125%;letter-spacing:0px;word-spacing:0px;writing-mode:lr-tb;text-anchor:start;fill:#eeeeec;fill-opacity:1;stroke:none;font-family:Cantarell;-inkscape-font-specification:Cantarell Bold"
       inkscape:export-filename="/home/andreasn/SparkleShare/gnome-marketing/guadec/sponsor-2014.png"
       inkscape:export-xdpi="90"
       inkscape:export-ydpi="90" />
    <path
       d="m 526.75997,324.2638 c -18.3773,0 -30.0571,12.49658 -30.0571,28.83195 0,16.09034 11.1897,29.07699 29.567,29.07699 5.2274,0 11.3531,-1.22516 17.3155,-3.75714 l 1.4702,-0.57174 -3.267,-8.00434 -1.4702,0.49006 c -4.4106,1.55186 -8.6578,2.36863 -12.2516,2.36863 -13.2316,0 -21.236,-9.14782 -21.236,-19.68414 0,-10.2096 7.4326,-19.4391 19.7658,-19.4391 2.532,0 6.6976,0.32671 12.9867,2.53198 l 1.5518,0.57174 3.1038,-8.65775 -1.4702,-0.57174 c -5.9624,-2.36863 -11.5982,-3.1854 -16.0087,-3.1854"
       id="path8956"
       inkscape:connector-curvature="0"
       style="font-size:81.67692566px;font-style:normal;font-variant:normal;font-weight:bold;font-stretch:normal;text-align:start;line-height:125%;letter-spacing:0px;word-spacing:0px;writing-mode:lr-tb;text-anchor:start;fill:#eeeeec;fill-opacity:1;stroke:none;font-family:Cantarell;-inkscape-font-specification:Cantarell Bold"
       inkscape:export-filename="/home/andreasn/SparkleShare/gnome-marketing/guadec/sponsor-2014.png"
       inkscape:export-xdpi="90"
       inkscape:export-ydpi="90" />
    <path
       inkscape:connector-curvature="0"
       id="path9020"
       d="m 224.96446,297.19316 c 0.99254,0 2.01425,-0.17515 3.09435,-0.52546 l 0,-1.7807 c -0.75899,0.20434 -1.54717,0.32111 -2.39374,0.32111 -1.80989,0 -2.27696,-0.93416 -2.27696,-2.83162 l 0,-7.56073 4.67071,0 0,-1.98506 -4.67071,0 0,-3.61981 -2.36455,0.11674 0,3.50304 -2.36455,0 0,1.98506 2.36455,0 0,7.73586 c 0,2.97759 0.99252,4.64154 3.94092,4.64154"
       style="font-size:29.50051689px;font-style:normal;font-variant:normal;font-weight:normal;font-stretch:normal;text-align:start;line-height:125%;letter-spacing:0px;word-spacing:0px;writing-mode:lr-tb;text-anchor:start;fill:#eeeeec;fill-opacity:1;stroke:none;font-family:Cantarell;-inkscape-font-specification:Cantarell"
       inkscape:export-filename="/home/andreasn/SparkleShare/gnome-marketing/guadec/sponsor-2014.png"
       inkscape:export-xdpi="90"
       inkscape:export-ydpi="90" />
    <path
       inkscape:connector-curvature="0"
       id="path9022"
       d="m 240.28205,287.88091 0,9.04953 2.36457,0 0,-9.60417 c 0,-2.97758 -1.60556,-4.87508 -4.55395,-4.87508 -1.4596,0 -3.00678,0.4379 -4.69992,1.28448 l 0,-6.36387 -2.42293,0 0,19.55864 2.42293,0 0,-11.41408 c 1.4304,-0.7006 2.68566,-1.0509 3.79494,-1.0509 2.27698,0 3.09436,1.08009 3.09436,3.41545"
       style="font-size:29.50051689px;font-style:normal;font-variant:normal;font-weight:normal;font-stretch:normal;text-align:start;line-height:125%;letter-spacing:0px;word-spacing:0px;writing-mode:lr-tb;text-anchor:start;fill:#eeeeec;fill-opacity:1;stroke:none;font-family:Cantarell;-inkscape-font-specification:Cantarell"
       inkscape:export-filename="/home/andreasn/SparkleShare/gnome-marketing/guadec/sponsor-2014.png"
       inkscape:export-xdpi="90"
       inkscape:export-ydpi="90" />
    <path
       inkscape:connector-curvature="0"
       id="path9024"
       d="m 252.4998,282.62636 c -2.04342,0 -3.61979,0.7298 -4.75829,2.1894 -1.08009,1.45959 -1.63475,3.21111 -1.63475,5.31293 0,4.55397 2.48135,7.06447 7.09366,7.06447 1.57637,0 3.09436,-0.26272 4.52477,-0.759 l 0,-1.89746 c -1.37203,0.43787 -2.65648,0.64222 -3.88255,0.64222 -1.7807,0 -3.09434,-0.40869 -3.91173,-1.28444 -0.81737,-0.87577 -1.28445,-1.98507 -1.37203,-3.32789 l 9.57498,0 0.14596,-0.23356 0,-1.28443 c 0,-4.0285 -2.07265,-6.42224 -5.78004,-6.42224 m 3.38628,6.10111 -7.26881,0 c 0.26274,-2.24776 1.4596,-4.20363 4.08689,-4.20363 2.18938,0 3.18192,1.92668 3.18192,4.20363"
       style="font-size:29.50051689px;font-style:normal;font-variant:normal;font-weight:normal;font-stretch:normal;text-align:start;line-height:125%;letter-spacing:0px;word-spacing:0px;writing-mode:lr-tb;text-anchor:start;fill:#eeeeec;fill-opacity:1;stroke:none;font-family:Cantarell;-inkscape-font-specification:Cantarell"
       inkscape:export-filename="/home/andreasn/SparkleShare/gnome-marketing/guadec/sponsor-2014.png"
       inkscape:export-xdpi="90"
       inkscape:export-ydpi="90" />
    <path
       inkscape:connector-curvature="0"
       id="path9027"
       d="m 429.42624,281.36147 0.60502,-1.81507 c -1.73613,-0.63133 -3.10398,-0.94699 -5.49781,-0.94699 -2.65679,0 -5.02432,1.18374 -6.41848,2.63053 -1.44676,1.4994 -2.52535,3.86689 -2.52535,6.70786 0,2.78836 0.84184,5.02432 2.47274,6.78677 1.49938,1.52571 3.78799,2.60423 6.70783,2.60423 2.05187,0 3.86691,-0.36827 5.49781,-1.10483 l -0.5524,-1.73614 c -1.44677,0.57871 -2.86723,0.86807 -4.31409,0.86807 -1.42046,0 -2.7094,-0.28936 -3.81421,-0.92068 -2.07817,-1.18374 -3.52494,-3.4197 -3.52494,-6.52373 0,-2.13073 0.65762,-3.84058 1.92026,-5.23475 1.05219,-1.13113 2.89362,-2.10443 4.9454,-2.10443 2.07818,0 2.84102,0.21044 4.49822,0.78916"
       style="font-size:29.50051689px;font-style:normal;font-variant:normal;font-weight:normal;font-stretch:normal;text-align:start;line-height:125%;letter-spacing:0px;word-spacing:0px;writing-mode:lr-tb;text-anchor:start;fill:#eeeeec;fill-opacity:1;stroke:none;font-family:Cantarell;-inkscape-font-specification:Cantarell"
       inkscape:export-filename="/home/andreasn/SparkleShare/gnome-marketing/guadec/sponsor-2014.png"
       inkscape:export-xdpi="90"
       inkscape:export-ydpi="90" />
    <path
       inkscape:connector-curvature="0"
       id="path9029"
       d="m 438.64463,285.85968 c 2.57796,0 3.91951,2.20965 3.91951,4.89279 0,2.73575 -1.34155,4.86648 -3.91951,4.86648 -2.57788,0 -3.91952,-2.18334 -3.91952,-4.86648 0,-2.65683 1.34164,-4.89279 3.91952,-4.89279 m -0.0526,11.46912 c 3.8669,0 6.15552,-2.63054 6.15552,-6.60263 0,-3.9458 -2.1834,-6.55003 -6.07661,-6.55003 -3.89321,0 -6.12912,2.63053 -6.12912,6.57633 0,3.9721 2.157,6.57633 6.05021,6.57633"
       style="font-size:29.50051689px;font-style:normal;font-variant:normal;font-weight:normal;font-stretch:normal;text-align:start;line-height:125%;letter-spacing:0px;word-spacing:0px;writing-mode:lr-tb;text-anchor:start;fill:#eeeeec;fill-opacity:1;stroke:none;font-family:Cantarell;-inkscape-font-specification:Cantarell"
       inkscape:export-filename="/home/andreasn/SparkleShare/gnome-marketing/guadec/sponsor-2014.png"
       inkscape:export-xdpi="90"
       inkscape:export-ydpi="90" />
    <path
       inkscape:connector-curvature="0"
       id="path9031"
       d="m 453.5166,285.93859 c 0.99958,0 1.6836,0.23675 2.10448,0.71024 0.42087,0.4735 0.63131,1.26266 0.63131,2.34118 l 0,8.07574 2.1307,0 0,-8.60185 c 0,-1.36787 -0.34197,-2.42009 -1.0522,-3.18294 -0.71023,-0.76286 -1.70981,-1.15743 -3.05145,-1.15743 -1.34155,0 -2.89354,0.42088 -4.49813,1.26265 l -0.42097,-0.94699 -1.49938,0 0,12.62656 2.15709,0 0,-10.20647 c 1.28894,-0.60502 2.49896,-0.92069 3.49855,-0.92069"
       style="font-size:29.50051689px;font-style:normal;font-variant:normal;font-weight:normal;font-stretch:normal;text-align:start;line-height:125%;letter-spacing:0px;word-spacing:0px;writing-mode:lr-tb;text-anchor:start;fill:#eeeeec;fill-opacity:1;stroke:none;font-family:Cantarell;-inkscape-font-specification:Cantarell"
       inkscape:export-filename="/home/andreasn/SparkleShare/gnome-marketing/guadec/sponsor-2014.png"
       inkscape:export-xdpi="90"
       inkscape:export-ydpi="90" />
    <path
       inkscape:connector-curvature="0"
       id="path9033"
       d="m 467.31461,280.46708 c 0.57871,0 1.26264,0.10523 2.07809,0.31567 l 0.34196,-1.57832 c -0.89436,-0.26306 -1.99917,-0.4735 -3.07767,-0.4735 -1.78882,0 -3.07776,0.65763 -3.81429,1.9729 -0.26305,0.4735 -0.39457,1.28896 -0.39457,2.39379 l 0,1.28896 -1.84143,0 0,1.65723 1.84143,0 0.0258,11.02194 2.1307,0 -0.0259,-11.02194 4.23517,0 0,-1.65723 -4.23517,0 0,-1.21004 c 0,-0.34198 0.0259,-0.63134 0.0526,-0.81547 0.15783,-1.05221 1.21002,-1.89399 2.68318,-1.89399"
       style="font-size:29.50051689px;font-style:normal;font-variant:normal;font-weight:normal;font-stretch:normal;text-align:start;line-height:125%;letter-spacing:0px;word-spacing:0px;writing-mode:lr-tb;text-anchor:start;fill:#eeeeec;fill-opacity:1;stroke:none;font-family:Cantarell;-inkscape-font-specification:Cantarell"
       inkscape:export-filename="/home/andreasn/SparkleShare/gnome-marketing/guadec/sponsor-2014.png"
       inkscape:export-xdpi="90"
       inkscape:export-ydpi="90" />
    <path
       inkscape:connector-curvature="0"
       id="path9035"
       d="m 477.0237,284.17614 c -1.84134,0 -3.26181,0.65763 -4.28779,1.9729 -0.97328,1.31526 -1.47307,2.89358 -1.47307,4.78757 0,4.10363 2.236,6.36588 6.39217,6.36588 1.42056,0 2.78841,-0.23674 4.07735,-0.68393 l 0,-1.70985 c -1.23633,0.39458 -2.39375,0.57872 -3.49855,0.57872 -1.60469,0 -2.78841,-0.36828 -3.52494,-1.15743 -0.73654,-0.78917 -1.15742,-1.78877 -1.23633,-2.99881 l 8.62809,0 0.13152,-0.21045 0,-1.15743 c 0,-3.63014 -1.86765,-5.78717 -5.20845,-5.78717 m 3.05145,5.49781 -6.55,0 c 0.23674,-2.02551 1.31524,-3.78797 3.68268,-3.78797 1.97295,0 2.86732,1.73616 2.86732,3.78797"
       style="font-size:29.50051689px;font-style:normal;font-variant:normal;font-weight:normal;font-stretch:normal;text-align:start;line-height:125%;letter-spacing:0px;word-spacing:0px;writing-mode:lr-tb;text-anchor:start;fill:#eeeeec;fill-opacity:1;stroke:none;font-family:Cantarell;-inkscape-font-specification:Cantarell"
       inkscape:export-filename="/home/andreasn/SparkleShare/gnome-marketing/guadec/sponsor-2014.png"
       inkscape:export-xdpi="90"
       inkscape:export-ydpi="90" />
    <path
       inkscape:connector-curvature="0"
       id="path9037"
       d="m 491.31901,284.17614 c -1.23633,0 -2.39374,0.42089 -3.52494,1.28896 l -0.42088,-1.05222 -1.57829,0 0,12.65287 2.1833,0 0,-10.07495 c 0.92076,-0.60502 1.86774,-0.92068 2.89363,-0.92068 0.63131,0 1.26263,0.15783 1.92025,0.42088 l 0.26305,0 0,-2.07812 c -0.5524,-0.15783 -1.13111,-0.23674 -1.73612,-0.23674"
       style="font-size:29.50051689px;font-style:normal;font-variant:normal;font-weight:normal;font-stretch:normal;text-align:start;line-height:125%;letter-spacing:0px;word-spacing:0px;writing-mode:lr-tb;text-anchor:start;fill:#eeeeec;fill-opacity:1;stroke:none;font-family:Cantarell;-inkscape-font-specification:Cantarell"
       inkscape:export-filename="/home/andreasn/SparkleShare/gnome-marketing/guadec/sponsor-2014.png"
       inkscape:export-xdpi="90"
       inkscape:export-ydpi="90" />
    <path
       inkscape:connector-curvature="0"
       id="path9039"
       d="m 501.0684,284.17614 c -1.84134,0 -3.26181,0.65763 -4.2877,1.9729 -0.97337,1.31526 -1.47316,2.89358 -1.47316,4.78757 0,4.10363 2.236,6.36588 6.39226,6.36588 1.42046,0 2.78832,-0.23674 4.07726,-0.68393 l 0,-1.70985 c -1.23633,0.39458 -2.39375,0.57872 -3.49855,0.57872 -1.60469,0 -2.78841,-0.36828 -3.52494,-1.15743 -0.73654,-0.78917 -1.15742,-1.78877 -1.23633,-2.99881 l 8.62808,0 0.13153,-0.21045 0,-1.15743 c 0,-3.63014 -1.86765,-5.78717 -5.20845,-5.78717 m 3.05145,5.49781 -6.55,0 c 0.23674,-2.02551 1.31524,-3.78797 3.68268,-3.78797 1.97295,0 2.86732,1.73616 2.86732,3.78797"
       style="font-size:29.50051689px;font-style:normal;font-variant:normal;font-weight:normal;font-stretch:normal;text-align:start;line-height:125%;letter-spacing:0px;word-spacing:0px;writing-mode:lr-tb;text-anchor:start;fill:#eeeeec;fill-opacity:1;stroke:none;font-family:Cantarell;-inkscape-font-specification:Cantarell"
       inkscape:export-filename="/home/andreasn/SparkleShare/gnome-marketing/guadec/sponsor-2014.png"
       inkscape:export-xdpi="90"
       inkscape:export-ydpi="90" />
    <path
       inkscape:connector-curvature="0"
       id="path9041"
       d="m 514.7587,285.93859 c 0.99958,0 1.6836,0.23675 2.10448,0.71024 0.42087,0.4735 0.63131,1.26266 0.63131,2.34118 l 0,8.07574 2.1307,0 0,-8.60185 c 0,-1.36787 -0.34197,-2.42009 -1.0522,-3.18294 -0.71023,-0.76286 -1.70981,-1.15743 -3.05145,-1.15743 -1.34155,0 -2.89354,0.42088 -4.49822,1.26265 l -0.42088,-0.94699 -1.49938,0 0,12.62656 2.157,0 0,-10.20647 c 1.28903,-0.60502 2.49905,-0.92069 3.49864,-0.92069"
       style="font-size:29.50051689px;font-style:normal;font-variant:normal;font-weight:normal;font-stretch:normal;text-align:start;line-height:125%;letter-spacing:0px;word-spacing:0px;writing-mode:lr-tb;text-anchor:start;fill:#eeeeec;fill-opacity:1;stroke:none;font-family:Cantarell;-inkscape-font-specification:Cantarell"
       inkscape:export-filename="/home/andreasn/SparkleShare/gnome-marketing/guadec/sponsor-2014.png"
       inkscape:export-xdpi="90"
       inkscape:export-ydpi="90" />
    <path
       inkscape:connector-curvature="0"
       id="path9043"
       d="m 528.68824,297.35511 c 0.0267,0 0.0794,0 0.10522,-0.0263 1.1048,0 2.23591,-0.23674 3.44594,-0.71024 l -0.4998,-1.44679 c -0.81545,0.28936 -1.57829,0.44719 -2.28852,0.44719 -0.21044,0 -0.42088,-0.0263 -0.60501,-0.0526 -2.78841,-0.31567 -4.10365,-1.89398 -4.10365,-4.99801 0,-2.9725 1.47307,-4.62974 4.49822,-4.62974 0.76284,0 1.65721,0.15783 2.63049,0.4998 l 0.52609,-1.52571 c -1.15741,-0.4998 -2.23591,-0.76285 -3.2618,-0.76285 -2.2097,0 -3.8406,0.63133 -4.9191,1.92029 -1.02589,1.23635 -1.55199,2.86728 -1.55199,4.89279 0,3.9984 2.10439,6.3922 6.02391,6.3922"
       style="font-size:29.50051689px;font-style:normal;font-variant:normal;font-weight:normal;font-stretch:normal;text-align:start;line-height:125%;letter-spacing:0px;word-spacing:0px;writing-mode:lr-tb;text-anchor:start;fill:#eeeeec;fill-opacity:1;stroke:none;font-family:Cantarell;-inkscape-font-specification:Cantarell"
       inkscape:export-filename="/home/andreasn/SparkleShare/gnome-marketing/guadec/sponsor-2014.png"
       inkscape:export-xdpi="90"
       inkscape:export-ydpi="90" />
    <path
       inkscape:connector-curvature="0"
       id="path9045"
       d="m 540.78331,284.17614 c -1.84135,0 -3.26181,0.65763 -4.28779,1.9729 -0.97328,1.31526 -1.47307,2.89358 -1.47307,4.78757 0,4.10363 2.236,6.36588 6.39217,6.36588 1.42055,0 2.78841,-0.23674 4.07735,-0.68393 l 0,-1.70985 c -1.23633,0.39458 -2.39375,0.57872 -3.49864,0.57872 -1.6046,0 -2.78832,-0.36828 -3.52485,-1.15743 -0.73654,-0.78917 -1.15751,-1.78877 -1.23642,-2.99881 l 8.62817,0 0.13153,-0.21045 0,-1.15743 c 0,-3.63014 -1.86765,-5.78717 -5.20845,-5.78717 m 3.05145,5.49781 -6.55009,0 c 0.23683,-2.02551 1.31533,-3.78797 3.68277,-3.78797 1.97295,0 2.86732,1.73616 2.86732,3.78797"
       style="font-size:29.50051689px;font-style:normal;font-variant:normal;font-weight:normal;font-stretch:normal;text-align:start;line-height:125%;letter-spacing:0px;word-spacing:0px;writing-mode:lr-tb;text-anchor:start;fill:#eeeeec;fill-opacity:1;stroke:none;font-family:Cantarell;-inkscape-font-specification:Cantarell"
       inkscape:export-filename="/home/andreasn/SparkleShare/gnome-marketing/guadec/sponsor-2014.png"
       inkscape:export-xdpi="90"
       inkscape:export-ydpi="90" />
    <path
       style="fill:#ffffff;fill-opacity:1;stroke:none"
       d="m 568.60643,779.79017 0,7.65625 -1.53125,0 0,3.21875 0.96875,0 0,4.4375 -0.84375,4.59375 -0.59375,0.15625 -0.0625,3.6875 -0.875,0.0625 0,4.03125 -0.53125,0 -0.15625,4.21875 -0.53125,0 0,3.75 -0.625,0 0,3.46875 -0.9375,0.0312 -0.0937,6.0625 -4.3125,0 0,42.03125 -30.34375,0.28125 -0.8125,-3 -0.96875,0 0,59.65625 59.59375,0 0,-36.0625 -2.65625,-9.9375 1.9375,-1.09375 -2.21875,-2.21875 0,-3.5625 1.65625,-0.46875 1.03125,-3.84375 -5.15625,0.0312 0.15625,-41.8125 -4.3125,0 -0.0937,-6.0625 -0.9375,-0.0312 0,-3.46875 -0.625,0 0,-3.75 -0.53125,0 -0.15625,-4.21875 -0.5625,0 0.0312,-4.03125 -0.875,-0.0625 -0.0625,-3.6875 -0.59375,-0.15625 -0.84375,-4.59375 0,-4.4375 0.96875,0 0,-3.21875 -1.5625,0 0,-7.65625 -1.9375,0 z m -6.71875,47.84375 1.25,0 0,13.4375 -1.25,0 0,-13.4375 z m 14.75,0 1.21875,0 0,13.4375 -1.21875,0 0,-13.4375 z m 25.21875,63.90625 0,33.59375 17.15625,0 0,0.6875 57.84375,0 0,-22.6875 -45.34375,0 0,-11.59375 -29.65625,0 z"
       id="path13425"
       inkscape:connector-curvature="0" />
    <path
       style="color:#000000;fill:#ffffff;fill-opacity:1;fill-rule:nonzero;stroke:none;stroke-width:1;marker:none;visibility:visible;display:inline;overflow:visible;enable-background:accumulate"
       d="m 139.79393,850.47767 -18.9375,15.71875 0,12.84375 -46.437502,0 0,44.28125 46.437502,0 3.5625,0 78.59375,0 0,-9.5625 c 2.36435,-0.84666 14.98747,-5.21875 25.4375,-5.21875 11.41739,0 26.06965,5.39893 26.34375,5.5 l 0,4.375 0.0937,0 0,0.0625 4.65625,0 0,-0.0625 11.03125,0 0,0.0625 3.3125,0 0,-0.0625 0.28125,0 0,-4.4375 c 0.79255,-0.29189 14.86007,-5.4375 26.0625,-5.4375 10.91205,0 24.45306,4.8174 25.90625,5.34375 l 0,4.53125 0.53125,0 0,0.0625 4.65625,0 0,-0.0625 14.1875,0 0,-32.8125 0.0312,0 -0.0312,-0.0625 0,-0.25 -0.125,0 -6.3125,-11.59375 -6.75,0 -6.03125,11.59375 -0.15625,0 0,0.3125 0,19.71875 -51.96875,0 0,-19.34375 0.0312,0 -0.0312,-0.0625 0,-0.25 -0.125,0 -6.3125,-11.46875 -6.71875,0 -6.0625,11.46875 -0.15625,0 0,0.3125 0,19.34375 -51.78125,0 0,-39.125 -18.59375,-15.34375 -44.625,-0.375 z"
       id="rect13502"
       inkscape:connector-curvature="0" />
    <path
       id="path15047-7"
       style="fill:#eeeeec;fill-opacity:1;fill-rule:nonzero;stroke:none"
       d="m 305.02093,262.25047 c -9.33223,0 -11.08283,13.29204 -5.83293,13.29204 5.24915,0 15.16554,-13.29204 5.83293,-13.29204 z"
       inkscape:connector-curvature="0"
       inkscape:export-filename="/home/andreasn/SparkleShare/gnome-marketing/guadec/sponsor-2014.png"
       inkscape:export-xdpi="90"
       inkscape:export-ydpi="90" />
    <path
       id="path15049-2"
       style="fill:#eeeeec;fill-opacity:1;fill-rule:nonzero;stroke:none"
       d="m 289.525,273.89546 c 2.79527,0.1707 5.86214,-10.66746 0.60845,-9.9858 -5.2518,0.68164 -3.40486,9.81511 -0.60845,9.9858 z"
       inkscape:connector-curvature="0"
       inkscape:export-filename="/home/andreasn/SparkleShare/gnome-marketing/guadec/sponsor-2014.png"
       inkscape:export-xdpi="90"
       inkscape:export-ydpi="90" />
    <path
       id="path15051-0"
       style="fill:#eeeeec;fill-opacity:1;fill-rule:nonzero;stroke:none"
       d="m 276.71433,280.63005 c 1.98807,-0.8751 0.25605,-9.43464 -3.12452,-7.10026 -3.37905,2.33477 1.13647,7.975 3.12452,7.10026 z"
       inkscape:connector-curvature="0"
       inkscape:export-filename="/home/andreasn/SparkleShare/gnome-marketing/guadec/sponsor-2014.png"
       inkscape:export-xdpi="90"
       inkscape:export-ydpi="90" />
    <path
       id="path15053-9"
       style="fill:#eeeeec;fill-opacity:1;fill-rule:nonzero;stroke:none"
       d="m 282.31588,276.14981 c 2.36663,-0.48251 2.49636,-10.19027 -1.72405,-8.44877 -4.22116,1.74188 -0.64069,8.93203 1.72405,8.44877 l 0,0 z"
       inkscape:connector-curvature="0"
       inkscape:export-filename="/home/andreasn/SparkleShare/gnome-marketing/guadec/sponsor-2014.png"
       inkscape:export-xdpi="90"
       inkscape:export-ydpi="90" />
    <path
       id="path15055-1"
       style="fill:#eeeeec;fill-opacity:1;fill-rule:nonzero;stroke:none"
       d="m 294.67401,297.87431 c 0.41991,3.20684 -2.3526,4.79053 -5.06783,2.7232 -8.64375,-6.58097 14.31167,-9.86405 12.79853,-18.85488 -1.25596,-7.46291 -24.1541,-5.16531 -26.7616,6.51192 -1.76501,7.89798 7.26528,18.85526 16.68779,18.85526 4.63539,0 9.98201,-4.18551 10.9823,-9.48776 0.76397,-4.04325 -8.98969,-2.42314 -8.63919,0.25226 l 0,0 z"
       inkscape:connector-curvature="0"
       inkscape:export-filename="/home/andreasn/SparkleShare/gnome-marketing/guadec/sponsor-2014.png"
       inkscape:export-xdpi="90"
       inkscape:export-ydpi="90" />
    <path
       inkscape:connector-curvature="0"
       d="m 352.69155,277.95957 c -2.35005,0.0633 -4.20592,0.90792 -5.57073,2.52774 -1.41337,1.6857 -2.12426,4.01487 -2.12426,6.98528 0,2.96221 0.71093,5.285 2.12426,6.97068 1.42027,1.68571 3.37026,2.52772 5.85753,2.52772 2.49413,0 4.44901,-0.84201 5.86238,-2.52772 1.41333,-1.68568 2.11941,-4.00847 2.1194,-6.97068 -10e-6,-2.97041 -0.70607,-5.29958 -2.1194,-6.98528 -1.41337,-1.68567 -3.36828,-2.52771 -5.86238,-2.52774 -0.0971,0 -0.19127,-0.002 -0.2868,0 z m 0.175,3.42216 c 0.0375,-10e-4 0.0737,0 0.1118,0 1.22627,2e-5 2.17647,0.53065 2.84855,1.59441 0.67203,1.0638 1.01108,2.56527 1.01109,4.49645 0,1.92298 -0.33908,3.41324 -1.01109,4.47698 -0.67205,1.06382 -1.62231,1.59927 -2.84855,1.59927 -1.2194,0 -2.16191,-0.53545 -2.83396,-1.59927 -0.67205,-1.06374 -1.01108,-2.554 -1.0111,-4.47698 0,-1.93117 0.33908,-3.43265 1.0111,-4.49645 0.65101,-1.03051 1.55743,-1.56218 2.72216,-1.59441 z"
       style="font-size:148.699646px;font-style:normal;font-variant:normal;font-weight:bold;font-stretch:normal;text-align:start;line-height:125%;writing-mode:lr-tb;text-anchor:start;fill:#eeeeec;fill-opacity:1;stroke:none;font-family:Bitstream Vera Sans"
       id="path15059-8"
       inkscape:export-filename="/home/andreasn/SparkleShare/gnome-marketing/guadec/sponsor-2014.png"
       inkscape:export-xdpi="90"
       inkscape:export-ydpi="90" />
    <path
       inkscape:connector-curvature="0"
       d="m 326.14389,295.25264 c -2.07004,1.73841 -5.14983,1.71842 -6.43287,1.71842 -2.58424,0 -4.63152,-0.85102 -6.14186,-2.55308 -1.51037,-1.71024 -2.26552,-4.026 -2.26552,-6.94732 0,-2.95404 0.76902,-5.27797 2.30709,-6.97185 1.53807,-1.69386 3.64423,-2.54079 6.31854,-2.5408 1.03229,10e-6 2.01956,0.11457 2.9618,0.34368 0.94917,0.22913 1.84292,0.56872 2.68123,1.01877 l -1.07657,3.18273 c -0.4713,-0.258 -1.01089,-0.51227 -1.51112,-0.69103 -0.85218,-0.28638 -1.7078,-0.42959 -2.56689,-0.4296 -1.59351,10e-6 -2.82328,0.52782 -3.68929,1.5834 -0.85911,1.04742 -1.28865,2.54899 -1.28865,4.5047 0,1.93937 0.41568,3.43686 1.24709,4.49245 0.83136,1.05559 2.08079,1.58338 3.54377,1.58338 1.48626,0 2.40683,-0.37463 2.89779,-0.76937 l 0,-3.17071 -3.21994,0 0,-3.16679 6.2354,0"
       style="font-size:148.699646px;font-style:normal;font-variant:normal;font-weight:bold;font-stretch:normal;text-align:start;line-height:125%;writing-mode:lr-tb;text-anchor:start;fill:#eeeeec;fill-opacity:1;stroke:none;font-family:Bitstream Vera Sans"
       id="path15061-7"
       inkscape:export-filename="/home/andreasn/SparkleShare/gnome-marketing/guadec/sponsor-2014.png"
       inkscape:export-xdpi="90"
       inkscape:export-ydpi="90" />
    <path
       inkscape:connector-curvature="0"
       d="m 328.87873,278.28941 2.52429,0 7.97634,11.01345 0,-11.01345 3.40431,0 0,18.32568 -2.52429,0 -7.97632,-11.01345 0,11.01345 -3.40433,0 0,-18.32568"
       style="font-size:148.699646px;font-style:normal;font-variant:normal;font-weight:bold;font-stretch:normal;text-align:start;line-height:125%;writing-mode:lr-tb;text-anchor:start;fill:#eeeeec;fill-opacity:1;stroke:none;font-family:Bitstream Vera Sans"
       id="path15063-3"
       inkscape:export-filename="/home/andreasn/SparkleShare/gnome-marketing/guadec/sponsor-2014.png"
       inkscape:export-xdpi="90"
       inkscape:export-ydpi="90" />
    <path
       inkscape:connector-curvature="0"
       d="m 363.58645,278.28941 5.09218,0 3.53347,11.44056 3.55416,-11.44056 4.30413,0 1.94441,18.32568 -3.78288,0 -1.1666,-11.45923 -3.57495,11.51419 -2.53575,0 -3.57495,-11.90308 -1.16671,11.84812 -3.79319,0 1.94438,-18.32568"
       style="font-size:148.699646px;font-style:normal;font-variant:normal;font-weight:bold;font-stretch:normal;text-align:start;line-height:125%;writing-mode:lr-tb;text-anchor:start;fill:#eeeeec;fill-opacity:1;stroke:none;font-family:Bitstream Vera Sans"
       id="path15065-5"
       inkscape:export-filename="/home/andreasn/SparkleShare/gnome-marketing/guadec/sponsor-2014.png"
       inkscape:export-xdpi="90"
       inkscape:export-ydpi="90" />
    <path
       inkscape:connector-curvature="0"
       d="m 384.74528,278.28941 10.79757,0 0,3.57186 -6.79664,0 0,3.80115 5.22474,0 0,3.18297 -5.22474,0 0,4.19786 7.02525,0 0,3.57184 -11.02618,0 0,-18.32568"
       style="font-size:148.699646px;font-style:normal;font-variant:normal;font-weight:bold;font-stretch:normal;text-align:start;line-height:125%;writing-mode:lr-tb;text-anchor:start;fill:#eeeeec;fill-opacity:1;stroke:none;font-family:Bitstream Vera Sans"
       id="path15067-8"
       inkscape:export-filename="/home/andreasn/SparkleShare/gnome-marketing/guadec/sponsor-2014.png"
       inkscape:export-xdpi="90"
       inkscape:export-ydpi="90" />
    <path
       inkscape:connector-curvature="0"
       id="path9048"
       style="font-size:30.68958855px;font-style:normal;font-weight:normal;letter-spacing:0.2523815;fill:#eeeeec;fill-opacity:1;stroke:none;font-family:Bitstream Vera Sans"
       d="m 399.08226,274.6821 2.94401,0 0,0.39627 -1.23536,0 0,3.08387 -0.47318,0 0,-3.08387 -1.23547,0 0,-0.39627"
       inkscape:export-filename="/home/andreasn/SparkleShare/gnome-marketing/guadec/sponsor-2014.png"
       inkscape:export-xdpi="90"
       inkscape:export-ydpi="90" />
    <path
       inkscape:connector-curvature="0"
       id="path9050"
       style="font-size:30.68958855px;font-style:normal;font-weight:normal;letter-spacing:0.2523815;fill:#eeeeec;fill-opacity:1;stroke:none;font-family:Bitstream Vera Sans"
       d="m 402.52244,274.6821 0.70157,0 0.88816,2.36827 0.89277,-2.36827 0.70157,0 0,3.48014 -0.4592,0 0,-3.05589 -0.8974,2.38691 -0.47318,0 -0.89739,-2.38691 0,3.05589 -0.4569,0 0,-3.48014"
       inkscape:export-filename="/home/andreasn/SparkleShare/gnome-marketing/guadec/sponsor-2014.png"
       inkscape:export-xdpi="90"
       inkscape:export-ydpi="90" />
  </g>
</svg>
