<?xml version="1.0" encoding="UTF-8" standalone="no"?>
<!-- Created with Inkscape (http://www.inkscape.org/) -->

<svg
   xmlns:dc="http://purl.org/dc/elements/1.1/"
   xmlns:cc="http://creativecommons.org/ns#"
   xmlns:rdf="http://www.w3.org/1999/02/22-rdf-syntax-ns#"
   xmlns:svg="http://www.w3.org/2000/svg"
   xmlns="http://www.w3.org/2000/svg"
   xmlns:sodipodi="http://sodipodi.sourceforge.net/DTD/sodipodi-0.dtd"
   xmlns:inkscape="http://www.inkscape.org/namespaces/inkscape"
   width="744.09448819"
   height="1052.3622047"
   id="svg2"
   version="1.1"
   inkscape:version="0.48.4 r9939"
   sodipodi:docname="3-8-releasegraphics.svg">
  <defs
     id="defs4" />
  <sodipodi:namedview
     id="base"
     pagecolor="#ffffff"
     bordercolor="#666666"
     borderopacity="1.0"
     inkscape:pageopacity="0.0"
     inkscape:pageshadow="2"
     inkscape:zoom="0.25"
     inkscape:cx="978.87885"
     inkscape:cy="258.0849"
     inkscape:document-units="px"
     inkscape:current-layer="layer1"
     showgrid="false"
     inkscape:snap-nodes="false"
     inkscape:snap-bbox="true"
     inkscape:window-width="1600"
     inkscape:window-height="841"
     inkscape:window-x="0"
     inkscape:window-y="27"
     inkscape:window-maximized="1"
     inkscape:snap-global="false"
     showborder="true"
     inkscape:showpageshadow="false">
    <inkscape:grid
       type="xygrid"
       id="grid6061"
       empspacing="5"
       visible="true"
       enabled="true"
       snapvisiblegridlinesonly="true" />
  </sodipodi:namedview>
  <metadata
     id="metadata7">
    <rdf:RDF>
      <cc:Work
         rdf:about="">
        <dc:format>image/svg+xml</dc:format>
        <dc:type
           rdf:resource="http://purl.org/dc/dcmitype/StillImage" />
        <dc:title></dc:title>
      </cc:Work>
    </rdf:RDF>
  </metadata>
  <g
     inkscape:label="Layer 1"
     inkscape:groupmode="layer"
     id="layer1">
    <rect
       style="fill:#ffffff;fill-opacity:1;stroke:none"
       id="rect8117"
       width="741.04791"
       height="1056.4175"
       x="1849.4142"
       y="-2.6411347"
       rx="5.427597"
       ry="7.0995803" />
    <path
       style="fill:#4e9a06;fill-opacity:1;stroke:none"
       d="m 1848,0.18729253 744.5835,0 0,531.82128747 -744.5835,0 z"
       id="rect8067"
       inkscape:connector-curvature="0" />
    <path
       sodipodi:type="arc"
       style="fill:#ffffff;fill-opacity:1;stroke:none"
       id="path6207"
       sodipodi:cx="125.25892"
       sodipodi:cy="298.78839"
       sodipodi:rx="52.527931"
       sodipodi:ry="52.527931"
       d="m 177.78685,298.78839 a 52.527931,52.527931 0 1 1 -105.055862,0 52.527931,52.527931 0 1 1 105.055862,0 z"
       transform="matrix(1.525,0,0,1.525,1809.8162,-57.28674)" />
    <path
       transform="matrix(1.525,0,0,1.525,2027.8071,-57.28674)"
       sodipodi:type="arc"
       style="fill:#ffffff;fill-opacity:1;stroke:none"
       id="path6207-0"
       sodipodi:cx="125.25892"
       sodipodi:cy="298.78839"
       sodipodi:rx="52.527931"
       sodipodi:ry="52.527931"
       d="m 177.78685,298.78839 a 52.527931,52.527931 0 1 1 -105.055862,0 52.527931,52.527931 0 1 1 105.055862,0 z" />
    <path
       transform="matrix(1.525,0,0,1.525,2254.4854,-57.28674)"
       sodipodi:type="arc"
       style="fill:#ffffff;fill-opacity:1;stroke:none"
       id="path6207-0-1"
       sodipodi:cx="125.25892"
       sodipodi:cy="298.78839"
       sodipodi:rx="52.527931"
       sodipodi:ry="52.527931"
       d="m 177.78685,298.78839 a 52.527931,52.527931 0 1 1 -105.055862,0 52.527931,52.527931 0 1 1 105.055862,0 z" />
    <path
       sodipodi:type="arc"
       style="fill:none;stroke:#4e9a06;stroke-width:8.74074078;stroke-linejoin:round;stroke-miterlimit:4;stroke-opacity:1;stroke-dasharray:none"
       id="path6245"
       sodipodi:cx="122.85714"
       sodipodi:cy="291.64789"
       sodipodi:rx="21.071428"
       sodipodi:ry="21.071428"
       d="m 143.92857,291.64789 a 21.071428,21.071428 0 1 1 -42.14286,0 21.071428,21.071428 0 1 1 42.14286,0 z"
       transform="matrix(1.3957627,0,0,1.3957627,1818.3333,-25.453878)" />
    <path
       style="fill:none;stroke:#4e9a06;stroke-width:12.19999981;stroke-linecap:butt;stroke-linejoin:miter;stroke-miterlimit:4;stroke-opacity:1;stroke-dasharray:none"
       d="m 2008.8752,402.85845 35.1294,35.12947"
       id="path7015"
       inkscape:connector-curvature="0" />
    <rect
       style="fill:#4e9a06;fill-opacity:1;stroke:none"
       id="rect7017"
       width="80.105095"
       height="54.30201"
       x="2178.3894"
       y="385.65656"
       rx="8.087534"
       ry="8.087534" />
    <rect
       style="fill:none;stroke:#4e9a06;stroke-width:12.19999886;stroke-miterlimit:4;stroke-opacity:1;stroke-dasharray:none"
       id="rect7021"
       width="51.22105"
       height="62.004429"
       x="2192.6387"
       y="351.76593"
       rx="13.094123"
       ry="13.094123" />
    <path
       sodipodi:type="arc"
       style="fill:#4e9a06;fill-opacity:1;stroke:none"
       id="path7027"
       sodipodi:cx="602.5"
       sodipodi:cy="297.71933"
       sodipodi:rx="20.357143"
       sodipodi:ry="20.357143"
       d="m 622.85714,297.71933 a 20.357143,20.357143 0 1 1 -40.71428,0 20.357143,20.357143 0 1 1 40.71428,0 z"
       transform="matrix(1.525,0,0,1.525,1554.7982,-57.28674)" />
    <text
       xml:space="preserve"
       style="font-size:29.90291214px;font-style:normal;font-weight:normal;line-height:125%;letter-spacing:0px;word-spacing:0px;fill:#000000;fill-opacity:1;stroke:none;font-family:Sans"
       x="2010.8998"
       y="742.06165"
       id="text7089"
       sodipodi:linespacing="125%"><tspan
         sodipodi:role="line"
         id="tspan7091"
         x="2010.8998"
         y="742.06165">1234</tspan><tspan
         sodipodi:role="line"
         x="2010.8998"
         y="779.44031"
         id="tspan7119">contributors</tspan></text>
    <rect
       style="fill:#888a85;fill-opacity:1;stroke:none"
       id="rect7117"
       width="77"
       height="77"
       x="1924.929"
       y="712.90631"
       rx="5.3033009"
       ry="5.3033009" />
    <text
       xml:space="preserve"
       style="font-size:29.90291214px;font-style:normal;font-weight:normal;line-height:125%;letter-spacing:0px;word-spacing:0px;fill:#000000;fill-opacity:1;stroke:none;font-family:Sans"
       x="2333.8999"
       y="621.85352"
       id="text7089-9"
       sodipodi:linespacing="125%"><tspan
         sodipodi:role="line"
         id="tspan7091-4"
         x="2333.8999"
         y="621.85352">123456</tspan><tspan
         sodipodi:role="line"
         x="2333.8999"
         y="659.23218"
         id="tspan7119-4">commits</tspan></text>
    <rect
       style="fill:#4e9a06;fill-opacity:1;stroke:none"
       id="rect7117-3"
       width="77"
       height="77"
       x="2247.929"
       y="592.69818"
       rx="5.3033009"
       ry="5.3033009" />
    <text
       xml:space="preserve"
       style="font-size:29.90291214px;font-style:normal;font-weight:normal;line-height:125%;letter-spacing:0px;word-spacing:0px;fill:#000000;fill-opacity:1;stroke:none;font-family:Sans"
       x="2010.8998"
       y="622.65967"
       id="text7089-90"
       sodipodi:linespacing="125%"><tspan
         sodipodi:role="line"
         id="tspan7091-9"
         x="2010.8998"
         y="622.65967"
         style="font-size:29.90291214px;font-style:normal;font-variant:normal;font-weight:900;font-stretch:normal;text-align:start;line-height:125%;writing-mode:lr-tb;text-anchor:start;font-family:Source Sans Pro;-inkscape-font-specification:Source Sans Pro Heavy">123456789</tspan><tspan
         sodipodi:role="line"
         x="2010.8998"
         y="660.03833"
         id="tspan7119-43"
         style="font-size:29.90291214px;font-style:normal;font-variant:normal;font-weight:900;font-stretch:normal;text-align:start;line-height:125%;writing-mode:lr-tb;text-anchor:start;font-family:Source Sans Pro;-inkscape-font-specification:Source Sans Pro Heavy">lines of code</tspan></text>
    <text
       xml:space="preserve"
       style="font-size:29.90291214px;font-style:normal;font-weight:normal;line-height:125%;letter-spacing:0px;word-spacing:0px;fill:#000000;fill-opacity:1;stroke:none;font-family:Sans"
       x="2333.8999"
       y="741.85352"
       id="text7089-9-9"
       sodipodi:linespacing="125%"><tspan
         sodipodi:role="line"
         id="tspan7091-4-9"
         x="2333.8999"
         y="741.85352">123</tspan><tspan
         sodipodi:role="line"
         x="2333.8999"
         y="779.23218"
         id="tspan7119-4-6">translations</tspan></text>
    <text
       xml:space="preserve"
       style="font-size:29.90291214px;font-style:normal;font-weight:normal;line-height:125%;letter-spacing:0px;word-spacing:0px;fill:#000000;fill-opacity:1;stroke:none;font-family:Sans"
       x="2010.8998"
       y="861.85352"
       id="text7089-90-3"
       sodipodi:linespacing="125%"><tspan
         sodipodi:role="line"
         id="tspan7091-9-9"
         x="2010.8998"
         y="861.85352"
         style="font-size:29.90291214px;font-style:normal;font-variant:normal;font-weight:900;font-stretch:normal;text-align:start;line-height:125%;writing-mode:lr-tb;text-anchor:start;font-family:Source Sans Pro;-inkscape-font-specification:Source Sans Pro Heavy">12345</tspan><tspan
         sodipodi:role="line"
         x="2010.8998"
         y="899.23218"
         id="tspan7119-43-0"
         style="font-size:29.90291214px;font-style:normal;font-variant:normal;font-weight:900;font-stretch:normal;text-align:start;line-height:125%;writing-mode:lr-tb;text-anchor:start;font-family:Source Sans Pro;-inkscape-font-specification:Source Sans Pro Heavy">bugs killed</tspan></text>
    <text
       xml:space="preserve"
       style="font-size:29.90291214px;font-style:normal;font-weight:normal;line-height:125%;letter-spacing:0px;word-spacing:0px;fill:#000000;fill-opacity:1;stroke:none;font-family:Sans"
       x="2333.8999"
       y="861.85352"
       id="text7089-9-9-3"
       sodipodi:linespacing="125%"><tspan
         sodipodi:role="line"
         id="tspan7091-4-9-9"
         x="2333.8999"
         y="861.85352">123</tspan><tspan
         sodipodi:role="line"
         x="2333.8999"
         y="899.23218"
         id="tspan7119-4-6-9">days</tspan></text>
    <rect
       style="fill:#4e9a06;fill-opacity:1;stroke:none"
       id="rect7117-3-5-9"
       width="63.564972"
       height="63.564972"
       x="2254.6465"
       y="834.46594"
       rx="5.3033009"
       ry="5.3033009" />
    <path
       sodipodi:type="arc"
       style="fill:#4e9a06;fill-opacity:1;stroke:none"
       id="path7292-5"
       sodipodi:cx="554.10657"
       sodipodi:cy="296.55341"
       sodipodi:rx="3.4471455"
       sodipodi:ry="3.4471455"
       d="m 557.55371,296.55341 a 3.4471455,3.4471455 0 1 1 -6.89429,0 3.4471455,3.4471455 0 1 1 6.89429,0 z"
       transform="matrix(1.525,0,0,1.525,1556.183,-55.39966)" />
    <path
       sodipodi:type="arc"
       style="fill:#4e9a06;fill-opacity:1;stroke:none"
       id="path7292-5-8"
       sodipodi:cx="554.10657"
       sodipodi:cy="296.55341"
       sodipodi:rx="3.4471455"
       sodipodi:ry="3.4471455"
       d="m 557.55371,296.55341 a 3.4471455,3.4471455 0 1 1 -6.89429,0 3.4471455,3.4471455 0 1 1 6.89429,0 z"
       transform="matrix(1.525,0,0,1.525,1573.4364,-55.39966)" />
    <path
       sodipodi:type="arc"
       style="fill:#4e9a06;fill-opacity:1;stroke:none"
       id="path7292-5-8-1"
       sodipodi:cx="554.10657"
       sodipodi:cy="296.55341"
       sodipodi:rx="3.4471455"
       sodipodi:ry="3.4471455"
       d="m 557.55371,296.55341 a 3.4471455,3.4471455 0 1 1 -6.89429,0 3.4471455,3.4471455 0 1 1 6.89429,0 z"
       transform="matrix(1.525,0,0,1.525,1589.3419,-55.39966)" />
    <path
       style="fill:none;stroke:#000000;stroke-width:10;stroke-linecap:round;stroke-linejoin:miter;stroke-miterlimit:4;stroke-opacity:1;stroke-dasharray:none"
       d="m 1838.6996,1093.7104 761.5003,0"
       id="path7348"
       inkscape:connector-curvature="0"
       sodipodi:nodetypes="cc" />
    <path
       sodipodi:type="arc"
       style="fill:#ffffff;fill-opacity:1;stroke:#000000;stroke-width:14.22764206;stroke-miterlimit:4;stroke-opacity:1;stroke-dasharray:none"
       id="path7350"
       sodipodi:cx="91.658714"
       sodipodi:cy="984.21478"
       sodipodi:rx="15.467961"
       sodipodi:ry="15.467961"
       d="m 107.12668,984.21478 a 15.467961,15.467961 0 1 1 -30.935927,0 15.467961,15.467961 0 1 1 30.935927,0 z"
       transform="matrix(0.70285715,0,0,0.70285715,1860.435,401.80058)" />
    <path
       sodipodi:type="arc"
       style="fill:#ffffff;fill-opacity:1;stroke:#000000;stroke-width:14.22764206;stroke-miterlimit:4;stroke-opacity:1;stroke-dasharray:none"
       id="path7350-6-6"
       sodipodi:cx="91.658714"
       sodipodi:cy="984.21478"
       sodipodi:rx="15.467961"
       sodipodi:ry="15.467961"
       d="m 107.12668,984.21478 a 15.467961,15.467961 0 1 1 -30.935927,0 15.467961,15.467961 0 1 1 30.935927,0 z"
       transform="matrix(0.70285715,0,0,0.70285715,1989.0243,401.80058)" />
    <path
       sodipodi:type="arc"
       style="fill:#ffffff;fill-opacity:1;stroke:#000000;stroke-width:14.22764206;stroke-miterlimit:4;stroke-opacity:1;stroke-dasharray:none"
       id="path7350-6-6-4"
       sodipodi:cx="91.658714"
       sodipodi:cy="984.21478"
       sodipodi:rx="15.467961"
       sodipodi:ry="15.467961"
       d="m 107.12668,984.21478 a 15.467961,15.467961 0 1 1 -30.935927,0 15.467961,15.467961 0 1 1 30.935927,0 z"
       transform="matrix(0.70285715,0,0,0.70285715,2069.0243,401.80058)" />
    <path
       sodipodi:type="arc"
       style="fill:#ffffff;fill-opacity:1;stroke:#000000;stroke-width:14.22764206;stroke-miterlimit:4;stroke-opacity:1;stroke-dasharray:none"
       id="path7350-6-6-4-4"
       sodipodi:cx="91.658714"
       sodipodi:cy="984.21478"
       sodipodi:rx="15.467961"
       sodipodi:ry="15.467961"
       d="m 107.12668,984.21478 a 15.467961,15.467961 0 1 1 -30.935927,0 15.467961,15.467961 0 1 1 30.935927,0 z"
       transform="matrix(0.70285715,0,0,0.70285715,2209.0243,401.80058)" />
    <path
       sodipodi:type="arc"
       style="fill:#ffffff;fill-opacity:1;stroke:#000000;stroke-width:14.22764206;stroke-miterlimit:4;stroke-opacity:1;stroke-dasharray:none"
       id="path7350-6-6-4-4-5"
       sodipodi:cx="91.658714"
       sodipodi:cy="984.21478"
       sodipodi:rx="15.467961"
       sodipodi:ry="15.467961"
       d="m 107.12668,984.21478 a 15.467961,15.467961 0 1 1 -30.935927,0 15.467961,15.467961 0 1 1 30.935927,0 z"
       transform="matrix(0.70285715,0,0,0.70285715,2329.0243,401.80058)" />
    <path
       sodipodi:type="arc"
       style="fill:#ffffff;fill-opacity:1;stroke:#000000;stroke-width:14.22764206;stroke-miterlimit:4;stroke-opacity:1;stroke-dasharray:none"
       id="path7350-6-6-4-4-5-2"
       sodipodi:cx="91.658714"
       sodipodi:cy="984.21478"
       sodipodi:rx="15.467961"
       sodipodi:ry="15.467961"
       d="m 107.12668,984.21478 a 15.467961,15.467961 0 1 1 -30.935927,0 15.467961,15.467961 0 1 1 30.935927,0 z"
       transform="matrix(0.70285715,0,0,0.70285715,2429.0243,401.80058)" />
    <text
       xml:space="preserve"
       style="font-size:8.02182102px;font-style:normal;font-weight:normal;line-height:125%;letter-spacing:0px;word-spacing:0px;fill:#000000;fill-opacity:1;stroke:none;font-family:Sans"
       x="1915.4384"
       y="1121.6813"
       id="text7485"
       sodipodi:linespacing="125%"><tspan
         sodipodi:role="line"
         id="tspan7487"
         x="1915.4384"
         y="1121.6813">date</tspan></text>
    <text
       xml:space="preserve"
       style="font-size:8.02182102px;font-style:normal;font-weight:normal;line-height:125%;letter-spacing:0px;word-spacing:0px;fill:#000000;fill-opacity:1;stroke:none;font-family:Sans"
       x="2043.4384"
       y="1121.6813"
       id="text7485-8"
       sodipodi:linespacing="125%"><tspan
         sodipodi:role="line"
         id="tspan7487-7"
         x="2043.4384"
         y="1121.6813">date</tspan></text>
    <text
       xml:space="preserve"
       style="font-size:8.02182102px;font-style:normal;font-weight:normal;line-height:125%;letter-spacing:0px;word-spacing:0px;fill:#000000;fill-opacity:1;stroke:none;font-family:Sans"
       x="2123.4382"
       y="1121.6813"
       id="text7485-8-2"
       sodipodi:linespacing="125%"><tspan
         sodipodi:role="line"
         id="tspan7487-7-9"
         x="2123.4382"
         y="1121.6813">date</tspan></text>
    <text
       xml:space="preserve"
       style="font-size:8.02182102px;font-style:normal;font-weight:normal;line-height:125%;letter-spacing:0px;word-spacing:0px;fill:#000000;fill-opacity:1;stroke:none;font-family:Sans"
       x="2263.4382"
       y="1121.6813"
       id="text7485-8-2-9"
       sodipodi:linespacing="125%"><tspan
         sodipodi:role="line"
         id="tspan7487-7-9-7"
         x="2263.4382"
         y="1121.6813">date</tspan></text>
    <text
       xml:space="preserve"
       style="font-size:8.02182102px;font-style:normal;font-weight:normal;line-height:125%;letter-spacing:0px;word-spacing:0px;fill:#000000;fill-opacity:1;stroke:none;font-family:Sans"
       x="2383.4382"
       y="1121.6813"
       id="text7485-8-2-9-7"
       sodipodi:linespacing="125%"><tspan
         sodipodi:role="line"
         id="tspan7487-7-9-7-3"
         x="2383.4382"
         y="1121.6813">date</tspan></text>
    <text
       xml:space="preserve"
       style="font-size:8.02182102px;font-style:normal;font-weight:normal;line-height:125%;letter-spacing:0px;word-spacing:0px;fill:#000000;fill-opacity:1;stroke:none;font-family:Sans"
       x="2483.4382"
       y="1121.6813"
       id="text7485-8-2-9-7-0"
       sodipodi:linespacing="125%"><tspan
         sodipodi:role="line"
         id="tspan7487-7-9-7-3-0"
         x="2483.4382"
         y="1121.6813">date</tspan></text>
    <path
       style="fill:#4e9a06;fill-opacity:1;stroke:#4e9a06;stroke-width:10;stroke-linecap:round;stroke-linejoin:miter;stroke-miterlimit:4;stroke-opacity:1;stroke-dasharray:none"
       d="m 1930.0831,603.25431 66.3338,0"
       id="path7923"
       inkscape:connector-curvature="0"
       sodipodi:nodetypes="cc" />
    <path
       style="fill:#4e9a06;fill-opacity:1;stroke:#4e9a06;stroke-width:10;stroke-linecap:round;stroke-linejoin:miter;stroke-miterlimit:4;stroke-opacity:1;stroke-dasharray:none"
       d="m 1930.0831,621.00431 66.3338,0"
       id="path7923-1"
       inkscape:connector-curvature="0"
       sodipodi:nodetypes="cc" />
    <path
       style="fill:#4e9a06;fill-opacity:1;stroke:#4e9a06;stroke-width:10;stroke-linecap:round;stroke-linejoin:miter;stroke-miterlimit:4;stroke-opacity:1;stroke-dasharray:none"
       d="m 1930.0831,640.25431 66.3338,0"
       id="path7923-1-2"
       inkscape:connector-curvature="0"
       sodipodi:nodetypes="cc" />
    <path
       style="fill:#4e9a06;fill-opacity:1;stroke:#4e9a06;stroke-width:10;stroke-linecap:round;stroke-linejoin:miter;stroke-miterlimit:4;stroke-opacity:1;stroke-dasharray:none"
       d="m 1930.0831,660.00431 66.3338,0"
       id="path7923-1-2-0"
       inkscape:connector-curvature="0"
       sodipodi:nodetypes="cc" />
    <path
       sodipodi:type="arc"
       style="fill:#4e9a06;fill-opacity:1;stroke:none"
       id="path7979"
       sodipodi:cx="119.14749"
       sodipodi:cy="717.43878"
       sodipodi:rx="15.556349"
       sodipodi:ry="25.170702"
       d="m 134.70384,717.43878 a 15.556349,25.170702 0 1 1 -31.1127,0 15.556349,25.170702 0 1 1 31.1127,0 z"
       transform="matrix(1,0,0,0.78571428,1843.0503,308.07288)" />
    <path
       style="fill:none;stroke:#4e9a06;stroke-width:3;stroke-linecap:round;stroke-linejoin:miter;stroke-miterlimit:4;stroke-opacity:1;stroke-dasharray:none"
       d="m 1940.8078,870.2921 42.6031,0"
       id="path7981"
       inkscape:connector-curvature="0" />
    <path
       style="fill:none;stroke:#4e9a06;stroke-width:3;stroke-linecap:round;stroke-linejoin:miter;stroke-miterlimit:4;stroke-opacity:1;stroke-dasharray:none"
       d="m 1943.9091,888.4924 36.4006,-36.40057"
       id="path7981-8"
       inkscape:connector-curvature="0" />
    <path
       style="fill:none;stroke:#555753;stroke-width:3;stroke-linecap:round;stroke-linejoin:miter;stroke-miterlimit:4;stroke-opacity:1;stroke-dasharray:none"
       d="m 1943.9091,852.09183 36.4006,36.40057"
       id="path7981-8-7"
       inkscape:connector-curvature="0" />
    <path
       sodipodi:type="arc"
       style="fill:none;stroke:#4e9a06;stroke-width:8.81767941;stroke-linecap:round;stroke-linejoin:round;stroke-miterlimit:4;stroke-opacity:1;stroke-dasharray:none;stroke-dashoffset:0"
       id="path8037"
       sodipodi:cx="116"
       sodipodi:cy="717.11218"
       sodipodi:rx="33.25"
       sodipodi:ry="33.25"
       d="m 149.25,717.11218 a 33.25,33.25 0 1 1 -66.5,0 33.25,33.25 0 1 1 66.5,0 z"
       transform="matrix(1.0206767,0,0,1.0206767,1845.039,139.07099)" />
    <path
       style="fill:none;stroke:#4e9a06;stroke-width:8;stroke-linecap:butt;stroke-linejoin:miter;stroke-miterlimit:4;stroke-opacity:1;stroke-dasharray:none"
       d="M 1940.2774,845.89695 1987.3,892.9195"
       id="path8039"
       inkscape:connector-curvature="0" />
    <path
       style="fill:none;stroke:#ffffff;stroke-width:5;stroke-linecap:butt;stroke-linejoin:miter;stroke-miterlimit:4;stroke-opacity:1;stroke-dasharray:none"
       d="m 2244.5101,853.14479 83.7922,0"
       id="path8061"
       inkscape:connector-curvature="0" />
    <text
       xml:space="preserve"
       style="font-size:24.91144943px;font-style:normal;font-weight:normal;line-height:125%;letter-spacing:0px;word-spacing:0px;fill:#ffffff;fill-opacity:1;stroke:none;font-family:Sans"
       x="2276.4739"
       y="883.94086"
       id="text8063"
       sodipodi:linespacing="125%"><tspan
         sodipodi:role="line"
         id="tspan8065"
         x="2276.4739"
         y="883.94086"
         style="font-weight:bold;fill:#ffffff;fill-opacity:1;-inkscape-font-specification:Sans Bold">6</tspan></text>
    <flowRoot
       xml:space="preserve"
       id="flowRoot6199"
       style="font-size:40px;font-style:normal;font-weight:normal;line-height:125%;letter-spacing:0px;word-spacing:0px;fill:#ffffff;fill-opacity:1;stroke:none;font-family:Sans"
       transform="matrix(2.4236004,0,0,2.4236004,1766.2254,-80.23202)"><flowRegion
         id="flowRegion6201"><rect
           id="rect6203"
           width="271.73102"
           height="172.73608"
           x="63.63961"
           y="51.30101"
           style="fill:#ffffff;fill-opacity:1" /></flowRegion><flowPara
         id="flowPara6205"
         style="font-size:40px;font-style:normal;font-variant:normal;font-weight:900;font-stretch:normal;text-align:start;line-height:125%;writing-mode:lr-tb;text-anchor:start;fill:#ffffff;fill-opacity:1;font-family:Source Sans Pro;-inkscape-font-specification:Source Sans Pro Heavy">GNOME 3.8</flowPara><flowPara
         style="font-size:40px;font-style:normal;font-variant:normal;font-weight:900;font-stretch:normal;text-align:start;line-height:125%;writing-mode:lr-tb;text-anchor:start;fill:#ffffff;fill-opacity:1;font-family:Source Sans Pro;-inkscape-font-specification:Source Sans Pro Heavy"
         id="flowPara8089">in numbers</flowPara></flowRoot>    <rect
       style="fill:#4e9a06;fill-opacity:1;stroke:none"
       id="rect8079"
       width="69.25"
       height="53.233215"
       x="2252.25"
       y="714.80908"
       rx="5.75"
       ry="5.75" />
    <path
       style="fill:#4e9a06;fill-opacity:1;stroke:none"
       d="m 2307.8722,766.05929 0,18.63889 -24.25,-19.25 z"
       id="path8081"
       inkscape:connector-curvature="0" />
    <path
       style="fill:none;stroke:#ffffff;stroke-width:5;stroke-linecap:butt;stroke-linejoin:miter;stroke-miterlimit:4;stroke-opacity:1;stroke-dasharray:none"
       d="m 2239.7372,630.40616 92.2774,0"
       id="path8085"
       inkscape:connector-curvature="0" />
    <path
       sodipodi:type="arc"
       style="fill:#4e9a06;fill-opacity:1;stroke:#ffffff;stroke-width:5;stroke-linecap:round;stroke-linejoin:round;stroke-miterlimit:4;stroke-opacity:1;stroke-dasharray:none;stroke-dashoffset:0"
       id="path8087"
       sodipodi:cx="442.47208"
       sodipodi:cy="478.54504"
       sodipodi:rx="10.253048"
       sodipodi:ry="10.253048"
       d="m 452.72512,478.54504 a 10.253048,10.253048 0 1 1 -20.50609,0 10.253048,10.253048 0 1 1 20.50609,0 z"
       transform="translate(1844.9948,152.56823)" />
    <path
       sodipodi:type="arc"
       style="fill:#ffffff;fill-opacity:1;stroke:#4e9a06;stroke-width:5.24590164;stroke-miterlimit:4;stroke-dasharray:none"
       id="path6207-7"
       sodipodi:cx="125.25892"
       sodipodi:cy="298.78839"
       sodipodi:rx="52.527931"
       sodipodi:ry="52.527931"
       d="m 177.78685,298.78839 a 52.527931,52.527931 0 1 1 -105.055862,0 52.527931,52.527931 0 1 1 105.055862,0 z"
       transform="matrix(1.525,0,0,1.525,-70.682046,-144.72809)" />
    <path
       transform="matrix(1.525,0,0,1.525,362.26933,-16.034656)"
       sodipodi:type="arc"
       style="fill:#ffffff;fill-opacity:1;stroke:#4e9a06;stroke-width:5.24590164;stroke-miterlimit:4;stroke-dasharray:none"
       id="path6207-0-7"
       sodipodi:cx="125.25892"
       sodipodi:cy="298.78839"
       sodipodi:rx="52.527931"
       sodipodi:ry="52.527931"
       d="m 177.78685,298.78839 a 52.527931,52.527931 0 1 1 -105.055862,0 52.527931,52.527931 0 1 1 105.055862,0 z" />
    <path
       transform="matrix(1.525,0,0,1.525,6.2916464,292.2639)"
       sodipodi:type="arc"
       style="fill:#ffffff;fill-opacity:1;stroke:#4e9a06;stroke-width:5.24590164;stroke-miterlimit:4;stroke-dasharray:none"
       id="path6207-0-1-3"
       sodipodi:cx="125.25892"
       sodipodi:cy="298.78839"
       sodipodi:rx="52.527931"
       sodipodi:ry="52.527931"
       d="m 177.78685,298.78839 a 52.527931,52.527931 0 1 1 -105.055862,0 52.527931,52.527931 0 1 1 105.055862,0 z" />
    <path
       sodipodi:type="arc"
       style="fill:none;stroke:#4e9a06;stroke-width:8.74074078;stroke-linejoin:round;stroke-miterlimit:4;stroke-opacity:1;stroke-dasharray:none"
       id="path6245-7"
       sodipodi:cx="122.85714"
       sodipodi:cy="291.64789"
       sodipodi:rx="21.071428"
       sodipodi:ry="21.071428"
       d="m 143.92857,291.64789 a 21.071428,21.071428 0 1 1 -42.14286,0 21.071428,21.071428 0 1 1 42.14286,0 z"
       transform="matrix(1.3957627,0,0,1.3957627,-62.164946,-112.89523)" />
    <path
       style="fill:none;stroke:#4e9a06;stroke-width:12.19999981;stroke-linecap:butt;stroke-linejoin:miter;stroke-miterlimit:4;stroke-opacity:1;stroke-dasharray:none"
       d="m 128.37696,315.4171 35.12941,35.12947"
       id="path7015-6"
       inkscape:connector-curvature="0" />
    <rect
       style="fill:#4e9a06;fill-opacity:1;stroke:none"
       id="rect7017-7"
       width="80.105095"
       height="54.30201"
       x="512.85156"
       y="426.90863"
       rx="8.087534"
       ry="8.087534" />
    <rect
       style="fill:none;stroke:#4e9a06;stroke-width:12.19999886;stroke-miterlimit:4;stroke-opacity:1;stroke-dasharray:none"
       id="rect7021-7"
       width="51.22105"
       height="62.004429"
       x="527.10083"
       y="393.01801"
       rx="13.094123"
       ry="13.094123" />
    <path
       sodipodi:type="arc"
       style="fill:#4e9a06;fill-opacity:1;stroke:none"
       id="path7027-8"
       sodipodi:cx="602.5"
       sodipodi:cy="297.71933"
       sodipodi:rx="20.357143"
       sodipodi:ry="20.357143"
       d="m 622.85714,297.71933 a 20.357143,20.357143 0 1 1 -40.71428,0 20.357143,20.357143 0 1 1 40.71428,0 z"
       transform="matrix(1.525,0,0,1.525,-693.39558,292.2639)" />
    <path
       sodipodi:type="arc"
       style="fill:#4e9a06;fill-opacity:1;stroke:none"
       id="path7292-5-6"
       sodipodi:cx="554.10657"
       sodipodi:cy="296.55341"
       sodipodi:rx="3.4471455"
       sodipodi:ry="3.4471455"
       d="m 557.55371,296.55341 a 3.4471455,3.4471455 0 1 1 -6.89429,0 3.4471455,3.4471455 0 1 1 6.89429,0 z"
       transform="matrix(1.525,0,0,1.525,-692.01078,294.15098)" />
    <path
       sodipodi:type="arc"
       style="fill:#4e9a06;fill-opacity:1;stroke:none"
       id="path7292-5-8-0"
       sodipodi:cx="554.10657"
       sodipodi:cy="296.55341"
       sodipodi:rx="3.4471455"
       sodipodi:ry="3.4471455"
       d="m 557.55371,296.55341 a 3.4471455,3.4471455 0 1 1 -6.89429,0 3.4471455,3.4471455 0 1 1 6.89429,0 z"
       transform="matrix(1.525,0,0,1.525,-674.75738,294.15098)" />
    <path
       sodipodi:type="arc"
       style="fill:#4e9a06;fill-opacity:1;stroke:none"
       id="path7292-5-8-1-8"
       sodipodi:cx="554.10657"
       sodipodi:cy="296.55341"
       sodipodi:rx="3.4471455"
       sodipodi:ry="3.4471455"
       d="m 557.55371,296.55341 a 3.4471455,3.4471455 0 1 1 -6.89429,0 3.4471455,3.4471455 0 1 1 6.89429,0 z"
       transform="matrix(1.525,0,0,1.525,-658.85188,294.15098)" />
    <path
       style="fill:none;stroke:#4e9a06;stroke-width:8;stroke-linecap:butt;stroke-linejoin:miter;stroke-opacity:1;stroke-miterlimit:4;stroke-dasharray:none"
       d="M 190.91883,352.32647 469.5189,424.45136"
       id="path8167"
       inkscape:connector-curvature="0" />
    <path
       style="fill:none;stroke:#4e9a06;stroke-width:8;stroke-linecap:butt;stroke-linejoin:miter;stroke-opacity:1;stroke-miterlimit:4;stroke-dasharray:none"
       d="M 502.04581,497.99047 257.38687,694.56615"
       id="path8169"
       inkscape:connector-curvature="0" />
    <path
       sodipodi:type="arc"
       style="fill:#ffffff;fill-opacity:1;stroke:#4e9a06;stroke-width:8;stroke-linecap:round;stroke-linejoin:round;stroke-miterlimit:4;stroke-opacity:1;stroke-dasharray:none;stroke-dashoffset:0"
       id="path8171"
       sodipodi:cx="334"
       sodipodi:cy="390.36218"
       sodipodi:rx="52"
       sodipodi:ry="52"
       d="m 386,390.36218 a 52,52 0 1 1 -104,0 52,52 0 1 1 104,0 z" />
    <path
       transform="translate(238,260)"
       sodipodi:type="arc"
       style="fill:#ffffff;fill-opacity:1;stroke:#4e9a06;stroke-width:8;stroke-linecap:round;stroke-linejoin:round;stroke-miterlimit:4;stroke-opacity:1;stroke-dasharray:none;stroke-dashoffset:0"
       id="path8171-1"
       sodipodi:cx="334"
       sodipodi:cy="390.36218"
       sodipodi:rx="52"
       sodipodi:ry="52"
       d="m 386,390.36218 a 52,52 0 1 1 -104,0 52,52 0 1 1 104,0 z" />
    <path
       transform="translate(54,416)"
       sodipodi:type="arc"
       style="fill:#ffffff;fill-opacity:1;stroke:#4e9a06;stroke-width:8;stroke-linecap:round;stroke-linejoin:round;stroke-miterlimit:4;stroke-opacity:1;stroke-dasharray:none;stroke-dashoffset:0"
       id="path8171-1-0"
       sodipodi:cx="334"
       sodipodi:cy="390.36218"
       sodipodi:rx="52"
       sodipodi:ry="52"
       d="m 386,390.36218 a 52,52 0 1 1 -104,0 52,52 0 1 1 104,0 z" />
  </g>
</svg>
