<?xml version="1.0" encoding="UTF-8" standalone="no"?>
<!-- Created with Inkscape (http://www.inkscape.org/) -->

<svg
   xmlns:dc="http://purl.org/dc/elements/1.1/"
   xmlns:cc="http://creativecommons.org/ns#"
   xmlns:rdf="http://www.w3.org/1999/02/22-rdf-syntax-ns#"
   xmlns:svg="http://www.w3.org/2000/svg"
   xmlns="http://www.w3.org/2000/svg"
   xmlns:sodipodi="http://sodipodi.sourceforge.net/DTD/sodipodi-0.dtd"
   xmlns:inkscape="http://www.inkscape.org/namespaces/inkscape"
   id="svg3036"
   version="1.1"
   inkscape:version="0.48.3.1 r9886"
   width="202"
   height="250"
   sodipodi:docname="Screenshot from 2012-12-10 14:10:21.png">
  <metadata
     id="metadata3042">
    <rdf:RDF>
      <cc:Work
         rdf:about="">
        <dc:format>image/svg+xml</dc:format>
        <dc:type
           rdf:resource="http://purl.org/dc/dcmitype/StillImage" />
        <dc:title></dc:title>
      </cc:Work>
    </rdf:RDF>
  </metadata>
  <defs
     id="defs3040" />
  <sodipodi:namedview
     pagecolor="#ffffff"
     bordercolor="#666666"
     borderopacity="1"
     objecttolerance="10"
     gridtolerance="10"
     guidetolerance="10"
     inkscape:pageopacity="0"
     inkscape:pageshadow="2"
     inkscape:window-width="1920"
     inkscape:window-height="1011"
     id="namedview3038"
     showgrid="false"
     fit-margin-top="0"
     fit-margin-left="0"
     fit-margin-right="0"
     fit-margin-bottom="0"
     inkscape:zoom="2.2967876"
     inkscape:cx="215.7147"
     inkscape:cy="144.90188"
     inkscape:window-x="0"
     inkscape:window-y="34"
     inkscape:window-maximized="1"
     inkscape:current-layer="svg3036">
    <inkscape:grid
       type="xygrid"
       id="grid3046"
       empspacing="5"
       visible="true"
       enabled="true"
       snapvisiblegridlinesonly="true"
       originx="-525px"
       originy="-495px" />
  </sodipodi:namedview>
  <g
     id="g3976"
     transform="matrix(0.39007899,0,0,0.39007899,300.94109,-26.045619)"
     style="fill:#000000;fill-opacity:1">
    <g
       id="g3771"
       transform="matrix(2.5177073,0,0,2.5177073,-638.98482,192.40645)"
       style="fill:#000000;fill-opacity:1;fill-rule:nonzero;stroke:none"
       inkscape:export-filename="/home/duffy/Desktop/gnome_logo_horiz.png"
       inkscape:export-xdpi="72.000000"
       inkscape:export-ydpi="72.000000">
      <g
         style="fill:#000000;fill-opacity:1"
         id="g3773">
        <path
           inkscape:connector-curvature="0"
           style="fill:#000000;fill-opacity:1"
           d="M 86.068,0 C 61.466,0 56.851,35.041 70.691,35.041 84.529,35.041 110.671,0 86.068,0 z"
           id="path3775" />
        <path
           inkscape:connector-curvature="0"
           style="fill:#000000;fill-opacity:1"
           d="M 45.217,30.699 C 52.586,31.149 60.671,2.577 46.821,4.374 32.976,6.171 37.845,30.249 45.217,30.699 z"
           id="path3777" />
        <path
           inkscape:connector-curvature="0"
           style="fill:#000000;fill-opacity:1"
           d="M 11.445,48.453 C 16.686,46.146 12.12,23.581 3.208,29.735 -5.7,35.89 6.204,50.759 11.445,48.453 z"
           id="path3779" />
        <path
           inkscape:connector-curvature="0"
           style="fill:#000000;fill-opacity:1"
           d="M 26.212,36.642 C 32.451,35.37 32.793,9.778 21.667,14.369 10.539,18.961 19.978,37.916 26.212,36.642 l 0,0 z"
           id="path3781" />
        <path
           inkscape:connector-curvature="0"
           style="fill:#000000;fill-opacity:1"
           id="path3783"
           d="m 58.791,93.913 c 1.107,8.454 -6.202,12.629 -13.36,7.179 C 22.644,83.743 83.16,75.088 79.171,51.386 75.86,31.712 15.495,37.769 8.621,68.553 3.968,89.374 27.774,118.26 52.614,118.26 c 12.22,0 26.315,-11.034 28.952,-25.012 C 83.58,82.589 57.867,86.86 58.791,93.913 l 0,0 z" />
      </g>
    </g>
    <g
       style="fill:#000000;fill-opacity:1"
       transform="matrix(0.94863382,0,0,0.94863382,16.289855,38.163734)"
       id="g3956">
      <path
         inkscape:connector-curvature="0"
         style="font-size:148.69999695000001338px;font-style:normal;font-variant:normal;font-weight:bold;font-stretch:normal;text-align:start;line-height:125%;text-anchor:start;fill:#000000;fill-opacity:1;stroke:none;font-family:Bitstream Vera Sans"
         d="m -565.995,509.461 c -8.088,0.218 -14.474,3.124 -19.171,8.698 -4.864,5.801 -7.31,13.817 -7.31,24.039 0,10.194 2.446,18.187 7.31,23.988 4.888,5.801 11.598,8.699 20.158,8.699 8.583,0 15.31,-2.898 20.174,-8.699 4.864,-5.801 7.294,-13.794 7.294,-23.988 0,-10.222 -2.43,-18.238 -7.294,-24.039 -4.864,-5.8 -11.591,-8.698 -20.174,-8.698 -0.335,0 -0.659,-0.009 -0.987,0 z m 0.602,11.776 c 0.129,-0.003 0.254,0 0.385,0 4.22,0 7.49,1.826 9.802,5.487 2.313,3.661 3.48,8.828 3.48,15.474 0,6.617 -1.167,11.746 -3.48,15.407 -2.312,3.661 -5.582,5.503 -9.802,5.503 -4.197,0 -7.44,-1.842 -9.753,-5.503 -2.313,-3.661 -3.479,-8.79 -3.479,-15.407 0,-6.646 1.166,-11.813 3.479,-15.474 2.24,-3.546 5.36,-5.376 9.368,-5.487 z"
         id="path3787" />
      <path
         inkscape:connector-curvature="0"
         style="font-size:148.69999695000001338px;font-style:normal;font-variant:normal;font-weight:bold;font-stretch:normal;text-align:start;line-height:125%;text-anchor:start;fill:#000000;fill-opacity:1;stroke:none;font-family:Bitstream Vera Sans"
         d="m -657.354,568.972 c -7.124,5.982 -17.723,5.913 -22.138,5.913 -8.893,0 -15.938,-2.929 -21.136,-8.786 -5.198,-5.885 -7.796,-13.854 -7.796,-23.908 0,-10.166 2.646,-18.163 7.939,-23.992 5.293,-5.829 12.541,-8.744 21.744,-8.744 3.553,0 6.95,0.395 10.193,1.183 3.266,0.788 6.342,1.957 9.227,3.506 l -3.705,10.953 c -1.622,-0.888 -3.479,-1.763 -5.2,-2.378 -2.933,-0.986 -5.878,-1.479 -8.834,-1.479 -5.484,0 -9.716,1.817 -12.696,5.449 -2.956,3.605 -4.435,8.772 -4.435,15.502 0,6.674 1.431,11.828 4.292,15.46 2.861,3.633 7.161,5.449 12.195,5.449 5.115,0 8.283,-1.289 9.973,-2.647 l 0,-10.912 -11.081,0 0,-10.898 21.458,0"
         id="path3789"
         sodipodi:nodetypes="cscsssccccsssszccccc" />
      <path
         inkscape:connector-curvature="0"
         style="font-size:148.69999695000001338px;font-style:normal;font-variant:normal;font-weight:bold;font-stretch:normal;text-align:start;line-height:125%;text-anchor:start;fill:#000000;fill-opacity:1;stroke:none;font-family:Bitstream Vera Sans"
         d="m -528.503,510.596 17.525,0 12.159,39.37 12.231,-39.37 14.812,0 6.691,63.064 -13.018,0 -4.014,-39.435 -12.303,39.624 -8.726,0 -12.303,-40.962 -4.015,40.773 -13.053,0 6.691,-63.064"
         id="path3793"
         sodipodi:nodetypes="cccccccccccccc" />
      <path
         inkscape:connector-curvature="0"
         style="font-size:148.69999695000001338px;font-style:normal;font-variant:normal;font-weight:bold;font-stretch:normal;text-align:start;line-height:125%;text-anchor:start;fill:#000000;fill-opacity:1;stroke:none;font-family:Bitstream Vera Sans"
         d="m -455.688,510.596 37.158,0 0,12.292 -23.389,0 0,13.081 17.979,0 0,10.953 -17.979,0 0,14.446 24.176,0 0,12.292 -37.945,0 0,-63.064"
         id="path3795"
         sodipodi:nodetypes="ccccccccccccc" />
      <path
         inkscape:connector-curvature="0"
         style="font-size:148.69999695000001338px;font-style:normal;font-variant:normal;font-weight:bold;font-stretch:normal;text-align:start;line-height:125%;text-anchor:start;fill:#000000;fill-opacity:1;stroke:none;font-family:Bitstream Vera Sans"
         d="m -647.943,510.596 8.687,0 27.449,37.901 0,-37.901 11.716,0 0,63.064 -8.687,0 -27.449,-37.901 0,37.901 -11.716,0 0,-63.064"
         id="path3791"
         sodipodi:nodetypes="ccccccccccc" />
    </g>
  </g>
</svg>
