<?xml version="1.0" encoding="UTF-8" standalone="no"?>
<!-- Created with Inkscape (http://www.inkscape.org/) -->

<svg
   xmlns:dc="http://purl.org/dc/elements/1.1/"
   xmlns:cc="http://creativecommons.org/ns#"
   xmlns:rdf="http://www.w3.org/1999/02/22-rdf-syntax-ns#"
   xmlns:svg="http://www.w3.org/2000/svg"
   xmlns="http://www.w3.org/2000/svg"
   xmlns:xlink="http://www.w3.org/1999/xlink"
   xmlns:sodipodi="http://sodipodi.sourceforge.net/DTD/sodipodi-0.dtd"
   xmlns:inkscape="http://www.inkscape.org/namespaces/inkscape"
   width="1024px"
   height="768px"
   id="svg3136"
   version="1.1"
   inkscape:version="0.48.2 r9819"
   sodipodi:docname="gnome-university.svg">
  <defs
     id="defs3138" />
  <sodipodi:namedview
     id="base"
     pagecolor="#ffffff"
     bordercolor="#666666"
     borderopacity="1.0"
     inkscape:pageopacity="0.0"
     inkscape:pageshadow="2"
     inkscape:zoom="0.70710678"
     inkscape:cx="257.12766"
     inkscape:cy="541.19886"
     inkscape:current-layer="layer1"
     inkscape:document-units="px"
     showgrid="false"
     inkscape:window-width="1920"
     inkscape:window-height="1011"
     inkscape:window-x="0"
     inkscape:window-y="34"
     inkscape:window-maximized="1"
     showguides="true"
     inkscape:guide-bbox="true"
     showborder="false" />
  <metadata
     id="metadata3141">
    <rdf:RDF>
      <cc:Work
         rdf:about="">
        <dc:format>image/svg+xml</dc:format>
        <dc:type
           rdf:resource="http://purl.org/dc/dcmitype/StillImage" />
        <dc:title />
      </cc:Work>
    </rdf:RDF>
  </metadata>
  <g
     id="layer1"
     inkscape:label="Layer 1"
     inkscape:groupmode="layer">
    <path
       style="fill:#000000;fill-opacity:0;stroke:#2e3436;stroke-width:3;stroke-miterlimit:4;stroke-dasharray:none"
       d="m 742.89452,84.483894 c 61.40107,63.228716 99.20657,149.498766 99.20657,244.599326 0,193.91998 -157.19332,351.1232 -351.10109,351.1232 -193.90778,0 -351.1011,-157.20322 -351.1011,-351.1232 0,-96.49887 38.92543,-183.90565 101.93027,-247.373383"
       id="path3144-6"
       inkscape:connector-curvature="0"
       sodipodi:nodetypes="csssc" />
    <path
       style="fill:none;stroke:#000000;stroke-width:10;stroke-linecap:butt;stroke-linejoin:round;stroke-miterlimit:4;stroke-opacity:1;stroke-dasharray:none"
       d="m 678.66714,523.02992 97.03986,46.62955 -49.15006,21.42438 16.38335,42.84877 -90.10844,-42.84877 z"
       id="path3780-8"
       inkscape:connector-curvature="0"
       sodipodi:nodetypes="cccccc" />
    <path
       style="fill:none;stroke:#000000;stroke-width:10;stroke-linecap:butt;stroke-linejoin:miter;stroke-miterlimit:4;stroke-opacity:1;stroke-dasharray:none"
       d="m 701.50931,578.95386 -48.67746,12.76012"
       id="path3782-4"
       inkscape:connector-curvature="0"
       sodipodi:nodetypes="cc" />
    <path
       sodipodi:type="arc"
       style="fill:#000000;fill-opacity:0;stroke:#2e3436;stroke-width:10;stroke-miterlimit:4;stroke-dasharray:none"
       id="path3144"
       sodipodi:cx="491"
       sodipodi:cy="339"
       sodipodi:rx="247"
       sodipodi:ry="247"
       d="m 738,339 a 247,247 0 1 1 -494,0 247,247 0 1 1 494,0 z" />
    <path
       sodipodi:type="arc"
       style="fill:none;stroke:#51851e;stroke-width:85.70535278;stroke-miterlimit:4;stroke-opacity:1;stroke-dasharray:none"
       id="path3144-9"
       sodipodi:cx="491"
       sodipodi:cy="339"
       sodipodi:rx="247"
       sodipodi:ry="247"
       d="m 738,339 a 247,247 0 1 1 -494,0 247,247 0 1 1 494,0 z"
       transform="matrix(0.8167518,0,0,0.8167518,89.974863,62.12114)" />
    <g
       id="g3976"
       transform="matrix(1.4649312,0,0,1.4649312,1256.2079,-88.509254)"
       style="fill:#2e3436">
      <g
         id="g3771"
         transform="matrix(1.321617,0,0,1.321617,-589.11909,207.11138)"
         style="fill:#2e3436;fill-opacity:1;fill-rule:nonzero;stroke:none"
         inkscape:export-filename="/home/duffy/Desktop/gnome_logo_horiz.png"
         inkscape:export-xdpi="72.000000"
         inkscape:export-ydpi="72.000000">
        <g
           style="fill:#2e3436;fill-opacity:1"
           id="g3773">
          <path
             inkscape:connector-curvature="0"
             style="fill:#2e3436;fill-opacity:1"
             d="M 86.068,0 C 61.466,0 56.851,35.041 70.691,35.041 84.529,35.041 110.671,0 86.068,0 z"
             id="path3775" />
          <path
             inkscape:connector-curvature="0"
             style="fill:#2e3436;fill-opacity:1"
             d="M 45.217,30.699 C 52.586,31.149 60.671,2.577 46.821,4.374 32.976,6.171 37.845,30.249 45.217,30.699 z"
             id="path3777" />
          <path
             inkscape:connector-curvature="0"
             style="fill:#2e3436;fill-opacity:1"
             d="M 11.445,48.453 C 16.686,46.146 12.12,23.581 3.208,29.735 -5.7,35.89 6.204,50.759 11.445,48.453 z"
             id="path3779" />
          <path
             inkscape:connector-curvature="0"
             style="fill:#2e3436;fill-opacity:1"
             d="M 26.212,36.642 C 32.451,35.37 32.793,9.778 21.667,14.369 10.539,18.961 19.978,37.916 26.212,36.642 l 0,0 z"
             id="path3781" />
          <path
             inkscape:connector-curvature="0"
             style="fill:#2e3436;fill-opacity:1"
             id="path3783"
             d="m 58.791,93.913 c 1.107,8.454 -6.202,12.629 -13.36,7.179 C 22.644,83.743 83.16,75.088 79.171,51.386 75.86,31.712 15.495,37.769 8.621,68.553 3.968,89.374 27.774,118.26 52.614,118.26 c 12.22,0 26.315,-11.034 28.952,-25.012 C 83.58,82.589 57.867,86.86 58.791,93.913 l 0,0 z" />
        </g>
      </g>
    </g>
    <path
       sodipodi:type="arc"
       style="fill:none;stroke:#2e3436;stroke-width:15.71776295;stroke-miterlimit:4;stroke-dasharray:none"
       id="path3144-1"
       sodipodi:cx="491"
       sodipodi:cy="339"
       sodipodi:rx="247"
       sodipodi:ry="247"
       d="m 738,339 a 247,247 0 1 1 -494,0 247,247 0 1 1 494,0 z"
       transform="matrix(0.6362229,0,0,0.6362229,178.61455,123.32043)" />
    <path
       sodipodi:type="arc"
       style="fill:none;fill-opacity:1;stroke:none;stroke-width:13.52288818000000070;stroke-miterlimit:4;stroke-dasharray:none"
       id="path3144-3"
       sodipodi:cx="491"
       sodipodi:cy="339"
       sodipodi:rx="247"
       sodipodi:ry="247"
       d="m 738,339 a 247,247 0 1 1 -494,0 247,247 0 1 1 494,0 z"
       transform="matrix(0.73948698,0,0,0.73948698,135.69007,96.09209)" />
    <path
       style="fill:none;stroke:#000000;stroke-width:10;stroke-linecap:butt;stroke-linejoin:round;stroke-miterlimit:4;stroke-opacity:1;stroke-dasharray:none"
       d="m 301.18426,523.02992 -97.03986,46.62955 49.15006,21.42438 -16.38335,42.84877 90.10844,-42.84877 z"
       id="path3780"
       inkscape:connector-curvature="0"
       sodipodi:nodetypes="cccccc" />
    <path
       style="fill:#ffffff;fill-opacity:1;stroke:#2e3436;stroke-width:10;stroke-miterlimit:4;stroke-linejoin:round"
       d="m 248.88355,512.31774 c 0,0 104.76959,-60.13163 244.74816,-59.86226 139.97857,0.26937 238.56075,59.86226 238.56075,59.86226 l -30.24616,66.79367 c 0,0 -76.67335,-44.43113 -207.62709,-44.73916 -130.95374,-0.30803 -215.18946,45.36929 -215.18946,45.36929 z"
       id="rect2998"
       inkscape:connector-curvature="0"
       sodipodi:nodetypes="czcczcc" />
    <path
       style="fill:none;stroke:#000000;stroke-width:10;stroke-linecap:butt;stroke-linejoin:miter;stroke-miterlimit:4;stroke-opacity:1;stroke-dasharray:none"
       d="m 278.3421,578.95386 48.67745,12.76012"
       id="path3782"
       inkscape:connector-curvature="0"
       sodipodi:nodetypes="cc" />
    <path
       style="fill:none;stroke:none;stroke-width:1;stroke-miterlimit:4;stroke-opacity:1"
       d="m 331.01485,437.44418 c -16.7389,-27.95118 -26.36051,-60.65391 -26.36051,-95.60391 0,-102.91627 83.42981,-186.3464 186.34567,-186.3464 102.91588,0 186.34567,83.43013 186.34567,186.3464 0,34.74197 -9.50739,67.26335 -26.06233,95.1043"
       id="path3144-9-7"
       inkscape:connector-curvature="0"
       sodipodi:nodetypes="csssc" />
    <path
       style="fill:none;stroke:#888a85;stroke-width:1;stroke-miterlimit:4;stroke-opacity:1"
       d="m 897.2319,-173.8027 c -15.8792,-26.51434 -25.0066,-57.53597 -25.0066,-90.68935 0,-97.62581 79.1447,-176.76718 176.7747,-176.76718 97.63,0 176.7747,79.14137 176.7747,176.76718 0,32.95604 -9.0191,63.80565 -24.7237,90.21542"
       id="path3144-9-7-6"
       inkscape:connector-curvature="0"
       sodipodi:nodetypes="csssc" />
    <text
       xml:space="preserve"
       style="font-size:40px;font-style:normal;font-weight:normal;line-height:125%;letter-spacing:0px;word-spacing:0px;fill:#000000;fill-opacity:1;stroke:none;font-family:Sans"
       id="text3882"
       sodipodi:linespacing="125%"><textPath
         xlink:href="#path3144-9-7"
         id="textPath3911"
         style="font-weight:bold;letter-spacing:18.68999886px;-inkscape-font-specification:Sans Bold;fill:#ffffff;fill-opacity:1"> GNOME UNIVERSITY</textPath></text>
    <text
       xml:space="preserve"
       style="font-size:40px;font-style:normal;font-weight:normal;line-height:125%;letter-spacing:0px;word-spacing:0px;fill:#000000;fill-opacity:1;stroke:none;font-family:Sans"
       x="246.43799"
       y="-131.93951"
       id="text3882-4"
       sodipodi:linespacing="125%"><tspan
         sodipodi:role="line"
         id="tspan3884-2"
         x="246.43799"
         y="-131.93951"
         style="font-weight:bold;-inkscape-font-specification:Sans Bold">GNOME UNIVERSITY</tspan></text>
    <path
       style="opacity:1;fill:#000000;fill-opacity:1;stroke:none"
       d="m 837.55297,83.769 c -12.51844,1.28286 -27.72463,13.84439 -35.75289,27.74974 -8.02826,13.90535 -6.80774,25.56772 -1.65951,37.05044 12.51843,-1.28287 23.22861,-6.05705 31.25687,-19.9624 8.02825,-13.90535 11.30375,-33.35506 6.15553,-44.83778 z"
       id="path3937"
       inkscape:connector-curvature="0"
       sodipodi:nodetypes="cscsc" />
    <path
       style="opacity:1;fill:#000000;fill-opacity:1;stroke:none"
       d="m 718.56034,154.47995 c 8.92026,-8.87615 28.27158,-12.69015 44.11746,-10.09788 15.84588,2.59228 24.09896,10.92218 29.72575,22.17812 -8.92026,8.87614 -19.3975,14.1419 -35.24338,11.54963 -15.84587,-2.59229 -32.97303,-12.37392 -38.59983,-23.62987 z"
       id="path3937-8"
       inkscape:connector-curvature="0"
       sodipodi:nodetypes="cscsc" />
    <path
       style="opacity:1;fill:#000000;fill-opacity:1;stroke:none"
       d="m 873.5672,149.19552 c -12.424,-2.00087 -30.36318,6.19699 -41.71686,17.55066 -11.35367,11.35367 -13.19318,22.93455 -11.19232,35.35846 12.42391,2.00085 24.00479,0.16135 35.35847,-11.19232 11.35361,-11.35368 19.55151,-29.29289 17.55071,-41.7168 z"
       id="path3937-5"
       inkscape:connector-curvature="0"
       sodipodi:nodetypes="cscsc" />
    <path
       style="opacity:1;fill:#000000;fill-opacity:1;stroke:none"
       d="m 740.32775,186.69949 c 10.91363,-6.26497 30.5927,-4.94052 45.22772,1.66464 14.63501,6.60516 20.45094,16.78728 22.97275,29.11601 -10.91363,6.26496 -22.39674,8.63958 -37.03176,2.03442 -14.635,-6.60517 -28.64689,-20.48633 -31.16871,-32.81507 z"
       id="path3937-8-2"
       inkscape:connector-curvature="0"
       sodipodi:nodetypes="cscsc" />
    <path
       style="opacity:1;fill:#000000;fill-opacity:1;stroke:none"
       d="m 898.0829,213.04993 c -12.23897,-2.92695 -30.74241,3.90251 -42.91557,14.37275 -12.17314,10.47025 -14.87597,21.88057 -13.81245,34.41954 12.23887,2.92693 23.92509,1.9611 36.09825,-8.50915 12.17309,-10.47026 21.69322,-27.74417 20.62977,-40.28314 z"
       id="path3937-5-7"
       inkscape:connector-curvature="0"
       sodipodi:nodetypes="cscsc" />
    <path
       style="opacity:1;fill:#000000;fill-opacity:1;stroke:none"
       d="m 762.4061,240.45622 c 11.35273,-5.42888 30.87705,-2.63235 44.97553,5.05173 14.09845,7.68409 19.13441,18.27369 20.72454,30.75682 -11.35273,5.42887 -22.98158,6.93565 -37.08004,-0.74844 -14.09845,-7.6841 -27.02989,-22.57697 -28.62003,-35.06011 z"
       id="path3937-8-2-6"
       inkscape:connector-curvature="0"
       sodipodi:nodetypes="cscsc" />
    <path
       style="opacity:1;fill:#000000;fill-opacity:1;stroke:none"
       d="m 916.69042,300.48635 c -11.01015,-6.09392 -30.66612,-4.46251 -45.19628,2.37021 -14.53015,6.83274 -20.18648,17.10439 -22.51558,29.47096 11.01007,6.09389 22.52884,8.28903 37.05899,1.45628 14.5301,-6.83277 28.32371,-20.93089 30.65287,-33.29745 z"
       id="path3937-5-7-9"
       inkscape:connector-curvature="0"
       sodipodi:nodetypes="cscsc" />
    <path
       style="opacity:1;fill:#000000;fill-opacity:1;stroke:none"
       d="m 778.62655,290.60387 c 12.39118,-2.19451 30.45612,5.72241 41.98561,16.89752 11.52946,11.17511 13.54947,22.72586 11.74274,35.17949 -12.39118,2.19449 -23.99936,0.53594 -35.52883,-10.63917 -11.52946,-11.17512 -20.00626,-28.98421 -18.19952,-41.43784 z"
       id="path3937-8-2-6-3"
       inkscape:connector-curvature="0"
       sodipodi:nodetypes="cscsc" />
    <path
       style="opacity:1;fill:#000000;fill-opacity:1;stroke:none"
       d="m 914.84475,374.83321 c -10.25404,-7.29478 -29.96871,-7.88677 -45.17577,-2.73341 -15.20705,5.15337 -21.98388,14.72288 -25.6905,26.74859 10.25397,7.29474 21.45236,10.7728 36.6594,5.61942 15.20701,-5.15341 30.50019,-17.6089 34.20687,-29.6346 z"
       id="path3937-5-7-9-5"
       inkscape:connector-curvature="0"
       sodipodi:nodetypes="cscsc" />
    <path
       style="opacity:1;fill:#000000;fill-opacity:1;stroke:none"
       d="m 778.77137,349.46924 c 12.55947,-0.78546 29.6182,9.11502 39.8162,21.51715 10.19797,12.40214 10.90466,24.10687 7.70729,36.27791 -12.55947,0.78543 -23.90711,-2.16951 -34.10509,-14.57165 -10.19797,-12.40214 -16.61578,-31.05238 -13.4184,-43.22341 z"
       id="path3937-8-2-6-3-6"
       inkscape:connector-curvature="0"
       sodipodi:nodetypes="cscsc" />
    <path
       style="opacity:1;fill:#000000;fill-opacity:1;stroke:none"
       d="m 898.88142,462.67215 c -8.21656,-9.53138 -27.22015,-14.81174 -43.2177,-13.43693 -15.99754,1.37481 -24.86256,9.05026 -31.33234,19.84371 8.21651,9.53133 18.26111,15.58169 34.25864,14.20686 15.99751,-1.37487 33.82157,-9.82021 40.2914,-20.61364 z"
       id="path3937-5-7-9-5-6"
       inkscape:connector-curvature="0"
       sodipodi:nodetypes="cscsc" />
    <path
       style="opacity:1;fill:#000000;fill-opacity:1;stroke:none"
       d="m 772.79465,405.56332 c 12.38396,2.23493 26.58662,15.92084 33.52975,30.39858 6.94309,14.47774 4.83568,26.01286 -1.17426,37.06899 -12.38395,-2.23496 -22.69834,-7.81294 -29.64144,-22.29069 -6.9431,-14.47774 -8.72399,-34.12076 -2.71405,-45.17688 z"
       id="path3937-8-2-6-3-6-4"
       inkscape:connector-curvature="0"
       sodipodi:nodetypes="cscsc" />
    <path
       style="opacity:1;fill:#000000;fill-opacity:1;stroke:none"
       d="m 865.81024,531.18207 c -6.06728,-11.02485 -23.56762,-20.12192 -39.50358,-22.08595 -15.93593,-1.96403 -26.19689,3.71168 -34.75939,12.93341 6.06725,11.02478 14.64308,19.02203 30.57901,20.98604 15.93593,1.96396 35.12142,-2.6118 43.68396,-11.8335 z"
       id="path3937-5-7-9-5-6-8"
       inkscape:connector-curvature="0"
       sodipodi:nodetypes="cscsc" />
    <path
       style="opacity:1;fill:#000000;fill-opacity:1;stroke:none"
       d="m 754.26343,449.22718 c 11.65383,4.74823 22.71837,21.07598 26.5166,36.6768 3.7982,15.60081 -0.64969,26.45053 -8.81662,36.02438 -11.65381,-4.74826 -20.59131,-12.33914 -24.38952,-27.93996 -3.7982,-15.60081 -1.47739,-35.18738 6.68954,-44.76122 z"
       id="path3937-8-2-6-3-6-4-2"
       inkscape:connector-curvature="0"
       sodipodi:nodetypes="cscsc" />
  </g>
</svg>
