<?xml version="1.0" encoding="UTF-8" standalone="no"?>
<!-- Created with Inkscape (http://www.inkscape.org/) -->

<svg
   xmlns:dc="http://purl.org/dc/elements/1.1/"
   xmlns:cc="http://creativecommons.org/ns#"
   xmlns:rdf="http://www.w3.org/1999/02/22-rdf-syntax-ns#"
   xmlns:svg="http://www.w3.org/2000/svg"
   xmlns="http://www.w3.org/2000/svg"
   xmlns:sodipodi="http://sodipodi.sourceforge.net/DTD/sodipodi-0.dtd"
   xmlns:inkscape="http://www.inkscape.org/namespaces/inkscape"
   width="940"
   height="500"
   id="svg2"
   version="1.1"
   inkscape:version="0.48.4 r9939"
   sodipodi:docname="smart-card.svg"
   inkscape:export-filename="/home/andreasn/SparkleShare/gnome-marketing/smart-card.png"
   inkscape:export-xdpi="90"
   inkscape:export-ydpi="90">
  <defs
     id="defs4" />
  <sodipodi:namedview
     id="base"
     pagecolor="#ffffff"
     bordercolor="#666666"
     borderopacity="1.0"
     inkscape:pageopacity="1"
     inkscape:pageshadow="2"
     inkscape:zoom="0.70710678"
     inkscape:cx="324.20189"
     inkscape:cy="357.47681"
     inkscape:document-units="px"
     inkscape:current-layer="layer1"
     showgrid="false"
     inkscape:snap-nodes="false"
     inkscape:snap-bbox="true"
     inkscape:window-width="1920"
     inkscape:window-height="1021"
     inkscape:window-x="0"
     inkscape:window-y="27"
     inkscape:window-maximized="1"
     inkscape:snap-global="false"
     showborder="true"
     inkscape:showpageshadow="false"
     showguides="true"
     inkscape:guide-bbox="true">
    <inkscape:grid
       type="xygrid"
       id="grid6061"
       empspacing="5"
       visible="true"
       enabled="true"
       snapvisiblegridlinesonly="true" />
  </sodipodi:namedview>
  <metadata
     id="metadata7">
    <rdf:RDF>
      <cc:Work
         rdf:about="">
        <dc:format>image/svg+xml</dc:format>
        <dc:type
           rdf:resource="http://purl.org/dc/dcmitype/StillImage" />
        <dc:title />
      </cc:Work>
    </rdf:RDF>
  </metadata>
  <g
     inkscape:label="Layer 1"
     inkscape:groupmode="layer"
     id="layer1"
     transform="translate(0,-552.36217)">
    <rect
       style="color:#000000;fill:#bebebe;fill-opacity:1;fill-rule:nonzero;stroke:none;stroke-width:20;marker:none;visibility:visible;display:inline;overflow:visible;enable-background:accumulate"
       id="rect11339-4"
       width="139.08832"
       height="35.556351"
       x="637.45587"
       y="856.91492"
       rx="0"
       ry="0" />
    <rect
       style="color:#000000;fill:#ffffff;fill-opacity:1;fill-rule:nonzero;stroke:#bebebe;stroke-width:20;stroke-linecap:round;stroke-linejoin:round;stroke-miterlimit:4;stroke-opacity:1;stroke-dasharray:none;stroke-dashoffset:0;marker:none;visibility:visible;display:inline;overflow:visible;enable-background:accumulate"
       id="rect7162"
       width="360"
       height="223"
       x="521"
       y="639.36218"
       rx="16"
       ry="16" />
    <path
       style="color:#000000;fill:none;stroke:#bebebe;stroke-width:14.99999905;stroke-miterlimit:4;stroke-opacity:1;marker:none;visibility:visible;display:inline;overflow:visible;enable-background:accumulate"
       d="m 129.40056,651.67871 0,-43.37964 c 0,-16.45289 13.24552,-29.69855 29.69849,-29.69855 l 140.00713,0 c 16.45295,0 29.69847,13.24566 29.69847,29.69855 l -2e-5,176.77642 c 0,16.4531 13.24554,29.69855 29.6985,29.69855 l 143.4823,0"
       id="rect11317"
       inkscape:connector-curvature="0"
       sodipodi:nodetypes="csssccsc" />
    <rect
       style="color:#000000;fill:#d6d6d1;fill-opacity:1;fill-rule:nonzero;stroke:none;stroke-width:0.04878049;marker:none;visibility:visible;display:inline;overflow:visible;enable-background:accumulate"
       id="rect10470"
       width="193.74727"
       height="193.74727"
       x="36.154346"
       y="610.73047"
       rx="17.67767"
       ry="17.67767" />
    <rect
       style="color:#000000;fill:#909090;fill-opacity:1;fill-rule:nonzero;stroke:none;stroke-width:1;marker:none;visibility:visible;display:inline;overflow:visible;enable-background:accumulate"
       id="rect11240"
       width="162.63457"
       height="17.324116"
       x="51.003601"
       y="770.8905"
       rx="8.6620579"
       ry="8.6620579" />
    <rect
       style="color:#000000;fill:#729fcf;fill-opacity:1;fill-rule:nonzero;stroke:#3465a4;stroke-width:5;stroke-miterlimit:4;stroke-opacity:1;stroke-dasharray:none;marker:none;visibility:visible;display:inline;overflow:visible;enable-background:accumulate"
       id="rect6794-5"
       width="152.62645"
       height="219.83456"
       x="-208.52361"
       y="-1037.7532"
       rx="12.142858"
       ry="12.142858"
       transform="scale(-1,-1)" />
    <rect
       style="color:#000000;fill:#dcdcd7;fill-opacity:1;fill-rule:nonzero;stroke:none;stroke-width:1;marker:none;visibility:visible;display:inline;overflow:visible;enable-background:accumulate"
       id="rect6805-6"
       width="44.556053"
       height="44.595314"
       x="-152.79065"
       y="-875.93549"
       rx="6.0819674"
       ry="6.0819674"
       transform="scale(-1,-1)" />
    <path
       style="font-size:medium;font-style:normal;font-variant:normal;font-weight:normal;font-stretch:normal;text-indent:0;text-align:start;text-decoration:none;line-height:normal;letter-spacing:normal;word-spacing:normal;text-transform:none;direction:ltr;block-progression:tb;writing-mode:lr-tb;text-anchor:start;baseline-shift:baseline;color:#000000;fill:#729fcf;fill-opacity:1;stroke:none;stroke-width:1.99999975999999990;marker:none;visibility:visible;display:inline;overflow:visible;enable-background:accumulate;font-family:Sans;-inkscape-font-specification:Sans"
       d="M 116.875 273.84375 L 116.875 298.6875 L 105.15625 298.6875 L 105.15625 300.6875 L 116.875 300.6875 L 116.875 325.5625 L 118.875 325.5625 L 118.875 300.6875 L 125.90625 300.6875 L 125.90625 325.5625 L 127.90625 325.5625 L 127.90625 300.6875 L 135.40625 300.6875 L 135.40625 325.5625 L 137.40625 325.5625 L 137.40625 300.6875 L 144.21875 300.6875 L 144.21875 325.5625 L 146.21875 325.5625 L 146.21875 300.6875 L 156.84375 300.6875 L 156.84375 298.6875 L 146.21875 298.6875 L 146.21875 273.84375 L 144.21875 273.84375 L 144.21875 298.6875 L 137.40625 298.6875 L 137.40625 273.84375 L 135.40625 273.84375 L 135.40625 298.6875 L 127.90625 298.6875 L 127.90625 273.84375 L 125.90625 273.84375 L 125.90625 298.6875 L 118.875 298.6875 L 118.875 273.84375 L 116.875 273.84375 z "
       transform="translate(0,552.36217)"
       id="path6837-6" />
    <rect
       style="color:#000000;fill:#bebebe;fill-opacity:1;fill-rule:nonzero;stroke:none;stroke-width:20;marker:none;visibility:visible;display:inline;overflow:visible;enable-background:accumulate"
       id="rect11339"
       width="190"
       height="20.056351"
       x="612"
       y="895.59869"
       rx="5.0931396"
       ry="5.0931396" />
    <path
       style="font-size:medium;font-style:normal;font-variant:normal;font-weight:normal;font-stretch:normal;text-indent:0;text-align:start;text-decoration:none;line-height:normal;letter-spacing:normal;word-spacing:normal;text-transform:none;direction:ltr;block-progression:tb;writing-mode:lr-tb;text-anchor:start;baseline-shift:baseline;color:#000000;fill:#bebebe;fill-opacity:1;fill-rule:nonzero;stroke:none;stroke-width:20;marker:none;visibility:visible;display:inline;overflow:visible;enable-background:accumulate;font-family:Sans;-inkscape-font-specification:Sans"
       d="m 557,923.375 c -14.23103,0 -20.32572,9.91006 -26,19.89796 l -20,35.20408 c -5.67427,9.98786 11.76897,19.89796 26,19.89796 l 328,0 c 14.23103,0 31.67427,-9.9101 26,-19.89796 L 871,943.27296 C 865.32572,933.28506 859.23103,923.375 845,923.375 z"
       id="rect7162-6"
       inkscape:connector-curvature="0"
       sodipodi:nodetypes="sssssssss" />
    <rect
       style="color:#000000;fill:#729fcf;fill-opacity:1;fill-rule:nonzero;stroke:none;stroke-width:20;marker:none;visibility:visible;display:inline;overflow:visible;enable-background:accumulate"
       id="rect11424"
       width="170.95258"
       height="39.886562"
       x="616.31152"
       y="725.8504" />
    <path
       sodipodi:type="arc"
       style="color:#000000;fill:#ffffff;fill-opacity:1;fill-rule:nonzero;stroke:none;stroke-width:20;marker:none;visibility:visible;display:inline;overflow:visible;enable-background:accumulate"
       id="path11578"
       sodipodi:cx="638.625"
       sodipodi:cy="193.625"
       sodipodi:rx="9.125"
       sodipodi:ry="9.125"
       d="m 647.75,193.625 a 9.125,9.125 0 1 1 -18.25,0 9.125,9.125 0 1 1 18.25,0 z"
       transform="translate(6.25,551.23717)" />
    <path
       sodipodi:type="arc"
       style="color:#000000;fill:#ffffff;fill-opacity:1;fill-rule:nonzero;stroke:none;stroke-width:20;marker:none;visibility:visible;display:inline;overflow:visible;enable-background:accumulate"
       id="path11578-0"
       sodipodi:cx="638.625"
       sodipodi:cy="193.625"
       sodipodi:rx="9.125"
       sodipodi:ry="9.125"
       d="m 647.75,193.625 a 9.125,9.125 0 1 1 -18.25,0 9.125,9.125 0 1 1 18.25,0 z"
       transform="translate(34.25,551.23717)" />
    <path
       sodipodi:type="arc"
       style="color:#000000;fill:#ffffff;fill-opacity:1;fill-rule:nonzero;stroke:none;stroke-width:20;marker:none;visibility:visible;display:inline;overflow:visible;enable-background:accumulate"
       id="path11578-0-8"
       sodipodi:cx="638.625"
       sodipodi:cy="193.625"
       sodipodi:rx="9.125"
       sodipodi:ry="9.125"
       d="m 647.75,193.625 a 9.125,9.125 0 1 1 -18.25,0 9.125,9.125 0 1 1 18.25,0 z"
       transform="translate(62.25,551.23717)" />
    <path
       sodipodi:type="arc"
       style="color:#000000;fill:#ffffff;fill-opacity:1;fill-rule:nonzero;stroke:none;stroke-width:20;marker:none;visibility:visible;display:inline;overflow:visible;enable-background:accumulate"
       id="path11578-0-8-7"
       sodipodi:cx="638.625"
       sodipodi:cy="193.625"
       sodipodi:rx="9.125"
       sodipodi:ry="9.125"
       d="m 647.75,193.625 a 9.125,9.125 0 1 1 -18.25,0 9.125,9.125 0 1 1 18.25,0 z"
       transform="translate(90.25,551.23717)" />
    <path
       sodipodi:type="arc"
       style="color:#000000;fill:#ffffff;fill-opacity:1;fill-rule:nonzero;stroke:none;stroke-width:20;marker:none;visibility:visible;display:inline;overflow:visible;enable-background:accumulate"
       id="path11578-0-8-7-1"
       sodipodi:cx="638.625"
       sodipodi:cy="193.625"
       sodipodi:rx="9.125"
       sodipodi:ry="9.125"
       d="m 647.75,193.625 a 9.125,9.125 0 1 1 -18.25,0 9.125,9.125 0 1 1 18.25,0 z"
       transform="translate(118.25,551.23717)" />
    <text
       xml:space="preserve"
       style="font-size:5.49576377999999988px;font-style:normal;font-weight:normal;line-height:125%;letter-spacing:0px;word-spacing:0px;fill:#3465a4;fill-opacity:1;stroke:none;font-family:Sans"
       x="951.61072"
       y="-178.73833"
       id="text11726"
       sodipodi:linespacing="125%"
       transform="matrix(0,1,-1,0,0,0)"><tspan
         sodipodi:role="line"
         id="tspan11728"
         x="951.61072"
         y="-178.73833"
         style="font-weight:bold;fill:#3465a4;fill-opacity:1;-inkscape-font-specification:Sans Bold">Rupert Monkey</tspan><tspan
         sodipodi:role="line"
         x="951.61072"
         y="-171.86862"
         style="font-weight:bold;fill:#3465a4;fill-opacity:1;-inkscape-font-specification:Sans Bold"
         id="tspan11732">Senior Kernel Hacker</tspan><tspan
         sodipodi:role="line"
         x="951.61072"
         y="-164.99892"
         id="tspan11730"
         style="font-weight:bold;fill:#3465a4;fill-opacity:1;-inkscape-font-specification:Sans Bold">Monkey Industries</tspan></text>
  </g>
</svg>
