<?xml version="1.0" encoding="UTF-8" standalone="no"?>
<!-- Generator: Adobe Illustrator 19.2.0, SVG Export Plug-In . SVG Version: 6.00 Build 0)  -->

<svg
   xmlns:dc="http://purl.org/dc/elements/1.1/"
   xmlns:cc="http://creativecommons.org/ns#"
   xmlns:rdf="http://www.w3.org/1999/02/22-rdf-syntax-ns#"
   xmlns:svg="http://www.w3.org/2000/svg"
   xmlns="http://www.w3.org/2000/svg"
   xmlns:sodipodi="http://sodipodi.sourceforge.net/DTD/sodipodi-0.dtd"
   xmlns:inkscape="http://www.inkscape.org/namespaces/inkscape"
   version="1.1"
   id="Layer_1"
   x="0px"
   y="0px"
   viewBox="0 0 841.9 595.3"
   style="enable-background:new 0 0 841.9 595.3;"
   xml:space="preserve"
   inkscape:version="0.91 r13725"
   sodipodi:docname="Endless_horizontal_logo_2colors re-saved forced colors.svg"><metadata
     id="metadata27"><rdf:RDF><cc:Work
         rdf:about=""><dc:format>image/svg+xml</dc:format><dc:type
           rdf:resource="http://purl.org/dc/dcmitype/StillImage" /><dc:title></dc:title></cc:Work></rdf:RDF></metadata><defs
     id="defs25" /><sodipodi:namedview
     pagecolor="#ffffff"
     bordercolor="#666666"
     borderopacity="1"
     objecttolerance="10"
     gridtolerance="10"
     guidetolerance="10"
     inkscape:pageopacity="0"
     inkscape:pageshadow="2"
     inkscape:window-width="640"
     inkscape:window-height="480"
     id="namedview23"
     showgrid="false"
     inkscape:zoom="0.95141938"
     inkscape:cx="433.03722"
     inkscape:cy="280.83301"
     inkscape:current-layer="Layer_1" /><style
     type="text/css"
     id="style3">
	.st0{fill:#EA5B0C;}
	.st1{fill:#4A4A49;}
</style><path
     class="st0"
     d="M271.9,285.4c-13-7.4-38.2,1.8-60.8,13.3c-5.8-2.7-11.5-5.4-17.1-8c16.6-9.2,30-18.3,33.2-20.5  c2.2-1.5,2.7-4.5,1.2-6.6c-1.5-2.2-4.5-2.7-6.6-1.2c-10.8,7.4-24.7,16.1-38.8,23.5c-26.9-11.7-49.8-19-61.7-12.1  c-3.4,2-7.6,6.2-8.3,14.6c-1,13,4.3,18.9,9,21.6c13,7.4,38.2-1.8,60.8-13.3c5.8,2.7,11.5,5.4,17.1,8c-16.5,9.2-30,18.3-33.2,20.5  c-2.2,1.5-2.7,4.5-1.2,6.6c1.5,2.2,4.5,2.7,6.6,1.2c10.8-7.4,24.7-16.1,38.8-23.5c26.9,11.7,49.8,19,61.7,12.1  c3.4-2,7.6-6.2,8.3-14.6C281.9,293.9,276.6,288,271.9,285.4z M126.8,301.6c-1.2-0.7-4.9-2.8-4.2-12.6c0.3-4.7,2.2-6.3,3.5-7.1  c2.9-1.7,7.5-1.9,13.1-1c8.8,1.4,20.3,5.4,32.6,10.5C152.5,300.6,134.7,306.2,126.8,301.6z M271.4,306.3c-0.3,4.7-2.2,6.3-3.6,7.1  c-2.9,1.7-7.5,1.9-13.1,1c-8.8-1.4-20.3-5.4-32.6-10.5c19.3-9.2,37.1-14.8,45.1-10.2C268.4,294.4,272.1,296.5,271.4,306.3z"
     id="path5"
     style="fill:#ea5b0c;fill-opacity:1" /><path
     style="fill:#4a4a49;fill-opacity:1"
     inkscape:connector-curvature="0"
     id="path9"
     d="m 328.6,272 30.6,0 0,4.6 -25.7,0 0,17.4 19.2,0 0,4.4 -19.2,0 0,20.4 27.2,0 0,4.5 -32.1,0 0,-51.3 z"
     class="st1" /><path
     style="fill:#4a4a49;fill-opacity:1"
     inkscape:connector-curvature="0"
     id="path11"
     d="m 387.1,272 5.3,0 28.3,42.3 0.1,0 0,-42.3 4.6,0 0,51.3 -4.4,0 -29.2,-43.6 -0.1,0 0,43.6 -4.6,0 0,-51.3 z"
     class="st1" /><path
     style="fill:#4a4a49;fill-opacity:1"
     inkscape:connector-curvature="0"
     id="path13"
     d="m 455.2,272 13,0 c 16.7,0 25.5,8.7 25.5,25.6 0,16.9 -9,25.7 -25.5,25.7 l -13,0 0,-51.3 z m 13.7,46.9 c 12.7,0 19.8,-6.4 19.8,-21.3 0,-14.5 -7.2,-21 -20,-21 l -8.7,0 0,42.3 8.9,0 z"
     class="st1" /><path
     style="fill:#4a4a49;fill-opacity:1"
     inkscape:connector-curvature="0"
     id="path15"
     d="m 521,272 4.9,0 0,46.8 25.1,0 0,4.5 -30,0 0,-51.3 z"
     class="st1" /><path
     style="fill:#4a4a49;fill-opacity:1"
     inkscape:connector-curvature="0"
     id="path17"
     d="m 576.8,272 30.6,0 0,4.6 -25.7,0 0,17.4 19.2,0 0,4.4 -19.2,0 0,20.4 27.2,0 0,4.5 -32.1,0 0,-51.3 z"
     class="st1" /><path
     style="fill:#4a4a49;fill-opacity:1"
     inkscape:connector-curvature="0"
     id="path19"
     d="m 631.4,310.7 4.4,-1.6 c 2.3,7.1 7.5,10.8 14.7,10.8 7.7,0 12.7,-3.5 12.7,-9.3 0,-5.3 -2.6,-8 -13.4,-11.5 -11,-3.5 -16.6,-6.4 -16.6,-14.9 0,-7.4 6.6,-13.2 15.9,-13.2 9.6,0 15.2,4.9 17.6,11.8 l -4.2,1.9 c -2.6,-6.7 -7.1,-9.3 -13.5,-9.3 -6.9,0 -11,3.7 -11,8.4 0,5.8 3.4,7.7 14.2,11.2 10.7,3.4 15.9,6.9 15.9,15.3 0,8.5 -7.6,14 -17.8,14 -9.7,0 -16.5,-5.3 -18.9,-13.6 z"
     class="st1" /><path
     style="fill:#4a4a49;fill-opacity:1"
     inkscape:connector-curvature="0"
     id="path21"
     d="m 692.3,310.7 4.4,-1.6 c 2.3,7.1 7.5,10.8 14.7,10.8 7.7,0 12.7,-3.5 12.7,-9.3 0,-5.3 -2.6,-8 -13.4,-11.5 -11,-3.5 -16.6,-6.4 -16.6,-14.9 0,-7.4 6.6,-13.2 15.9,-13.2 9.6,0 15.2,4.9 17.6,11.8 l -4.2,1.9 c -2.6,-6.7 -7.1,-9.3 -13.5,-9.3 -6.9,0 -11,3.7 -11,8.4 0,5.8 3.4,7.7 14.2,11.2 10.7,3.4 15.9,6.9 15.9,15.3 0,8.5 -7.6,14 -17.8,14 -9.7,0 -16.5,-5.3 -18.9,-13.6 z"
     class="st1" /></svg>