<?xml version="1.0" encoding="utf-8"?>
<!-- Generator: Adobe Illustrator 21.0.0, SVG Export Plug-In . SVG Version: 6.00 Build 0)  -->
<svg version="1.1" id="Layer_1" xmlns="http://www.w3.org/2000/svg" xmlns:xlink="http://www.w3.org/1999/xlink" x="0px" y="0px"
	 viewBox="0 0 841.9 595.3" style="enable-background:new 0 0 841.9 595.3;" xml:space="preserve">
<style type="text/css">
	.st0{fill:#FFFFFF;}
</style>
<g>
	<rect x="239.5" y="245.8" width="362.8" height="103.7"/>
	<path class="st0" d="M586.1,320.2c-0.7,0.2-1.3,0.3-1.9,0.3c-2.1,0-3.1-0.9-3.1-3.5v-19.7c0-10.4-8.3-15.4-18-15.4
		c-7.4,0-11.5,0.9-19.4,4.1l-1.8,10.4l10.4,1.1l1.5-5.1c2.1-1.1,4.2-1.3,6.9-1.3c7.3,0,7.4,5.5,7.4,10.2v1.5
		c-2.3-0.3-4.9-0.4-7.4-0.4c-10.4,0-21.1,2.6-21.1,13.8c0,9.5,7.4,13,14,13c7.3,0,12-4.4,14.6-9.1c0.6,5.5,3.9,9.1,10,9.1
		c2.8,0,5.7-0.8,8.2-2.1L586.1,320.2z M558.2,319.9c-3.9,0-5.3-2.3-5.3-5.2c0-4.9,4-6.2,8.7-6.2c2.1,0,4.4,0.3,6.5,0.6
		C567.7,316.6,562.8,319.9,558.2,319.9z M540.8,259l-19.6,69.2h-12.8L528,259H540.8z M514.4,259l-19.6,69.2H482l19.6-69.2H514.4z
		 M459.9,282.8h13.6v16.3h-13.6V282.8z M459.9,311.9h13.6v16.3h-13.6V311.9z M440.1,311.3l10.3,1l-2.8,15.9h-39.7l-1.3-6.8l25-28.7
		h-14.2l-2,7l-9.4-1l1.6-15.9h39.9l1,6.8l-25.2,28.7H438L440.1,311.3z M375.1,281.9c-16.3,0-24.4,11-24.4,24.3
		c0,14.5,9.7,23,23.7,23c14.5,0,25-9.2,25-23.7C399.3,292.9,391.4,281.9,375.1,281.9z M374.8,319.2c-7,0-10.7-6-10.7-13.9
		c0-8.6,4.1-13.5,10.8-13.5c6.1,0,11.1,4.1,11.1,13.3C385.9,313.8,381.5,319.2,374.8,319.2z M339,318.3h6v9.9h-19v-25.6
		c0-7.9-2.6-10.9-7.7-10.9c-6.2,0-8.8,4.4-8.8,10.8v15.8h6v9.9h-19v-25.6c0-7.9-2.6-10.9-7.8-10.9c-6.2,0-8.8,4.4-8.8,10.8v15.8h8.7
		v9.9H261v-9.9h6v-25.7h-6v-9.9h19v6.8c2.7-4.8,7.4-7.7,13.8-7.7c6.5,0,12.6,3.1,14.8,9.8c2.5-6,7.6-9.8,14.8-9.8
		c8.2,0,15.6,4.9,15.6,15.7V318.3z"/>
</g>
</svg>
