<?xml version="1.0" encoding="UTF-8" standalone="no"?>
<!-- Created with Inkscape (http://www.inkscape.org/) -->

<svg
   xmlns:dc="http://purl.org/dc/elements/1.1/"
   xmlns:cc="http://creativecommons.org/ns#"
   xmlns:rdf="http://www.w3.org/1999/02/22-rdf-syntax-ns#"
   xmlns:svg="http://www.w3.org/2000/svg"
   xmlns="http://www.w3.org/2000/svg"
   xmlns:sodipodi="http://sodipodi.sourceforge.net/DTD/sodipodi-0.dtd"
   xmlns:inkscape="http://www.inkscape.org/namespaces/inkscape"
   width="32.21489mm"
   height="14.929291mm"
   viewBox="0 0 114.14725 52.899062"
   id="svg3869"
   version="1.1"
   inkscape:version="0.91 r13725"
   sodipodi:docname="SUSE 2016 CMYK extrait du fichier AI.svg">
  <defs
     id="defs3871" />
  <sodipodi:namedview
     id="base"
     pagecolor="#ffffff"
     bordercolor="#666666"
     borderopacity="1.0"
     inkscape:pageopacity="0.0"
     inkscape:pageshadow="2"
     inkscape:zoom="1.979899"
     inkscape:cx="73.686005"
     inkscape:cy="-9.5519133"
     inkscape:document-units="px"
     inkscape:current-layer="layer1"
     showgrid="false"
     fit-margin-top="0"
     fit-margin-left="0"
     fit-margin-right="0"
     fit-margin-bottom="0" />
  <metadata
     id="metadata3874">
    <rdf:RDF>
      <cc:Work
         rdf:about="">
        <dc:format>image/svg+xml</dc:format>
        <dc:type
           rdf:resource="http://purl.org/dc/dcmitype/StillImage" />
        <dc:title></dc:title>
      </cc:Work>
    </rdf:RDF>
  </metadata>
  <g
     inkscape:label="Calque 1"
     inkscape:groupmode="layer"
     id="layer1"
     transform="translate(-197.21209,-871.62696)">
    <g
       id="g3913">
      <g
         transform="matrix(1.25,0,0,-1.25,309.54934,923.60727)"
         id="g262">
        <path
           inkscape:connector-curvature="0"
           id="path264"
           style="fill:#003259;fill-opacity:1;fill-rule:nonzero;stroke:none"
           d="m 0,0 c -0.653,0 -1.14,0.503 -1.14,1.129 0,0.629 0.491,1.138 1.148,1.138 0.65,0 1.139,-0.506 1.139,-1.132 C 1.147,0.51 0.651,0 0,0 m 0.008,2.554 c -0.81,0 -1.448,-0.646 -1.448,-1.425 0,-0.78 0.635,-1.419 1.44,-1.419 0.808,0 1.448,0.649 1.448,1.425 0,0.776 -0.633,1.419 -1.44,1.419" />
      </g>
      <g
         transform="matrix(1.25,0,0,-1.25,232.06622,910.23202)"
         id="g266">
        <path
           inkscape:connector-curvature="0"
           id="path268"
           style="fill:#003259;fill-opacity:1;fill-rule:nonzero;stroke:none"
           d="m 0,0 c -0.061,0.01 -6.477,0.94 -6.542,0.95 -1.124,0.177 -1.696,0.732 -1.696,1.644 0,0.92 0.79,1.44 1.438,1.44 l 10.606,0 0,3.957 -10.581,0 c -3.357,0 -5.676,-2.553 -5.676,-5.397 0,-2.485 1.494,-5.059 4.911,-5.586 0.06,-0.01 6.481,-0.94 6.542,-0.95 1.129,-0.178 1.695,-0.734 1.695,-1.648 0,-0.919 -0.788,-1.435 -1.441,-1.435 l -7.747,0 0,-0.003 c -1.568,-0.045 -3.223,-1.248 -3.223,-3.607 l 0,-0.352 10.953,0 c 3.357,0 5.67,2.553 5.67,5.397 C 4.909,-3.104 3.418,-0.527 0,0" />
      </g>
      <g
         transform="matrix(1.25,0,0,-1.25,284.99872,906.98939)"
         id="g270">
        <path
           inkscape:connector-curvature="0"
           id="path272"
           style="fill:#003259;fill-opacity:1;fill-rule:nonzero;stroke:none"
           d="m 0,0 0,-8.184 c 0,-2.844 2.319,-5.398 5.674,-5.398 l 11.472,0 0,0.353 c 0,2.359 -1.654,3.562 -3.226,3.607 l 0,0.003 -8.267,0 c -0.649,0 -1.441,0.516 -1.441,1.435 0,0.914 0.602,1.648 1.7,1.648 l 3.583,0 c 3.152,0.02 4.97,1.952 5.542,4.161 l -8.619,0 c -1.551,0 -2.206,-1.231 -2.206,-1.231 l 0,3.606 c 0,0.92 0.787,1.44 1.441,1.44 l 8.267,0 c 1.572,0.043 3.226,1.25 3.226,3.609 l 0,0.348 -11.472,0 C 2.316,5.397 0,2.844 0,0" />
      </g>
      <g
         transform="matrix(1.25,0,0,-1.25,309.6461,922.12802)"
         id="g274">
        <path
           inkscape:connector-curvature="0"
           id="path276"
           style="fill:#003259;fill-opacity:1;fill-rule:nonzero;stroke:none"
           d="m 0,0 -0.302,0 0,0.403 0.298,0 C 0.143,0.403 0.237,0.334 0.237,0.197 0.237,0.085 0.155,0 0,0 m 0.543,0.219 c 0,0.279 -0.207,0.447 -0.539,0.447 l -0.607,0 0,-1.357 0.301,0 0,0.437 0.238,0 0.295,-0.437 0.352,0 -0.334,0.486 c 0.174,0.061 0.294,0.201 0.294,0.424" />
      </g>
      <g
         transform="matrix(1.25,0,0,-1.25,277.5056,910.23202)"
         id="g278">
        <path
           inkscape:connector-curvature="0"
           id="path280"
           style="fill:#003259;fill-opacity:1;fill-rule:nonzero;stroke:none"
           d="m 0,0 c -0.058,0.01 -6.477,0.94 -6.539,0.95 -1.126,0.177 -1.695,0.732 -1.695,1.644 0,0.92 0.787,1.44 1.435,1.44 l 10.605,0 0,3.957 -10.579,0 c -3.359,0 -5.677,-2.553 -5.677,-5.397 0,-2.485 1.493,-5.059 4.913,-5.586 0.057,-0.01 6.476,-0.94 6.537,-0.95 1.129,-0.178 1.699,-0.734 1.699,-1.648 0,-0.919 -0.789,-1.435 -1.439,-1.435 l -10.599,0 0,-3.962 10.578,0 c 3.356,0 5.674,2.553 5.674,5.397 C 4.913,-3.104 3.42,-0.527 0,0" />
      </g>
      <g
         transform="matrix(1.25,0,0,-1.25,255.30884,914.34352)"
         id="g282">
        <path
           inkscape:connector-curvature="0"
           id="path284"
           style="fill:#003259;fill-opacity:1;fill-rule:nonzero;stroke:none"
           d="m 0,0 c 0,-2.358 -1.91,-4.269 -4.266,-4.269 -2.359,0 -4.27,1.911 -4.27,4.269 l 0,11.288 -4.11,0 0,-11.052 c 0,-4.628 3.751,-8.382 8.38,-8.382 4.626,0 8.378,3.754 8.378,8.382 l 0,11.052 L 0,11.288 0,0 Z" />
      </g>
      <g
         transform="matrix(1.25,0,0,-1.25,256.03884,878.57227)"
         id="g286">
        <path
           inkscape:connector-curvature="0"
           id="path288"
           style="fill:#6bbf5a;fill-opacity:1;fill-rule:nonzero;stroke:none"
           d="m 0,0 c 0.532,0 0.963,-0.287 0.963,-0.642 0,-0.351 -0.431,-0.642 -0.963,-0.642 -0.529,0 -0.959,0.291 -0.959,0.642 C -0.959,-0.287 -0.529,0 0,0 m -0.501,-3.244 c 0.58,-0.019 1.13,0.187 1.554,0.578 0.424,0.399 0.667,0.934 0.688,1.51 C 1.778,0.041 0.84,1.045 -0.356,1.086 -0.934,1.111 -1.481,0.903 -1.904,0.508 -2.328,0.114 -2.574,-0.421 -2.592,-1.001 -2.63,-2.195 -1.696,-3.203 -0.501,-3.244" />
      </g>
      <g
         transform="matrix(1.25,0,0,-1.25,251.61147,879.81414)"
         id="g290">
        <path
           inkscape:connector-curvature="0"
           id="path292"
           style="fill:#6bbf5a;fill-opacity:1;fill-rule:nonzero;stroke:none"
           d="M 0,0 C 0.032,0.828 0.38,1.597 0.989,2.162 1.592,2.73 2.384,3.022 3.21,2.995 4.927,2.934 6.269,1.49 6.212,-0.222 6.181,-1.05 5.831,-1.817 5.228,-2.383 4.623,-2.949 3.829,-3.244 2.999,-3.215 1.286,-3.153 -0.053,-1.712 0,0 m 8.3,-3.06 c 0.079,0.053 0.362,0.243 0.293,0.471 C 8.315,-1.617 7.356,1.641 6.556,2.466 6.323,2.707 6.136,2.94 5.758,3.159 2.699,4.942 -4.562,6.021 -4.903,6.069 c 0,0 -0.083,0.022 -0.082,-0.066 0,0 -0.027,-1.508 -0.027,-1.675 -0.74,0.248 -6.132,1.989 -11.19,2.167 -4.282,0.149 -10.133,0.354 -18.401,-4.73 l -0.244,-0.152 c -3.893,-2.428 -6.577,-5.418 -7.98,-8.897 -0.443,-1.093 -1.032,-3.562 -0.448,-5.884 0.254,-1.016 0.728,-2.032 1.364,-2.949 1.435,-2.061 3.844,-3.432 6.439,-3.664 3.665,-0.325 6.44,1.319 7.43,4.399 0.677,2.129 0,5.247 -2.602,6.841 -2.116,1.295 -4.395,1.001 -5.714,0.129 -1.144,-0.762 -1.792,-1.938 -1.782,-3.237 0.024,-2.297 2.006,-3.518 3.429,-3.523 0.415,0 0.833,0.072 1.299,0.224 0.167,0.053 0.322,0.113 0.497,0.223 l 0.055,0.034 0.035,0.02 -0.014,-0.007 c 0.324,0.22 0.521,0.577 0.521,0.963 0,0.107 -0.015,0.213 -0.045,0.321 -0.169,0.583 -0.743,0.934 -1.341,0.822 l -0.079,-0.014 -0.109,-0.034 -0.159,-0.054 c -0.325,-0.083 -0.573,-0.088 -0.626,-0.088 -0.166,0.011 -0.991,0.255 -0.991,1.154 l 0,0.01 c 0.008,0.328 0.137,0.56 0.211,0.687 0.254,0.4 0.955,0.793 1.895,0.707 1.238,-0.105 2.128,-0.738 2.721,-1.934 0.547,-1.115 0.409,-2.484 -0.369,-3.486 -0.771,-0.996 -2.14,-1.419 -3.961,-1.221 -1.839,0.201 -3.393,1.258 -4.263,2.906 -0.85,1.606 -0.898,3.515 -0.119,4.983 1.861,3.509 5.374,3.474 7.297,3.141 2.74,-0.473 6.889,-2.928 8.448,-8.606 l 3.785,0 c -0.469,1.445 -0.736,5.64 3.525,5.64 4.677,0 5.264,-3.293 6.591,-5.64 l 4.011,0 c -1.053,1.509 -1.796,3.19 -1.56,4.604 0.346,2.088 2.006,1.9 4.304,1.64 0.751,-0.088 1.609,-0.184 2.488,-0.204 2.474,-0.015 4.708,0.438 6.349,1.155 1.061,0.463 1.735,0.769 2.161,1.155 0.153,0.124 0.232,0.333 0.314,0.55 l 0.058,0.147 c 0.068,0.178 0.156,0.557 0.21,0.761 0.109,0.42 -0.263,0.197 -0.263,0.197 -0.716,-0.432 -2.518,-1.253 -4.203,-1.286 -2.084,-0.044 -6.289,2.098 -6.727,2.325 l -0.042,0.05 c -0.109,0.251 -0.737,1.745 -0.871,2.061 3.026,-1.996 5.536,-3.097 7.458,-3.268 2.14,-0.191 3.809,0.979 4.52,1.474" />
      </g>
    </g>
  </g>
</svg>
