<?xml version="1.0" encoding="UTF-8" standalone="no"?>
<svg xmlns:dc="http://purl.org/dc/elements/1.1/" xmlns:cc="http://creativecommons.org/ns#" xmlns:rdf="http://www.w3.org/1999/02/22-rdf-syntax-ns#" xmlns:svg="http://www.w3.org/2000/svg" xmlns="http://www.w3.org/2000/svg" xmlns:sodipodi="http://sodipodi.sourceforge.net/DTD/sodipodi-0.dtd" xmlns:inkscape="http://www.inkscape.org/namespaces/inkscape" version="1.1" width="527" height="121" id="LO" inkscape:version="0.48.0 r9654" sodipodi:docname="DocFound.svg">
  <metadata id="metadata3151">
    <rdf:RDF>
      <cc:Work rdf:about="">
        <dc:format>image/svg+xml</dc:format>
        <dc:type rdf:resource="http://purl.org/dc/dcmitype/StillImage"/>
        <dc:title/>
      </cc:Work>
    </rdf:RDF>
  </metadata>
  <defs id="defs3149"/>
  <sodipodi:namedview pagecolor="#ffffff" bordercolor="#666666" borderopacity="1" objecttolerance="10" gridtolerance="10" guidetolerance="10" inkscape:pageopacity="0" inkscape:pageshadow="2" inkscape:window-width="1280" inkscape:window-height="947" id="namedview3147" showgrid="false" inkscape:zoom="1.464311" inkscape:cx="174.27308" inkscape:cy="-34.24521" inkscape:window-x="0" inkscape:window-y="24" inkscape:window-maximized="1" inkscape:current-layer="LO" showguides="true" inkscape:guide-bbox="true" inkscape:snap-nodes="true">
    <sodipodi:guide orientation="0,1" position="-56.981477,241.44693" id="guide3361"/>
  </sodipodi:namedview>
  <path d="m 58.072358,6.040526 -50.716475,0 0,108.802014 89.295671,0 0,-70.236353 L 58.072358,6.040526 z" id="sheet" style="fill:#ffffff;stroke:#000000;stroke-width:5.63516378;stroke-linejoin:round" inkscape:connector-curvature="0"/>
  <path d="m 96.651554,29.89514 0,-23.854614 -23.841077,0 23.841077,23.854614 z" id="corner" style="stroke:#000000;stroke-width:5.63516378;stroke-linejoin:round" inkscape:connector-curvature="0"/>
  <a id="a3310" transform="matrix(0.79783796,0,0,0.79783796,66.11063,28.676333)">
    <g style="font-size:69.71659851px;font-style:normal;font-variant:normal;font-weight:bold;font-stretch:normal;line-height:88.99999857%;letter-spacing:0px;word-spacing:0px;fill:#000000;fill-opacity:1;stroke:none;font-family:Arial;-inkscape-font-specification:Arial Bold" id="text3185">
      <path d="m 85.840209,40.272026 0,-44.015411 -16.441952,0 0,-5.8891463 39.556003,0 0,5.8891463 -16.510037,0 0,44.015411 -6.604014,0" style="font-weight:normal;line-height:88.99999857%;letter-spacing:3.76016212px;-inkscape-font-specification:Arial" id="path4134"/>
      <path d="m 118.73973,40.272026 0,-49.9045573 6.12744,0 0,17.905728 c 2.85945,-3.3133187 6.46783,-4.969994 10.82513,-4.970031 2.67789,3.7e-5 5.00405,0.5333503 6.97847,1.5999415 1.97436,1.0439678 3.3814,2.4963954 4.22112,4.3572874 0.86235,1.8609544 1.29354,4.5615614 1.29357,8.1018314 l 0,22.9098 -6.12743,0 0,-22.9098 c -3e-5,-3.063692 -0.66951,-5.287722 -2.00844,-6.672096 -1.31629,-1.4070102 -3.18856,-2.1105299 -5.61682,-2.1105616 -1.81555,3.17e-5 -3.52896,0.4766096 -5.14023,1.4297346 -1.58861,0.930492 -2.72332,2.201366 -3.40414,3.812627 -0.68083,1.611313 -1.02125,3.835343 -1.02123,6.672096 l 0,19.778 -6.12744,0" style="font-weight:normal;line-height:88.99999857%;letter-spacing:3.76016212px;-inkscape-font-specification:Arial" id="path4136"/>
      <path d="m 186.05501,28.629899 6.33168,0.78295 c -0.99858,3.699162 -2.84815,6.569977 -5.54873,8.612451 -2.70064,2.042478 -6.15015,3.063717 -10.34856,3.063717 -5.28776,0 -9.48619,-1.622634 -12.59528,-4.867907 -3.08642,-3.267958 -4.62962,-7.840836 -4.62962,-13.718647 0,-6.082023 1.5659,-10.802413 4.6977,-14.1611837 3.13179,-3.3587071 7.19405,-5.0380766 12.18679,-5.0381136 4.83384,3.7e-5 8.78263,1.6453652 11.84637,4.9359897 3.06369,3.2906886 4.59555,7.9203016 4.59558,13.8888536 -3e-5,0.363125 -0.0114,0.907785 -0.034,1.633983 l -26.96072,0 c 0.22694,3.971498 1.3503,7.012519 3.37009,9.12307 2.01977,2.110567 4.53883,3.165846 7.55717,3.165842 2.24671,4e-6 4.16437,-0.590045 5.75299,-1.770148 1.58856,-1.180092 2.84809,-3.063709 3.77858,-5.650857 m -20.11841,-9.906021 20.18649,0 c -0.27236,-3.040999 -1.04396,-5.321764 -2.31481,-6.842303 -1.95172,-2.3601663 -4.48212,-3.5402638 -7.59121,-3.5402957 -2.8141,3.19e-5 -5.18564,0.9418405 -7.11463,2.8254287 -1.90632,1.883646 -2.9616,4.4027 -3.16584,7.55717" style="font-weight:normal;line-height:88.99999857%;letter-spacing:3.76016212px;-inkscape-font-specification:Arial" id="path4138"/>
      <path d="m 227.75282,40.272026 0,-49.9045573 17.19086,0 c 3.88068,4.99e-5 6.84227,0.2383389 8.88478,0.7148675 2.85943,0.6581805 5.29906,1.8496251 7.31888,3.5743373 2.63249,2.2240755 4.59553,5.07219544 5.88915,8.5443683 1.31621,3.4495528 1.97435,7.3983402 1.97439,11.8463752 -4e-5,3.789954 -0.44258,7.148693 -1.32761,10.076227 -0.88512,2.927565 -2.01983,5.355842 -3.40413,7.28484 -1.38439,1.906319 -2.9049,3.415482 -4.56153,4.527494 -1.63402,1.089324 -3.61976,1.917662 -5.95723,2.485015 -2.31484,0.567356 -4.98141,0.851033 -7.99971,0.851033 l -18.00785,0 m 6.60401,-5.889146 10.65493,0 c 3.29063,6e-6 5.86642,-0.306366 7.72738,-0.919116 1.88358,-0.612736 3.3814,-1.475115 4.49345,-2.587139 1.56586,-1.565889 2.78,-3.665101 3.64242,-6.297642 0.88503,-2.655204 1.32757,-5.86643 1.32761,-9.63369 -4e-5,-5.2196367 -0.86242,-9.2251599 -2.58714,-12.0165817 -1.7021,-2.81404126 -3.77862,-4.6976584 -6.22956,-5.6508571 -1.77018,-0.6807825 -4.6183,-1.0211952 -8.54437,-1.0212392 l -10.48472,0 0,38.126265" style="font-weight:normal;line-height:88.99999857%;letter-spacing:3.76016212px;-inkscape-font-specification:Arial" id="path4140"/>
      <path d="m 278.8304,22.196092 c -10e-6,-6.694766 1.86092,-11.653445 5.58277,-14.876052 3.1091,-2.6778805 6.89902,-4.0168373 11.3698,-4.0168743 4.97,3.7e-5 9.03226,1.6340181 12.18679,4.9019484 3.15446,3.2452999 4.7317,7.7387479 4.73174,13.4803579 -4e-5,4.652326 -0.70356,8.317436 -2.11056,10.995342 -1.38438,2.655227 -3.41551,4.720398 -6.0934,6.195518 -2.65525,1.475124 -5.5601,2.212685 -8.71457,2.212685 -5.06082,0 -9.15712,-1.622634 -12.28892,-4.867907 -3.10911,-3.245264 -4.66366,-7.920265 -4.66365,-14.025018 m 6.29764,0 c -10e-6,4.629631 1.00988,8.101841 3.02967,10.41664 2.01977,2.29212 4.56152,3.438176 7.62526,3.438172 3.041,4e-6 5.5714,-1.157399 7.59121,-3.472214 2.01975,-2.314798 3.02965,-5.843744 3.02968,-10.586846 -3e-5,-4.470736 -1.02127,-7.852169 -3.06372,-10.14431 -2.01981,-2.3147782 -4.53887,-3.4721815 -7.55717,-3.4722134 -3.06374,3.19e-5 -5.60549,1.1460881 -7.62526,3.4381724 -2.01979,2.292141 -3.02968,5.753003 -3.02967,10.382599" style="font-weight:normal;line-height:88.99999857%;letter-spacing:3.76016212px;-inkscape-font-specification:Arial" id="path4142"/>
      <path d="m 347.26904,27.029957 6.02531,0.78295 c -0.65817,4.153048 -2.34889,7.409663 -5.07216,9.769856 -2.70063,2.337503 -6.02533,3.506254 -9.9741,3.506254 -4.94735,0 -8.93018,-1.611287 -11.9485,-4.833865 -2.99564,-3.245264 -4.49346,-7.886225 -4.49345,-13.922895 -1e-5,-3.903382 0.64678,-7.318856 1.94035,-10.246434 1.29357,-2.9275212 3.25661,-5.1175098 5.88915,-6.5699723 2.65521,-1.4750871 5.53737,-2.212648 8.64649,-2.212685 3.92607,3.7e-5 7.1373,0.998581 9.63369,2.9956351 2.49633,1.9744279 4.09627,4.7885062 4.79982,8.4422442 l -5.95722,0.919115 c -0.56739,-2.428252 -1.57728,-4.255134 -3.02968,-5.48065 -1.42976,-1.2254559 -3.16586,-1.8381988 -5.20832,-1.8382307 -3.08643,3.19e-5 -5.59414,1.1120469 -7.52313,3.3360477 -1.92902,2.201365 -2.89352,5.696269 -2.89351,10.484723 -10e-6,4.856573 0.93045,8.385519 2.79139,10.586847 1.86091,2.201343 4.28918,3.302011 7.28484,3.302007 2.40556,4e-6 4.414,-0.737557 6.02531,-2.212685 1.61126,-1.475116 2.6325,-3.744534 3.06372,-6.808262" style="font-weight:normal;line-height:88.99999857%;letter-spacing:3.76016212px;-inkscape-font-specification:Arial" id="path4144"/>
      <path d="m 385.98961,40.272026 0,-5.310444 c -2.8141,4.084958 -6.63807,6.127435 -11.47192,6.127435 -2.13327,0 -4.13036,-0.408496 -5.99127,-1.225487 -1.83824,-0.81699 -3.21124,-1.838228 -4.119,-3.063717 -0.88508,-1.248177 -1.50917,-2.768687 -1.87227,-4.561536 -0.24964,-1.202783 -0.37446,-3.109095 -0.37445,-5.718939 l 0,-22.3991809 6.12743,0 0,20.0503299 c -1e-5,3.199896 0.12481,5.355844 0.37446,6.467849 0.38579,1.611297 1.20278,2.882171 2.45097,3.812626 1.24817,0.907774 2.79137,1.361657 4.62962,1.361653 1.83821,4e-6 3.56297,-0.465227 5.17428,-1.395694 1.61126,-0.95315 2.74597,-2.235371 3.40413,-3.846668 0.6808,-1.633971 1.02121,-3.994166 1.02124,-7.080592 l 0,-19.3695039 6.12743,0 0,36.1518689 -5.48065,0" style="font-weight:normal;line-height:88.99999857%;letter-spacing:3.76016212px;-inkscape-font-specification:Arial" id="path4146"/>
      <path d="m 404.86412,40.272026 0,-36.1518689 5.48065,0 0,5.0721549 c 1.1347,-1.7701152 2.64387,-3.1885016 4.5275,-4.2551635 1.8836,-1.0892854 4.0282,-1.6339458 6.43381,-1.6339828 2.67789,3.7e-5 4.86788,0.5560445 6.56997,1.6680241 1.72473,1.1120503 2.93887,2.6666018 3.64242,4.6636592 2.85943,-4.2210873 6.58128,-6.3316463 11.16555,-6.3316833 3.58564,3.7e-5 6.34298,0.998581 8.27203,2.9956351 1.92896,1.9744279 2.89346,5.0267952 2.89352,9.1571122 l 0,24.816113 -6.0934,0 0,-22.773635 c -5e-5,-2.450949 -0.20429,-4.209748 -0.61274,-5.276403 -0.38585,-1.089292 -1.10072,-1.963018 -2.1446,-2.6211803 -1.04398,-0.6581006 -2.26947,-0.9871663 -3.67647,-0.987198 -2.54179,3.17e-5 -4.65234,0.8510636 -6.33168,2.5530983 -1.6794,1.679398 -2.51909,4.380006 -2.51906,8.101831 l 0,21.003487 -6.12743,0 0,-23.488502 c -3e-5,-2.723279 -0.4993,-4.765755 -1.49782,-6.127436 -0.99857,-1.3616211 -2.63255,-2.0424466 -4.90195,-2.0424783 -1.72477,3.17e-5 -3.32471,0.4539154 -4.79982,1.3616524 -1.45244,0.9077979 -2.50772,2.2354069 -3.16584,3.9828329 -0.65815,1.747478 -0.98721,4.266533 -0.9872,7.55717 l 0,18.756761 -6.12744,0" style="font-weight:normal;line-height:88.99999857%;letter-spacing:3.76016212px;-inkscape-font-specification:Arial" id="path4148"/>
      <path d="m 491.51486,28.629899 6.33169,0.78295 c -0.99858,3.699162 -2.84816,6.569977 -5.54874,8.612451 -2.70063,2.042478 -6.15015,3.063717 -10.34855,3.063717 -5.28777,0 -9.48619,-1.622634 -12.59529,-4.867907 -3.08641,-3.267958 -4.62962,-7.840836 -4.62961,-13.718647 -10e-6,-6.082023 1.56589,-10.802413 4.6977,-14.1611837 3.13179,-3.3587071 7.19404,-5.0380766 12.18678,-5.0381136 4.83385,3.7e-5 8.78263,1.6453652 11.84638,4.9359897 3.06368,3.2906886 4.59554,7.9203016 4.59558,13.8888536 -4e-5,0.363125 -0.0114,0.907785 -0.034,1.633983 l -26.96071,0 c 0.22693,3.971498 1.35029,7.012519 3.37009,9.12307 2.01977,2.110567 4.53882,3.165846 7.55717,3.165842 2.2467,4e-6 4.16436,-0.590045 5.75298,-1.770148 1.58857,-1.180092 2.84809,-3.063709 3.77858,-5.650857 m -20.11841,-9.906021 20.1865,0 c -0.27236,-3.040999 -1.04396,-5.321764 -2.31481,-6.842303 -1.95173,-2.3601663 -4.48213,-3.5402638 -7.59121,-3.5402957 -2.8141,3.19e-5 -5.18564,0.9418405 -7.11464,2.8254287 -1.90632,1.883646 -2.9616,4.4027 -3.16584,7.55717" style="font-weight:normal;line-height:88.99999857%;letter-spacing:3.76016212px;-inkscape-font-specification:Arial" id="path4150"/>
      <path d="m 509.33409,40.272026 0,-36.1518689 5.5147,0 0,5.1402375 c 2.65521,-3.9714509 6.49052,-5.9571919 11.50596,-5.9572289 2.17862,3.7e-5 4.17571,0.3971852 5.99127,1.1914458 1.8382,0.771638 3.2112,1.7928762 4.119,3.0637177 0.90773,1.2709069 1.54317,2.7800698 1.90631,4.5274938 0.22691,1.134737 0.34038,3.120478 0.34041,5.957229 l 0,22.228974 -6.12743,0 0,-21.990685 c -3e-5,-2.496338 -0.23832,-4.357261 -0.71487,-5.582774 -0.4766,-1.248153 -1.32764,-2.23535 -2.5531,-2.9615941 -1.20281,-0.7488775 -2.6212,-1.1233315 -4.25516,-1.1233632 -2.60985,3.17e-5 -4.86792,0.8283694 -6.77422,2.4850153 -1.88363,1.656705 -2.82544,4.799849 -2.82543,9.429442 l 0,19.743959 -6.12744,0" style="font-weight:normal;line-height:88.99999857%;letter-spacing:3.76016212px;-inkscape-font-specification:Arial" id="path4152"/>
      <path d="m 565.27959,34.791375 0.88507,5.412568 c -1.72477,0.363107 -3.26798,0.544661 -4.62961,0.544661 -2.22405,0 -3.94881,-0.35176 -5.17428,-1.05528 -1.2255,-0.703519 -2.08788,-1.622634 -2.58714,-2.757346 -0.49928,-1.1574 -0.74892,-3.574331 -0.74891,-7.250799 l 0,-20.7992388 -4.49345,0 0,-4.7657831 4.49345,0 0,-8.952864 6.09339,-3.6764612 0,12.6293252 6.16148,0 0,4.7657831 -6.16148,0 0,21.1396518 c -10e-6,1.747463 0.10211,2.870825 0.30637,3.37009 0.22693,0.499279 0.57869,0.896427 1.05528,1.191446 0.49926,0.29503 1.20278,0.442542 2.11057,0.442537 0.68081,5e-6 1.57723,-0.07943 2.68926,-0.23829" style="font-weight:normal;line-height:88.99999857%;letter-spacing:3.76016212px;-inkscape-font-specification:Arial" id="path4154"/>
      <path d="m 73.483214,102.3198 0,-49.90456 33.666856,0 0,5.889147 -27.062842,0 0,15.454753 23.420422,0 0,5.889147 -23.420422,0 0,22.671513 -6.604014,0" style="font-weight:normal;line-height:88.99999857%;letter-spacing:3.76016212px;-inkscape-font-specification:Arial" id="path4156"/>
      <path d="m 116.45896,84.243863 c 0,-6.694766 1.86092,-11.653444 5.58278,-14.876051 3.10909,-2.677881 6.89902,-4.016838 11.36979,-4.016875 4.97001,3.7e-5 9.03227,1.634019 12.18679,4.901949 3.15446,3.2453 4.73171,7.738748 4.73174,13.480358 -3e-5,4.652326 -0.70355,8.317436 -2.11056,10.995342 -1.38438,2.655227 -3.41551,4.720398 -6.09339,6.195514 -2.65525,1.47513 -5.5601,2.21269 -8.71458,2.21269 -5.06082,0 -9.15712,-1.62264 -12.28891,-4.867908 -3.10911,-3.245264 -4.66366,-7.920266 -4.66366,-14.025019 m 6.29764,0 c 0,4.629632 1.00989,8.101842 3.02968,10.41664 2.01977,2.292121 4.56152,3.438177 7.62525,3.438173 3.04101,4e-6 5.57141,-1.1574 7.59122,-3.472214 2.01975,-2.314799 3.02964,-5.843744 3.02967,-10.586847 -3e-5,-4.470735 -1.02127,-7.852168 -3.06372,-10.144309 -2.0198,-2.314779 -4.53886,-3.472182 -7.55717,-3.472214 -3.06373,3.2e-5 -5.60548,1.146088 -7.62525,3.438172 -2.01979,2.292141 -3.02968,5.753004 -3.02968,10.382599" style="font-weight:normal;line-height:88.99999857%;letter-spacing:3.76016212px;-inkscape-font-specification:Arial" id="path4158"/>
      <path d="m 184.99973,102.3198 0,-5.310446 c -2.81411,4.084956 -6.63808,6.127436 -11.47192,6.127436 -2.13327,0 -4.13036,-0.4085 -5.99127,-1.22549 -1.83824,-0.81699 -3.21124,-1.83823 -4.119,-3.063716 -0.88508,-1.248176 -1.50917,-2.768686 -1.87227,-4.561535 -0.24964,-1.202784 -0.37446,-3.109095 -0.37446,-5.71894 l 0,-22.39918 6.12744,0 0,20.05033 c -1e-5,3.199896 0.12481,5.355843 0.37445,6.467849 0.38579,1.611296 1.20278,2.88217 2.45098,3.812626 1.24816,0.907773 2.79137,1.361657 4.62962,1.361652 1.83821,5e-6 3.56296,-0.465226 5.17427,-1.395693 1.61127,-0.95315 2.74598,-2.235371 3.40414,-3.846668 0.68079,-1.633971 1.02121,-3.994166 1.02123,-7.080592 l 0,-19.369504 6.12744,0 0,36.151871 -5.48065,0" style="font-weight:normal;line-height:88.99999857%;letter-spacing:3.76016212px;-inkscape-font-specification:Arial" id="path4160"/>
      <path d="m 203.87424,102.3198 0,-36.151871 5.51469,0 0,5.140237 c 2.65521,-3.971451 6.49053,-5.957192 11.50596,-5.957229 2.17862,3.7e-5 4.17571,0.397186 5.99127,1.191446 1.83821,0.771638 3.2112,1.792876 4.119,3.063718 0.90774,1.270907 1.54318,2.78007 1.90632,4.527494 0.2269,1.134737 0.34037,3.120478 0.34041,5.957229 l 0,22.228976 -6.12744,0 0,-21.990687 c -2e-5,-2.496338 -0.23831,-4.357261 -0.71486,-5.582775 -0.47661,-1.248152 -1.32764,-2.235349 -2.5531,-2.961593 -1.20282,-0.748878 -2.6212,-1.123332 -4.25517,-1.123364 -2.60985,3.2e-5 -4.86792,0.82837 -6.77422,2.485016 -1.88363,1.656704 -2.82544,4.799849 -2.82542,9.429442 l 0,19.743961 -6.12744,0" style="font-weight:normal;line-height:88.99999857%;letter-spacing:3.76016212px;-inkscape-font-specification:Arial" id="path4162"/>
      <path d="m 269.89595,102.3198 0,-4.561538 c -2.29214,3.585688 -5.66223,5.378528 -10.11027,5.378528 -2.88218,0 -5.5374,-0.7943 -7.96567,-2.38289 -2.40559,-1.588594 -4.27786,-3.801276 -5.61681,-6.638057 -1.31627,-2.859459 -1.9744,-6.138769 -1.9744,-9.837938 0,-3.608357 0.60139,-6.87632 1.80419,-9.803897 1.20279,-2.950216 3.00697,-5.208287 5.41257,-6.77422 2.40557,-1.565864 5.09483,-2.348814 8.06779,-2.348851 2.17862,3.7e-5 4.11897,0.465268 5.82106,1.395694 1.70204,0.907803 3.08639,2.099247 4.15304,3.574337 l 0,-17.905728 6.0934,0 0,49.90456 -5.6849,0 M 250.52644,84.277905 c -1e-5,4.629631 0.97584,8.090494 2.92756,10.382598 1.95168,2.292121 4.25514,3.438177 6.91038,3.438173 2.6779,4e-6 4.94731,-1.089317 6.80826,-3.267966 1.88359,-2.201328 2.8254,-5.54872 2.82543,-10.042186 -3e-5,-4.947314 -0.95318,-8.578383 -2.85947,-10.893218 -1.90634,-2.314779 -4.25518,-3.472182 -7.04655,-3.472214 -2.72332,3.2e-5 -5.00409,1.112047 -6.8423,3.336048 -1.81555,2.224059 -2.72332,5.73031 -2.72331,10.518765" style="font-weight:normal;line-height:88.99999857%;letter-spacing:3.76016212px;-inkscape-font-specification:Arial" id="path4164"/>
      <path d="m 312.59937,97.860386 c -2.26944,1.92901 -4.45943,3.290664 -6.56997,4.084954 -2.08789,0.7943 -4.33461,1.19145 -6.74018,1.19145 -3.9715,0 -7.02386,-0.9645 -9.15711,-2.89351 -2.13326,-1.9517 -3.19989,-4.436713 -3.19988,-7.455048 -1e-5,-1.770137 0.39714,-3.381424 1.19144,-4.833866 0.81699,-1.475108 1.87227,-2.655205 3.16584,-3.540296 1.31626,-0.885055 2.79138,-1.554534 4.42537,-2.008437 1.20278,-0.317699 3.01832,-0.62407 5.44661,-0.919116 4.94732,-0.590028 8.58973,-1.293547 10.92726,-2.110561 0.0227,-0.839662 0.034,-1.372975 0.034,-1.599941 -2e-5,-2.496336 -0.57872,-4.255135 -1.7361,-5.276403 -1.56593,-1.384315 -3.89208,-2.076488 -6.97847,-2.07652 -2.88218,3.2e-5 -5.01543,0.510651 -6.39977,1.531859 -1.36166,0.998575 -2.37155,2.780068 -3.02967,5.344485 l -5.99127,-0.816991 c 0.54465,-2.564417 1.44107,-4.629587 2.68926,-6.195518 1.24817,-1.588561 3.05236,-2.802699 5.41257,-3.64242 2.36018,-0.862343 5.09483,-1.293533 8.20395,-1.29357 3.08639,3.7e-5 5.5941,0.363144 7.52313,1.089322 1.92898,0.72625 3.34737,1.645364 4.25517,2.757346 0.90773,1.089354 1.54317,2.473699 1.90631,4.15304 0.20421,1.043961 0.30634,2.927578 0.30637,5.650857 l 0,8.169914 c -3e-5,5.696255 0.12479,9.30463 0.37446,10.825136 0.27229,1.49782 0.79426,2.938898 1.5659,4.323248 l -6.39977,0 c -0.63547,-1.27088 -1.04396,-2.757345 -1.22549,-4.459414 m -0.51062,-13.684605 c -2.22405,0.907785 -5.5601,1.679387 -10.00814,2.314809 -2.51907,0.363122 -4.30057,0.771618 -5.34449,1.225487 -1.04394,0.453898 -1.84958,1.123376 -2.41693,2.008437 -0.56736,0.862391 -0.85104,1.826894 -0.85103,2.893511 -1e-5,1.633991 0.61273,2.995642 1.83823,4.084957 1.24817,1.089326 3.0637,1.633987 5.44661,1.633983 2.36018,4e-6 4.45939,-0.510615 6.29764,-1.531859 1.83821,-1.043927 3.18851,-2.462313 4.05092,-4.255164 0.6581,-1.384335 0.98717,-3.426811 0.98719,-6.127435 l 0,-2.246726" style="font-weight:normal;line-height:88.99999857%;letter-spacing:3.76016212px;-inkscape-font-specification:Arial" id="path4166"/>
      <path d="m 344.95424,96.839147 0.88508,5.412573 c -1.72478,0.3631 -3.26799,0.54466 -4.62962,0.54466 -2.22405,0 -3.9488,-0.35176 -5.17428,-1.05528 -1.2255,-0.70352 -2.08788,-1.62264 -2.58714,-2.75735 -0.49928,-1.1574 -0.74892,-3.574331 -0.74891,-7.250799 l 0,-20.799239 -4.49345,0 0,-4.765783 4.49345,0 0,-8.952864 6.09339,-3.676461 0,12.629325 6.16148,0 0,4.765783 -6.16148,0 0,21.139652 c -10e-6,1.747462 0.10212,2.870824 0.30638,3.37009 0.22693,0.499278 0.57869,0.896427 1.05528,1.191445 0.49926,0.29503 1.20278,0.442543 2.11056,0.442537 0.68081,6e-6 1.57723,-0.07942 2.68926,-0.238289" style="font-weight:normal;line-height:88.99999857%;letter-spacing:3.76016212px;-inkscape-font-specification:Arial" id="path4168"/>
      <path d="m 354.70566,59.461791 0,-7.046551 6.12744,0 0,7.046551 -6.12744,0 m 0,42.858009 0,-36.151871 6.12744,0 0,36.151871 -6.12744,0" style="font-weight:normal;line-height:88.99999857%;letter-spacing:3.76016212px;-inkscape-font-specification:Arial" id="path4170"/>
      <path d="m 371.67384,84.243863 c 0,-6.694766 1.86092,-11.653444 5.58278,-14.876051 3.10909,-2.677881 6.89902,-4.016838 11.36979,-4.016875 4.97001,3.7e-5 9.03227,1.634019 12.18679,4.901949 3.15446,3.2453 4.73171,7.738748 4.73174,13.480358 -3e-5,4.652326 -0.70355,8.317436 -2.11056,10.995342 -1.38438,2.655227 -3.41551,4.720398 -6.09339,6.195514 -2.65525,1.47513 -5.56011,2.21269 -8.71458,2.21269 -5.06082,0 -9.15712,-1.62264 -12.28891,-4.867908 -3.10911,-3.245264 -4.66366,-7.920266 -4.66366,-14.025019 m 6.29764,0 c -10e-6,4.629632 1.00989,8.101842 3.02968,10.41664 2.01977,2.292121 4.56152,3.438177 7.62525,3.438173 3.041,4e-6 5.5714,-1.1574 7.59121,-3.472214 2.01976,-2.314799 3.02965,-5.843744 3.02968,-10.586847 -3e-5,-4.470735 -1.02127,-7.852168 -3.06372,-10.144309 -2.01981,-2.314779 -4.53886,-3.472182 -7.55717,-3.472214 -3.06373,3.2e-5 -5.60548,1.146088 -7.62525,3.438172 -2.01979,2.292141 -3.02969,5.753004 -3.02968,10.382599" style="font-weight:normal;line-height:88.99999857%;letter-spacing:3.76016212px;-inkscape-font-specification:Arial" id="path4172"/>
      <path d="m 416.52187,102.3198 0,-36.151871 5.51469,0 0,5.140237 c 2.65521,-3.971451 6.49053,-5.957192 11.50596,-5.957229 2.17862,3.7e-5 4.17571,0.397186 5.99127,1.191446 1.8382,0.771638 3.2112,1.792876 4.119,3.063718 0.90774,1.270907 1.54317,2.78007 1.90631,4.527494 0.22691,1.134737 0.34038,3.120478 0.34042,5.957229 l 0,22.228976 -6.12744,0 0,-21.990687 c -3e-5,-2.496338 -0.23831,-4.357261 -0.71487,-5.582775 -0.4766,-1.248152 -1.32763,-2.235349 -2.55309,-2.961593 -1.20282,-0.748878 -2.62121,-1.123332 -4.25517,-1.123364 -2.60985,3.2e-5 -4.86792,0.82837 -6.77422,2.485016 -1.88363,1.656704 -2.82544,4.799849 -2.82543,9.429442 l 0,19.743961 -6.12743,0" style="font-weight:normal;line-height:88.99999857%;letter-spacing:3.76016212px;-inkscape-font-specification:Arial" id="path4174"/>
    </g>
  </a>
</svg>