<?xml version="1.0" encoding="UTF-8" standalone="no"?>
<!-- Created with Inkscape (http://www.inkscape.org/) -->

<svg
   xmlns:dc="http://purl.org/dc/elements/1.1/"
   xmlns:cc="http://creativecommons.org/ns#"
   xmlns:rdf="http://www.w3.org/1999/02/22-rdf-syntax-ns#"
   xmlns:svg="http://www.w3.org/2000/svg"
   xmlns="http://www.w3.org/2000/svg"
   xmlns:sodipodi="http://sodipodi.sourceforge.net/DTD/sodipodi-0.dtd"
   xmlns:inkscape="http://www.inkscape.org/namespaces/inkscape"
   width="744.09448819"
   height="1052.3622047"
   id="svg2"
   version="1.1"
   inkscape:version="0.48.4 r9939"
   sodipodi:docname="New document 1">
  <defs
     id="defs4">
    <inkscape:path-effect
       effect="spiro"
       id="path-effect6209-1-3-5-7-6-4"
       is_visible="true" />
  </defs>
  <sodipodi:namedview
     id="base"
     pagecolor="#ffffff"
     bordercolor="#666666"
     borderopacity="1.0"
     inkscape:pageopacity="0.0"
     inkscape:pageshadow="2"
     inkscape:zoom="1"
     inkscape:cx="-20.951011"
     inkscape:cy="400.32999"
     inkscape:document-units="px"
     inkscape:current-layer="layer1"
     showgrid="false"
     inkscape:snap-nodes="false"
     inkscape:snap-bbox="true"
     inkscape:window-width="1920"
     inkscape:window-height="1014"
     inkscape:window-x="0"
     inkscape:window-y="27"
     inkscape:window-maximized="1"
     inkscape:snap-global="false"
     showborder="true"
     inkscape:showpageshadow="false">
    <inkscape:grid
       type="xygrid"
       id="grid6061"
       empspacing="5"
       visible="true"
       enabled="true"
       snapvisiblegridlinesonly="true" />
  </sodipodi:namedview>
  <metadata
     id="metadata7">
    <rdf:RDF>
      <cc:Work
         rdf:about="">
        <dc:format>image/svg+xml</dc:format>
        <dc:type
           rdf:resource="http://purl.org/dc/dcmitype/StillImage" />
        <dc:title></dc:title>
      </cc:Work>
    </rdf:RDF>
  </metadata>
  <g
     inkscape:label="Layer 1"
     inkscape:groupmode="layer"
     id="layer1">
    <rect
       style="color:#000000;fill:#6b8e9f;fill-opacity:1;fill-rule:nonzero;stroke:none;stroke-width:3;marker:none;visibility:visible;display:inline;overflow:visible;enable-background:accumulate"
       id="rect7213"
       width="743.87634"
       height="1021.0622"
       x="1.4142135"
       y="0.18729243" />
    <path
       style="color:#000000;fill:#ffffff;fill-opacity:1;fill-rule:nonzero;stroke:none;stroke-width:1;marker:none;visibility:visible;display:inline;overflow:visible;enable-background:accumulate"
       d="m 188.0625,792.25868 0,4.03125 -7.09375,0.9375 0,7.90625 7.09375,0 0,3.5625 -12.125,0 -9.3125,9.4375 0,26.375 62.59375,0 0,-11.34375 -18.625,-24.46875 -12.65625,0 0,-3.5625 7.0625,0 0,-7.90625 -7.0625,-0.9375 0,-4.03125 -9.875,0 z m 13,21.6875 3.09375,0 0,3.09375 -3.09375,0 0,-3.09375 z m 4,0 3.21875,0 0,3.09375 -3.21875,0 0,-3.09375 z m -16.53125,1.53125 c 2.48075,0 4.5,2.01925 4.5,4.5 0,2.48075 -2.01925,4.5 -4.5,4.5 -2.48075,0 -4.5,-2.01925 -4.5,-4.5 0,-2.48075 2.01925,-4.5 4.5,-4.5 z m 12.53125,2.46875 3.09375,0 0,3.34375 -3.09375,0 0,-3.34375 z m 4,0 3.21875,0 0,3.34375 -3.21875,0 0,-3.34375 z m -38.4375,28.9375 0,7.28125 62.59375,0 0,-7.28125 -62.59375,0 z m 0,9.3125 0,7.3125 62.59375,0 0,-7.3125 -62.59375,0 z m 0,9.3125 0,7.3125 62.59375,0 0,-7.3125 -62.59375,0 z"
       id="rect6019"
       inkscape:connector-curvature="0" />
    <path
       style="color:#000000;fill:#ffffff;fill-opacity:1;fill-rule:nonzero;stroke:none;stroke-width:1;marker:none;visibility:visible;display:inline;overflow:visible;enable-background:accumulate"
       d="m 166.625,874.82118 0.0625,67.5 70.4375,0 0,-48.84375 -7.84375,-9.34375 -0.0625,0 0,-9.3125 -62.59375,0 z"
       id="rect6019-8-9-3"
       inkscape:connector-curvature="0" />
    <path
       style="color:#000000;fill:#ffffff;fill-opacity:1;fill-rule:nonzero;stroke:none;stroke-width:1;marker:none;visibility:visible;display:inline;overflow:visible;enable-background:accumulate"
       d="m 635.8125,848.47743 -27.25,10.78125 0,38 c -25.72119,8.05213 -43.79463,26.62697 -55.9375,47.9375 l 165.9375,0 c -12.42221,-21.28691 -28.1083,-40.25105 -53.375,-48.21875 l 0,-37.71875 -29.375,-10.78125 z"
       id="path6933"
       inkscape:connector-curvature="0" />
    <path
       style="color:#000000;fill:#ffffff;fill-opacity:1;fill-rule:nonzero;stroke:none;stroke-width:1;marker:none;visibility:visible;display:inline;overflow:visible;enable-background:accumulate"
       d="m 121.375,881.07118 -18.0625,7.15625 0,25.1875 C 86.263072,918.7519 74.298844,931.0706 66.25,945.19618 l 109.96875,0 c -8.23688,-14.11484 -18.61649,-26.69099 -35.375,-31.96875 l 0,-25 -19.46875,-7.15625 z"
       id="path6933-9"
       inkscape:connector-curvature="0" />
    <path
       style="font-size:medium;font-style:normal;font-variant:normal;font-weight:normal;font-stretch:normal;text-indent:0;text-align:start;text-decoration:none;line-height:normal;letter-spacing:normal;word-spacing:normal;text-transform:none;direction:ltr;block-progression:tb;writing-mode:lr-tb;text-anchor:start;baseline-shift:baseline;color:#000000;fill:#ffffff;fill-opacity:1;stroke:none;stroke-width:1px;marker:none;visibility:visible;display:inline;overflow:visible;enable-background:accumulate;font-family:Sans;-inkscape-font-specification:Sans"
       d="m 471.93439,860.78409 -2.46944,3.99814 -8.58425,0.58796 -7.17314,20.14751 -7.68271,6.78116 0.70556,1.01913 7.17314,-3.84135 12.81757,-18.34442 22.30337,46.33142 0.74475,-0.66636 3.33179,0 -6.15401,10.58332 -0.0784,0.15679 0,7.05563 1.25432,0 0,-4.0374 9.40739,0 0,4.0765 1.25432,0 0,-4.0765 7.68271,0 0,4.0765 1.25432,0 0,-8.62343 -5.29166,-9.21141 4.03734,0 0,1.99908 2.66543,0 0,-7.36913 -13.24875,0 5.17407,-4.54691 10.34813,0.50957 -0.43117,-4.11574 -10.38733,-3.0574 -29.86848,-35.12094 2.27345,-3.68456 z m -3.25339,5.29166 -13.75832,19.75553 6.82036,-19.28516 z m 1.37191,0.11753 28.06539,33.08267 -11.64165,9.95622 -18.85398,-39.11908 z m -15.6398,20.42188 -1.37191,1.92068 -2.15586,1.17592 z m 44.48914,13.60153 0.94074,1.09753 9.99536,2.90061 0.19599,1.84228 -9.4074,-0.43117 -11.17128,9.79937 -2.43024,-5.05647 z m -4.6253,16.97251 3.25339,0 0,3.17499 -5.09567,0 z m 4.50771,0 2.43025,0 1.84228,3.17499 -4.27253,0 z m -7.05554,4.42931 5.80122,0 0,6.42839 -9.40739,0 z m 7.05554,0 4.97808,0 2.70463,4.6645 0,1.76389 -7.68271,0 z"
       id="path7042"
       inkscape:connector-curvature="0"
       sodipodi:nodetypes="ccccccccccccccccccccccccccccccccccccccccccccccccccccccccccccccccccccccccccccccc" />
    <path
       style="font-size:medium;font-style:normal;font-variant:normal;font-weight:normal;font-stretch:normal;text-indent:0;text-align:start;text-decoration:none;line-height:normal;letter-spacing:normal;word-spacing:normal;text-transform:none;direction:ltr;block-progression:tb;writing-mode:lr-tb;text-anchor:start;baseline-shift:baseline;color:#000000;fill:#ffffff;fill-opacity:1;stroke:none;stroke-width:1px;marker:none;visibility:visible;display:inline;overflow:visible;enable-background:accumulate;font-family:Sans;-inkscape-font-specification:Sans"
       d="m 302.28266,876.32332 -33.70983,21.20578 -4.07654,-0.35272 -0.11753,1.21506 3.84135,0.35284 7.29073,13.44468 -5.64443,0 0,3.76295 4.46851,0 0,16.46307 3.76296,0 0,-19.44208 28.88848,-29.35884 16.73732,10.26973 0.66636,-1.05833 -17.40368,-10.62251 z m -0.27438,1.6463 3.95894,4.89968 -28.88854,29.31966 -7.56511,-13.67986 0,-0.11791 z"
       id="path7058"
       inkscape:connector-curvature="0"
       sodipodi:nodetypes="ccccccccccccccccccccccc" />
    <path
       style="font-size:medium;font-style:normal;font-variant:normal;font-weight:normal;font-stretch:normal;text-indent:0;text-align:start;text-decoration:none;line-height:normal;letter-spacing:normal;word-spacing:normal;text-transform:none;direction:ltr;block-progression:tb;writing-mode:lr-tb;text-anchor:start;baseline-shift:baseline;color:#000000;fill:#ffffff;fill-opacity:1;stroke:none;stroke-width:1px;marker:none;visibility:visible;display:inline;overflow:visible;enable-background:accumulate;font-family:Sans;-inkscape-font-specification:Sans"
       d="m 391.22387,869.61656 -9.83856,5.37005 0.23518,21.67621 -4.93888,3.95895 1.09753,1.4111 5.64444,-4.39011 5.95801,-19.28516 10.19135,42.80358 0,4.07654 4.23333,0 -5.48765,9.52505 0,5.80121 1.25432,0 0,-3.7629 19.12837,0 0,5.0172 1.25432,0 0,-7.36909 -4.50771,-9.21147 4.6645,0 0,-7.68271 -15.32622,0 7.8395,-6.03641 6.50678,4.46851 0.70556,-1.01913 -9.76018,-6.66357 z m -0.58796,1.72469 18.46202,37.8255 2.43024,1.60716 -8.19227,6.31073 -13.64073,-41.39247 -7.21233,18.6972 0.15679,-18.6972 z m 14.58147,53.89647 8.78023,0 4.7037,9.56418 0,0.74478 -19.12837,0 0,-0.5095 z"
       id="path7066"
       inkscape:connector-curvature="0"
       sodipodi:nodetypes="cccccccccccccccccccccccccccccccccccccccccc" />
    <rect
       style="color:#000000;fill:#ffffff;fill-opacity:1;fill-rule:nonzero;stroke:none;stroke-width:3;marker:none;visibility:visible;display:inline;overflow:visible;enable-background:accumulate"
       id="rect7157"
       width="743.54053"
       height="115.37616"
       x="0.33578646"
       y="939.93219" />
    <rect
       style="color:#000000;fill:#ffffff;fill-opacity:1;fill-rule:nonzero;stroke:none;stroke-width:3;marker:none;visibility:visible;display:inline;overflow:visible;enable-background:accumulate"
       id="rect7176"
       width="70.397713"
       height="33"
       x="230"
       y="925.30835" />
    <rect
       style="color:#000000;fill:#ffffff;fill-opacity:1;fill-rule:nonzero;stroke:none;stroke-width:3;marker:none;visibility:visible;display:inline;overflow:visible;enable-background:accumulate"
       id="rect7178"
       width="101.82338"
       height="20.85965"
       x="467.04404"
       y="932.15405" />
  </g>
</svg>
