<?xml version="1.0" encoding="UTF-8" standalone="no"?>
<!-- Created with Inkscape (http://www.inkscape.org/) -->

<svg
   xmlns:dc="http://purl.org/dc/elements/1.1/"
   xmlns:cc="http://creativecommons.org/ns#"
   xmlns:rdf="http://www.w3.org/1999/02/22-rdf-syntax-ns#"
   xmlns:svg="http://www.w3.org/2000/svg"
   xmlns="http://www.w3.org/2000/svg"
   xmlns:sodipodi="http://sodipodi.sourceforge.net/DTD/sodipodi-0.dtd"
   xmlns:inkscape="http://www.inkscape.org/namespaces/inkscape"
   width="1024px"
   height="768px"
   id="svg6019"
   version="1.1"
   inkscape:version="0.48.4 r9939"
   sodipodi:docname="New document 2">
  <sodipodi:namedview
     id="base"
     pagecolor="#ffffff"
     bordercolor="#666666"
     borderopacity="1.0"
     inkscape:pageopacity="0.0"
     inkscape:pageshadow="2"
     inkscape:zoom="0.5"
     inkscape:cx="590.36529"
     inkscape:cy="505.60461"
     inkscape:current-layer="layer1"
     inkscape:document-units="px"
     showgrid="false"
     inkscape:window-width="1600"
     inkscape:window-height="834"
     inkscape:window-x="0"
     inkscape:window-y="27"
     inkscape:window-maximized="1" />
  <defs
     id="defs6021" />
  <metadata
     id="metadata6024">
    <rdf:RDF>
      <cc:Work
         rdf:about="">
        <dc:format>image/svg+xml</dc:format>
        <dc:type
           rdf:resource="http://purl.org/dc/dcmitype/StillImage" />
        <dc:title></dc:title>
      </cc:Work>
    </rdf:RDF>
  </metadata>
  <g
     inkscape:groupmode="layer"
     inkscape:label="Layer 1"
     id="layer1">
    <g
       style="fill:#2e3436;fill-opacity:1"
       transform="matrix(2.0751239,0,0,2.0751239,-300.15304,-694.25706)"
       id="g19089">
      <g
         transform="matrix(0.4314921,0,0,0.4314921,175.04372,357.6187)"
         style="fill:#2e3436;fill-opacity:1;fill-rule:nonzero;stroke:none"
         id="g15043">
        <g
           style="fill:#2e3436;fill-opacity:1"
           id="g15045">
          <path
             d="M 86.068,0 C 61.466,0 56.851,35.041 70.691,35.041 84.529,35.041 110.671,0 86.068,0 z"
             style="fill:#2e3436;fill-opacity:1"
             id="path15047"
             inkscape:connector-curvature="0" />
          <path
             d="M 45.217,30.699 C 52.586,31.149 60.671,2.577 46.821,4.374 32.976,6.171 37.845,30.249 45.217,30.699 z"
             style="fill:#2e3436;fill-opacity:1"
             id="path15049"
             inkscape:connector-curvature="0" />
          <path
             d="M 11.445,48.453 C 16.686,46.146 12.12,23.581 3.208,29.735 -5.7,35.89 6.204,50.759 11.445,48.453 z"
             style="fill:#2e3436;fill-opacity:1"
             id="path15051"
             inkscape:connector-curvature="0" />
          <path
             d="M 26.212,36.642 C 32.451,35.37 32.793,9.778 21.667,14.369 10.539,18.961 19.978,37.916 26.212,36.642 l 0,0 z"
             style="fill:#2e3436;fill-opacity:1"
             id="path15053"
             inkscape:connector-curvature="0" />
          <path
             d="m 58.791,93.913 c 1.107,8.454 -6.202,12.629 -13.36,7.179 C 22.644,83.743 83.16,75.088 79.171,51.386 75.86,31.712 15.495,37.769 8.621,68.553 3.968,89.374 27.774,118.26 52.614,118.26 c 12.22,0 26.315,-11.034 28.952,-25.012 C 83.58,82.589 57.867,86.86 58.791,93.913 l 0,0 z"
             style="fill:#2e3436;fill-opacity:1"
             id="path15055"
             inkscape:connector-curvature="0" />
        </g>
      </g>
      <path
         d="m 266.40838,375.4882 c -2.67361,0.0725 -4.78454,1.03335 -6.3381,2.87533 -1.60665,1.91806 -2.41528,4.56691 -2.41528,7.94652 0,3.369 0.80863,6.01076 2.41528,7.92883 1.61549,1.91806 3.83436,2.87533 6.66368,2.87533 2.8364,0 5.06058,-0.95727 6.66899,-2.87533 1.60665,-1.91807 2.40997,-4.55983 2.40997,-7.92883 0,-3.37961 -0.80332,-6.02846 -2.40997,-7.94652 -1.60841,-1.91806 -3.83259,-2.87533 -6.66899,-2.87533 -0.1097,0 -0.21764,-0.004 -0.32558,0 z m 0.19818,3.89275 c 0.0425,-0.002 0.0849,0 0.1274,0 1.39431,0 2.47543,0.60338 3.23983,1.81367 0.7644,1.21029 1.15013,2.9178 1.15013,5.11543 0,2.18702 -0.38573,3.88214 -1.15013,5.09243 -0.7644,1.21029 -1.84552,1.81898 -3.23983,1.81898 -1.38724,0 -2.45951,-0.60869 -3.22391,-1.81898 -0.76439,-1.21029 -1.15013,-2.90541 -1.15013,-5.09243 0,-2.19763 0.38574,-3.90514 1.15013,-5.11543 0.74139,-1.17136 1.77121,-1.77651 3.09651,-1.81367 z"
         style="font-size:148.69999695px;font-style:normal;font-variant:normal;font-weight:bold;font-stretch:normal;text-align:start;line-height:125%;text-anchor:start;fill:#2e3436;fill-opacity:1;stroke:none;font-family:Bitstream Vera Sans"
         id="path15059-5"
         inkscape:connector-curvature="0" />
      <path
         d="m 236.20947,395.15899 c -2.35511,1.97822 -5.85859,1.95522 -7.31837,1.95522 -2.93903,0 -5.2676,-0.96788 -6.98572,-2.90364 -1.71812,-1.94638 -2.57629,-4.58106 -2.57629,-7.90406 0,-3.36015 0.87409,-6.00368 2.62406,-7.93059 1.74997,-1.92692 4.14579,-2.88949 7.18744,-2.88949 1.17313,0 2.29673,0.13094 3.369,0.39105 1.07935,0.2601 2.09678,0.64761 3.04874,1.15897 l -1.22445,3.62026 c -0.53614,-0.29372 -1.14837,-0.58214 -1.71813,-0.78562 -0.96964,-0.32558 -1.94283,-0.48837 -2.91956,-0.48837 -1.81367,0 -3.21152,0.59984 -4.19709,1.79951 -0.97673,1.1926 -1.46509,2.90011 -1.46509,5.12428 0,2.20649 0.47244,3.91045 1.41732,5.11013 0.94664,1.20144 2.3675,1.80128 4.03076,1.80128 1.69158,0 2.73908,-0.42466 3.29645,-0.8741 l 0,-3.60787 -3.66272,0 0,-3.6008 7.09365,0"
         style="font-size:148.69999695px;font-style:normal;font-variant:normal;font-weight:bold;font-stretch:normal;text-align:start;line-height:125%;text-anchor:start;fill:#2e3436;fill-opacity:1;stroke:none;font-family:Bitstream Vera Sans"
         id="path15061-6"
         inkscape:connector-curvature="0" />
      <path
         d="m 239.32014,375.86332 2.87179,0 9.07365,12.52759 0,-12.52759 3.87152,0 0,20.84569 -2.87179,0 -9.07188,-12.52758 0,12.52758 -3.87329,0 0,-20.84569"
         style="font-size:148.69999695px;font-style:normal;font-variant:normal;font-weight:bold;font-stretch:normal;text-align:start;line-height:125%;text-anchor:start;fill:#2e3436;fill-opacity:1;stroke:none;font-family:Bitstream Vera Sans"
         id="path15063-5"
         inkscape:connector-curvature="0" />
      <path
         d="m 278.80149,375.86332 5.79136,0 4.02014,13.01418 4.04316,-13.01418 4.89602,0 2.21179,20.84569 -4.30326,0 -1.32707,-13.03541 -4.06616,13.09734 -2.88594,0 -4.06616,-13.5397 -1.32708,13.47777 -4.31388,0 2.2118,-20.84569"
         style="font-size:148.69999695px;font-style:normal;font-variant:normal;font-weight:bold;font-stretch:normal;text-align:start;line-height:125%;text-anchor:start;fill:#2e3436;fill-opacity:1;stroke:none;font-family:Bitstream Vera Sans"
         id="path15065-9"
         inkscape:connector-curvature="0" />
      <path
         d="m 302.86931,375.86332 12.28163,0 0,4.06262 -7.73064,0 0,4.32449 5.94352,0 0,3.62026 -5.94352,0 0,4.7757 7.99076,0 0,4.06262 -12.54175,0 0,-20.84569"
         style="font-size:148.69999695px;font-style:normal;font-variant:normal;font-weight:bold;font-stretch:normal;text-align:start;line-height:125%;text-anchor:start;fill:#2e3436;fill-opacity:1;stroke:none;font-family:Bitstream Vera Sans"
         id="path15067-9"
         inkscape:connector-curvature="0" />
    </g>
    <rect
       y="84.934853"
       x="401.63663"
       height="43.840622"
       width="599.62653"
       id="rect6066"
       style="color:#000000;fill:#2e3436;fill-opacity:1;fill-rule:nonzero;stroke:none;stroke-width:2;marker:none;visibility:visible;display:inline;overflow:visible;enable-background:accumulate" />
    <flowRoot
       style="font-size:40px;font-style:normal;font-weight:normal;line-height:125%;letter-spacing:0px;word-spacing:0px;fill:#000000;fill-opacity:1;stroke:none;font-family:Sans"
       id="flowRoot6836"
       xml:space="preserve"
       transform="translate(-22.627417,-2.8284271)"><flowRegion
         id="flowRegion6838"><rect
           y="198.07193"
           x="94.752312"
           height="309.71277"
           width="434.16357"
           id="rect6840" /></flowRegion><flowPara
         id="flowPara6842"
         style="font-size:20px">What we do is important.</flowPara><flowPara
         id="flowPara6844"
         style="font-size:16px" /><flowPara
         id="flowPara6870"
         style="font-size:16px">Lorem ipsum dolor sit amet, consectetuer adipiscing elit. In consectetuer, lorem eu lobortis egestas, velit odio imperdiet eros, sit amet sagittis nunc mi ac neque. Etiam sodales orci nec ligula. Maecenas convallis dui. Nulla blandit justo a metus. Nam laoreet dui sed magna. In commodo, dolor quis fermentum ullamcorper, urna massa volutpat massa, vitae mattis purus arcu nec nulla. Donec at diam a tellus dignissim vestibulum.</flowPara><flowPara
         id="flowPara6872"
         style="font-size:16px" /></flowRoot>    <rect
       style="color:#000000;fill:#4e9a06;fill-opacity:1;fill-rule:nonzero;stroke:none;stroke-width:2;marker:none;visibility:visible;display:inline;overflow:visible;enable-background:accumulate"
       id="rect6898"
       width="920.65302"
       height="114.5513"
       x="76.367531"
       y="452.63037" />
    <flowRoot
       style="font-size:40px;font-style:normal;font-weight:normal;line-height:125%;letter-spacing:0px;word-spacing:0px;fill:#eeeeec;fill-opacity:1;stroke:none;font-family:Sans"
       id="flowRoot6836-9"
       xml:space="preserve"
       transform="translate(31.938747,293.12348)"><flowRegion
         id="flowRegion6838-4"><rect
           y="198.07193"
           x="94.752312"
           height="52.325901"
           width="393.1514"
           id="rect6840-9"
           style="fill:#eeeeec" /></flowRegion><flowPara
         id="flowPara6872-1"
         style="font-size:20px;fill:#eeeeec">How can I help?</flowPara></flowRoot>    <rect
       style="color:#000000;fill:#d3d7cf;fill-opacity:1;fill-rule:nonzero;stroke:none;stroke-width:2;marker:none;visibility:visible;display:inline;overflow:visible;enable-background:accumulate"
       id="rect6942"
       width="431.33514"
       height="268.70056"
       x="90.509666"
       y="601.1228" />
    <flowRoot
       style="font-size:40px;font-style:normal;font-weight:normal;line-height:125%;letter-spacing:0px;word-spacing:0px;fill:#000000;fill-opacity:1;stroke:none;font-family:Sans"
       id="flowRoot6836-0"
       xml:space="preserve"
       transform="translate(456.20282,400.6037)"><flowRegion
         id="flowRegion6838-8"><rect
           y="198.07193"
           x="94.752312"
           height="309.71277"
           width="434.16357"
           id="rect6840-8" /></flowRegion><flowPara
         id="flowPara6842-0"
         style="font-size:20px">GNOME 3</flowPara><flowPara
         id="flowPara6844-5"
         style="font-size:16px" /><flowPara
         id="flowPara6870-0"
         style="font-size:16px">Lorem ipsum dolor sit amet, consectetuer adipiscing elit. In consectetuer, lorem eu lobortis egestas, velit odio imperdiet eros, sit amet sagittis nunc mi ac neque. Etiam sodales orci nec ligula. Maecenas convallis dui. Nulla blandit justo a metus. Nam laoreet dui sed magna. In commodo, dolor quis fermentum ullamcorper, urna massa volutpat massa, vitae mattis purus arcu nec nulla. Donec at diam a tellus dignissim vestibulum.</flowPara><flowPara
         id="flowPara6872-0"
         style="font-size:16px" /></flowRoot>    <rect
       style="color:#000000;fill:#d3d7cf;fill-opacity:1;fill-rule:nonzero;stroke:none;stroke-width:2;marker:none;visibility:visible;display:inline;overflow:visible;enable-background:accumulate"
       id="rect6942-8"
       width="386.38779"
       height="240.70056"
       x="560.3324"
       y="185.64972" />
  </g>
</svg>
