<?xml version="1.0" encoding="UTF-8" standalone="no"?>
<svg xmlns:svg="http://www.w3.org/2000/svg" xmlns="http://www.w3.org/2000/svg" xmlns:xlink="http://www.w3.org/1999/xlink" version="1.0" width="3390.47" height="395.219" id="svg2">
  <defs id="defs59"/>
  <path d="M 751.955,11.813 C 752.813,12.242 750.881,22.118 690.549,24.265 C 686.892,24.393 651.009,26.802 647.179,26.842 C 607.458,27.271 560.438,33.713 526.945,41.656 C 487.197,51.083 440.848,65.703 415.083,82.451 C 404.475,89.347 386.796,101.948 382.233,114.227 C 376.007,130.974 393.613,145.358 404.777,147.077 C 421.39,149.633 441.297,146.62 458.239,144.5 C 468.545,143.211 484.098,139.87 493.236,139.132 C 501.18,138.488 507.593,139.293 515.78,140.635 C 530.165,142.998 546.698,155.235 552.709,168.976 C 559.089,183.563 557.191,199.639 550.992,212.991 C 545.409,225.014 532.218,236.728 519.86,245.196 C 508.265,253.141 491.204,260.924 476.918,267.097 C 445.142,280.838 410.36,290.285 376.718,301.019 C 363.267,305.314 330.919,312.83 303.866,318.196 C 286.805,321.578 268.85,324.759 251.908,327.215 C 222.278,331.508 191.737,335.077 162.376,337.95 C 147.178,339.426 122.635,341.533 122.4,334.421 C 122.4,334.421 86.4,344.818 86.4,344.818 C 86.923,351.047 103.834,355.01 127.459,354.605 C 221.084,353.077 523.32,341.562 589.952,252.057 C 597.091,242.438 604.551,219.088 604.8,193.619 L 576,128.819 C 558.027,115.084 529.574,101.893 481.292,115.667 C 456.997,122.605 407.453,143.189 398.685,133.831 C 390.411,125.007 397.281,111.179 460.922,81.476 C 477.012,73.988 539.276,47.821 650.265,37.341 L 651.929,37.307 C 721.815,33.275 747.507,31.214 761.858,26.659 C 766.474,25.196 781.423,16.89 780.1,9.718 C 779.531,6.483 772.332,2.142 765.768,3.223 C 749.485,5.792 741.533,5.283 626.165,4.424 C 598.91,4.229 595.448,3.478 528.635,4.336 C 468.102,5.081 398.068,11.152 338.4,42.419 C 338.4,42.419 282.619,78.547 282.619,78.547 C 269.098,92.953 257.812,110.263 253.773,127.251 C 249.734,144.239 253.572,130.573 253.572,130.573 C 253.572,130.573 288,190.421 288,190.421 C 289.074,190.421 294.722,192.327 300.001,194.741 C 307.819,198.311 320.337,202.418 328.772,204.189 C 341.01,206.766 353.678,210.631 363.125,206.121 C 368.163,203.721 379.013,193.669 378.369,187.658 C 377.658,181.035 366.359,179.183 359.475,177.781 C 347.881,175.419 329.785,176.64 315.031,174.346 C 298.781,171.829 285.678,165.945 279.819,152.661 C 274.384,140.322 278.317,125.607 286.476,112.726 C 293.661,101.373 301.685,92.094 312.24,83.74 C 332.851,67.422 359.107,53.548 385.455,42.517 C 413.151,30.923 446.645,20.832 479.065,17.826 C 511.15,14.854 545.624,13.961 578.474,14.82 C 606.225,15.545 656.841,14.82 661.564,15.25 C 666.288,15.679 750.31,10.996 751.955,11.815" id="path1" style="fill:#b11107"/>
  <path d="M 264.00001,128.819 L 0,128.819 L 0,193.619 C 0,193.619 300.00001,193.619 300.00001,193.619 M 344.00001,42.419 L 72,42.419 L 72,78.419 C 72,78.419 312.00001,78.547 312.00001,78.547 M 560.00001,128.819 L 560.00001,193.619 C 560.00001,193.619 892.8,193.619 892.8,193.619 L 892.8,128.819 L 560.00001,128.819 z M 604.8,244.02 L 856.8,244.02 L 856.8,280.02 L 604.8,280.02 L 604.8,244.02 z" id="path2" style="fill:#b11107"/>
  <path d="M 122.4,28.019 L 86.4,28.019 L 86.4,344.818 C 86.4,344.818 122.4,344.819 122.4,344.819 M 619.2,121.619 L 619.2,395.219 L 648,395.219 L 648,121.619 L 619.2,121.619 z" id="path3" style="fill:#b11107"/>
  <path d="M 1076.45,33.923 L 1076.45,79.87 L 1152.45,79.87 L 1152.45,109.07 L 1076.45,109.07 L 1076.45,198.387 L 1037.8,198.387 L 1037.8,3.436 L 1180.79,3.436 L 1180.79,33.923 L 1076.45,33.923" id="F" style="fill:#b11107"/>
  <path d="M 1341.92,198.387 L 1283.97,118.087 C 1278.13,118.087 1269.96,117.792 1259.47,117.195 L 1259.47,198.387 L 1219.54,198.387 L 1219.54,3.791 C 1221.71,3.791 1230.06,3.448 1244.6,2.757 C 1259.13,2.067 1270.86,1.718 1279.76,1.718 C 1334.94,1.718 1362.531,20.894 1362.531,59.232 C 1362.531,70.798 1358.72,81.319 1351.101,90.807 C 1343.471,100.293 1333.871,106.969 1322.281,110.821 L 1386.581,198.387 L 1341.921,198.387 L 1341.92,198.387 z M 1259.47,33.803 L 1259.47,88.15 C 1266.62,88.646 1272.08,88.887 1275.85,88.887 C 1292.03,88.887 1303.86,86.862 1311.35,82.803 C 1318.84,78.75 1322.59,70.779 1322.59,58.896 C 1322.59,49.302 1318.57,42.592 1310.53,38.781 C 1302.49,34.97 1289.84,33.065 1272.57,33.065 C 1268.4,33.065 1264.03,33.313 1259.469,33.803" id="R" style="fill:#b11107"/>
  <path d="M 1448.22,33.923 L 1448.22,79.87 L 1518.22,79.87 L 1518.22,109.07 L 1448.22,109.07 L 1448.22,167.898 L 1546.56,167.898 L 1546.56,198.387 L 1409.58,198.387 L 1409.58,3.436 L 1546.56,3.436 L 1546.56,33.923 L 1448.22,33.923" id="E" style="fill:#b11107"/>
  <use transform="translate(177.2765,0)" id="E2" xlink:href="#E"/>
  <path d="M 1849.89,187.732 L 1864.13,156.734 C 1879.36,166.47 1894.35,171.334 1909.09,171.334 C 1931.74,171.334 1943.07,164.209 1943.07,149.944 C 1943.07,143.315 1940.389,136.975 1935.049,130.936 C 1929.699,124.898 1918.699,118.114 1902.029,110.586 C 1885.348,103.058 1874.119,96.872 1868.339,92.015 C 1862.56,87.157 1858.099,81.386 1854.989,74.697 C 1851.869,68.007 1850.319,60.647 1850.319,52.623 C 1850.319,37.46 1856.459,24.899 1868.768,14.942 C 1881.07,4.985 1896.85,0 1916.12,0 C 1941.22,0 1959.64,4.213 1971.41,12.634 L 1959.71,42.512 C 1946.2,33.923 1931.93,29.629 1916.939,29.629 C 1908.06,29.629 1901.179,31.736 1896.29,35.943 C 1891.41,40.156 1888.96,45.625 1888.96,52.354 C 1888.96,63.546 1902.72,75.187 1930.24,87.264 C 1944.73,93.691 1955.189,99.569 1961.599,104.903 C 1968.019,110.237 1972.9,116.484 1976.259,123.65 C 1979.61,130.815 1981.289,138.793 1981.289,147.582 C 1981.289,163.391 1974.349,176.387 1960.469,186.559 C 1946.599,196.736 1927.999,201.822 1904.689,201.822 C 1884.439,201.822 1866.179,197.128 1849.889,187.733" id="S" style="fill:#b11107"/>
  <path d="M 2009.68,99.354 C 2009.68,71.578 2018.151,48.074 2035.111,28.844 C 2052.061,9.614 2074.72,0 2103.09,0 C 2134.33,0 2158.2,8.703 2174.71,26.1 C 2191.21,43.504 2199.481,67.92 2199.481,99.354 C 2199.481,130.795 2190.85,155.728 2173.6,174.165 C 2156.35,192.604 2131.861,201.822 2100.13,201.822 C 2070.97,201.822 2048.6,192.678 2033.03,174.387 C 2017.469,156.098 2009.679,131.091 2009.679,99.354 L 2009.68,99.354 z M 2049.62,99.495 C 2049.62,122.254 2053.92,139.92 2062.54,152.488 C 2071.15,165.054 2083.67,171.334 2100.13,171.334 C 2119.44,171.334 2134.16,165.201 2144.311,152.93 C 2154.46,140.666 2159.55,122.851 2159.55,99.495 C 2159.55,53.777 2140.72,30.917 2103.09,30.917 C 2085.861,30.917 2072.63,37.104 2063.43,49.476 C 2054.22,61.848 2049.62,78.521 2049.62,99.495" id="O" style="fill:#b11107"/>
  <use transform="translate(1200.1914,0)" id="F2" xlink:href="#F"/>
  <path d="M 2512.8,33.923 L 2512.8,198.387 L 2474.151,198.387 L 2474.151,33.923 L 2405.02,33.923 L 2405.02,3.436 L 2584.94,3.436 L 2584.94,33.923 L 2512.8,33.923" id="T" style="fill:#b11107"/>
  <path d="M 2794,200.964 L 2778.11,200.964 L 2730.87,78.152 L 2684.93,200.964 L 2669.04,200.964 L 2597.76,3.436 L 2638.12,3.436 L 2678.7,121.094 L 2722.71,3.436 L 2739.46,3.436 L 2783.481,121.094 L 2824.061,3.436 L 2864.42,3.436 L 2794,200.964" id="W" style="fill:#b11107"/>
  <path d="M 2997.39,198.387 L 2981.6,158.881 L 2907.281,158.881 L 2892.18,198.387 L 2849.241,198.387 L 2935.981,0.858 L 2952.731,0.858 L 3039.901,198.387 L 2997.39,198.387 L 2997.39,198.387 z M 2944.36,60.546 L 2918.23,132.258 L 2970.379,132.258 L 2944.359,60.546" id="A" style="fill:#b11107"/>
  <use transform="translate(1843.822,0)" id="R2" xlink:href="#R"/>
  <use transform="translate(1843.8215,0)" id="E3" xlink:href="#E"/>
  <path d="M 1105.12,288.797 L 1105.12,319.93 L 1152.79,319.93 L 1152.79,333.025 L 1105.12,333.025 L 1105.12,387.347 L 1086.66,387.347 L 1086.66,274.841 L 1170.4,274.841 L 1170.4,288.797 L 1105.12,288.797" id="f" style="fill:#b11107"/>
  <path d="M 1314.58,330.127 C 1314.58,313.783 1319.51,300.148 1329.35,289.172 C 1339.19,278.194 1352.47,272.693 1369.2,272.693 C 1388.02,272.693 1402.44,277.765 1412.47,287.856 C 1422.5,297.975 1427.52,312.064 1427.52,330.127 C 1427.52,348.592 1422.49,363.084 1412.43,373.578 C 1402.37,384.045 1387.96,389.277 1369.201,389.277 C 1352.101,389.277 1338.721,383.75 1329.071,372.691 C 1319.411,361.608 1314.581,347.437 1314.581,330.127 L 1314.58,330.127 z M 1334.12,330.101 C 1334.12,343.063 1337.18,353.879 1343.3,362.548 C 1349.43,371.217 1358.06,375.537 1369.2,375.537 C 1381.82,375.537 1391.44,371.564 1398.05,363.595 C 1404.67,355.65 1407.98,344.485 1407.98,330.101 C 1407.98,301.008 1395.06,286.435 1369.2,286.435 C 1357.76,286.435 1349.05,290.354 1343.08,298.164 C 1337.11,305.945 1334.12,316.602 1334.12,330.101" id="o" style="fill:#b11107"/>
  <path d="M 1583.65,274.841 L 1602.12,274.841 L 1602.12,351.92 C 1602.12,358.79 1604.74,364.426 1610,368.882 C 1615.24,373.336 1622.19,375.537 1630.84,375.537 C 1639.98,375.537 1647.18,373.391 1652.43,369.096 C 1657.68,364.828 1660.3,358.979 1660.3,351.545 L 1660.3,274.841 L 1678.77,274.841 L 1678.77,353.182 C 1678.77,364.536 1674.5,373.391 1665.95,379.752 C 1657.41,386.111 1645.77,389.277 1631.03,389.277 C 1615.85,389.277 1604.16,386.166 1595.96,379.938 C 1587.75,373.712 1583.65,364.749 1583.65,353.074 L 1583.65,274.841" id="u" style="fill:#b11107"/>
  <path d="M 1929.07,388.849 L 1859.08,306.618 L 1859.08,387.347 L 1841.47,387.347 L 1841.47,274.841 L 1848.991,274.841 L 1917.051,352.563 L 1917.051,274.841 L 1934.652,274.841 L 1934.652,388.849 L 1929.072,388.849" id="n" style="fill:#b11107"/>
  <path d="M 2124.68,387.347 L 2097.33,387.347 L 2097.33,274.733 C 2114.769,274.251 2125.92,273.982 2130.8,273.982 C 2149.77,273.982 2164.79,278.759 2175.85,288.312 C 2186.92,297.868 2192.451,310.617 2192.451,326.558 C 2192.451,367.082 2169.85,387.346 2124.68,387.346 L 2124.68,387.347 z M 2115.8,288.555 L 2115.8,372.881 C 2119.93,373.362 2125.071,373.605 2131.19,373.605 C 2144.17,373.605 2154.361,369.581 2161.791,361.501 C 2169.19,353.424 2172.911,342.204 2172.911,327.846 C 2172.911,301.116 2158.471,287.723 2129.611,287.723 C 2127.881,287.723 2123.27,288.018 2115.8,288.555" id="d" style="fill:#b11107"/>
  <path d="M 2425.55,387.347 L 2416.21,363.728 L 2365.78,363.728 L 2355.769,387.347 L 2334.939,387.347 L 2390.12,273.338 L 2395.06,273.338 L 2446.16,387.347 L 2425.55,387.347 z M 2391.73,302.753 L 2370.689,352.35 L 2410.939,352.35 L 2391.73,302.753" id="a" style="fill:#b11107"/>
  <path d="M 2564.49,288.797 L 2564.49,274.841 L 2671.2,274.841 L 2671.2,288.797" id="t" style="fill:#b11107"/>
  <path d="M 2607.645,274.841 L 2626.115,274.841 L 2626.115,387.347 L 2607.645,387.347 L 2607.645,274.841 z" id="i" style="fill:#b11107"/>
  <use transform="translate(217.2195,0)" id="i2" xlink:href="#i"/>
  <use transform="translate(1688.118,0)" id="o2" xlink:href="#o"/>
  <use transform="translate(1430.3098,0)" id="n2" xlink:href="#n"/>
</svg>