<?xml version="1.0" encoding="UTF-8"?>
<!-- Generator: Adobe Illustrator 17.0.0, SVG Export Plug-In . SVG Version: 6.00 Build 0)  -->
<!DOCTYPE svg PUBLIC "-//W3C//DTD SVG 1.1//EN" "http://www.w3.org/Graphics/SVG/1.1/DTD/svg11.dtd">
<svg version="1.1" id="svg2" xmlns:cc="http://creativecommons.org/ns#" xmlns:dc="http://purl.org/dc/elements/1.1/" xmlns:rdf="http://www.w3.org/1999/02/22-rdf-syntax-ns#" xmlns:inkscape="http://www.inkscape.org/namespaces/inkscape" xmlns:sodipodi="http://sodipodi.sourceforge.net/DTD/sodipodi-0.dtd" xmlns:svg="http://www.w3.org/2000/svg" sodipodi:docname="New document 1" inkscape:version="0.48.2 r9819" xmlns="http://www.w3.org/2000/svg" xmlns:xlink="http://www.w3.org/1999/xlink" x="0px" y="0px" width="501px" height="123.336px" viewBox="0 0 501 123.336" enable-background="new 0 0 501 123.336" xml:space="preserve">
<sodipodi:namedview borderopacity="1.0" fit-margin-left="0" fit-margin-top="0" inkscape:cx="259.05111" inkscape:zoom="1" bordercolor="#666666" inkscape:cy="61.508223" showgrid="false" id="base" pagecolor="#ffffff" inkscape:window-maximized="1" inkscape:window-y="-8" inkscape:window-x="-8" inkscape:window-height="838" inkscape:window-width="1600" inkscape:current-layer="layer1" inkscape:document-units="px" inkscape:pageopacity="0.0" fit-margin-right="0" fit-margin-bottom="0" inkscape:pageshadow="2">
	</sodipodi:namedview>
<g id="layer1" transform="translate(-128.83333,-494.69552)" inkscape:label="Layer 1" inkscape:groupmode="layer">
	<g id="g3828" transform="translate(-9,0)">
		<path id="path3007" inkscape:connector-curvature="0" fill="#333333" d="M467.667,499.029l1,8.333v86.667l0.667,5v3l1.333,2.333    l1.667,2.667l2.667,2.667l4.667,3.667l5,1.333l2.667,0.667l7,0.333l4.333-1.333l5.333-1.333l-4-13l-4,0.667h-0.667l-2-1.667    l-1.667-2.667l-0.333-7.667v-85.333L490,494.696L467.667,499.029z"/>
		<path id="path3007-1" inkscape:connector-curvature="0" fill="#333333" d="M510.833,499.529l1,8.333v86.667l0.667,5v3l1.333,2.333    l1.667,2.667l2.667,2.667l4.667,3.667l5,1.333l2.667,0.667l7,0.333l4.333-1.333l5.333-1.333l-4-13l-4,0.667H538.5l-2-1.667    l-1.667-2.667l-0.333-7.667v-85.333l-1.333-8.667L510.833,499.529z"/>
		<path id="path3795" inkscape:connector-curvature="0" fill="#333333" d="M584,530.375l-4.656,0.5l-8,2.313l-6.344,2.5    l-5.344,2.188l-6.813,3.5l8.656,15.813l2.656-1.813l6.188-3.688l6.813-2.813l3.688-1l5.656-0.344l3.5,0.344l2.656,1.313    l1.844,2.844l0.5,3.656l0.344,7.188l-9.5-0.188l-8,0.5l-6.344,1.344l-6.344,2.344l-4.5,2.813l-4.156,3.344l-2.844,3.656    L552,580.375l-0.656,2.813L551,589.531v6.344l0.5,2.813l1.844,4.844l3,4l2.813,3.344l4.688,2.813l5.313,1.844l2.844,1l9.344,0.156    l7.5-0.656l3.813-1.156l2.688-2l4.656-5l2.656,3.156l2.344,2.156l1.844,1.5l4.656,3.344l12.156-13.344l-0.5-0.313l-3.5-2.688    l-2.313-2.656l-0.844-1.344l-0.844-2.813v-34.5v-13.5l-1.813-4.5l-3.188-4.688l-3.156-2.656l-4-2.5l-3.5-1.344l-6-0.813H584z     M587,577.688l7.844,0.188v17.656l-3.5,3l-2.688,1.656l-2.656,0.5l-2.844,0.188l-3-0.688l-2.5-0.813l-2-2.344l-1.813-3.344    l-0.188-2.813l0.188-4.188l1.313-2.5l1.844-2.813l2.156-1.844l3.344-1.5L587,577.688z"/>
		<g id="g3817">
			
				<path id="path3806" sodipodi:rx="12.583333" sodipodi:cy="512.4455" sodipodi:cx="438.75" sodipodi:ry="12.583333" sodipodi:type="arc" fill="#333333" d="     M450.167,509.279c0,7.318-5.932,13.25-13.25,13.25c-7.318,0-13.25-5.932-13.25-13.25c0-7.318,5.932-13.25,13.25-13.25     C444.234,496.029,450.167,501.961,450.167,509.279z"/>
			<path id="path3808" inkscape:connector-curvature="0" fill="#333333" d="M426,613.029v-80l21.667-3v84L426,613.029z"/>
		</g>
		<path id="path3810" inkscape:connector-curvature="0" fill="#333333" d="M349.333,532.029v15h36L346,600.362v14h60.667l5.667-16    H375l35.333-52v-14.667L349.333,532.029z"/>
		<path id="path3821" inkscape:connector-curvature="0" fill="#333333" d="M298.5,530.375l-9.156,0.5l-8.688,4.156l-6.813,5.156    l-5.5,8.188l-3.844,8l-2,10.5v9l1.344,8.5l1.813,6.813l3.844,8.5l1.656,2.688l6.688,6.656l7.156,3.844l6.344,2.156l14.313,0.156    l7.844-1.813l7-3.344l6.344-5.344l5-7.313l3.156-8.688l1.5-7.156l-0.344-18.656l-1.5-7.188L331,547.875l-5-6.844l-6.5-5.344    l-5-2.656l-7.156-2.344L298.5,530.375z M297,546.375h6.156l2.344,1.5l3.156,2.5l2.188,3.656l1.156,4.5l0.844,5.5v19.156    L312,587.875l-1.344,4.813l-2.156,3.344l-2.844,2.5l-4.156,1h-3.844l-4.313-2l-2.844-2.344l-1.344-2.156l-1.813-5.656    l-0.844-4.688v-20.656l1.5-6l3-5.5l2.656-2.844L297,546.375z"/>
		<path id="path3826" inkscape:connector-curvature="0" fill="#333333" d="M141.333,613.362h20.333v-58.667l3.167-2.5l3-1.833    l4.5-1.833l2.833-0.667l3,0.167l2.333,1l1.667,1.833l1.167,2.333v1.5v58.833H203.5v-58.5l2.667-2.167l3.5-2.333l3.167-1.5l2.667-1    l2.167-0.167l1.833,0.167l1.833,0.5l1.5,0.833l1.167,1.333l0.667,2.333l0.333,3v57.333h20.833v-66l-0.667-4.167l-1.5-3.667    l-3.333-3.667l-4.5-2.833L231,530.862l-3.5-0.5H218l-4.5,1.333l-4.5,1.667l-3.5,2.833l-5,3.833l-7.5-7l-5.167-2.333l-6.167-0.667    h-6.333l-3,0.667l-4.167,1.667l-3.333,1.833l-3.5,3.333l-0.833,0.5l-1.167-5L158,530.195l-20.167,5.333l2.667,6.5l0.833,6V613.362    z"/>
	</g>
</g>
</svg>