<?xml version="1.0" encoding="UTF-8" standalone="no"?>
<!-- Created with Inkscape (http://www.inkscape.org/) -->

<svg
   xmlns:dc="http://purl.org/dc/elements/1.1/"
   xmlns:cc="http://creativecommons.org/ns#"
   xmlns:rdf="http://www.w3.org/1999/02/22-rdf-syntax-ns#"
   xmlns:svg="http://www.w3.org/2000/svg"
   xmlns="http://www.w3.org/2000/svg"
   xmlns:sodipodi="http://sodipodi.sourceforge.net/DTD/sodipodi-0.dtd"
   xmlns:inkscape="http://www.inkscape.org/namespaces/inkscape"
   width="253.22202"
   height="294.00201"
   id="svg2"
   version="1.1"
   inkscape:version="0.48.4 r9939"
   sodipodi:docname="New document 2">
  <defs
     id="defs4" />
  <sodipodi:namedview
     id="base"
     pagecolor="#ffffff"
     bordercolor="#666666"
     borderopacity="1.0"
     inkscape:pageopacity="0.0"
     inkscape:pageshadow="2"
     inkscape:zoom="1.979899"
     inkscape:cx="87.837187"
     inkscape:cy="181.15751"
     inkscape:document-units="px"
     inkscape:current-layer="layer1"
     showgrid="false"
     inkscape:snap-nodes="false"
     inkscape:snap-bbox="true"
     inkscape:window-width="1920"
     inkscape:window-height="1014"
     inkscape:window-x="0"
     inkscape:window-y="27"
     inkscape:window-maximized="1"
     inkscape:snap-global="false"
     showborder="true"
     inkscape:showpageshadow="false"
     fit-margin-top="20"
     fit-margin-left="20"
     fit-margin-right="20"
     fit-margin-bottom="20">
    <inkscape:grid
       type="xygrid"
       id="grid6061"
       empspacing="5"
       visible="true"
       enabled="true"
       snapvisiblegridlinesonly="true"
       originx="-42.347063px"
       originy="-731.57046px" />
  </sodipodi:namedview>
  <metadata
     id="metadata7">
    <rdf:RDF>
      <cc:Work
         rdf:about="">
        <dc:format>image/svg+xml</dc:format>
        <dc:type
           rdf:resource="http://purl.org/dc/dcmitype/StillImage" />
        <dc:title></dc:title>
      </cc:Work>
    </rdf:RDF>
  </metadata>
  <g
     inkscape:label="Layer 1"
     inkscape:groupmode="layer"
     id="layer1"
     transform="translate(-42.347063,-26.789714)">
    <g
       id="g2999"
       transform="matrix(0.18371683,0,0,0.18371683,-28.211039,339.47188)"
       style="fill:#018094;fill-opacity:1">
      <path
         sodipodi:nodetypes="ccscccccccccsccccccsscccccsscc"
         inkscape:connector-curvature="0"
         id="rect3259-2-8-6-8-7-5"
         d="m 492.92532,-1593.1157 0,691.87968 c 0,205.43851 147.09503,358.99492 270.02018,469.00594 123.81428,110.80648 246.192,185.32142 246.192,185.32142 l 0.5674,0.34287 0.4489,0.33672 45.3988,25.5229 18.0693,10.16392 17.956,-10.50242 48.222,-28.34617 0.3365,-0.22453 0.2245,-0.22452 c 0,0 119.9342,-73.78534 243.3688,-185.32142 122.3846,-110.58579 269.7939,-262.83784 269.7939,-466.07036 l 0,-691.87913 -1160.60141,0 z m 72.27648,178.2234 1016.0489,0 0,545.21909 c 0,167.57006 -126.9803,304.91328 -245.9655,412.42775 -117.0317,105.75041 -230.452,176.00421 -232.1885,177.07722 l -30.2655,17.84376 -26.0877,-14.68117 c 0,0 -0.5549,-0.33057 -0.5675,-0.34301 l -0.5673,-0.33671 c -3.1594,-1.93406 -117.89154,-72.42797 -234.44625,-176.73681 -119.0656,-106.55666 -245.96626,-244.92383 -245.96626,-415.25103 l 0,-545.21989 z"
         style="font-size:medium;font-style:normal;font-variant:normal;font-weight:normal;font-stretch:normal;text-indent:0;text-align:start;text-decoration:none;line-height:normal;letter-spacing:normal;word-spacing:normal;text-transform:none;direction:ltr;block-progression:tb;writing-mode:lr-tb;text-anchor:start;baseline-shift:baseline;color:#bebebe;fill:#018094;fill-opacity:1;stroke:none;stroke-width:20;marker:none;visibility:visible;display:inline;overflow:visible;enable-background:accumulate;font-family:Sans;-inkscape-font-specification:Sans" />
      <g
         id="g15043-8-8-2"
         style="fill:#018094;fill-opacity:1;fill-rule:nonzero;stroke:none"
         transform="matrix(6.1081001,0,0,6.1081001,788.93729,-1274.5787)">
        <g
           id="g15045-2-6"
           style="fill:#018094;fill-opacity:1">
          <path
             id="path15047-5-5-6"
             style="fill:#018094;fill-opacity:1"
             d="M 86.068,0 C 61.466,0 56.851,35.041 70.691,35.041 84.529,35.041 110.671,0 86.068,0 z"
             inkscape:connector-curvature="0" />
          <path
             id="path15049-5-9-0"
             style="fill:#018094;fill-opacity:1"
             d="M 45.217,30.699 C 52.586,31.149 60.671,2.577 46.821,4.374 32.976,6.171 37.845,30.249 45.217,30.699 z"
             inkscape:connector-curvature="0" />
          <path
             id="path15051-1-5-9"
             style="fill:#018094;fill-opacity:1"
             d="M 11.445,48.453 C 16.686,46.146 12.12,23.581 3.208,29.735 -5.7,35.89 6.204,50.759 11.445,48.453 z"
             inkscape:connector-curvature="0" />
          <path
             id="path15053-6-9-5"
             style="fill:#018094;fill-opacity:1"
             d="M 26.212,36.642 C 32.451,35.37 32.793,9.778 21.667,14.369 10.539,18.961 19.978,37.916 26.212,36.642 l 0,0 z"
             inkscape:connector-curvature="0" />
          <path
             id="path15055-2-1-5"
             style="fill:#018094;fill-opacity:1"
             d="m 58.791,93.913 c 1.107,8.454 -6.202,12.629 -13.36,7.179 C 22.644,83.743 83.16,75.088 79.171,51.386 75.86,31.712 15.495,37.769 8.621,68.553 3.968,89.374 27.774,118.26 52.614,118.26 c 12.22,0 26.315,-11.034 28.952,-25.012 C 83.58,82.589 57.867,86.86 58.791,93.913 l 0,0 z"
             inkscape:connector-curvature="0" />
        </g>
      </g>
    </g>
  </g>
</svg>
