<?xml version="1.0" encoding="UTF-8" standalone="no"?>
<!-- Created with Inkscape (http://www.inkscape.org/) -->

<svg
   xmlns:dc="http://purl.org/dc/elements/1.1/"
   xmlns:cc="http://creativecommons.org/ns#"
   xmlns:rdf="http://www.w3.org/1999/02/22-rdf-syntax-ns#"
   xmlns:svg="http://www.w3.org/2000/svg"
   xmlns="http://www.w3.org/2000/svg"
   xmlns:xlink="http://www.w3.org/1999/xlink"
   xmlns:sodipodi="http://sodipodi.sourceforge.net/DTD/sodipodi-0.dtd"
   xmlns:inkscape="http://www.inkscape.org/namespaces/inkscape"
   width="860"
   height="1230"
   id="svg2"
   version="1.1"
   inkscape:version="0.49 r12500 custom"
   sodipodi:docname="brand-visuals-web4-foundation.svg"
   inkscape:export-filename="/home/aday/checkout/gnome-marketing/brand/brand-visuals.png"
   inkscape:export-xdpi="90"
   inkscape:export-ydpi="90">
  <sodipodi:namedview
     id="base"
     pagecolor="#3f3f3f"
     bordercolor="#666666"
     borderopacity="1.0"
     inkscape:pageopacity="1"
     inkscape:pageshadow="2"
     inkscape:zoom="1"
     inkscape:cx="417.5"
     inkscape:cy="884"
     inkscape:document-units="px"
     inkscape:current-layer="layer1"
     showgrid="false"
     inkscape:snap-nodes="false"
     inkscape:snap-bbox="true"
     showguides="false"
     inkscape:guide-bbox="true"
     inkscape:window-width="1600"
     inkscape:window-height="840"
     inkscape:window-x="0"
     inkscape:window-y="27"
     inkscape:window-maximized="1"
     inkscape:bbox-paths="true"
     fit-margin-top="0"
     fit-margin-left="0"
     fit-margin-right="0"
     fit-margin-bottom="0"
     showborder="true"
     inkscape:showpageshadow="false">
    <inkscape:grid
       originy="-1006px"
       originx="-119.99997px"
       snapvisiblegridlinesonly="true"
       enabled="true"
       visible="true"
       empspacing="5"
       id="grid2985"
       type="xygrid" />
    <sodipodi:guide
       id="guide3961"
       position="-939.99997,973.99999"
       orientation="1,0" />
    <sodipodi:guide
       id="guide3963"
       position="-279.99997,913.99999"
       orientation="1,0" />
    <sodipodi:guide
       id="guide5072"
       position="-629.99997,543.99999"
       orientation="1,0" />
    <sodipodi:guide
       id="guide5074"
       position="-589.99997,543.99999"
       orientation="1,0" />
  </sodipodi:namedview>
  <defs
     id="defs4">
    <linearGradient
       id="linearGradient8766"
       inkscape:collect="always">
      <stop
         id="stop8768"
         offset="0"
         style="stop-color:#25c0db;stop-opacity:0.38" />
      <stop
         style="stop-color:#25c0db;stop-opacity:0.878"
         offset="0.48682252"
         id="stop8776" />
      <stop
         id="stop8770"
         offset="1"
         style="stop-color:#25c0db;stop-opacity:1" />
    </linearGradient>
    <radialGradient
       gradientUnits="userSpaceOnUse"
       gradientTransform="matrix(2.0395349,0,0,0.29552568,-573.82329,733.94434)"
       r="430"
       fy="1502.2205"
       fx="552"
       cy="1502.2205"
       cx="552"
       id="radialGradient8774"
       xlink:href="#linearGradient8766"
       inkscape:collect="always" />
  </defs>
  <metadata
     id="metadata7">
    <rdf:RDF>
      <cc:Work
         rdf:about="">
        <dc:format>image/svg+xml</dc:format>
        <dc:type
           rdf:resource="http://purl.org/dc/dcmitype/StillImage" />
        <dc:title />
      </cc:Work>
    </rdf:RDF>
  </metadata>
  <g
     transform="translate(-119.99997,1183.6379)"
     id="layer1"
     inkscape:groupmode="layer"
     inkscape:label="Layer 1">
    <rect
       style="fill:#ffffff;fill-opacity:1;stroke:none"
       id="rect3929"
       width="860"
       height="996"
       x="119.99997"
       y="-1183.6379" />
    <image
       sodipodi:absref="/home/garrett/Source/gnome-marketing-mine/brand/web/./assets/bg-stripes.png"
       xlink:href="./assets/bg-stripes.png"
       width="860"
       height="483"
       id="image7235"
       x="119.99997"
       y="-1183.6379" />
    <rect
       transform="scale(1,-1)"
       y="881.56683"
       x="119.99997"
       height="302.07108"
       width="860"
       id="rect656"
       style="fill:url(#radialGradient8774);fill-opacity:1;stroke:none" />
    <flowRoot
       style="font-size:14px;font-style:normal;font-variant:normal;font-weight:normal;font-stretch:normal;text-align:end;line-height:125%;letter-spacing:0px;word-spacing:0px;text-anchor:end;fill:#000000;fill-opacity:1;stroke:none;font-family:Cantarell;-inkscape-font-specification:Cantarell"
       id="flowRoot9736"
       xml:space="preserve"><flowRegion
         id="flowRegion9738"><rect
           y="1967.2506"
           x="1166.019"
           height="19.445436"
           width="115.25841"
           id="rect9740" /></flowRegion><flowPara
         id="flowPara9742" /></flowRoot>    <g
       id="g3933"
       style="fill:#ffffff;fill-opacity:1"
       transform="matrix(1.6599852,0,0,1.6599852,672.66072,-1113.7877)">
      <g
         transform="matrix(0.30600455,0,0,0.30600455,-274.49603,-12.841017)"
         style="fill:#ffffff;fill-opacity:1;fill-rule:nonzero;stroke:none"
         id="g3935">
        <g
           style="fill:#ffffff;fill-opacity:1"
           id="g3937">
          <path
             d="M 86.068,0 C 61.466,0 56.851,35.041 70.691,35.041 84.529,35.041 110.671,0 86.068,0 Z"
             style="fill:#ffffff;fill-opacity:1"
             id="path3939"
             inkscape:connector-curvature="0" />
          <path
             d="M 45.217,30.699 C 52.586,31.149 60.671,2.577 46.821,4.374 32.976,6.171 37.845,30.249 45.217,30.699 Z"
             style="fill:#ffffff;fill-opacity:1"
             id="path3941"
             inkscape:connector-curvature="0" />
          <path
             d="M 11.445,48.453 C 16.686,46.146 12.12,23.581 3.208,29.735 -5.7,35.89 6.204,50.759 11.445,48.453 Z"
             style="fill:#ffffff;fill-opacity:1"
             id="path3943"
             inkscape:connector-curvature="0" />
          <path
             d="M 26.212,36.642 C 32.451,35.37 32.793,9.778 21.667,14.369 10.539,18.961 19.978,37.916 26.212,36.642 L 26.212,36.642 Z"
             style="fill:#ffffff;fill-opacity:1"
             id="path3945"
             inkscape:connector-curvature="0" />
          <path
             d="m 58.791,93.913 c 1.107,8.454 -6.202,12.629 -13.36,7.179 C 22.644,83.743 83.16,75.088 79.171,51.386 75.86,31.712 15.495,37.769 8.621,68.553 3.968,89.374 27.774,118.26 52.614,118.26 c 12.22,0 26.315,-11.034 28.952,-25.012 C 83.58,82.589 57.867,86.86 58.791,93.913 L 58.791,93.913 Z"
             style="fill:#ffffff;fill-opacity:1"
             id="path3947"
             inkscape:connector-curvature="0" />
        </g>
      </g>
      <path
         inkscape:connector-curvature="0"
         id="path3949"
         style="font-size:148.699646px;font-style:normal;font-variant:normal;font-weight:bold;font-stretch:normal;text-align:start;line-height:125%;writing-mode:lr-tb;text-anchor:start;fill:#ffffff;fill-opacity:1;stroke:none;font-family:Bitstream Vera Sans"
         d="m -209.70286,-0.16845843 c -1.89579,0.0510596 -3.39292,0.73241492 -4.49392,2.03912183 -1.14017,1.3598621 -1.71364,3.2388031 -1.71364,5.635041 0,2.3896249 0.5735,4.2634206 1.71364,5.6232576 1.14573,1.359863 2.71879,2.039122 4.72527,2.039122 2.01202,0 3.58903,-0.679259 4.7292,-2.039122 1.14014,-1.359837 1.70974,-3.2336327 1.70972,-5.6232576 -1e-5,-2.3962379 -0.56958,-4.2751789 -1.70972,-5.635041 -1.14017,-1.35982447 -2.71719,-2.03910928 -4.7292,-2.03912183 C -209.54991,-0.16845843 -209.6258,-0.17046643 -209.70286,-0.16845843 z m 0.14117,2.76065723 c 0.0303,-0.00125 0.0594,0 0.0902,0 0.98924,1.26e-5 1.75577,0.4280776 2.29794,1.2862153 0.54213,0.8581629 0.81563,2.0694012 0.81565,3.6272903 0,1.5512761 -0.27355,2.7534666 -0.81565,3.6115926 -0.54214,0.858175 -1.30872,1.29013 -2.29794,1.29013 -0.98368,0 -1.74402,-0.431955 -2.28616,-1.29013 -0.54214,-0.858126 -0.81563,-2.0603165 -0.81565,-3.6115926 0,-1.5578765 0.27353,-2.7691274 0.81565,-3.6272903 C -211.23247,3.0470924 -210.50126,2.6181992 -209.56167,2.5921988 Z" />
      <path
         inkscape:connector-curvature="0"
         id="path3951"
         style="font-size:148.699646px;font-style:normal;font-variant:normal;font-weight:bold;font-stretch:normal;text-align:start;line-height:125%;writing-mode:lr-tb;text-anchor:start;fill:#ffffff;fill-opacity:1;stroke:none;font-family:Bitstream Vera Sans"
         d="m -231.11891,13.781883 c -1.6699,1.402376 -4.15438,1.386251 -5.1894,1.386251 -2.08471,0 -3.73626,-0.686525 -4.95465,-2.059575 -1.21841,-1.379651 -1.8276,-3.2477755 -1.8276,-5.6044106 0,-2.3830244 0.62037,-4.2577491 1.86113,-5.6242117 1.24077,-1.36642495 2.93981,-2.04964997 5.09718,-2.04966252 0.83275,1.255e-5 1.62918,0.09243182 2.3893,0.27724528 0.76569,0.18483855 1.48667,0.45879613 2.16295,0.82184766 l -0.86848,2.56751158 c -0.38019,-0.2081284 -0.81549,-0.4132453 -1.21902,-0.5574519 -0.68745,-0.2310294 -1.37769,-0.3465504 -2.07072,-0.3465629 -1.28549,1.25e-5 -2.27754,0.4257937 -2.97615,1.277331 -0.69305,0.8449619 -1.03956,2.0562755 -1.03956,3.6339535 0,1.5644896 0.33533,2.7725156 1.00603,3.6240656 0.67067,0.85155 1.67858,1.277318 2.85876,1.277318 1.19898,0 1.9416,-0.302216 2.33766,-0.620658 l 0,-2.557812 -2.59754,0 0,-2.554662 5.03011,0" />
      <path
         inkscape:connector-curvature="0"
         id="path3953"
         style="font-size:148.699646px;font-style:normal;font-variant:normal;font-weight:bold;font-stretch:normal;text-align:start;line-height:125%;writing-mode:lr-tb;text-anchor:start;fill:#ffffff;fill-opacity:1;stroke:none;font-family:Bitstream Vera Sans"
         d="m -228.91271,0.09761874 2.03635,0 6.43453,8.88457296 0,-8.88457296 2.74626,0 0,14.78335726 -2.03634,0 -6.43452,-8.8845731 0,8.8845731 -2.74628,0 0,-14.78335726" />
      <path
         inkscape:connector-curvature="0"
         id="path3955"
         style="font-size:148.699646px;font-style:normal;font-variant:normal;font-weight:bold;font-stretch:normal;text-align:start;line-height:125%;writing-mode:lr-tb;text-anchor:start;fill:#ffffff;fill-opacity:1;stroke:none;font-family:Bitstream Vera Sans"
         d="m -200.91396,0.09761874 4.10794,0 2.85039,9.22911556 2.86715,-9.22911556 3.47213,0 1.56856,14.78335726 -3.05161,0 -0.94113,-9.2441863 -2.88392,9.2885203 -2.04559,0 -2.88393,-9.6022314 -0.94113,9.5578974 -3.05999,0 1.56855,-14.78335726" />
      <path
         inkscape:connector-curvature="0"
         id="path3957"
         style="font-size:148.699646px;font-style:normal;font-variant:normal;font-weight:bold;font-stretch:normal;text-align:start;line-height:125%;writing-mode:lr-tb;text-anchor:start;fill:#ffffff;fill-opacity:1;stroke:none;font-family:Bitstream Vera Sans"
         d="m -183.84511,0.09761874 8.71046,0 0,2.88142346 -5.48283,0 0,3.0664 4.21473,0 0,2.5676999 -4.21473,0 0,3.3864229 5.66727,0 0,2.881411 -8.8949,0 0,-14.78335726" />
    </g>
    <rect
       y="-225.63791"
       x="120"
       height="272"
       width="860"
       id="rect4840"
       style="fill:#d3d7cf;fill-opacity:1;stroke:none" />
    <g
       transform="translate(1040,34)"
       id="g5670">
      <g
         style="fill:#d3d7cf;fill-opacity:1"
         id="g4842"
         transform="translate(0,125.63822)">
        <g
           transform="matrix(0.9139477,0,0,0.9139477,-1041.2599,-1089.2027)"
           id="g3123"
           style="fill:#d3d7cf;fill-opacity:1">
          <path
             inkscape:connector-curvature="0"
             sodipodi:nodetypes="cccccccccccccccccccccccccccccccc"
             id="path3125"
             d="m 132.76777,766.19312 c -0.65852,-1.7926 2.49963,6.3178 2.01802,-12.57116 0.21148,11.82215 3.575,6.28084 1.94223,11.99228 l 5.73539,-11.39599 c -1.94212,10.27065 -1.92745,12.15991 -0.57873,10.67757 1.87816,-6.02595 3.38131,-4.19413 3.24795,-10.5608 l 1.77027,10.04729 c 1.89189,-2.96131 2.02027,4.57967 3.91216,-8.88513 l 2.1419,9.25675 3.02702,-9.67567 c 0.56748,6.05405 -1.96077,3.10811 3.29054,9.16216 -0.17022,-5.30125 2.21962,-2.16734 2.02858,-9.50676 l 1.1419,9.5 4.1554,-8.49999 1.63514,8.41215 c 3.17962,-4.99417 2.80503,-3.51768 3.28378,-9.41216 l 0.87838,9.38514 2.17567,-12.14189 c -1.1303,9.54676 0.7833,0.70613 2.48649,12.14189 3.69217,-4.40291 4.76696,-3.59495 5.43243,-9.00676 l 0.37162,9 2.81757,-12.1081 c -1.15394,13.11712 1.08559,-1.01577 1.72297,12.10134 1.51351,-2.28116 2.27703,-3.83323 3.79054,-8.99324 l 0.49324,8.10811 2.66892,-10.21621 c -0.56215,8.88048 0.83634,3.82398 2.76352,10.3581 2.42786,-2.8382 4.37807,-1.29238 5.80405,-10.14189 -0.0702,6.95114 -1.0316,7.90106 -0.16215,12.97297 l 0,4 -69.9948,0 0,-4 L 132.76777,766.19312 Z"
             style="fill:#d3d7cf;fill-opacity:1;fill-rule:evenodd;stroke:none" />
          <path
             inkscape:connector-curvature="0"
             style="fill:#d3d7cf;fill-opacity:1;fill-rule:evenodd;stroke:none"
             d="m 269.76777,766.19312 c -0.65852,-1.7926 2.49963,6.3178 2.01802,-12.57116 0.21148,11.82215 3.575,6.28084 1.94223,11.99228 l 5.73539,-11.39599 c -1.94212,10.27065 -1.92745,12.15991 -0.57873,10.67757 1.87816,-6.02595 3.38131,-4.19413 3.24795,-10.5608 l 1.77027,10.04729 c 1.89189,-2.96131 2.02027,4.57967 3.91216,-8.88513 l 2.1419,9.25675 3.02702,-9.67567 c 0.56748,6.05405 -1.96077,3.10811 3.29054,9.16216 -0.17022,-5.30125 2.21962,-2.16734 2.02858,-9.50676 l 1.1419,9.5 4.1554,-8.49999 1.63514,8.41215 c 3.17962,-4.99417 2.80503,-3.51768 3.28378,-9.41216 l 0.87838,9.38514 2.17567,-12.14189 c -1.1303,9.54676 0.7833,0.70613 2.48649,12.14189 3.69217,-4.40291 4.76696,-3.59495 5.43243,-9.00676 l 0.37162,9 2.81757,-12.1081 c -1.15394,13.11712 1.08559,-1.01577 1.72297,12.10134 1.51351,-2.28116 2.27703,-3.83323 3.79054,-8.99324 l 0.49324,8.10811 2.66892,-10.21621 c -0.56215,8.88048 0.83634,3.82398 2.76352,10.3581 2.42786,-2.8382 4.37807,-1.29238 5.80405,-10.14189 -0.0702,6.95114 -1.0316,7.90106 -0.16215,12.97297 l 0,4 -69.9948,0 0,-4 L 269.76777,766.19312 Z"
             id="path3127"
             sodipodi:nodetypes="cccccccccccccccccccccccccccccccc" />
          <path
             inkscape:connector-curvature="0"
             style="fill:#d3d7cf;fill-opacity:1;fill-rule:evenodd;stroke:none"
             d="m 365.76777,766.19312 c -0.65852,-1.7926 2.49963,6.3178 2.01802,-12.57116 0.21148,11.82215 3.575,6.28084 1.94223,11.99228 l 5.73539,-11.39599 c -1.94212,10.27065 -1.92745,12.15991 -0.57873,10.67757 1.87816,-6.02595 3.38131,-4.19413 3.24795,-10.5608 l 1.77027,10.04729 c 1.89189,-2.96131 2.02027,4.57967 3.91216,-8.88513 l 2.1419,9.25675 3.02702,-9.67567 c 0.56748,6.05405 -1.96077,3.10811 3.29054,9.16216 -0.17022,-5.30125 2.21962,-2.16734 2.02858,-9.50676 l 1.1419,9.5 4.1554,-8.49999 1.63514,8.41215 c 3.17962,-4.99417 2.80503,-3.51768 3.28378,-9.41216 l 0.87838,9.38514 2.17567,-12.14189 c -1.1303,9.54676 0.7833,0.70613 2.48649,12.14189 3.69217,-4.40291 4.76696,-3.59495 5.43243,-9.00676 l 0.37162,9 2.81757,-12.1081 c -1.15394,13.11712 1.08559,-1.01577 1.72297,12.10134 1.51351,-2.28116 2.27703,-3.83323 3.79054,-8.99324 l 0.49324,8.10811 2.66892,-10.21621 c -0.56215,8.88048 0.83634,3.82398 2.76352,10.3581 2.42786,-2.8382 4.37807,-1.29238 5.80405,-10.14189 -0.0702,6.95114 -1.0316,7.90106 -0.16215,12.97297 l 0,4 -69.9948,0 0,-4 L 365.76777,766.19312 Z"
             id="path3129"
             sodipodi:nodetypes="cccccccccccccccccccccccccccccccc" />
          <path
             inkscape:connector-curvature="0"
             sodipodi:nodetypes="cccccccccccccccccccccccccccccccc"
             id="path3131"
             d="m 500.76777,766.19312 c -0.65852,-1.7926 2.49963,6.3178 2.01802,-12.57116 0.21148,11.82215 3.575,6.28084 1.94223,11.99228 l 5.73539,-11.39599 c -1.94212,10.27065 -1.92745,12.15991 -0.57873,10.67757 1.87816,-6.02595 3.38131,-4.19413 3.24795,-10.5608 l 1.77027,10.04729 c 1.89189,-2.96131 2.02027,4.57967 3.91216,-8.88513 l 2.1419,9.25675 3.02702,-9.67567 c 0.56748,6.05405 -1.96077,3.10811 3.29054,9.16216 -0.17022,-5.30125 2.21962,-2.16734 2.02858,-9.50676 l 1.1419,9.5 4.1554,-8.49999 1.63514,8.41215 c 3.17962,-4.99417 2.80503,-3.51768 3.28378,-9.41216 l 0.87838,9.38514 2.17567,-12.14189 c -1.1303,9.54676 0.7833,0.70613 2.48649,12.14189 3.69217,-4.40291 4.76696,-3.59495 5.43243,-9.00676 l 0.37162,9 2.81757,-12.1081 c -1.15394,13.11712 1.08559,-1.01577 1.72297,12.10134 1.51351,-2.28116 2.27703,-3.83323 3.79054,-8.99324 l 0.49324,8.10811 2.66892,-10.21621 c -0.56215,8.88048 0.83634,3.82398 2.76352,10.3581 2.42786,-2.8382 4.37807,-1.29238 5.80405,-10.14189 -0.0702,6.95114 -1.0316,7.90106 -0.16215,12.97297 l 0,4 -69.9948,0 0,-4 L 500.76777,766.19312 Z"
             style="fill:#d3d7cf;fill-opacity:1;fill-rule:evenodd;stroke:none" />
          <path
             inkscape:connector-curvature="0"
             sodipodi:nodetypes="cccccccccccccccccccccccccccccccc"
             id="path3133"
             d="m 569.76777,766.19312 c -0.65852,-1.7926 2.49963,6.3178 2.01802,-12.57116 0.21148,11.82215 3.575,6.28084 1.94223,11.99228 l 5.73539,-11.39599 c -1.94212,10.27065 -1.92745,12.15991 -0.57873,10.67757 1.87816,-6.02595 3.38131,-4.19413 3.24795,-10.5608 l 1.77027,10.04729 c 1.89189,-2.96131 2.02027,4.57967 3.91216,-8.88513 l 2.1419,9.25675 3.02702,-9.67567 c 0.56748,6.05405 -1.96077,3.10811 3.29054,9.16216 -0.17022,-5.30125 2.21962,-2.16734 2.02858,-9.50676 l 1.1419,9.5 4.1554,-8.49999 1.63514,8.41215 c 3.17962,-4.99417 2.80503,-3.51768 3.28378,-9.41216 l 0.87838,9.38514 2.17567,-12.14189 c -1.1303,9.54676 0.7833,0.70613 2.48649,12.14189 3.69217,-4.40291 4.76696,-3.59495 5.43243,-9.00676 l 0.37162,9 2.81757,-12.1081 c -1.15394,13.11712 1.08559,-1.01577 1.72297,12.10134 1.51351,-2.28116 2.27703,-3.83323 3.79054,-8.99324 l 0.49324,8.10811 2.66892,-10.21621 c -0.56215,8.88048 0.83634,3.82398 2.76352,10.3581 2.42786,-2.8382 4.37807,-1.29238 5.80405,-10.14189 -0.0702,6.95114 -1.0316,7.90106 -0.16215,12.97297 l 0,4 -69.9948,0 0,-4 L 569.76777,766.19312 Z"
             style="fill:#d3d7cf;fill-opacity:1;fill-rule:evenodd;stroke:none" />
          <path
             inkscape:connector-curvature="0"
             sodipodi:nodetypes="cccccccccccsscccccccccccccccccccccc"
             id="path3135"
             d="m 429.5,767.25026 c 2.35925,-5.93554 6.38872,-16.47213 5.90711,-30.36901 1.27214,9.73819 1.18591,24.63756 -0.44686,28.83955 l 3.98539,-7.64848 c -1.94212,7.55627 -1.67745,9.31408 -0.32873,8.2235 3.87816,-4.06552 3.88131,-10.81068 2.74795,-15.3108 l 2.27027,14.19729 c 1.89189,-2.17868 2.27027,-11.52888 4.16216,-21.43513 l 1.8919,21.15675 3.02702,-14.47567 c 0.56748,4.45405 -0.96077,10.90811 1.29054,14.86216 1.43253,-0.85358 1.74603,-11.28838 2.06402,-9.21633 0.94664,6.16827 2.0924,10.9114 2.66496,8.41933 0.24167,-1.05183 1.35948,-8.01433 1.3048,-9.55976 l 2.8919,8.3 3.4054,-20.59999 c -0.0664,9.38599 0.57233,23.7147 -0.37838,21.43513 l 1.51352,2.22702 c 3.17962,-3.67428 3.30503,-9.02551 3.78378,-13.36216 l 0.37838,11.13514 5.67567,-21.99189 c -1.1303,7.02369 -3.2167,13.57844 -1.51351,21.99189 3.69217,-3.23928 5.76696,-6.87521 6.43243,-10.85676 l -0.37838,10.3 7.56757,-29.5081 c -1.15394,9.65045 -3.66441,19.3009 -3.02703,28.95134 1.51351,-1.67828 3.02703,-5.94695 4.54054,-9.74324 l -0.75676,8.90811 4.91892,-17.81621 c -0.56215,6.53349 -3.51721,13.3604 1.51352,19.2081 2.42786,-2.0881 4.62807,-5.18118 6.05405,-11.69189 -0.0702,5.11405 -1.0316,11.69864 -0.16215,15.43011 l 0,2.94286 -73,0 0,-2.94286 L 429.5,767.25026 Z"
             style="fill:#d3d7cf;fill-opacity:1;fill-rule:evenodd;stroke:none" />
          <path
             inkscape:connector-curvature="0"
             sodipodi:nodetypes="cccccccccccccccccccccccccccccc"
             id="path3137"
             d="m 262.65401,758.40725 c 1.94212,7.34747 1.67745,9.05671 0.32873,7.99626 -3.87816,-3.95318 -3.88131,-10.51195 -2.74795,-14.88772 l -2.27027,13.80498 c -1.89189,-2.11847 -2.27027,-11.21031 -4.16216,-20.84282 l -1.8919,20.57213 -3.02702,-14.07567 c -0.56748,4.33098 0.71077,8.66196 -4.54054,12.99293 -2.83498,-1.64256 -3.97482,-5.30625 -3.78378,-10.55676 l -1.8919,10.01539 -3.4054,-20.03076 c 0.0664,9.12663 -0.57233,23.0594 0.37838,20.84282 l -1.51352,2.16548 c -3.17962,-3.57275 -3.30503,-8.77611 -3.78378,-12.99293 l -0.37838,10.82745 -5.67567,-21.3842 c 1.1303,6.82961 3.2167,13.20323 1.51351,21.3842 -3.69217,-3.14977 -5.76696,-6.68523 -6.43243,-10.55676 l 0.37838,10.01539 -7.56757,-28.69272 c 1.15394,9.38379 3.66441,18.76756 3.02703,28.15134 -1.51351,-1.63191 -3.02703,-5.78262 -4.54054,-9.47401 l 0.75676,8.66196 -4.91892,-17.32391 c 0.56215,6.35296 3.51721,12.99122 -1.51352,18.67734 -2.42786,-2.03041 -4.62807,-5.03801 -6.05405,-11.36882 0.0702,4.97274 1.0316,11.37538 0.16215,15.00374 l 0,2.86154 73,0 -9.44564,-11.78587 L 262.65401,758.40725 Z"
             style="fill:#d3d7cf;fill-opacity:1;fill-rule:evenodd;stroke:none" />
          <path
             inkscape:connector-curvature="0"
             style="fill:#d3d7cf;fill-opacity:1;fill-rule:evenodd;stroke:none"
             d="m 337.14466,766.86802 c 2.0486,-5.93554 5.5475,-16.47213 5.12931,-30.36901 1.10463,9.73819 1.02975,24.63756 -0.38803,28.83955 l 3.46063,-7.64848 c -1.6864,7.55627 -1.45658,9.31408 -0.28545,8.2235 3.36752,-4.06552 3.37025,-10.81068 2.38612,-15.3108 l 1.97134,14.19729 c 1.64278,-2.17868 1.97134,-11.52888 3.61412,-21.43513 l 1.64279,21.15675 2.62844,-14.47567 c 0.49276,4.45405 -0.61718,8.90811 3.94268,13.36216 2.46169,-1.68924 3.45144,-5.45704 3.28556,-10.85676 l 1.64278,10.3 2.95701,-20.59999 c -0.0576,9.38599 0.49697,23.7147 -0.32856,21.43513 l 1.31423,2.22702 -0.4616,4.27954 -32.51137,-0.007 L 337.14466,766.86851 Z"
             id="path3139"
             sodipodi:nodetypes="cccccccccccccccccccc" />
        </g>
        <g
           transform="matrix(0.9139477,0,0,0.9139477,-579.83126,-1090.4641)"
           id="g3141"
           style="fill:#d3d7cf;fill-opacity:1">
          <path
             inkscape:connector-curvature="0"
             sodipodi:nodetypes="cccccccccccccccccccccccccccccccc"
             id="path3143"
             d="m 132.76777,767.57327 c -0.65852,-1.7926 2.49963,6.3178 2.01802,-12.57116 0.21148,11.82215 3.575,6.28084 1.94223,11.99228 l 5.73539,-11.39599 c -1.94212,10.27065 -1.92745,12.15991 -0.57873,10.67757 1.87816,-6.02595 3.38131,-4.19413 3.24795,-10.5608 l 1.77027,10.04729 c 1.89189,-2.96131 2.02027,4.57967 3.91216,-8.88513 l 2.1419,9.25675 3.02702,-9.67567 c 0.56748,6.05405 -1.96077,3.10811 3.29054,9.16216 -0.17022,-5.30125 2.21962,-2.16734 2.02858,-9.50676 l 1.1419,9.5 4.1554,-8.49999 1.63514,8.41215 c 3.17962,-4.99417 2.80503,-3.51768 3.28378,-9.41216 l 0.87838,9.38514 2.17567,-12.14189 c -1.1303,9.54676 0.7833,0.70613 2.48649,12.14189 3.69217,-4.40291 4.76696,-3.59495 5.43243,-9.00676 l 0.37162,9 2.81757,-12.1081 c -1.15394,13.11712 1.08559,-1.01577 1.72297,12.10134 1.51351,-2.28116 2.27703,-3.83323 3.79054,-8.99324 l 0.49324,8.10811 2.66892,-10.21621 c -0.56215,8.88048 0.83634,3.82398 2.76352,10.3581 2.42786,-2.8382 4.37807,-1.29238 5.80405,-10.14189 -0.0702,6.95114 -1.0316,7.90106 -0.16215,12.97297 l 0,4 -69.9948,0 0,-4 L 132.76777,767.57327 Z"
             style="fill:#d3d7cf;fill-opacity:1;fill-rule:evenodd;stroke:none" />
          <path
             inkscape:connector-curvature="0"
             style="fill:#d3d7cf;fill-opacity:1;fill-rule:evenodd;stroke:none"
             d="m 269.76777,767.57327 c -0.65852,-1.7926 2.49963,6.3178 2.01802,-12.57116 0.21148,11.82215 3.575,6.28084 1.94223,11.99228 l 5.73539,-11.39599 c -1.94212,10.27065 -1.92745,12.15991 -0.57873,10.67757 1.87816,-6.02595 3.38131,-4.19413 3.24795,-10.5608 l 1.77027,10.04729 c 1.89189,-2.96131 2.02027,4.57967 3.91216,-8.88513 l 2.1419,9.25675 3.02702,-9.67567 c 0.56748,6.05405 -1.96077,3.10811 3.29054,9.16216 -0.17022,-5.30125 2.21962,-2.16734 2.02858,-9.50676 l 1.1419,9.5 4.1554,-8.49999 1.63514,8.41215 c 3.17962,-4.99417 2.80503,-3.51768 3.28378,-9.41216 l 0.87838,9.38514 2.17567,-12.14189 c -1.1303,9.54676 0.7833,0.70613 2.48649,12.14189 3.69217,-4.40291 4.76696,-3.59495 5.43243,-9.00676 l 0.37162,9 2.81757,-12.1081 c -1.15394,13.11712 1.08559,-1.01577 1.72297,12.10134 1.51351,-2.28116 2.27703,-3.83323 3.79054,-8.99324 l 0.49324,8.10811 2.66892,-10.21621 c -0.56215,8.88048 0.83634,3.82398 2.76352,10.3581 2.42786,-2.8382 4.37807,-1.29238 5.80405,-10.14189 -0.0702,6.95114 -1.0316,7.90106 -0.16215,12.97297 l 0,4 -69.9948,0 0,-4 L 269.76777,767.57327 Z"
             id="path3145"
             sodipodi:nodetypes="cccccccccccccccccccccccccccccccc" />
          <path
             inkscape:connector-curvature="0"
             style="fill:#d3d7cf;fill-opacity:1;fill-rule:evenodd;stroke:none"
             d="m 365.76777,767.57327 c -0.65852,-1.7926 2.49963,6.3178 2.01802,-12.57116 0.21148,11.82215 3.575,6.28084 1.94223,11.99228 l 5.73539,-11.39599 c -1.94212,10.27065 -1.92745,12.15991 -0.57873,10.67757 1.87816,-6.02595 3.38131,-4.19413 3.24795,-10.5608 l 1.77027,10.04729 c 1.89189,-2.96131 2.02027,4.57967 3.91216,-8.88513 l 2.1419,9.25675 3.02702,-9.67567 c 0.56748,6.05405 -1.96077,3.10811 3.29054,9.16216 -0.17022,-5.30125 2.21962,-2.16734 2.02858,-9.50676 l 1.1419,9.5 4.1554,-8.49999 1.63514,8.41215 c 3.17962,-4.99417 2.80503,-3.51768 3.28378,-9.41216 l 0.87838,9.38514 2.17567,-12.14189 c -1.1303,9.54676 0.7833,0.70613 2.48649,12.14189 3.69217,-4.40291 4.76696,-3.59495 5.43243,-9.00676 l 0.37162,9 2.81757,-12.1081 c -1.15394,13.11712 1.08559,-1.01577 1.72297,12.10134 1.51351,-2.28116 2.27703,-3.83323 3.79054,-8.99324 l 0.49324,8.10811 2.66892,-10.21621 c -0.56215,8.88048 0.83634,3.82398 2.76352,10.3581 2.42786,-2.8382 4.37807,-1.29238 5.80405,-10.14189 -0.0702,6.95114 -1.0316,7.90106 -0.16215,12.97297 l 0,4 -69.9948,0 0,-4 L 365.76777,767.57327 Z"
             id="path3147"
             sodipodi:nodetypes="cccccccccccccccccccccccccccccccc" />
          <path
             inkscape:connector-curvature="0"
             sodipodi:nodetypes="cccccccccccsscccccccccccccccccccccc"
             id="path3149"
             d="m 429.5,768.63375 c 2.35925,-5.95166 6.38872,-16.51688 5.90711,-30.4515 1.27214,9.76464 1.18591,24.70448 -0.44686,28.91788 l 3.98539,-7.66925 c -1.94212,7.57679 -1.67745,9.33938 -0.32873,8.24584 3.87816,-4.07657 3.88131,-10.84005 2.74795,-15.35239 l 2.27027,14.23585 c 1.89189,-2.1846 2.27027,-11.56019 4.16216,-21.49335 l 1.8919,21.21422 3.02702,-14.515 c 0.56748,4.46615 -0.96077,10.93774 1.29054,14.90254 1.43253,-0.8559 1.74603,-11.31905 2.06402,-9.24137 0.94664,6.18503 2.0924,10.94104 2.66496,8.4422 0.24167,-1.05469 1.35948,-8.0361 1.3048,-9.58573 l 2.8919,8.32255 3.4054,-20.65595 c -0.0664,9.41149 0.57233,23.77912 -0.37838,21.49336 l 1.51352,2.23307 c 3.17962,-3.68426 3.30503,-9.05003 3.78378,-13.39846 l 0.37838,11.16539 5.67567,-22.05163 c -1.1303,7.04277 -3.2167,13.61532 -1.51351,22.05163 3.69217,-3.24808 5.76696,-6.89389 6.43243,-10.88625 l -0.37838,10.32797 7.56757,-29.58825 c -1.15394,9.67666 -3.66441,19.35333 -3.02703,29.02998 1.51351,-1.68284 3.02703,-5.9631 4.54054,-9.7697 l -0.75676,8.9323 4.91892,-17.8646 c -0.56215,6.55124 -3.51721,13.39669 1.51352,19.26027 2.42786,-2.09377 4.62807,-5.19525 6.05405,-11.72364 -0.0702,5.12794 -1.0316,11.73041 -0.16215,15.47202 l 0,2.95085 -73,0 0,-2.95085 L 429.5,768.63375 Z"
             style="fill:#d3d7cf;fill-opacity:1;fill-rule:evenodd;stroke:none" />
          <path
             inkscape:connector-curvature="0"
             sodipodi:nodetypes="cccccccccccccccccccccccccccccc"
             id="path3151"
             d="m 262.65401,759.7874 c 1.94212,7.34747 1.67745,9.05671 0.32873,7.99626 -3.87816,-3.95318 -3.88131,-10.51195 -2.74795,-14.88772 l -2.27027,13.80498 c -1.89189,-2.11847 -2.27027,-11.21031 -4.16216,-20.84282 l -1.8919,20.57213 -3.02702,-14.07567 c -0.56748,4.33098 0.71077,8.66196 -4.54054,12.99293 -2.83498,-1.64256 -3.97482,-5.30625 -3.78378,-10.55676 l -1.8919,10.01539 -3.4054,-20.03076 c 0.0664,9.12663 -0.57233,23.0594 0.37838,20.84282 l -1.51352,2.16548 c -3.17962,-3.57275 -3.30503,-8.77611 -3.78378,-12.99293 l -0.37838,10.82745 -5.67567,-21.3842 c 1.1303,6.82961 3.2167,13.20323 1.51351,21.3842 -3.69217,-3.14977 -5.76696,-6.68523 -6.43243,-10.55676 l 0.37838,10.01539 -7.56757,-28.69272 c 1.15394,9.38379 3.66441,18.76756 3.02703,28.15134 -1.51351,-1.63191 -3.02703,-5.78262 -4.54054,-9.47401 l 0.75676,8.66196 -4.91892,-17.32391 c 0.56215,6.35296 3.51721,12.99122 -1.51352,18.67734 -2.42786,-2.03041 -4.62807,-5.03801 -6.05405,-11.36882 0.0702,4.97274 1.0316,11.37538 0.16215,15.00374 l 0,2.86154 73,0 L 262.65401,759.7874 262.65401,759.7874 Z"
             style="fill:#d3d7cf;fill-opacity:1;fill-rule:evenodd;stroke:none" />
          <path
             inkscape:connector-curvature="0"
             style="fill:#d3d7cf;fill-opacity:1;fill-rule:evenodd;stroke:none"
             d="m 337.14466,768.24817 c 2.0486,-5.93554 5.5475,-16.47213 5.12931,-30.36901 1.10463,9.73819 1.02975,24.63756 -0.38803,28.83955 l 3.46063,-7.64847 c -1.6864,7.55627 -1.45658,9.31408 -0.28545,8.22349 3.36752,-4.06552 3.37025,-10.81068 2.38612,-15.3108 l 1.97134,14.19729 c 1.64278,-2.17868 1.97134,-11.52888 3.61412,-21.43513 l 1.64279,21.15675 2.62844,-14.47567 c 0.49276,4.45405 -0.61718,8.90811 3.94268,13.36216 2.46169,-1.68924 3.45144,-5.45704 3.28556,-10.85676 l 1.64278,10.3 2.95701,-20.59999 c -0.0576,9.38599 0.49697,23.7147 -0.32856,21.43513 l 1.31423,2.22702 -0.4616,4.27954 -32.51137,0.011 L 337.14466,768.2482 Z"
             id="path3153"
             sodipodi:nodetypes="cccccccccccccccccccc" />
        </g>
        <path
           style="fill:#d3d7cf;fill-opacity:1;fill-rule:evenodd;stroke:none"
           d="m -120.83417,-388.94226 c -0.60185,-1.63834 2.28453,5.77414 1.84436,-11.48938 0.19328,10.80482 3.26737,5.74036 1.7751,10.96031 l 5.24185,-10.41534 c -1.775,9.38684 -1.76159,11.11353 -0.52893,9.75875 1.71654,-5.50741 3.09034,-3.83322 2.96845,-9.65202 l 1.61794,9.18269 c 1.72909,-2.70648 1.84642,4.18558 3.57551,-8.12054 l 1.95758,8.46019 2.76654,-8.84306 c 0.518647,5.53308 -1.79204,2.84065 3.007381,8.37373 -0.155572,-4.84506 2.028617,-1.98083 1.854016,-8.68868 l 1.043637,8.68251 3.797818,-7.76855 1.494433,7.68826 c 2.906006,-4.56441 2.563651,-3.21497 3.001203,-8.60222 l 0.802793,8.57753 1.988449,-11.09705 c -1.033035,8.72524 0.715895,0.64536 2.272522,11.09705 3.37445,-4.02403 4.356752,-3.2856 4.964957,-8.23171 l 0.339641,8.22553 2.575112,-11.06617 c -1.054641,11.98836 0.992172,-0.92836 1.574704,11.05999 1.383269,-2.08486 2.081086,-3.50337 3.464355,-8.21935 l 0.450796,7.41039 2.439253,-9.33708 c -0.513775,8.11629 0.764371,3.49492 2.525713,9.46676 2.218937,-2.59397 0.515674,-3.83282 2.028867,-9.26916 0.0014,7.30562 0.01721,8.67968 -0.0232,15.51241 l -60.82085,0 L -120.83417,-388.94226 Z"
           id="path3157"
           sodipodi:nodetypes="cccccccccccccccccccccccccccccccc"
           inkscape:connector-curvature="0" />
      </g>
    </g>
    <flowRoot
       xml:space="preserve"
       id="flowRoot5445"
       style="font-size:14px;font-style:normal;font-variant:normal;font-weight:600;font-stretch:normal;text-align:start;line-height:125%;letter-spacing:0px;word-spacing:0px;writing-mode:lr-tb;text-anchor:start;fill:#000000;fill-opacity:1;stroke:none;font-family:Open Sans;-inkscape-font-specification:Open Sans Semi-Bold"
       transform="translate(1040,-1213.6764)"><flowRegion
         id="flowRegion5447"><rect
           id="rect5449"
           width="308.79294"
           height="106.29037"
           x="-820"
           y="1026"
           style="font-size:14px;font-style:normal;font-variant:normal;font-weight:600;font-stretch:normal;text-align:start;line-height:125%;writing-mode:lr-tb;text-anchor:start;font-family:Open Sans;-inkscape-font-specification:Open Sans Semi-Bold" /></flowRegion><flowPara
         id="flowPara5451">Other GNOME Websites</flowPara></flowRoot>    <flowRoot
       transform="translate(1040,-1191.6764)"
       style="font-size:14px;font-style:normal;font-variant:normal;font-weight:normal;font-stretch:normal;text-align:start;line-height:179.99999523%;letter-spacing:0px;word-spacing:0px;writing-mode:lr-tb;text-anchor:start;fill:#000000;fill-opacity:1;stroke:none;font-family:Open Sans;-inkscape-font-specification:Open Sans"
       id="flowRoot5453"
       xml:space="preserve"><flowRegion
         id="flowRegion5455"><rect
           style="font-size:14px;font-style:normal;font-variant:normal;font-weight:normal;font-stretch:normal;text-align:start;line-height:179.99999523%;writing-mode:lr-tb;text-anchor:start;font-family:Open Sans;-inkscape-font-specification:Open Sans"
           y="1026"
           x="-820"
           height="185.29041"
           width="307.79297"
           id="rect5457" /></flowRegion><flowPara
         id="flowPara5459">Bug Tracker</flowPara><flowPara
         id="flowPara5473">Code Repositories</flowPara><flowPara
         id="flowPara5467">Developer Center</flowPara><flowPara
         id="flowPara5469">Mailing Lists</flowPara><flowPara
         id="flowPara5528">Planet GNOME</flowPara><flowPara
         id="flowPara5481">User Help</flowPara><flowPara
         id="flowPara5477">Wiki</flowPara></flowRoot>    <flowRoot
       transform="translate(1390,-1213.6764)"
       style="font-size:14px;font-style:normal;font-variant:normal;font-weight:600;font-stretch:normal;text-align:start;line-height:125%;letter-spacing:0px;word-spacing:0px;writing-mode:lr-tb;text-anchor:start;fill:#000000;fill-opacity:1;stroke:none;font-family:Open Sans;-inkscape-font-specification:Open Sans Semi-Bold"
       id="flowRoot5554"
       xml:space="preserve"><flowRegion
         id="flowRegion5556"><rect
           style="font-size:14px;font-style:normal;font-variant:normal;font-weight:600;font-stretch:normal;text-align:start;line-height:125%;writing-mode:lr-tb;text-anchor:start;font-family:Open Sans;-inkscape-font-specification:Open Sans Semi-Bold"
           y="1026"
           x="-820"
           height="106.29037"
           width="308.79294"
           id="rect5558" /></flowRegion><flowPara
         id="flowPara5560">News Feeds</flowPara></flowRoot>    <flowRoot
       xml:space="preserve"
       id="flowRoot5562"
       style="font-size:14px;font-style:normal;font-variant:normal;font-weight:normal;font-stretch:normal;text-align:start;line-height:179.99999523%;letter-spacing:0px;word-spacing:0px;writing-mode:lr-tb;text-anchor:start;fill:#000000;fill-opacity:1;stroke:none;font-family:Open Sans;-inkscape-font-specification:Open Sans"
       transform="translate(1390,-1191.6764)"><flowRegion
         id="flowRegion5564"><rect
           id="rect5566"
           width="305.79294"
           height="154.29041"
           x="-820"
           y="1026"
           style="font-size:14px;font-style:normal;font-variant:normal;font-weight:normal;font-stretch:normal;text-align:start;line-height:179.99999523%;writing-mode:lr-tb;text-anchor:start;font-family:Open Sans;-inkscape-font-specification:Open Sans" /></flowRegion><flowPara
         id="flowPara5580">identi.ca</flowPara><flowPara
         id="flowPara5615">Facebook</flowPara><flowPara
         id="flowPara5617">Google Plus</flowPara><flowPara
         id="flowPara5611">Twitter</flowPara></flowRoot>    <text
       xml:space="preserve"
       style="font-size:14px;font-style:normal;font-variant:normal;font-weight:bold;font-stretch:normal;text-align:start;line-height:125%;letter-spacing:0px;word-spacing:0px;writing-mode:lr-tb;text-anchor:start;fill:#ffffff;fill-opacity:1;stroke:none;font-family:Open Sans;-inkscape-font-specification:Open Sans Bold"
       x="129"
       y="210.29321"
       id="text5695"
       sodipodi:linespacing="125%"><tspan
         sodipodi:role="line"
         id="tspan5697"
         x="129"
         y="210.29321">GNOME 3</tspan></text>
    <text
       sodipodi:linespacing="125%"
       id="text5699"
       y="210.29321"
       x="325.82382"
       style="font-size:14px;font-style:normal;font-variant:normal;font-weight:bold;font-stretch:normal;text-align:start;line-height:125%;letter-spacing:0px;word-spacing:0px;writing-mode:lr-tb;text-anchor:start;fill:#ffffff;fill-opacity:1;stroke:none;font-family:Open Sans;-inkscape-font-specification:Open Sans Bold"
       xml:space="preserve"><tspan
         y="210.29321"
         x="325.82382"
         id="tspan5701"
         sodipodi:role="line">The Project</tspan></text>
    <text
       xml:space="preserve"
       style="font-size:14px;font-style:normal;font-variant:normal;font-weight:bold;font-stretch:normal;text-align:start;line-height:125%;letter-spacing:0px;word-spacing:0px;writing-mode:lr-tb;text-anchor:start;fill:#ffffff;fill-opacity:1;stroke:none;font-family:Open Sans;-inkscape-font-specification:Open Sans Bold"
       x="528.21893"
       y="210.29321"
       id="text5703"
       sodipodi:linespacing="125%"><tspan
         sodipodi:role="line"
         id="tspan5705"
         x="528.21893"
         y="210.29321">Foundation</tspan></text>
    <text
       sodipodi:linespacing="180%"
       id="text5707"
       y="242.29321"
       x="129"
       style="font-size:14px;font-style:normal;font-variant:normal;font-weight:600;font-stretch:normal;text-align:start;line-height:179.99999523%;letter-spacing:0px;word-spacing:0px;writing-mode:lr-tb;text-anchor:start;fill:#ffffff;fill-opacity:1;stroke:none;font-family:Open Sans;-inkscape-font-specification:Open Sans Semi-Bold"
       xml:space="preserve"><tspan
         y="242.29321"
         x="129"
         id="tspan5709"
         sodipodi:role="line">Discover</tspan><tspan
         id="tspan5719"
         y="267.49323"
         x="129"
         sodipodi:role="line">Getting GNOME 3</tspan><tspan
         id="tspan5721"
         y="292.69321"
         x="129"
         sodipodi:role="line">Technologies</tspan></text>
    <text
       xml:space="preserve"
       style="font-size:14px;font-style:normal;font-variant:normal;font-weight:600;font-stretch:normal;text-align:start;line-height:179.99999523%;letter-spacing:0px;word-spacing:0px;writing-mode:lr-tb;text-anchor:start;fill:#ffffff;fill-opacity:1;stroke:none;font-family:Open Sans;-inkscape-font-specification:Open Sans Semi-Bold"
       x="325.82382"
       y="242.29321"
       id="text5711"
       sodipodi:linespacing="180%"><tspan
         sodipodi:role="line"
         id="tspan5713"
         x="325.82382"
         y="242.29321">About Us</tspan><tspan
         id="tspan5723"
         sodipodi:role="line"
         x="325.82382"
         y="267.49323">Get Involved</tspan><tspan
         id="tspan6189"
         sodipodi:role="line"
         x="325.82382"
         y="292.69321">Support Us</tspan><tspan
         id="tspan6191"
         sodipodi:role="line"
         x="325.82382"
         y="317.89322">Friends of GNOME</tspan><tspan
         id="tspan5741"
         sodipodi:role="line"
         x="325.82382"
         y="343.0932">Logo &amp; Branding</tspan><tspan
         id="tspan5725"
         sodipodi:role="line"
         x="325.82382"
         y="368.29321">Contact</tspan></text>
    <text
       sodipodi:linespacing="180%"
       id="text5715"
       y="242.29321"
       x="528.21893"
       style="font-size:14px;font-style:normal;font-variant:normal;font-weight:600;font-stretch:normal;text-align:start;line-height:179.99999523%;letter-spacing:0px;word-spacing:0px;writing-mode:lr-tb;text-anchor:start;fill:#ffffff;fill-opacity:1;stroke:none;font-family:Open Sans;-inkscape-font-specification:Open Sans Semi-Bold"
       xml:space="preserve"><tspan
         y="242.29321"
         x="528.21893"
         id="tspan5717"
         sodipodi:role="line">About the Foundation</tspan><tspan
         id="tspan5731"
         y="267.49323"
         x="528.21893"
         sodipodi:role="line">Governance</tspan><tspan
         id="tspan5733"
         y="292.69321"
         x="528.21893"
         sodipodi:role="line">Legal &amp; Trademarks</tspan><tspan
         id="tspan5735"
         y="317.89322"
         x="528.21893"
         sodipodi:role="line">Reports</tspan><tspan
         id="tspan5737"
         y="343.0932"
         x="528.21893"
         sodipodi:role="line">Membership</tspan><tspan
         id="tspan5739"
         y="368.29321"
         x="528.21893"
         sodipodi:role="line">Contact Us</tspan></text>
    <text
       sodipodi:linespacing="125%"
       id="text5787"
       y="210.29321"
       x="753.47339"
       style="font-size:14px;font-style:normal;font-variant:normal;font-weight:bold;font-stretch:normal;text-align:start;line-height:125%;letter-spacing:0px;word-spacing:0px;writing-mode:lr-tb;text-anchor:start;fill:#ffffff;fill-opacity:1;stroke:none;font-family:Open Sans;-inkscape-font-specification:Open Sans Bold"
       xml:space="preserve"><tspan
         y="210.29321"
         x="753.47339"
         id="tspan5789"
         sodipodi:role="line">News</tspan></text>
    <text
       xml:space="preserve"
       style="font-size:14px;font-style:normal;font-variant:normal;font-weight:600;font-stretch:normal;text-align:start;line-height:179.99999523%;letter-spacing:0px;word-spacing:0px;writing-mode:lr-tb;text-anchor:start;fill:#ffffff;fill-opacity:1;stroke:none;font-family:Open Sans;-inkscape-font-specification:Open Sans Semi-Bold"
       x="753.47339"
       y="242.29321"
       id="text5791"
       sodipodi:linespacing="180%"><tspan
         sodipodi:role="line"
         x="753.47339"
         y="242.29321"
         id="tspan5803">News Feed</tspan><tspan
         id="tspan5825"
         sodipodi:role="line"
         x="753.47339"
         y="267.49323">Press Releases</tspan></text>
    <text
       xml:space="preserve"
       style="font-size:17.56969833px;font-style:normal;font-variant:normal;font-weight:600;font-stretch:normal;text-align:start;line-height:125%;letter-spacing:0px;word-spacing:0px;writing-mode:lr-tb;text-anchor:start;opacity:0.6;fill:#ffffff;fill-opacity:1;stroke:none;font-family:Open Sans;-inkscape-font-specification:Open Sans Semi-Bold"
       x="490.02161"
       y="-1094.8868"
       id="text3977"
       sodipodi:linespacing="125%"><tspan
         sodipodi:role="line"
         id="tspan3979"
         x="490.02161"
         y="-1094.8868">Project</tspan></text>
    <text
       xml:space="preserve"
       style="font-size:17.56969833px;font-style:normal;font-variant:normal;font-weight:600;font-stretch:normal;text-align:start;line-height:125%;letter-spacing:0px;word-spacing:0px;writing-mode:lr-tb;text-anchor:start;fill:#ffffff;fill-opacity:1;stroke:none;font-family:Open Sans;-inkscape-font-specification:Open Sans Semi-Bold"
       x="657.62756"
       y="-1094.8868"
       id="text8817"
       sodipodi:linespacing="125%"><tspan
         sodipodi:role="line"
         id="tspan8819"
         x="657.62756"
         y="-1094.8868">Foundation</tspan></text>
    <text
       xml:space="preserve"
       style="font-size:15px;font-style:normal;font-variant:normal;font-weight:600;font-stretch:normal;text-align:start;line-height:125%;letter-spacing:0px;word-spacing:0px;writing-mode:lr-tb;text-anchor:start;fill:#ffffff;fill-opacity:1;stroke:none;font-family:Open Sans;-inkscape-font-specification:Open Sans Semi-Bold"
       x="437.30362"
       y="-1058.8868"
       id="text8964"
       sodipodi:linespacing="125%"><tspan
         sodipodi:role="line"
         id="tspan8966"
         x="437.30362"
         y="-1058.8868"
         style="opacity:0.91167196">About</tspan></text>
    <text
       xml:space="preserve"
       style="font-size:15px;font-style:normal;font-variant:normal;font-weight:600;font-stretch:normal;text-align:start;line-height:125%;letter-spacing:0px;word-spacing:0px;writing-mode:lr-tb;text-anchor:start;opacity:0.6;fill:#ffffff;fill-opacity:1;stroke:none;font-family:Open Sans;-inkscape-font-specification:Open Sans Semi-Bold"
       x="501.33313"
       y="-1058.8868"
       id="text8970"
       sodipodi:linespacing="125%"><tspan
         sodipodi:role="line"
         id="tspan8972"
         x="501.33313"
         y="-1058.8868"
         style="opacity:0.91167196">Governance</tspan></text>
    <text
       xml:space="preserve"
       style="font-size:15px;font-style:normal;font-variant:normal;font-weight:600;font-stretch:normal;text-align:start;line-height:125%;letter-spacing:0px;word-spacing:0px;writing-mode:lr-tb;text-anchor:start;opacity:0.6;fill:#ffffff;fill-opacity:1;stroke:none;font-family:Open Sans;-inkscape-font-specification:Open Sans Semi-Bold"
       x="607.67468"
       y="-1058.8868"
       id="text8976"
       sodipodi:linespacing="125%"><tspan
         sodipodi:role="line"
         id="tspan8978"
         x="607.67468"
         y="-1058.8868"
         style="opacity:0.91167196">Legal</tspan></text>
    <text
       xml:space="preserve"
       style="font-size:15px;font-style:normal;font-variant:normal;font-weight:600;font-stretch:normal;text-align:start;line-height:125%;letter-spacing:0px;word-spacing:0px;writing-mode:lr-tb;text-anchor:start;opacity:0.6;fill:#ffffff;fill-opacity:1;stroke:none;font-family:Open Sans;-inkscape-font-specification:Open Sans Semi-Bold"
       x="664.48981"
       y="-1058.8868"
       id="text8982"
       sodipodi:linespacing="125%"><tspan
         sodipodi:role="line"
         id="tspan8984"
         x="664.48981"
         y="-1058.8868"
         style="opacity:0.91167196">Reports</tspan></text>
    <text
       xml:space="preserve"
       style="font-size:15px;font-style:normal;font-variant:normal;font-weight:600;font-stretch:normal;text-align:start;line-height:125%;letter-spacing:0px;word-spacing:0px;writing-mode:lr-tb;text-anchor:start;opacity:0.6;fill:#ffffff;fill-opacity:1;stroke:none;font-family:Open Sans;-inkscape-font-specification:Open Sans Semi-Bold"
       x="740.28931"
       y="-1058.8868"
       id="text8988"
       sodipodi:linespacing="125%"><tspan
         sodipodi:role="line"
         id="tspan8990"
         x="740.28931"
         y="-1058.8868"
         style="opacity:0.91167196">Membership</tspan></text>
    <text
       sodipodi:linespacing="125%"
       id="text5691"
       y="-1058.8868"
       x="851.7431"
       style="font-size:15px;font-style:normal;font-variant:normal;font-weight:600;font-stretch:normal;text-align:start;line-height:125%;letter-spacing:0px;word-spacing:0px;writing-mode:lr-tb;text-anchor:start;opacity:0.6;fill:#ffffff;fill-opacity:1;stroke:none;font-family:Open Sans;-inkscape-font-specification:Open Sans Semi-Bold"
       xml:space="preserve"><tspan
         style="opacity:0.91167196"
         y="-1058.8868"
         x="851.7431"
         id="tspan5693"
         sodipodi:role="line">Contact</tspan></text>
    <text
       xml:space="preserve"
       style="font-size:17.56969833px;font-style:normal;font-variant:normal;font-weight:600;font-stretch:normal;text-align:start;line-height:125%;letter-spacing:0px;word-spacing:0px;writing-mode:lr-tb;text-anchor:start;opacity:0.6;fill:#ffffff;fill-opacity:1;stroke:none;font-family:Open Sans;-inkscape-font-specification:Open Sans Semi-Bold"
       x="577.86139"
       y="-1094.8868"
       id="text5727"
       sodipodi:linespacing="125%"><tspan
         sodipodi:role="line"
         id="tspan5729"
         x="577.86139"
         y="-1094.8868">News</tspan></text>
    <text
       xml:space="preserve"
       style="font-size:18px;font-style:normal;font-variant:normal;font-weight:600;font-stretch:normal;text-align:start;line-height:125%;letter-spacing:0px;word-spacing:0px;writing-mode:lr-tb;text-anchor:start;fill:#eeeeec;fill-opacity:1;stroke:none;font-family:Open Sans;-inkscape-font-specification:Open Sans Semi-Bold"
       x="129"
       y="-1205.424"
       id="text6160"
       sodipodi:linespacing="125%"><tspan
         sodipodi:role="line"
         id="tspan6162"
         x="129"
         y="-1205.424">Website</tspan></text>
    <text
       sodipodi:linespacing="125%"
       id="text6193"
       y="160.57599"
       x="129"
       style="font-size:18px;font-style:normal;font-variant:normal;font-weight:600;font-stretch:normal;text-align:start;line-height:125%;letter-spacing:0px;word-spacing:0px;writing-mode:lr-tb;text-anchor:start;fill:#eeeeec;fill-opacity:1;stroke:none;font-family:Open Sans;-inkscape-font-specification:Open Sans Semi-Bold"
       xml:space="preserve"><tspan
         y="160.57599"
         x="129"
         id="tspan6195"
         sodipodi:role="line">Menu Structure</tspan></text>
    <rect
       y="-1005.5012"
       x="120"
       height="216.86334"
       width="860"
       id="rect5668"
       style="fill:#ffffff;fill-opacity:1;stroke:none" />
    <text
       xml:space="preserve"
       style="font-size:24px;font-style:normal;font-variant:normal;font-weight:300;font-stretch:normal;text-align:start;line-height:125%;letter-spacing:0px;word-spacing:0px;writing-mode:lr-tb;text-anchor:start;fill:#888a85;fill-opacity:1;stroke:none;font-family:Open Sans;-inkscape-font-specification:Open Sans Light"
       x="221.69141"
       y="-941.57147"
       id="text5044"
       sodipodi:linespacing="125%"><tspan
         sodipodi:role="line"
         x="221.69141"
         y="-941.57147"
         id="tspan5048">The Foundation</tspan></text>
    <flowRoot
       transform="translate(634.63589,-1438.5012)"
       style="font-size:15px;font-style:normal;font-variant:normal;font-weight:normal;font-stretch:normal;text-align:start;line-height:125%;letter-spacing:0px;word-spacing:0px;text-anchor:start;fill:#384042;fill-opacity:1;stroke:none;font-family:Open Sans;-inkscape-font-specification:Open Sans"
       id="flowRoot5056"
       xml:space="preserve"><flowRegion
         id="flowRegion5058"><rect
           style="font-size:15px;text-align:start;text-anchor:start;fill:#384042;fill-opacity:1"
           y="490.81171"
           x="-412.95035"
           height="172.17871"
           width="466.12689"
           id="rect5060" /></flowRegion><flowPara
         id="flowPara5062" /><flowPara
         id="flowPara8843" /><flowPara
         id="flowPara8845">The GNOME Foundation is a non-profit organization that furthers the goals of the GNOME Project, helping it to create a free software computing platform for the general public that is designed to be elegant, efficient, and easy to use.</flowPara><flowPara
         id="flowPara8847" /></flowRoot>    <rect
       transform="scale(1,-1)"
       y="652.50122"
       x="120"
       height="143"
       width="859.17896"
       id="rect5668-6"
       style="fill:#ffffff;fill-opacity:1;stroke:none" />
    <flowRoot
       transform="translate(1248.5564,-1437.841)"
       style="font-size:15px;font-style:normal;font-variant:normal;font-weight:normal;font-stretch:normal;text-align:start;line-height:125%;letter-spacing:0px;word-spacing:0px;writing-mode:lr-tb;text-anchor:start;fill:#384042;fill-opacity:1;stroke:none;font-family:Open Sans;-inkscape-font-specification:Open Sans"
       id="flowRoot5423"
       xml:space="preserve"><flowRegion
         id="flowRegion5425"><rect
           style="font-size:15px;font-style:normal;font-variant:normal;font-weight:normal;font-stretch:normal;text-align:start;line-height:125%;writing-mode:lr-tb;text-anchor:start;fill:#384042;fill-opacity:1;font-family:Open Sans;-inkscape-font-specification:Open Sans"
           y="706"
           x="-820"
           height="314.02539"
           width="375.43463"
           id="rect5427" /></flowRegion><flowPara
         id="flowPara5429">While the many GNOME contributors develop code, smash bugs, write documentation, and help users, the Foundation acts as a guiding hand in the process and provides resources and infrastructure. It steers releases, determines what software is officially part of the Project, and acts as the official face of the GNOME Project to the outside world, though it delegates most of its authority to specialized teams.</flowPara><flowPara
         id="flowPara8879" /><flowPara
         id="flowPara8881">But that face, like the face of GNOME itself, is made by you. The GNOME Foundation membership is open to all GNOME contributors, and every member of the Board of Directors is a contributing member of the GNOME community. Becoming a member of the Foundation strengthens your voice in the Project and gives you an opportunity to vote on goals that will steer the GNOME Project into the future.</flowPara><flowPara
         id="flowPara8875" /><flowPara
         id="flowPara8877" /></flowRoot>    <path
       inkscape:connector-curvature="0"
       id="path8898"
       d="m 820.32306,-828.52441 c -0.46367,-0.55868 -1.32783,-3.04208 -1.92037,-5.51867 -5.39509,-22.54947 -6.18616,-23.67174 -22.07653,-31.31955 -39.98617,-19.24477 -49.26322,-66.61243 -18.97766,-96.898 37.6452,-37.64517 101.72403,-11.01196 101.63414,42.24248 -0.0336,20.04584 -7.7939,34.78743 -25.9071,49.21502 -12.80685,10.20095 -13.30334,11.21309 -13.30939,27.13234 -0.005,12.65706 -0.25049,13.4212 -4.67869,14.55244 C 829.39536,-827.66424 821.30698,-827.33886 820.32306,-828.52441 z m 0.92288,-12.82845 c 0.77335,-1.62972 0.93977,-2.74983 0.49442,-3.32776 -1.22935,-1.59529 0.0379,-4.35369 2.11135,-4.59575 1.62912,-0.19019 1.89889,0.0338 1.89889,1.57631 0,0.98889 0.33778,1.79799 0.75063,1.79799 0.41283,0 0.2552,0.49541 -0.3503,1.10091 -1.24915,1.24915 -1.44129,2.402 -0.40033,2.402 0.38532,0 0.70058,0.47289 0.70058,1.05087 0,1.62828 2.65391,1.23911 3.58314,-0.52544 0.45657,-0.86697 1.177,-1.80793 1.60096,-2.09102 0.47557,-0.31754 0.30121,-0.51881 -0.45517,-0.52543 -0.67431,-0.006 -1.22602,-0.2102 -1.22602,-0.45399 0,-0.37872 2.76239,-3.05965 3.15262,-3.05965 0.39023,0 3.15262,2.68093 3.15262,3.05965 0,0.24379 -0.47289,0.44326 -1.05087,0.44326 -0.81735,0 -0.73951,0.31137 0.35029,1.40117 2.3617,2.3617 2.70429,1.66488 2.9324,-5.96439 0.16748,-5.60172 0.0144,-7.28617 -0.63914,-7.03409 -2.25425,0.86947 -13.2457,1.87601 -18.23379,1.66974 l -5.58302,-0.23087 0.61028,2.10175 c 0.33565,1.15596 1.27254,4.46621 2.08198,7.35611 C 818.82796,-837.70222 819.31624,-837.28632 821.24594,-841.35286 z m 7.15435,-44.1663 c 7.78301,-3.24231 13.95228,-15.21295 8.84163,-17.15601 -4.12185,-1.56712 -10.09016,1.57967 -10.09016,5.32005 0,4.6471 -4.27395,6.66381 -7.96664,3.75914 -4.70963,-3.7046 -3.84491,-5.96343 5.23054,-13.66319 9.67479,-8.20828 12.15034,-12.60791 9.68553,-17.21345 -4.37043,-8.16623 -29.40903,-0.9922 -35.03653,10.03863 C 791.64467,-899.88963 812.81248,-879.02546 828.40029,-885.51916 z m -30.80672,-36.86826 c 0.24669,-2.13419 -2.10763,-7.21932 -3.60918,-7.79553 -1.67444,-0.64254 -3.96347,1.4942 -3.96347,3.69979 C 790.02092,-921.89752 797.0947,-918.07159 797.59357,-922.38742 z m 7.87303,-7.32064 c 1.44586,-3.80291 -0.89578,-10.072 -3.76211,-10.072 -2.22959,0 -3.27659,1.28714 -3.27659,4.02811 C 798.4279,-929.98786 803.81445,-925.36261 805.4666,-929.70806 z m 28.33763,-5.2399 c 8.37077,-7.7159 9.44611,-18.28285 1.75557,-17.25133 -7.1668,0.96127 -10.86007,5.34467 -10.86007,12.88941 C 824.69973,-931.32629 828.10518,-929.69476 833.80423,-934.94796 z m -17.48773,0.74631 c 1.571,-1.73594 2.26568,-8.86879 1.07958,-11.08504 -1.62714,-3.04033 -6.51163,-1.46913 -7.48463,2.40761 C 808.45958,-937.09435 813.16511,-930.7194 816.3165,-934.20165 Z"
       style="opacity:0.5;fill:#2e3436" />
    <path
       inkscape:connector-curvature="0"
       id="path8914"
       d="m 341.67803,-646.14863 c -0.33384,-0.86998 -0.60699,-3.03415 -0.60699,-4.80927 0,-2.6678 -0.94872,-4.04656 -5.47092,-7.95074 -18.23488,-15.74285 -1.31758,-42.96378 20.22118,-32.53705 14.877,7.20183 13.45303,27.33041 -2.54956,36.03948 -2.4884,1.35426 -3.17832,2.50734 -3.73957,6.25 -0.65677,4.37964 -0.83809,4.58937 -3.96768,4.58937 C 343.49653,-644.56684 342.06078,-645.15119 341.67803,-646.14863 z m 4.39301,-3.54065 c 0,0.61734 0.45,1.12244 1,1.12244 2.26027,0 0.92402,-3.78137 -1.5,-4.24475 -2.12392,-0.40601 -2.5,-0.10427 -2.5,2.00587 0,2.09441 0.23514,2.28862 1.5,1.23888 C 345.6074,-650.42694 346.07104,-650.46479 346.07104,-649.68928 z m -59.46684,-27.367 -0.71082,-7.5855 -6.16117,-5.06146 c -11.43397,-9.3931 -15.18433,-16.82345 -14.48451,-28.69717 1.54536,-26.21978 33.52448,-37.92126 51.5495,-18.86246 6.48359,6.85544 8.69508,13.23057 8.05413,23.21791 -0.774,12.06058 -5.15278,18.1442 -19.41791,26.97812 -4.63875,2.87262 -4.91182,3.29721 -6.43148,10 l -1.58705,7 -5.04994,0.29803 -5.04993,0.29803 L 286.6042,-677.05628 z m 3.18619,-0.47577 c -0.34943,-1.33623 0.0905,-2.15704 1.37442,-2.56455 2.40625,-0.76371 4.03792,0.2338 3.68275,2.25142 -0.53668,3.04875 2.04951,2.34691 2.72755,-0.7402 0.83458,-3.79982 1.05796,-3.60127 -4.75407,-4.22557 l -4.75,-0.51022 0,3.2105 c 0,2.9402 0.62937,4.54383 1.7833,4.54383 C 290.10182,-675.56684 290.07304,-676.45119 289.79039,-677.53205 Z"
       style="fill:#d3d7cf;fill-opacity:1" />
    <path
       inkscape:connector-curvature="0"
       d="m 616.32233,-281.2101 c 0.8083,1.25745 1.04492,1.21473 1.62353,-0.29312 0.81102,-2.11349 0.72157,-2.20728 -2.94622,-3.08897 -2.3998,-0.57688 -2.77266,-0.42093 -2.25,0.94111 0.34456,0.89792 0.63337,2.15828 0.64179,2.8008 0.009,0.6736 0.43222,0.53312 1,-0.33179 C 615.25609,-282.49922 615.49146,-282.50264 616.32233,-281.2101 z m -4.27954,4.36136 c -0.36667,-0.36666 -0.66667,-2.21849 -0.66667,-4.11517 0,-2.64478 -0.73468,-4.06259 -3.15224,-6.08333 -13.56782,-11.34076 -15.91188,-19.33481 -8.9079,-30.37894 7.1251,-11.23512 24.99518,-11.23512 32.12028,0 6.84894,10.79965 3.94675,21.06682 -8.40767,29.74411 -2.25342,1.58272 -2.95864,2.99104 -3.38005,6.75 -0.51204,4.56727 -0.65575,4.75 -3.73581,4.75 C 614.15093,-276.18207 612.40945,-276.48207 612.04279,-276.84874 Z"
       style="fill:#d3d7cf;fill-opacity:1"
       id="path8956" />
    <path
       inkscape:connector-curvature="0"
       d="m 832.78174,-285.38207 c 0,-0.93333 0.2666,-0.93333 1.2,0 1.8641,1.86412 2.8,1.42961 2.8,-1.3 0,-2.2046 -0.4262,-2.5 -3.607,-2.5 -2.8783,0 -3.4844,0.31957 -3,1.58179 0.3338,0.86998 0.607,1.99498 0.607,2.5 0,0.50501 0.45,0.91821 1,0.91821 C 832.33174,-284.18207 832.78174,-284.72207 832.78174,-285.38207 z m -3.3596,5.45 c -0.2719,-0.9625 -0.7983,-3.70144 -1.1699,-6.08654 -0.5984,-3.84106 -1.2066,-4.64086 -5.323,-7 -18.8197,-10.78551 -19.8989,-34.63027 -1.9717,-43.56377 25.2709,-12.59303 47.7345,20.45733 26.4778,38.9565 -2.2845,1.98816 -5.1017,4.46157 -6.2604,5.49647 -1.4043,1.25418 -2.3125,3.61817 -2.7236,7.08914 -0.3392,2.86412 -1.1912,5.57201 -1.8932,6.01754 C 834.21834,-277.53785 829.94464,-278.08245 829.42214,-279.93207 Z"
       style="fill:#d3d7cf;fill-opacity:1"
       id="path8952" />
    <path
       inkscape:connector-curvature="0"
       d="m 770.88184,-311.12019 c -1.5806,-0.97687 0.4399,-3.2974 2.5197,-2.89392 1.0798,0.20948 1.8809,1.20351 1.882,2.33505 10e-4,1.08366 0.7885,2.12179 1.75,2.30696 0.9615,0.18518 1.7482,-0.0901 1.7482,-0.61165 0,-0.52157 0.2586,-2.24207 0.5748,-3.82332 l 0.5747,-2.875 -6.565,-0.13532 -6.5651,-0.13532 0.5833,2.63532 c 1.3527,6.11276 1.475,6.31568 3.0287,5.02624 C 771.30044,-310.02751 771.48494,-310.74748 770.88184,-311.12019 z m -3.6132,6.2364 c -0.3419,-2.08905 -0.8445,-5.14828 -1.1169,-6.79828 -1.0223,-6.1944 -2.6095,-8.4211 -8.9447,-12.54862 -13.60259,-8.86247 -17.92572,-16.44803 -17.92456,-31.45138 0.003,-41.90491 60.68576,-47.29383 68.38666,-6.07308 2.7257,14.58976 -3.8992,28.13362 -18.3744,37.56458 -7.0052,4.56407 -7.3493,5.16106 -8.9381,15.5085 l -1.0749,7 -5.6957,0.29828 -5.6956,0.29828 L 767.26864,-304.88379 Z"
       style="fill:#d3d7cf;fill-opacity:1"
       id="path8948" />
    <path
       inkscape:connector-curvature="0"
       d="m 247.65452,-316.74572 c 0.27119,-0.70671 -0.56166,-1.42793 -1.95697,-1.69466 -2.19775,-0.42012 -3.33925,1.01481 -1.92908,2.42498 C 244.72384,-315.06004 247.18517,-315.5226 247.65452,-316.74572 z m -4.69569,4.81365 c -0.23523,-0.4125 -0.7337,-2.44562 -1.10772,-4.51804 -0.52858,-2.92885 -1.57599,-4.36095 -4.703,-6.43031 -13.1254,-8.68598 -8.80007,-29.31643 6.50816,-31.04189 18.60378,-2.09692 26.11654,20.19695 10.56997,31.36605 -3.50018,2.51463 -4.95777,4.24518 -4.95777,5.88621 C 249.26847,-312.07755 244.79248,-308.71648 242.95883,-311.93207 Z"
       style="fill:#d3d7cf;fill-opacity:1"
       id="path8938" />
    <rect
       style="opacity:0.7;fill:#ffffff;fill-opacity:1;stroke:none"
       id="rect9673"
       width="53.656517"
       height="2"
       x="430.99997"
       y="-1051.6379" />
    <rect
       transform="matrix(0,1,-1,0,0,0)"
       y="-913"
       x="-1115.6379"
       height="130"
       width="28"
       id="rect5668-9"
       style="opacity:0.1;fill:#000000;fill-opacity:1;stroke:none" />
    <rect
       y="-1006.6379"
       x="120"
       height="1"
       width="860"
       id="rect5668-96"
       style="opacity:0.3;fill:#000000;fill-opacity:1;stroke:none" />
    <g
       style="opacity:0.4"
       transform="matrix(1.2549784,0,0,1.2549784,1143.949,355.19579)"
       id="g6004">
      <text
         xml:space="preserve"
         style="font-size:14px;font-style:normal;font-variant:normal;font-weight:600;font-stretch:normal;text-align:start;line-height:125%;letter-spacing:0px;word-spacing:0px;writing-mode:lr-tb;text-anchor:start;fill:#ffffff;fill-opacity:1;stroke:none;font-family:Open Sans;-inkscape-font-specification:Open Sans Semi-Bold"
         x="-260.19141"
         y="-1155.4641"
         id="text3981"
         sodipodi:linespacing="125%"><tspan
           sodipodi:role="line"
           id="tspan3983"
           x="-260.19141"
           y="-1155.4641">Search</tspan></text>
      <g
         id="g4990"
         transform="translate(-280.52891,-1168.746)"
         style="fill:#ffffff;fill-opacity:1">
        <g
           style="fill:#ffffff;fill-opacity:1;display:inline"
           id="layer9"
           transform="translate(-140.0002,-645.96875)"
           inkscape:label="status" />
        <g
           id="layer10"
           transform="translate(-140.0002,-645.96875)"
           inkscape:label="devices"
           style="fill:#ffffff;fill-opacity:1" />
        <g
           id="layer11"
           transform="translate(-140.0002,-645.96875)"
           inkscape:label="apps"
           style="fill:#ffffff;fill-opacity:1" />
        <g
           id="layer12"
           transform="translate(-140.0002,-645.96875)"
           inkscape:label="actions"
           style="fill:#ffffff;fill-opacity:1">
          <path
             style="font-size:xx-small;font-style:normal;font-variant:normal;font-weight:normal;font-stretch:normal;text-indent:0;text-align:start;text-decoration:none;line-height:normal;letter-spacing:normal;word-spacing:normal;text-transform:none;direction:ltr;block-progression:tb;writing-mode:lr-tb;text-anchor:start;baseline-shift:baseline;color:#000000;fill:#ffffff;fill-opacity:1;stroke:none;stroke-width:1.55467153;marker:none;visibility:visible;display:inline;overflow:visible;enable-background:new;font-family:Sans;-inkscape-font-specification:Sans"
             id="path27918"
             d="m 146.50761,646.99554 c -3.02886,0 -5.51073,2.47905 -5.51073,5.50447 0,3.02541 2.48187,5.50446 5.51073,5.50446 3.02885,0 5.51072,-2.47905 5.51072,-5.50446 C 152.01833,649.47459 149.53646,646.99554 146.50761,646.99554 z m 0,2.00893 c 1.94735,0 3.49951,1.55039 3.49951,3.49554 0,1.94514 -1.55216,3.49553 -3.49951,3.49553 -1.94736,0 -3.49952,-1.55039 -3.49952,-3.49553 C 143.00809,650.55486 144.56025,649.00447 146.50761,649.00447 Z"
             inkscape:connector-curvature="0" />
          <path
             style="font-size:xx-small;font-style:normal;font-variant:normal;font-weight:normal;font-stretch:normal;text-indent:0;text-align:start;text-decoration:none;line-height:normal;letter-spacing:normal;word-spacing:normal;text-transform:none;direction:ltr;block-progression:tb;writing-mode:lr-tb;text-anchor:start;baseline-shift:baseline;color:#000000;fill:#ffffff;fill-opacity:1;stroke:none;stroke-width:2;marker:none;visibility:visible;display:inline;overflow:visible;enable-background:new;font-family:Sans;-inkscape-font-specification:Sans"
             id="path27941"
             d="m 149.8125,655 a 1.0001,1.0001 0 0 0 -0.5,1.71875 l 4,4 a 1.0054782,1.0054782 0 1 0 1.40625,-1.4375 l -4,-4 A 1.0001,1.0001 0 0 0 149.8125,655 Z"
             inkscape:connector-curvature="0" />
        </g>
        <g
           id="layer13"
           transform="translate(-140.0002,-645.96875)"
           inkscape:label="places"
           style="fill:#ffffff;fill-opacity:1" />
        <g
           id="layer14"
           transform="translate(-140.0002,-645.96875)"
           inkscape:label="mimetypes"
           style="fill:#ffffff;fill-opacity:1" />
        <g
           style="fill:#ffffff;fill-opacity:1;display:inline"
           id="layer15"
           transform="translate(-140.0002,-645.96875)"
           inkscape:label="emblems" />
        <g
           style="fill:#ffffff;fill-opacity:1;display:inline"
           id="g4953"
           transform="translate(-140.0002,-645.96875)"
           inkscape:label="categories" />
      </g>
    </g>
  </g>
</svg>
