<?xml version="1.0" encoding="UTF-8" standalone="no"?>
<!-- Created with Inkscape (http://www.inkscape.org/) -->

<svg
   xmlns:dc="http://purl.org/dc/elements/1.1/"
   xmlns:cc="http://creativecommons.org/ns#"
   xmlns:rdf="http://www.w3.org/1999/02/22-rdf-syntax-ns#"
   xmlns:svg="http://www.w3.org/2000/svg"
   xmlns="http://www.w3.org/2000/svg"
   xmlns:sodipodi="http://sodipodi.sourceforge.net/DTD/sodipodi-0.dtd"
   xmlns:inkscape="http://www.inkscape.org/namespaces/inkscape"
   width="297mm"
   height="210mm"
   viewBox="0 0 1052.3622 744.09448"
   id="svg2"
   version="1.1"
   inkscape:version="0.91 r13725"
   sodipodi:docname="workshop-certificate.svg">
  <defs
     id="defs4" />
  <sodipodi:namedview
     id="base"
     pagecolor="#ffffff"
     bordercolor="#666666"
     borderopacity="1.0"
     inkscape:pageopacity="0.0"
     inkscape:pageshadow="2"
     inkscape:zoom="0.7"
     inkscape:cx="519.36192"
     inkscape:cy="430.56196"
     inkscape:document-units="px"
     inkscape:current-layer="layer1"
     showgrid="false"
     inkscape:window-width="1920"
     inkscape:window-height="1016"
     inkscape:window-x="0"
     inkscape:window-y="27"
     inkscape:window-maximized="1" />
  <metadata
     id="metadata7">
    <rdf:RDF>
      <cc:Work
         rdf:about="">
        <dc:format>image/svg+xml</dc:format>
        <dc:type
           rdf:resource="http://purl.org/dc/dcmitype/StillImage" />
        <dc:title></dc:title>
      </cc:Work>
    </rdf:RDF>
  </metadata>
  <g
     inkscape:label="Layer 1"
     inkscape:groupmode="layer"
     id="layer1"
     transform="translate(0,-308.26772)">
    <rect
       style="opacity:1;fill:none;fill-opacity:1;stroke:#555753;stroke-width:5;stroke-linecap:round;stroke-linejoin:round;stroke-miterlimit:4;stroke-dasharray:none;stroke-dashoffset:0;stroke-opacity:1"
       id="rect4136"
       width="1024.2947"
       height="717.20831"
       x="14.033743"
       y="321.71082" />
    <g
       id="g4745"
       transform="matrix(1.172651,0,0,1.2098875,718.82732,3435.4508)"
       style="fill:#555753;fill-opacity:1">
      <g
         id="g4747"
         transform="matrix(0.95129,0,0,0.95129,-319.7124,-2517.86)"
         style="fill:#555753;fill-opacity:1;fill-rule:nonzero;stroke:none;stroke-miterlimit:4"
         inkscape:export-filename="/home/duffy/Desktop/gnome_logo_horiz.png"
         inkscape:export-xdpi="72.000000"
         inkscape:export-ydpi="72.000000">
        <g
           style="fill:#555753;fill-opacity:1"
           id="g4749">
          <path
             inkscape:connector-curvature="0"
             style="fill:#555753;fill-opacity:1"
             d="M 86.068,0 C 61.466,0 56.851,35.041 70.691,35.041 84.529,35.041 110.671,0 86.068,0 Z"
             id="path4751" />
          <path
             inkscape:connector-curvature="0"
             style="fill:#555753;fill-opacity:1"
             d="M 45.217,30.699 C 52.586,31.149 60.671,2.577 46.821,4.374 32.976,6.171 37.845,30.249 45.217,30.699 Z"
             id="path4753" />
          <path
             inkscape:connector-curvature="0"
             style="fill:#555753;fill-opacity:1"
             d="M 11.445,48.453 C 16.686,46.146 12.12,23.581 3.208,29.735 -5.7,35.89 6.204,50.759 11.445,48.453 Z"
             id="path4755" />
          <path
             inkscape:connector-curvature="0"
             style="fill:#555753;fill-opacity:1"
             d="M 26.212,36.642 C 32.451,35.37 32.793,9.778 21.667,14.369 10.539,18.961 19.978,37.916 26.212,36.642 l 0,0 z"
             id="path4757" />
          <path
             inkscape:connector-curvature="0"
             style="fill:#555753;fill-opacity:1"
             id="path4759"
             d="m 58.791,93.913 c 1.107,8.454 -6.202,12.629 -13.36,7.179 C 22.644,83.743 83.16,75.088 79.171,51.386 75.86,31.712 15.495,37.769 8.621,68.553 3.968,89.374 27.774,118.26 52.614,118.26 c 12.22,0 26.315,-11.034 28.952,-25.012 C 83.58,82.589 57.867,86.86 58.791,93.913 l 0,0 z" />
        </g>
      </g>
      <g
         transform="matrix(0.390099,0,0,0.390099,-1747.456,-2952.216)"
         style="fill:#555753;fill-opacity:1"
         id="g4761">
        <path
           inkscape:connector-curvature="0"
           style="font-style:normal;font-variant:normal;font-weight:bold;font-stretch:normal;font-size:148.699646px;line-height:125%;font-family:'Bitstream Vera Sans';text-align:start;writing-mode:lr-tb;text-anchor:start;fill:#555753;fill-opacity:1;stroke:none;stroke-width:1pt;stroke-linecap:butt;stroke-linejoin:miter;stroke-opacity:1"
           d="m 4176.2963,1214.4401 c -15.1078,0.4069 -27.0386,5.8367 -35.8126,16.25 -9.0861,10.8369 -13.6562,25.8104 -13.6562,44.9063 0,19.0432 4.5703,33.9757 13.6562,44.8124 9.1305,10.8369 21.6664,16.25 37.6563,16.25 16.034,0 28.6014,-5.4131 37.6875,-16.25 9.0859,-10.8367 13.6251,-25.7692 13.625,-44.8124 -1e-4,-19.0959 -4.5391,-34.0694 -13.625,-44.9063 -9.0861,-10.8366 -21.6536,-16.2499 -37.6875,-16.25 -0.6246,0 -1.2296,-0.016 -1.8437,0 z m 1.125,22 c 0.2415,-0.01 0.4737,0 0.7187,0 7.8833,10e-5 13.9919,3.4114 18.3125,10.25 4.3203,6.8388 6.4999,16.4913 6.5,28.9063 0,12.3623 -2.1799,21.9427 -6.5,28.7812 -4.3204,6.8389 -10.4293,10.2812 -18.3125,10.2812 -7.8391,0 -13.8983,-3.4423 -18.2187,-10.2812 -4.3204,-6.8385 -6.4999,-16.4189 -6.5,-28.7812 0,-12.4149 2.1798,-22.0675 6.5,-28.9063 4.1852,-6.6249 10.0123,-10.0428 17.5,-10.25 z"
           id="path4763" />
        <path
           inkscape:connector-curvature="0"
           style="font-style:normal;font-variant:normal;font-weight:bold;font-stretch:normal;font-size:148.699646px;line-height:125%;font-family:'Bitstream Vera Sans';text-align:start;writing-mode:lr-tb;text-anchor:start;fill:#555753;fill-opacity:1;stroke:none;stroke-width:1pt;stroke-linecap:butt;stroke-linejoin:miter;stroke-opacity:1"
           d="m 4005.6293,1325.612 c -13.3076,11.1757 -33.1067,11.0472 -41.3549,11.0472 -16.6133,0 -29.7747,-5.471 -39.4842,-16.413 -9.7097,-10.9946 -14.5644,-25.8819 -14.5644,-44.6622 0,-18.9906 4.9438,-33.9305 14.8316,-44.82 9.8878,-10.8892 23.4277,-16.3339 40.62,-16.334 6.6363,10e-5 12.9831,0.7366 19.0406,2.2094 6.1019,1.473 11.8475,3.6562 17.2368,6.5494 l -6.921,20.4608 c -3.0298,-1.6586 -6.4987,-3.2932 -9.7145,-4.4424 -5.4784,-1.8411 -10.979,-2.7617 -16.5018,-2.7618 -10.2442,10e-5 -18.15,3.3932 -23.7173,10.1792 -5.523,6.7336 -8.2844,16.3867 -8.2844,28.9594 0,12.4676 2.6723,22.0945 8.0172,28.8806 5.3446,6.7861 13.3768,10.1791 22.7818,10.1791 9.5548,0 15.4728,-2.4084 18.6291,-4.9461 l 0,-20.3835 -20.7001,0 0,-20.3584 40.0855,0"
           id="path4765"
           sodipodi:nodetypes="cscsssccccsssszccccc" />
        <path
           inkscape:connector-curvature="0"
           style="font-style:normal;font-variant:normal;font-weight:bold;font-stretch:normal;font-size:148.699646px;line-height:125%;font-family:'Bitstream Vera Sans';text-align:start;writing-mode:lr-tb;text-anchor:start;fill:#555753;fill-opacity:1;stroke:none;stroke-width:1pt;stroke-linecap:butt;stroke-linejoin:miter;stroke-opacity:1"
           d="m 4023.2108,1216.5605 16.2279,0 51.2775,70.8022 0,-70.8022 21.8853,0 0,117.8103 -16.2279,0 -51.2774,-70.8022 0,70.8022 -21.8854,0 0,-117.8103"
           id="path4767"
           sodipodi:nodetypes="ccccccccccc" />
        <path
           inkscape:connector-curvature="0"
           style="font-style:normal;font-variant:normal;font-weight:bold;font-stretch:normal;font-size:148.699646px;line-height:125%;font-family:'Bitstream Vera Sans';text-align:start;writing-mode:lr-tb;text-anchor:start;fill:#555753;fill-opacity:1;stroke:none;stroke-width:1pt;stroke-linecap:butt;stroke-linejoin:miter;stroke-opacity:1"
           d="m 4246.3361,1216.5605 32.7366,0 22.7151,73.5479 22.8487,-73.5479 27.6698,0 12.5,117.8103 -24.3186,0 -7.5,-73.668 -22.9823,74.0213 -16.3015,0 -22.9824,-76.5213 -7.5,76.168 -24.3854,0 12.5,-117.8103"
           id="path4769"
           sodipodi:nodetypes="cccccccccccccc" />
        <path
           inkscape:connector-curvature="0"
           style="font-style:normal;font-variant:normal;font-weight:bold;font-stretch:normal;font-size:148.699646px;line-height:125%;font-family:'Bitstream Vera Sans';text-align:start;writing-mode:lr-tb;text-anchor:start;fill:#555753;fill-opacity:1;stroke:none;stroke-width:1pt;stroke-linecap:butt;stroke-linejoin:miter;stroke-opacity:1"
           d="m 4382.3597,1216.5605 69.4147,0 0,22.9624 -43.6933,0 0,24.4365 33.5877,0 0,20.4623 -33.5877,0 0,26.9868 45.1631,0 0,22.9623 -70.8845,0 0,-117.8103"
           id="path4771"
           sodipodi:nodetypes="ccccccccccccc" />
      </g>
    </g>
    <flowRoot
       xml:space="preserve"
       id="flowRoot4210"
       style="fill:black;stroke:none;stroke-opacity:1;stroke-width:1px;stroke-linejoin:miter;stroke-linecap:butt;fill-opacity:1;font-family:sans-serif;font-style:normal;font-weight:normal;font-size:40px;line-height:125%;letter-spacing:0px;word-spacing:0px"><flowRegion
         id="flowRegion4212"><rect
           id="rect4214"
           width="887.92407"
           height="501.03568"
           x="-14.142136"
           y="253.16034" /></flowRegion><flowPara
         id="flowPara4216"></flowPara></flowRoot>    <flowRoot
       xml:space="preserve"
       id="flowRoot4218"
       style="font-style:normal;font-weight:normal;font-size:40px;line-height:125%;font-family:sans-serif;letter-spacing:0px;word-spacing:0px;fill:#000000;fill-opacity:1;stroke:none;stroke-width:1px;stroke-linecap:butt;stroke-linejoin:miter;stroke-opacity:1"
       transform="matrix(0.76866202,0,0,0.76866202,192.8628,495.94725)"><flowRegion
         id="flowRegion4220"><rect
           id="rect4222"
           width="1136.7202"
           height="309.28455"
           x="-124.24876"
           y="103.65777" /></flowRegion><flowPara
         style="font-style:normal;font-variant:normal;font-weight:normal;font-stretch:normal;font-size:39.99969864px;line-height:150%;font-family:'DejaVu Sans';-inkscape-font-specification:'DejaVu Sans';text-align:center;writing-mode:lr-tb;text-anchor:middle"
         id="flowPara4415">Jon Snow</flowPara><flowPara
         id="flowPara4238"
         style="font-style:normal;font-variant:normal;font-weight:200;font-stretch:normal;font-size:39.99969864px;line-height:150%;font-family:'DejaVu Sans';-inkscape-font-specification:'DejaVu Sans, Ultra-Light';text-align:center;writing-mode:lr-tb;text-anchor:middle">has successfully completed the workshop</flowPara><flowPara
         id="flowPara4232"
         style="font-style:normal;font-variant:normal;font-weight:normal;font-stretch:normal;font-size:39.99969864px;line-height:150%;font-family:'DejaVu Sans';-inkscape-font-specification:'DejaVu Sans';text-align:center;writing-mode:lr-tb;text-anchor:middle">Packaging your application using Flatpak</flowPara><flowPara
         style="font-style:normal;font-variant:normal;font-weight:200;font-stretch:normal;font-size:39.99969864px;line-height:150%;font-family:'DejaVu Sans';-inkscape-font-specification:'DejaVu Sans, Ultra-Light';text-align:center;writing-mode:lr-tb;text-anchor:middle"
         id="flowPara4240">at GUADEC in Karlsruhe, Germany on August 11th, 2016</flowPara><flowPara
         id="flowPara4230"
         style="font-style:normal;font-variant:normal;font-weight:200;font-stretch:normal;font-size:39.99969864px;line-height:150%;font-family:'DejaVu Sans';-inkscape-font-specification:'DejaVu Sans, Ultra-Light';text-align:center;writing-mode:lr-tb;text-anchor:middle" /></flowRoot>    <g
       id="g4395"
       transform="translate(-1.2802426,0)">
      <path
         inkscape:connector-curvature="0"
         id="path4248"
         d="m 73.34899,887.70734 277.79196,0"
         style="fill:none;fill-rule:evenodd;stroke:#000000;stroke-width:1px;stroke-linecap:butt;stroke-linejoin:miter;stroke-opacity:1" />
      <path
         inkscape:connector-curvature="0"
         id="path4248-9"
         d="m 387.78175,887.70734 277.79195,0"
         style="fill:none;fill-rule:evenodd;stroke:#000000;stroke-width:1px;stroke-linecap:butt;stroke-linejoin:miter;stroke-opacity:1" />
      <path
         inkscape:connector-curvature="0"
         id="path4248-9-9"
         d="m 703.78175,887.70734 277.79195,0"
         style="fill:none;fill-rule:evenodd;stroke:#000000;stroke-width:1px;stroke-linecap:butt;stroke-linejoin:miter;stroke-opacity:1" />
      <flowRoot
         transform="translate(114.85166,911.73731)"
         style="font-style:normal;font-weight:normal;font-size:30.74648094px;line-height:125%;font-family:sans-serif;letter-spacing:0px;word-spacing:0px;fill:#000000;fill-opacity:1;stroke:none;stroke-width:1px;stroke-linecap:butt;stroke-linejoin:miter;stroke-opacity:1"
         id="flowRoot4218-4"
         xml:space="preserve"><flowRegion
           id="flowRegion4220-9"><rect
             y="-13.415949"
             x="-21.024792"
             height="70.079659"
             width="236.18428"
             id="rect4222-1" /></flowRegion><flowPara
           style="font-style:normal;font-variant:normal;font-weight:200;font-stretch:normal;font-size:15px;line-height:150%;font-family:'DejaVu Sans';-inkscape-font-specification:'DejaVu Sans, Ultra-Light';text-align:center;writing-mode:lr-tb;text-anchor:middle"
           id="flowPara4230-0">David King</flowPara><flowPara
           id="flowPara4391"
           style="font-style:normal;font-variant:normal;font-weight:200;font-stretch:normal;font-size:15px;line-height:150%;font-family:'DejaVu Sans';-inkscape-font-specification:'DejaVu Sans, Ultra-Light';text-align:center;writing-mode:lr-tb;text-anchor:middle">Instructor</flowPara></flowRoot>      <flowRoot
         transform="translate(425.65502,911.73731)"
         style="font-style:normal;font-weight:normal;font-size:30.74648094px;line-height:125%;font-family:sans-serif;letter-spacing:0px;word-spacing:0px;fill:#000000;fill-opacity:1;stroke:none;stroke-width:1px;stroke-linecap:butt;stroke-linejoin:miter;stroke-opacity:1"
         id="flowRoot4218-4-1"
         xml:space="preserve"><flowRegion
           id="flowRegion4220-9-5"><rect
             y="-13.415949"
             x="-21.024792"
             height="60.988289"
             width="245.27565"
             id="rect4222-1-4" /></flowRegion><flowPara
           id="flowPara4385"
           style="font-style:normal;font-variant:normal;font-weight:200;font-stretch:normal;font-size:15px;line-height:150%;font-family:'DejaVu Sans';-inkscape-font-specification:'DejaVu Sans, Ultra-Light';text-align:center;writing-mode:lr-tb;text-anchor:middle">Alexander Larsson</flowPara><flowPara
           id="flowPara4389"
           style="font-style:normal;font-variant:normal;font-weight:200;font-stretch:normal;font-size:15px;line-height:150%;font-family:'DejaVu Sans';-inkscape-font-specification:'DejaVu Sans, Ultra-Light';text-align:center;writing-mode:lr-tb;text-anchor:middle">Instructor</flowPara></flowRoot>      <flowRoot
         transform="translate(721.76952,909.717)"
         style="font-style:normal;font-weight:normal;font-size:30.74648094px;line-height:125%;font-family:sans-serif;letter-spacing:0px;word-spacing:0px;fill:#000000;fill-opacity:1;stroke:none;stroke-width:1px;stroke-linecap:butt;stroke-linejoin:miter;stroke-opacity:1"
         id="flowRoot4218-4-1-2"
         xml:space="preserve"><flowRegion
           id="flowRegion4220-9-5-2"><rect
             y="-13.415949"
             x="-21.024792"
             height="80.18119"
             width="283.66144"
             id="rect4222-1-4-7" /></flowRegion><flowPara
           style="font-style:normal;font-variant:normal;font-weight:200;font-stretch:normal;font-size:15px;line-height:150%;font-family:'DejaVu Sans';-inkscape-font-specification:'DejaVu Sans, Ultra-Light';text-align:center;writing-mode:lr-tb;text-anchor:middle"
           id="flowPara4230-0-1-0">Samwell Tarly</flowPara><flowPara
           id="flowPara4393"
           style="font-style:normal;font-variant:normal;font-weight:200;font-stretch:normal;font-size:15px;line-height:150%;font-family:'DejaVu Sans';-inkscape-font-specification:'DejaVu Sans, Ultra-Light';text-align:center;writing-mode:lr-tb;text-anchor:middle">President, GNOME Foundation</flowPara></flowRoot>    </g>
  </g>
</svg>
