<?xml version="1.0" encoding="UTF-8" standalone="no"?>
<!-- Created with Inkscape (http://www.inkscape.org/) -->

<svg
   xmlns:dc="http://purl.org/dc/elements/1.1/"
   xmlns:cc="http://creativecommons.org/ns#"
   xmlns:rdf="http://www.w3.org/1999/02/22-rdf-syntax-ns#"
   xmlns:svg="http://www.w3.org/2000/svg"
   xmlns="http://www.w3.org/2000/svg"
   xmlns:sodipodi="http://sodipodi.sourceforge.net/DTD/sodipodi-0.dtd"
   xmlns:inkscape="http://www.inkscape.org/namespaces/inkscape"
   width="531.49603"
   height="531.49603"
   id="svg9270"
   version="1.1"
   inkscape:version="0.48.4 r9939"
   sodipodi:docname="New document 23">
  <defs
     id="defs9272" />
  <sodipodi:namedview
     id="base"
     pagecolor="#ffffff"
     bordercolor="#666666"
     borderopacity="1.0"
     inkscape:pageopacity="0.0"
     inkscape:pageshadow="2"
     inkscape:zoom="1"
     inkscape:cx="278.66312"
     inkscape:cy="86.201793"
     inkscape:current-layer="layer1"
     inkscape:document-units="px"
     showgrid="false"
     units="cm"
     inkscape:window-width="1920"
     inkscape:window-height="1021"
     inkscape:window-x="0"
     inkscape:window-y="27"
     inkscape:window-maximized="1" />
  <metadata
     id="metadata9275">
    <rdf:RDF>
      <cc:Work
         rdf:about="">
        <dc:format>image/svg+xml</dc:format>
        <dc:type
           rdf:resource="http://purl.org/dc/dcmitype/StillImage" />
        <dc:title></dc:title>
      </cc:Work>
    </rdf:RDF>
  </metadata>
  <g
     id="layer1"
     inkscape:label="Layer 1"
     inkscape:groupmode="layer"
     transform="translate(0,-68.503747)">
    <path
       style="font-size:medium;font-style:normal;font-variant:normal;font-weight:normal;font-stretch:normal;text-indent:0;text-align:start;text-decoration:none;line-height:normal;letter-spacing:normal;word-spacing:normal;text-transform:none;direction:ltr;block-progression:tb;writing-mode:lr-tb;text-anchor:start;baseline-shift:baseline;color:#000000;fill:#2e3436;fill-opacity:1;fill-rule:nonzero;stroke:none;stroke-width:2.81839633;marker:none;visibility:visible;display:inline;overflow:visible;enable-background:accumulate;font-family:Sans;-inkscape-font-specification:Sans"
       d="m 266.12509,78.333477 c -141.54151,0 -256.4263755,114.926513 -256.4263755,256.467263 0,141.54356 114.8848655,256.42671 256.4263755,256.42625 141.5416,0 256.63074,-114.88269 256.63074,-256.42625 0,-141.53935 -115.08914,-256.467263 -256.63074,-256.467263 z m 0,16.680649 c 132.59408,0 239.94991,107.192644 239.94991,239.786614 0,66.91604 -27.34532,127.39876 -71.46569,170.89598 l -21.01456,-10.34336 0,-18.76573 -26.82007,-16.14924 -5.19228,-22.48652 -53.19054,0 0.49067,-8.87173 -3.55689,-7.27797 -3.06638,8.05458 0,9.40314 -7.60446,-0.32631 -6.95032,8.38181 0,10.38438 -6.95036,16.63963 -26.53389,10.67106 -38.47214,-0.49225 -8.09509,-33.93373 -7.27741,15.49478 -5.02876,0 0,-27.47431 -4.98788,-6.95027 -2.90279,-41.25225 -3.10721,41.25225 -4.66079,6.95027 0,24.08121 -1.96243,3.3931 -1.9216,0 -2.45306,-3.3931 0,-24.08121 -3.72047,-6.95027 -2.73928,-40.7614 -2.73922,40.7614 -3.884,6.95027 0,26.20685 -7.9316,9.5262 -6.62322,0 -3.72051,-33.32074 -3.5569,33.32074 -5.64203,0 -14.22772,16.80371 -21.50514,0 -6.62331,7.76789 -15.863072,3.55671 C 52.391966,459.22874 26.502236,400.0722 26.502236,334.79981 26.502236,202.20583 133.53111,95.013664 266.12514,95.013664 z M 183.25257,251.19241 c -8.95018,0 -10.6361,12.75568 -5.60113,12.75568 5.03425,0 14.55174,-12.75568 5.60113,-12.75568 z m -14.26861,1.59469 c -5.03678,0.65308 -3.25431,9.40268 -0.57238,9.56629 2.68086,0.16316 5.61103,-10.22029 0.57238,-9.56629 z m -8.42217,3.43412 c -0.22095,0 -0.48298,0.0979 -0.73592,0.2051 -4.04835,1.67114 -0.59162,8.55849 1.67627,8.09513 2.12793,-0.43818 2.37284,-8.65078 -0.94035,-8.2993 z m -6.29617,5.39659 c -0.35241,0 -0.73951,0.0886 -1.14477,0.36826 -3.2407,2.23891 1.07788,7.66628 2.98455,6.82767 1.66835,-0.73511 0.62414,-7.11341 -1.83978,-7.19593 z m 141.41881,0.0512 c -3.1438,0 -5.95481,1.39518 -7.60446,3.10734 -1.71197,1.77415 -2.98455,4.56965 -2.98455,7.93198 0,3.29893 0.97294,5.9681 2.9028,8.05364 1.7742,1.80492 4.47651,3.06631 7.9315,3.06631 2.42789,0 4.6117,-0.43351 6.54151,-1.308 l -0.65415,-2.04406 c -1.71197,0.6843 -3.39859,1.02179 -5.11052,1.02179 -1.68084,0 -3.23087,-0.35893 -4.53819,-1.10383 -2.45897,-1.40078 -4.17015,-4.0541 -4.17015,-7.72687 0,-2.5214 0.79542,-4.52397 2.28948,-6.17414 1.24508,-1.33831 3.41859,-2.49389 5.84648,-2.49389 2.45898,0 3.35398,0.25639 5.31497,0.94022 l 0.73586,-2.16666 c -2.05431,-0.74723 -3.66808,-1.10383 -6.50058,-1.10383 z m 49.83796,0.16314 c -2.1166,0 -3.66659,0.77428 -4.53814,2.33029 -0.3114,0.56077 -0.44983,1.51357 -0.44983,2.82112 l 0,1.51311 -2.16685,0 0,1.96202 2.16685,0 0.042,13.0419 2.49394,0 0,-13.0419 4.98788,0 0,-1.96202 -4.98788,0 0,-1.43107 c 0,-0.40555 0.009,-0.72253 0.042,-0.94022 0.18646,-1.24508 1.4459,-2.24917 3.18901,-2.24917 0.68482,0 1.48809,0.11654 2.45306,0.36827 l 0.40881,-1.88045 c -1.05829,-0.31232 -2.36248,-0.53188 -3.63866,-0.53188 z m -252.37882,0.0839 0,2.28973 7.1957,0 0,19.29713 2.57565,0 0,-19.29713 7.19565,0 0,-2.28973 z m 19.17477,0.73606 0,20.8508 2.57571,0 0,-12.14222 c 1.52518,-0.74724 2.86471,-1.1444 4.04751,-1.14486 2.42793,0 3.31166,1.14812 3.31166,3.63875 l 0,9.64833 2.53482,0 0,-10.22076 c 0,-3.17541 -1.72149,-5.19242 -4.86523,-5.19242 -1.55633,0 -3.22342,0.4475 -5.02876,1.34902 l 0,-6.78664 z m 161.16593,0.49225 0,0.36826 1.18565,0 0,2.94372 0.44983,0 0,-2.94372 1.18565,0 0,-0.36826 -2.82103,0 z m 3.27078,0 0,3.31152 0.44983,0 0,-2.94373 0.8586,2.28926 0.44983,0 0.85854,-2.28926 0,2.94373 0.44984,0 0,-3.31152 -0.65414,0 -0.8586,2.2487 -0.85856,-2.2487 -0.69502,0 z m -105.31802,2.61649 c -6.73585,0.31232 -14.88846,3.82242 -16.35374,10.38438 -1.69272,7.57491 6.98984,18.0707 16.02668,18.0707 4.44562,0 9.54793,-3.99069 10.50722,-9.07543 0.73273,-3.87789 -8.59475,-2.32096 -8.25856,0.24705 0.40228,3.07565 -2.2612,4.55846 -4.86523,2.57641 -8.28994,-6.31212 13.71649,-9.44836 12.26523,-18.07164 -0.45169,-2.68362 -3.8447,-4.05876 -8.01332,-4.12914 -0.43445,0 -0.8592,0 -1.30828,0 z m 26.12509,0.49225 c -2.5648,0 -4.57581,0.82881 -6.05089,2.45287 -1.47508,1.62453 -2.20773,3.83127 -2.20773,6.66406 0,2.80155 0.7183,5.02414 2.16684,6.66452 1.44847,1.63198 3.40886,2.45287 5.88732,2.45287 1.23054,0 4.18829,0.0512 6.17352,-1.63571 l 0,-8.46245 -5.96906,0 0,3.06631 3.06631,0 0,3.02483 c -0.47067,0.37759 -1.35472,0.73652 -2.78015,0.73652 -1.40306,0 -2.59607,-0.5025 -3.39342,-1.51312 -0.79734,-1.01201 -1.18565,-2.47384 -1.18565,-4.33377 0,-1.87532 0.40229,-3.28821 1.22658,-4.29229 0.83053,-1.01294 1.98774,-1.51266 3.51601,-1.51312 0.82392,4.6e-4 1.67665,0.13518 2.49394,0.41021 0.47996,0.16781 0.97897,0.40555 1.43098,0.654 l 1.02209,-3.06679 c -0.80402,-0.42885 -1.66542,-0.76122 -2.57571,-0.98077 -0.90363,-0.21909 -1.83098,-0.32631 -2.82098,-0.32631 z m 31.44001,0 c -2.25388,0.0606 -4.04687,0.89967 -5.35586,2.45287 -1.35551,1.6166 -2.04419,3.85644 -2.04419,6.70508 0,2.84117 0.68873,5.04746 2.04419,6.66405 1.36214,1.6166 3.21572,2.41232 5.60119,2.41232 2.392,0 4.28656,-0.79572 5.64198,-2.41232 1.35551,-1.61659 2.04425,-3.82288 2.04425,-6.66405 0,-2.84864 -0.68874,-5.08848 -2.04425,-6.70508 -1.35542,-1.6166 -3.24998,-2.45287 -5.64198,-2.45287 -0.0932,0 -0.15383,0 -0.24519,0 z m -22.85431,0.32631 0,17.5803 3.27072,0 0,-10.54846 7.6454,10.54846 2.41213,0 0,-17.5803 -3.27073,0 0,10.54799 -7.64535,-10.54799 z m 34.01571,0 -1.8398,17.5803 3.63872,0 1.10388,-11.36608 3.4343,11.4071 2.41213,0 3.43429,-11.03931 1.14478,10.99829 3.59782,0 -1.8398,-17.5803 -4.12932,0 -3.43425,10.9568 -3.35254,-10.9568 z m 19.54271,0 0,17.5803 10.58906,0 0,-3.43457 -6.74596,0 0,-4.00655 5.02881,0 0,-3.06631 -5.02881,0 0,-3.63829 6.54156,0 0,-3.43458 z m 71.17956,1.63525 c -1.58743,0 -3.45709,0.47686 -5.35581,1.47208 l -0.49067,-1.10383 -1.75803,0 0,14.92234 2.53482,0 0,-12.06066 c 1.5252,-0.716 2.94652,-1.10431 4.12932,-1.10431 1.18277,0 1.99592,0.29834 2.49394,0.85912 0.49786,0.56031 0.77679,1.50379 0.77679,2.77964 l 0,9.52621 2.49394,0 0,-10.18022 c 0,-1.618 -0.38596,-2.85842 -1.22653,-3.76135 -0.84041,-0.90245 -2.01035,-1.34902 -3.59782,-1.34902 z m 72.44697,0 c -1.58741,0 -3.41621,0.47686 -5.31493,1.47208 l -0.49067,-1.10383 -1.79885,0 0,14.92234 2.5757,0 0,-12.06066 c 1.52519,-0.716 2.94647,-1.10431 4.12928,-1.10431 1.18285,0 1.99595,0.29834 2.49394,0.85912 0.49789,0.56031 0.73595,1.50379 0.73595,2.77964 l 0,9.52621 2.53478,0 0,-10.18022 c 0,-1.618 -0.427,-2.85842 -1.26737,-3.76135 -0.84042,-0.90245 -2.01036,-1.34902 -3.59788,-1.34902 z m -268.03747,0.0512 c -2.17883,0 -3.89658,0.77428 -5.11057,2.33029 -1.15162,1.55693 -1.71711,3.44203 -1.71711,5.68327 0,4.8554 2.64563,7.5227 7.56363,7.5227 1.6808,0 3.29912,-0.28901 4.82431,-0.81763 l 0,-2.0035 c -1.46296,0.46661 -2.82197,0.69503 -4.12933,0.69503 -1.89867,0 -3.29865,-0.45682 -4.17021,-1.39006 -0.87151,-0.93369 -1.3784,-2.1247 -1.47176,-3.55717 l 10.18016,0 0.16362,-0.24707 0,-1.34949 c 0,-4.29509 -2.17967,-6.86777 -6.13269,-6.86823 z m 177.11081,0 c -4.60672,0 -7.27738,3.13999 -7.27738,7.80892 0,4.70017 2.5889,7.7679 7.19561,7.7679 4.57557,0 7.27741,-3.10875 7.27741,-7.80845 0,-4.66941 -2.5889,-7.76837 -7.19564,-7.76837 z m 45.38156,0 c -2.17882,0 -3.85569,0.77428 -5.06964,2.33029 -1.15171,1.55693 -1.75798,3.44203 -1.75798,5.68327 0,4.85586 2.64558,7.5227 7.56357,7.5227 1.68084,0 3.29913,-0.28901 4.82437,-0.81763 l 0,-2.0035 c -1.46297,0.46661 -2.82202,0.69503 -4.12933,0.69503 -1.89872,0 -3.2987,-0.45682 -4.17021,-1.39006 -0.87151,-0.93369 -1.37844,-2.1247 -1.47182,-3.55717 l 10.2211,0 0.16361,-0.24707 0,-1.34949 c 0,-4.29509 -2.2204,-6.86777 -6.17348,-6.86823 z m 16.92612,0 c -1.4629,0 -2.83176,0.52675 -4.17021,1.55368 l -0.53149,-1.26745 -1.8398,0 0,14.96382 2.5757,0 0,-11.89751 c 1.08944,-0.716 2.22036,-1.10383 3.43431,-1.10383 0.74704,0 1.47045,0.18179 2.24864,0.49225 l 0.32725,0 0,-2.45335 c -0.65368,-0.18645 -1.3283,-0.28901 -2.04425,-0.28901 z m 11.52939,0 c -2.17888,0 -3.85575,0.77428 -5.06964,2.33029 -1.15172,1.55693 -1.75804,3.44203 -1.75804,5.68327 0,4.85586 2.64563,7.5227 7.56359,7.5227 1.68088,0 3.29916,-0.28901 4.82435,-0.81763 l 0,-2.0035 c -1.46296,0.46661 -2.82202,0.69503 -4.12933,0.69503 -1.89872,0 -3.29865,-0.45682 -4.17021,-1.39006 -0.87155,-0.93369 -1.37844,-2.1247 -1.47181,-3.55717 l 10.22109,0 0.1226,-0.24707 0,-1.34949 c 0,-4.29509 -2.17957,-6.86777 -6.1326,-6.86823 z m 32.25773,0 c -2.13841,0.16316 -3.74862,0.91412 -4.86523,2.24871 -1.21394,1.46277 -1.8398,3.40894 -1.8398,5.80587 0,4.73093 2.47604,7.56326 7.11389,7.56326 0.0326,0 0.0919,0 0.1226,-0.0512 1.30731,0 2.65658,-0.29833 4.08844,-0.85818 l -0.61327,-1.67673 c -0.96492,0.34495 -1.85797,0.49225 -2.69838,0.49225 -0.24893,0 -0.47734,0 -0.69504,-0.0512 -3.29939,-0.37292 -4.86523,-2.25522 -4.86523,-5.92847 0,-3.51709 1.73538,-5.47818 5.31497,-5.47818 0.90265,0 1.95554,0.20977 3.10717,0.61298 l 0.6133,-1.79886 c -1.36958,-0.59108 -2.62921,-0.8992 -3.84315,-0.89966 -0.32677,0 -0.63481,0 -0.94032,0 z m 14.7183,0 c -2.17882,0 -3.85569,0.77428 -5.06963,2.33029 -1.15167,1.55693 -1.75804,3.44203 -1.75804,5.68327 0,4.85586 2.64562,7.5227 7.56363,7.5227 1.68089,0 3.29912,-0.28901 4.8243,-0.81763 l 0,-2.0035 c -1.46296,0.46661 -2.82201,0.69503 -4.12928,0.69503 -1.89871,0 -3.29865,-0.45682 -4.1702,-1.39006 -0.87156,-0.93369 -1.37845,-2.1247 -1.47186,-3.55717 l 10.22113,0 0.16362,-0.24707 0,-1.34949 c 0,-4.29509 -2.22045,-6.86777 -6.17358,-6.86823 z m -204.05356,1.30848 c 0.0373,-9.2e-4 0.0466,0 0.0815,0 1.17605,0 2.09469,0.49226 2.73923,1.51266 0.64455,1.02039 0.98124,2.48131 0.98124,4.33331 0,1.84454 -0.33702,3.2733 -0.98124,4.29323 -0.6445,1.02039 -1.56318,1.51264 -2.73923,1.51264 -1.16947,0 -2.05384,-0.49225 -2.69834,-1.51264 -0.64459,-1.01993 -0.98124,-2.44869 -0.98124,-4.29323 0,-1.852 0.33702,-3.31292 0.98124,-4.33331 0.62436,-0.98824 1.49951,-1.48189 2.61658,-1.51266 z m 83.19962,0.69456 c 3.05037,0 4.6199,2.63094 4.6199,5.80588 0,3.23739 -1.56953,5.7243 -4.6199,5.7243 -3.05043,0 -4.61995,-2.5489 -4.61995,-5.7243 0,-3.1437 1.56952,-5.80588 4.61995,-5.80588 z m -176.86552,0.0512 c 2.33447,0 3.39337,2.02867 3.39337,4.45637 l -7.76803,0 c 0.28015,-2.39694 1.57325,-4.45637 4.37466,-4.45637 z m 222.49238,0 c 2.33447,0 3.39338,2.02867 3.39338,4.45637 l -7.72712,0 c 0.28016,-2.39694 1.53237,-4.45637 4.33374,-4.45637 z m 28.4555,0 c 2.33447,0 3.39337,2.02867 3.39337,4.45637 l -7.76803,0 c 0.28015,-2.39694 1.57324,-4.45637 4.37466,-4.45637 z m 46.97608,0 c 2.33452,0 3.39333,2.02867 3.39333,4.45637 l -7.72711,0 c 0.28016,-2.39694 1.53232,-4.45637 4.33378,-4.45637 z m -309.73955,27.47396 c -19.47535,0 -30.172613,14.30656 -30.172613,29.51883 0,14.29351 9.564243,29.76356 30.377053,29.76356 13.95876,0 20.55845,-6.94048 22.73167,-9.28054 l 0,-23.83556 -26.41125,0 0,9.03536 16.27193,0 0,11.12043 c -2.50756,2.0063 -6.19082,3.43411 -11.03877,3.43411 -12.5378,0 -21.54602,-8.61023 -21.54602,-20.64617 0,-12.3711 9.87311,-19.66538 20.23774,-19.66538 5.85099,0 11.41941,2.08926 14.59569,3.76135 l 1.51275,0.85864 4.2928,-8.13615 -1.43093,-0.81763 c -4.93151,-2.75819 -11.64662,-5.11085 -19.42005,-5.11085 z m 291.178,0 c -18.8067,0 -30.74499,12.80136 -30.74499,29.51883 0,16.46622 11.44771,29.76356 30.25441,29.76356 5.34947,0 11.64205,-1.25207 17.74379,-3.84292 l 1.47181,-0.61345 -3.31161,-8.1767 -1.51274,0.49225 c -4.51361,1.58816 -8.87373,2.41185 -12.55146,2.41231 -13.5408,0 -21.70958,-9.33274 -21.70958,-20.11523 0,-10.44824 7.57546,-19.91105 20.19689,-19.91105 2.59109,0 6.85131,0.35894 13.28737,2.61696 l 1.5945,0.57243 3.18902,-8.87173 -1.5128,-0.57243 c -6.10174,-2.42443 -11.88095,-3.27097 -16.39461,-3.27049 z m -255.64955,0.41021 0,37.69507 0,0.53188 c 0,6.43564 0.34961,20.64617 23.7538,20.64617 22.73516,0 23.71291,-14.72888 23.71291,-21.75 0,-3.76089 -0.0816,0 -0.0816,-37.12312 l -10.18016,0 0,36.79587 c 0,1.75552 -0.15429,3.44251 -0.57243,4.94677 -1.25375,5.01529 -6.02455,7.7679 -12.87851,7.7679 -6.68684,0 -9.87222,-2.6743 -10.87524,-3.76135 -2.34039,-2.50742 -2.57575,-5.44276 -2.57575,-8.95332 l 0,-36.79587 -10.30285,0 z m 77.51662,0 -21.62774,58.01494 10.01664,0 5.76467,-15.20948 21.34162,0 5.84643,15.20948 10.58902,0 -21.70955,-58.01494 z m 40.35286,0 0,58.01494 14.47306,0 c 4.84794,0 9.95031,0.0512 14.88188,-1.22644 16.13194,-3.84525 20.81011,-17.65163 20.81011,-29.43725 0,-12.78831 -6.71514,-27.35125 -30.70415,-27.35125 z m 61.04029,0 0,58.01494 38.55386,0 0,-9.44463 -28.25105,0 0,-15.6994 26.0842,0 0,-9.44416 -26.0842,0 0,-13.98259 28.25105,0 0,-9.44416 z m -50.73748,9.44416 9.4443,0 c 1.75533,0 3.3998,0.11654 4.98788,0.36827 6.93759,1.08705 15.12721,6.51768 15.12721,18.88832 0,5.43249 -1.49093,8.91182 -2.49394,10.83422 -4.76441,8.77663 -14.04883,9.03581 -20.4013,9.03534 l -6.66415,0 z m -45.79044,2.45288 7.35923,21.54629 -14.80016,0 z M 220.696,509.94379 c 1.72684,0 2.71326,0.20045 3.96571,0.65448 l -0.40881,1.34903 c -1.19563,-0.41953 -1.77159,-0.57243 -3.27077,-0.57243 -1.48017,0 -2.79788,0.69689 -3.55695,1.51265 -0.91086,1.00595 -1.3901,2.22447 -1.3901,3.76135 0,2.23938 1.03569,3.84805 2.53487,4.70204 0.79707,0.45683 1.75537,0.654 2.78015,0.654 1.04366,0 2.06345,-0.19578 3.10715,-0.61298 l 0.40882,1.26745 c -1.17656,0.53328 -2.4855,0.77661 -3.96575,0.77661 -2.10644,0 -3.78354,-0.78033 -4.86524,-1.88044 -1.17656,-1.27212 -1.75803,-2.85376 -1.75803,-4.86566 0,-2.04872 0.75515,-3.78372 1.79896,-4.86519 1.00572,-1.04324 2.70324,-1.88091 4.61989,-1.88091 z m 41.21137,0 c 1.72689,0 2.71326,0.20045 3.96576,0.65448 l -0.44983,1.34903 c -1.19554,-0.41953 -1.73068,-0.57243 -3.22986,-0.57243 -1.48015,0 -2.79782,0.69689 -3.55694,1.51265 -0.91085,1.00595 -1.39006,2.22447 -1.39006,3.76135 0,2.23938 1.03564,3.84805 2.53482,4.70204 0.79707,0.45683 1.7145,0.654 2.73924,0.654 1.04375,0 2.06349,-0.19578 3.1072,-0.61298 l 0.40881,1.26745 c -1.17656,0.53328 -2.4856,0.77661 -3.9658,0.77661 -2.10648,0 -3.74267,-0.78033 -4.82431,-1.88044 -1.17656,-1.27212 -1.79891,-2.85376 -1.79891,-4.86566 0,-2.04872 0.79599,-3.78372 1.83979,-4.86519 1.00576,-1.04324 2.70324,-1.88091 4.6199,-1.88091 z m 129.19441,0 c 1.72685,0 2.71326,0.20045 3.96575,0.65448 l -0.44983,1.34903 c -1.19553,-0.41953 -1.73067,-0.57243 -3.22989,-0.57243 -1.48021,0 -2.79783,0.69689 -3.55691,1.51265 -0.9109,1.00595 -1.39004,2.22447 -1.39004,3.76135 0,2.23938 1.03564,3.84805 2.53482,4.70204 0.79702,0.45683 1.71449,0.654 2.73922,0.654 1.04375,0 2.06349,-0.19578 3.10721,-0.61298 l 0.40881,1.26745 c -1.17656,0.53328 -2.4856,0.77661 -3.96581,0.77661 -2.10642,0 -3.74261,-0.78033 -4.8243,-1.88044 -1.17657,-1.27212 -1.79892,-2.85376 -1.79892,-4.86566 0,-2.04872 0.79599,-3.78372 1.8398,-4.86519 1.00576,-1.04324 2.70328,-1.88091 4.61989,-1.88091 z m -203.46791,0.0513 c 2.67578,0 4.52966,1.32945 5.47851,3.18938 0.5127,1.02413 0.77678,2.18763 0.77678,3.5157 0,2.77264 -1.2007,4.86332 -2.98456,5.88791 -0.9488,0.55053 -2.01819,0.81809 -3.27073,0.81716 -2.71363,0 -4.54863,-1.30988 -5.4785,-3.18845 -0.51224,-1.00736 -0.77679,-2.18811 -0.77679,-3.51662 0,-2.7694 1.14086,-4.82324 2.94364,-5.88699 0.94889,-0.54865 2.0592,-0.81669 3.31165,-0.81809 z m -50.36945,0.0839 4.66078,0 c 2.06853,0 3.59787,1.19614 3.59787,3.18939 0,1.08193 -0.91719,2.37269 -1.67632,2.6575 1.49923,0.28901 2.78016,1.625 2.78016,3.35208 0,1.10104 -0.43212,2.02121 -1.26741,2.7801 -0.89197,0.79758 -2.15123,1.22644 -3.80223,1.22644 l -4.29285,0 z m 14.47301,0 4.78352,0 c 1.40427,0 2.20064,0.21909 2.9028,0.94069 0.62627,0.66426 0.98119,1.55553 0.98119,2.65751 l 0,0.0512 c 0,2.12517 -1.12196,3.54692 -2.94372,3.92497 l 3.72052,5.64179 -1.75799,0 -3.59788,-5.51966 -1.14471,0 -1.3901,0 0,5.51966 -1.55363,0 0,-13.20551 z m 13.77804,0 2.00336,0 7.15472,11.03885 0,-11.03885 1.59451,0 0,13.20551 -2.00337,0 -7.15472,-11.07895 0,11.07895 -1.5945,0 z m 63.1938,0 10.09845,0 0,1.02273 -8.25865,10.79272 8.50394,0 0,1.39006 -10.58902,0 0,-1.02179 8.09508,-10.79366 -7.8498,0 z m 14.67748,0 7.72714,0 0,1.39006 -6.13264,0 0,4.33423 5.60114,0 0,1.3896 -5.60114,0 0,4.70156 6.13264,0 0,1.39006 -7.72714,0 z m 51.75955,0 4.82435,0 c 1.40427,0 2.20063,0.21909 2.90279,0.94069 0.62628,0.66426 0.94027,1.55553 0.94027,2.65751 l 0,0.0512 c 0,2.12517 -1.12183,3.54692 -2.94363,3.92497 l 3.72051,5.64179 -1.75808,0 -3.55693,-5.51966 -1.18565,0 -1.39006,0 0,5.51966 -1.55357,0 0,-13.20551 z m 13.81887,0 7.68622,0 0,1.39006 -6.1326,0 0,4.33423 5.60109,0 0,1.3896 -5.60109,0 0,4.70156 6.1326,0 0,1.39006 -7.68622,0 z m 26.45213,0 1.59451,0 0,8.54496 c 0,1.19567 0.10677,1.80773 0.69507,2.45334 0.55029,0.64328 1.52178,1.0218 2.69835,1.0218 1.63203,4.6e-4 2.95099,-0.73791 3.31161,-2.08509 0.0969,-0.35893 0.24805,-0.85402 0.12259,-1.39005 l 0,-8.54496 1.59451,0 0,8.17717 0,0.77707 c -0.0569,3.13111 -1.84058,4.41489 -5.02876,4.41489 -1.97358,0 -3.3352,-0.49225 -4.17016,-1.55368 -0.62613,-0.74024 0.29678,-2.42819 -0.81772,-2.86121 l 0,-0.77707 0,-0.73605 z m 15.74047,0 4.61991,0 c 2.06852,0 3.59786,1.19614 3.59786,3.18939 0,1.08193 -0.91719,2.37269 -1.67626,2.6575 1.49918,0.28901 2.78015,1.625 2.78015,3.35208 0,1.10104 -0.43211,2.02121 -1.26746,2.7801 -0.89193,0.79758 -2.15122,1.22644 -3.80222,1.22644 l -4.25198,0 z m 14.43214,0 1.55366,0 0,11.81545 5.9282,0 0,1.39006 -7.48186,0 z m 12.38797,0 1.55363,0 0,13.20551 -1.55363,0 z m -106.99424,0.0512 1.63539,0 0,5.80588 7.3183,0 0,-5.80588 1.67622,0 0,13.16496 -1.67622,0 0,-5.92801 -7.3183,0 0,5.92801 -1.63539,0 z m 50.57391,0 4.12928,0 c 1.80282,0 2.78478,0.10249 3.63876,0.90014 0.64495,0.66379 0.94031,1.53129 0.94031,2.57546 0,2.01236 -0.89403,3.35114 -2.41218,3.84339 -0.68323,0.22376 -2.04741,0.36827 -3.14808,0.36827 -0.49328,0 -1.02227,0 -1.55359,-0.0512 l 0,5.5192 -1.5945,0 0,-13.16449 z m -182.69863,1.18589 0,4.41535 1.67622,-0.0512 c 2.33415,-0.056 3.47519,-0.83115 3.47519,-2.33028 0,-1.36628 -1.02255,-2.04452 -2.61663,-2.04452 l -2.53478,0 z m 213.85248,0 0,4.41535 1.67622,-0.0512 c 2.33419,-0.056 3.47523,-0.83115 3.47523,-2.33028 0,-1.36628 -1.02259,-2.04452 -2.61668,-2.04452 l -2.53477,0 z m -165.07753,0.0839 c -1.9546,0 -3.21982,1.17189 -3.88399,2.57639 -0.37944,0.79666 -0.57238,1.71403 -0.57238,2.73863 0,2.10792 0.83547,3.76601 2.126,4.62045 0.68309,0.45684 1.47639,0.69456 2.33037,0.69456 1.93568,0 3.20086,-1.15184 3.88399,-2.57546 0.37945,-0.79711 0.57239,-1.71496 0.57239,-2.73955 0,-2.08649 -0.8545,-3.74691 -2.12597,-4.61953 -0.68314,-0.45683 -1.47642,-0.69549 -2.33041,-0.69549 z m 135.51818,0.0839 0,4.9062 c 0.60726,0.0746 1.18263,0.0839 1.67623,0.0839 0.72113,-4.6e-4 1.74619,-0.0932 2.12601,-0.20509 0.94884,-0.22375 1.71715,-1.15698 1.71715,-2.37177 0,-1.42315 -0.8765,-2.17971 -2.1669,-2.33027 -0.24659,-0.056 -0.82233,-0.0839 -1.67626,-0.0839 l -1.67623,0 z m -169.86099,0.0512 0,4.90621 1.59446,0 c 0.85398,0 1.34512,-0.0512 1.55362,-0.0512 1.08174,-0.0932 1.80623,-0.53327 2.1669,-1.34902 0.15196,-0.34496 0.24519,-0.72161 0.24519,-1.06283 0,-1.30988 -0.75805,-2.14381 -1.83975,-2.37175 -0.28482,-0.0512 -0.72006,-0.0839 -1.30829,-0.0839 l -2.41217,0 z m 143.40881,0 0,4.90621 1.59451,0 c 0.85393,0 1.34507,-0.0512 1.55363,-0.0512 1.08165,-0.0932 1.80618,-0.53327 2.16683,-1.34902 0.15198,-0.34496 0.24521,-0.72161 0.24521,-1.06283 0,-1.30988 -0.75816,-2.14381 -1.8398,-2.37175 -0.28481,-0.0512 -0.71997,-0.0839 -1.3083,-0.0839 l -2.41222,0 z m -155.55146,5.31502 -2.28949,0.1212 0,4.94769 2.90275,0 c 1.7649,0 3.31161,-0.68896 3.31161,-2.45379 0,-1.78302 -5.47365,-2.61603 -3.55694,-2.61603 l -0.36825,0 z m 213.85248,0 -2.28949,0.1212 0,4.94769 2.90279,0 c 1.76489,0 3.31157,-0.68896 3.31157,-2.45379 0,-1.78302 -1.59931,-2.61603 -3.51601,-2.61603 l -0.40881,0 z m -95.4173,21.99613 c 0.83441,0 1.55451,0.21443 2.28954,0.61252 1.96682,1.11364 2.94367,3.1563 2.94367,6.25571 0,3.33715 -1.04454,5.73549 -3.22985,6.82768 -0.63578,0.31698 -1.32908,0.45215 -2.04424,0.45215 -0.71526,0 -1.38861,-0.15382 -2.0442,-0.49225 -2.08607,-1.05303 -3.18901,-3.48771 -3.18901,-6.74609 0,-2.16526 0.49835,-3.83594 1.47186,-5.02834 1.01322,-1.25207 2.29232,-1.88044 3.80223,-1.88044 z m 24.77586,0 c 2.16554,0 4.2111,1.20407 4.2111,3.2705 0,1.56905 -0.95379,2.71298 -2.12597,3.14837 1.60924,0.45682 2.73928,1.44319 2.73928,3.31104 0,1.39052 -0.49944,2.53912 -1.51275,3.39402 -1.01322,0.85586 -2.29349,1.267 -3.8431,1.267 l -0.042,0 c -1.17213,0 -2.34505,-0.24239 -3.55693,-0.73605 l 0.44983,-1.34903 c 1.35093,0.37291 2.47841,0.57243 3.35253,0.57243 0.87412,0 1.69697,-0.26105 2.41218,-0.77708 0.71526,-0.51649 1.06295,-1.1882 1.06295,-2.00303 0,-0.85445 -0.41301,-1.59003 -1.26736,-2.12657 -0.69539,-0.43351 -1.67216,-0.65354 -2.94373,-0.65354 l -0.20463,0 0,-1.39005 c 1.6291,-0.0606 2.75647,-0.42886 3.35254,-1.14486 0.31837,-0.37758 0.44983,-0.85259 0.44983,-1.34903 0,-1.25208 -1.36959,-1.92193 -2.78011,-1.92193 -0.87417,0 -1.89415,0.28435 -3.06632,0.81808 l -0.5315,-1.30847 c 1.33103,-0.65773 2.6114,-1.0218 3.84311,-1.0218 z m -37.44996,0.0512 c 1.47009,0 2.62087,0.42886 3.47513,1.267 0.65549,0.6554 0.98125,1.41523 0.98125,2.28972 0,0.87402 -0.23867,1.50938 -0.69503,2.12563 -0.39762,0.5165 -1.00311,1.08147 -1.75808,1.71729 -0.75493,0.63536 -1.16905,0.98497 -1.30829,1.10385 -1.41052,1.23202 -2.24372,2.31722 -2.78011,3.96598 l 6.78679,0 0,1.47163 -8.79011,0 0,-0.8992 c 0.43678,-1.37095 1.13148,-2.69201 2.08508,-3.88395 0.89398,-1.09265 1.82767,-1.92378 2.821,-2.69852 l 0.81771,-0.69504 c 0.57616,-0.51741 0.92278,-0.97098 1.02207,-1.39052 0.042,-0.17713 0.0816,-0.34961 0.0816,-0.53094 0,-0.55611 -0.23774,-1.05723 -0.69498,-1.51265 -0.61593,-0.59434 -1.41775,-0.90013 -2.3713,-0.90013 -0.65559,0 -1.23081,0.14917 -2.08513,0.41021 l -1.55362,0.49225 -0.36825,-1.2269 c 1.45027,-0.73512 2.86354,-1.10337 4.33372,-1.10337 z m 24.73498,0.1212 1.92156,0 0,12.3464 3.18902,0 0,1.4721 -8.01337,0 0,-1.4721 3.22984,0 0,-10.75263 -3.02544,1.18587 -0.61326,-1.38958 z m -11.97912,1.30802 c -2.56284,0 -3.72042,2.55309 -3.72042,5.31455 0,2.68175 0.71423,4.54354 2.08508,5.43762 0.47683,0.31699 1.0184,0.49226 1.59451,0.49226 0.57606,0 1.07652,-0.17249 1.55357,-0.53142 1.29137,-0.95327 2.00332,-2.71018 2.00332,-5.23297 0,-2.30511 -0.64888,-3.95295 -1.88067,-4.90668 -0.49687,-0.37758 -1.07914,-0.57196 -1.63539,-0.57196 z m -27.96483,2.98428 c 1.69673,0 3.06628,1.36954 3.06628,3.06632 0,1.69724 -1.36955,3.06679 -3.06628,3.06679 -1.69674,0 -3.06637,-1.36955 -3.06637,-3.06679 0,-1.69678 1.36963,-3.06632 3.06637,-3.06632 z m 67.61926,0 c 1.69677,0 3.10725,1.36954 3.10725,3.06632 0,1.69724 -1.41048,3.06679 -3.10725,3.06679 -1.69674,0 -3.06629,-1.36955 -3.06629,-3.06679 0,-1.69678 1.36955,-3.06632 3.06629,-3.06632 z"
       id="path8025-8-4-0-8-6"
       inkscape:connector-curvature="0"
       sodipodi:nodetypes="ssssscscccccccccccccccccccccccccccccccccccccccccccsccsssccccccccccccscscsccscscsccsscsccccccccccscsccssccccccccccccccsccssccccccccccccccccccccccccccccccscccccccccscsccccccscsccccccccccscscscssccccccccccccccccccccccccccccccccccccccccccccccscsccsccccccccccscsccscccccssccsccccsccsssssccssccsccccscccccccccscccccccssccsccccsccccsscccscsscccccccssccsccccscccssssscscccssssssccssccssccssccssssccccccsssccccscsscccccssccccccccsssccscscsccccccccccccccscsscccccccccccccccscsccccccccsccscscsccscscsssccscscsccscscsssccscscsccscscssccscccscccsscscscccscssccccccccccccccccccccccccccccccccccccccccccccccscsscccccccccccccccccccccccccscccsccccscsccccsscscsccccccccccccccccccccccccccccscscsccccccccsscccccssccscscscscsccccscsccccsccscsccccsccscscccccssscccccsssccccscscscccsscscssccscscscccssccssccsccccccccccccscsccccccccccccccccccscscscccssssssssss" />
  </g>
</svg>
