<?xml version="1.0" encoding="UTF-8" standalone="no"?>
<!-- Created with Inkscape (http://www.inkscape.org/) -->

<svg
   xmlns:dc="http://purl.org/dc/elements/1.1/"
   xmlns:cc="http://creativecommons.org/ns#"
   xmlns:rdf="http://www.w3.org/1999/02/22-rdf-syntax-ns#"
   xmlns:svg="http://www.w3.org/2000/svg"
   xmlns="http://www.w3.org/2000/svg"
   xmlns:sodipodi="http://sodipodi.sourceforge.net/DTD/sodipodi-0.dtd"
   xmlns:inkscape="http://www.inkscape.org/namespaces/inkscape"
   width="1024"
   height="1000"
   id="svg21721"
   version="1.1"
   inkscape:version="0.48.4 r9939"
   sodipodi:docname="New document 15">
  <defs
     id="defs21723">
    <inkscape:perspective
       sodipodi:type="inkscape:persp3d"
       inkscape:vp_x="0 : 0.5 : 1"
       inkscape:vp_y="0 : 1000 : 0"
       inkscape:vp_z="1 : 0.5 : 1"
       inkscape:persp3d-origin="0.5 : 0.33333333 : 1"
       id="perspective19204" />
    <inkscape:perspective
       id="perspective19241"
       inkscape:persp3d-origin="372.04724 : 350.78739 : 1"
       inkscape:vp_z="744.09448 : 526.18109 : 1"
       inkscape:vp_y="0 : 1000 : 0"
       inkscape:vp_x="0 : 526.18109 : 1"
       sodipodi:type="inkscape:persp3d" />
  </defs>
  <sodipodi:namedview
     id="base"
     pagecolor="#ffffff"
     bordercolor="#666666"
     borderopacity="1.0"
     inkscape:pageopacity="1"
     inkscape:pageshadow="2"
     inkscape:zoom="0.70710678"
     inkscape:cx="478.27836"
     inkscape:cy="547.71899"
     inkscape:current-layer="layer1-1"
     inkscape:document-units="px"
     showgrid="false"
     inkscape:window-width="1600"
     inkscape:window-height="841"
     inkscape:window-x="0"
     inkscape:window-y="27"
     inkscape:window-maximized="1" />
  <metadata
     id="metadata21726">
    <rdf:RDF>
      <cc:Work
         rdf:about="">
        <dc:format>image/svg+xml</dc:format>
        <dc:type
           rdf:resource="http://purl.org/dc/dcmitype/StillImage" />
        <dc:title></dc:title>
      </cc:Work>
    </rdf:RDF>
  </metadata>
  <g
     id="layer1"
     inkscape:label="Layer 1"
     inkscape:groupmode="layer"
     transform="translate(0,232)">
    <flowRoot
       xml:space="preserve"
       id="flowRoot22293"
       style="font-size:40px;font-style:normal;font-weight:normal;line-height:125%;letter-spacing:0px;word-spacing:0px;fill:#000000;fill-opacity:1;stroke:none;font-family:Sans"
       transform="matrix(0.5308752,0,0,0.5308752,-2.0105795,198.80347)"><flowRegion
         id="flowRegion22295"><rect
           id="rect22297"
           width="533.64581"
           height="144.2458"
           x="59"
           y="448" /></flowRegion><flowPara
         id="flowPara22299">GNOME 3.8 - Jon McCann talks of future in GNOME</flowPara></flowRoot>    <flowRoot
       xml:space="preserve"
       id="flowRoot22301"
       style="font-size:40px;font-style:normal;font-weight:normal;line-height:125%;letter-spacing:0px;word-spacing:0px;fill:#000000;fill-opacity:1;stroke:none;font-family:Sans"
       transform="matrix(0.36885547,0,0,0.36885547,-8.017018,202.8244)"><flowRegion
         id="flowRegion22303"><rect
           id="rect22305"
           width="338.70416"
           height="166.17009"
           x="103.23759"
           y="572.8385" /></flowRegion><flowPara
         id="flowPara22307">March 19, 2013</flowPara></flowRoot>    <flowRoot
       xml:space="preserve"
       id="flowRoot22309"
       style="font-size:40px;font-style:normal;font-weight:normal;line-height:125%;letter-spacing:0px;word-spacing:0px;fill:#000000;fill-opacity:1;stroke:none;font-family:Sans"
       transform="matrix(0.33454741,0,0,0.33454741,-86.303553,477.99522)"><flowRegion
         id="flowRegion22311"><rect
           id="rect22313"
           width="914.99615"
           height="480.83261"
           x="350.72498"
           y="55.236366" /></flowRegion><flowPara
         id="flowPara22321">The GNOME Project is proud to announce the imminent release of GNOME 3.8 in less than two weeks. As with every release, there are many new features and technical improvements. We asked William Jon McCann, a GNOME designer, about the direction of the project and what he is anticipating for GNOME in the future. Question: [...] </flowPara></flowRoot>    <flowRoot
       xml:space="preserve"
       id="flowRoot22293-6"
       style="font-size:40px;font-style:normal;font-weight:normal;line-height:125%;letter-spacing:0px;word-spacing:0px;fill:#000000;fill-opacity:1;stroke:none;font-family:Sans"
       transform="matrix(0.5308752,0,0,0.5308752,324.98942,198.80347)"><flowRegion
         id="flowRegion22295-9"><rect
           id="rect22297-2"
           width="533.64581"
           height="144.2458"
           x="59"
           y="448" /></flowRegion><flowPara
         id="flowPara22299-6">GNOME 3.8 - Jon McCann talks of future in GNOME</flowPara></flowRoot>    <flowRoot
       xml:space="preserve"
       id="flowRoot22301-6"
       style="font-size:40px;font-style:normal;font-weight:normal;line-height:125%;letter-spacing:0px;word-spacing:0px;fill:#000000;fill-opacity:1;stroke:none;font-family:Sans"
       transform="matrix(0.36885547,0,0,0.36885547,318.98298,202.8244)"><flowRegion
         id="flowRegion22303-5"><rect
           id="rect22305-9"
           width="338.70416"
           height="166.17009"
           x="103.23759"
           y="572.8385" /></flowRegion><flowPara
         id="flowPara22307-1">March 19, 2013</flowPara></flowRoot>    <flowRoot
       xml:space="preserve"
       id="flowRoot22309-6"
       style="font-size:40px;font-style:normal;font-weight:normal;line-height:125%;letter-spacing:0px;word-spacing:0px;fill:#000000;fill-opacity:1;stroke:none;font-family:Sans"
       transform="matrix(0.33454741,0,0,0.33454741,240.69644,477.99522)"><flowRegion
         id="flowRegion22311-3"><rect
           id="rect22313-8"
           width="914.99615"
           height="480.83261"
           x="350.72498"
           y="55.236366" /></flowRegion><flowPara
         id="flowPara22321-6">The GNOME Project is proud to announce the imminent release of GNOME 3.8 in less than two weeks. As with every release, there are many new features and technical improvements. We asked William Jon McCann, a GNOME designer, about the direction of the project and what he is anticipating for GNOME in the future. Question: [...] </flowPara></flowRoot>    <flowRoot
       xml:space="preserve"
       id="flowRoot22293-6-5"
       style="font-size:40px;font-style:normal;font-weight:normal;line-height:125%;letter-spacing:0px;word-spacing:0px;fill:#000000;fill-opacity:1;stroke:none;font-family:Sans"
       transform="matrix(0.5308752,0,0,0.5308752,656.98942,198.80347)"><flowRegion
         id="flowRegion22295-9-6"><rect
           id="rect22297-2-5"
           width="533.64581"
           height="144.2458"
           x="59"
           y="448" /></flowRegion><flowPara
         id="flowPara22299-6-9">GNOME 3.8 - Jon McCann talks of future in GNOME</flowPara></flowRoot>    <flowRoot
       xml:space="preserve"
       id="flowRoot22301-6-6"
       style="font-size:40px;font-style:normal;font-weight:normal;line-height:125%;letter-spacing:0px;word-spacing:0px;fill:#000000;fill-opacity:1;stroke:none;font-family:Sans"
       transform="matrix(0.36885547,0,0,0.36885547,650.98298,202.8244)"><flowRegion
         id="flowRegion22303-5-4"><rect
           id="rect22305-9-7"
           width="338.70416"
           height="166.17009"
           x="103.23759"
           y="572.8385" /></flowRegion><flowPara
         id="flowPara22307-1-1">March 19, 2013</flowPara></flowRoot>    <flowRoot
       xml:space="preserve"
       id="flowRoot22309-6-9"
       style="font-size:40px;font-style:normal;font-weight:normal;line-height:125%;letter-spacing:0px;word-spacing:0px;fill:#000000;fill-opacity:1;stroke:none;font-family:Sans"
       transform="matrix(0.33454741,0,0,0.33454741,572.69644,477.99522)"><flowRegion
         id="flowRegion22311-3-5"><rect
           id="rect22313-8-7"
           width="914.99615"
           height="480.83261"
           x="350.72498"
           y="55.236366" /></flowRegion><flowPara
         id="flowPara22321-6-5">The GNOME Project is proud to announce the imminent release of GNOME 3.8 in less than two weeks. As with every release, there are many new features and technical improvements. We asked William Jon McCann, a GNOME designer, about the direction of the project and what he is anticipating for GNOME in the future. Question: [...] </flowPara></flowRoot>    <rect
       style="fill:#000000;fill-opacity:0.53333285;stroke:none"
       id="rect22437"
       width="380.13174"
       height="279.47382"
       x="30.405594"
       y="-55.401611" />
    <flowRoot
       xml:space="preserve"
       id="flowRoot22439"
       style="font-size:40px;font-style:normal;font-weight:normal;line-height:125%;letter-spacing:0px;word-spacing:0px;fill:#000000;fill-opacity:1;stroke:none;font-family:Sans"
       transform="matrix(0.75543829,0,0,0.75543829,60.296406,-94.56706)"><flowRegion
         id="flowRegion22441"><rect
           id="rect22443"
           width="688.72198"
           height="301.22748"
           x="511.94531"
           y="42.508442" /></flowRegion><flowPara
         id="flowPara22445">Get things done with ease, comfort and control.</flowPara></flowRoot>    <flowRoot
       xml:space="preserve"
       id="flowRoot22447"
       style="font-size:40px;font-style:normal;font-weight:normal;line-height:125%;letter-spacing:0px;word-spacing:0px;fill:#000000;fill-opacity:1;stroke:none;font-family:Sans"
       transform="matrix(0.40884258,0,0,0.40884258,269.64453,-17.522007)"><flowRegion
         id="flowRegion22449"><rect
           id="rect22451"
           width="1290.67"
           height="404.87988"
           x="430"
           y="128" /></flowRegion><flowPara
         id="flowPara22453">GNOME takes elegance to a new level. We've swept away the clutter and made a simple and easy-to-use experice. Lorem ipsum dolor sit amet, consectetur adipiscing elit. Phasellus mattis quam ut sem rutrum quis faucibus lacus porttitor. Cras elit nulla, pellentesque sit amet euismod vel, congue sed sapien. Phasellus blandit neque nec erat imperdiet placerat vitae ut mi. Curabitur semper elit eget justo ullamcorper eget tristique tortor tincidunt. Lorem ipsum dolor sit amet, consectetur adipiscing elit. Aliquam volutpat libero id elit malesuada luctus. Pellentesque habitant morbi tristique senectus et netus et malesuada fames ac turpis egestas. Sed lacus tellus, lacinia vel aliquam sed, commodo ut lectus. Integer justo sapien, venenatis at tempus sed, pellentesque egestas lorem. </flowPara></flowRoot>    <text
       xml:space="preserve"
       style="font-size:18.30634499px;font-style:normal;font-weight:normal;line-height:125%;letter-spacing:0px;word-spacing:0px;fill:#3465a4;fill-opacity:1;stroke:none;font-family:Sans"
       x="845.99377"
       y="224.07928"
       id="text22493"
       sodipodi:linespacing="125%"><tspan
         sodipodi:role="line"
         id="tspan22495"
         x="845.99377"
         y="224.07928">read more</tspan></text>
    <path
       style="fill:#3465a4;stroke:none"
       d="m 948.08148,212.56141 0,12 9.30561,-5.47067 z"
       id="path22497"
       inkscape:connector-curvature="0"
       sodipodi:nodetypes="cccc" />
    <path
       style="fill:none;stroke:#3465a4;stroke-width:1px;stroke-linecap:butt;stroke-linejoin:miter;stroke-opacity:1"
       d="m 846.14214,227.56141 92.375,0"
       id="path22499"
       inkscape:connector-curvature="0"
       sodipodi:nodetypes="cc" />
    <rect
       style="fill:#3465a4;fill-opacity:0.53333285;stroke:none"
       id="rect22523"
       width="64.346718"
       height="64.346718"
       x="649.12402"
       y="685.46954"
       rx="12.727922"
       ry="12.727922" />
    <rect
       style="fill:#3465a4;fill-opacity:0.53333285;stroke:none"
       id="rect22523-7"
       width="64.346718"
       height="64.346718"
       x="734.68396"
       y="685.46954"
       rx="12.727922"
       ry="12.727922" />
    <rect
       style="fill:#3465a4;fill-opacity:0.53333285;stroke:none"
       id="rect22523-7-3"
       width="64.346718"
       height="64.346718"
       x="816.00122"
       y="685.46954"
       rx="12.727922"
       ry="12.727922" />
    <rect
       style="fill:#3465a4;fill-opacity:0.53333285;stroke:none"
       id="rect22523-7-3-8"
       width="64.346718"
       height="64.346718"
       x="901.49011"
       y="685.46954"
       rx="12.727922"
       ry="12.727922" />
    <flowRoot
       xml:space="preserve"
       id="flowRoot22625"
       style="font-size:40px;font-style:normal;font-weight:normal;line-height:125%;letter-spacing:0px;word-spacing:0px;fill:#000000;fill-opacity:1;stroke:none;font-family:Sans"
       transform="matrix(0.36338544,0,0,0.36338544,13.545854,153.41878)"><flowRegion
         id="flowRegion22627"><rect
           id="rect22629"
           width="1190.5178"
           height="404.53122"
           x="43.840622"
           y="333.83643" /></flowRegion><flowPara
         id="flowPara22631"
         style="font-weight:bold;-inkscape-font-specification:Sans Bold">Make a donation and become a Friend of GNOME!</flowPara><flowPara
         id="flowPara22681">Your donation will ensure that GNOME continues to be a free and open source desktop by providing resources to developers, software and education for end users, and promotion for GNOME worldwide.</flowPara><flowPara
         id="flowPara22633" /><flowPara
         id="flowPara22635" /></flowRoot>    <flowRoot
       xml:space="preserve"
       id="flowRoot22625-7"
       style="font-size:40px;font-style:normal;font-weight:normal;line-height:125%;letter-spacing:0px;word-spacing:0px;fill:#000000;fill-opacity:1;stroke:none;font-family:Sans"
       transform="matrix(0.36338544,0,0,0.36338544,530.31959,147.41878)"><flowRegion
         id="flowRegion22627-7"><rect
           id="rect22629-7"
           width="1182.7343"
           height="307.23694"
           x="43.840622"
           y="333.83643" /></flowRegion><flowPara
         id="flowPara22635-9"
         style="font-weight:bold;-inkscape-font-specification:Sans Bold">Get involved!</flowPara><flowPara
         id="flowPara22677">The GNOME Project is a diverse international community which involves hundreds of contributors, many of whom are volunteers. Anyone can contribute to the GNOME!</flowPara></flowRoot>    <path
       style="fill:none;stroke:#000000;stroke-width:1px;stroke-linecap:butt;stroke-linejoin:miter;stroke-opacity:1"
       d="m 33.941125,249.18463 929.138315,0"
       id="path22683"
       inkscape:connector-curvature="0" />
    <path
       style="fill:none;stroke:#000000;stroke-width:1px;stroke-linecap:butt;stroke-linejoin:miter;stroke-opacity:1"
       d="m 29.698485,387.77756 936.209375,0"
       id="path22685"
       inkscape:connector-curvature="0" />
    <g
       transform="translate(-274.76368,-994.58622)"
       id="layer1-1"
       inkscape:label="Layer 1">
      <g
         style="fill:#132c51;fill-opacity:1"
         transform="matrix(2.1582668,0,0,2.1582668,-69.641399,10.380302)"
         id="g19089">
        <g
           transform="matrix(0.4314921,0,0,0.4314921,175.04372,357.6187)"
           style="fill:#132c51;fill-opacity:1;fill-rule:nonzero;stroke:none"
           id="g15043">
          <g
             style="fill:#132c51;fill-opacity:1"
             id="g15045">
            <path
               d="M 86.068,0 C 61.466,0 56.851,35.041 70.691,35.041 84.529,35.041 110.671,0 86.068,0 z"
               style="fill:#132c51;fill-opacity:1"
               id="path15047"
               inkscape:connector-curvature="0" />
            <path
               d="M 45.217,30.699 C 52.586,31.149 60.671,2.577 46.821,4.374 32.976,6.171 37.845,30.249 45.217,30.699 z"
               style="fill:#132c51;fill-opacity:1"
               id="path15049"
               inkscape:connector-curvature="0" />
            <path
               d="M 11.445,48.453 C 16.686,46.146 12.12,23.581 3.208,29.735 -5.7,35.89 6.204,50.759 11.445,48.453 z"
               style="fill:#132c51;fill-opacity:1"
               id="path15051"
               inkscape:connector-curvature="0" />
            <path
               d="M 26.212,36.642 C 32.451,35.37 32.793,9.778 21.667,14.369 10.539,18.961 19.978,37.916 26.212,36.642 l 0,0 z"
               style="fill:#132c51;fill-opacity:1"
               id="path15053"
               inkscape:connector-curvature="0" />
            <path
               d="m 58.791,93.913 c 1.107,8.454 -6.202,12.629 -13.36,7.179 C 22.644,83.743 83.16,75.088 79.171,51.386 75.86,31.712 15.495,37.769 8.621,68.553 3.968,89.374 27.774,118.26 52.614,118.26 c 12.22,0 26.315,-11.034 28.952,-25.012 C 83.58,82.589 57.867,86.86 58.791,93.913 l 0,0 z"
               style="fill:#132c51;fill-opacity:1"
               id="path15055"
               inkscape:connector-curvature="0" />
          </g>
        </g>
        <path
           d="m 266.40838,375.4882 c -2.67361,0.0725 -4.78454,1.03335 -6.3381,2.87533 -1.60665,1.91806 -2.41528,4.56691 -2.41528,7.94652 0,3.369 0.80863,6.01076 2.41528,7.92883 1.61549,1.91806 3.83436,2.87533 6.66368,2.87533 2.8364,0 5.06058,-0.95727 6.66899,-2.87533 1.60665,-1.91807 2.40997,-4.55983 2.40997,-7.92883 0,-3.37961 -0.80332,-6.02846 -2.40997,-7.94652 -1.60841,-1.91806 -3.83259,-2.87533 -6.66899,-2.87533 -0.1097,0 -0.21764,-0.004 -0.32558,0 z m 0.19818,3.89275 c 0.0425,-0.002 0.0849,0 0.1274,0 1.39431,0 2.47543,0.60338 3.23983,1.81367 0.7644,1.21029 1.15013,2.9178 1.15013,5.11543 0,2.18702 -0.38573,3.88214 -1.15013,5.09243 -0.7644,1.21029 -1.84552,1.81898 -3.23983,1.81898 -1.38724,0 -2.45951,-0.60869 -3.22391,-1.81898 -0.76439,-1.21029 -1.15013,-2.90541 -1.15013,-5.09243 0,-2.19763 0.38574,-3.90514 1.15013,-5.11543 0.74139,-1.17136 1.77121,-1.77651 3.09651,-1.81367 z"
           style="font-size:148.69999695px;font-style:normal;font-variant:normal;font-weight:bold;font-stretch:normal;text-align:start;line-height:125%;text-anchor:start;fill:#132c51;fill-opacity:1;stroke:none;font-family:Bitstream Vera Sans"
           id="path15059-5"
           inkscape:connector-curvature="0" />
        <path
           d="m 236.20947,395.15899 c -2.35511,1.97822 -5.85859,1.95522 -7.31837,1.95522 -2.93903,0 -5.2676,-0.96788 -6.98572,-2.90364 -1.71812,-1.94638 -2.57629,-4.58106 -2.57629,-7.90406 0,-3.36015 0.87409,-6.00368 2.62406,-7.93059 1.74997,-1.92692 4.14579,-2.88949 7.18744,-2.88949 1.17313,0 2.29673,0.13094 3.369,0.39105 1.07935,0.2601 2.09678,0.64761 3.04874,1.15897 l -1.22445,3.62026 c -0.53614,-0.29372 -1.14837,-0.58214 -1.71813,-0.78562 -0.96964,-0.32558 -1.94283,-0.48837 -2.91956,-0.48837 -1.81367,0 -3.21152,0.59984 -4.19709,1.79951 -0.97673,1.1926 -1.46509,2.90011 -1.46509,5.12428 0,2.20649 0.47244,3.91045 1.41732,5.11013 0.94664,1.20144 2.3675,1.80128 4.03076,1.80128 1.69158,0 2.73908,-0.42466 3.29645,-0.8741 l 0,-3.60787 -3.66272,0 0,-3.6008 7.09365,0"
           style="font-size:148.69999695px;font-style:normal;font-variant:normal;font-weight:bold;font-stretch:normal;text-align:start;line-height:125%;text-anchor:start;fill:#132c51;fill-opacity:1;stroke:none;font-family:Bitstream Vera Sans"
           id="path15061-6"
           inkscape:connector-curvature="0" />
        <path
           d="m 239.32014,375.86332 2.87179,0 9.07365,12.52759 0,-12.52759 3.87152,0 0,20.84569 -2.87179,0 -9.07188,-12.52758 0,12.52758 -3.87329,0 0,-20.84569"
           style="font-size:148.69999695px;font-style:normal;font-variant:normal;font-weight:bold;font-stretch:normal;text-align:start;line-height:125%;text-anchor:start;fill:#132c51;fill-opacity:1;stroke:none;font-family:Bitstream Vera Sans"
           id="path15063-5"
           inkscape:connector-curvature="0" />
        <path
           d="m 278.80149,375.86332 5.79136,0 4.02014,13.01418 4.04316,-13.01418 4.89602,0 2.21179,20.84569 -4.30326,0 -1.32707,-13.03541 -4.06616,13.09734 -2.88594,0 -4.06616,-13.5397 -1.32708,13.47777 -4.31388,0 2.2118,-20.84569"
           style="font-size:148.69999695px;font-style:normal;font-variant:normal;font-weight:bold;font-stretch:normal;text-align:start;line-height:125%;text-anchor:start;fill:#132c51;fill-opacity:1;stroke:none;font-family:Bitstream Vera Sans"
           id="path15065-9"
           inkscape:connector-curvature="0" />
        <path
           d="m 302.86931,375.86332 12.28163,0 0,4.06262 -7.73064,0 0,4.32449 5.94352,0 0,3.62026 -5.94352,0 0,4.7757 7.99076,0 0,4.06262 -12.54175,0 0,-20.84569"
           style="font-size:148.69999695px;font-style:normal;font-variant:normal;font-weight:bold;font-stretch:normal;text-align:start;line-height:125%;text-anchor:start;fill:#132c51;fill-opacity:1;stroke:none;font-family:Bitstream Vera Sans"
           id="path15067-9"
           inkscape:connector-curvature="0" />
      </g>
      <g
         style="fill:#132c51;fill-opacity:1"
         transform="matrix(2.1311822,0,0,2.1311822,-1151.8236,68.772363)"
         id="g5335" />
      <rect
         style="fill:#132c51;fill-opacity:1;stroke:none"
         id="rect22733"
         width="598.21234"
         height="53.740116"
         x="656.60132"
         y="820.71997" />
    </g>
  </g>
</svg>
