<?xml version="1.0" encoding="UTF-8" standalone="no"?>
<!-- Created with Inkscape (http://www.inkscape.org/) -->

<svg
   xmlns:dc="http://purl.org/dc/elements/1.1/"
   xmlns:cc="http://creativecommons.org/ns#"
   xmlns:rdf="http://www.w3.org/1999/02/22-rdf-syntax-ns#"
   xmlns:svg="http://www.w3.org/2000/svg"
   xmlns="http://www.w3.org/2000/svg"
   xmlns:sodipodi="http://sodipodi.sourceforge.net/DTD/sodipodi-0.dtd"
   xmlns:inkscape="http://www.inkscape.org/namespaces/inkscape"
   width="524.40942"
   height="744.09448"
   id="svg9264"
   version="1.1"
   inkscape:version="0.48.4 r9939"
   sodipodi:docname="flyer-love.svg"
   inkscape:export-filename="/home/fabiana/Dropbox/Projects/GNOME/love flyer/flyer-heart-v2.png"
   inkscape:export-xdpi="90"
   inkscape:export-ydpi="90">
  <defs
     id="defs3" />
  <sodipodi:namedview
     inkscape:document-units="mm"
     id="base"
     pagecolor="#ffffff"
     bordercolor="#666666"
     borderopacity="1.0"
     inkscape:pageopacity="1"
     inkscape:pageshadow="2"
     inkscape:zoom="0.5"
     inkscape:cx="57.489375"
     inkscape:cy="190.30788"
     inkscape:current-layer="layer1"
     showgrid="false"
     units="mm"
     showborder="true"
     inkscape:showpageshadow="false"
     inkscape:window-width="1280"
     inkscape:window-height="772"
     inkscape:window-x="0"
     inkscape:window-y="0"
     inkscape:window-maximized="1"
     showguides="true"
     inkscape:guide-bbox="true"
     inkscape:snap-nodes="false"
     inkscape:snap-bbox="true">
    <inkscape:grid
       type="xygrid"
       id="grid9533"
       empspacing="5"
       visible="true"
       enabled="true"
       snapvisiblegridlinesonly="true" />
  </sodipodi:namedview>
  <metadata
     id="metadata4">
    <rdf:RDF>
      <cc:Work
         rdf:about="">
        <dc:format>image/svg+xml</dc:format>
        <dc:type
           rdf:resource="http://purl.org/dc/dcmitype/StillImage" />
        <dc:title></dc:title>
      </cc:Work>
    </rdf:RDF>
  </metadata>
  <g
     inkscape:label="Layer 1"
     inkscape:groupmode="layer"
     id="layer1"
     transform="translate(0,-308.26769)">
    <path
       inkscape:connector-curvature="0"
       id="path4532"
       d="m -1.0453006,308.51033 525.6834206,0 0,276.01122 -525.6834206,0 z"
       style="fill:#c71807;fill-opacity:1;stroke:none" />
    <path
       style="fill:#c71807;fill-opacity:1;stroke:none"
       d="m 605.40967,315.33876 524.26923,0 0,276.01122 -524.26923,0 z"
       id="rect9346"
       inkscape:connector-curvature="0" />
    <g
       id="g3235">
      <flowRoot
         transform="matrix(1.0997427,0,0,1.0997427,3.2368634,290.12778)"
         style="font-size:14.54885769px;font-style:normal;font-weight:normal;text-align:justify;line-height:150%;letter-spacing:0px;word-spacing:0px;text-anchor:start;fill:#000000;fill-opacity:1;stroke:none;font-family:Sans"
         id="flowRoot9312"
         xml:space="preserve"><flowRegion
           id="flowRegion9314"><rect
             style="font-size:14.54885769px;text-align:justify;line-height:150%;text-anchor:start"
             y="359.80878"
             x="38.57143"
             height="356.30237"
             width="396.43961"
             id="rect9316" /></flowRegion><flowPara
           style="font-size:14.54885769px;font-style:normal;font-variant:normal;font-weight:normal;font-stretch:normal;text-align:justify;line-height:150%;text-anchor:start;font-family:Cantarell;-inkscape-font-specification:Cantarell"
           id="flowPara3264">It is the work of thousands of contributors that makes GNOME a reality. Anyone can contribute and there is a lot of different things to do. You don't need to be a programmer, a technologist or fit any particular category to help.</flowPara><flowPara
           style="font-size:14.54885769px;font-style:normal;font-variant:normal;font-weight:normal;font-stretch:normal;text-align:justify;line-height:150%;text-anchor:start;font-family:Cantarell;-inkscape-font-specification:Cantarell"
           id="flowPara3288" /><flowPara
           style="font-size:14.54885769px;font-style:normal;font-variant:normal;font-weight:normal;font-stretch:normal;text-align:justify;line-height:150%;text-anchor:start;font-family:Cantarell;-inkscape-font-specification:Cantarell"
           id="flowPara3284">We are happy to provide full guidance to anyone who wants to become a part of GNOME. Our GNOME Love initiative provides a series of easy-to-follow resources, and introduces you to over 40 mentors available to help you get started at any time.</flowPara><flowPara
           style="font-size:14.54885769px;font-style:normal;font-variant:normal;font-weight:normal;font-stretch:normal;text-align:justify;line-height:150%;text-anchor:start;font-family:Cantarell;-inkscape-font-specification:Cantarell"
           id="flowPara3290" /><flowPara
           style="font-size:14.54885769px;font-style:normal;font-variant:normal;font-weight:normal;font-stretch:normal;text-align:justify;line-height:150%;text-anchor:start;font-family:Cantarell;-inkscape-font-specification:Cantarell"
           id="flowPara3286">Join us. Get involved! What do you want to do?</flowPara></flowRoot>      <flowRoot
         transform="matrix(1.1305281,0,0,1.1305281,1.2684514,556.89412)"
         style="font-size:14.15267754px;font-style:normal;font-weight:normal;line-height:125%;letter-spacing:0px;word-spacing:0px;fill:#d40000;fill-opacity:1;stroke:none;font-family:Sans"
         id="flowRoot9312-4"
         xml:space="preserve"><flowRegion
           id="flowRegion9314-5"><rect
             style="font-size:14.15267754px;fill:#d40000;fill-opacity:1"
             y="359.80878"
             x="38.57143"
             height="134.6982"
             width="375.1124"
             id="rect9316-3" /></flowRegion><flowPara
           id="flowPara10646"
           style="font-size:14.15267754px;font-style:normal;font-variant:normal;font-weight:bold;font-stretch:normal;line-height:170.00000477%;fill:#d40000;fill-opacity:1;font-family:Cantarell;-inkscape-font-specification:Cantarell Bold" /><flowPara
           id="flowPara10644"
           style="font-size:14.15267754px;font-style:normal;font-variant:normal;font-weight:bold;font-stretch:normal;line-height:170.00000477%;fill:#d40000;fill-opacity:1;font-family:Cantarell;-inkscape-font-specification:Cantarell Bold">www.gnome.org/get-involved/</flowPara><flowPara
           id="flowPara4582"
           style="font-size:14.15267754px;font-style:normal;font-variant:normal;font-weight:bold;font-stretch:normal;line-height:170.00000477%;fill:#d40000;fill-opacity:1;font-family:Cantarell;-inkscape-font-specification:Cantarell Bold" /></flowRoot>      <flowRoot
         transform="matrix(1.9577083,0,0,1.9577083,-32.285935,-90.381351)"
         style="font-size:16.34564209px;font-style:normal;font-weight:normal;line-height:125%;letter-spacing:0px;word-spacing:0px;fill:#c71807;fill-opacity:1;stroke:none;font-family:Cantarell;-inkscape-font-specification:Cantarell"
         id="flowRoot9312-4-1"
         xml:space="preserve"><flowRegion
           id="flowRegion9314-5-0"><rect
             style="font-size:16.34564209px;fill:#c71807;fill-opacity:1;font-family:Cantarell;-inkscape-font-specification:Cantarell"
             y="359.80878"
             x="38.57143"
             height="57.743008"
             width="230.04779"
             id="rect9316-3-9" /></flowRegion><flowPara
           id="flowPara10644-5"
           style="font-size:16.34564209px;font-style:normal;font-variant:normal;font-weight:bold;font-stretch:normal;line-height:170.00000477%;fill:#c71807;fill-opacity:1;font-family:Cantarell;-inkscape-font-specification:Cantarell">Get involved today</flowPara></flowRoot>    </g>
    <g
       id="g4420"
       transform="matrix(0.92053401,0,0,0.91805755,26.164879,11.628673)">
      <path
         style="fill:#ffffff;fill-opacity:1;fill-rule:evenodd;stroke:none"
         d="m 254.32444,385.04555 c 54.38642,-54.36374 129.1261,-4.25645 128.63446,47.30071 -0.44942,47.1322 -36.38585,69.70439 -126.66795,153.53847 -94.49811,-77.98969 -127.79321,-95.9744 -127.3016,-151.89518 0.49163,-57.88649 64.4751,-101.33056 125.33509,-48.944 z"
         id="path9405"
         sodipodi:nodetypes="czczc"
         inkscape:connector-curvature="0" />
      <g
         inkscape:export-ydpi="72.000000"
         inkscape:export-xdpi="72.000000"
         inkscape:export-filename="/home/duffy/Desktop/gnome_logo_horiz.png"
         style="fill:#c71807;fill-opacity:1;fill-rule:nonzero;stroke:none"
         transform="matrix(0.88518916,0,0,0.88518916,211.92215,411.24332)"
         id="g9409">
        <g
           id="g9411"
           style="fill:#c71807;fill-opacity:1">
          <path
             id="path9413"
             d="M 86.068,0 C 61.466,0 56.851,35.041 70.691,35.041 84.529,35.041 110.671,0 86.068,0 z"
             style="fill:#c71807;fill-opacity:1"
             inkscape:connector-curvature="0" />
          <path
             id="path9415"
             d="M 45.217,30.699 C 52.586,31.149 60.671,2.577 46.821,4.374 32.976,6.171 37.845,30.249 45.217,30.699 z"
             style="fill:#c71807;fill-opacity:1"
             inkscape:connector-curvature="0" />
          <path
             id="path9417"
             d="M 11.445,48.453 C 16.686,46.146 12.12,23.581 3.208,29.735 -5.7,35.89 6.204,50.759 11.445,48.453 z"
             style="fill:#c71807;fill-opacity:1"
             inkscape:connector-curvature="0" />
          <path
             id="path9419"
             d="M 26.212,36.642 C 32.451,35.37 32.793,9.778 21.667,14.369 10.539,18.961 19.978,37.916 26.212,36.642 l 0,0 z"
             style="fill:#c71807;fill-opacity:1"
             inkscape:connector-curvature="0" />
          <path
             d="m 58.791,93.913 c 1.107,8.454 -6.202,12.629 -13.36,7.179 C 22.644,83.743 83.16,75.088 79.171,51.386 75.86,31.712 15.495,37.769 8.621,68.553 3.968,89.374 27.774,118.26 52.614,118.26 c 12.22,0 26.315,-11.034 28.952,-25.012 C 83.58,82.589 57.867,86.86 58.791,93.913 l 0,0 z"
             id="path9421"
             style="fill:#c71807;fill-opacity:1"
             inkscape:connector-curvature="0" />
        </g>
      </g>
    </g>
    <g
       id="g4181"
       transform="translate(612.52144,1.3903099)">
      <g
         transform="translate(0,5.6968781)"
         id="g4176">
        <path
           inkscape:connector-curvature="0"
           sodipodi:nodetypes="cscssssssccsccccsssssssssscccc"
           id="path2411"
           d="m 89.575376,458.97955 c -0.325921,0.0497 -0.582984,0.30323 -0.637185,0.62844 -0.0542,0.3252 0.106739,0.6484 0.398924,0.80112 0,0 5.812288,3.28784 14.676885,4.43166 4.34287,0.56037 8.804,1.29758 12.48489,2.192 1.83327,0.44547 3.47725,0.96114 4.76522,1.47722 1.28798,0.51608 2.23296,1.0893 2.57323,1.42957 0.50814,0.50815 0.71296,0.83848 0.76243,1.04835 0.0671,0.28479 0.0735,0.21092 -0.0953,0.47652 -0.27501,0.4328 -1.69573,1.54623 -4.1934,2.33496 -2.27397,1.09869 -4.53992,1.39774 -7.05253,1.57253 -0.23435,0.0174 -0.44757,0.14192 -0.57792,0.33744 -0.13035,0.19553 -0.16327,0.44023 -0.0892,0.66325 l 0.52418,1.57253 c 0.11397,0.36513 1.04373,1.20852 1.42065,1.14337 1.28277,-0.1911 2.95911,-0.78389 3.29692,-0.95276 0.51602,-0.0463 0.71173,-0.22225 3.47861,-1.09601 2.84445,-0.89824 4.93945,-1.96624 6.05183,-3.71687 0.5733,-0.90223 0.82536,-1.97418 0.57183,-3.04974 -0.24294,-1.03066 -0.85888,-1.95488 -1.66783,-2.76383 -1.86871,-1.86871 -5.04503,-2.82515 -8.91097,-3.76453 -3.87892,-0.94254 -8.4918,-1.71673 -12.91376,-2.28731 -4.36459,-0.56317 -6.541318,-1.19969 -7.529049,-1.62017 -0.454561,-0.19351 -0.609532,-0.28158 -0.667132,-0.33357 -0.01588,-5e-4 -0.03178,-5e-4 -0.04765,0 -0.02496,-0.0539 -0.01825,-0.0661 0,-0.0476 -0.110804,-0.27505 -0.371014,-0.46091 -0.667131,-0.47652 l -5.813573,0 c -0.04755,-0.004 -0.09541,-0.004 -0.142956,0 l 0,0 z"
           style="fill:#ffffff;fill-opacity:1;fill-rule:evenodd;stroke:none" />
        <path
           inkscape:connector-curvature="0"
           id="path2397"
           d="m 111.01888,402.84521 -60.518342,0.0953 c -0.934898,10e-4 -2.735127,0.69977 -3.43096,1.85844 -0.695834,1.15868 -0.666465,1.97465 -0.714784,2.85914 l -2.668525,49.17711 c -0.08825,1.61554 0.291579,3.3021 1.429567,4.66992 1.137989,1.36781 2.951881,2.09669 4.717571,2.09669 l 61.900263,0 c 1.76573,0 3.5887,-0.66831 4.76522,-2.00139 1.17652,-1.33308 1.61795,-3.08785 1.52487,-4.76522 l -2.76383,-49.79659 c -0.11797,-2.12622 -1.97833,-4.19624 -4.24105,-4.1934 z m -1.76313,6.09948 2.66853,48.22407 c 0.0246,0.44331 -0.0634,0.45301 0,0.38122 0.0633,-0.0718 0.18997,-0.0477 -0.19061,-0.0477 l -61.900263,0 c -0.380632,0 -0.136294,0.0364 -0.04765,0.14295 0.08864,0.10655 -0.0276,0.0287 0,-0.47652 l 2.620873,-48.12876 56.84912,-0.0953 z"
           style="fill:#ffffff;fill-opacity:1;fill-rule:evenodd;stroke:none;stroke-width:4;marker:none;visibility:visible;display:inline;overflow:visible" />
        <path
           inkscape:connector-curvature="0"
           style="fill:#ffffff;fill-opacity:1;fill-rule:evenodd;stroke:none;stroke-width:3;marker:none;visibility:visible;display:inline;overflow:visible"
           d="m 51.548888,467.08043 c -1.228956,0 -2.263053,-6.7e-4 -3.288005,0.95304 -0.512474,0.47686 -0.721968,1.11132 -0.810087,1.42957 -0.08812,0.31825 -0.116331,0.39605 -0.09531,0.33356 l -5.289398,15.72524 c -0.110888,0.32958 -0.278605,0.80181 -0.190609,1.47722 0.088,0.67542 0.586805,1.48882 1.143654,1.90609 1.113697,0.83454 2.011395,0.76244 3.240351,0.76244 l 68.428616,0 c 1.22896,0 2.12666,0.0721 3.24036,-0.76244 0.55685,-0.41727 1.05566,-1.23067 1.14365,-1.90609 0.088,-0.67541 -0.0797,-1.14764 -0.19061,-1.47722 l -5.2894,-15.72524 c 0.021,0.0625 0.0405,-0.0153 -0.0477,-0.33356 -0.0881,-0.31825 -0.34526,-0.95271 -0.85774,-1.42957 -1.02495,-0.95371 -2.05905,-0.95304 -3.288,-0.95304 l -57.849826,0 z m 0,4.57461 57.849822,0 4.52696,13.43793 -66.903745,0 4.526963,-13.43793 z"
           id="path2409" />
      </g>
      <path
         id="path2514"
         d="m 237.7121,412.37044 c -4.16873,-0.0132 -7.15474,0.66872 -11.05533,2.52557 -2.5215,1.20035 -4.24289,2.50301 -6.62365,4.86053 -2.49984,2.47541 -3.65487,4.08829 -5.05115,7.00487 -2.35488,4.91885 -3.17333,8.9356 -2.90678,14.53394 0.431,9.05269 3.42076,15.22634 10.86471,22.87307 3.85051,3.9554 9.06542,8.42892 23.3496,20.1569 2.17412,1.78507 4.1562,3.42912 5.67061,4.62227 0.7572,0.59657 1.3778,1.07035 1.85844,1.42956 0.24032,0.17961 0.47292,0.34377 0.66713,0.47653 0.0971,0.0664 0.18979,0.10606 0.33357,0.1906 0.0719,0.0423 0.13234,0.11906 0.28591,0.19061 0.15352,0.0716 0.27004,0.2218 1.096,0.28592 1.13658,0.0882 1.31257,-0.18962 1.52488,-0.28592 0.2123,-0.0963 0.33291,-0.17887 0.42886,-0.23826 0.19189,-0.11877 0.29644,-0.18691 0.42888,-0.28591 0.26485,-0.198 0.56607,-0.43242 0.90539,-0.71478 0.67862,-0.56473 1.54344,-1.3359 2.62087,-2.28731 2.15486,-1.90283 5.03807,-4.48341 8.10088,-7.29079 6.12562,-5.61476 12.98465,-12.07776 16.48767,-15.58229 5.1091,-5.11132 8.50891,-8.95369 10.72175,-12.81845 2.21285,-3.86476 3.11933,-7.74038 3.33566,-12.15132 0.16831,-3.43148 -0.003,-5.10926 -0.71478,-7.4814 -2.13517,-7.11467 -7.32587,-13.24204 -14.10507,-16.77359 -9.73425,-5.07094 -21.03924,-4.04087 -29.44908,2.76383 -0.2616,0.21168 -0.47228,0.34197 -0.71478,0.52418 -0.23131,-0.1539 -0.4202,-0.25282 -0.66713,-0.42887 -5.4737,-3.90244 -11.45967,-6.08071 -17.39306,-6.09949 z m 0.66713,6.67131 c 4.19197,0.21011 8.62892,1.92228 13.10436,5.1941 0.69909,0.51108 1.3277,0.93076 1.85843,1.28661 0.26537,0.17792 0.49122,0.34174 0.7148,0.47652 0.11179,0.0674 0.22068,0.15669 0.38121,0.23826 0.0803,0.0408 0.16737,0.0784 0.33357,0.14296 0.16618,0.0645 0.29502,0.19061 1.14365,0.19061 1.26978,0 1.28904,-0.23749 1.47721,-0.33357 0.18817,-0.0961 0.2756,-0.16986 0.38123,-0.23826 0.21124,-0.13681 0.37574,-0.2803 0.57182,-0.42887 0.39215,-0.29715 0.86791,-0.64423 1.33426,-1.04835 4.53168,-3.92698 8.33598,-5.37225 13.81915,-5.33705 7.64538,0.0491 15.39746,4.97549 18.87029,12.10367 1.5209,3.12171 1.81146,4.50059 1.62018,8.5774 -0.21408,4.56232 -0.94008,7.21569 -4.66992,12.05602 -3.72984,4.84033 -10.6056,11.54045 -22.63482,22.53951 -3.16957,2.89813 -6.11453,5.51719 -8.29149,7.43375 -0.81104,0.71404 -1.38986,1.18588 -1.95374,1.66782 -0.20338,-0.15039 -0.33715,-0.20425 -0.57183,-0.38121 -1.44617,-1.09054 -3.45196,-2.67097 -5.71826,-4.47931 -4.53259,-3.6167 -10.07941,-8.1766 -14.43864,-11.91306 -10.50474,-9.00403 -14.19103,-13.69811 -16.01115,-19.53742 -0.72849,-2.33714 -1.05028,-10.39622 -0.52417,-12.62785 1.08391,-4.59761 4.07533,-9.28071 7.3861,-11.7701 3.64531,-2.74094 7.62578,-4.02229 11.81776,-3.81218 z"
         style="fill:#ffffff;fill-opacity:1;stroke:none"
         inkscape:connector-curvature="0" />
      <g
         transform="matrix(0.83759222,0,0,0.83759222,387.60795,402.42723)"
         id="g2541"
         style="fill:#ffffff;fill-opacity:1"
         inkscape:export-filename="/tmp/gnome-equation.png"
         inkscape:export-xdpi="193.21001"
         inkscape:export-ydpi="193.21001">
        <g
           id="g2543"
           style="fill:#ffffff;fill-opacity:1">
          <path
             d="M 86.068,0 C 61.466,0 56.851,35.041 70.691,35.041 84.529,35.041 110.671,0 86.068,0 z"
             id="path2545"
             style="fill:#ffffff;fill-opacity:1"
             inkscape:connector-curvature="0" />
          <path
             d="M 45.217,30.699 C 52.586,31.149 60.671,2.577 46.821,4.374 32.976,6.171 37.845,30.249 45.217,30.699 z"
             id="path2547"
             style="fill:#ffffff;fill-opacity:1"
             inkscape:connector-curvature="0" />
          <path
             d="M 11.445,48.453 C 16.686,46.146 12.12,23.581 3.208,29.735 -5.7,35.89 6.204,50.759 11.445,48.453 z"
             id="path2549"
             style="fill:#ffffff;fill-opacity:1"
             inkscape:connector-curvature="0" />
          <path
             d="M 26.212,36.642 C 32.451,35.37 32.793,9.778 21.667,14.369 10.539,18.961 19.978,37.916 26.212,36.642 l 0,0 z"
             id="path2551"
             style="fill:#ffffff;fill-opacity:1"
             inkscape:connector-curvature="0" />
          <path
             d="m 58.791,93.913 c 1.107,8.454 -6.202,12.629 -13.36,7.179 C 22.644,83.743 83.16,75.088 79.171,51.386 75.86,31.712 15.495,37.769 8.621,68.553 3.968,89.374 27.774,118.26 52.614,118.26 c 12.22,0 26.315,-11.034 28.952,-25.012 C 83.58,82.589 57.867,86.86 58.791,93.913 l 0,0 z"
             id="path2553"
             style="fill:#ffffff;fill-opacity:1"
             inkscape:connector-curvature="0" />
        </g>
      </g>
      <path
         id="text6463"
         d="m 174.48188,431.45315 0,16.73283 16.66897,0 0,7.53616 -16.66897,0 0,16.73283 -7.60004,0 0,-16.73283 -16.66896,0 0,-7.53616 16.66896,0 0,-16.73283 7.60004,0"
         style="font-size:42.88790131px;font-style:normal;font-weight:normal;fill:#ffffff;fill-opacity:1;stroke:none;font-family:Bitstream Vera Sans"
         inkscape:connector-curvature="0" />
      <path
         id="text6467"
         d="m 312.63881,438.64382 59.04401,0 0,7.73744 -59.04401,0 0,-7.73744 m 0,18.79093 59.04401,0 0,7.82955 -59.04401,0 0,-7.82955"
         style="font-size:61.85639954px;font-style:normal;font-weight:normal;fill:#ffffff;fill-opacity:1;stroke:none;font-family:Bitstream Vera Sans"
         inkscape:connector-curvature="0" />
    </g>
    <g
       id="g3256">
      <g
         id="g3197"
         transform="translate(-620.01133,0)">
        <flowRoot
           transform="matrix(1.0997427,0,0,1.0997427,5.2368634,298.12778)"
           style="font-size:14.54885769px;font-style:normal;font-weight:normal;text-align:justify;line-height:150%;letter-spacing:0px;word-spacing:0px;text-anchor:start;fill:#000000;fill-opacity:1;stroke:none;font-family:Sans"
           id="flowRoot3199"
           xml:space="preserve"><flowRegion
             id="flowRegion3201"><rect
               style="font-size:14.54885769px;text-align:justify;line-height:150%;text-anchor:start"
               y="359.80878"
               x="38.57143"
               height="308.72223"
               width="391.29581"
               id="rect3203" /></flowRegion><flowPara
             id="flowPara3205"
             style="font-size:14.54885769px;font-style:normal;font-variant:normal;font-weight:normal;font-stretch:normal;text-align:justify;line-height:150%;text-anchor:start;font-family:Cantarell;-inkscape-font-specification:Cantarell">It is the work of our collaborators that makes GNOME a reality. Anyone can contribute to GNOME and there is a lot to be done, not just programming.</flowPara><flowPara
             id="flowPara3207"
             style="font-size:14.54885769px;font-style:normal;font-variant:normal;font-weight:normal;font-stretch:normal;text-align:justify;line-height:150%;text-anchor:start;font-family:Cantarell;-inkscape-font-specification:Cantarell" /><flowPara
             id="flowPara3209"
             style="font-size:14.54885769px;font-style:normal;font-variant:normal;font-weight:normal;font-stretch:normal;text-align:justify;line-height:150%;text-anchor:start;font-family:Cantarell;-inkscape-font-specification:Cantarell">We are happy to provide full guidance to anyone who wants to become a member of the GNOME community. Our GNOME Love initiative provides a series of easy-to-follow resources, and introduces you to over 40 mentors available to help you get started at any time.</flowPara><flowPara
             id="flowPara3211"
             style="font-size:14.54885769px;font-style:normal;font-variant:normal;font-weight:normal;font-stretch:normal;text-align:justify;line-height:150%;text-anchor:start;font-family:Cantarell;-inkscape-font-specification:Cantarell" /><flowPara
             style="font-size:14.54885769px;font-style:normal;font-variant:normal;font-weight:normal;font-stretch:normal;text-align:justify;line-height:150%;text-anchor:start;font-family:Cantarell;-inkscape-font-specification:Cantarell"
             id="flowPara3213">Join us, get involved! What do you want to do?</flowPara></flowRoot>        <flowRoot
           transform="matrix(1.1305281,0,0,1.1305281,3.2684514,556.89412)"
           style="font-size:14.15267754px;font-style:normal;font-weight:normal;line-height:125%;letter-spacing:0px;word-spacing:0px;fill:#d40000;fill-opacity:1;stroke:none;font-family:Sans"
           id="flowRoot3215"
           xml:space="preserve"><flowRegion
             id="flowRegion3217"><rect
               style="font-size:14.15267754px;fill:#d40000;fill-opacity:1"
               y="359.80878"
               x="38.57143"
               height="134.6982"
               width="375.1124"
               id="rect3219" /></flowRegion><flowPara
             id="flowPara3221"
             style="font-size:14.15267754px;font-style:normal;font-variant:normal;font-weight:bold;font-stretch:normal;line-height:170.00000477%;fill:#d40000;fill-opacity:1;font-family:Cantarell;-inkscape-font-specification:Cantarell Bold" /><flowPara
             id="flowPara3223"
             style="font-size:14.15267754px;font-style:normal;font-variant:normal;font-weight:bold;font-stretch:normal;line-height:170.00000477%;fill:#d40000;fill-opacity:1;font-family:Cantarell;-inkscape-font-specification:Cantarell Bold">www.gnome.org/get-involved/</flowPara><flowPara
             id="flowPara3225"
             style="font-size:14.15267754px;font-style:normal;font-variant:normal;font-weight:bold;font-stretch:normal;line-height:170.00000477%;fill:#d40000;fill-opacity:1;font-family:Cantarell;-inkscape-font-specification:Cantarell Bold" /></flowRoot>        <flowRoot
           transform="matrix(1.9577083,0,0,1.9577083,-30.285935,-90.381351)"
           style="font-size:16.34564209px;font-style:normal;font-weight:normal;line-height:125%;letter-spacing:0px;word-spacing:0px;fill:#c71807;fill-opacity:1;stroke:none;font-family:Sans"
           id="flowRoot3227"
           xml:space="preserve"><flowRegion
             id="flowRegion3229"><rect
               style="font-size:16.34564209px;fill:#c71807;fill-opacity:1"
               y="359.80878"
               x="38.57143"
               height="57.743008"
               width="230.04779"
               id="rect3231" /></flowRegion><flowPara
             id="flowPara3233"
             style="font-size:16.34564208999999800px;font-style:normal;font-variant:normal;font-weight:bold;font-stretch:normal;line-height:170.00000477000000000%;fill:#c71807;fill-opacity:1;font-family:Cantarell;-inkscape-font-specification:Cantarell">Get involved today</flowPara></flowRoot>      </g>
    </g>
  </g>
</svg>
