<?xml version="1.0" encoding="UTF-8" standalone="no"?>
<!-- Created with Inkscape (http://www.inkscape.org/) -->

<svg
   xmlns:dc="http://purl.org/dc/elements/1.1/"
   xmlns:cc="http://creativecommons.org/ns#"
   xmlns:rdf="http://www.w3.org/1999/02/22-rdf-syntax-ns#"
   xmlns:svg="http://www.w3.org/2000/svg"
   xmlns="http://www.w3.org/2000/svg"
   xmlns:sodipodi="http://sodipodi.sourceforge.net/DTD/sodipodi-0.dtd"
   xmlns:inkscape="http://www.inkscape.org/namespaces/inkscape"
   width="524.40942"
   height="744.09448"
   id="svg9264"
   version="1.1"
   inkscape:version="0.48.4 r9939"
   sodipodi:docname="privacy-flyer.svg"
   inkscape:export-filename="/home/andreasn/SparkleShare/gnome-marketing/flyers/privacy-flyer.png"
   inkscape:export-xdpi="90"
   inkscape:export-ydpi="90">
  <defs
     id="defs3" />
  <sodipodi:namedview
     inkscape:document-units="mm"
     id="base"
     pagecolor="#ffffff"
     bordercolor="#666666"
     borderopacity="1.0"
     inkscape:pageopacity="1"
     inkscape:pageshadow="2"
     inkscape:zoom="0.70710678"
     inkscape:cx="-10.85547"
     inkscape:cy="298.80297"
     inkscape:current-layer="layer1"
     showgrid="false"
     units="mm"
     showborder="true"
     inkscape:showpageshadow="false"
     inkscape:window-width="1920"
     inkscape:window-height="1011"
     inkscape:window-x="0"
     inkscape:window-y="34"
     inkscape:window-maximized="1"
     showguides="true"
     inkscape:guide-bbox="true"
     inkscape:snap-nodes="false"
     inkscape:snap-bbox="true">
    <inkscape:grid
       type="xygrid"
       id="grid9533"
       empspacing="5"
       visible="true"
       enabled="true"
       snapvisiblegridlinesonly="true" />
  </sodipodi:namedview>
  <metadata
     id="metadata4">
    <rdf:RDF>
      <cc:Work
         rdf:about="">
        <dc:format>image/svg+xml</dc:format>
        <dc:type
           rdf:resource="http://purl.org/dc/dcmitype/StillImage" />
        <dc:title />
      </cc:Work>
    </rdf:RDF>
  </metadata>
  <g
     inkscape:label="Layer 1"
     inkscape:groupmode="layer"
     id="layer1"
     transform="translate(0,-308.26769)">
    <path
       style="fill:#018094;fill-opacity:1;stroke:none"
       d="m 0.12626849,308.26769 524.26921151,0 0,324.09448 -524.26921151,0 z"
       id="rect9346"
       inkscape:connector-curvature="0" />
    <flowRoot
       xml:space="preserve"
       id="flowRoot9312"
       style="font-size:14.54885769px;font-style:normal;font-weight:normal;text-align:justify;line-height:150%;letter-spacing:0px;word-spacing:0px;text-anchor:start;fill:#000000;fill-opacity:1;stroke:none;font-family:Sans"
       transform="matrix(1.0997427,0,0,1.0997427,9.343363,335.2491)"><flowRegion
         id="flowRegion9314"><rect
           id="rect9316"
           width="388.72391"
           height="162.12398"
           x="38.57143"
           y="359.80878"
           style="font-size:14.54885769px;text-align:justify;line-height:150%;text-anchor:start" /></flowRegion><flowPara
         style="font-size:14.54885769px;font-style:normal;font-variant:normal;font-weight:normal;font-stretch:normal;text-align:justify;line-height:150%;text-anchor:start;font-family:Cantarell;-inkscape-font-specification:Cantarell"
         id="flowPara10640">Software should make people feel safe and put them in control. GNOME was founded to promote software freedom. We remain committed to the empowerment of our users, and have launched a campaign to make GNOME 3 the most secure computing environment available.</flowPara></flowRoot>    <flowRoot
       xml:space="preserve"
       id="flowRoot9312-4"
       style="font-size:14.15267754px;font-style:normal;font-weight:normal;line-height:125%;letter-spacing:0px;word-spacing:0px;fill:#018094;fill-opacity:1;stroke:none;font-family:Sans"
       transform="matrix(1.1305281,0,0,1.1305281,8.236201,499.87835)"><flowRegion
         id="flowRegion9314-5"><rect
           id="rect9316-3"
           width="375.1124"
           height="134.6982"
           x="38.57143"
           y="359.80878"
           style="font-size:14.15267754px;fill:#018094;fill-opacity:1" /></flowRegion><flowPara
         style="font-size:14.15267754px;font-style:normal;font-variant:normal;font-weight:bold;font-stretch:normal;line-height:170.00000477%;fill:#018094;fill-opacity:1;font-family:Cantarell;-inkscape-font-specification:Cantarell Bold"
         id="flowPara10646" /><flowPara
         style="font-size:14.15267754px;font-style:normal;font-variant:normal;font-weight:bold;font-stretch:normal;line-height:170.00000477%;fill:#018094;fill-opacity:1;font-family:Cantarell;-inkscape-font-specification:Cantarell Bold"
         id="flowPara10644">www.gnome.org/friends</flowPara></flowRoot>    <flowRoot
       xml:space="preserve"
       id="flowRoot9312-4-1"
       style="font-size:16.34564209px;font-style:normal;font-weight:normal;line-height:125%;letter-spacing:0px;word-spacing:0px;fill:#018094;fill-opacity:1;stroke:none;font-family:Sans"
       transform="matrix(1.9577083,0,0,1.9577083,-26.285935,-34.260035)"><flowRegion
         id="flowRegion9314-5-0"><rect
           id="rect9316-3-9"
           width="186.70486"
           height="57.743008"
           x="38.57143"
           y="359.80878"
           style="font-size:16.34564209px;fill:#018094;fill-opacity:1" /></flowRegion><flowPara
         style="font-size:16.34564209px;font-style:normal;font-variant:normal;font-weight:bold;font-stretch:normal;line-height:170.00000477%;fill:#018094;fill-opacity:1;font-family:Cantarell;-inkscape-font-specification:Cantarell Bold"
         id="flowPara10644-5">Putting you in control</flowPara></flowRoot>    <flowRoot
       transform="matrix(1.1305281,0,0,1.1305281,7.852201,467.87835)"
       style="font-size:14.15267754px;font-style:normal;font-weight:normal;line-height:150%;letter-spacing:0px;word-spacing:0px;fill:#000000;fill-opacity:1;stroke:none;font-family:Sans"
       id="flowRoot3005"
       xml:space="preserve"><flowRegion
         id="flowRegion3007"><rect
           y="359.80878"
           x="38.57143"
           height="124.76739"
           width="362.47565"
           id="rect3009"
           style="font-size:14.15267754px;line-height:150%" /></flowRegion><flowPara
         id="flowPara3013"
         style="font-size:14.15267754px;font-style:normal;font-variant:normal;font-weight:bold;font-stretch:normal;line-height:150%;fill:#000000;font-family:Cantarell;-inkscape-font-specification:Cantarell Bold">Become a Friend of GNOME and help us reach our goal of $20000.</flowPara></flowRoot>    <path
       style="font-size:medium;font-style:normal;font-variant:normal;font-weight:normal;font-stretch:normal;text-indent:0;text-align:start;text-decoration:none;line-height:normal;letter-spacing:normal;word-spacing:normal;text-transform:none;direction:ltr;block-progression:tb;writing-mode:lr-tb;text-anchor:start;baseline-shift:baseline;color:#bebebe;fill:#ffffff;fill-opacity:1;stroke:none;stroke-width:20;marker:none;visibility:visible;display:inline;overflow:visible;enable-background:accumulate;font-family:Sans;-inkscape-font-specification:Sans"
       d="m 169.8752,360.13134 0,110.96451 c 0,32.94854 23.59127,57.57609 43.30621,75.21989 19.85753,17.77129 39.48458,29.72207 39.48458,29.72207 l 0.0906,0.0546 0.0722,0.0544 7.28113,4.09335 2.89796,1.6301 2.8798,-1.6844 7.73391,-4.54618 0.0544,-0.0361 0.0364,-0.0362 c 0,0 19.23521,-11.83384 39.03177,-29.72207 19.6282,-17.73597 43.26998,-42.15436 43.26998,-74.749 l 0,-110.96452 -186.13887,0 z m 11.59179,28.58363 162.95528,0 0,87.44305 c 0,26.87502 -20.36529,48.90238 -39.4483,66.14568 -18.76967,16.96038 -36.96017,28.22779 -37.23866,28.39991 l -4.85404,2.86174 -4.18393,-2.3546 c 0,0 -0.0888,-0.0532 -0.0906,-0.0546 l -0.0908,-0.0544 c -0.50674,-0.31015 -18.90767,-11.61601 -37.60086,-28.34527 -19.09585,-17.08965 -39.44837,-39.28115 -39.44837,-66.59849 l 0,-87.44307 z"
       id="rect3259-2-8-6-8-7-5"
       inkscape:connector-curvature="0"
       sodipodi:nodetypes="ccscccccccccsccccccsscccccsscc" />
    <g
       transform="matrix(0.97962528,0,0,0.97962528,217.35005,411.21867)"
       style="fill:#ffffff;fill-opacity:1;fill-rule:nonzero;stroke:none"
       id="g15043-8-8-2">
      <g
         style="fill:#ffffff;fill-opacity:1"
         id="g15045-2-6">
        <path
           inkscape:connector-curvature="0"
           d="M 86.068,0 C 61.466,0 56.851,35.041 70.691,35.041 84.529,35.041 110.671,0 86.068,0 z"
           style="fill:#ffffff;fill-opacity:1"
           id="path15047-5-5-6" />
        <path
           inkscape:connector-curvature="0"
           d="M 45.217,30.699 C 52.586,31.149 60.671,2.577 46.821,4.374 32.976,6.171 37.845,30.249 45.217,30.699 z"
           style="fill:#ffffff;fill-opacity:1"
           id="path15049-5-9-0" />
        <path
           inkscape:connector-curvature="0"
           d="M 11.445,48.453 C 16.686,46.146 12.12,23.581 3.208,29.735 -5.7,35.89 6.204,50.759 11.445,48.453 z"
           style="fill:#ffffff;fill-opacity:1"
           id="path15051-1-5-9" />
        <path
           inkscape:connector-curvature="0"
           d="M 26.212,36.642 C 32.451,35.37 32.793,9.778 21.667,14.369 10.539,18.961 19.978,37.916 26.212,36.642 l 0,0 z"
           style="fill:#ffffff;fill-opacity:1"
           id="path15053-6-9-5" />
        <path
           inkscape:connector-curvature="0"
           d="m 58.791,93.913 c 1.107,8.454 -6.202,12.629 -13.36,7.179 C 22.644,83.743 83.16,75.088 79.171,51.386 75.86,31.712 15.495,37.769 8.621,68.553 3.968,89.374 27.774,118.26 52.614,118.26 c 12.22,0 26.315,-11.034 28.952,-25.012 C 83.58,82.589 57.867,86.86 58.791,93.913 l 0,0 z"
           style="fill:#ffffff;fill-opacity:1"
           id="path15055-2-1-5" />
      </g>
    </g>
  </g>
</svg>
