<?xml version="1.0" encoding="UTF-8" standalone="no"?>
<!-- Created with Inkscape (http://www.inkscape.org/) -->

<svg
   xmlns:dc="http://purl.org/dc/elements/1.1/"
   xmlns:cc="http://creativecommons.org/ns#"
   xmlns:rdf="http://www.w3.org/1999/02/22-rdf-syntax-ns#"
   xmlns:svg="http://www.w3.org/2000/svg"
   xmlns="http://www.w3.org/2000/svg"
   xmlns:sodipodi="http://sodipodi.sourceforge.net/DTD/sodipodi-0.dtd"
   xmlns:inkscape="http://www.inkscape.org/namespaces/inkscape"
   width="389.76376"
   height="389.76376"
   id="svg6207"
   version="1.1"
   inkscape:version="0.48.4 r9939"
   sodipodi:docname="New document 2">
  <defs
     id="defs6209" />
  <sodipodi:namedview
     id="base"
     pagecolor="#828282"
     bordercolor="#666666"
     borderopacity="1.0"
     inkscape:pageopacity="1"
     inkscape:pageshadow="2"
     inkscape:zoom="1.4537209"
     inkscape:cx="225.67414"
     inkscape:cy="132.84933"
     inkscape:document-units="px"
     inkscape:current-layer="layer1"
     showgrid="false"
     units="mm"
     inkscape:window-width="1920"
     inkscape:window-height="1011"
     inkscape:window-x="0"
     inkscape:window-y="34"
     inkscape:window-maximized="1" />
  <metadata
     id="metadata6212">
    <rdf:RDF>
      <cc:Work
         rdf:about="">
        <dc:format>image/svg+xml</dc:format>
        <dc:type
           rdf:resource="http://purl.org/dc/dcmitype/StillImage" />
        <dc:title></dc:title>
      </cc:Work>
    </rdf:RDF>
  </metadata>
  <g
     inkscape:label="Layer 1"
     inkscape:groupmode="layer"
     id="layer1"
     transform="translate(0,-662.5984)">
    <path
       style="font-size:medium;font-style:normal;font-variant:normal;font-weight:normal;font-stretch:normal;text-indent:0;text-align:start;text-decoration:none;line-height:normal;letter-spacing:normal;word-spacing:normal;text-transform:none;direction:ltr;block-progression:tb;writing-mode:lr-tb;text-anchor:start;baseline-shift:baseline;color:#bebebe;fill:#ffffff;fill-opacity:1;stroke:none;stroke-width:2;marker:none;visibility:visible;display:inline;overflow:visible;enable-background:accumulate;font-family:Sans;-inkscape-font-specification:Sans"
       d="M 47.15625 16.53125 L 47.15625 191.40625 C 47.15625 243.16183 84.857297 283.39011 118.1875 313.21875 C 151.51792 343.04744 184.5625 363.1875 184.5625 363.1875 L 197.03125 370.1875 L 210.3125 362.40625 C 210.3125 362.40625 242.66195 342.47727 275.90625 312.4375 C 309.15096 282.39776 346.9375 242.47802 346.9375 191.40625 L 346.9375 16.53125 L 47.15625 16.53125 z M 260.59375 68.875 C 301.7869 68.875 258.04416 127.5625 234.875 127.5625 C 211.70249 127.5625 219.40227 68.875 260.59375 68.875 z M 196.96875 76.0625 C 217.24557 76.132349 204.17121 121.01115 192.21875 120.28125 C 179.87571 119.52781 171.72537 79.227493 194.90625 76.21875 C 195.63091 76.124727 196.31466 76.060247 196.96875 76.0625 z M 156.8125 92.03125 C 171.27228 91.71087 170.00495 128.28666 160.375 130.25 C 149.93733 132.38308 134.14948 100.62595 152.78125 92.9375 C 154.2366 92.336971 155.58709 92.058401 156.8125 92.03125 z M 126.5 116.90625 C 138.27438 116.22385 143.47156 146.55983 135.65625 150 C 126.88117 153.86097 106.96021 128.9929 121.875 118.6875 C 123.50704 117.56053 125.05402 116.99005 126.5 116.90625 z "
       id="rect3259-2-8-6-8-7"
       transform="translate(0,662.5984)" />
    <g
       transform="matrix(1.6743142,0,0,1.6743142,116.50349,731.48525)"
       style="fill:#2e3436;fill-opacity:1;fill-rule:nonzero;stroke:none"
       id="g15043-8-8">
      <g
         style="fill:#2e3436;fill-opacity:1"
         id="g15045-2-6">
        <path
           inkscape:connector-curvature="0"
           d="m 58.791,93.913 c 1.107,8.454 -6.202,12.629 -13.36,7.179 C 22.644,83.743 83.16,75.088 79.171,51.386 75.86,31.712 15.495,37.769 8.621,68.553 3.968,89.374 27.774,118.26 52.614,118.26 c 12.22,0 26.315,-11.034 28.952,-25.012 C 83.58,82.589 57.867,86.86 58.791,93.913 l 0,0 z"
           style="fill:#018094;fill-opacity:1"
           id="path15055-2-1" />
      </g>
    </g>
  </g>
</svg>
