<?xml version="1.0" encoding="UTF-8" standalone="no"?>
<!-- Created with Inkscape (http://www.inkscape.org/) -->

<svg
   xmlns:dc="http://purl.org/dc/elements/1.1/"
   xmlns:cc="http://creativecommons.org/ns#"
   xmlns:rdf="http://www.w3.org/1999/02/22-rdf-syntax-ns#"
   xmlns:svg="http://www.w3.org/2000/svg"
   xmlns="http://www.w3.org/2000/svg"
   xmlns:sodipodi="http://sodipodi.sourceforge.net/DTD/sodipodi-0.dtd"
   xmlns:inkscape="http://www.inkscape.org/namespaces/inkscape"
   width="389.76376"
   height="389.76376"
   id="svg6207"
   version="1.1"
   inkscape:version="0.48.4 r9939"
   sodipodi:docname="fosdem2013-print.svg">
  <defs
     id="defs6209" />
  <sodipodi:namedview
     id="base"
     pagecolor="#ffffff"
     bordercolor="#666666"
     borderopacity="1.0"
     inkscape:pageopacity="0"
     inkscape:pageshadow="2"
     inkscape:zoom="1.0870648"
     inkscape:cx="-111.15723"
     inkscape:cy="343.6146"
     inkscape:document-units="px"
     inkscape:current-layer="layer1"
     showgrid="false"
     units="mm"
     inkscape:window-width="1920"
     inkscape:window-height="1011"
     inkscape:window-x="0"
     inkscape:window-y="34"
     inkscape:window-maximized="1"
     showborder="true" />
  <metadata
     id="metadata6212">
    <rdf:RDF>
      <cc:Work
         rdf:about="">
        <dc:format>image/svg+xml</dc:format>
        <dc:type
           rdf:resource="http://purl.org/dc/dcmitype/StillImage" />
        <dc:title></dc:title>
      </cc:Work>
    </rdf:RDF>
  </metadata>
  <g
     inkscape:label="Layer 1"
     inkscape:groupmode="layer"
     id="layer1"
     transform="translate(0,-662.5984)">
    <path
       style="font-size:medium;font-style:normal;font-variant:normal;font-weight:normal;font-stretch:normal;text-indent:0;text-align:start;text-decoration:none;line-height:normal;letter-spacing:normal;word-spacing:normal;text-transform:none;direction:ltr;block-progression:tb;writing-mode:lr-tb;text-anchor:start;baseline-shift:baseline;color:#bebebe;fill:#2e3436;fill-opacity:1;stroke:none;stroke-width:20;marker:none;visibility:visible;display:inline;overflow:visible;enable-background:accumulate;font-family:Sans;-inkscape-font-specification:Sans"
       d="m 41.723972,674.41057 0,182.1934 c 0,54.09846 38.734636,94.53458 71.104728,123.50405 32.60424,29.17878 64.83004,48.80088 64.83004,48.80088 l 0.14862,0.09 0.11855,0.089 11.95494,6.7209 4.75818,2.6764 4.72837,-2.7656 12.69836,-7.4644 0.0894,-0.059 0.0596,-0.059 c 0,0 31.58243,-19.4301 64.08653,-48.8009 32.22769,-29.12078 71.04531,-69.2135 71.04531,-122.73086 l 0,-182.19344 -305.622733,0 z m 19.032631,46.93166 267.557427,0 0,143.57337 c 0,44.12627 -33.43789,80.29313 -64.77044,108.60505 -30.81808,27.84735 -60.68518,46.34745 -61.14242,46.63005 l -7.96991,4.6987 -6.86961,-3.8661 c 0,0 -0.1459,-0.087 -0.14864,-0.09 l -0.14901,-0.089 c -0.83201,-0.5093 -31.04465,-19.0724 -61.73713,-46.54032 C 94.173268,946.20428 60.756325,909.76789 60.756325,864.91535 l 0,-143.5734 z"
       id="rect3259-2-8-6-8-7-5-7"
       inkscape:connector-curvature="0"
       sodipodi:nodetypes="ccscccccccccsccccccsscccccsscc" />
    <g
       transform="matrix(1.6084535,0,0,1.6084535,119.67323,758.29121)"
       style="fill:#2e3436;fill-opacity:1;fill-rule:nonzero;stroke:none"
       id="g15043-8-8-2">
      <g
         style="fill:#2e3436;fill-opacity:1"
         id="g15045-2-6-5">
        <path
           inkscape:connector-curvature="0"
           d="M 86.068,0 C 61.466,0 56.851,35.041 70.691,35.041 84.529,35.041 110.671,0 86.068,0 z"
           style="fill:#2e3436;fill-opacity:1"
           id="path15047-5-5-6" />
        <path
           inkscape:connector-curvature="0"
           d="M 45.217,30.699 C 52.586,31.149 60.671,2.577 46.821,4.374 32.976,6.171 37.845,30.249 45.217,30.699 z"
           style="fill:#2e3436;fill-opacity:1"
           id="path15049-5-9-0" />
        <path
           inkscape:connector-curvature="0"
           d="M 11.445,48.453 C 16.686,46.146 12.12,23.581 3.208,29.735 -5.7,35.89 6.204,50.759 11.445,48.453 z"
           style="fill:#2e3436;fill-opacity:1"
           id="path15051-1-5-9" />
        <path
           inkscape:connector-curvature="0"
           d="M 26.212,36.642 C 32.451,35.37 32.793,9.778 21.667,14.369 10.539,18.961 19.978,37.916 26.212,36.642 l 0,0 z"
           style="fill:#2e3436;fill-opacity:1"
           id="path15053-6-9-5" />
        <path
           inkscape:connector-curvature="0"
           d="m 58.791,93.913 c 1.107,8.454 -6.202,12.629 -13.36,7.179 C 22.644,83.743 83.16,75.088 79.171,51.386 75.86,31.712 15.495,37.769 8.621,68.553 3.968,89.374 27.774,118.26 52.614,118.26 c 12.22,0 26.315,-11.034 28.952,-25.012 C 83.58,82.589 57.867,86.86 58.791,93.913 l 0,0 z"
           style="fill:#2e3436;fill-opacity:1"
           id="path15055-2-1-5" />
      </g>
    </g>
  </g>
</svg>
