<?xml version="1.0" encoding="UTF-8" standalone="no"?>
<!-- Created with Inkscape (http://www.inkscape.org/) -->

<svg
   xmlns:dc="http://purl.org/dc/elements/1.1/"
   xmlns:cc="http://creativecommons.org/ns#"
   xmlns:rdf="http://www.w3.org/1999/02/22-rdf-syntax-ns#"
   xmlns:svg="http://www.w3.org/2000/svg"
   xmlns="http://www.w3.org/2000/svg"
   xmlns:sodipodi="http://sodipodi.sourceforge.net/DTD/sodipodi-0.dtd"
   xmlns:inkscape="http://www.inkscape.org/namespaces/inkscape"
   width="744.09448"
   height="354.33069"
   id="svg3199"
   version="1.1"
   inkscape:version="0.48.0 r9654"
   sodipodi:docname="gnome3-thirt-print.svg">
  <defs
     id="defs3201" />
  <sodipodi:namedview
     id="base"
     pagecolor="#ffffff"
     bordercolor="#666666"
     borderopacity="1.0"
     inkscape:pageopacity="0.0"
     inkscape:pageshadow="2"
     inkscape:zoom="0.70710678"
     inkscape:cx="308.41954"
     inkscape:cy="222.48662"
     inkscape:document-units="px"
     inkscape:current-layer="layer1"
     showgrid="false"
     units="cm"
     inkscape:window-width="1366"
     inkscape:window-height="707"
     inkscape:window-x="0"
     inkscape:window-y="26"
     inkscape:window-maximized="1" />
  <metadata
     id="metadata3204">
    <rdf:RDF>
      <cc:Work
         rdf:about="">
        <dc:format>image/svg+xml</dc:format>
        <dc:type
           rdf:resource="http://purl.org/dc/dcmitype/StillImage" />
        <dc:title></dc:title>
      </cc:Work>
    </rdf:RDF>
  </metadata>
  <g
     inkscape:label="Layer 1"
     inkscape:groupmode="layer"
     id="layer1"
     transform="translate(0,-698.03016)">
    <path
       inkscape:connector-curvature="0"
       style="color:#000000;fill:#7ca5d2;fill-opacity:1;stroke:none;stroke-width:5;marker:none;visibility:visible;display:inline;overflow:visible;enable-background:accumulate"
       d="m 42.186954,746.82328 c -14.353226,0 -25.972668,11.51212 -25.972668,25.86534 l 0,154.22614 c 0,14.35322 11.619442,25.97271 25.972668,25.97271 l 48.725584,0 C 60.065526,934.76927 37.87307,897.76042 44.333456,868.85189 57.476673,809.99235 172.80304,798.39337 179.13374,836.01042 c 7.62706,45.31866 -108.071498,61.8111 -64.50237,94.98269 13.68623,10.42049 27.65996,2.42658 25.54337,-13.73761 -1.76669,-13.48546 47.42477,-21.56077 43.57398,-1.18058 -2.82661,14.98307 -12.57912,28.09307 -24.68477,36.81255 l 37.34913,0 c 14.35323,0 25.86534,-11.61949 25.86534,-25.97271 l 0,-154.22614 c 0,-8.59067 -4.11675,-16.11263 -10.51785,-20.82106 0.15283,19.6533 -30.19482,52.91126 -48.83291,52.91126 -20.35684,0 -19.73542,-39.65955 3.0051,-57.95554 l -41.74946,0 c 16.48562,6.50534 2.77593,50.35669 -9.8739,49.58419 -13.45774,-0.82148 -22.565839,-42.7951 -0.32181,-49.58419 l -71.800464,0 z m 30.802297,17.38666 c 17.41297,-1.84812 16.120467,41.29392 4.936953,43.57398 -11.919505,2.43592 -29.970278,-33.82807 -8.693331,-42.60805 1.32956,-0.54865 2.595515,-0.84273 3.756378,-0.96593 z m -33.056123,28.33382 c 12.949414,0.43579 18.534851,34.0261 9.766581,37.88575 -10.020899,4.40912 -32.809052,-24.07811 -15.776786,-35.84657 2.129982,-1.47082 4.160298,-2.10144 6.010205,-2.03918 z"
       id="rect16600" />
    <path
       inkscape:connector-curvature="0"
       style="color:#000000;fill:#7ca5d2;fill-opacity:1;stroke:none;stroke-width:5;marker:none;visibility:visible;display:inline;overflow:visible;enable-background:accumulate"
       d="m 549.26566,746.82327 c -14.35323,0 -25.97267,11.51212 -25.97267,25.86534 l 0,154.22614 c 0,14.35322 11.61944,25.97271 25.97267,25.97271 l 19.96247,0 c -9.00453,-3.28897 -17.72018,-7.29959 -26.29465,-12.02045 l 7.08346,-37.88575 c 8.32056,6.33193 16.76002,11.58197 25.32871,15.66946 8.66978,4.01852 17.42345,6.82185 26.18732,8.47868 13.018,2.46116 23.3797,2.13335 31.12427,-1.07325 7.82945,-3.19046 12.57428,-8.96318 14.16691,-17.38667 1.64065,-8.67866 -0.66551,-16.01128 -6.97613,-21.78699 -6.20964,-5.84459 -16.2895,-10.04229 -30.15834,-12.66435 l -19.64049,-3.64906 6.0102,-31.66089 20.60642,3.8637 c 12.3373,2.33254 21.89074,2.15021 28.65579,-0.53662 6.78089,-2.77174 10.95358,-8.07836 12.44971,-15.99144 1.38324,-7.31723 -0.46618,-13.56548 -5.5809,-18.67457 -5.11499,-5.1088 -12.99818,-8.70552 -23.71884,-10.73249 -7.91307,-1.49586 -16.1566,-2.083 -24.57745,-1.82453 -8.42101,0.25895 -16.88585,1.35078 -25.54336,3.32708 l 6.76148,-35.9539 c 10.21442,-0.88876 20.26397,-1.08404 30.05102,-0.64395 9.78684,0.44042 19.25178,1.48266 28.44114,3.21975 24.75974,4.68119 42.41769,12.26851 53.12591,22.75291 10.80906,10.41572 14.67943,23.8033 11.59111,40.13958 -2.10745,11.14632 -6.73033,19.72086 -13.95226,25.75802 -7.2062,5.95227 -16.83712,9.26001 -28.87044,9.98123 12.22043,5.74737 20.89617,13.45963 25.97267,22.96757 5.17732,9.43904 6.5823,20.48573 4.18567,33.16345 -2.75428,14.56801 -9.29689,25.58671 -19.64049,33.16349 l 27.47522,0 c 14.35323,0 25.86535,-11.61949 25.86535,-25.97271 l 0,-154.22614 c 0,-14.35322 -11.51212,-25.86534 -25.86535,-25.86534 l -154.22613,0 z"
       id="rect16600-5-1" />
    <path
       inkscape:connector-curvature="0"
       style="color:#000000;fill:#7ca5d2;fill-opacity:1;stroke:none;stroke-width:1;marker:none;visibility:visible;display:inline;overflow:visible;enable-background:accumulate"
       d="m 295.61899,746.82321 c -14.35322,0 -25.86534,11.51212 -25.86534,25.86534 l 0,89.72377 c 7.84964,3.68648 15.04976,8.5724 21.25037,14.48888 l 10.7325,-10.30321 c -12.08823,-12.74232 -16.53458,-29.80031 -17.70863,-56.13101 4.05166,4.30715 7.67218,9.2892 14.16691,10.94716 6.93488,-17.95945 24.15321,-30.04378 43.35931,-30.48032 3.16693,-0.0721 6.42076,0.16485 9.65926,0.75127 23.20911,4.20216 39.41715,24.51607 39.17365,47.33036 9.27364,2.73131 39.81761,12.02041 39.81761,12.02041 l -46.47176,16.74271 10.51786,34.666 -25.6507,-23.93349 c -9.8432,6.37421 -22.01984,9.22693 -34.45135,6.97613 -7.79451,-1.41127 -14.73815,-4.7063 -20.60641,-9.22996 -0.15283,-0.0986 -0.27784,-0.22255 -0.4293,-0.3218 -2.63421,-1.72606 -5.09623,-3.46507 -7.29809,-5.36626 l -7.62008,7.29811 -0.4293,6.4395 c 7.41618,9.10004 12.90075,19.89196 15.77677,31.6609 2.56447,-0.45489 5.24701,-0.75128 7.94205,-0.75128 14.40238,0 27.19336,6.84937 35.41728,17.38667 2.4025,-0.65436 4.90288,-1.07325 7.51275,-1.07325 13.29835,0 24.46737,9.06022 27.68987,21.35769 l 57.84822,0 c 14.35323,0 25.86534,-11.61945 25.86534,-25.97267 l 0,-154.22614 c 0,-14.35322 -11.51211,-25.86534 -25.86534,-25.86534 l -154.33345,0 z m 55.16508,70.29792 c -8.41841,0.1913 -15.82799,6.20216 -17.38666,14.81086 -1.78132,9.83854 4.75768,19.36172 14.59621,21.14304 9.83853,1.78133 19.25439,-4.75767 21.03571,-14.59621 1.78132,-9.83853 -4.75767,-19.25439 -14.59621,-21.03571 -1.22982,-0.22255 -2.44643,-0.34945 -3.64905,-0.3218 z m 3.4344,15.77679 c 0.58127,-0.0137 1.12278,-1.7e-4 1.7172,0.10715 4.75528,0.86097 7.94443,5.44061 7.08346,10.19589 -0.86097,4.75527 -5.44061,7.8371 -10.19588,6.97613 -4.75528,-0.86097 -7.8371,-5.33329 -6.97613,-10.08856 0.75337,-4.16088 4.30244,-7.0984 8.37135,-7.19078 z m 59.56542,35.5246 28.97777,4.93695 -0.21465,0.10716 c 11.74504,1.68306 20.82106,11.72288 20.82106,23.93349 0,13.38854 -10.86693,24.25547 -24.25546,24.25547 -13.38854,0 -24.25547,-10.86693 -24.25547,-24.25547 0,-7.83617 3.67639,-14.77968 9.44461,-19.21119 l -10.51786,-9.76658 z m 27.04592,15.24016 a 1.7173729,1.7173729 0 0 0 -0.10716,0.10715 1.7173729,1.7173729 0 0 0 -1.2879,1.71721 l 0,12.879 c -1.03004,-0.46539 -2.1443,-0.75127 -3.4344,-0.75127 -3.78059,0 -6.8688,2.31568 -6.8688,5.1516 0,2.83593 3.08821,5.04428 6.8688,5.04428 3.78063,0 6.76148,-2.20835 6.76148,-5.04428 0,-0.10543 0.007,-0.21843 0,-0.3218 a 1.7173729,1.7173729 0 0 0 0,-0.21465 1.7173729,1.7173729 0 0 0 0.10715,-0.10715 l 0,-16.63539 a 1.7173729,1.7173729 0 0 0 -2.03917,-1.82453 z"
       id="rect16600-5-6-7" />
  </g>
</svg>
