<?xml version="1.0" encoding="UTF-8" standalone="no"?>
<!-- Created with Inkscape (http://www.inkscape.org/) -->

<svg
   xmlns:dc="http://purl.org/dc/elements/1.1/"
   xmlns:cc="http://creativecommons.org/ns#"
   xmlns:rdf="http://www.w3.org/1999/02/22-rdf-syntax-ns#"
   xmlns:svg="http://www.w3.org/2000/svg"
   xmlns="http://www.w3.org/2000/svg"
   xmlns:sodipodi="http://sodipodi.sourceforge.net/DTD/sodipodi-0.dtd"
   xmlns:inkscape="http://www.inkscape.org/namespaces/inkscape"
   width="531.49603"
   height="531.49603"
   id="svg9270"
   version="1.1"
   inkscape:version="0.48.4 r9939"
   sodipodi:docname="guadec2013-print.svg">
  <defs
     id="defs9272" />
  <sodipodi:namedview
     id="base"
     pagecolor="#ffffff"
     bordercolor="#666666"
     borderopacity="1.0"
     inkscape:pageopacity="0.0"
     inkscape:pageshadow="2"
     inkscape:zoom="1"
     inkscape:cx="278.66312"
     inkscape:cy="86.201793"
     inkscape:current-layer="layer1"
     inkscape:document-units="px"
     showgrid="false"
     units="cm"
     inkscape:window-width="2560"
     inkscape:window-height="1374"
     inkscape:window-x="0"
     inkscape:window-y="27"
     inkscape:window-maximized="1" />
  <metadata
     id="metadata9275">
    <rdf:RDF>
      <cc:Work
         rdf:about="">
        <dc:format>image/svg+xml</dc:format>
        <dc:type
           rdf:resource="http://purl.org/dc/dcmitype/StillImage" />
        <dc:title></dc:title>
      </cc:Work>
    </rdf:RDF>
  </metadata>
  <g
     id="layer1"
     inkscape:label="Layer 1"
     inkscape:groupmode="layer"
     transform="translate(0,-68.503747)">
    <path
       id="path8025-8-4-0-8"
       style="font-size:medium;font-style:normal;font-variant:normal;font-weight:normal;font-stretch:normal;text-indent:0;text-align:start;text-decoration:none;line-height:normal;letter-spacing:normal;word-spacing:normal;text-transform:none;direction:ltr;block-progression:tb;writing-mode:lr-tb;text-anchor:start;baseline-shift:baseline;color:#000000;fill:#2e3436;fill-opacity:1;fill-rule:nonzero;stroke:none;stroke-width:2.81839633000000012;marker:none;visibility:visible;display:inline;overflow:visible;enable-background:accumulate;font-family:Sans;-inkscape-font-specification:Sans"
       d="m 198.72236,223.36389 c -8.11661,0 -9.6455,11.56789 -5.07942,11.56789 4.56538,0 13.19637,-11.56789 5.07942,-11.56789 z m -12.9397,1.44605 c -4.56764,0.59252 -2.95119,8.52746 -0.51903,8.67579 2.43112,0.14863 5.08842,-9.26865 0.51903,-8.67579 z m -7.63774,3.1144 c -0.20027,0.0217 -0.43796,0.0899 -0.66739,0.18533 -3.67136,1.51497 -0.53655,7.76155 1.52016,7.34114 1.92973,-0.39338 2.1518,-7.8454 -0.85277,-7.52647 z m -5.70977,4.89413 c -0.31923,-0.0126 -0.67063,0.0796 -1.03816,0.33362 -2.9389,2.03061 0.97745,6.95246 2.70658,6.19188 1.51292,-0.66622 0.56602,-6.45067 -1.66842,-6.5255 z m 128.24775,0.0371 c -2.85098,0 -5.40024,1.26531 -6.89628,2.81789 -1.55251,1.60893 -2.70658,4.14423 -2.70658,7.19279 0,2.99209 0.88233,5.41276 2.6324,7.30417 1.60904,1.63678 4.05966,2.78069 7.19289,2.78069 2.20178,0 4.18211,-0.39606 5.93219,-1.18648 l -0.59321,-1.85384 c -1.5525,0.62104 -3.08207,0.92689 -4.63456,0.92689 -1.52428,0 -2.92995,-0.32356 -4.11542,-1.00102 -2.23001,-1.27029 -3.78189,-3.67634 -3.78189,-7.00751 0,-2.28618 0.72142,-4.10238 2.07633,-5.59849 1.12913,-1.21374 3.10016,-2.26166 5.30195,-2.26179 2.22994,0 3.04164,0.2319 4.81995,0.85284 l 0.66739,-1.96495 c -1.86308,-0.67777 -3.32648,-1.00119 -5.89516,-1.00119 z m 45.19623,0.14835 c -1.91943,0 -3.32512,0.70204 -4.11543,2.11331 -0.28236,0.5085 -0.40792,1.37275 -0.40792,2.55829 l 0,1.37197 -1.96501,0 0,1.77963 1.96501,0 0.0374,11.82739 2.26163,0 0,-11.82739 4.52334,0 0,-1.77963 -4.52334,0 0,-1.2978 c 0,-0.36694 0.009,-0.65506 0.0374,-0.85283 0.16938,-1.12879 1.3112,-2.03914 2.89198,-2.03914 0.62101,0 1.34954,0.10785 2.22459,0.33381 l 0.37075,-1.70568 c -0.9597,-0.28198 -2.14247,-0.48193 -3.29982,-0.48193 z m -228.87342,0.0732 0,2.07633 6.5255,0 0,17.50008 2.3358,0 0,-17.50008 6.52551,0 0,-2.07633 z m 17.38886,0.66739 0,18.90902 2.3359,0 0,-11.01177 c 1.38315,-0.67726 2.59791,-1.03792 3.67057,-1.03817 2.20169,0 3.00319,1.04175 3.00319,3.29988 l 0,8.75006 2.29876,0 0,-9.26912 c 0,-2.87927 -1.56115,-4.7088 -4.41213,-4.7088 -1.41137,0 -2.9232,0.40505 -4.56039,1.22362 l 0,-6.15472 z m 146.15575,0.44495 0,0.33358 1.0752,0 0,2.66955 0.40782,0 0,-2.66955 1.07521,0 0,-0.33358 z m 2.96615,0 0,3.00313 0.40782,0 0,-2.66955 0.77859,2.07634 0.40782,0 0.7786,-2.07634 0,2.66955 0.40782,0 0,-3.00313 -0.59321,0 -0.7786,2.03926 -0.7786,-2.03926 z m -95.50922,2.37284 c -6.10847,0.28441 -13.50179,3.46657 -14.83064,9.41748 -1.53507,6.86921 6.3389,16.38783 14.53403,16.38783 4.03158,0 8.65869,-3.61941 9.52869,-8.23097 0.66448,-3.51668 -7.79433,-2.10443 -7.48949,0.22244 0.36527,2.78906 -2.05057,4.13358 -4.41203,2.33587 -7.51787,-5.72376 12.43899,-8.56819 11.12292,-16.38796 -0.40962,-2.43378 -3.4866,-3.68066 -7.26696,-3.74469 -0.39387,-0.0126 -0.77925,-0.0192 -1.18652,0 z m 23.69194,0.44496 c -2.326,0 -4.14961,0.75134 -5.48734,2.22458 -1.33773,1.47325 -2.00216,3.47427 -2.00216,6.04358 0,2.54049 0.65143,4.55595 1.96512,6.04334 1.31357,1.48036 3.09141,2.2246 5.33899,2.2246 1.11588,0 3.79819,0.0283 5.59855,-1.48304 l 0,-7.67481 -5.41316,0 0,2.78069 2.78076,0 0,2.74371 c -0.42702,0.34333 -1.22859,0.66739 -2.52119,0.66739 -1.27246,0 -2.35434,-0.4537 -3.07737,-1.37194 -0.72317,-0.91783 -1.0752,-2.24347 -1.0752,-3.92994 0,-1.70119 0.36503,-2.98219 1.11224,-3.89317 0.75318,-0.91805 1.80266,-1.37162 3.18858,-1.37187 0.74717,2.5e-4 1.52054,0.12161 2.26172,0.37091 0.43499,0.15517 0.88772,0.36861 1.29763,0.59321 l 0.92696,-2.78082 c -0.72917,-0.39137 -1.51029,-0.6905 -2.3359,-0.88982 -0.81952,-0.19919 -1.66042,-0.2966 -2.55823,-0.2966 z m 28.51189,0 c -2.04403,0.0547 -3.67004,0.81576 -4.85709,2.22458 -1.22925,1.46608 -1.85381,3.49711 -1.85381,6.08055 0,2.57637 0.62458,4.57736 1.85381,6.04357 1.23525,1.46583 2.91625,2.1874 5.07952,2.1874 2.16921,0 3.8873,-0.72145 5.11655,-2.1874 1.22923,-1.46633 1.85382,-3.4672 1.85381,-6.04357 -2e-5,-2.58344 -0.62458,-4.61447 -1.85381,-6.08055 -1.22925,-1.46607 -2.94735,-2.22458 -5.11655,-2.22458 -0.0849,0 -0.13935,0 -0.22243,0 z m -20.72579,0.2966 0,15.94288 2.96604,0 0,-9.56573 6.93333,9.56573 2.18754,0 0,-15.94288 -2.96614,0 0,9.56573 -6.93333,-9.56573 z m 30.84767,0 -1.6685,15.94288 3.29979,0 1.00113,-10.30726 3.1144,10.34446 2.18755,0 3.1144,-10.01081 1.03816,9.97361 3.26276,0 -1.66852,-15.94288 -3.74465,0 -3.1145,9.93651 -3.04022,-9.93651 z m 17.72252,0 0,15.94288 9.60287,0 0,-3.1144 -6.11769,0 0,-3.63353 4.56049,0 0,-2.78073 -4.56049,0 0,-3.29982 5.9323,0 0,-3.1144 z m 64.55032,1.48303 c -1.4396,0 -3.13515,0.43147 -4.85709,1.33477 l -0.44486,-1.00109 -1.59434,0 0,13.53296 2.29876,0 0,-10.93747 c 1.38315,-0.64953 2.67208,-1.00119 3.74475,-1.00119 1.07267,0 1.81001,0.27066 2.26162,0.77858 0.4517,0.50856 0.70453,1.36385 0.70453,2.52125 l 0,8.63883 2.26162,0 0,-9.23209 c 0,-1.46767 -0.35016,-2.59237 -1.11234,-3.41106 -0.76209,-0.81844 -1.82305,-1.22349 -3.26265,-1.22349 z m 65.69959,0 c -1.43961,0 -3.0981,0.43147 -4.81995,1.33477 l -0.44496,-1.00109 -1.63138,0 0,13.53296 2.3359,0 0,-10.93747 c 1.38315,-0.64953 2.67208,-1.00119 3.74465,-1.00119 1.07267,0 1.81011,0.27066 2.26172,0.77858 0.4516,0.50856 0.66739,1.36385 0.66739,2.52125 l 0,8.63883 2.29876,0 0,-9.23209 c 0,-1.46767 -0.38728,-2.59237 -1.14938,-3.41106 -0.76218,-0.81844 -1.82316,-1.22349 -3.26275,-1.22349 z m -243.07381,0.0371 c -1.97588,0 -3.53367,0.70204 -4.63456,2.11344 -1.04434,1.41139 -1.5572,3.12119 -1.5572,5.15353 0,4.40361 2.39923,6.82211 6.85914,6.82211 1.52428,0 2.99195,-0.26145 4.3751,-0.74157 l 0,-1.8167 c -1.32669,0.42352 -2.55919,0.63041 -3.74475,0.63029 -1.72185,0 -2.99148,-0.41373 -3.78178,-1.26047 -0.79042,-0.84693 -1.25009,-1.92733 -1.33477,-3.22578 l 9.23204,0 0.14829,-0.22243 0,-1.22362 c 0,-3.89518 -1.97658,-6.22854 -5.56151,-6.2288 z m 160.6156,0 c -4.17766,0 -6.59968,2.84757 -6.59968,7.08164 0,4.26243 2.34783,7.04454 6.5255,7.04454 4.14944,0 6.59968,-2.81921 6.59968,-7.08151 0,-4.23445 -2.34783,-7.04467 -6.5255,-7.04467 z m 41.15498,0 c -1.97598,0 -3.49664,0.70204 -4.59753,2.11344 -1.04444,1.41139 -1.59433,3.12119 -1.59433,5.15353 0,4.40373 2.39923,6.82211 6.85924,6.82211 1.52428,0 2.99185,-0.26143 4.375,-0.74157 l 0,-1.8167 c -1.32669,0.42352 -2.55919,0.63041 -3.74475,0.63029 -1.72185,0 -2.99148,-0.41373 -3.78178,-1.26047 -0.79041,-0.84693 -1.25009,-1.92733 -1.33478,-3.22578 l 9.26913,0 0.14835,-0.22243 0,-1.22362 c 0,-3.89511 -2.01371,-6.22842 -5.59855,-6.2288 z m 15.34967,0 c -1.32669,0 -2.56809,0.47744 -3.78179,1.40898 l -0.48199,-1.14935 -1.66852,0 0,13.56994 2.33584,0 0,-10.78922 c 0.98794,-0.64943 2.01357,-1.00109 3.11446,-1.00109 0.67741,0 1.33346,0.16262 2.0392,0.44496 l 0.2966,0 0,-2.22459 c -0.59274,-0.16951 -1.20461,-0.25963 -1.8538,-0.25963 z m 10.45554,0 c -1.97588,0 -3.49664,0.70204 -4.59743,2.11344 -1.04444,1.41139 -1.59433,3.12119 -1.59433,5.15353 0,4.40373 2.39923,6.82211 6.85914,6.82211 1.52428,0 2.99185,-0.26143 4.37502,-0.74157 l 0,-1.8167 c -1.32665,0.42352 -2.55911,0.63041 -3.74467,0.63029 -1.72196,0 -2.99148,-0.41373 -3.78189,-1.26047 -0.79031,-0.84693 -1.24998,-1.92733 -1.33467,-3.22578 l 9.26913,0 0.11125,-0.22243 0,-1.22362 c 0,-3.89511 -1.97659,-6.22842 -5.56151,-6.2288 z m 29.25345,0 c -1.93928,0.14889 -3.39947,0.82898 -4.41213,2.03926 -1.10089,1.32669 -1.66848,3.09129 -1.66848,5.26491 0,4.29054 2.24541,6.85921 6.45129,6.85921 0.028,0 0.0833,-0.0126 0.11125,-0.0371 1.18547,0 2.40914,-0.27059 3.70761,-0.77866 l -0.55617,-1.5201 c -0.87499,0.31056 -1.68493,0.44496 -2.44701,0.44496 -0.2258,0 -0.43274,-0.0126 -0.63035,-0.0371 -2.9921,-0.33897 -4.41203,-2.04533 -4.41203,-5.37612 0,-3.1898 1.57371,-4.9683 4.81995,-4.9683 0.81853,0 1.77335,0.18929 2.81779,0.55623 l 0.55617,-1.63138 c -1.24202,-0.53624 -2.38439,-0.81566 -3.48528,-0.81576 -0.29636,0 -0.57569,-0.0217 -0.85267,0 z m 13.34751,0 c -1.97594,0 -3.49663,0.70204 -4.59752,2.11344 -1.04438,1.41139 -1.59424,3.12119 -1.59424,5.15353 0,4.40373 2.39923,6.82211 6.85915,6.82211 1.52428,0 2.99184,-0.26143 4.37499,-0.74157 l 0,-1.8167 c -1.32669,0.42352 -2.55917,0.63041 -3.74475,0.63029 -1.72184,0 -2.99137,-0.41373 -3.78178,-1.26047 -0.79032,-0.84693 -1.25009,-1.92733 -1.33477,-3.22578 l 9.26912,0 0.14835,-0.22243 0,-1.22362 c 0,-3.89511 -2.01362,-6.22842 -5.59855,-6.2288 z m -185.049,1.18642 c 0.0327,0 0.0407,1.3e-4 0.0739,0 1.06657,2.5e-4 1.89958,0.44675 2.48416,1.37187 0.58444,0.92523 0.8898,2.2505 0.88981,3.93014 0,1.67257 -0.30539,2.96807 -0.88981,3.89304 -0.58454,0.92525 -1.4176,1.37187 -2.48416,1.37187 -1.06056,0 -1.86258,-0.44662 -2.44702,-1.37187 -0.58452,-0.92485 -0.88989,-2.22047 -0.8899,-3.89304 0,-1.67964 0.3054,-3.00491 0.8899,-3.93014 0.5662,-0.89623 1.35982,-1.34376 2.37285,-1.37187 z m 75.45072,0.63041 c 2.76635,0 4.1897,2.38567 4.1897,5.26481 0,2.93574 -1.42335,5.19073 -4.1897,5.19073 -2.76631,0 -4.18961,-2.31146 -4.18961,-5.19073 0,-2.8509 1.4233,-5.26481 4.18961,-5.26481 z m -160.39308,0.0371 c 2.11711,0 3.07736,1.83948 3.07736,4.04129 l -7.04454,0 c -2.18834,0 1.42669,-4.04129 3.96718,-4.04129 z m 201.77058,0 c 2.11701,0 3.07726,1.83948 3.07726,4.04129 l -7.0074,0 c -2.18834,0 1.38965,-4.04129 3.93014,-4.04129 z m 25.80521,0 c 2.11711,0 3.07736,1.83948 3.07736,4.04129 l -7.04454,0 c -2.18834,0 1.42669,-4.04129 3.96718,-4.04129 z m 42.60096,0 c 2.11701,0 3.07736,1.83948 3.07736,4.04129 l -7.0075,0 c -2.18835,0 1.38966,-4.04129 3.93014,-4.04129 z M 144.70186,275.6957 c -17.66147,0 -27.36251,12.97358 -27.36251,26.76913 0,12.96233 8.67355,26.99172 27.5479,26.99172 12.65869,0 18.64373,-6.29385 20.61458,-8.41628 l 0,-21.61558 -23.95143,0 0,8.19387 14.75648,0 0,10.08478 c -2.27406,1.81918 -5.61432,3.11443 -10.01068,3.11443 -11.37009,0 -19.53937,-7.80848 -19.53937,-18.7236 0,-11.2188 8.95359,-17.83388 18.35285,-17.83388 5.30611,0 10.35591,1.89499 13.2364,3.4111 l 1.37181,0.77866 3.893,-7.37834 -1.29764,-0.74147 c -4.47228,-2.5014 -10.56193,-4.63464 -17.61139,-4.63454 z m 264.05907,0 c -17.05516,0 -27.88154,11.60903 -27.88154,26.76913 0,14.93279 10.38154,26.99172 27.43668,26.99172 4.85126,0 10.55774,-1.13545 16.09123,-3.48505 l 1.33467,-0.55623 -3.00318,-7.41532 -1.37181,0.44637 c -4.09327,1.44024 -8.04723,2.18723 -11.38249,2.18759 -12.27974,0 -19.68763,-8.46371 -19.68763,-18.24171 0,-9.4754 6.86988,-18.05632 18.31582,-18.05632 2.34978,0 6.21317,0.32627 12.04988,2.37294 l 1.44598,0.51903 2.89197,-8.04563 -1.37187,-0.51901 c -5.53343,-2.19854 -10.77445,-2.9663 -14.86771,-2.96606 z m -231.83957,0.37062 0,34.18473 0,0.48193 c 0,5.83658 0.3173,18.72357 21.54153,18.72357 20.61768,0 21.50439,-13.35713 21.50439,-19.72471 0,-3.41055 -0.0739,-0.0126 -0.0739,-33.66552 l -9.23209,0 0,33.36889 c 0,1.59208 -0.14008,3.12193 -0.51903,4.48635 -1.13703,4.548 -5.46347,7.04454 -11.67911,7.04454 -6.06408,0 -8.95278,-2.42558 -9.86242,-3.41102 -2.12239,-2.2741 -2.3358,-4.93591 -2.3358,-8.11987 l 0,-33.36889 z m 70.29712,0 -19.61345,52.6117 9.08373,0 5.22777,-13.79247 19.35398,0 5.30195,13.79247 9.6028,0 -19.68766,-52.6117 z m 36.59459,0 0,52.6117 13.12508,0 c 4.39645,0 9.02358,0.0245 13.49587,-1.11233 14.62952,-3.48686 18.87188,-16.00719 18.87188,-26.69506 0,-11.59755 -6.08968,-24.8042 -27.8444,-24.80431 z m 55.35527,0 0,52.6117 34.96311,0 0,-8.56476 -25.61981,0 0,-14.23737 23.6548,0 0,-8.5646 -23.6548,0 0,-12.68022 25.61981,0 0,-8.56475 z m -46.01197,8.56475 8.5646,0 c 1.59183,0 3.08322,0.10658 4.52334,0.33368 6.29147,0.98581 13.7184,5.91088 13.7184,17.12942 0,4.92661 -1.35209,8.0819 -2.26173,9.82523 -4.32064,7.9591 -12.74034,8.19423 -18.5012,8.19386 l -6.04341,0 z m -41.52576,2.22458 6.67376,19.53944 -13.42169,0 z M 273,78.128747 c -137.96029,0 -249.875,111.914713 -249.875,249.875003 0,137.96029 111.91471,249.875 249.875,249.875 137.96029,0 249.875,-111.91471 249.875,-249.875 C 522.875,190.04346 410.96029,78.128747 273,78.128747 z M 273,107.16 c 121.97027,0 220.84375,98.90473 220.84375,220.875 0,35.11907 -8.22409,68.30221 -22.8125,97.78125 l -20.84375,0 0,-36.53125 -3.4375,0 -0.0625,-6.15625 -0.875,0.0312 -2.6875,-16.5 -0.53125,-0.0937 -0.75,-4 0,-3.875 0.875,0 0,-2.78125 -1.34375,0 0,-6.6875 -1.6875,0 0,6.6875 -1.34375,0 0,2.78125 0.84375,0 0,3.875 -0.5,4 -0.625,0.0937 -2.6875,16.5 -0.84375,0.0312 -0.0625,6.09375 -3.4375,0 0,35.6875 -4.375,0 0.5625,3.46875 1.21875,0.375 0,3.125 -1.6875,1.9375 1.65625,0.9375 -2.5625,8.65625 0,27.84375 -59.1875,0 0,-4.6875 c 1.50771,-0.38231 2.59375,-1.77964 2.59375,-3.40625 0,-1.92282 -1.54593,-3.46875 -3.46875,-3.46875 -1.92282,0 -3.46875,1.54593 -3.46875,3.46875 0,1.62346 1.09047,3.02089 2.59375,3.40625 l 0,4.6875 -8.6875,0 0,-4.6875 c 1.48939,-0.39481 2.625,-1.79266 2.625,-3.40625 0,-1.92282 -1.60842,-3.46875 -3.53125,-3.46875 -1.92282,0 -3.46875,1.54593 -3.46875,3.46875 0,1.61359 1.10437,3.01144 2.59375,3.40625 l 0,4.6875 -8.65625,0 0,-4.71875 c 1.478,-0.40243 2.5625,-1.76951 2.5625,-3.375 0,-1.92282 -1.54592,-3.46875 -3.46875,-3.46875 -1.92282,0 -3.5,1.54593 -3.5,3.46875 0,1.63715 1.13368,3.03433 2.65625,3.40625 l 0,4.6875 -8.71875,0 0,-4.6875 c 1.5033,-0.38536 2.59375,-1.78279 2.59375,-3.40625 0,-1.92282 -1.54592,-3.46875 -3.46875,-3.46875 -1.92281,0 -3.46875,1.54593 -3.46875,3.46875 0,1.62346 1.09047,3.02089 2.59375,3.40625 l 0,4.6875 -58.3125,0 0,-27.71875 -0.125,0 -5.375,-9.96875 -5.75,0 -5.125,9.96875 -0.15625,0 0,0.25 0,16.78125 -45.28125,0 c 8e-5,-5.66593 0.005,-11.35321 0,-16.96875 l -0.0937,-0.0625 -5.375,-9.96875 -5.75,0 -5.15625,9.96875 -0.15625,0 0,0.25 0,16.78125 -46.125,0 0,-33.90625 -15.6875,-13.09375 -39.15625,0 -16.5,13.09375 0,7.71875 C 62.052923,402.88308 52.15625,366.61458 52.15625,328.035 52.15625,206.06473 151.02973,107.16 273,107.16 z m 160.65625,283.90625 0.875,0 0,11.25 -0.875,0 0,-11.25 z m 13.0625,0 0.875,0 0,11.25 -0.875,0 0,-11.25 z m -272.5625,73.03125 c 9.1044,0 19.7526,3.32715 22.75,4.3125 l 0,2.90625 -46.125,0 0,-2.71875 c 2.21768,-0.74872 13.77976,-4.5 23.375,-4.5 z m 62.21875,0 c 8.93093,0 19.38949,3.32373 22.34375,4.3125 l 0,2.90625 -45.28125,0 c -1.7e-4,-0.90725 4.8e-4,-1.81043 0,-2.71875 2.20465,-0.7576 13.53179,-4.5 22.9375,-4.5 z m 3.28125,28 c 0.20726,-0.019 0.41133,0 0.625,0 3.38336,0 6.0625,2.33423 6.0625,6.125 0,3.8085 -2.61764,6.40625 -6.125,6.40625 -2.99365,0 -6,-2.06951 -6,-6.25 0,-3.60368 2.32859,-5.99666 5.4375,-6.28125 z m -89.8125,0.0312 c 1.94853,0 3.16026,0.49683 3.65625,0.65625 l 0.21875,0.0625 -0.6875,2 c -0.99198,-0.3897 -2.00902,-0.6875 -3.125,-0.6875 -1.48796,0 -2.40625,0.61431 -2.40625,1.5 0,2.10796 6.625,1.20388 6.625,5.4375 0,1.70054 -1.30297,3.59375 -5.09375,3.59375 -1.55882,0 -2.75067,-0.41444 -3.9375,-0.875 l -0.3125,-0.125 0.71875,-2 0.34375,0.15625 c 1.59425,0.58456 2.67062,0.78125 3.34375,0.78125 1.59426,0 2.6875,-0.64555 2.6875,-1.53125 0.0531,-2.33823 -6.625,-1.20905 -6.625,-5.53125 0,-2.00167 1.77724,-3.4375 4.59375,-3.4375 z m 59.59375,0 c 1.94853,0 3.12901,0.49683 3.625,0.65625 l 0.21875,0.0625 -0.6875,2 c -0.99198,-0.3897 -1.97778,-0.6875 -3.09375,-0.6875 -1.48797,0 -2.40625,0.61431 -2.40625,1.5 0,2.10796 6.59375,1.20388 6.59375,5.4375 0,1.70054 -1.30297,3.59375 -5.09375,3.59375 -1.55883,0 -2.75067,-0.41444 -3.9375,-0.875 l -0.3125,-0.125 0.75,-2 0.34375,0.15625 c 1.59425,0.58456 2.67062,0.78125 3.34375,0.78125 1.59425,0 2.65625,-0.64555 2.65625,-1.53125 0.0531,-2.33823 -6.59375,-1.20905 -6.59375,-5.53125 0,-2.00167 1.77724,-3.4375 4.59375,-3.4375 z m 79.90625,0 c 1.6474,0 3.07987,0.47794 4.125,1.0625 l 0.28125,0.1875 -0.875,1.71875 -0.34375,-0.1875 c -0.67313,-0.35428 -1.85378,-0.78125 -3.09375,-0.78125 -2.17882,0 -4.28125,1.53459 -4.28125,4.15625 0,2.5508 1.92313,4.375 4.5625,4.375 1.02741,0 1.54461,-0.16762 2.09375,-0.46875 l 0,-2.625 -3.21875,0 0,-1.90625 5.34375,0 0,5.59375 c -0.46056,0.33656 -1.71056,1.4375 -4.5625,1.4375 -4.41077,0 -6.4375,-3.28342 -6.4375,-6.3125 0,-3.22394 2.27891,-6.25 6.40625,-6.25 z m 86.625,0 c 0.95655,0 2.14438,0.1738 3.4375,0.6875 l 0.3125,0.125 -0.6875,1.71875 -0.34375,-0.125 c -1.34626,-0.49599 -2.2144,-0.5 -2.78125,-0.5 -2.65709,0 -4.25,1.97426 -4.25,4.3125 0,2.60395 1.69285,4.3125 4.5625,4.3125 0.77941,0 1.71741,-0.19051 2.65625,-0.5625 l 0.3125,-0.125 0.71875,1.78125 -0.3125,0.0937 c -1.29312,0.54913 -2.61631,0.84375 -3.75,0.84375 -3.98563,0 -6.4375,-2.82286 -6.4375,-6.3125 0,-3.54279 2.57687,-6.25 6.5625,-6.25 z m -217.15625,0.0625 10.28125,0 0,2.03125 -4.0625,0 0,10.28125 -2.15625,0 0,-10.28125 -4.0625,0 0,-2.03125 z m 15.5,0 4,0 c 1.59425,0 5.0625,0.27289 5.0625,3.65625 0,2.07253 -1.26203,3.02172 -2.75,3.5 l 3.09375,5.15625 -2.46875,0 -2.8125,-4.78125 c -0.35428,0.0177 -0.69887,0.0312 -1,0.0312 -0.33657,0 -0.61865,-0.0136 -0.9375,-0.0312 l 0,4.78125 -2.1875,0 0,-12.3125 z m 18.46875,0 2.125,0 4.625,12.3125 -2.25,0 -1.25,-3.21875 -4.53125,0 -1.21875,3.21875 -2.125,0 4.625,-12.3125 z m 26.84375,0 4.1875,0 c 3.57822,0 4.21875,2.10277 4.21875,3.21875 0,1.09826 -0.46006,2.0279 -1.59375,2.71875 1.73596,0.31885 2.5625,1.80899 2.5625,3.03125 0,1.3994 -0.8902,3.34375 -5.53125,3.34375 l -3.84375,0 0,-12.3125 z m 32.46875,0 2.1875,0 0,7.78125 c 0,0.37199 0.0541,0.7124 0.125,1.03125 0.26571,1.06284 1.24849,1.65625 2.71875,1.65625 1.47026,0 2.48429,-0.59341 2.75,-1.65625 0.0709,-0.31885 0.125,-0.65926 0.125,-1.03125 l 0,-7.78125 2.15625,0 0,7.875 c 0,1.48797 -0.21306,4.625 -5.03125,4.625 -4.81819,0 -5.03125,-3.13703 -5.03125,-4.625 l 0,-7.875 z m 16.40625,0 4,0 c 1.59426,0 5.0625,0.27289 5.0625,3.65625 0,2.07253 -1.26203,3.02172 -2.75,3.5 l 3.09375,5.15625 -2.46875,0 -2.8125,-4.78125 c -0.35428,0.0177 -0.69886,0.0312 -1,0.0312 -0.33656,0 -0.61865,-0.0136 -0.9375,-0.0312 l 0,4.78125 -2.1875,0 0,-12.3125 z m 39.9375,0 7.9375,0 0,2.03125 -5.75,0 0,3.59375 5.03125,0 0,2 -5.03125,0 0,4.6875 -2.1875,0 0,-12.3125 z m 13.75,0 4,0 c 1.59426,0 5.0625,0.27289 5.0625,3.65625 0,2.07253 -1.26203,3.02172 -2.75,3.5 l 3.09375,5.15625 -2.46875,0 -2.8125,-4.78125 c -0.35428,0.0177 -0.66761,0.0312 -0.96875,0.0312 -0.33656,0 -0.6499,-0.0136 -0.96875,-0.0312 l 0,4.78125 -2.1875,0 0,-12.3125 z m 18.46875,0 2.15625,0 4.59375,12.3125 -2.25,0 -1.25,-3.21875 -4.5,0 -1.21875,3.21875 -2.125,0 4.59375,-12.3125 z m 12.09375,0 2.625,0 5.9375,9.125 0,-9.125 2.1875,0 0,12.3125 -2.65625,0 -5.90625,-9.15625 0,9.15625 -2.1875,0 0,-12.3125 z m 32.90625,0 8,0 0,2.03125 -5.8125,0 0,3.0625 5.1875,0 0,2 -5.1875,0 0,3.21875 5.8125,0 0,2 -8,0 0,-12.3125 z m -145.4375,1.90625 c -1.82454,0 -3.78125,1.23763 -3.78125,4.125 0,2.72794 1.74515,4.40625 3.90625,4.40625 1.7891,0 3.75,-1.23864 3.75,-4.25 0,-3.0468 -2.06818,-4.28125 -3.875,-4.28125 z m -18.40625,0.0312 0,3.15625 1.59375,0 0.0937,0 c 1.73596,0 2.40625,-0.57052 2.40625,-1.5625 0,-0.93884 -0.51604,-1.59375 -2.5,-1.59375 l -1.59375,0 z m -45.3125,0.0937 0,3.5 c 0.372,0.0177 0.69051,0.0312 1.0625,0.0312 1.85997,0 3.5625,-0.14321 3.5625,-1.84375 0,-1.50568 -1.45471,-1.6875 -3.03125,-1.6875 l -1.59375,0 z m 94.1875,0 0,3.5 c 0.37199,0.0177 0.69051,0.0312 1.0625,0.0312 1.85996,0 3.5625,-0.14321 3.5625,-1.84375 0,-1.50568 -1.45471,-1.6875 -3.03125,-1.6875 l -1.59375,0 z m 53.6875,0 0,3.5 c 0.37199,0.0177 0.72176,0.0312 1.09375,0.0312 1.85996,0 3.5625,-0.14321 3.5625,-1.84375 0,-1.50568 -1.45471,-1.6875 -3.03125,-1.6875 l -1.625,0 z m -130.59375,0.5 -1.5625,4.5625 3.125,0 -1.5625,-4.5625 z m 147.875,0 -1.5625,4.5625 3.125,0 -1.5625,-4.5625 z m -118.40625,4.375 -1.4375,0.0312 0,3.4375 1.4375,0 c 2.24967,0 3.59375,-0.32353 3.59375,-1.6875 0,-1.11598 -0.97209,-1.78125 -3.59375,-1.78125 z m 44.84375,22.21875 c 0.76169,0 1.39355,0.17697 2.03125,0.53125 1.75368,0.97426 2.625,2.83038 2.625,5.59375 0,2.95823 -0.92647,5.11949 -2.875,6.09375 -0.56684,0.28342 -1.1748,0.40625 -1.8125,0.40625 -0.6377,0 -1.25919,-0.13636 -1.84375,-0.4375 -1.84225,-0.95655 -2.8125,-3.12616 -2.8125,-6.03125 0,-1.93081 0.43098,-3.40591 1.28125,-4.46875 0.90341,-1.11598 2.05999,-1.6875 3.40625,-1.6875 z m -11.625,0.0312 c 2.05482,0 3.71875,1.33372 3.71875,3.40625 0,1.93082 -1.64639,3.82135 -3.1875,5.46875 l -2.1875,2.25 5.5,0 0,1.3125 -7.65625,0 0,-1.09375 3.125,-3.25 c 1.73596,-1.85997 2.875,-3.24231 2.875,-4.5 0,-1.02741 -0.5015,-2.25 -2.34375,-2.25 -1.23997,0 -1.86213,0.33841 -3.03125,0.78125 l -0.5,-1.28125 c 1.2754,-0.49599 2.02239,-0.84375 3.6875,-0.84375 z m 22.4375,0.125 1.6875,0 0,11 2.84375,0 0,1.3125 -7.3125,0 0,-1.3125 3.0625,0 0,-9.625 -2.40625,1 -0.53125,-1.21875 2.65625,-1.15625 z m 12.71875,0 2.125,0 0,8.0625 2.09375,0 0,1.3125 -2.09375,0 0,2.9375 -1.40625,0 0,-2.9375 -5.9375,0 0,-1.03125 5.21875,-8.34375 z m -23.4375,1.1875 c -2.26739,0 -3.3125,2.25652 -3.3125,4.71875 0,2.39138 0.60796,4.01538 1.8125,4.8125 0.42514,0.28342 0.9238,0.4375 1.4375,0.4375 0.51371,0 0.98112,-0.18115 1.40625,-0.5 1.16912,-0.85026 1.75,-2.37533 1.75,-4.625 0,-2.05481 -0.55798,-3.49348 -1.65625,-4.34375 -0.44284,-0.33657 -0.9238,-0.5 -1.4375,-0.5 z m 24.15625,0.1875 -4.1875,6.6875 4.1875,0 0,-6.6875 z" />
  </g>
</svg>
