<?xml version="1.0" encoding="UTF-8" standalone="no"?>
<!-- Created with Inkscape (http://www.inkscape.org/) -->
<svg xmlns:dc="http://purl.org/dc/elements/1.1/" xmlns:cc="http://creativecommons.org/ns#" xmlns:rdf="http://www.w3.org/1999/02/22-rdf-syntax-ns#" xmlns:svg="http://www.w3.org/2000/svg" xmlns="http://www.w3.org/2000/svg" xmlns:sodipodi="http://sodipodi.sourceforge.net/DTD/sodipodi-0.dtd" xmlns:inkscape="http://www.inkscape.org/namespaces/inkscape" sodipodi:docname="security-high-symbolic.svg" version="1.1" inkscape:version="0.48.4 r9939" height="624" id="svg7384" width="560" inkscape:export-filename="/home/aday/Dropbox/Public/marketing/privacy-t-shirt.png" inkscape:export-xdpi="90" inkscape:export-ydpi="90">
  <metadata id="metadata90">
    <rdf:RDF>
      <cc:Work rdf:about="">
        <dc:format>image/svg+xml</dc:format>
        <dc:type rdf:resource="http://purl.org/dc/dcmitype/StillImage"/>
        <dc:title>Gnome Symbolic Icon Theme</dc:title>
      </cc:Work>
    </rdf:RDF>
  </metadata>
  <sodipodi:namedview inkscape:object-paths="false" inkscape:snap-bbox-midpoints="false" inkscape:zoom="0.70710678" bordercolor="#666666" gridtolerance="10" guidetolerance="10" inkscape:guide-bbox="true" inkscape:window-maximized="0" inkscape:snap-nodes="true" pagecolor="#555753" objecttolerance="10" inkscape:snap-to-guides="true" inkscape:snap-grids="true" inkscape:current-layer="layer9" inkscape:pageshadow="2" id="namedview88" showgrid="true" inkscape:window-width="1226" inkscape:bbox-paths="false" inkscape:cx="211.81076" inkscape:cy="310.26775" inkscape:pageopacity="1" inkscape:window-height="964" inkscape:snap-others="false" inkscape:snap-bbox="true" inkscape:object-nodes="false" showguides="true" showborder="false" inkscape:window-x="52" inkscape:window-y="27" borderopacity="1" inkscape:snap-global="true" fit-margin-top="0" fit-margin-left="0" fit-margin-right="0" fit-margin-bottom="0">
    <inkscape:grid snapvisiblegridlinesonly="true" type="xygrid" visible="true" id="grid4866" enabled="true" empspacing="2" spacingx="1px" spacingy="1px" originx="192px" originy="304px"/>
  </sodipodi:namedview>
  <title id="title9167">Gnome Symbolic Icon Theme</title>
  <defs id="defs7386"/>
  <g id="layer9" transform="translate(-128.99995,87)" inkscape:groupmode="layer" inkscape:label="status" style="display:inline">
    <g id="g3909" transform="translate(-5.99961,14.781308)">
      <path style="font-size:medium;font-style:normal;font-variant:normal;font-weight:normal;font-stretch:normal;text-indent:0;text-align:start;text-decoration:none;line-height:normal;letter-spacing:normal;word-spacing:normal;text-transform:none;direction:ltr;block-progression:tb;writing-mode:lr-tb;text-anchor:start;baseline-shift:baseline;color:#bebebe;fill:#bebebe;fill-opacity:1;stroke:none;stroke-width:2;marker:none;visibility:visible;display:inline;overflow:visible;enable-background:accumulate;font-family:Sans;-inkscape-font-specification:Sans" inkscape:connector-curvature="0" id="rect3259-2-8-6" d="m 214.99956,-25.718806 0,33.333333 0,200.000003 c 0,69.05566 50.32,122.70066 94.79166,162.49999 44.47167,39.79934 88.54167,66.66667 88.54167,66.66667 l 16.66667,9.375 17.70833,-10.41667 c 0,0 43.143,-26.58566 87.5,-66.66666 44.357,-40.081 94.79167,-93.315 94.79167,-161.45833 l 0,-200.000003 0,-33.333333 -33.33334,0 -333.33333,0 -33.33333,0 z m 66.66667,66.666666 266.66666,0 0,166.66667 c 0,30.65599 -32.89867,77.28099 -71.875,112.49999 -30.19633,27.28567 -49.29633,37.96667 -61.45833,45.83334 -11.79234,-7.41434 -30.953,-17.49167 -61.45834,-44.79167 -38.86166,-34.77833 -71.87499,-80.908 -71.87499,-113.54166 l 0,-166.66667 z"/>
      <g id="g15043" style="fill:#bebebe;fill-opacity:1;fill-rule:nonzero;stroke:none" transform="matrix(1.662939,0,0,1.662939,335.00396,77.88911)">
        <g id="g15045" style="fill:#bebebe;fill-opacity:1">
          <path id="path15047" style="fill:#bebebe;fill-opacity:1" d="M 86.068,0 C 61.466,0 56.851,35.041 70.691,35.041 84.529,35.041 110.671,0 86.068,0 z" inkscape:connector-curvature="0"/>
          <path id="path15049" style="fill:#bebebe;fill-opacity:1" d="M 45.217,30.699 C 52.586,31.149 60.671,2.577 46.821,4.374 32.976,6.171 37.845,30.249 45.217,30.699 z" inkscape:connector-curvature="0"/>
          <path id="path15051" style="fill:#bebebe;fill-opacity:1" d="M 11.445,48.453 C 16.686,46.146 12.12,23.581 3.208,29.735 -5.7,35.89 6.204,50.759 11.445,48.453 z" inkscape:connector-curvature="0"/>
          <path id="path15053" style="fill:#bebebe;fill-opacity:1" d="M 26.212,36.642 C 32.451,35.37 32.793,9.778 21.667,14.369 10.539,18.961 19.978,37.916 26.212,36.642 l 0,0 z" inkscape:connector-curvature="0"/>
          <path id="path15055" style="fill:#bebebe;fill-opacity:1" d="m 58.791,93.913 c 1.107,8.454 -6.202,12.629 -13.36,7.179 C 22.644,83.743 83.16,75.088 79.171,51.386 75.86,31.712 15.495,37.769 8.621,68.553 3.968,89.374 27.774,118.26 52.614,118.26 c 12.22,0 26.315,-11.034 28.952,-25.012 C 83.58,82.589 57.867,86.86 58.791,93.913 l 0,0 z" inkscape:connector-curvature="0"/>
        </g>
      </g>
    </g>
  </g>
  <g id="layer10" transform="translate(-128.99995,87)" inkscape:groupmode="layer" inkscape:label="devices"/>
  <g id="layer11" transform="translate(-128.99995,87)" inkscape:groupmode="layer" inkscape:label="apps"/>
  <g id="layer13" transform="translate(-128.99995,87)" inkscape:groupmode="layer" inkscape:label="places"/>
  <g id="layer14" transform="translate(-128.99995,87)" inkscape:groupmode="layer" inkscape:label="mimetypes"/>
  <g id="layer15" transform="translate(-128.99995,87)" inkscape:groupmode="layer" inkscape:label="emblems" style="display:inline"/>
  <g transform="translate(-128.99995,87)" id="g71291" inkscape:groupmode="layer" inkscape:label="emotes" style="display:inline"/>
  <g id="g4953" transform="translate(-128.99995,87)" inkscape:groupmode="layer" inkscape:label="categories" style="display:inline"/>
  <g id="layer12" transform="translate(-128.99995,87)" inkscape:groupmode="layer" inkscape:label="actions" style="display:inline"/>
</svg>