<?xml version="1.0" encoding="UTF-8" standalone="no"?>
<!-- Created with Inkscape (http://www.inkscape.org/) -->

<svg
   xmlns:dc="http://purl.org/dc/elements/1.1/"
   xmlns:cc="http://creativecommons.org/ns#"
   xmlns:rdf="http://www.w3.org/1999/02/22-rdf-syntax-ns#"
   xmlns:svg="http://www.w3.org/2000/svg"
   xmlns="http://www.w3.org/2000/svg"
   xmlns:sodipodi="http://sodipodi.sourceforge.net/DTD/sodipodi-0.dtd"
   xmlns:inkscape="http://www.inkscape.org/namespaces/inkscape"
   width="151.83978mm"
   height="55.143921mm"
   viewBox="0 0 151.83978 55.143921"
   version="1.1"
   id="svg4921"
   inkscape:version="0.92.0 r"
   sodipodi:docname="guadec-logo.svg">
  <defs
     id="defs4915" />
  <sodipodi:namedview
     id="base"
     pagecolor="#ffffff"
     bordercolor="#666666"
     borderopacity="1.0"
     inkscape:pageopacity="0.0"
     inkscape:pageshadow="2"
     inkscape:zoom="0.35"
     inkscape:cx="35.512748"
     inkscape:cy="-455.79102"
     inkscape:document-units="mm"
     inkscape:current-layer="layer1"
     showgrid="false"
     fit-margin-top="0"
     fit-margin-left="0"
     fit-margin-right="0"
     fit-margin-bottom="0"
     inkscape:window-width="1920"
     inkscape:window-height="1016"
     inkscape:window-x="0"
     inkscape:window-y="27"
     inkscape:window-maximized="1" />
  <metadata
     id="metadata4918">
    <rdf:RDF>
      <cc:Work
         rdf:about="">
        <dc:format>image/svg+xml</dc:format>
        <dc:type
           rdf:resource="http://purl.org/dc/dcmitype/StillImage" />
        <dc:title></dc:title>
      </cc:Work>
    </rdf:RDF>
  </metadata>
  <g
     inkscape:label="Layer 1"
     inkscape:groupmode="layer"
     id="layer1"
     transform="translate(53.241319,26.905294)">
    <g
       style="display:inline;fill:#4a90d9"
       transform="matrix(0.4408791,0,0,0.4408791,-181.11549,-90.115369)"
       id="g4808">
      <g
         style="fill:#4a90d9"
         id="g4798"
         transform="matrix(1.0736709,0,0,1.0736709,-558.02149,-205.22598)">
        <g
           style="fill:#4a90d9"
           id="g4796"
           transform="matrix(0.11840388,0,0,0.11840388,865.19335,299.21794)">
          <g
             style="fill:#4a90d9"
             id="g4794"
             transform="matrix(1.293235,0,0,1.293235,-4878.321,-1224.915)">
            <g
               id="g4774"
               style="fill:#4a90d9;fill-opacity:1;fill-rule:nonzero;stroke:none"
               transform="matrix(2.438586,0,0,2.438586,3659.952,1113.451)">
              <g
                 id="g4772"
                 style="fill:#4a90d9;fill-opacity:1">
                <path
                   id="path4762"
                   style="fill:#4a90d9;fill-opacity:1"
                   d="M 86.068,0 C 61.466,0 56.851,35.041 70.691,35.041 84.529,35.041 110.671,0 86.068,0 Z"
                   inkscape:connector-curvature="0" />
                <path
                   id="path4764"
                   style="fill:#4a90d9;fill-opacity:1"
                   d="M 45.217,30.699 C 52.586,31.149 60.671,2.577 46.821,4.374 32.976,6.171 37.845,30.249 45.217,30.699 Z"
                   inkscape:connector-curvature="0" />
                <path
                   id="path4766"
                   style="fill:#4a90d9;fill-opacity:1"
                   d="M 11.445,48.453 C 16.686,46.146 12.12,23.581 3.208,29.735 -5.7,35.89 6.204,50.759 11.445,48.453 Z"
                   inkscape:connector-curvature="0" />
                <path
                   id="path4768"
                   style="fill:#4a90d9;fill-opacity:1"
                   d="M 26.212,36.642 C 32.451,35.37 32.793,9.778 21.667,14.369 10.539,18.961 19.978,37.916 26.212,36.642 Z"
                   inkscape:connector-curvature="0" />
                <path
                   id="path4770"
                   style="fill:#4a90d9;fill-opacity:1"
                   d="m 58.791,93.913 c 1.107,8.454 -6.202,12.629 -13.36,7.179 C 22.644,83.743 83.16,75.088 79.171,51.386 75.86,31.712 15.495,37.769 8.621,68.553 3.968,89.374 27.774,118.26 52.614,118.26 c 12.22,0 26.315,-11.034 28.952,-25.012 C 83.58,82.589 57.867,86.86 58.791,93.913 Z"
                   inkscape:connector-curvature="0" />
              </g>
            </g>
            <g
               style="fill:#4a90d9"
               id="g4792">
              <path
                 id="path4776"
                 style="font-style:normal;font-variant:normal;font-weight:bold;font-stretch:normal;font-size:148.699646px;line-height:125%;font-family:'Bitstream Vera Sans';text-align:start;writing-mode:lr-tb;text-anchor:start;fill:#4a90d9;fill-opacity:1;stroke:none"
                 d="m 4176.2963,1214.4401 c -15.1078,0.4069 -27.0386,5.8367 -35.8126,16.25 -9.0861,10.8369 -13.6562,25.8104 -13.6562,44.9063 0,19.0432 4.5703,33.9757 13.6562,44.8124 9.1305,10.8369 21.6664,16.25 37.6563,16.25 16.034,0 28.6014,-5.4131 37.6875,-16.25 9.0859,-10.8367 13.6251,-25.7692 13.625,-44.8124 -1e-4,-19.0959 -4.5391,-34.0694 -13.625,-44.9063 -9.0861,-10.8366 -21.6536,-16.2499 -37.6875,-16.25 -0.6246,0 -1.2296,-0.016 -1.8437,0 z m 1.125,22 c 0.2415,-0.01 0.4737,0 0.7187,0 7.8833,10e-5 13.9919,3.4114 18.3125,10.25 4.3203,6.8388 6.4999,16.4913 6.5,28.9063 0,12.3623 -2.1799,21.9427 -6.5,28.7812 -4.3204,6.8389 -10.4293,10.2812 -18.3125,10.2812 -7.8391,0 -13.8983,-3.4423 -18.2187,-10.2812 -4.3204,-6.8385 -6.4999,-16.4189 -6.5,-28.7812 0,-12.4149 2.1798,-22.0675 6.5,-28.9063 4.1852,-6.6249 10.0123,-10.0428 17.5,-10.25 z"
                 inkscape:connector-curvature="0" />
              <path
                 id="path4778"
                 style="font-style:normal;font-variant:normal;font-weight:bold;font-stretch:normal;font-size:148.699646px;line-height:125%;font-family:'Bitstream Vera Sans';text-align:start;writing-mode:lr-tb;text-anchor:start;fill:#4a90d9;fill-opacity:1;stroke:none"
                 d="m 4005.6293,1325.612 c -13.3076,11.1757 -33.1067,11.0472 -41.3549,11.0472 -16.6133,0 -29.7747,-5.471 -39.4842,-16.413 -9.7097,-10.9946 -14.5644,-25.8819 -14.5644,-44.6622 0,-18.9906 4.9438,-33.9305 14.8316,-44.82 9.8878,-10.8892 23.4277,-16.3339 40.62,-16.334 6.6363,10e-5 12.9831,0.7366 19.0406,2.2094 6.1019,1.473 11.8475,3.6562 17.2368,6.5494 l -6.921,20.4608 c -3.0298,-1.6586 -6.4987,-3.2932 -9.7145,-4.4424 -5.4784,-1.8411 -10.979,-2.7617 -16.5018,-2.7618 -10.2442,10e-5 -18.15,3.3932 -23.7173,10.1792 -5.523,6.7336 -8.2844,16.3867 -8.2844,28.9594 0,12.4676 2.6723,22.0945 8.0172,28.8806 5.3446,6.7861 13.3768,10.1791 22.7818,10.1791 9.5548,0 15.4728,-2.4084 18.6291,-4.9461 v -20.3835 h -20.7001 v -20.3584 h 40.0855"
                 inkscape:connector-curvature="0" />
              <path
                 id="path4780"
                 style="font-style:normal;font-variant:normal;font-weight:bold;font-stretch:normal;font-size:148.699646px;line-height:125%;font-family:'Bitstream Vera Sans';text-align:start;writing-mode:lr-tb;text-anchor:start;fill:#4a90d9;fill-opacity:1;stroke:none"
                 d="m 4023.2108,1216.5605 h 16.2279 l 51.2775,70.8022 v -70.8022 h 21.8853 v 117.8103 h -16.2279 l -51.2774,-70.8022 v 70.8022 h -21.8854 v -117.8103"
                 inkscape:connector-curvature="0" />
              <path
                 id="path4782"
                 style="font-style:normal;font-variant:normal;font-weight:bold;font-stretch:normal;font-size:148.699646px;line-height:125%;font-family:'Bitstream Vera Sans';text-align:start;writing-mode:lr-tb;text-anchor:start;fill:#4a90d9;fill-opacity:1;stroke:none"
                 d="m 4246.3361,1216.5605 h 32.7366 l 22.7151,73.5479 22.8487,-73.5479 h 27.6698 l 12.5,117.8103 h -24.3186 l -7.5,-73.668 -22.9823,74.0213 h -16.3015 l -22.9824,-76.5213 -7.5,76.168 h -24.3854 l 12.5,-117.8103"
                 inkscape:connector-curvature="0" />
              <path
                 id="path4784"
                 style="font-style:normal;font-variant:normal;font-weight:bold;font-stretch:normal;font-size:148.699646px;line-height:125%;font-family:'Bitstream Vera Sans';text-align:start;writing-mode:lr-tb;text-anchor:start;fill:#4a90d9;fill-opacity:1;stroke:none"
                 d="m 4382.3597,1216.5605 h 69.4147 v 22.9624 h -43.6933 v 24.4365 h 33.5877 v 20.4623 h -33.5877 v 26.9868 h 45.1631 v 22.9623 h -70.8845 v -117.8103"
                 inkscape:connector-curvature="0" />
              <g
                 id="g4790"
                 style="font-style:normal;font-weight:normal;font-size:30.68958855px;font-family:'Bitstream Vera Sans';fill:#4a90d9;fill-opacity:1;stroke:none">
                <path
                   inkscape:connector-curvature="0"
                   id="path4786"
                   style="letter-spacing:0.2523815;fill:#4a90d9"
                   d="m 4474.5283,1193.3702 h 18.9262 v 2.5475 h -7.9421 v 19.8253 h -3.042 v -19.8253 h -7.9421 v -2.5475" />
                <path
                   inkscape:connector-curvature="0"
                   id="path4788"
                   style="letter-spacing:0.2523815;fill:#4a90d9"
                   d="m 4496.644,1193.3702 h 4.5105 l 5.7093,15.2249 5.7394,-15.2249 h 4.5105 v 22.3728 h -2.9521 v -19.6455 l -5.7693,15.3448 h -3.042 l -5.7692,-15.3448 v 19.6455 h -2.9371 v -22.3728" />
              </g>
            </g>
          </g>
        </g>
      </g>
      <text
         id="text4802"
         y="180.08826"
         x="298.63791"
         style="color:#000000;font-style:normal;font-variant:normal;font-weight:300;font-stretch:normal;font-size:27.49932289px;line-height:42.96768951px;font-family:'Source Sans Pro';-inkscape-font-specification:'Source Sans Pro, Light';font-variant-ligatures:normal;font-variant-caps:normal;font-variant-numeric:normal;font-feature-settings:normal;text-indent:0;text-align:start;text-decoration:none;text-decoration-line:none;letter-spacing:0px;word-spacing:0px;text-transform:none;writing-mode:lr-tb;direction:ltr;baseline-shift:baseline;text-anchor:start;display:inline;overflow:visible;visibility:visible;fill:#4a90d9;fill-opacity:1;fill-rule:nonzero;stroke:none;stroke-width:1.71870768;stroke-linecap:butt;stroke-linejoin:miter;stroke-opacity:1;marker:none;marker-start:none;marker-mid:none;marker-end:none;enable-background:accumulate"
         xml:space="preserve"><tspan
           style="font-style:normal;font-variant:normal;font-weight:300;font-stretch:normal;font-size:27.49932289px;font-family:'Source Sans Pro';-inkscape-font-specification:'Source Sans Pro, Light';font-variant-ligatures:normal;font-variant-caps:normal;font-variant-numeric:normal;font-feature-settings:normal;text-align:start;writing-mode:lr-tb;text-anchor:start;fill:#4a90d9;stroke-width:1.71870768"
           y="180.08826"
           x="298.63791"
           id="tspan4800"
           sodipodi:role="line">The</tspan></text>
      <text
         xml:space="preserve"
         style="color:#000000;font-style:normal;font-variant:normal;font-weight:300;font-stretch:normal;font-size:27.49932289px;line-height:42.96768951px;font-family:'Source Sans Pro';-inkscape-font-specification:'Source Sans Pro, Light';font-variant-ligatures:normal;font-variant-caps:normal;font-variant-numeric:normal;font-feature-settings:normal;text-indent:0;text-align:start;text-decoration:none;text-decoration-line:none;letter-spacing:0px;word-spacing:0px;text-transform:none;writing-mode:lr-tb;direction:ltr;baseline-shift:baseline;text-anchor:start;display:inline;overflow:visible;visibility:visible;fill:#4a90d9;fill-opacity:1;fill-rule:nonzero;stroke:none;stroke-width:1.71870768;stroke-linecap:butt;stroke-linejoin:miter;stroke-opacity:1;marker:none;marker-start:none;marker-mid:none;marker-end:none;enable-background:accumulate"
         x="501.38858"
         y="180.08826"
         id="text4806"><tspan
           sodipodi:role="line"
           id="tspan4804"
           x="501.38858"
           y="180.08826"
           style="font-style:normal;font-variant:normal;font-weight:300;font-stretch:normal;font-size:27.49932289px;font-family:'Source Sans Pro';-inkscape-font-specification:'Source Sans Pro, Light';font-variant-ligatures:normal;font-variant-caps:normal;font-variant-numeric:normal;font-feature-settings:normal;text-align:start;writing-mode:lr-tb;text-anchor:start;fill:#4a90d9;stroke-width:1.71870768">Conference</tspan></text>
    </g>
    <text
       transform="scale(1.0020838,0.99792053)"
       xml:space="preserve"
       style="font-style:normal;font-variant:normal;font-weight:bold;font-stretch:normal;font-size:38.1014328px;line-height:125%;font-family:Cantarell;-inkscape-font-specification:'Cantarell Bold';text-align:start;letter-spacing:0px;word-spacing:0px;writing-mode:lr-tb;text-anchor:start;display:inline;fill:#4a90d9;fill-opacity:1;stroke:none;stroke-width:0.28222224"
       x="-54.654663"
       y="27.916456"
       id="text4824"
       inkscape:export-filename="/home/andreasn/SparkleShare/gnome-web/guadec/2013/Brno/website-full.png"
       inkscape:export-xdpi="90"
       inkscape:export-ydpi="90"><tspan
         sodipodi:role="line"
         id="tspan4822"
         x="-54.654663"
         y="27.916456"
         style="fill:#4a90d9;stroke-width:0.28222224">GUADEC</tspan></text>
  </g>
</svg>
