<?xml version="1.0" encoding="UTF-8" standalone="no"?>
<!-- Created with Inkscape (http://www.inkscape.org/) -->

<svg
   xmlns:dc="http://purl.org/dc/elements/1.1/"
   xmlns:cc="http://creativecommons.org/ns#"
   xmlns:rdf="http://www.w3.org/1999/02/22-rdf-syntax-ns#"
   xmlns:svg="http://www.w3.org/2000/svg"
   xmlns="http://www.w3.org/2000/svg"
   xmlns:sodipodi="http://sodipodi.sourceforge.net/DTD/sodipodi-0.dtd"
   xmlns:inkscape="http://www.inkscape.org/namespaces/inkscape"
   width="42.238747mm"
   height="51mm"
   viewBox="0 0 149.66485 180.70866"
   id="svg7469"
   version="1.1"
   inkscape:version="0.91 r13725"
   sodipodi:docname="motive-gnome.svg">
  <defs
     id="defs7471" />
  <sodipodi:namedview
     id="base"
     pagecolor="#ffffff"
     bordercolor="#666666"
     borderopacity="1.0"
     inkscape:pageopacity="0.0"
     inkscape:pageshadow="2"
     inkscape:zoom="2.8"
     inkscape:cx="-10.783397"
     inkscape:cy="140.96312"
     inkscape:document-units="px"
     inkscape:current-layer="g7355"
     showgrid="false"
     fit-margin-top="2"
     fit-margin-left="2"
     fit-margin-right="2"
     fit-margin-bottom="2"
     inkscape:window-width="1920"
     inkscape:window-height="1016"
     inkscape:window-x="0"
     inkscape:window-y="27"
     inkscape:window-maximized="1" />
  <metadata
     id="metadata7474">
    <rdf:RDF>
      <cc:Work
         rdf:about="">
        <dc:format>image/svg+xml</dc:format>
        <dc:type
           rdf:resource="http://purl.org/dc/dcmitype/StillImage" />
        <dc:title />
      </cc:Work>
    </rdf:RDF>
  </metadata>
  <g
     inkscape:label="no-color"
     inkscape:groupmode="layer"
     id="layer1"
     transform="translate(-356.64456,-527.00804)"
     style="display:none"
     sodipodi:insensitive="true">
    <g
       transform="matrix(0.44653268,0,0,0.44653268,363.73117,534.09465)"
       id="g7313"
       inkscape:export-filename="/ssd/GNOME T-shirt designs/GUADEC2015/gnome-tshirts/motive-gnome-whiteshirt.png"
       inkscape:export-xdpi="1484.46"
       inkscape:export-ydpi="1484.46"
       style="fill:#4a90d8;fill-opacity:1">
      <g
         transform="matrix(3.1536648,0,0,3.1536648,0.00834015,0)"
         style="fill:#4a90d8;fill-opacity:1;fill-rule:nonzero;stroke:none;stroke-miterlimit:4"
         id="g15043">
        <g
           style="fill:#4a90d8;fill-opacity:1"
           id="g15045">
          <path
             inkscape:connector-curvature="0"
             d="M 86.068,0 C 61.466,0 56.851,35.041 70.691,35.041 84.529,35.041 110.671,0 86.068,0 Z"
             style="fill:#4a90d8;fill-opacity:1"
             id="path15047" />
          <path
             inkscape:connector-curvature="0"
             d="M 45.217,30.699 C 52.586,31.149 60.671,2.577 46.821,4.374 32.976,6.171 37.845,30.249 45.217,30.699 Z"
             style="fill:#4a90d8;fill-opacity:1"
             id="path15049" />
          <path
             inkscape:connector-curvature="0"
             d="M 11.445,48.453 C 16.686,46.146 12.12,23.581 3.208,29.735 -5.7,35.89 6.204,50.759 11.445,48.453 Z"
             style="fill:#4a90d8;fill-opacity:1"
             id="path15051" />
          <path
             inkscape:connector-curvature="0"
             d="M 26.212,36.642 C 32.451,35.37 32.793,9.778 21.667,14.369 10.539,18.961 19.978,37.916 26.212,36.642 l 0,0 z"
             style="fill:#4a90d8;fill-opacity:1"
             id="path15053" />
          <path
             inkscape:connector-curvature="0"
             d="m 58.791,93.913 c 1.107,8.454 -6.202,12.629 -13.36,7.179 C 22.644,83.743 83.16,75.088 79.171,51.386 75.86,31.712 15.495,37.769 8.621,68.553 3.968,89.374 27.774,118.26 52.614,118.26 c 12.22,0 26.315,-11.034 28.952,-25.012 C 83.58,82.589 57.867,86.86 58.791,93.913 l 0,0 z"
             style="fill:#4a90d8;fill-opacity:1"
             id="path15055" />
        </g>
      </g>
    </g>
  </g>
  <g
     transform="translate(-356.64456,-527.00804)"
     id="g7298"
     inkscape:groupmode="layer"
     inkscape:label="blue"
     sodipodi:insensitive="true"
     style="display:none">
    <g
       transform="matrix(1.4082144,0,0,1.4082144,363.73489,534.09465)"
       style="fill:#4a90d8;fill-opacity:1;fill-rule:nonzero;stroke:none;stroke-miterlimit:4"
       id="g7302">
      <g
         style="fill:#4a90d8;fill-opacity:1"
         id="g7304">
        <path
           inkscape:connector-curvature="0"
           d="M 86.068,0 C 61.466,0 56.851,35.041 70.691,35.041 84.529,35.041 110.671,0 86.068,0 Z"
           style="fill:#4a90d8;fill-opacity:1"
           id="path7306" />
        <path
           inkscape:connector-curvature="0"
           d="M 45.217,30.699 C 52.586,31.149 60.671,2.577 46.821,4.374 32.976,6.171 37.845,30.249 45.217,30.699 Z"
           style="fill:#4a90d8;fill-opacity:1"
           id="path7308" />
        <path
           inkscape:connector-curvature="0"
           d="M 11.445,48.453 C 16.686,46.146 12.12,23.581 3.208,29.735 -5.7,35.89 6.204,50.759 11.445,48.453 Z"
           style="fill:#4a90d8;fill-opacity:1"
           id="path7310" />
        <path
           inkscape:connector-curvature="0"
           d="M 26.212,36.642 C 32.451,35.37 32.793,9.778 21.667,14.369 10.539,18.961 19.978,37.916 26.212,36.642 l 0,0 z"
           style="fill:#4a90d8;fill-opacity:1"
           id="path7312" />
        <path
           inkscape:connector-curvature="0"
           d="m 58.791,93.913 c 1.107,8.454 -6.202,12.629 -13.36,7.179 C 22.644,83.743 83.16,75.088 79.171,51.386 75.86,31.712 15.495,37.769 8.621,68.553 3.968,89.374 27.774,118.26 52.614,118.26 c 12.22,0 26.315,-11.034 28.952,-25.012 C 83.58,82.589 57.867,86.86 58.791,93.913 l 0,0 z"
           style="fill:#4a90d8;fill-opacity:1"
           id="path7314" />
      </g>
    </g>
  </g>
  <g
     inkscape:label="grey-dark"
     inkscape:groupmode="layer"
     id="g7323"
     transform="translate(-356.64456,-527.00804)"
     sodipodi:insensitive="true"
     style="display:none">
    <g
       id="g7325"
       style="fill:#2c3335;fill-opacity:1;fill-rule:nonzero;stroke:none;stroke-miterlimit:4"
       transform="matrix(1.4082144,0,0,1.4082144,363.73489,534.09465)">
      <g
         id="g7327"
         style="fill:#2c3335;fill-opacity:1">
        <path
           id="path7329"
           style="fill:#2c3335;fill-opacity:1"
           d="M 86.068,0 C 61.466,0 56.851,35.041 70.691,35.041 84.529,35.041 110.671,0 86.068,0 Z"
           inkscape:connector-curvature="0" />
        <path
           id="path7331"
           style="fill:#2c3335;fill-opacity:1"
           d="M 45.217,30.699 C 52.586,31.149 60.671,2.577 46.821,4.374 32.976,6.171 37.845,30.249 45.217,30.699 Z"
           inkscape:connector-curvature="0" />
        <path
           id="path7333"
           style="fill:#2c3335;fill-opacity:1"
           d="M 11.445,48.453 C 16.686,46.146 12.12,23.581 3.208,29.735 -5.7,35.89 6.204,50.759 11.445,48.453 Z"
           inkscape:connector-curvature="0" />
        <path
           id="path7335"
           style="fill:#2c3335;fill-opacity:1"
           d="M 26.212,36.642 C 32.451,35.37 32.793,9.778 21.667,14.369 10.539,18.961 19.978,37.916 26.212,36.642 l 0,0 z"
           inkscape:connector-curvature="0" />
        <path
           id="path7337"
           style="fill:#2c3335;fill-opacity:1"
           d="m 58.791,93.913 c 1.107,8.454 -6.202,12.629 -13.36,7.179 C 22.644,83.743 83.16,75.088 79.171,51.386 75.86,31.712 15.495,37.769 8.621,68.553 3.968,89.374 27.774,118.26 52.614,118.26 c 12.22,0 26.315,-11.034 28.952,-25.012 C 83.58,82.589 57.867,86.86 58.791,93.913 l 0,0 z"
           inkscape:connector-curvature="0" />
      </g>
    </g>
  </g>
  <g
     transform="translate(-356.64456,-527.00804)"
     id="g7339"
     inkscape:groupmode="layer"
     inkscape:label="grey-light"
     sodipodi:insensitive="true"
     style="display:none">
    <g
       transform="matrix(1.4082144,0,0,1.4082144,363.73489,534.09465)"
       style="fill:#909090;fill-opacity:1;fill-rule:nonzero;stroke:none;stroke-miterlimit:4"
       id="g7341">
      <g
         style="fill:#909090;fill-opacity:1"
         id="g7343">
        <path
           inkscape:connector-curvature="0"
           d="M 86.068,0 C 61.466,0 56.851,35.041 70.691,35.041 84.529,35.041 110.671,0 86.068,0 Z"
           style="fill:#909090;fill-opacity:1"
           id="path7345" />
        <path
           inkscape:connector-curvature="0"
           d="M 45.217,30.699 C 52.586,31.149 60.671,2.577 46.821,4.374 32.976,6.171 37.845,30.249 45.217,30.699 Z"
           style="fill:#909090;fill-opacity:1"
           id="path7347" />
        <path
           inkscape:connector-curvature="0"
           d="M 11.445,48.453 C 16.686,46.146 12.12,23.581 3.208,29.735 -5.7,35.89 6.204,50.759 11.445,48.453 Z"
           style="fill:#909090;fill-opacity:1"
           id="path7349" />
        <path
           inkscape:connector-curvature="0"
           d="M 26.212,36.642 C 32.451,35.37 32.793,9.778 21.667,14.369 10.539,18.961 19.978,37.916 26.212,36.642 l 0,0 z"
           style="fill:#909090;fill-opacity:1"
           id="path7351" />
        <path
           inkscape:connector-curvature="0"
           d="m 58.791,93.913 c 1.107,8.454 -6.202,12.629 -13.36,7.179 C 22.644,83.743 83.16,75.088 79.171,51.386 75.86,31.712 15.495,37.769 8.621,68.553 3.968,89.374 27.774,118.26 52.614,118.26 c 12.22,0 26.315,-11.034 28.952,-25.012 C 83.58,82.589 57.867,86.86 58.791,93.913 l 0,0 z"
           style="fill:#909090;fill-opacity:1"
           id="path7353" />
      </g>
    </g>
  </g>
  <g
     inkscape:label="white"
     inkscape:groupmode="layer"
     id="g7355"
     transform="translate(-356.64456,-527.00804)">
    <g
       id="g7357"
       style="fill:#f5f5f5;fill-opacity:1;fill-rule:nonzero;stroke:none;stroke-miterlimit:4"
       transform="matrix(1.4082144,0,0,1.4082144,363.73489,534.09465)">
      <g
         id="g7359"
         style="fill:#f5f5f5;fill-opacity:1">
        <path
           id="path7361"
           style="fill:#f5f5f5;fill-opacity:1"
           d="M 86.068,0 C 61.466,0 56.851,35.041 70.691,35.041 84.529,35.041 110.671,0 86.068,0 Z"
           inkscape:connector-curvature="0" />
        <path
           id="path7363"
           style="fill:#f5f5f5;fill-opacity:1"
           d="M 45.217,30.699 C 52.586,31.149 60.671,2.577 46.821,4.374 32.976,6.171 37.845,30.249 45.217,30.699 Z"
           inkscape:connector-curvature="0" />
        <path
           id="path7365"
           style="fill:#f5f5f5;fill-opacity:1"
           d="M 11.445,48.453 C 16.686,46.146 12.12,23.581 3.208,29.735 -5.7,35.89 6.204,50.759 11.445,48.453 Z"
           inkscape:connector-curvature="0" />
        <path
           id="path7367"
           style="fill:#f5f5f5;fill-opacity:1"
           d="M 26.212,36.642 C 32.451,35.37 32.793,9.778 21.667,14.369 10.539,18.961 19.978,37.916 26.212,36.642 l 0,0 z"
           inkscape:connector-curvature="0" />
        <path
           id="path7369"
           style="fill:#f5f5f5;fill-opacity:1"
           d="m 58.791,93.913 c 1.107,8.454 -6.202,12.629 -13.36,7.179 C 22.644,83.743 83.16,75.088 79.171,51.386 75.86,31.712 15.495,37.769 8.621,68.553 3.968,89.374 27.774,118.26 52.614,118.26 c 12.22,0 26.315,-11.034 28.952,-25.012 C 83.58,82.589 57.867,86.86 58.791,93.913 l 0,0 z"
           inkscape:connector-curvature="0" />
      </g>
    </g>
  </g>
</svg>
