<?xml version="1.0" encoding="UTF-8" standalone="no"?>
<!-- Created with Inkscape (http://www.inkscape.org/) -->

<svg
   xmlns:dc="http://purl.org/dc/elements/1.1/"
   xmlns:cc="http://creativecommons.org/ns#"
   xmlns:rdf="http://www.w3.org/1999/02/22-rdf-syntax-ns#"
   xmlns:svg="http://www.w3.org/2000/svg"
   xmlns="http://www.w3.org/2000/svg"
   xmlns:sodipodi="http://sodipodi.sourceforge.net/DTD/sodipodi-0.dtd"
   xmlns:inkscape="http://www.inkscape.org/namespaces/inkscape"
   width="243.93626"
   height="64.797821"
   id="svg2"
   version="1.1"
   inkscape:version="0.48.4 r9939"
   sodipodi:docname="New document 65">
  <defs
     id="defs4" />
  <sodipodi:namedview
     id="base"
     pagecolor="#ffffff"
     bordercolor="#666666"
     borderopacity="1.0"
     inkscape:pageopacity="0.0"
     inkscape:pageshadow="2"
     inkscape:zoom="1.979899"
     inkscape:cx="197.08191"
     inkscape:cy="78.442084"
     inkscape:document-units="px"
     inkscape:current-layer="layer1"
     showgrid="false"
     inkscape:snap-nodes="false"
     inkscape:snap-bbox="true"
     inkscape:window-width="1600"
     inkscape:window-height="841"
     inkscape:window-x="0"
     inkscape:window-y="27"
     inkscape:window-maximized="1"
     inkscape:snap-global="false"
     showborder="true"
     inkscape:showpageshadow="false"
     fit-margin-top="0"
     fit-margin-left="0"
     fit-margin-right="0"
     fit-margin-bottom="0">
    <inkscape:grid
       type="xygrid"
       id="grid6061"
       empspacing="5"
       visible="true"
       enabled="true"
       snapvisiblegridlinesonly="true"
       originx="-3.7461507px"
       originy="-550.45824px" />
  </sodipodi:namedview>
  <metadata
     id="metadata7">
    <rdf:RDF>
      <cc:Work
         rdf:about="">
        <dc:format>image/svg+xml</dc:format>
        <dc:type
           rdf:resource="http://purl.org/dc/dcmitype/StillImage" />
        <dc:title></dc:title>
      </cc:Work>
    </rdf:RDF>
  </metadata>
  <g
     inkscape:label="Layer 1"
     inkscape:groupmode="layer"
     id="layer1"
     transform="translate(-3.7461507,-437.10612)">
    <g
       style="fill:#ffffff;fill-opacity:1"
       id="g5788-4-9-4"
       transform="matrix(0.61154355,0,0,0.61154355,-459.57078,237.82725)">
      <text
         sodipodi:linespacing="125%"
         id="text3786-9-6-7"
         y="357.88382"
         x="792.4502"
         style="font-size:29.50051689px;font-style:normal;font-variant:normal;font-weight:normal;font-stretch:normal;text-align:start;line-height:125%;letter-spacing:0px;word-spacing:0px;writing-mode:lr-tb;text-anchor:start;fill:#ffffff;fill-opacity:1;stroke:none;font-family:Cantarell;-inkscape-font-specification:Cantarell"
         xml:space="preserve"><tspan
           y="357.88382"
           x="792.4502"
           id="tspan3788-0-7-7"
           sodipodi:role="line">The</tspan></text>
      <text
         xml:space="preserve"
         style="font-size:29.50051689px;font-style:normal;font-variant:normal;font-weight:normal;font-stretch:normal;text-align:start;line-height:125%;letter-spacing:0px;word-spacing:0px;writing-mode:lr-tb;text-anchor:start;fill:#ffffff;fill-opacity:1;stroke:none;font-family:Cantarell;-inkscape-font-specification:Cantarell"
         x="973.19745"
         y="357.88382"
         id="text3790-0-3-6"
         sodipodi:linespacing="125%"><tspan
           sodipodi:role="line"
           id="tspan3792-2-3-5"
           x="973.19745"
           y="357.88382">Conference</tspan></text>
      <g
         style="fill:#ffffff;fill-opacity:1"
         id="g5768-3-5-3"
         transform="matrix(0.92337906,0,0,0.92337906,65.460957,27.451834)">
        <g
           style="fill:#ffffff;fill-opacity:1"
           id="layer1-8-6-9-3"
           transform="matrix(0.11840388,0,0,0.11840388,865.19335,299.21794)">
          <g
             style="fill:#ffffff;fill-opacity:1"
             id="g15041-9-7-1"
             transform="matrix(1.293235,0,0,1.293235,-4878.321,-1224.915)">
            <g
               id="g15043-9-1-3"
               style="fill:#ffffff;fill-opacity:1;fill-rule:nonzero;stroke:none"
               transform="matrix(2.438586,0,0,2.438586,3659.952,1113.451)">
              <g
                 id="g15045-1-6-0"
                 style="fill:#ffffff;fill-opacity:1">
                <path
                   id="path15047-7-1-1"
                   style="fill:#ffffff;fill-opacity:1"
                   d="M 86.068,0 C 61.466,0 56.851,35.041 70.691,35.041 84.529,35.041 110.671,0 86.068,0 z"
                   inkscape:connector-curvature="0" />
                <path
                   id="path15049-2-1-4"
                   style="fill:#ffffff;fill-opacity:1"
                   d="M 45.217,30.699 C 52.586,31.149 60.671,2.577 46.821,4.374 32.976,6.171 37.845,30.249 45.217,30.699 z"
                   inkscape:connector-curvature="0" />
                <path
                   id="path15051-0-1-8"
                   style="fill:#ffffff;fill-opacity:1"
                   d="M 11.445,48.453 C 16.686,46.146 12.12,23.581 3.208,29.735 -5.7,35.89 6.204,50.759 11.445,48.453 z"
                   inkscape:connector-curvature="0" />
                <path
                   id="path15053-9-9-6"
                   style="fill:#ffffff;fill-opacity:1"
                   d="M 26.212,36.642 C 32.451,35.37 32.793,9.778 21.667,14.369 10.539,18.961 19.978,37.916 26.212,36.642 l 0,0 z"
                   inkscape:connector-curvature="0" />
                <path
                   id="path15055-1-3-1"
                   style="fill:#ffffff;fill-opacity:1"
                   d="m 58.791,93.913 c 1.107,8.454 -6.202,12.629 -13.36,7.179 C 22.644,83.743 83.16,75.088 79.171,51.386 75.86,31.712 15.495,37.769 8.621,68.553 3.968,89.374 27.774,118.26 52.614,118.26 c 12.22,0 26.315,-11.034 28.952,-25.012 C 83.58,82.589 57.867,86.86 58.791,93.913 l 0,0 z"
                   inkscape:connector-curvature="0" />
              </g>
            </g>
            <g
               style="fill:#ffffff;fill-opacity:1"
               id="g15057-5-8-9">
              <path
                 id="path15059-8-4-6"
                 style="font-size:148.699646px;font-style:normal;font-variant:normal;font-weight:bold;font-stretch:normal;text-align:start;line-height:125%;writing-mode:lr-tb;text-anchor:start;fill:#ffffff;fill-opacity:1;stroke:none;font-family:Bitstream Vera Sans"
                 d="m 4176.2963,1214.4401 c -15.1078,0.4069 -27.0386,5.8367 -35.8126,16.25 -9.0861,10.8369 -13.6562,25.8104 -13.6562,44.9063 0,19.0432 4.5703,33.9757 13.6562,44.8124 9.1305,10.8369 21.6664,16.25 37.6563,16.25 16.034,0 28.6014,-5.4131 37.6875,-16.25 9.0859,-10.8367 13.6251,-25.7692 13.625,-44.8124 -1e-4,-19.0959 -4.5391,-34.0694 -13.625,-44.9063 -9.0861,-10.8366 -21.6536,-16.2499 -37.6875,-16.25 -0.6246,0 -1.2296,-0.016 -1.8437,0 z m 1.125,22 c 0.2415,-0.01 0.4737,0 0.7187,0 7.8833,10e-5 13.9919,3.4114 18.3125,10.25 4.3203,6.8388 6.4999,16.4913 6.5,28.9063 0,12.3623 -2.1799,21.9427 -6.5,28.7812 -4.3204,6.8389 -10.4293,10.2812 -18.3125,10.2812 -7.8391,0 -13.8983,-3.4423 -18.2187,-10.2812 -4.3204,-6.8385 -6.4999,-16.4189 -6.5,-28.7812 0,-12.4149 2.1798,-22.0675 6.5,-28.9063 4.1852,-6.6249 10.0123,-10.0428 17.5,-10.25 z"
                 inkscape:connector-curvature="0" />
              <path
                 id="path15061-7-8-2"
                 style="font-size:148.699646px;font-style:normal;font-variant:normal;font-weight:bold;font-stretch:normal;text-align:start;line-height:125%;writing-mode:lr-tb;text-anchor:start;fill:#ffffff;fill-opacity:1;stroke:none;font-family:Bitstream Vera Sans"
                 d="m 4005.6293,1325.612 c -13.3076,11.1757 -33.1067,11.0472 -41.3549,11.0472 -16.6133,0 -29.7747,-5.471 -39.4842,-16.413 -9.7097,-10.9946 -14.5644,-25.8819 -14.5644,-44.6622 0,-18.9906 4.9438,-33.9305 14.8316,-44.82 9.8878,-10.8892 23.4277,-16.3339 40.62,-16.334 6.6363,10e-5 12.9831,0.7366 19.0406,2.2094 6.1019,1.473 11.8475,3.6562 17.2368,6.5494 l -6.921,20.4608 c -3.0298,-1.6586 -6.4987,-3.2932 -9.7145,-4.4424 -5.4784,-1.8411 -10.979,-2.7617 -16.5018,-2.7618 -10.2442,10e-5 -18.15,3.3932 -23.7173,10.1792 -5.523,6.7336 -8.2844,16.3867 -8.2844,28.9594 0,12.4676 2.6723,22.0945 8.0172,28.8806 5.3446,6.7861 13.3768,10.1791 22.7818,10.1791 9.5548,0 15.4728,-2.4084 18.6291,-4.9461 l 0,-20.3835 -20.7001,0 0,-20.3584 40.0855,0"
                 inkscape:connector-curvature="0" />
              <path
                 id="path15063-3-0-7"
                 style="font-size:148.699646px;font-style:normal;font-variant:normal;font-weight:bold;font-stretch:normal;text-align:start;line-height:125%;writing-mode:lr-tb;text-anchor:start;fill:#ffffff;fill-opacity:1;stroke:none;font-family:Bitstream Vera Sans"
                 d="m 4023.2108,1216.5605 16.2279,0 51.2775,70.8022 0,-70.8022 21.8853,0 0,117.8103 -16.2279,0 -51.2774,-70.8022 0,70.8022 -21.8854,0 0,-117.8103"
                 inkscape:connector-curvature="0" />
              <path
                 id="path15065-5-3-0"
                 style="font-size:148.699646px;font-style:normal;font-variant:normal;font-weight:bold;font-stretch:normal;text-align:start;line-height:125%;writing-mode:lr-tb;text-anchor:start;fill:#ffffff;fill-opacity:1;stroke:none;font-family:Bitstream Vera Sans"
                 d="m 4246.3361,1216.5605 32.7366,0 22.7151,73.5479 22.8487,-73.5479 27.6698,0 12.5,117.8103 -24.3186,0 -7.5,-73.668 -22.9823,74.0213 -16.3015,0 -22.9824,-76.5213 -7.5,76.168 -24.3854,0 12.5,-117.8103"
                 inkscape:connector-curvature="0" />
              <path
                 id="path15067-8-7-4"
                 style="font-size:148.699646px;font-style:normal;font-variant:normal;font-weight:bold;font-stretch:normal;text-align:start;line-height:125%;writing-mode:lr-tb;text-anchor:start;fill:#ffffff;fill-opacity:1;stroke:none;font-family:Bitstream Vera Sans"
                 d="m 4382.3597,1216.5605 69.4147,0 0,22.9624 -43.6933,0 0,24.4365 33.5877,0 0,20.4623 -33.5877,0 0,26.9868 45.1631,0 0,22.9623 -70.8845,0 0,-117.8103"
                 inkscape:connector-curvature="0" />
              <text
                 xml:space="preserve"
                 id="text15069-1-8-5"
                 style="font-size:30.68958855px;font-style:normal;font-weight:normal;fill:#ffffff;fill-opacity:1;stroke:none;font-family:Bitstream Vera Sans"
                 y="1215.743"
                 x="4474.6182"><tspan
                   id="tspan15072-6-2-6"
                   style="letter-spacing:11.06259632;fill:#ffffff;fill-opacity:1"
                   y="1215.743"
                   x="4474.6182"><tspan
                     id="tspan15074-1-9-1"
                     style="letter-spacing:0.2523815;fill:#ffffff;fill-opacity:1">TM</tspan></tspan></text>
            </g>
          </g>
        </g>
      </g>
    </g>
    <g
       style="fill:#6b8e9f;fill-opacity:1"
       id="g5788-4-9"
       transform="matrix(0.61154355,0,0,0.61154355,-459.57078,236.97607)">
      <text
         sodipodi:linespacing="125%"
         id="text3786-9-6"
         y="357.88382"
         x="792.4502"
         style="font-size:29.50051689px;font-style:normal;font-variant:normal;font-weight:normal;font-stretch:normal;text-align:start;line-height:125%;letter-spacing:0px;word-spacing:0px;writing-mode:lr-tb;text-anchor:start;fill:#6b8e9f;fill-opacity:1;stroke:none;font-family:Cantarell;-inkscape-font-specification:Cantarell"
         xml:space="preserve"><tspan
           y="357.88382"
           x="792.4502"
           id="tspan3788-0-7"
           sodipodi:role="line">The</tspan></text>
      <text
         xml:space="preserve"
         style="font-size:29.50051689px;font-style:normal;font-variant:normal;font-weight:normal;font-stretch:normal;text-align:start;line-height:125%;letter-spacing:0px;word-spacing:0px;writing-mode:lr-tb;text-anchor:start;fill:#6b8e9f;fill-opacity:1;stroke:none;font-family:Cantarell;-inkscape-font-specification:Cantarell"
         x="973.19745"
         y="357.88382"
         id="text3790-0-3"
         sodipodi:linespacing="125%"><tspan
           sodipodi:role="line"
           id="tspan3792-2-3"
           x="973.19745"
           y="357.88382">Conference</tspan></text>
      <g
         style="fill:#6b8e9f;fill-opacity:1"
         id="g5768-3-5"
         transform="matrix(0.92337906,0,0,0.92337906,65.460957,27.451834)">
        <g
           style="fill:#6b8e9f;fill-opacity:1"
           id="layer1-8-6-9"
           transform="matrix(0.11840388,0,0,0.11840388,865.19335,299.21794)">
          <g
             style="fill:#6b8e9f;fill-opacity:1"
             id="g15041-9-7"
             transform="matrix(1.293235,0,0,1.293235,-4878.321,-1224.915)">
            <g
               id="g15043-9-1"
               style="fill:#6b8e9f;fill-opacity:1;fill-rule:nonzero;stroke:none"
               transform="matrix(2.438586,0,0,2.438586,3659.952,1113.451)">
              <g
                 id="g15045-1-6"
                 style="fill:#6b8e9f;fill-opacity:1">
                <path
                   id="path15047-7-1"
                   style="fill:#6b8e9f;fill-opacity:1"
                   d="M 86.068,0 C 61.466,0 56.851,35.041 70.691,35.041 84.529,35.041 110.671,0 86.068,0 z"
                   inkscape:connector-curvature="0" />
                <path
                   id="path15049-2-1"
                   style="fill:#6b8e9f;fill-opacity:1"
                   d="M 45.217,30.699 C 52.586,31.149 60.671,2.577 46.821,4.374 32.976,6.171 37.845,30.249 45.217,30.699 z"
                   inkscape:connector-curvature="0" />
                <path
                   id="path15051-0-1"
                   style="fill:#6b8e9f;fill-opacity:1"
                   d="M 11.445,48.453 C 16.686,46.146 12.12,23.581 3.208,29.735 -5.7,35.89 6.204,50.759 11.445,48.453 z"
                   inkscape:connector-curvature="0" />
                <path
                   id="path15053-9-9"
                   style="fill:#6b8e9f;fill-opacity:1"
                   d="M 26.212,36.642 C 32.451,35.37 32.793,9.778 21.667,14.369 10.539,18.961 19.978,37.916 26.212,36.642 l 0,0 z"
                   inkscape:connector-curvature="0" />
                <path
                   id="path15055-1-3"
                   style="fill:#6b8e9f;fill-opacity:1"
                   d="m 58.791,93.913 c 1.107,8.454 -6.202,12.629 -13.36,7.179 C 22.644,83.743 83.16,75.088 79.171,51.386 75.86,31.712 15.495,37.769 8.621,68.553 3.968,89.374 27.774,118.26 52.614,118.26 c 12.22,0 26.315,-11.034 28.952,-25.012 C 83.58,82.589 57.867,86.86 58.791,93.913 l 0,0 z"
                   inkscape:connector-curvature="0" />
              </g>
            </g>
            <g
               style="fill:#6b8e9f;fill-opacity:1"
               id="g15057-5-8">
              <path
                 id="path15059-8-4"
                 style="font-size:148.699646px;font-style:normal;font-variant:normal;font-weight:bold;font-stretch:normal;text-align:start;line-height:125%;writing-mode:lr-tb;text-anchor:start;fill:#6b8e9f;fill-opacity:1;stroke:none;font-family:Bitstream Vera Sans"
                 d="m 4176.2963,1214.4401 c -15.1078,0.4069 -27.0386,5.8367 -35.8126,16.25 -9.0861,10.8369 -13.6562,25.8104 -13.6562,44.9063 0,19.0432 4.5703,33.9757 13.6562,44.8124 9.1305,10.8369 21.6664,16.25 37.6563,16.25 16.034,0 28.6014,-5.4131 37.6875,-16.25 9.0859,-10.8367 13.6251,-25.7692 13.625,-44.8124 -1e-4,-19.0959 -4.5391,-34.0694 -13.625,-44.9063 -9.0861,-10.8366 -21.6536,-16.2499 -37.6875,-16.25 -0.6246,0 -1.2296,-0.016 -1.8437,0 z m 1.125,22 c 0.2415,-0.01 0.4737,0 0.7187,0 7.8833,10e-5 13.9919,3.4114 18.3125,10.25 4.3203,6.8388 6.4999,16.4913 6.5,28.9063 0,12.3623 -2.1799,21.9427 -6.5,28.7812 -4.3204,6.8389 -10.4293,10.2812 -18.3125,10.2812 -7.8391,0 -13.8983,-3.4423 -18.2187,-10.2812 -4.3204,-6.8385 -6.4999,-16.4189 -6.5,-28.7812 0,-12.4149 2.1798,-22.0675 6.5,-28.9063 4.1852,-6.6249 10.0123,-10.0428 17.5,-10.25 z"
                 inkscape:connector-curvature="0" />
              <path
                 id="path15061-7-8"
                 style="font-size:148.699646px;font-style:normal;font-variant:normal;font-weight:bold;font-stretch:normal;text-align:start;line-height:125%;writing-mode:lr-tb;text-anchor:start;fill:#6b8e9f;fill-opacity:1;stroke:none;font-family:Bitstream Vera Sans"
                 d="m 4005.6293,1325.612 c -13.3076,11.1757 -33.1067,11.0472 -41.3549,11.0472 -16.6133,0 -29.7747,-5.471 -39.4842,-16.413 -9.7097,-10.9946 -14.5644,-25.8819 -14.5644,-44.6622 0,-18.9906 4.9438,-33.9305 14.8316,-44.82 9.8878,-10.8892 23.4277,-16.3339 40.62,-16.334 6.6363,10e-5 12.9831,0.7366 19.0406,2.2094 6.1019,1.473 11.8475,3.6562 17.2368,6.5494 l -6.921,20.4608 c -3.0298,-1.6586 -6.4987,-3.2932 -9.7145,-4.4424 -5.4784,-1.8411 -10.979,-2.7617 -16.5018,-2.7618 -10.2442,10e-5 -18.15,3.3932 -23.7173,10.1792 -5.523,6.7336 -8.2844,16.3867 -8.2844,28.9594 0,12.4676 2.6723,22.0945 8.0172,28.8806 5.3446,6.7861 13.3768,10.1791 22.7818,10.1791 9.5548,0 15.4728,-2.4084 18.6291,-4.9461 l 0,-20.3835 -20.7001,0 0,-20.3584 40.0855,0"
                 inkscape:connector-curvature="0" />
              <path
                 id="path15063-3-0"
                 style="font-size:148.699646px;font-style:normal;font-variant:normal;font-weight:bold;font-stretch:normal;text-align:start;line-height:125%;writing-mode:lr-tb;text-anchor:start;fill:#6b8e9f;fill-opacity:1;stroke:none;font-family:Bitstream Vera Sans"
                 d="m 4023.2108,1216.5605 16.2279,0 51.2775,70.8022 0,-70.8022 21.8853,0 0,117.8103 -16.2279,0 -51.2774,-70.8022 0,70.8022 -21.8854,0 0,-117.8103"
                 inkscape:connector-curvature="0" />
              <path
                 id="path15065-5-3"
                 style="font-size:148.699646px;font-style:normal;font-variant:normal;font-weight:bold;font-stretch:normal;text-align:start;line-height:125%;writing-mode:lr-tb;text-anchor:start;fill:#6b8e9f;fill-opacity:1;stroke:none;font-family:Bitstream Vera Sans"
                 d="m 4246.3361,1216.5605 32.7366,0 22.7151,73.5479 22.8487,-73.5479 27.6698,0 12.5,117.8103 -24.3186,0 -7.5,-73.668 -22.9823,74.0213 -16.3015,0 -22.9824,-76.5213 -7.5,76.168 -24.3854,0 12.5,-117.8103"
                 inkscape:connector-curvature="0" />
              <path
                 id="path15067-8-7"
                 style="font-size:148.699646px;font-style:normal;font-variant:normal;font-weight:bold;font-stretch:normal;text-align:start;line-height:125%;writing-mode:lr-tb;text-anchor:start;fill:#6b8e9f;fill-opacity:1;stroke:none;font-family:Bitstream Vera Sans"
                 d="m 4382.3597,1216.5605 69.4147,0 0,22.9624 -43.6933,0 0,24.4365 33.5877,0 0,20.4623 -33.5877,0 0,26.9868 45.1631,0 0,22.9623 -70.8845,0 0,-117.8103"
                 inkscape:connector-curvature="0" />
              <text
                 xml:space="preserve"
                 id="text15069-1-8"
                 style="font-size:30.68958855px;font-style:normal;font-weight:normal;fill:#6b8e9f;fill-opacity:1;stroke:none;font-family:Bitstream Vera Sans"
                 y="1215.743"
                 x="4474.6182"><tspan
                   id="tspan15072-6-2"
                   style="letter-spacing:11.06259632;fill:#6b8e9f;fill-opacity:1"
                   y="1215.743"
                   x="4474.6182"><tspan
                     id="tspan15074-1-9"
                     style="letter-spacing:0.2523815;fill:#6b8e9f;fill-opacity:1">TM</tspan></tspan></text>
            </g>
          </g>
        </g>
      </g>
    </g>
    <text
       sodipodi:linespacing="125%"
       id="text3000-5-6-3"
       y="501.40167"
       x="19.790035"
       style="font-size:50.22703934px;font-style:normal;font-variant:normal;font-weight:bold;font-stretch:normal;text-align:start;line-height:125%;letter-spacing:0px;word-spacing:0px;writing-mode:lr-tb;text-anchor:start;fill:#ffffff;fill-opacity:1;stroke:none;font-family:Cantarell;-inkscape-font-specification:Cantarell Bold"
       xml:space="preserve"><tspan
         y="501.40167"
         x="19.790035"
         id="tspan3002-4-5-2"
         sodipodi:role="line">GUADEC</tspan></text>
    <text
       sodipodi:linespacing="125%"
       id="text3000-5-6"
       y="500.34705"
       x="19.790035"
       style="font-size:50.22703934px;font-style:normal;font-variant:normal;font-weight:bold;font-stretch:normal;text-align:start;line-height:125%;letter-spacing:0px;word-spacing:0px;writing-mode:lr-tb;text-anchor:start;fill:#6b8e9f;fill-opacity:1;stroke:none;font-family:Cantarell;-inkscape-font-specification:Cantarell Bold"
       xml:space="preserve"><tspan
         y="500.34705"
         x="19.790035"
         id="tspan3002-4-5"
         sodipodi:role="line">GUADEC</tspan></text>
    <path
       sodipodi:type="arc"
       style="fill:#ffffff;fill-opacity:1;stroke:none"
       id="path12318-5"
       sodipodi:cx="393.32816"
       sodipodi:cy="-125.95975"
       sodipodi:rx="3.3587573"
       sodipodi:ry="3.3587573"
       d="m 396.68691,-125.95975 c 0,1.85499 -1.50376,3.35876 -3.35875,3.35876 -1.85499,0 -3.35876,-1.50377 -3.35876,-3.35876 0,-1.85499 1.50377,-3.35875 3.35876,-3.35875 1.85499,0 3.35875,1.50376 3.35875,3.35875 z"
       transform="matrix(1.0325641,0,0,1.0325641,-398.92225,614.42331)" />
    <path
       sodipodi:type="arc"
       style="fill:#6b8e9f;fill-opacity:1;stroke:none"
       id="path12318"
       sodipodi:cx="393.32816"
       sodipodi:cy="-125.95975"
       sodipodi:rx="3.3587573"
       sodipodi:ry="3.3587573"
       d="m 396.68691,-125.95975 c 0,1.85499 -1.50376,3.35876 -3.35875,3.35876 -1.85499,0 -3.35876,-1.50377 -3.35876,-3.35876 0,-1.85499 1.50377,-3.35875 3.35876,-3.35875 1.85499,0 3.35875,1.50376 3.35875,3.35875 z"
       transform="matrix(1.0325641,0,0,1.0325641,-398.92225,613.39206)" />
    <path
       sodipodi:type="arc"
       style="fill:#ffffff;fill-opacity:1;stroke:none"
       id="path12318-0-9"
       sodipodi:cx="393.32816"
       sodipodi:cy="-125.95975"
       sodipodi:rx="3.3587573"
       sodipodi:ry="3.3587573"
       d="m 396.68691,-125.95975 c 0,1.85499 -1.50376,3.35876 -3.35875,3.35876 -1.85499,0 -3.35876,-1.50377 -3.35876,-3.35876 0,-1.85499 1.50377,-3.35875 3.35876,-3.35875 1.85499,0 3.35875,1.50376 3.35875,3.35875 z"
       transform="matrix(1.0325641,0,0,1.0325641,-161.92225,615.36081)" />
    <path
       sodipodi:type="arc"
       style="fill:#6b8e9f;fill-opacity:1;stroke:none"
       id="path12318-0"
       sodipodi:cx="393.32816"
       sodipodi:cy="-125.95975"
       sodipodi:rx="3.3587573"
       sodipodi:ry="3.3587573"
       d="m 396.68691,-125.95975 c 0,1.85499 -1.50376,3.35876 -3.35875,3.35876 -1.85499,0 -3.35876,-1.50377 -3.35876,-3.35876 0,-1.85499 1.50377,-3.35875 3.35876,-3.35875 1.85499,0 3.35875,1.50376 3.35875,3.35875 z"
       transform="matrix(1.0325641,0,0,1.0325641,-161.92225,614.39206)" />
  </g>
</svg>
