<?xml version="1.0" encoding="UTF-8" standalone="no"?>
<!-- Created with Inkscape (http://www.inkscape.org/) -->

<svg
   xmlns:dc="http://purl.org/dc/elements/1.1/"
   xmlns:cc="http://creativecommons.org/ns#"
   xmlns:rdf="http://www.w3.org/1999/02/22-rdf-syntax-ns#"
   xmlns:svg="http://www.w3.org/2000/svg"
   xmlns="http://www.w3.org/2000/svg"
   xmlns:sodipodi="http://sodipodi.sourceforge.net/DTD/sodipodi-0.dtd"
   xmlns:inkscape="http://www.inkscape.org/namespaces/inkscape"
   width="744.09448819"
   height="1052.3622047"
   id="svg2"
   version="1.1"
   inkscape:version="0.48.4 r9939"
   sodipodi:docname="New document 1">
  <defs
     id="defs4" />
  <sodipodi:namedview
     id="base"
     pagecolor="#ffffff"
     bordercolor="#666666"
     borderopacity="1.0"
     inkscape:pageopacity="0.0"
     inkscape:pageshadow="2"
     inkscape:zoom="0.70710678"
     inkscape:cx="601.24214"
     inkscape:cy="560.78622"
     inkscape:document-units="px"
     inkscape:current-layer="layer1"
     showgrid="false"
     inkscape:snap-nodes="false"
     inkscape:snap-bbox="true"
     inkscape:window-width="1600"
     inkscape:window-height="841"
     inkscape:window-x="0"
     inkscape:window-y="27"
     inkscape:window-maximized="1"
     inkscape:snap-global="false"
     showborder="true"
     inkscape:showpageshadow="false">
    <inkscape:grid
       type="xygrid"
       id="grid6061"
       empspacing="5"
       visible="true"
       enabled="true"
       snapvisiblegridlinesonly="true" />
  </sodipodi:namedview>
  <metadata
     id="metadata7">
    <rdf:RDF>
      <cc:Work
         rdf:about="">
        <dc:format>image/svg+xml</dc:format>
        <dc:type
           rdf:resource="http://purl.org/dc/dcmitype/StillImage" />
        <dc:title></dc:title>
      </cc:Work>
    </rdf:RDF>
  </metadata>
  <g
     inkscape:label="Layer 1"
     inkscape:groupmode="layer"
     id="layer1">
    <path
       sodipodi:type="arc"
       style="fill:#729fcf;fill-opacity:1;stroke:none"
       id="path7154"
       sodipodi:cx="112.42998"
       sodipodi:cy="484.55545"
       sodipodi:rx="44.547726"
       sodipodi:ry="44.547726"
       d="m 156.9777,484.55545 a 44.547726,44.547726 0 1 1 -89.095448,0 44.547726,44.547726 0 1 1 89.095448,0 z"
       transform="matrix(0.32476224,0,0,0.32476224,58.430877,-86.246107)" />
    <rect
       style="fill:#729fcf;fill-opacity:1;stroke:none"
       id="rect7156"
       width="12.731329"
       height="38.193989"
       x="80.187111"
       y="128.16339"
       rx="6.3656645"
       ry="6.3656645" />
    <rect
       style="fill:#729fcf;fill-opacity:1;stroke:none"
       id="rect7156-3"
       width="12.731329"
       height="38.193989"
       x="96.555153"
       y="128.16339"
       rx="6.3656645"
       ry="6.3656645" />
    <path
       style="fill:#729fcf;fill-opacity:1;stroke:none"
       d="m 85.974097,88.812023 17.360903,0 c 3.52658,0 6.36566,2.83909 6.36566,6.36566 l 8.18401,43.980957 -46.460253,0 8.18401,-43.980957 c 0.64516,-3.46706 2.83909,-6.36566 6.36567,-6.36566 z"
       id="rect7176"
       inkscape:connector-curvature="0"
       sodipodi:nodetypes="sssccss" />
    <path
       sodipodi:type="arc"
       style="fill:#729fcf;fill-opacity:1;stroke:none"
       id="path7154-5"
       sodipodi:cx="112.42998"
       sodipodi:cy="484.55545"
       sodipodi:rx="44.547726"
       sodipodi:ry="44.547726"
       d="m 156.9777,484.55545 a 44.547726,44.547726 0 1 1 -89.095448,0 44.547726,44.547726 0 1 1 89.095448,0 z"
       transform="matrix(0.32476224,0,0,0.32476224,115.71894,-86.246107)" />
    <rect
       style="fill:#729fcf;fill-opacity:1;stroke:none"
       id="rect7156-7"
       width="12.731329"
       height="38.193989"
       x="137.47519"
       y="128.16339"
       rx="6.3656645"
       ry="6.3656645" />
    <rect
       style="fill:#729fcf;fill-opacity:1;stroke:none"
       id="rect7156-3-8"
       width="12.731329"
       height="38.193989"
       x="153.84317"
       y="128.16339"
       rx="6.3656645"
       ry="6.3656645" />
    <path
       style="fill:#729fcf;fill-opacity:1;stroke:none"
       d="m 143.26216,88.812023 17.3609,0 c 3.52658,0 6.36566,2.83909 6.36566,6.36567 l 8.18401,43.980947 -46.46025,0 8.18401,-43.980947 c 0.64516,-3.46706 2.83909,-6.36567 6.36567,-6.36567 z"
       id="rect7176-7"
       inkscape:connector-curvature="0"
       sodipodi:nodetypes="sssccss" />
    <path
       sodipodi:type="arc"
       style="fill:#729fcf;fill-opacity:1;stroke:none"
       id="path7154-5-6"
       sodipodi:cx="112.42998"
       sodipodi:cy="484.55545"
       sodipodi:rx="44.547726"
       sodipodi:ry="44.547726"
       d="m 156.9777,484.55545 a 44.547726,44.547726 0 1 1 -89.095448,0 44.547726,44.547726 0 1 1 89.095448,0 z"
       transform="matrix(0.32476224,0,0,0.32476224,173.007,-86.246107)" />
    <rect
       style="fill:#729fcf;fill-opacity:1;stroke:none"
       id="rect7156-7-2"
       width="12.731329"
       height="38.193989"
       x="194.76321"
       y="128.16339"
       rx="6.3656645"
       ry="6.3656645" />
    <rect
       style="fill:#729fcf;fill-opacity:1;stroke:none"
       id="rect7156-3-8-8"
       width="12.731329"
       height="38.193989"
       x="211.13126"
       y="128.16339"
       rx="6.3656645"
       ry="6.3656645" />
    <path
       style="fill:#729fcf;fill-opacity:1;stroke:none"
       d="m 200.55022,88.812033 17.3609,0 c 3.52658,0 6.36566,2.83909 6.36566,6.36566 l 8.18401,43.980947 -46.46025,0 8.18401,-43.980947 c 0.64516,-3.46706 2.83909,-6.36566 6.36567,-6.36566 z"
       id="rect7176-7-5"
       inkscape:connector-curvature="0"
       sodipodi:nodetypes="sssccss" />
    <path
       sodipodi:type="arc"
       style="fill:#729fcf;fill-opacity:1;stroke:none"
       id="path7154-5-6-6"
       sodipodi:cx="112.42998"
       sodipodi:cy="484.55545"
       sodipodi:rx="44.547726"
       sodipodi:ry="44.547726"
       d="m 156.9777,484.55545 a 44.547726,44.547726 0 1 1 -89.095448,0 44.547726,44.547726 0 1 1 89.095448,0 z"
       transform="matrix(0.32476224,0,0,0.32476224,230.29506,-86.246107)" />
    <rect
       style="fill:#729fcf;fill-opacity:1;stroke:none"
       id="rect7156-7-2-5"
       width="12.731329"
       height="38.193989"
       x="252.0513"
       y="128.16339"
       rx="6.3656645"
       ry="6.3656645" />
    <rect
       style="fill:#729fcf;fill-opacity:1;stroke:none"
       id="rect7156-3-8-8-5"
       width="12.731329"
       height="38.193989"
       x="268.41928"
       y="128.16339"
       rx="6.3656645"
       ry="6.3656645" />
    <path
       style="fill:#729fcf;fill-opacity:1;stroke:none"
       d="m 257.83828,88.812033 17.3609,0 c 3.52658,0 6.36566,2.83909 6.36566,6.36567 l 8.18401,43.980937 -46.46025,0 8.18401,-43.980937 c 0.64515,-3.46707 2.83909,-6.36567 6.36567,-6.36567 z"
       id="rect7176-7-5-9"
       inkscape:connector-curvature="0"
       sodipodi:nodetypes="sssccss" />
    <path
       sodipodi:type="arc"
       style="fill:#729fcf;fill-opacity:1;stroke:none"
       id="path7154-5-6-6-7"
       sodipodi:cx="112.42998"
       sodipodi:cy="484.55545"
       sodipodi:rx="44.547726"
       sodipodi:ry="44.547726"
       d="m 156.9777,484.55545 a 44.547726,44.547726 0 1 1 -89.095448,0 44.547726,44.547726 0 1 1 89.095448,0 z"
       transform="matrix(0.32476224,0,0,0.32476224,287.58312,-86.246107)" />
    <rect
       style="fill:#729fcf;fill-opacity:1;stroke:none"
       id="rect7156-7-2-5-8"
       width="12.731329"
       height="38.193989"
       x="309.33932"
       y="128.16339"
       rx="6.3656645"
       ry="6.3656645" />
    <rect
       style="fill:#729fcf;fill-opacity:1;stroke:none"
       id="rect7156-3-8-8-5-6"
       width="12.731329"
       height="38.193989"
       x="325.70737"
       y="128.16339"
       rx="6.3656645"
       ry="6.3656645" />
    <path
       style="fill:#729fcf;fill-opacity:1;stroke:none"
       d="m 315.12633,88.812033 17.36091,0 c 3.52657,0 6.36566,2.83909 6.36566,6.36567 l 8.18401,43.980937 -46.46025,0 8.18401,-43.980937 c 0.64515,-3.46706 2.83908,-6.36567 6.36566,-6.36567 z"
       id="rect7176-7-5-9-1"
       inkscape:connector-curvature="0"
       sodipodi:nodetypes="sssccss" />
    <path
       sodipodi:type="arc"
       style="fill:#729fcf;fill-opacity:1;stroke:none"
       id="path7154-5-6-6-7-5"
       sodipodi:cx="112.42998"
       sodipodi:cy="484.55545"
       sodipodi:rx="44.547726"
       sodipodi:ry="44.547726"
       d="m 156.9777,484.55545 a 44.547726,44.547726 0 1 1 -89.095448,0 44.547726,44.547726 0 1 1 89.095448,0 z"
       transform="matrix(0.32476224,0,0,0.32476224,344.87118,-86.246107)" />
    <rect
       style="fill:#729fcf;fill-opacity:1;stroke:none"
       id="rect7156-7-2-5-8-2"
       width="12.731329"
       height="38.193989"
       x="366.62741"
       y="128.16339"
       rx="6.3656645"
       ry="6.3656645" />
    <rect
       style="fill:#729fcf;fill-opacity:1;stroke:none"
       id="rect7156-3-8-8-5-6-2"
       width="12.731329"
       height="38.193989"
       x="382.99539"
       y="128.16339"
       rx="6.3656645"
       ry="6.3656645" />
    <path
       style="fill:#729fcf;fill-opacity:1;stroke:none"
       d="m 372.41439,88.812043 17.36091,0 c 3.52657,0 6.36566,2.83909 6.36566,6.36566 l 8.18401,43.980937 -46.46025,0 8.18401,-43.980937 c 0.64515,-3.46706 2.83908,-6.36566 6.36566,-6.36566 z"
       id="rect7176-7-5-9-1-0"
       inkscape:connector-curvature="0"
       sodipodi:nodetypes="sssccss" />
    <path
       sodipodi:type="arc"
       style="fill:#729fcf;fill-opacity:1;stroke:none"
       id="path7154-5-6-6-7-5-9"
       sodipodi:cx="112.42998"
       sodipodi:cy="484.55545"
       sodipodi:rx="44.547726"
       sodipodi:ry="44.547726"
       d="m 156.9777,484.55545 a 44.547726,44.547726 0 1 1 -89.095448,0 44.547726,44.547726 0 1 1 89.095448,0 z"
       transform="matrix(0.32476224,0,0,0.32476224,402.15924,-86.246107)" />
    <rect
       style="fill:#729fcf;fill-opacity:1;stroke:none"
       id="rect7156-7-2-5-8-2-7"
       width="12.731329"
       height="38.193989"
       x="423.91544"
       y="128.16339"
       rx="6.3656645"
       ry="6.3656645" />
    <rect
       style="fill:#729fcf;fill-opacity:1;stroke:none"
       id="rect7156-3-8-8-5-6-2-7"
       width="12.731329"
       height="38.193989"
       x="440.28348"
       y="128.16339"
       rx="6.3656645"
       ry="6.3656645" />
    <path
       style="fill:#729fcf;fill-opacity:1;stroke:none"
       d="m 429.70245,88.812043 17.36091,0 c 3.52657,0 6.36566,2.83909 6.36566,6.36567 l 8.184,43.980927 -46.46024,0 8.18401,-43.980927 c 0.64515,-3.46706 2.83908,-6.36567 6.36566,-6.36567 z"
       id="rect7176-7-5-9-1-0-7"
       inkscape:connector-curvature="0"
       sodipodi:nodetypes="sssccss" />
    <path
       sodipodi:type="arc"
       style="fill:#729fcf;fill-opacity:1;stroke:none"
       id="path7154-5-6-6-7-5-9-9"
       sodipodi:cx="112.42998"
       sodipodi:cy="484.55545"
       sodipodi:rx="44.547726"
       sodipodi:ry="44.547726"
       d="m 156.9777,484.55545 a 44.547726,44.547726 0 1 1 -89.095448,0 44.547726,44.547726 0 1 1 89.095448,0 z"
       transform="matrix(0.32476224,0,0,0.32476224,459.44728,-86.246107)" />
    <rect
       style="fill:#729fcf;fill-opacity:1;stroke:none"
       id="rect7156-7-2-5-8-2-7-7"
       width="12.731329"
       height="38.193989"
       x="481.20352"
       y="128.16339"
       rx="6.3656645"
       ry="6.3656645" />
    <rect
       style="fill:#729fcf;fill-opacity:1;stroke:none"
       id="rect7156-3-8-8-5-6-2-7-3"
       width="12.731329"
       height="38.193989"
       x="497.57156"
       y="128.16339"
       rx="6.3656645"
       ry="6.3656645" />
    <path
       style="fill:#729fcf;fill-opacity:1;stroke:none"
       d="m 486.99052,88.812053 17.3609,0 c 3.52657,0 6.36565,2.83909 6.36565,6.36566 l 8.18401,43.980927 -46.46025,0 8.18401,-43.980927 c 0.64514,-3.46706 2.83907,-6.36566 6.36568,-6.36566 z"
       id="rect7176-7-5-9-1-0-7-4"
       inkscape:connector-curvature="0"
       sodipodi:nodetypes="sssccss" />
    <path
       sodipodi:type="arc"
       style="fill:#729fcf;fill-opacity:1;stroke:none"
       id="path7154-5-6-6-7-5-9-9-5"
       sodipodi:cx="112.42998"
       sodipodi:cy="484.55545"
       sodipodi:rx="44.547726"
       sodipodi:ry="44.547726"
       d="m 156.9777,484.55545 a 44.547726,44.547726 0 1 1 -89.095448,0 44.547726,44.547726 0 1 1 89.095448,0 z"
       transform="matrix(0.32476224,0,0,0.32476224,516.73534,-86.246107)" />
    <rect
       style="fill:#729fcf;fill-opacity:1;stroke:none"
       id="rect7156-7-2-5-8-2-7-7-9"
       width="12.731329"
       height="38.193989"
       x="538.49164"
       y="128.16339"
       rx="6.3656645"
       ry="6.3656645" />
    <rect
       style="fill:#729fcf;fill-opacity:1;stroke:none"
       id="rect7156-3-8-8-5-6-2-7-3-9"
       width="12.731329"
       height="38.193989"
       x="554.85962"
       y="128.16339"
       rx="6.3656645"
       ry="6.3656645" />
    <path
       style="fill:#729fcf;fill-opacity:1;stroke:none"
       d="m 544.27858,88.812053 17.3609,0 c 3.52657,0 6.36565,2.83909 6.36565,6.36567 l 8.18405,43.980917 -46.46029,0 8.18401,-43.980917 c 0.64514,-3.46707 2.83907,-6.36567 6.36568,-6.36567 z"
       id="rect7176-7-5-9-1-0-7-4-3"
       inkscape:connector-curvature="0"
       sodipodi:nodetypes="sssccss" />
    <path
       sodipodi:type="arc"
       style="fill:#729fcf;fill-opacity:1;stroke:none"
       id="path7154-5-6-6-7-5-9-9-5-6"
       sodipodi:cx="112.42998"
       sodipodi:cy="484.55545"
       sodipodi:rx="44.547726"
       sodipodi:ry="44.547726"
       d="m 156.9777,484.55545 a 44.547726,44.547726 0 1 1 -89.095448,0 44.547726,44.547726 0 1 1 89.095448,0 z"
       transform="matrix(0.32476224,0,0,0.32476224,574.02338,-86.246107)" />
    <rect
       style="fill:#729fcf;fill-opacity:1;stroke:none"
       id="rect7156-7-2-5-8-2-7-7-9-7"
       width="12.731329"
       height="38.193989"
       x="595.77966"
       y="128.16339"
       rx="6.3656645"
       ry="6.3656645" />
    <rect
       style="fill:#729fcf;fill-opacity:1;stroke:none"
       id="rect7156-3-8-8-5-6-2-7-3-9-0"
       width="12.731329"
       height="38.193989"
       x="612.14771"
       y="128.16339"
       rx="6.3656645"
       ry="6.3656645" />
    <path
       style="fill:#729fcf;fill-opacity:1;stroke:none"
       d="m 601.56668,88.812053 17.3609,0 c 3.5265,0 6.3656,2.83909 6.3656,6.36567 l 8.184,43.980917 -46.4602,0 8.184,-43.980917 c 0.6451,-3.46706 2.839,-6.36567 6.3657,-6.36567 z"
       id="rect7176-7-5-9-1-0-7-4-3-4"
       inkscape:connector-curvature="0"
       sodipodi:nodetypes="sssccss" />
    <path
       sodipodi:type="arc"
       style="fill:#babdb6;fill-opacity:1;stroke:none"
       id="path7154-5-6-6-7-5-9-9-5-6-1"
       sodipodi:cx="112.42998"
       sodipodi:cy="484.55545"
       sodipodi:rx="44.547726"
       sodipodi:ry="44.547726"
       d="m 156.9777,484.55545 a 44.547726,44.547726 0 1 1 -89.095448,0 44.547726,44.547726 0 1 1 89.095448,0 z"
       transform="matrix(0.32476224,0,0,0.32476224,631.31148,-86.246107)" />
    <rect
       style="fill:#babdb6;fill-opacity:1;stroke:none"
       id="rect7156-7-2-5-8-2-7-7-9-7-0"
       width="12.731329"
       height="38.193989"
       x="653.06775"
       y="128.16339"
       rx="6.3656645"
       ry="6.3656645" />
    <rect
       style="fill:#babdb6;fill-opacity:1;stroke:none"
       id="rect7156-3-8-8-5-6-2-7-3-9-0-1"
       width="12.731329"
       height="38.193989"
       x="669.43579"
       y="128.16339"
       rx="6.3656645"
       ry="6.3656645" />
    <path
       style="fill:#babdb6;fill-opacity:1;stroke:none"
       d="m 658.85468,88.812063 17.3609,0 c 3.5266,0 6.3657,2.83909 6.3657,6.36566 l 8.184,43.980917 -46.4603,0 8.184,-43.980917 c 0.6452,-3.46706 2.8391,-6.36566 6.3657,-6.36566 z"
       id="rect7176-7-5-9-1-0-7-4-3-4-7"
       inkscape:connector-curvature="0"
       sodipodi:nodetypes="sssccss" />
  </g>
</svg>
