<?xml version="1.0" encoding="UTF-8" standalone="no"?>
<!-- Created with Inkscape (http://www.inkscape.org/) -->

<svg
   xmlns:dc="http://purl.org/dc/elements/1.1/"
   xmlns:cc="http://creativecommons.org/ns#"
   xmlns:rdf="http://www.w3.org/1999/02/22-rdf-syntax-ns#"
   xmlns:svg="http://www.w3.org/2000/svg"
   xmlns="http://www.w3.org/2000/svg"
   xmlns:sodipodi="http://sodipodi.sourceforge.net/DTD/sodipodi-0.dtd"
   xmlns:inkscape="http://www.inkscape.org/namespaces/inkscape"
   width="531.49603"
   height="531.49603"
   id="svg9270"
   version="1.1"
   inkscape:version="0.48.4 r9939"
   sodipodi:docname="guadec2014-print.svg">
  <defs
     id="defs9272" />
  <sodipodi:namedview
     id="base"
     pagecolor="#ffffff"
     bordercolor="#666666"
     borderopacity="1.0"
     inkscape:pageopacity="0.0"
     inkscape:pageshadow="2"
     inkscape:zoom="0.90287113"
     inkscape:cx="446.91165"
     inkscape:cy="433.3754"
     inkscape:current-layer="layer1"
     inkscape:document-units="px"
     showgrid="false"
     units="cm"
     inkscape:window-width="1920"
     inkscape:window-height="1135"
     inkscape:window-x="0"
     inkscape:window-y="27"
     inkscape:window-maximized="1" />
  <metadata
     id="metadata9275">
    <rdf:RDF>
      <cc:Work
         rdf:about="">
        <dc:format>image/svg+xml</dc:format>
        <dc:type
           rdf:resource="http://purl.org/dc/dcmitype/StillImage" />
        <dc:title />
      </cc:Work>
    </rdf:RDF>
  </metadata>
  <g
     id="layer1"
     inkscape:label="Layer 1"
     inkscape:groupmode="layer"
     transform="translate(0,-68.503747)">
    <g
       transform="matrix(2.0473111,0,0,2.0473111,-357.36631,845.99689)"
       id="g8257"
       style="fill:#000000;fill-opacity:1">
      <path
         sodipodi:nodetypes="csccccccssscccccccscccccssccccccccsssccscscscccccccccccccscsscccccccccccccccccsccccccccc"
         inkscape:connector-curvature="0"
         id="path8259"
         d="m 203.91429,-294.32497 c -13.98605,0 -21.66826,10.27372 -21.66826,21.19836 0,10.26482 6.86855,21.37464 21.81507,21.37464 10.02436,0 14.76389,-4.98408 16.3246,-6.66482 l 0,-17.11729 -18.96704,0 0,6.48869 11.6856,0 0,7.9861 c -1.80082,1.4406 -4.44596,2.4663 -7.92742,2.4663 -9.00393,0 -15.47315,-6.1835 -15.47315,-14.82714 0,-8.88412 7.09031,-14.12258 14.53355,-14.12258 4.20189,0 8.2008,1.50064 10.48185,2.70124 l 1.08633,0.61662 3.08285,-5.84288 -1.02759,-0.58717 c -3.54158,-1.98085 -8.36395,-3.67015 -13.94639,-3.67007 z m 209.1073,0 c -13.50591,0 -22.07928,9.19314 -22.07928,21.19836 0,11.82522 8.2211,21.37464 21.727,21.37464 3.84169,0 8.36063,-0.89916 12.74258,-2.7598 l 1.05692,-0.44048 -2.37821,-5.87216 -1.08633,0.35348 c -3.24144,1.14052 -6.37257,1.73206 -9.01375,1.73234 -9.72427,0 -15.59055,-6.70237 -15.59055,-14.44553 0,-7.50353 5.44023,-14.29873 14.50422,-14.29873 1.86078,0 4.92019,0.25837 9.54225,1.87912 l 1.14507,0.41102 2.29014,-6.3713 -1.08638,-0.411 c -4.3819,-1.74102 -8.53224,-2.349 -11.77368,-2.34881 z m -183.59281,0.29349 0,27.07075 0,0.38164 c 0,4.62196 0.25127,14.82712 17.05865,14.82712 16.32706,0 17.02924,-10.57746 17.02924,-15.61992 0,-2.7008 -0.0585,-0.01 -0.0585,-26.65959 l -7.31085,0 0,26.42469 c 0,1.26076 -0.11093,2.47224 -0.41102,3.55272 -0.90041,3.60154 -4.3265,5.57854 -9.24864,5.57854 -4.80212,0 -7.08967,-1.9208 -7.81001,-2.70117 -1.68071,-1.80085 -1.84971,-3.90873 -1.84971,-6.43009 l 0,-26.42469 z m 55.668,0 -15.53181,41.66299 7.19337,0 4.13985,-10.9222 15.32634,0 4.19859,10.9222 7.60442,0 -15.59058,-41.66299 z m 28.97911,0 0,41.66299 10.3937,0 c 3.48153,0 7.14573,0.0194 10.68732,-0.88085 11.58506,-2.76123 14.94457,-12.67603 14.94457,-21.13971 0,-9.18405 -4.8224,-19.64234 -22.04987,-19.64243 z m 43.83561,0 0,41.66299 27.68715,0 0,-6.7824 -20.28823,0 0,-11.27451 18.73214,0 0,-6.78227 -18.73214,0 0,-10.04142 20.28823,0 0,-6.78239 z m -36.43669,6.78239 6.78227,0 c 1.26057,0 2.44159,0.0844 3.58202,0.26424 4.98219,0.78066 10.86354,4.6808 10.86354,13.56472 0,3.90136 -1.07071,6.40002 -1.79105,7.78056 -3.4215,6.30278 -10.08903,6.48898 -14.65103,6.48868 l -4.78575,0 z m -32.88408,1.76164 5.28492,15.4732 -10.62858,0 z"
         style="font-size:medium;font-style:normal;font-variant:normal;font-weight:normal;font-stretch:normal;text-indent:0;text-align:start;text-decoration:none;line-height:normal;letter-spacing:normal;word-spacing:normal;text-transform:none;direction:ltr;block-progression:tb;writing-mode:lr-tb;text-anchor:start;baseline-shift:baseline;color:#000000;fill:#000000;fill-opacity:1;fill-rule:nonzero;stroke:none;stroke-width:2.81839633;marker:none;visibility:visible;display:inline;overflow:visible;enable-background:accumulate;font-family:Sans;-inkscape-font-specification:Sans" />
      <text
         sodipodi:linespacing="125%"
         id="text8261"
         y="-164.01741"
         x="304.29871"
         style="font-size:9.87000751px;font-style:normal;font-variant:normal;font-weight:bold;font-stretch:normal;text-indent:0;text-align:center;text-decoration:none;line-height:125%;letter-spacing:0px;word-spacing:0px;text-transform:none;direction:ltr;block-progression:tb;writing-mode:lr-tb;text-anchor:middle;baseline-shift:baseline;color:#000000;fill:#000000;fill-opacity:1;fill-rule:nonzero;stroke:none;stroke-width:1;marker:none;visibility:visible;display:inline;overflow:visible;enable-background:accumulate;font-family:Cantarell;-inkscape-font-specification:Cantarell Bold"
         xml:space="preserve"><tspan
           style="font-size:9.87000751px;font-style:normal;font-variant:normal;font-weight:bold;font-stretch:normal;text-align:center;line-height:125%;letter-spacing:2.57813835;writing-mode:lr-tb;text-anchor:middle;fill:#000000;fill-opacity:1;font-family:Cantarell;-inkscape-font-specification:Cantarell Bold"
           y="-164.01741"
           x="305.58777"
           id="tspan8263"
           sodipodi:role="line">STRASBOURG  FRANCE  2014</tspan></text>
      <rect
         inkscape:export-ydpi="90"
         inkscape:export-xdpi="90"
         inkscape:export-filename="/home/andreasn/SparkleShare/gnome-marketing/guadec/sponsor-2014.png"
         y="-184.7623"
         x="182.35741"
         height="0.83333331"
         width="244"
         id="rect8265"
         style="color:#000000;fill:#000000;fill-opacity:1;fill-rule:nonzero;stroke:none;stroke-width:1;marker:none;visibility:visible;display:inline;overflow:visible;enable-background:accumulate" />
      <path
         style="font-size:medium;font-style:normal;font-variant:normal;font-weight:normal;font-stretch:normal;text-indent:0;text-align:start;text-decoration:none;line-height:normal;letter-spacing:normal;word-spacing:normal;text-transform:none;direction:ltr;block-progression:tb;writing-mode:lr-tb;text-anchor:start;baseline-shift:baseline;color:#000000;fill:#000000;fill-opacity:1;fill-rule:nonzero;stroke:none;stroke-width:2.81839633;marker:none;visibility:visible;display:inline;overflow:visible;enable-background:accumulate;font-family:Sans;-inkscape-font-specification:Sans"
         d="m 256.80239,-336.00055 c -5.20917,0 -6.19041,7.42415 -3.25996,7.42415 2.93002,0 8.46934,-7.42415 3.25996,-7.42415 z m -8.30458,0.92805 c -2.9315,0.38027 -1.89406,5.47286 -0.33313,5.56804 1.56029,0.0954 3.26569,-5.94853 0.33313,-5.56804 z m -4.90184,1.99881 c -0.12856,0.0137 -0.28109,0.0579 -0.42832,0.11894 -2.35622,0.9723 -0.34437,4.98126 0.97561,4.71148 1.23847,-0.25249 1.38103,-5.0351 -0.54729,-4.83042 z m -3.66449,3.14099 c -0.20486,-0.008 -0.43039,0.051 -0.66627,0.21412 -1.88616,1.30322 0.62735,4.46203 1.73706,3.97386 0.97101,-0.42755 0.36324,-4.13993 -1.07079,-4.18798 z m 80.78525,0.0236 c -1.82973,0 -3.46579,0.81202 -4.42594,1.80845 -0.99639,1.03261 -1.73706,2.65975 -1.73706,4.6163 0,1.92031 0.56627,3.47382 1.68947,4.68773 1.03263,1.05049 2.6054,1.78461 4.6163,1.78461 1.41305,0 2.68405,-0.25417 3.80726,-0.76145 l -0.38073,-1.18977 c -0.99639,0.39854 -1.97804,0.59485 -2.97442,0.59485 -0.97828,0 -1.8804,-0.20765 -2.64129,-0.64244 -1.43117,-0.81529 -2.42712,-2.35943 -2.42712,-4.49736 0,-1.46724 0.46297,-2.63287 1.33254,-3.59306 0.72465,-0.77897 1.98967,-1.45148 3.40273,-1.45156 1.43118,0 1.95208,0.14879 3.0934,0.54733 l 0.42832,-1.26111 c -1.19566,-0.43494 -2.13489,-0.64252 -3.78346,-0.64252 z m 29.00654,0.0952 c -1.2319,0 -2.13404,0.45055 -2.64129,1.35629 -0.18116,0.32636 -0.26175,0.881 -0.26175,1.64192 l 0,0.88047 -1.26115,0 0,1.14218 1.26115,0 0.0238,7.59068 1.45152,0 0,-7.59068 2.90303,0 0,-1.14218 -2.90303,0 0,-0.83288 c 0,-0.23551 0.005,-0.4204 0.0238,-0.54733 0.10869,-0.72444 0.84153,-1.30871 1.85603,-1.30871 0.39856,0 0.86612,0.0693 1.42773,0.2142 l 0.23795,-1.09466 c -0.61595,-0.181 -1.37502,-0.3093 -2.11779,-0.3093 z m -145.36585,0.0472 0,1.33254 4.18798,0 0,11.23141 1.49911,0 0,-11.23141 4.18798,0 0,-1.33254 z m 11.16002,0.42831 0,12.13564 1.49911,0 0,-7.06726 c 0.88769,-0.43464 1.66733,-0.66612 2.35574,-0.66627 1.41307,0 1.92743,0.66855 1.92743,2.11782 l 0,5.61571 1.47531,0 0,-5.94884 c 0,-1.84789 -1.00191,-3.02205 -2.83165,-3.02205 -0.90581,0 -1.87609,0.25996 -2.92683,0.78528 l 0,-3.95003 z m 34.40809,1.80845 c -3.92037,0.18252 -8.66532,2.22481 -9.51814,6.04402 -0.98521,4.40858 4.06821,10.51755 9.32778,10.51755 2.58743,0 5.55706,-2.32288 6.11541,-5.28257 0.42644,-2.25694 -5.00231,-1.35059 -4.80667,0.14277 0.23439,1.79002 -1.31603,2.6529 -2.83164,1.49915 -4.82487,-3.67347 7.98323,-5.49898 7.1386,-10.51763 -0.26289,-1.56196 -2.23768,-2.36225 -4.66389,-2.40329 -0.25272,-0.008 -0.50009,-0.0122 -0.76145,0 z m 15.20524,0.28554 c -1.49278,0 -2.66318,0.48223 -3.52172,1.42773 -0.85853,0.94549 -1.28495,2.22975 -1.28495,3.87868 0,1.63049 0.41809,2.92397 1.26116,3.8786 0.84305,0.95007 1.98403,1.42772 3.42653,1.42772 0.71618,0 2.43763,0.0183 3.5931,-0.95181 l 0,-4.9256 -3.47412,0 0,1.78461 1.78465,0 0,1.76086 c -0.27406,0.22036 -0.78846,0.42832 -1.61809,0.42832 -0.81661,0 -1.51095,-0.29118 -1.97501,-0.88047 -0.46409,-0.58906 -0.69007,-1.43983 -0.69007,-2.52223 0,-1.09177 0.23431,-1.91391 0.71386,-2.49855 0.4834,-0.58921 1.15692,-0.88032 2.04641,-0.88047 0.47953,1.5e-4 0.97583,0.0781 1.45151,0.23803 0.27923,0.0996 0.56977,0.23658 0.83284,0.38073 l 0.59488,-1.78469 c -0.46794,-0.25121 -0.96929,-0.44317 -1.4991,-0.57109 -0.52596,-0.12785 -1.06567,-0.19037 -1.64188,-0.19037 z m 18.29863,0 c -1.31178,0.035 -2.35536,0.52358 -3.11719,1.42773 -0.78893,0.94092 -1.18977,2.24437 -1.18977,3.90243 0,1.6535 0.40086,2.93768 1.18977,3.87869 0.79278,0.94077 1.87159,1.40388 3.25996,1.40388 1.3922,0 2.49483,-0.46303 3.28376,-1.40388 0.78891,-0.94108 1.18978,-2.22519 1.18977,-3.87869 -1e-5,-1.65806 -0.40086,-2.96151 -1.18977,-3.90243 -0.78893,-0.94093 -1.89157,-1.42773 -3.28376,-1.42773 -0.0542,0 -0.0894,0 -0.14277,0 z m -13.30161,0.19037 0,10.232 1.90363,0 0,-6.1392 4.44973,6.1392 1.40393,0 0,-10.232 -1.90363,0 0,6.1392 -4.44973,-6.1392 z m 19.79774,0 -1.07079,10.232 2.11779,0 0.64247,-6.61511 1.99881,6.63895 1.40393,0 1.99881,-6.42483 0.66627,6.40099 2.09399,0 -1.07079,-10.232 -2.40333,0 -1.99881,6.37715 -1.95122,-6.37715 z m 11.37418,0 0,10.232 6.163,0 0,-1.99881 -3.92623,0 0,-2.33194 2.92683,0 0,-1.78469 -2.92683,0 0,-2.11775 3.80725,0 0,-1.99881 z m 39.90482,0.95181 c -0.92392,0 -2.01211,0.27687 -3.11719,0.85663 l -0.28555,-0.64251 -1.0232,0 0,8.68535 1.47532,0 0,-7.0196 c 0.88769,-0.41682 1.71491,-0.64251 2.40333,-0.64251 0.68841,0 1.16165,0.17369 1.45151,0.49966 0.28986,0.32636 0.25537,0.90182 0.45212,1.61809 l 0,5.54436 1.45151,0 0,-5.92509 c 0,-0.94191 -0.22473,-1.66377 -0.71386,-2.18917 -0.48913,-0.52525 -1.17006,-0.78521 -2.09399,-0.78521 z m 42.16538,0 c -0.92393,0 -1.98831,0.27687 -3.0934,0.85663 l -0.28555,-0.64251 -1.04699,0 0,8.68535 1.49911,0 0,-7.0196 c 0.88769,-0.41682 1.71491,-0.64251 2.40333,-0.64251 0.68841,0 1.16165,0.17369 1.45151,0.49966 0.28987,0.32636 0.42833,0.87529 0.42833,1.61809 l 0,5.54436 1.47531,0 0,-5.92509 c 0,-0.94191 -0.24851,-1.66377 -0.73766,-2.18917 -0.48913,-0.52525 -1.17007,-0.78521 -2.09399,-0.78521 z m -154.47947,0.0236 c -1.26813,0 -2.2679,0.45055 -2.97442,1.35637 -0.6703,0.90582 -0.99941,2.00315 -0.99941,3.30752 0,2.8262 1.53979,4.37834 4.40214,4.37834 0.97828,0 1.92016,-0.16782 2.80785,-0.4759 l 0,-1.16594 c -0.85145,0.27176 -1.64245,0.40456 -2.40333,0.40448 -1.10508,0 -1.91988,-0.26551 -2.42712,-0.80896 -0.50726,-0.54353 -0.80228,-1.2369 -0.85664,-2.07024 l 5.92505,0 0.0952,-0.14277 0,-0.78528 c 0,-2.49992 -1.26856,-3.99747 -3.5693,-3.99762 z m 101.55859,0 c -2.68119,0 -4.23558,1.82756 -4.23558,4.54495 0,2.73559 1.50679,4.52112 4.18799,4.52112 2.66307,0 4.23557,-1.80936 4.23557,-4.54488 0,-2.71762 -1.50679,-4.52119 -4.18798,-4.52119 z m 26.41285,0 c -1.26813,0 -2.2441,0.45055 -2.95063,1.35637 -0.6703,0.90582 -1.0232,2.00315 -1.0232,3.30752 0,2.82628 1.53979,4.37834 4.40214,4.37834 0.97828,0 1.92016,-0.16774 2.80785,-0.4759 l 0,-1.16594 c -0.85145,0.27176 -1.64245,0.40456 -2.40333,0.40448 -1.10508,0 -1.91987,-0.26551 -2.42712,-0.80896 -0.50725,-0.54353 -0.80228,-1.2369 -0.85664,-2.07024 l 5.94884,0 0.0952,-0.14277 0,-0.78528 c 0,-2.49985 -1.29235,-3.99739 -3.5931,-3.99762 z m 9.85127,0 c -0.85145,0 -1.64813,0.3064 -2.42712,0.9043 l -0.30934,-0.7377 -1.07079,0 0,8.7091 1.4991,0 0,-6.92441 c 0.63407,-0.41682 1.29229,-0.64251 1.99881,-0.64251 0.43479,0 0.85585,0.10439 1.30875,0.28554 l 0.19036,0 0,-1.42772 c -0.38044,-0.10873 -0.77309,-0.1666 -1.18977,-0.1666 z m 6.7103,0 c -1.26813,0 -2.2441,0.45055 -2.95063,1.35637 -0.6703,0.90582 -1.0232,2.00315 -1.0232,3.30752 0,2.82628 1.53979,4.37834 4.40214,4.37834 0.97828,0 1.92016,-0.16774 2.80785,-0.4759 l 0,-1.16594 c -0.85145,0.27176 -1.64245,0.40456 -2.40333,0.40448 -1.10508,0 -1.91987,-0.26551 -2.42712,-0.80896 -0.50726,-0.54353 -0.80228,-1.2369 -0.85664,-2.07024 l 5.94884,0 0.0713,-0.14277 0,-0.78528 c 0,-2.49985 -1.26855,-3.99739 -3.5693,-3.99762 z m 18.77454,0 c -1.2446,0.0956 -2.18173,0.53202 -2.83165,1.30878 -0.70652,0.85145 -1.07079,1.98396 -1.07079,3.37894 0,2.75364 1.4411,4.40218 4.1404,4.40218 0.0181,0 0.0533,-0.008 0.0713,-0.0236 0.76088,0 1.5462,-0.17368 2.37954,-0.49974 l -0.35693,-0.97557 c -0.5616,0.19927 -1.08136,0.28555 -1.5705,0.28555 -0.14492,0 -0.2777,-0.008 -0.40452,-0.0236 -1.92031,-0.21754 -2.83164,-1.31266 -2.83164,-3.45036 0,-2.04717 1.01003,-3.18858 3.09339,-3.18858 0.52537,0 1.13815,0.12145 1.80845,0.35697 l 0.35693,-1.047 c -0.79711,-0.34417 -1.53024,-0.5235 -2.23676,-0.52357 -0.19022,0 -0.3695,-0.0137 -0.5473,0 z m 8.56633,0 c -1.26813,0 -2.2441,0.45055 -2.95062,1.35637 -0.6703,0.90582 -1.0232,2.00315 -1.0232,3.30752 0,2.82628 1.53979,4.37834 4.40214,4.37834 0.97827,0 1.92016,-0.16774 2.80785,-0.4759 l 0,-1.16594 c -0.85146,0.27176 -1.64245,0.40456 -2.40333,0.40448 -1.10508,0 -1.91988,-0.26551 -2.42713,-0.80896 -0.50725,-0.54353 -0.80228,-1.2369 -0.85663,-2.07024 l 5.94884,0 0.0952,-0.14277 0,-0.78528 c 0,-2.49985 -1.29235,-3.99739 -3.5931,-3.99762 z m -117.23974,0.76145 c 0.0209,-6.9e-4 0.0263,7e-5 0.0476,0 0.68449,1.5e-4 1.21914,0.28668 1.59429,0.88046 0.37512,0.59378 0.57108,1.44433 0.57109,2.52231 0,1.07342 -0.19598,1.90485 -0.57109,2.49848 -0.37513,0.59385 -0.90981,0.88046 -1.59429,0.88046 -0.68065,0 -1.19536,-0.28661 -1.57049,-0.88046 -0.37513,-0.59355 -0.57108,-1.42506 -0.57109,-2.49848 0,-1.07798 0.19597,-1.92853 0.57109,-2.52231 0.36339,-0.5752 0.87276,-0.86242 1.5229,-0.88046 z m 46.90065,0.40456 c 1.77539,0 2.68888,1.53112 2.68888,3.37894 0,1.88413 -0.91349,3.33135 -2.68888,3.33135 -1.77538,0 -2.68887,-1.48346 -2.68887,-3.33135 0,-1.82969 0.91349,-3.37894 2.68887,-3.37894 z m -101.41582,0.0236 c 1.35871,0 1.97502,1.18056 1.97502,2.59366 l -4.52112,0 c 0.16304,-1.39498 0.91565,-2.59366 2.5461,-2.59366 z m 127.97144,0 c 1.35871,0 1.97502,1.18056 1.97502,2.59366 l -4.49733,0 c 0.16305,-1.39498 0.89186,-2.59366 2.52231,-2.59366 z m 16.56157,0 c 1.35871,0 1.97502,1.18056 1.97502,2.59366 l -4.52112,0 c 0.16304,-1.39498 0.91565,-2.59366 2.5461,-2.59366 z m 27.34088,0 c 1.35871,0 1.97501,1.18056 1.97501,2.59366 l -4.49732,0 c 0.16305,-1.39498 0.89186,-2.59366 2.52231,-2.59366 z"
         id="path8267"
         inkscape:connector-curvature="0"
         sodipodi:nodetypes="ssscccccccccccscscsccscsccccsccsccccccccccscsccccccccccccccccccsccsscccccsccccccssscsccccccscsccccccsccscscssscccccccccccccccccccccccccccccccccccccccsccccccscsccscssccccccscsccscsccsscccccccscsssssccsscccccccscsccccccscccsccsscccccccsccccsscccscsscccccccsscccccccsccccscscsccssssssccssccssccssccs" />
      <g
         style="fill:#000000;fill-opacity:1"
         transform="translate(589.82072,-530)"
         id="g8269">
        <path
           id="path8271"
           d="m -251.05079,298.5625 0,2.28125 -0.46875,0 0,0.9375 0.28125,0 0,1.28125 -0.125,1.375 -0.21875,0.0312 -0.9375,5.59375 -0.28125,0 0,2.03125 -1.1875,0 0,12 -1.46875,0 0.1875,1.28125 0.40625,0.0937 0,5.3125 -0.59375,0 0.1875,1.28125 0.40625,0.0937 0,5.28125 -0.59375,0 0.1875,1.28125 0.40625,0.0937 -0.0312,7.28125 21.5625,0 -0.0312,-7.28125 0.40625,-0.0937 0.1875,-1.28125 -0.59375,0 0,-5.28125 0.40625,-0.0937 0.1875,-1.28125 -0.59375,0 0,-5.3125 0.40625,-0.0937 0.1875,-1.28125 -1.46875,0 -13.25,0 0,-12 -1.15625,0 -0.0312,-2.0625 -0.3125,0.0312 -0.875,-5.59375 -0.21875,-0.0312 -0.25,-1.375 0,-1.28125 0.28125,0 0,-0.9375 -0.4375,0 0,-2.28125 -0.5625,0 z m -2.03125,14.15625 0.28125,0 0,3.8125 -0.28125,0 0,-3.8125 z m 4.40625,0 0.28125,0 0,3.8125 -0.28125,0 0,-3.8125 z m 4.5625,19.65625 c 1.42785,0 2.59375,1.1659 2.59375,2.59375 0,1.42785 -1.1659,2.59375 -2.59375,2.59375 -1.42785,0 -2.59375,-1.1659 -2.59375,-2.59375 0,-1.42785 1.1659,-2.59375 2.59375,-2.59375 z m 0,7.3125 c 0.76563,0.53594 1.17083,1.04947 1.375,1.6875 l 0,3.875 -2.75,0 0,-3.875 c 0.10208,-0.56146 0.68593,-1.2026 1.375,-1.6875 z m -6,1.15625 c 0.60604,0.42423 0.93213,0.83871 1.09375,1.34375 l 0,3.0625 -2.1875,0 0,-3.0625 c 0.0808,-0.44443 0.54831,-0.95993 1.09375,-1.34375 z m 12,0 c 0.60604,0.42423 0.93213,0.83871 1.09375,1.34375 l 0,3.0625 -2.1875,0 0,-3.0625 c 0.0808,-0.44443 0.54831,-0.95993 1.09375,-1.34375 z"
           style="fill:#000000;fill-opacity:1;stroke:none"
           inkscape:connector-curvature="0" />
        <path
           sodipodi:nodetypes="ccsccc"
           inkscape:connector-curvature="0"
           id="path8273"
           d="m -322.57913,341.55638 0,3.29196 c 0.0296,-0.0106 5.34458,-1.91006 9.48932,-1.91006 3.83691,0 8.53653,1.57208 9.26394,1.82323 l 0,-3.20513 z"
           style="color:#000000;fill:#000000;fill-opacity:1;fill-rule:nonzero;stroke:none;stroke-width:1;marker:none;visibility:visible;display:inline;overflow:visible;enable-background:accumulate" />
        <path
           sodipodi:nodetypes="cccccc"
           inkscape:connector-curvature="0"
           id="path8275"
           d="m -263.51657,340.77853 3.10097,-3.54397 3.10098,3.54397 0,5.29251 -6.20195,0 z"
           style="color:#000000;fill:#000000;fill-opacity:1;fill-rule:nonzero;stroke:none;stroke-width:1;marker:none;visibility:visible;display:inline;overflow:visible;enable-background:accumulate" />
        <path
           sodipodi:nodetypes="ccccccccccc"
           inkscape:export-ydpi="90"
           inkscape:export-xdpi="90"
           inkscape:export-filename="/home/andreasn/SparkleShare/gnome-marketing/guadec/sponsor-2014.png"
           inkscape:connector-curvature="0"
           id="path8277"
           d="m -326.72639,330.79061 -2.05072,3.96653 -0.0531,0 0,0.10383 0,11.21011 6.59999,0 c -0.002,-3.76083 3.4e-4,-7.54805 -0.002,-11.28404 l -0.0519,-0.0299 -2.14634,-3.96652 -2.29508,0 z"
           style="color:#000000;fill:#000000;fill-opacity:1;fill-rule:nonzero;stroke:none;stroke-width:1;marker:none;visibility:visible;display:inline;overflow:visible;enable-background:accumulate" />
        <path
           sodipodi:nodetypes="ccccccccccc"
           inkscape:export-ydpi="90"
           inkscape:export-xdpi="90"
           inkscape:export-filename="/home/andreasn/SparkleShare/gnome-marketing/guadec/sponsor-2014.png"
           inkscape:connector-curvature="0"
           id="path8279"
           d="m -302.06932,330.79061 -2.05071,3.96653 -0.0531,0 0,0.10383 0,11.21011 6.58777,0 0.0121,-11.31388 -0.0546,0 -2.14632,-3.96652 -2.29511,0 z"
           style="color:#000000;fill:#000000;fill-opacity:1;fill-rule:nonzero;stroke:none;stroke-width:1;marker:none;visibility:visible;display:inline;overflow:visible;enable-background:accumulate" />
        <path
           sodipodi:nodetypes="ccsccc"
           inkscape:connector-curvature="0"
           id="path8281"
           d="m -347.58349,341.55638 0,3.29196 c 0.0302,-0.0106 5.44355,-1.91006 9.66506,-1.91006 3.90796,0 8.6946,1.57208 9.43548,1.82323 l 0,-3.20513 z"
           style="color:#000000;fill:#000000;fill-opacity:1;fill-rule:nonzero;stroke:none;stroke-width:1;marker:none;visibility:visible;display:inline;overflow:visible;enable-background:accumulate" />
        <path
           sodipodi:nodetypes="ccccccc"
           inkscape:connector-curvature="0"
           id="path8283"
           d="m -281.62995,340.80197 0.66449,-3.54397 c 1.62432,0 6.79261,0 8.41693,0 l 0.66449,3.54397 0,5.29251 -9.74591,0 z"
           style="color:#000000;fill:#000000;fill-opacity:1;fill-rule:nonzero;stroke:none;stroke-width:1;marker:none;visibility:visible;display:inline;overflow:visible;enable-background:accumulate" />
        <path
           style="color:#000000;fill:#000000;fill-opacity:1;fill-rule:nonzero;stroke:none;stroke-width:1;marker:none;visibility:visible;display:inline;overflow:visible;enable-background:accumulate"
           d="m -270.80127,339.00654 3.10097,-3.54396 3.10097,3.54396 0,7.0645 -6.20194,0 z"
           id="path8285"
           inkscape:connector-curvature="0"
           sodipodi:nodetypes="cccccc" />
        <path
           sodipodi:nodetypes="cccccc"
           inkscape:connector-curvature="0"
           id="path8287"
           d="m -296.09635,340.77853 3.98696,-3.54397 3.98697,3.54397 0,5.29251 -7.97393,0 z"
           style="color:#000000;fill:#000000;fill-opacity:1;fill-rule:nonzero;stroke:none;stroke-width:1;marker:none;visibility:visible;display:inline;overflow:visible;enable-background:accumulate" />
        <path
           style="color:#000000;fill:#000000;fill-opacity:1;fill-rule:nonzero;stroke:none;stroke-width:1;marker:none;visibility:visible;display:inline;overflow:visible;enable-background:accumulate"
           d="m -223.98922,340.77853 6.20194,0 0,5.29251 -6.20194,0 z"
           id="path8289"
           inkscape:connector-curvature="0"
           sodipodi:nodetypes="ccccc" />
        <path
           sodipodi:nodetypes="ccccc"
           inkscape:connector-curvature="0"
           id="path8291"
           d="m -231.07715,337.00654 6.20194,0 0,9.0645 -6.20194,0 z"
           style="color:#000000;fill:#000000;fill-opacity:1;fill-rule:nonzero;stroke:none;stroke-width:1;marker:none;visibility:visible;display:inline;overflow:visible;enable-background:accumulate" />
        <path
           sodipodi:nodetypes="ccccccccccccccccccccccccccccccccccc"
           inkscape:connector-curvature="0"
           id="path8293"
           d="m -200.90108,330.13353 c -0.29165,0.002 -0.5842,0.0242 -0.875,0.0312 l 0,2.625 c -0.92676,-0.003 -1.81699,0.0339 -2.6875,0.0937 l 0,-2.5625 c -0.44403,0.034 -0.87981,0.0482 -1.3125,0.0937 l 0,2.59375 c -0.94354,0.1001 -1.84408,0.21131 -2.6875,0.375 l 0,-2.5936 c -3.42142,0.60686 -6.12221,1.63077 -7,3.09375 l 0,2.75 0,7.25 0,2.1875 29.9375,0 0.0625,-6.9375 c -0.3151,-0.16616 -0.65397,-0.29748 -0.9375,-0.375 l 0,-5.84375 c -0.41215,-0.30088 -0.92401,-0.58963 -1.5,-0.84375 l 0,4 c -0.33473,-0.1445 -0.74259,-0.28673 -1.1875,-0.40625 l 0,-4.0625 c -0.66449,-0.22094 -1.40663,-0.42279 -2.1875,-0.59375 l 0,4.21875 c -0.56994,-0.0926 -1.126,-0.18304 -1.6875,-0.25 l 0,-4.28125 c -0.44314,-0.0716 -0.91168,-0.12967 -1.375,-0.1875 l 0,4.34375 c -1.09238,-0.10005 -2.003,-0.15536 -2.375,-0.15625 0.0155,-1.14412 0.0204,-0.46522 0,-1.5625 -0.10564,-0.014 -0.20715,-0.0181 -0.3125,-0.0312 l 0,-2.84375 c -0.39789,-0.0259 -0.78421,-0.0457 -1.1875,-0.0625 l 0,2.78125 c -0.90741,-0.0849 -1.81296,-0.16541 -2.6875,-0.1875 z"
           style="color:#000000;fill:#000000;fill-opacity:1;fill-rule:nonzero;stroke:none;stroke-width:1;marker:none;visibility:visible;display:inline;overflow:visible;enable-background:accumulate" />
        <path
           style="color:#000000;fill:#000000;fill-opacity:1;fill-rule:nonzero;stroke:none;stroke-width:1;marker:none;visibility:visible;display:inline;overflow:visible;enable-background:accumulate"
           d="m -364.6432,333.97229 8.4033,0 0,7.95142 -8.4033,0 z"
           id="path8295"
           inkscape:connector-curvature="0"
           sodipodi:nodetypes="ccccc" />
        <path
           sodipodi:nodetypes="ccccc"
           inkscape:connector-curvature="0"
           id="path8297"
           d="m -369.82437,329.88274 6.74143,-4.70052 0,16.74149 -6.74143,0 z"
           style="color:#000000;fill:#000000;fill-opacity:1;fill-rule:nonzero;stroke:none;stroke-width:1;marker:none;visibility:visible;display:inline;overflow:visible;enable-background:accumulate" />
        <path
           sodipodi:nodetypes="ccccc"
           inkscape:connector-curvature="0"
           id="path8299"
           d="m -381.26288,331.46847 12.28367,0 0,10.26694 -12.28367,0 z"
           style="color:#000000;fill:#000000;fill-opacity:1;fill-rule:nonzero;stroke:none;stroke-width:1;marker:none;visibility:visible;display:inline;overflow:visible;enable-background:accumulate" />
        <path
           style="color:#000000;fill:#000000;fill-opacity:1;fill-rule:nonzero;stroke:none;stroke-width:1;marker:none;visibility:visible;display:inline;overflow:visible;enable-background:accumulate"
           d="m -348.96004,335.70626 -0.45562,3.23363 c -1.75021,-0.649 -1.82513,1.25821 -1.87194,3.02229 l -3.26556,0 c 0.0159,-1.63196 0.18822,-7.80061 5.59312,-6.25592 z"
           id="path8301"
           inkscape:connector-curvature="0"
           sodipodi:nodetypes="ccccc" />
        <path
           style="color:#000000;fill:#000000;fill-opacity:1;fill-rule:nonzero;stroke:none;stroke-width:1;marker:none;visibility:visible;display:inline;overflow:visible;enable-background:accumulate"
           d="m -385.463,341.19873 38.68236,0 0,4.87229 -38.68236,0 z"
           id="path8303"
           inkscape:connector-curvature="0"
           sodipodi:nodetypes="ccccc" />
        <path
           sodipodi:nodetypes="cccccc"
           inkscape:connector-curvature="0"
           id="path8305"
           d="m -287.03965,336.1332 2.16347,-2.92062 2.16347,2.92062 0,9.93784 -4.32694,0 z"
           style="color:#000000;fill:#000000;fill-opacity:1;fill-rule:nonzero;stroke:none;stroke-width:1;marker:none;visibility:visible;display:inline;overflow:visible;enable-background:accumulate" />
      </g>
    </g>
  </g>
</svg>
