<?xml version="1.0" encoding="UTF-8" standalone="no"?>
<!-- Created with Inkscape (http://www.inkscape.org/) -->

<svg
   xmlns:dc="http://purl.org/dc/elements/1.1/"
   xmlns:cc="http://creativecommons.org/ns#"
   xmlns:rdf="http://www.w3.org/1999/02/22-rdf-syntax-ns#"
   xmlns:svg="http://www.w3.org/2000/svg"
   xmlns="http://www.w3.org/2000/svg"
   xmlns:sodipodi="http://sodipodi.sourceforge.net/DTD/sodipodi-0.dtd"
   xmlns:inkscape="http://www.inkscape.org/namespaces/inkscape"
   width="1024"
   height="768"
   viewBox="0 0 1024 768"
   version="1.1"
   id="svg14375"
   inkscape:version="0.92.0 r"
   sodipodi:docname="frontpage.svg">
  <defs
     id="defs14369">
    <filter
       inkscape:collect="always"
       style="color-interpolation-filters:sRGB"
       id="filter17318">
      <feBlend
         inkscape:collect="always"
         mode="multiply"
         in2="BackgroundImage"
         id="feBlend17320" />
    </filter>
  </defs>
  <sodipodi:namedview
     id="base"
     pagecolor="#ffffff"
     bordercolor="#666666"
     borderopacity="1.0"
     inkscape:pageopacity="0.0"
     inkscape:pageshadow="2"
     inkscape:zoom="1"
     inkscape:cx="213.41782"
     inkscape:cy="322.4265"
     inkscape:document-units="px"
     inkscape:current-layer="layer1"
     showgrid="false"
     units="px"
     borderlayer="true"
     inkscape:showpageshadow="false"
     inkscape:snap-bbox="true"
     inkscape:snap-bbox-edge-midpoints="true"
     inkscape:snap-bbox-midpoints="true"
     inkscape:bbox-paths="true"
     inkscape:window-width="3440"
     inkscape:window-height="1376"
     inkscape:window-x="0"
     inkscape:window-y="27"
     inkscape:window-maximized="1">
    <inkscape:grid
       type="xygrid"
       id="grid15010" />
  </sodipodi:namedview>
  <metadata
     id="metadata14372">
    <rdf:RDF>
      <cc:Work
         rdf:about="">
        <dc:format>image/svg+xml</dc:format>
        <dc:type
           rdf:resource="http://purl.org/dc/dcmitype/StillImage" />
        <dc:title></dc:title>
      </cc:Work>
    </rdf:RDF>
  </metadata>
  <g
     inkscape:label="Layer 1"
     inkscape:groupmode="layer"
     id="layer1"
     transform="translate(0,-93.799992)">
    <rect
       y="93.799995"
       x="-1.484375e-05"
       height="768"
       width="1024"
       id="rect6607"
       style="color:#000000;clip-rule:nonzero;display:inline;overflow:visible;visibility:visible;opacity:1;isolation:auto;mix-blend-mode:normal;color-interpolation:sRGB;color-interpolation-filters:linearRGB;solid-color:#000000;solid-opacity:1;fill:#4a86cf;fill-opacity:1;fill-rule:nonzero;stroke:none;stroke-width:1.06666672;stroke-linecap:butt;stroke-linejoin:miter;stroke-miterlimit:4;stroke-dasharray:none;stroke-dashoffset:0;stroke-opacity:1;marker:none;color-rendering:auto;image-rendering:auto;shape-rendering:auto;text-rendering:auto;enable-background:accumulate;font-variant-east_asian:normal;vector-effect:none" />
    <g
       transform="matrix(0.87541631,0,0,-0.87541641,-105.745,1391.7123)"
       id="g8462"
       style="display:inline;opacity:0.722;fill:#ffffff;fill-opacity:1;stroke-width:2.09590006;enable-background:new">
      <path
         style="opacity:0.2;fill:#ffffff;fill-opacity:1;stroke-width:2.09590006"
         id="path8464"
         inkscape:connector-curvature="0"
         sodipodi:nodetypes="cccc"
         enable-background="new    "
         d="m 266.4638,669.58833 -29.99999,30 h 29.99999 z" />
      <path
         style="opacity:0.1;fill:#ffffff;fill-opacity:1;stroke-width:2.09590006"
         id="path8466"
         inkscape:connector-curvature="0"
         sodipodi:nodetypes="cccc"
         enable-background="new    "
         d="m 206.46381,699.59002 -30,29.99831 h 30 z" />
      <path
         style="opacity:0.1;fill:#ffffff;fill-opacity:1;stroke-width:2.09590006"
         id="path8468"
         inkscape:connector-curvature="0"
         sodipodi:nodetypes="cccc"
         enable-background="new    "
         d="m 206.46381,729.58833 29.99856,30.00335 v -30.00335 z" />
      <path
         style="opacity:0.4;fill:#ffffff;fill-opacity:1;stroke-width:2.09590006"
         id="path8470"
         inkscape:connector-curvature="0"
         sodipodi:nodetypes="cccc"
         enable-background="new    "
         d="m 206.46381,729.58733 30,-29.999 h -30 z" />
      <path
         style="opacity:0.7;fill:#ffffff;fill-opacity:1;stroke-width:2.09590006"
         id="path8472"
         inkscape:connector-curvature="0"
         sodipodi:nodetypes="cccc"
         enable-background="new    "
         d="m 176.46381,699.5927 -29.99266,-30.00437 h 29.99266 z" />
      <path
         style="opacity:0.7;fill:#ffffff;fill-opacity:1;stroke-width:2.09590006"
         id="path8474"
         inkscape:connector-curvature="0"
         sodipodi:nodetypes="cccc"
         enable-background="new    "
         d="m 206.46381,639.58833 -30,29.99656 v -29.99656 z" />
    </g>
    <g
       id="g15111"
       transform="matrix(0.5809699,0,0,0.5809699,391.69248,334.63429)"
       style="stroke-width:1.72125959">
      <g
         transform="matrix(6.5614724,0,0,6.5614735,7781.5067,2765.5352)"
         id="g6611"
         style="stroke-width:1.72125959;filter:url(#filter17318)">
        <g
           id="g6613"
           style="stroke-width:1.72125959">
          <g
             id="g6615"
             style="stroke-width:1.72125959">
            <path
               id="path6617"
               d="m -1058.546,-305.293 c -2.297,0 -2.728,3.272 -1.436,3.272 1.292,0 3.733,-3.272 1.436,-3.272 z"
               inkscape:connector-curvature="0"
               style="fill:#ffffff;stroke-width:1.72125959" />
          </g>
          <g
             id="g6619"
             style="stroke-width:1.72125959">
            <path
               id="path6621"
               d="m -1062.361,-302.427 c 0.688,0.042 1.443,-2.626 0.151,-2.457 -1.294,0.166 -0.839,2.415 -0.151,2.457 z"
               inkscape:connector-curvature="0"
               style="fill:#ffffff;stroke-width:1.72125959" />
          </g>
          <g
             id="g6623"
             style="stroke-width:1.72125959">
            <path
               id="path6625"
               d="m -1065.515,-300.769 c 0.49,-0.216 0.064,-2.322 -0.769,-1.748 -0.831,0.575 0.28,1.963 0.769,1.748 z"
               inkscape:connector-curvature="0"
               style="fill:#ffffff;stroke-width:1.72125959" />
          </g>
          <g
             id="g6627"
             style="stroke-width:1.72125959">
            <path
               id="path6629"
               d="m -1064.135,-301.872 c 0.582,-0.119 0.615,-2.508 -0.424,-2.081 -1.04,0.43 -0.159,2.2 0.424,2.081 z"
               inkscape:connector-curvature="0"
               style="fill:#ffffff;stroke-width:1.72125959" />
          </g>
          <g
             id="g6631"
             style="stroke-width:1.72125959">
            <path
               id="path6633"
               d="m -1061.093,-296.525 c 0.103,0.79 -0.579,1.18 -1.248,0.671 -2.128,-1.62 3.522,-2.428 3.15,-4.641 -0.309,-1.837 -5.946,-1.271 -6.588,1.603 -0.434,1.944 1.789,4.642 4.108,4.642 1.142,0 2.458,-1.031 2.704,-2.335 0.188,-0.997 -2.213,-0.598 -2.126,0.06 z"
               inkscape:connector-curvature="0"
               style="fill:#ffffff;stroke-width:1.72125959" />
          </g>
        </g>
      </g>
      <g
         id="g6635"
         transform="matrix(2.6906873,0,0,2.6906878,-2066.2798,-230.4137)"
         style="stroke-width:1.72125959;filter:url(#filter17318)">
        <g
           id="g6637"
           style="stroke-width:1.72125959">
          <path
             id="path6639"
             d="m 1107.21,376.961 c -1.408,0.037 -2.523,0.543 -3.344,1.514 -0.849,1.013 -1.274,2.412 -1.274,4.195 0,1.779 0.426,3.173 1.274,4.183 0.852,1.016 2.024,1.518 3.516,1.518 1.497,0 2.672,-0.502 3.519,-1.518 0.851,-1.01 1.273,-2.404 1.273,-4.183 0,-1.783 -0.423,-3.182 -1.273,-4.195 -0.847,-1.011 -2.021,-1.514 -3.519,-1.514 -0.057,0 -0.114,-0.003 -0.172,0 z m 0.106,2.053 c 0.023,0 0.043,0 0.066,0 0.738,0 1.308,0.319 1.711,0.958 0.402,0.638 0.607,1.54 0.607,2.698 0,1.155 -0.205,2.05 -0.607,2.687 -0.403,0.639 -0.973,0.962 -1.711,0.962 -0.732,0 -1.298,-0.323 -1.7,-0.962 -0.403,-0.637 -0.607,-1.532 -0.607,-2.687 0,-1.158 0.204,-2.061 0.607,-2.698 0.393,-0.62 0.935,-0.94 1.634,-0.958 z"
             inkscape:connector-curvature="0"
             style="fill:#ffffff;stroke-width:1.72125959" />
        </g>
        <g
           id="g6641"
           style="stroke-width:1.72125959">
          <path
             id="path6643"
             d="m 1091.275,387.341 c -1.242,1.043 -3.092,1.03 -3.861,1.03 -1.551,0 -2.78,-0.511 -3.688,-1.533 -0.906,-1.025 -1.359,-2.416 -1.359,-4.169 0,-1.774 0.463,-3.169 1.386,-4.185 0.924,-1.017 2.186,-1.523 3.792,-1.523 0.621,0 1.211,0.067 1.777,0.206 0.571,0.135 1.107,0.338 1.61,0.609 l -0.646,1.911 c -0.283,-0.154 -0.605,-0.308 -0.907,-0.414 -0.512,-0.174 -1.025,-0.26 -1.54,-0.26 -0.958,0 -1.695,0.317 -2.217,0.953 -0.515,0.626 -0.772,1.528 -0.772,2.703 0,1.163 0.25,2.063 0.748,2.696 0.498,0.634 1.249,0.951 2.127,0.951 0.893,0 1.445,-0.226 1.739,-0.463 v -1.902 h -1.932 v -1.901 h 3.742"
             inkscape:connector-curvature="0"
             style="fill:#ffffff;stroke-width:1.72125959" />
        </g>
        <g
           id="g6645"
           style="stroke-width:1.72125959">
          <path
             id="path6647"
             d="m 1092.916,377.157 h 1.518 l 4.788,6.611 v -6.611 h 2.042 v 11.001 h -1.515 l -4.787,-6.61 v 6.61 h -2.046 v -11.001"
             inkscape:connector-curvature="0"
             style="fill:#ffffff;stroke-width:1.72125959" />
        </g>
        <g
           id="g6649"
           style="stroke-width:1.72125959">
          <path
             id="path6652"
             d="m 1113.75,377.157 h 3.059 l 2.119,6.867 2.135,-6.867 h 2.583 l 1.168,11.001 h -2.272 l -0.697,-6.879 -2.148,6.911 h -1.522 l -2.145,-7.146 -0.7,7.114 h -2.277 l 1.167,-11.001"
             inkscape:connector-curvature="0"
             style="fill:#ffffff;stroke-width:1.72125959" />
        </g>
        <g
           id="g6654"
           style="stroke-width:1.72125959">
          <path
             id="path6656"
             d="m 1126.452,377.157 h 6.481 v 2.146 h -4.079 v 2.28 h 3.135 v 1.91 h -3.135 v 2.521 h 4.218 v 2.145 h -6.62 v -11.002"
             inkscape:connector-curvature="0"
             style="fill:#ffffff;stroke-width:1.72125959" />
        </g>
      </g>
      <path
         d="m 987.16,777.72799 v 0.53505 h 1.69311 v 4.53695 h 0.60834 v -4.53695 h 1.70044 v -0.53505 z"
         id="path15056"
         inkscape:connector-curvature="0"
         style="color:#000000;font-style:normal;font-variant:normal;font-weight:normal;font-stretch:normal;font-size:medium;line-height:25px;font-family:Cantarell;-inkscape-font-specification:Cantarell;text-indent:0;text-align:start;text-decoration:none;text-decoration-line:none;letter-spacing:0px;word-spacing:0px;text-transform:none;writing-mode:lr-tb;direction:ltr;baseline-shift:baseline;text-anchor:start;visibility:visible;fill:#ffffff;fill-opacity:1;fill-rule:nonzero;stroke:none;stroke-width:3.75744915;stroke-linecap:butt;stroke-linejoin:miter;stroke-opacity:1;marker:none;marker-start:none;marker-mid:none;marker-end:none" />
      <path
         d="m 991.86117,777.72799 v 5.072 h 0.60835 v -4.33906 l 1.56118,2.88049 h 0.60834 l 1.56118,-2.88049 v 4.33906 h 0.60835 v -5.072 h -0.83556 l -1.62715,2.96844 -1.64913,-2.96844 z"
         id="path15058"
         inkscape:connector-curvature="0"
         style="color:#000000;font-style:normal;font-variant:normal;font-weight:normal;font-stretch:normal;font-size:medium;line-height:25px;font-family:Cantarell;-inkscape-font-specification:Cantarell;text-indent:0;text-align:start;text-decoration:none;text-decoration-line:none;letter-spacing:0px;word-spacing:0px;text-transform:none;writing-mode:lr-tb;direction:ltr;baseline-shift:baseline;text-anchor:start;visibility:visible;fill:#ffffff;fill-opacity:1;fill-rule:nonzero;stroke:none;stroke-width:3.75744915;stroke-linecap:butt;stroke-linejoin:miter;stroke-opacity:1;marker:none;marker-start:none;marker-mid:none;marker-end:none" />
    </g>
  </g>
</svg>
