<?xml version="1.0" encoding="UTF-8" standalone="no"?>
<!-- Created with Inkscape (http://www.inkscape.org/) -->

<svg
   xmlns:dc="http://purl.org/dc/elements/1.1/"
   xmlns:cc="http://creativecommons.org/ns#"
   xmlns:rdf="http://www.w3.org/1999/02/22-rdf-syntax-ns#"
   xmlns:svg="http://www.w3.org/2000/svg"
   xmlns="http://www.w3.org/2000/svg"
   xmlns:sodipodi="http://sodipodi.sourceforge.net/DTD/sodipodi-0.dtd"
   xmlns:inkscape="http://www.inkscape.org/namespaces/inkscape"
   width="64"
   height="64"
   viewBox="0 0 64 64.000003"
   version="1.1"
   id="svg8"
   inkscape:version="0.92.0 r"
   sodipodi:docname="gnome.svg">
  <defs
     id="defs2" />
  <sodipodi:namedview
     id="base"
     pagecolor="#ffffff"
     bordercolor="#666666"
     borderopacity="1.0"
     inkscape:pageopacity="0.0"
     inkscape:pageshadow="2"
     inkscape:zoom="1"
     inkscape:cx="-5.0330042"
     inkscape:cy="58.998649"
     inkscape:document-units="px"
     inkscape:current-layer="layer1"
     showgrid="false"
     units="px"
     borderlayer="true"
     inkscape:showpageshadow="false"
     inkscape:window-width="3440"
     inkscape:window-height="1376"
     inkscape:window-x="0"
     inkscape:window-y="27"
     inkscape:window-maximized="1"
     inkscape:snap-bbox="true"
     inkscape:bbox-paths="true"
     inkscape:bbox-nodes="true"
     inkscape:snap-nodes="false">
    <inkscape:grid
       type="xygrid"
       id="grid8416" />
  </sodipodi:namedview>
  <metadata
     id="metadata5">
    <rdf:RDF>
      <cc:Work
         rdf:about="">
        <dc:format>image/svg+xml</dc:format>
        <dc:type
           rdf:resource="http://purl.org/dc/dcmitype/StillImage" />
        <dc:title></dc:title>
      </cc:Work>
    </rdf:RDF>
  </metadata>
  <g
     inkscape:label="Layer 1"
     inkscape:groupmode="layer"
     id="layer1"
     transform="translate(0,-1058.5197)">
    <path
       style="fill:#4a86cf;fill-opacity:1;stroke-width:0.99999994;font-variant-east_asian:normal;opacity:1;vector-effect:none;stroke-linecap:butt;stroke-linejoin:miter;stroke-miterlimit:4;stroke-dasharray:none;stroke-dashoffset:0;stroke-opacity:1"
       inkscape:connector-curvature="0"
       id="path19157"
       d="m 63.999998,1090.5204 c 0,17.6717 -14.324066,31.9993 -32.001289,31.9993 C 14.324067,1122.5197 0,1108.1908 0,1090.5204 c 0,-17.6705 14.324067,-32.0007 31.998709,-32.0007 17.678512,0 32.001289,14.3302 32.001289,32.0007 z" />
    <g
       id="layer1-8"
       inkscape:label="Layer 1"
       transform="matrix(0.18139808,0,0,0.18139808,8.21981,1067.8731)"
       style="fill:#ffffff;stroke-width:5.51273775">
      <g
         transform="matrix(1.9597288,0,0,1.9597288,324.04608,245.45404)"
         id="g6230"
         style="fill:#ffffff;stroke-width:5.51273775">
        <path
           style="fill:#ffffff;fill-opacity:1;fill-rule:nonzero;stroke:none;stroke-width:13.58200741;stroke-miterlimit:4;stroke-dasharray:none;stroke-opacity:1"
           id="path9"
           d="m -63.883826,-115.2699 c -22.295562,0 -26.477906,31.755906 -13.935406,31.755906 12.540687,0 36.231872,-31.755906 13.935406,-31.755906 z"
           inkscape:connector-curvature="0" />
        <path
           style="fill:#ffffff;fill-opacity:1;fill-rule:nonzero;stroke:none;stroke-width:13.58200741;stroke-miterlimit:4;stroke-dasharray:none;stroke-opacity:1"
           id="path11"
           d="m -100.90505,-87.448931 c 6.678161,0.407812 14.005193,-25.485559 1.45363,-23.857029 -12.54703,1.62853 -8.1345,23.449216 -1.45363,23.857029 z"
           inkscape:connector-curvature="0" />
        <path
           style="fill:#ffffff;fill-opacity:1;fill-rule:nonzero;stroke:none;stroke-width:13.58200741;stroke-miterlimit:4;stroke-dasharray:none;stroke-opacity:1"
           id="path13"
           d="m -131.51092,-71.359369 c 4.74966,-2.090718 0.61172,-22.54025 -7.46478,-16.963187 -8.07288,5.577969 2.71512,19.053 7.46478,16.963187 z"
           inkscape:connector-curvature="0" />
        <path
           style="fill:#ffffff;fill-opacity:1;fill-rule:nonzero;stroke:none;stroke-width:13.58200741;stroke-miterlimit:4;stroke-dasharray:none;stroke-opacity:1"
           id="path15"
           d="m -118.12833,-82.063087 c 5.6541,-1.152751 5.96404,-24.345503 -4.1189,-20.184903 -10.08475,4.161496 -1.53066,21.339465 4.1189,20.184903 z"
           inkscape:connector-curvature="0" />
        <path
           style="fill:#ffffff;fill-opacity:1;fill-rule:nonzero;stroke:none;stroke-width:13.58200741;stroke-miterlimit:4;stroke-dasharray:none;stroke-opacity:1"
           d="m -88.603607,-30.161244 c 1.003219,7.661438 -5.620563,11.445031 -12.107503,6.505969 -20.65072,-15.722531 34.191909,-23.565219 30.576878,-45.046062 -3.000594,-17.829563 -57.706378,-12.340407 -63.935938,15.556687 -4.21678,18.869937 17.35741,45.04788 39.868657,45.04788 11.074375,0 23.847968,-9.999568 26.23775,-22.66713 1.825187,-9.659719 -21.477219,-5.789125 -20.639844,0.602656 z"
           id="newshape"
           inkscape:connector-curvature="0" />
      </g>
    </g>
    <path
       style="fill:#4a86cf;fill-opacity:1;stroke-width:0.99999994"
       inkscape:connector-curvature="0"
       id="path9066"
       d="m -1061,844.5203 c 0,16.5672 -13.4288,29.9994 -30.0012,29.9994 -16.57,0 -29.9988,-13.4334 -29.9988,-29.9994 0,-16.5661 13.4288,-30.0006 29.9988,-30.0006 16.5736,0 30.0012,13.4345 30.0012,30.0006 z" />
    <path
       d="m -1061,1124.5203 c 0,16.5672 -13.4288,29.9994 -30.0012,29.9994 -16.57,0 -29.9988,-13.4334 -29.9988,-29.9994 0,-16.5661 13.4288,-30.0006 29.9988,-30.0006 16.5736,0 30.0012,13.4345 30.0012,30.0006 z"
       id="path19143"
       inkscape:connector-curvature="0"
       style="fill:#f57900;fill-opacity:1;stroke-width:0.99999994" />
    <path
       style="fill:#01808e;fill-opacity:1;stroke-width:0.99999994"
       inkscape:connector-curvature="0"
       id="path19157-6"
       d="m -721,1124.5203 c 0,16.5672 -13.42881,29.9994 -30.00121,29.9994 -16.56997,0 -29.99879,-13.4334 -29.99879,-29.9994 0,-16.5661 13.42882,-30.0006 29.99879,-30.0006 16.57361,0 30.00121,13.4345 30.00121,30.0006 z" />
    <path
       d="m -721,1244.5203 c 0,16.5672 -13.42881,29.9994 -30.00121,29.9994 -16.56997,0 -29.99879,-13.4334 -29.99879,-29.9994 0,-16.5661 13.42882,-30.0006 29.99879,-30.0006 16.57361,0 30.00121,13.4345 30.00121,30.0006 z"
       id="path19171"
       inkscape:connector-curvature="0"
       style="fill:#692c52;fill-opacity:1;stroke-width:0.99999994" />
    <path
       style="fill:#4e9a06;fill-opacity:1;stroke-width:0.99999994"
       inkscape:connector-curvature="0"
       id="path19185"
       d="m -1061,1244.5203 c 0,16.5672 -13.4288,29.9994 -30.0012,29.9994 -16.57,0 -29.9988,-13.4334 -29.9988,-29.9994 0,-16.5661 13.4288,-30.0006 29.9988,-30.0006 16.5736,0 30.0012,13.4345 30.0012,30.0006 z" />
  </g>
</svg>
