<svg id="Layer_1" data-name="Layer 1" xmlns="http://www.w3.org/2000/svg" viewBox="0 0 1116 720"><title>20thbday-logo</title><polygon points="285.41 414.43 219.3 414.43 219.3 480.53 285.41 414.43" style="fill:#4a86cf"/><polygon points="87.05 216.56 153.15 216.56 153.15 150.46 87.05 216.56" style="fill:#4a86cf"/><polygon points="875.7 462.17 875.7 528.28 941.8 528.28 875.7 462.17" style="fill:#4a86cf"/><polygon points="941.85 330.42 941.85 396.52 1007.95 396.52 941.85 330.42" style="fill:#4a86cf"/><polygon points="1007.5 528.28 941.39 528.28 941.39 594.38 1007.5 528.28" style="fill:#4a86cf"/><polygon points="219.26 414.88 219.26 348.78 153.15 348.78 219.26 414.88" style="fill:#4a86cf"/><polygon points="219.26 216.56 219.26 282.67 285.37 282.67 219.26 216.56" style="fill:#4a86cf"/><text transform="translate(305.48 611.4)" style="font-size:68.86155700683594px;fill:#4a86cf;font-family:SourceSansPro-Light, Source Sans Pro;letter-spacing:0.13099482795029638em">YEARS <tspan x="242.25" y="0" style="font-family:SourceSansPro-SemiBold, Source Sans Pro;font-weight:700">STRONG</tspan></text><path d="M306.64,527.76V476.33c24.89-23.27,47.12-45,67.74-65.2S412.74,372,427.64,354.2s26.52-34.28,34.89-49.59,12.55-29.9,12.55-43.77q0-28.77-14.69-43.77t-40.4-15q-21.44,0-38,11.93a209.46,209.46,0,0,0-31.22,27.86l-49-48.36q28.77-30.61,58.77-46.22t71.63-15.61q28.77,0,52.34,8.88a120.22,120.22,0,0,1,40.71,25.1,109.54,109.54,0,0,1,26.32,38.87q9.18,22.65,9.18,50.81,0,24.49-10.41,49.89A272.52,272.52,0,0,1,522.53,356a539.49,539.49,0,0,1-39.79,50.81c-13.42,15.25-41.48,45-41.48,45H579.77v75.91Z" style="fill:#4a86cf"/><path d="M718.33,528.28q-30.69,0-56-12.94t-43-38.22q-17.76-25.28-27.68-62.59t-9.93-86.06q0-48.75,9.93-85.46t27.68-61.69q17.75-25,43-37.31t56-12.34q30.69,0,56,12.34t43,37.31Q835.08,206.3,845,243t9.93,85.46q0,48.75-9.93,86.06t-27.68,62.59q-17.76,25.28-43,38.22T718.33,528.28Zm0-68.61a40.46,40.46,0,0,0,21.06-5.72q9.62-5.71,16.85-20.76t11.13-40.32q3.91-25.28,3.91-64.4t-3.91-64.1q-3.92-25-11.13-39.12T739.4,205.69a42.26,42.26,0,0,0-21.06-5.42,41.08,41.08,0,0,0-20.46,5.42q-9.63,5.42-16.85,19.56t-11.44,39.12q-4.22,25-4.21,64.1t4.21,64.4q4.2,25.28,11.44,40.32t16.85,20.76A39.35,39.35,0,0,0,718.33,459.67Z" style="fill:#4a86cf"/></svg>