<svg id="Layer_1" data-name="Layer 1" xmlns="http://www.w3.org/2000/svg" viewBox="0 0 1170 1050"><title>20thbday-logo</title><polygon points="293.05 521 221.05 521 221.05 593 293.05 521" style="fill:#4a86cf"/><polygon points="77 305.5 149 305.5 149 233.5 77 305.5" style="fill:#4a86cf"/><polygon points="935.95 573 935.95 645 1007.95 645 935.95 573" style="fill:#4a86cf"/><polygon points="1008 429.5 1008 501.5 1080 501.5 1008 429.5" style="fill:#4a86cf"/><polygon points="1079.5 645 1007.5 645 1007.5 717 1079.5 645" style="fill:#4a86cf"/><polygon points="221 521.5 221 449.5 149 449.5 221 521.5" style="fill:#4a86cf"/><polygon points="221 305.5 221 377.5 293 377.5 221 305.5" style="fill:#4a86cf"/><text transform="translate(314.91 735.53)" style="font-size:75px;fill:#4a86cf;font-family:SourceSansPro-Light, Source Sans Pro;letter-spacing:0.13100260416666668em">YEARS <tspan x="263.85" y="0" style="font-family:SourceSansPro-SemiBold, Source Sans Pro;font-weight:700">STRONG</tspan></text><path d="M316.17,644.43v-56c27.11-25.34,51.32-49,73.77-71s41.78-42.67,58-62,28.89-37.34,38-54,13.67-32.56,13.67-47.67q0-31.33-16-47.67t-44-16.33q-23.35,0-41.34,13a228.13,228.13,0,0,0-34,30.34l-53.34-52.68q31.33-33.34,64-50.34t78-17q31.33,0,57,9.67A130.94,130.94,0,0,1,554.31,250,119.31,119.31,0,0,1,583,292.38q10,24.67,10,55.34,0,26.68-11.33,54.34a296.82,296.82,0,0,1-30.34,55.34A587.58,587.58,0,0,1,508,512.75c-14.62,16.61-45.18,49-45.18,49H613.65v82.68Z" style="fill:#4a86cf"/><path d="M764.56,645q-33.43,0-61-14.09t-46.87-41.62q-19.34-27.53-30.15-68.17t-10.82-93.73q0-53.1,10.82-93.08t30.15-67.19q19.33-27.19,46.87-40.64t61-13.44q33.43,0,61,13.44t46.87,40.64q19.33,27.21,30.15,67.19t10.82,93.08q0,53.09-10.82,93.73t-30.15,68.17Q853,616.81,825.52,630.91T764.56,645Zm0-74.72A44.07,44.07,0,0,0,787.5,564q10.48-6.22,18.35-22.62T818,497.52q4.26-27.54,4.26-70.14T818,357.57q-4.27-27.19-12.13-42.61t-18.35-21.3a46,46,0,0,0-22.94-5.9,44.74,44.74,0,0,0-22.29,5.9q-10.49,5.9-18.35,21.3t-12.46,42.61q-4.59,27.21-4.59,69.81t4.59,70.14Q716,525,723.92,541.43T742.28,564A42.85,42.85,0,0,0,764.56,570.28Z" style="fill:#4a86cf"/><g id="_8jqcmI.tif" data-name="8jqcmI.tif"><path d="M650.48,810.5c.6.07,1.21.12,1.81.21a9.55,9.55,0,0,1,4.7,1.81,6,6,0,0,1,2.28,4.26,13.47,13.47,0,0,1-1.05,6.33,34.61,34.61,0,0,1-5.27,9,43.5,43.5,0,0,1-10.07,9.54,20.12,20.12,0,0,1-6.13,2.9,8,8,0,0,1-4.69,0,7,7,0,0,1-4.09-4,15.23,15.23,0,0,1-1.19-7.23,25.44,25.44,0,0,1,4.05-12.55,21.22,21.22,0,0,1,17.06-10.2,3.66,3.66,0,0,0,.36-.06Z" style="fill:#4a86cf"/><path d="M620.48,849.79a42,42,0,0,1,11.13,1.43,19.88,19.88,0,0,1,7.24,3.52,9.92,9.92,0,0,1,3.78,6.2,13.19,13.19,0,0,1-1.52,8.62,25.46,25.46,0,0,1-5.66,6.84A77.06,77.06,0,0,1,625,884c-3.5,2.21-7,4.39-10.52,6.62a37.2,37.2,0,0,0-7,5.45,16.15,16.15,0,0,0-2,2.57,6.09,6.09,0,0,0,.15,7.17,15.48,15.48,0,0,0,7,5.7,7.46,7.46,0,0,0,5.32.25,6.6,6.6,0,0,0,4.28-4.62,9.66,9.66,0,0,0,.31-4.22,3.47,3.47,0,0,1,1-2.94,9.82,9.82,0,0,1,3.45-2.32,23.72,23.72,0,0,1,9.86-2,12.59,12.59,0,0,1,5.2,1,4.74,4.74,0,0,1,2.68,2.66,5.26,5.26,0,0,1,.09,3,29.41,29.41,0,0,1-7.54,14.16,32.78,32.78,0,0,1-11.59,8.11,24.4,24.4,0,0,1-11.12,1.88,37.68,37.68,0,0,1-14.1-3.86A51.69,51.69,0,0,1,583,908.37a48.21,48.21,0,0,1-8.08-14.16,33,33,0,0,1-2.05-10.9,25.15,25.15,0,0,1,4.61-14.72,34.63,34.63,0,0,1,9.15-8.92,54.14,54.14,0,0,1,14.58-6.92,65.63,65.63,0,0,1,10.26-2.33A59,59,0,0,1,620.48,849.79Z" style="fill:#4a86cf"/><path d="M602.26,827.29a15.93,15.93,0,0,1,1.35-7.19,9,9,0,0,1,8.62-5.38,5.43,5.43,0,0,1,5.39,4,13.65,13.65,0,0,1,.65,5.37,27.9,27.9,0,0,1-3.15,11.4,13.73,13.73,0,0,1-2.68,3.71,4.54,4.54,0,0,1-2.6,1.4,3.92,3.92,0,0,1-3.1-1.16,11.31,11.31,0,0,1-2.84-4.27A21.89,21.89,0,0,1,602.26,827.29Z" style="fill:#4a86cf"/><path d="M594.94,835.7a21.2,21.2,0,0,1-1.26,7.41,7.68,7.68,0,0,1-1.31,2.27,3,3,0,0,1-3.44.93,7.1,7.1,0,0,1-2.86-1.92,17.86,17.86,0,0,1-4.35-7.9,13.33,13.33,0,0,1-.35-6,7.86,7.86,0,0,1,6.64-6.41,4.58,4.58,0,0,1,4.52,2,11.81,11.81,0,0,1,2,4.77A23.9,23.9,0,0,1,594.94,835.7Z" style="fill:#4a86cf"/><path d="M578.38,852.38a10.73,10.73,0,0,1-.67,3.91,2.71,2.71,0,0,1-3.07,1.94,6.16,6.16,0,0,1-1.77-.52,10.91,10.91,0,0,1-3.43-2.53,15.81,15.81,0,0,1-4.2-7.36,7.72,7.72,0,0,1,.49-5.5,7.09,7.09,0,0,1,3.6-3.32,4.18,4.18,0,0,1,4.79,1,10.93,10.93,0,0,1,2.5,3.77A22.61,22.61,0,0,1,578.38,852.38Z" style="fill:#4a86cf"/></g></svg>