<?xml version="1.0" encoding="UTF-8" standalone="no"?>
<!-- Created with Inkscape (http://www.inkscape.org/) -->

<svg
   xmlns:dc="http://purl.org/dc/elements/1.1/"
   xmlns:cc="http://creativecommons.org/ns#"
   xmlns:rdf="http://www.w3.org/1999/02/22-rdf-syntax-ns#"
   xmlns:svg="http://www.w3.org/2000/svg"
   xmlns="http://www.w3.org/2000/svg"
   xmlns:sodipodi="http://sodipodi.sourceforge.net/DTD/sodipodi-0.dtd"
   xmlns:inkscape="http://www.inkscape.org/namespaces/inkscape"
   width="940"
   height="250"
   id="svg3228"
   version="1.1"
   inkscape:version="0.48.0 r9654"
   inkscape:export-filename="/home/andreas/Desktop/equation.png"
   inkscape:export-xdpi="90"
   inkscape:export-ydpi="90"
   sodipodi:docname="New document 2">
  <defs
     id="defs3230" />
  <sodipodi:namedview
     id="base"
     pagecolor="#ffffff"
     bordercolor="#666666"
     borderopacity="1.0"
     inkscape:pageopacity="0.0"
     inkscape:pageshadow="2"
     inkscape:zoom="0.7"
     inkscape:cx="261.46671"
     inkscape:cy="-11.176252"
     inkscape:document-units="px"
     inkscape:current-layer="layer1"
     showgrid="false"
     inkscape:window-width="1366"
     inkscape:window-height="707"
     inkscape:window-x="0"
     inkscape:window-y="26"
     inkscape:window-maximized="1" />
  <metadata
     id="metadata3233">
    <rdf:RDF>
      <cc:Work
         rdf:about="">
        <dc:format>image/svg+xml</dc:format>
        <dc:type
           rdf:resource="http://purl.org/dc/dcmitype/StillImage" />
        <dc:title></dc:title>
      </cc:Work>
    </rdf:RDF>
  </metadata>
  <g
     inkscape:label="Layer 1"
     inkscape:groupmode="layer"
     id="layer1"
     transform="translate(0,-802.36218)">
    <g
       transform="matrix(2.495932,0,0,2.495932,29.235341,946.00149)"
       id="g7009"
       style="fill:#4e9a06">
      <g
         id="g5209"
         transform="translate(-1.2588079,0)"
         style="fill:#4e9a06">
        <path
           inkscape:connector-curvature="0"
           sodipodi:nodetypes="cscssssssccsccccsssssssssscccc"
           id="path2411"
           d="m 48.695824,0.967958 c -0.244305,0.037255 -0.436996,0.227303 -0.477624,0.471069 -0.04063,0.243768 0.08001,0.486036 0.299027,0.600512 0,0 4.356802,2.464513 11.00157,3.321903 3.255342,0.420043 6.599338,0.972646 9.358478,1.643091 1.374194,0.333915 2.606492,0.720454 3.571938,1.107301 0.965446,0.386847 1.673788,0.816522 1.928847,1.071582 0.3809,0.380901 0.534428,0.62851 0.57151,0.785826 0.05032,0.213475 0.05507,0.158105 -0.07144,0.357194 -0.20614,0.324418 -1.271093,1.159025 -3.143306,1.75025 -1.704531,0.823559 -3.403052,1.047724 -5.286468,1.178739 -0.175662,0.01306 -0.335489,0.106383 -0.433198,0.252946 -0.09771,0.146563 -0.122381,0.32999 -0.06687,0.497161 l 0.392914,1.17874 c 0.08543,0.273696 0.782368,0.905889 1.064899,0.857058 0.961545,-0.143252 2.218107,-0.587596 2.47132,-0.71418 0.386801,-0.03468 0.533504,-0.166596 2.607514,-0.821546 2.132156,-0.673312 3.702538,-1.473864 4.536362,-2.786112 0.42973,-0.6763 0.618672,-1.479816 0.428633,-2.286041 C 77.267822,8.660887 76.806127,7.968106 76.199748,7.361727 74.798996,5.960976 72.41807,5.244044 69.520224,4.539896 66.612644,3.83338 63.154901,3.25306 59.840271,2.825366 56.568638,2.40322 54.936997,1.926093 54.196609,1.610907 53.855877,1.465855 53.739713,1.399841 53.696537,1.360871 c -0.0119,-3.73e-4 -0.02382,-3.73e-4 -0.03572,0 -0.01871,-0.040367 -0.01368,-0.049566 0,-0.03572 C 53.57776,1.118982 53.382711,0.97966 53.160746,0.967958 l -4.357764,0 c -0.03564,-0.003356 -0.07152,-0.003356 -0.107158,0 l 0,0 z"
           style="fill:#4e9a06;fill-opacity:1;fill-rule:evenodd;stroke:none" />
        <path
           inkscape:connector-curvature="0"
           id="path2397"
           d="m 64.769546,-41.109475 -45.363617,0.07144 c -0.700785,8.78e-4 -2.050209,0.524531 -2.571795,1.393056 -0.521586,0.868525 -0.499572,1.480169 -0.535791,2.143163 l -2.000285,36.862402 c -0.06615,1.210984 0.218563,2.475209 1.071581,3.5005 0.853019,1.025291 2.212685,1.571653 3.536219,1.571653 l 46.399479,0 c 1.323568,0 2.690037,-0.500955 3.571938,-1.500214 0.881901,-0.999259 1.212788,-2.314607 1.14302,-3.571939 l -2.071724,-37.326754 c -0.08843,-1.593781 -1.482928,-3.145431 -3.179025,-3.143306 z m -1.321617,4.572081 2.000285,36.148015 c 0.01844,0.332298 -0.04749,0.33957 0,0.285755 0.04749,-0.053814 0.142402,-0.035719 -0.142877,-0.035719 l -46.399479,0 c -0.285316,0 -0.102164,0.027294 -0.03572,0.107158 0.06644,0.079864 -0.02069,0.021525 0,-0.357194 l 1.964566,-36.076576 42.613224,-0.07144 z"
           style="fill:#4e9a06;fill-opacity:1;fill-rule:evenodd;stroke:none;stroke-width:4;marker:none;visibility:visible;display:inline;overflow:visible" />
        <path
           inkscape:connector-curvature="0"
           style="fill:#4e9a06;fill-opacity:1;fill-rule:evenodd;stroke:none;stroke-width:3;marker:none;visibility:visible;display:inline;overflow:visible"
           d="m 20.191756,7.040253 c -0.921207,0 -1.69635,-5.02e-4 -2.464638,0.714387 -0.384143,0.357446 -0.541176,0.833028 -0.607229,1.071582 -0.06605,0.238554 -0.0872,0.296873 -0.07144,0.250036 l -3.964851,11.787396 c -0.08312,0.247046 -0.208838,0.601019 -0.142877,1.107301 0.06596,0.506281 0.43986,1.115995 0.857265,1.428775 0.83481,0.625558 1.507711,0.57151 2.428917,0.57151 l 51.293034,0 c 0.921207,0 1.594108,0.05405 2.428918,-0.57151 0.417406,-0.312781 0.791306,-0.922495 0.857266,-1.428775 0.06596,-0.506281 -0.05975,-0.860256 -0.142878,-1.107301 L 66.698393,9.076258 c 0.01576,0.046837 0.03033,-0.011482 -0.03572,-0.250036 C 66.59662,8.587668 66.403867,8.112086 66.019724,7.75464 65.251439,7.03975 64.476294,7.040254 63.555087,7.040253 l -43.363331,0 z m 0,3.42906 43.363331,0 3.393341,10.072866 -50.150014,0 3.393342,-10.072866 z"
           id="path2409" />
        <path
           inkscape:connector-curvature="0"
           style="fill:#4e9a06;fill-opacity:1;stroke:none"
           d="m 296.05256,-38.224503 c -3.12481,-0.0099 -5.36308,0.50126 -8.2869,1.893127 -1.89008,0.899766 -3.18041,1.876221 -4.96499,3.643377 -1.87384,1.855533 -2.73963,3.064519 -3.78626,5.250749 -1.76518,3.687092 -2.37868,6.697987 -2.17888,10.894412 0.32307,6.7857581 2.56415,11.4134331 8.14402,17.14530414 2.88628,2.96490696 6.7953,6.31818566 17.5025,15.10929786 1.62969,1.338058 3.11542,2.570419 4.2506,3.46478 0.56759,0.447181 1.03278,0.802318 1.39306,1.071582 0.18014,0.134631 0.35449,0.257681 0.50007,0.357194 0.0728,0.04976 0.14226,0.0795 0.25004,0.142877 0.0539,0.03169 0.0992,0.08924 0.21431,0.142878 0.11508,0.05363 0.20242,0.166256 0.82155,0.214316 0.85196,0.06611 0.98388,-0.142135 1.14302,-0.214316 0.15914,-0.07218 0.24955,-0.134084 0.32147,-0.178597 0.14384,-0.08903 0.22221,-0.140107 0.32148,-0.214317 0.19853,-0.148417 0.42432,-0.324134 0.67867,-0.53579 0.50868,-0.423312 1.15694,-1.001365 1.96456,-1.714531 1.61525,-1.426331 3.77646,-3.360696 6.0723,-5.465065 4.59167,-4.2087376 9.73309,-9.0532959 12.3589,-11.6802379 3.8297,-3.831373 6.37815,-6.71155 8.03686,-9.608514 1.65872,-2.8969641 2.3382,-5.8020691 2.50036,-9.1084431 0.12616,-2.572187 -0.002,-3.829826 -0.53579,-5.607943 -1.60049,-5.333044 -5.49136,-9.92603 -10.57294,-12.573222 -7.29665,-3.801101 -15.77069,-3.028975 -22.07458,2.071724 -0.19609,0.158668 -0.35401,0.256335 -0.53579,0.392913 -0.17338,-0.115358 -0.31497,-0.189508 -0.50007,-0.321474 -4.103,-2.925209 -8.58999,-4.558006 -13.03757,-4.572081 z m 0.50007,5.000713 c 3.14224,0.157496 6.46811,1.440912 9.82283,3.893413 0.52403,0.383099 0.99522,0.697683 1.39305,0.964423 0.19892,0.133369 0.36821,0.256168 0.5358,0.357194 0.0838,0.05051 0.16542,0.117451 0.28575,0.178597 0.0602,0.03057 0.12546,0.05879 0.25004,0.107158 0.12457,0.04837 0.22114,0.142878 0.85726,0.142878 0.95181,0 0.96625,-0.178019 1.1073,-0.250036 0.14105,-0.07202 0.20658,-0.127325 0.28576,-0.178597 0.15834,-0.102547 0.28165,-0.210108 0.42863,-0.321474 0.29395,-0.222736 0.65057,-0.482902 1.00014,-0.785827 3.39688,-2.9436 6.24852,-4.026957 10.35862,-4.000571 5.73086,0.03679 11.5417,3.729553 14.14488,9.072723 1.14004,2.33999 1.35784,3.373578 1.21446,6.429489 -0.16047,3.419848 -0.70467,5.408768 -3.5005,9.0370041 -2.79583,3.628237 -7.94979,8.65054404 -16.96671,16.8952682 -2.37586,2.1723977 -4.58336,4.1356007 -6.21517,5.5722237 -0.60795,0.535234 -1.04182,0.888923 -1.4645,1.250178 -0.15245,-0.112734 -0.25272,-0.153105 -0.42863,-0.285755 -1.08403,-0.817452 -2.58754,-2.002111 -4.28632,-3.357622 -3.39756,-2.7110219 -7.55537,-6.1290502 -10.82298,-8.9298449 -7.87419,-6.749276 -10.63738,-10.267886 -12.00171,-14.6449471 -0.54607,-1.751885 -0.78728,-7.792843 -0.39291,-9.465637 0.81248,-3.446304 3.0548,-6.956677 5.5365,-8.822687 2.73247,-2.05457 5.71617,-3.015048 8.85841,-2.857551 z"
           id="path2514" />
        <g
           inkscape:export-ydpi="193.21001"
           inkscape:export-xdpi="193.21001"
           inkscape:export-filename="/tmp/gnome-equation.png"
           style="fill:#4e9a06;fill-opacity:1"
           id="g2541"
           transform="matrix(0.6278462,0,0,0.6278462,143.29762,-45.680996)">
          <g
             style="fill:#4e9a06;fill-opacity:1"
             id="g2543">
            <path
               inkscape:connector-curvature="0"
               style="fill:#4e9a06;fill-opacity:1"
               id="path2545"
               d="M 86.068,0 C 61.466,0 56.851,35.041 70.691,35.041 84.529,35.041 110.671,0 86.068,0 z" />
            <path
               inkscape:connector-curvature="0"
               style="fill:#4e9a06;fill-opacity:1"
               id="path2547"
               d="M 45.217,30.699 C 52.586,31.149 60.671,2.577 46.821,4.374 32.976,6.171 37.845,30.249 45.217,30.699 z" />
            <path
               inkscape:connector-curvature="0"
               style="fill:#4e9a06;fill-opacity:1"
               id="path2549"
               d="M 11.445,48.453 C 16.686,46.146 12.12,23.581 3.208,29.735 -5.7,35.89 6.204,50.759 11.445,48.453 z" />
            <path
               inkscape:connector-curvature="0"
               style="fill:#4e9a06;fill-opacity:1"
               id="path2551"
               d="M 26.212,36.642 C 32.451,35.37 32.793,9.778 21.667,14.369 10.539,18.961 19.978,37.916 26.212,36.642 l 0,0 z" />
            <path
               inkscape:connector-curvature="0"
               style="fill:#4e9a06;fill-opacity:1"
               id="path2553"
               d="m 58.791,93.913 c 1.107,8.454 -6.202,12.629 -13.36,7.179 C 22.644,83.743 83.16,75.088 79.171,51.386 75.86,31.712 15.495,37.769 8.621,68.553 3.968,89.374 27.774,118.26 52.614,118.26 c 12.22,0 26.315,-11.034 28.952,-25.012 C 83.58,82.589 57.867,86.86 58.791,93.913 l 0,0 z" />
          </g>
        </g>
        <path
           inkscape:connector-curvature="0"
           style="font-size:42.88790131px;font-style:normal;font-weight:normal;fill:#4e9a06;fill-opacity:1;stroke:none;font-family:Bitstream Vera Sans"
           d="m 112.90563,-23.923497 0,12.542672 12.4948,0 0,5.6489891 -12.4948,0 0,12.542672 -5.69687,0 0,-12.542672 -12.494797,0 0,-5.6489891 12.494797,0 0,-12.542672 5.69687,0"
           id="text6463" />
        <path
           inkscape:connector-curvature="0"
           style="font-size:61.85639954px;font-style:normal;font-weight:normal;fill:#4e9a06;fill-opacity:1;stroke:none;font-family:Bitstream Vera Sans"
           d="m 215.54578,-18.533565 44.25848,0 0,5.799865 -44.25848,0 0,-5.799865 m 0,14.0853861 44.25848,0 0,5.868912 -44.25848,0 0,-5.868912"
           id="text6467" />
      </g>
    </g>
  </g>
</svg>
