<?xml version="1.0" encoding="UTF-8" standalone="no"?>
<!-- Created with Inkscape (http://www.inkscape.org/) -->

<svg
   xmlns:dc="http://purl.org/dc/elements/1.1/"
   xmlns:cc="http://creativecommons.org/ns#"
   xmlns:rdf="http://www.w3.org/1999/02/22-rdf-syntax-ns#"
   xmlns:svg="http://www.w3.org/2000/svg"
   xmlns="http://www.w3.org/2000/svg"
   xmlns:sodipodi="http://sodipodi.sourceforge.net/DTD/sodipodi-0.dtd"
   xmlns:inkscape="http://www.inkscape.org/namespaces/inkscape"
   width="242.68652"
   height="116.00594"
   id="svg2"
   version="1.1"
   inkscape:version="0.48+devel r12417"
   sodipodi:docname="skyline1.svg">
  <defs
     id="defs4" />
  <sodipodi:namedview
     id="base"
     pagecolor="#ffffff"
     bordercolor="#666666"
     borderopacity="1.0"
     inkscape:pageopacity="0.0"
     inkscape:pageshadow="2"
     inkscape:zoom="0.35"
     inkscape:cx="3.4861143"
     inkscape:cy="52.288687"
     inkscape:document-units="px"
     inkscape:current-layer="layer1"
     showgrid="false"
     inkscape:snap-nodes="false"
     inkscape:snap-bbox="true"
     inkscape:window-width="1920"
     inkscape:window-height="1021"
     inkscape:window-x="0"
     inkscape:window-y="27"
     inkscape:window-maximized="1"
     inkscape:snap-global="false"
     showborder="true"
     inkscape:showpageshadow="false"
     fit-margin-top="0"
     fit-margin-left="0"
     fit-margin-right="0"
     fit-margin-bottom="0">
    <inkscape:grid
       type="xygrid"
       id="grid6061"
       empspacing="5"
       visible="true"
       enabled="true"
       snapvisiblegridlinesonly="true"
       originx="-450.08531px"
       originy="-444.85417px" />
  </sodipodi:namedview>
  <metadata
     id="metadata7">
    <rdf:RDF>
      <cc:Work
         rdf:about="">
        <dc:format>image/svg+xml</dc:format>
        <dc:type
           rdf:resource="http://purl.org/dc/dcmitype/StillImage" />
        <dc:title></dc:title>
      </cc:Work>
    </rdf:RDF>
  </metadata>
  <g
     inkscape:label="Layer 1"
     inkscape:groupmode="layer"
     id="layer1"
     transform="translate(-450.08531,-491.50208)">
    <rect
       style="color:#000000;fill:#6b8e9f;fill-opacity:1;fill-rule:nonzero;stroke:none;stroke-width:0.99999994;marker:none;visibility:visible;display:inline;overflow:visible;enable-background:new"
       id="rect5028-7-4"
       width="31.439718"
       height="52.704792"
       x="508.37631"
       y="491.50208" />
    <rect
       y="491.50208"
       x="464.71002"
       height="52.704792"
       width="31.439718"
       id="rect5030-3-8"
       style="color:#000000;fill:#6b8e9f;fill-opacity:1;fill-rule:nonzero;stroke:none;stroke-width:0.99999994;marker:none;visibility:visible;display:inline;overflow:visible;enable-background:new" />
    <g
       style="fill:#6b8e9f;fill-opacity:1"
       transform="matrix(0.47965424,0,0,0.47965424,153.01283,193.19928)"
       id="g5036-0-9">
      <path
         sodipodi:type="arc"
         style="color:#000000;fill:#6b8e9f;fill-opacity:1;fill-rule:nonzero;stroke:none;stroke-width:0.99999994;marker:none;visibility:visible;display:inline;overflow:visible;enable-background:new"
         id="path5032-8-8"
         sodipodi:cx="883"
         sodipodi:cy="701.36218"
         sodipodi:rx="6"
         sodipodi:ry="6"
         d="m 889,701.36218 c 0,3.31371 -2.68629,6 -6,6 -3.31371,0 -6,-2.68629 -6,-6 0,-3.31371 2.68629,-6 6,-6 C 886.31371,695.36218 889,698.04847 889,701.36218 Z" />
      <rect
         style="color:#000000;fill:#6b8e9f;fill-opacity:1;fill-rule:nonzero;stroke:none;stroke-width:0.99999994;marker:none;visibility:visible;display:inline;overflow:visible;enable-background:new"
         id="rect5034-9-4"
         width="3"
         height="16.625"
         x="881.625"
         y="705.86218" />
    </g>
    <g
       style="fill:#6b8e9f;fill-opacity:1"
       id="g5040-9-2"
       transform="matrix(0.47965424,0,0,0.47965424,162.12976,193.19928)">
      <path
         d="m 889,701.36218 c 0,3.31371 -2.68629,6 -6,6 -3.31371,0 -6,-2.68629 -6,-6 0,-3.31371 2.68629,-6 6,-6 C 886.31371,695.36218 889,698.04847 889,701.36218 Z"
         sodipodi:ry="6"
         sodipodi:rx="6"
         sodipodi:cy="701.36218"
         sodipodi:cx="883"
         id="path5042-5-1"
         style="color:#000000;fill:#6b8e9f;fill-opacity:1;fill-rule:nonzero;stroke:none;stroke-width:0.99999994;marker:none;visibility:visible;display:inline;overflow:visible;enable-background:new"
         sodipodi:type="arc" />
      <rect
         y="705.86218"
         x="881.625"
         height="16.625"
         width="3"
         id="rect5044-7-6"
         style="color:#000000;fill:#6b8e9f;fill-opacity:1;fill-rule:nonzero;stroke:none;stroke-width:0.99999994;marker:none;visibility:visible;display:inline;overflow:visible;enable-background:new" />
    </g>
    <g
       style="fill:#6b8e9f;fill-opacity:1"
       transform="matrix(0.47965424,0,0,0.47965424,171.24669,193.19928)"
       id="g5046-3-2">
      <path
         sodipodi:type="arc"
         style="color:#000000;fill:#6b8e9f;fill-opacity:1;fill-rule:nonzero;stroke:none;stroke-width:0.99999994;marker:none;visibility:visible;display:inline;overflow:visible;enable-background:new"
         id="path5048-7-5"
         sodipodi:cx="883"
         sodipodi:cy="701.36218"
         sodipodi:rx="6"
         sodipodi:ry="6"
         d="m 889,701.36218 c 0,3.31371 -2.68629,6 -6,6 -3.31371,0 -6,-2.68629 -6,-6 0,-3.31371 2.68629,-6 6,-6 C 886.31371,695.36218 889,698.04847 889,701.36218 Z" />
      <rect
         style="color:#000000;fill:#6b8e9f;fill-opacity:1;fill-rule:nonzero;stroke:none;stroke-width:0.99999994;marker:none;visibility:visible;display:inline;overflow:visible;enable-background:new"
         id="rect5050-2-6"
         width="3"
         height="16.625"
         x="881.625"
         y="705.86218" />
    </g>
    <g
       style="fill:#6b8e9f;fill-opacity:1"
       id="g5052-6-3"
       transform="matrix(0.47965424,0,0,0.47965424,143.8959,193.19928)">
      <path
         d="m 889,701.36218 c 0,3.31371 -2.68629,6 -6,6 -3.31371,0 -6,-2.68629 -6,-6 0,-3.31371 2.68629,-6 6,-6 C 886.31371,695.36218 889,698.04847 889,701.36218 Z"
         sodipodi:ry="6"
         sodipodi:rx="6"
         sodipodi:cy="701.36218"
         sodipodi:cx="883"
         id="path5054-7-1"
         style="color:#000000;fill:#6b8e9f;fill-opacity:1;fill-rule:nonzero;stroke:none;stroke-width:0.99999994;marker:none;visibility:visible;display:inline;overflow:visible;enable-background:new"
         sodipodi:type="arc" />
      <rect
         y="705.86218"
         x="881.625"
         height="16.625"
         width="3"
         id="rect5056-8-7"
         style="color:#000000;fill:#6b8e9f;fill-opacity:1;fill-rule:nonzero;stroke:none;stroke-width:0.99999994;marker:none;visibility:visible;display:inline;overflow:visible;enable-background:new" />
    </g>
    <g
       id="g6541-6-2"
       transform="matrix(0.47965424,0,0,0.47965424,198.59749,193.19928)"
       style="fill:#6b8e9f;fill-opacity:1">
      <path
         d="m 889,701.36218 c 0,3.31371 -2.68629,6 -6,6 -3.31371,0 -6,-2.68629 -6,-6 0,-3.31371 2.68629,-6 6,-6 C 886.31371,695.36218 889,698.04847 889,701.36218 Z"
         sodipodi:ry="6"
         sodipodi:rx="6"
         sodipodi:cy="701.36218"
         sodipodi:cx="883"
         id="path6543-9-7"
         style="color:#000000;fill:#6b8e9f;fill-opacity:1;fill-rule:nonzero;stroke:none;stroke-width:0.99999994;marker:none;visibility:visible;display:inline;overflow:visible;enable-background:new"
         sodipodi:type="arc" />
      <rect
         y="705.86218"
         x="881.625"
         height="16.625"
         width="3"
         id="rect6545-0-6"
         style="color:#000000;fill:#6b8e9f;fill-opacity:1;fill-rule:nonzero;stroke:none;stroke-width:0.99999994;marker:none;visibility:visible;display:inline;overflow:visible;enable-background:new" />
    </g>
    <g
       transform="matrix(0.47965424,0,0,0.47965424,207.71442,193.19928)"
       id="g6547-3-9"
       style="fill:#6b8e9f;fill-opacity:1">
      <path
         sodipodi:type="arc"
         style="color:#000000;fill:#6b8e9f;fill-opacity:1;fill-rule:nonzero;stroke:none;stroke-width:0.99999994;marker:none;visibility:visible;display:inline;overflow:visible;enable-background:new"
         id="path6549-8-2"
         sodipodi:cx="883"
         sodipodi:cy="701.36218"
         sodipodi:rx="6"
         sodipodi:ry="6"
         d="m 889,701.36218 c 0,3.31371 -2.68629,6 -6,6 -3.31371,0 -6,-2.68629 -6,-6 0,-3.31371 2.68629,-6 6,-6 C 886.31371,695.36218 889,698.04847 889,701.36218 Z" />
      <rect
         style="color:#000000;fill:#6b8e9f;fill-opacity:1;fill-rule:nonzero;stroke:none;stroke-width:0.99999994;marker:none;visibility:visible;display:inline;overflow:visible;enable-background:new"
         id="rect6551-3-6"
         width="3"
         height="16.625"
         x="881.625"
         y="705.86218" />
    </g>
    <g
       id="g6553-7-3"
       transform="matrix(0.47965424,0,0,0.47965424,216.83135,193.19928)"
       style="fill:#6b8e9f;fill-opacity:1">
      <path
         d="m 889,701.36218 c 0,3.31371 -2.68629,6 -6,6 -3.31371,0 -6,-2.68629 -6,-6 0,-3.31371 2.68629,-6 6,-6 C 886.31371,695.36218 889,698.04847 889,701.36218 Z"
         sodipodi:ry="6"
         sodipodi:rx="6"
         sodipodi:cy="701.36218"
         sodipodi:cx="883"
         id="path6555-5-4"
         style="color:#000000;fill:#6b8e9f;fill-opacity:1;fill-rule:nonzero;stroke:none;stroke-width:0.99999994;marker:none;visibility:visible;display:inline;overflow:visible;enable-background:new"
         sodipodi:type="arc" />
      <rect
         y="705.86218"
         x="881.625"
         height="16.625"
         width="3"
         id="rect6557-2-4"
         style="color:#000000;fill:#6b8e9f;fill-opacity:1;fill-rule:nonzero;stroke:none;stroke-width:0.99999994;marker:none;visibility:visible;display:inline;overflow:visible;enable-background:new" />
    </g>
    <g
       transform="matrix(0.47965424,0,0,0.47965424,189.48056,193.19928)"
       id="g6559-5-1"
       style="fill:#6b8e9f;fill-opacity:1">
      <path
         sodipodi:type="arc"
         style="color:#000000;fill:#6b8e9f;fill-opacity:1;fill-rule:nonzero;stroke:none;stroke-width:0.99999994;marker:none;visibility:visible;display:inline;overflow:visible;enable-background:new"
         id="path6561-8-8"
         sodipodi:cx="883"
         sodipodi:cy="701.36218"
         sodipodi:rx="6"
         sodipodi:ry="6"
         d="m 889,701.36218 c 0,3.31371 -2.68629,6 -6,6 -3.31371,0 -6,-2.68629 -6,-6 0,-3.31371 2.68629,-6 6,-6 C 886.31371,695.36218 889,698.04847 889,701.36218 Z" />
      <rect
         style="color:#000000;fill:#6b8e9f;fill-opacity:1;fill-rule:nonzero;stroke:none;stroke-width:0.99999994;marker:none;visibility:visible;display:inline;overflow:visible;enable-background:new"
         id="rect6563-7-9"
         width="3"
         height="16.625"
         x="881.625"
         y="705.86218" />
    </g>
    <g
       style="fill:#6b8e9f;fill-opacity:1"
       transform="matrix(0.47965424,0,0,0.47965424,235.06522,193.19928)"
       id="g6565-1-0">
      <path
         sodipodi:type="arc"
         style="color:#000000;fill:#6b8e9f;fill-opacity:1;fill-rule:nonzero;stroke:none;stroke-width:0.99999994;marker:none;visibility:visible;display:inline;overflow:visible;enable-background:new"
         id="path6567-8-9"
         sodipodi:cx="883"
         sodipodi:cy="701.36218"
         sodipodi:rx="6"
         sodipodi:ry="6"
         d="m 889,701.36218 c 0,3.31371 -2.68629,6 -6,6 -3.31371,0 -6,-2.68629 -6,-6 0,-3.31371 2.68629,-6 6,-6 C 886.31371,695.36218 889,698.04847 889,701.36218 Z" />
      <rect
         style="color:#000000;fill:#6b8e9f;fill-opacity:1;fill-rule:nonzero;stroke:none;stroke-width:0.99999994;marker:none;visibility:visible;display:inline;overflow:visible;enable-background:new"
         id="rect6569-4-5"
         width="3"
         height="16.625"
         x="881.625"
         y="705.86218" />
    </g>
    <g
       style="fill:#6b8e9f;fill-opacity:1"
       id="g6571-9-7"
       transform="matrix(0.47965424,0,0,0.47965424,244.18215,193.19928)">
      <path
         d="m 889,701.36218 c 0,3.31371 -2.68629,6 -6,6 -3.31371,0 -6,-2.68629 -6,-6 0,-3.31371 2.68629,-6 6,-6 C 886.31371,695.36218 889,698.04847 889,701.36218 Z"
         sodipodi:ry="6"
         sodipodi:rx="6"
         sodipodi:cy="701.36218"
         sodipodi:cx="883"
         id="path6573-1-8"
         style="color:#000000;fill:#6b8e9f;fill-opacity:1;fill-rule:nonzero;stroke:none;stroke-width:0.99999994;marker:none;visibility:visible;display:inline;overflow:visible;enable-background:new"
         sodipodi:type="arc" />
      <rect
         y="705.86218"
         x="881.625"
         height="16.625"
         width="3"
         id="rect6575-1-0"
         style="color:#000000;fill:#6b8e9f;fill-opacity:1;fill-rule:nonzero;stroke:none;stroke-width:0.99999994;marker:none;visibility:visible;display:inline;overflow:visible;enable-background:new" />
    </g>
    <g
       style="fill:#6b8e9f;fill-opacity:1"
       transform="matrix(0.47965424,0,0,0.47965424,253.29908,193.19928)"
       id="g6577-2-7">
      <path
         sodipodi:type="arc"
         style="color:#000000;fill:#6b8e9f;fill-opacity:1;fill-rule:nonzero;stroke:none;stroke-width:0.99999994;marker:none;visibility:visible;display:inline;overflow:visible;enable-background:new"
         id="path6579-3-9"
         sodipodi:cx="883"
         sodipodi:cy="701.36218"
         sodipodi:rx="6"
         sodipodi:ry="6"
         d="m 889,701.36218 c 0,3.31371 -2.68629,6 -6,6 -3.31371,0 -6,-2.68629 -6,-6 0,-3.31371 2.68629,-6 6,-6 C 886.31371,695.36218 889,698.04847 889,701.36218 Z" />
      <rect
         style="color:#000000;fill:#6b8e9f;fill-opacity:1;fill-rule:nonzero;stroke:none;stroke-width:0.99999994;marker:none;visibility:visible;display:inline;overflow:visible;enable-background:new"
         id="rect6581-1-0"
         width="3"
         height="16.625"
         x="881.625"
         y="705.86218" />
    </g>
    <g
       style="fill:#6b8e9f;fill-opacity:1"
       id="g6583-1-3"
       transform="matrix(0.47965424,0,0,0.47965424,225.94828,193.19928)">
      <path
         d="m 889,701.36218 c 0,3.31371 -2.68629,6 -6,6 -3.31371,0 -6,-2.68629 -6,-6 0,-3.31371 2.68629,-6 6,-6 C 886.31371,695.36218 889,698.04847 889,701.36218 Z"
         sodipodi:ry="6"
         sodipodi:rx="6"
         sodipodi:cy="701.36218"
         sodipodi:cx="883"
         id="path6585-4-3"
         style="color:#000000;fill:#6b8e9f;fill-opacity:1;fill-rule:nonzero;stroke:none;stroke-width:0.99999994;marker:none;visibility:visible;display:inline;overflow:visible;enable-background:new"
         sodipodi:type="arc" />
      <rect
         y="705.86218"
         x="881.625"
         height="16.625"
         width="3"
         id="rect6587-9-3"
         style="color:#000000;fill:#6b8e9f;fill-opacity:1;fill-rule:nonzero;stroke:none;stroke-width:0.99999994;marker:none;visibility:visible;display:inline;overflow:visible;enable-background:new" />
    </g>
    <path
       inkscape:connector-curvature="0"
       id="rect3008-2-7-1-9-7"
       d="m 450.08531,538.51357 242.68653,0 0,68.99444 L 450.08531,607.50801 Z"
       style="color:#000000;fill:#6b8e9f;fill-opacity:1;fill-rule:nonzero;stroke:none;stroke-width:0.99999994;marker:none;visibility:visible;display:inline;overflow:visible;enable-background:new" />
  </g>
</svg>
