<?xml version="1.0" encoding="UTF-8" standalone="no"?>
<!-- Created with Inkscape (http://www.inkscape.org/) -->

<svg
   xmlns:dc="http://purl.org/dc/elements/1.1/"
   xmlns:cc="http://creativecommons.org/ns#"
   xmlns:rdf="http://www.w3.org/1999/02/22-rdf-syntax-ns#"
   xmlns:svg="http://www.w3.org/2000/svg"
   xmlns="http://www.w3.org/2000/svg"
   xmlns:sodipodi="http://sodipodi.sourceforge.net/DTD/sodipodi-0.dtd"
   xmlns:inkscape="http://www.inkscape.org/namespaces/inkscape"
   width="389.76376"
   height="389.76376"
   id="svg6207"
   version="1.1"
   inkscape:version="0.48.4 r9939"
   sodipodi:docname="fosdem2013-print.svg">
  <defs
     id="defs6209" />
  <sodipodi:namedview
     id="base"
     pagecolor="#ffffff"
     bordercolor="#666666"
     borderopacity="1.0"
     inkscape:pageopacity="0"
     inkscape:pageshadow="2"
     inkscape:zoom="1.0279359"
     inkscape:cx="137.37686"
     inkscape:cy="93.53213"
     inkscape:document-units="px"
     inkscape:current-layer="layer1"
     showgrid="false"
     units="mm"
     inkscape:window-width="1920"
     inkscape:window-height="1011"
     inkscape:window-x="0"
     inkscape:window-y="34"
     inkscape:window-maximized="1"
     showborder="true" />
  <metadata
     id="metadata6212">
    <rdf:RDF>
      <cc:Work
         rdf:about="">
        <dc:format>image/svg+xml</dc:format>
        <dc:type
           rdf:resource="http://purl.org/dc/dcmitype/StillImage" />
        <dc:title />
      </cc:Work>
    </rdf:RDF>
  </metadata>
  <g
     inkscape:label="Layer 1"
     inkscape:groupmode="layer"
     id="layer1"
     transform="translate(0,-662.5984)">
    <path
       style="font-size:medium;font-style:normal;font-variant:normal;font-weight:normal;font-stretch:normal;text-indent:0;text-align:start;text-decoration:none;line-height:normal;letter-spacing:normal;word-spacing:normal;text-transform:none;direction:ltr;block-progression:tb;writing-mode:lr-tb;text-anchor:start;baseline-shift:baseline;color:#bebebe;fill:#ffffff;fill-opacity:1;stroke:none;stroke-width:2;marker:none;visibility:visible;display:inline;overflow:visible;enable-background:accumulate;font-family:Sans;-inkscape-font-specification:Sans"
       d="M 47.15625 16.53125 L 47.15625 191.40625 C 47.15625 243.16183 84.857297 283.39011 118.1875 313.21875 C 151.51792 343.04744 184.5625 363.1875 184.5625 363.1875 L 197.03125 370.1875 L 210.3125 362.40625 C 210.3125 362.40625 242.66195 342.47727 275.90625 312.4375 C 309.15096 282.39776 346.9375 242.47802 346.9375 191.40625 L 346.9375 16.53125 L 47.15625 16.53125 z M 260.59375 68.875 C 301.7869 68.875 258.04416 127.5625 234.875 127.5625 C 211.70249 127.5625 219.40227 68.875 260.59375 68.875 z M 196.96875 76.0625 C 217.24557 76.132349 204.17121 121.01115 192.21875 120.28125 C 179.87571 119.52781 171.72537 79.227493 194.90625 76.21875 C 195.63091 76.124727 196.31466 76.060247 196.96875 76.0625 z M 156.8125 92.03125 C 171.27228 91.71087 170.00495 128.28666 160.375 130.25 C 149.93733 132.38308 134.14948 100.62595 152.78125 92.9375 C 154.2366 92.336971 155.58709 92.058401 156.8125 92.03125 z M 126.5 116.90625 C 138.27438 116.22385 143.47156 146.55983 135.65625 150 C 126.88117 153.86097 106.96021 128.9929 121.875 118.6875 C 123.50704 117.56053 125.05402 116.99005 126.5 116.90625 z M 209.53125 135.09375 C 229.91068 134.91296 246.73076 141.22946 248.90625 154.15625 C 255.6159 194.02409 153.82748 208.56823 192.15625 237.75 C 204.19634 246.91716 216.48702 239.90753 214.625 225.6875 C 213.07077 213.82404 256.32513 206.63358 252.9375 224.5625 C 248.50194 248.07412 224.80462 266.625 204.25 266.625 C 162.468 266.625 122.42344 218.05313 130.25 183.03125 C 137.29581 151.47777 177.73933 135.37578 209.53125 135.09375 z "
       transform="translate(0,662.5984)"
       id="rect3259-2-8-6-8-7" />
  </g>
</svg>
