<?xml version="1.0" encoding="UTF-8" standalone="no"?>
<!-- Created with Inkscape (http://www.inkscape.org/) -->

<svg
   xmlns:dc="http://purl.org/dc/elements/1.1/"
   xmlns:cc="http://creativecommons.org/ns#"
   xmlns:rdf="http://www.w3.org/1999/02/22-rdf-syntax-ns#"
   xmlns:svg="http://www.w3.org/2000/svg"
   xmlns="http://www.w3.org/2000/svg"
   xmlns:sodipodi="http://sodipodi.sourceforge.net/DTD/sodipodi-0.dtd"
   xmlns:inkscape="http://www.inkscape.org/namespaces/inkscape"
   width="889.80786"
   height="391.02136"
   id="svg2"
   sodipodi:version="0.32"
   inkscape:version="0.91 r13725"
   sodipodi:docname="gnome.asia-logo.svg"
   inkscape:output_extension="org.inkscape.output.svg.inkscape"
   version="1.0">
  <defs
     id="defs4">
    <inkscape:perspective
       sodipodi:type="inkscape:persp3d"
       inkscape:vp_x="0 : 526.18109 : 1"
       inkscape:vp_y="0 : 1000 : 0"
       inkscape:vp_z="744.09448 : 526.18109 : 1"
       inkscape:persp3d-origin="372.04724 : 350.78739 : 1"
       id="perspective241" />
    <inkscape:perspective
       id="perspective3494"
       inkscape:persp3d-origin="571.97833 : 136.13385 : 1"
       inkscape:vp_z="1143.9567 : 204.20078 : 1"
       inkscape:vp_y="0 : 1000 : 0"
       inkscape:vp_x="0 : 204.20078 : 1"
       sodipodi:type="inkscape:persp3d" />
    <inkscape:perspective
       id="perspective25"
       inkscape:persp3d-origin="571.97833 : 136.13385 : 1"
       inkscape:vp_z="1143.9567 : 204.20078 : 1"
       inkscape:vp_y="0 : 1000 : 0"
       inkscape:vp_x="0 : 204.20078 : 1"
       sodipodi:type="inkscape:persp3d" />
  </defs>
  <sodipodi:namedview
     id="base"
     pagecolor="#ffffff"
     bordercolor="#666666"
     borderopacity="1.0"
     gridtolerance="10000"
     guidetolerance="10"
     objecttolerance="10"
     inkscape:pageopacity="0.0"
     inkscape:pageshadow="2"
     inkscape:zoom="1"
     inkscape:cx="460.77674"
     inkscape:cy="272.70111"
     inkscape:document-units="cm"
     inkscape:current-layer="layer1"
     inkscape:window-width="1920"
     inkscape:window-height="1136"
     inkscape:window-x="0"
     inkscape:window-y="27"
     showgrid="false"
     showguides="true"
     inkscape:guide-bbox="true"
     fit-margin-top="0"
     fit-margin-left="0"
     fit-margin-right="0"
     fit-margin-bottom="0"
     inkscape:showpageshadow="false"
     inkscape:window-maximized="1">
    <inkscape:grid
       type="xygrid"
       id="grid3715"
       visible="true"
       enabled="true"
       spacingx="1cm"
       spacingy="1cm"
       units="cm"
       originx="-1.2771676"
       originy="-36.536567" />
  </sodipodi:namedview>
  <metadata
     id="metadata7">
    <rdf:RDF>
      <cc:Work
         rdf:about="">
        <dc:format>image/svg+xml</dc:format>
        <dc:type
           rdf:resource="http://purl.org/dc/dcmitype/StillImage" />
        <dc:title></dc:title>
      </cc:Work>
      <cc:Work
         rdf:about="">
        <dc:format>image/svg+xml</dc:format>
        <dc:type
           rdf:resource="http://purl.org/dc/dcmitype/StillImage" />
      </cc:Work>
    </rdf:RDF>
  </metadata>
  <g
     inkscape:label="Layer 1"
     inkscape:groupmode="layer"
     id="layer1"
     transform="translate(-1.2771676,-316.53657)">
    <rect
       style="opacity:1;fill:none;fill-opacity:1;fill-rule:evenodd;stroke:#010101;stroke-width:1.77165353;stroke-miterlimit:4;stroke-dasharray:none;stroke-dashoffset:14.99999905;stroke-opacity:0"
       inkscape:export-filename="/home/behnam/proj/gnome.asia/svn/summit/trunk/art/logo/gnome.asia-logo.10.png"
       inkscape:export-xdpi="72"
       inkscape:export-ydpi="72"
       id="rect2428"
       width="888.03619"
       height="389.24969"
       x="2.1629944"
       y="317.42239" />
    <g
       id="g2410"
       transform="translate(-80,140)">
      <path
         inkscape:connector-curvature="0"
         d="m 459.86632,462.89335 c -8.92114,6e-5 -15.99951,2.07596 -21.28715,6.241 -5.25813,4.13564 -7.88595,9.61484 -7.88593,16.49756 0,4.37194 1.21436,7.94476 3.72525,10.69195 2.51091,2.74725 6.37444,4.7773 11.51442,6.0475 l 6.91833,1.6933 c 3.69246,0.94527 6.11558,1.89028 7.2086,2.80602 1.09293,0.88623 1.64489,2.14893 1.64492,3.77364 -1e-5,2.48137 -1.2251,4.5007 -3.67687,6.09586 -2.42232,1.59517 -5.58324,2.41899 -9.48247,2.419 -3.6039,0 -7.2602,-0.5708 -10.98224,-1.6933 -3.6925,-1.12251 -7.53725,-2.80529 -11.46603,-5.07988 l -2.70928,14.36882 c 4.04697,1.56561 8.20939,2.78251 12.43363,3.58012 4.25372,0.79756 8.48901,1.16107 12.77231,1.16112 9.18687,-2e-5 16.52906,-2.1405 21.96448,-6.48292 5.46481,-4.34235 8.17614,-10.14175 8.17619,-17.32 -5e-5,-4.43095 -1.36513,-8.01194 -4.11228,-10.78872 -2.71773,-2.80627 -7.02023,-4.95745 -12.86906,-6.43453 l -6.96671,-1.74167 c -3.27894,-0.7975 -5.4679,-1.59181 -6.53129,-2.419 -1.03393,-0.85663 -1.54818,-2.02514 -1.54815,-3.53173 -3e-5,-2.36316 1.16852,-4.23432 3.53173,-5.56369 2.39269,-1.32924 5.71251,-1.98349 9.96626,-1.98357 3.10169,4e-5 6.28144,0.43085 9.53084,1.25786 3.24933,0.79767 6.57984,2.02273 9.91789,3.67688 l 2.70927,-14.03018 c -3.89935,-1.0929 -7.73336,-1.88718 -11.51442,-2.41899 -3.75163,-0.56119 -7.40796,-0.82242 -10.98224,-0.82245 z m 358.63185,0.0124 -2.91113,14.86207 -8.32481,0 -2.29826,11.95095 8.22266,0 -4.29008,22.21651 c -0.18713,1.02908 -0.31503,2.06649 -0.40858,3.06434 -0.0936,0.99787 -0.1532,1.93582 -0.15322,2.80899 0,3.99159 1.33304,7.02143 3.98365,9.14196 2.65062,2.12048 6.4906,3.21755 11.54237,3.21756 l 14.09599,0 2.40041,-12.00202 -8.68232,0 c -2.24525,0 -3.83417,-0.29563 -4.8008,-0.9193 -0.93554,-0.62367 -1.43007,-1.62992 -1.43003,-3.06435 -4e-5,-0.31182 0.0198,-0.6784 0.0511,-1.02144 0.0624,-0.343 0.18172,-0.72679 0.30643,-1.22574 l 4.29009,-22.21651 17.10926,0 2.40041,-11.95095 -17.10927,0 2.86006,-14.86207 -16.8539,0 z m -43.90327,3.16649 -12.46167,64.09589 17.26248,0 12.05309,-61.44013 c -1.56285,0.31642 -3.2012,0.51073 -4.85188,0.51073 -4.35905,3e-5 -8.45991,-1.14233 -12.00202,-3.16649 z m -172.95152,10.41877 c -3.21201,7e-5 -6.28168,0.75043 -9.24411,2.24719 -2.96253,1.49689 -5.75643,3.72806 -8.37588,6.69049 l 1.53217,-7.66087 -16.8539,0 -10.16341,52.40031 16.75176,0 5.05617,-25.79157 c 0.90431,-4.70875 2.54422,-8.42079 4.85188,-11.13379 2.33875,-2.74418 5.03324,-4.08575 8.12051,-4.0858 1.71511,5e-5 3.06799,0.48326 4.03472,1.4811 0.96669,0.96677 1.43,2.3396 1.43003,4.0858 -3e-5,0.6861 -0.0683,1.59287 -0.25536,2.80898 -0.18716,1.18501 -0.50268,2.97276 -0.97038,5.31154 l -5.41367,27.32374 16.90497,0 5.05617,-25.79157 c 0.96665,-4.89586 2.5356,-8.66752 4.74974,-11.28701 2.24516,-2.65058 4.95956,-3.93253 8.17159,-3.93258 1.68383,5e-5 3.01683,0.48326 3.98365,1.4811 0.9978,0.99795 1.53212,2.37076 1.53217,4.0858 -7e-5,1.09148 -0.41505,3.53872 -1.22574,7.4055 l -0.15322,0.71502 -5.26046,27.32374 16.8539,0 6.23084,-31.92026 c 0.28056,-1.52799 0.48802,-2.90072 0.61287,-4.0858 0.15578,-1.21614 0.20416,-2.28196 0.20429,-3.21756 -1.2e-4,-4.49045 -1.3218,-8.01481 -4.03472,-10.57199 -2.68192,-2.58819 -6.35415,-3.88149 -11.03165,-3.88151 -3.55503,7e-5 -7.01116,0.88959 -10.31663,2.6047 -3.27437,1.71516 -6.19627,4.14257 -8.78446,7.35443 -0.53018,-2.93125 -2.11042,-5.31021 -4.69866,-7.15014 -2.5883,-1.871 -5.6779,-2.80897 -9.29518,-2.80899 z m 101.77558,0 c -3.21199,7e-5 -6.28166,0.75043 -9.24411,2.24719 -2.96251,1.49689 -5.75646,3.72806 -8.37588,6.69049 l 1.53218,-7.66087 -16.80283,0 -10.21449,52.40031 16.80283,0 5.05617,-25.79157 c 0.9043,-4.70875 2.49322,-8.42079 4.80081,-11.13379 2.33879,-2.74418 5.03326,-4.08575 8.12052,-4.0858 1.71505,5e-5 3.06797,0.48326 4.03472,1.4811 0.96665,0.96677 1.48108,2.3396 1.4811,4.0858 -4e-5,0.6861 -0.11941,1.59287 -0.30644,2.80898 -0.18714,1.18501 -0.50265,2.97276 -0.97037,5.31154 l -5.41368,27.32374 16.90497,0 5.05617,-25.79157 c 0.96665,-4.89586 2.53566,-8.66752 4.74974,-11.28701 2.24519,-2.65058 5.01067,-3.93253 8.22266,-3.93258 1.68387,5e-5 3.01689,0.48326 3.98365,1.4811 0.99782,0.99795 1.48102,2.37076 1.4811,4.0858 -7e-5,1.09148 -0.41502,3.53872 -1.22574,7.4055 l -0.15322,0.71502 -5.26046,27.32374 16.85391,0 6.23083,-31.92026 c 0.28055,-1.52799 0.48803,-2.90072 0.61287,-4.0858 0.15583,-1.21614 0.25528,-2.28196 0.25536,-3.21756 -9e-5,-4.49045 -1.37284,-8.01481 -4.08579,-10.57199 -2.6819,-2.58819 -6.35413,-3.88149 -11.03165,-3.88151 -3.55506,7e-5 -7.01117,0.88959 -10.31663,2.6047 -3.27437,1.71516 -6.19625,4.14257 -8.78445,7.35443 -0.53019,-2.93125 -2.05939,-5.31021 -4.64759,-7.15014 -2.58836,-1.871 -5.72899,-2.80897 -9.34626,-2.80899 z m -204.81194,1.27681 -6.12869,31.97134 c -0.24948,1.30973 -0.43702,2.61421 -0.5618,3.83044 -0.12471,1.21617 -0.20429,2.33043 -0.20429,3.42185 0,4.61521 1.31313,8.19926 3.93258,10.72521 2.61943,2.5259 6.31155,3.77931 11.08271,3.77936 3.49259,-2e-5 6.86061,-0.75033 10.0102,-2.24719 3.14956,-1.49684 6.1198,-3.71675 8.98875,-6.74156 l -1.53217,7.66086 16.90497,0 10.11234,-52.40031 -16.75176,0 -5.05617,25.79158 c -0.93556,4.77114 -2.66366,8.50303 -5.15831,11.18486 -2.49474,2.68183 -5.47631,3.98368 -8.93768,3.98365 -2.02699,0 -3.60725,-0.54289 -4.69866,-1.63432 -1.09145,-1.09141 -1.63435,-2.63194 -1.63432,-4.59652 -10e-6,-0.71723 0.11931,-1.6638 0.30644,-2.91112 0.18706,-1.24735 0.44295,-2.76798 0.81716,-4.54545 l 5.31153,-27.27268 -16.80283,0 z"
         style="font-style:normal;font-weight:normal;font-size:45.11105728px;font-family:'Bitstream Vera Sans';fill:#4e9a06;fill-opacity:1;stroke:none;stroke-width:1px;stroke-linecap:butt;stroke-linejoin:miter;stroke-opacity:1"
         id="path3662" />
      <path
         inkscape:connector-curvature="0"
         id="path3641"
         d="m 786.60722,430.21448 c 8.09677,-5e-5 14.61397,6.3617 14.61397,14.45851 5e-5,8.09681 -6.51715,14.61398 -14.61397,14.61398 -8.09677,4e-5 -14.45852,-6.51717 -14.45852,-14.61398 -4e-5,-8.09676 6.3617,-14.45851 14.45852,-14.45851 z"
         style="font-style:normal;font-weight:normal;font-size:45.11105728px;font-family:'Bitstream Vera Sans';fill:#4e9a06;fill-opacity:1;stroke:none;stroke-width:1px;stroke-linecap:butt;stroke-linejoin:miter;stroke-opacity:1" />
    </g>
    <path
       style="font-style:normal;font-weight:normal;font-size:21.93271637px;font-family:FreeSans;fill:#000000;fill-opacity:1;stroke:none;stroke-width:1px;stroke-linecap:butt;stroke-linejoin:miter;stroke-opacity:1"
       d="m 748.9613,555.90577 -7.80845,21.17392 15.64536,0 -7.83691,-21.17392 m -3.24876,-5.67107 6.52599,0 16.21532,42.54734 -5.98454,0 -3.87572,-10.91471 -19.17909,0 -3.87572,10.91471 -6.07002,0 16.24378,-42.54734 m 54.43091,1.39641 0,5.61408 c -2.18483,-1.04492 -4.2462,-1.82385 -6.18401,-2.33685 -1.93787,-0.51291 -3.80923,-0.7694 -5.61409,-0.76943 -3.13477,3e-5 -5.55708,0.60798 -7.26696,1.82386 -1.69087,1.21593 -2.5363,2.9448 -2.5363,5.18662 0,1.88087 0.56044,3.30579 1.68137,4.27468 1.1399,0.94994 3.28674,1.71941 6.44053,2.30832 l 3.47674,0.71243 c 4.29366,0.81697 7.4569,2.26087 9.48979,4.33168 2.05181,2.05187 3.07772,4.80668 3.07775,8.26439 -3e-5,4.12271 -1.3869,7.24797 -4.16069,9.3758 -2.75479,2.12785 -6.80151,3.19177 -12.14006,3.19177 -2.01387,0 -4.16073,-0.22798 -6.44052,-0.68396 -2.26085,-0.45596 -4.60719,-1.13041 -7.03899,-2.02333 l 0,-5.92756 c 2.3368,1.3109 4.62613,2.29885 6.86798,2.96377 2.24182,0.66497 4.44565,0.99744 6.61153,0.99744 3.28671,0 5.82301,-0.64596 7.60893,-1.93786 1.78585,-1.29193 2.67874,-3.13475 2.67879,-5.5286 -5e-5,-2.08984 -0.646,-3.72371 -1.93788,-4.90161 -1.27292,-1.17791 -3.37226,-2.06134 -6.298,-2.65031 l -3.50525,-0.68396 c -4.29368,-0.85491 -7.39997,-2.19432 -9.3188,-4.01819 -1.91887,-1.82383 -2.87831,-4.36016 -2.87831,-7.60895 0,-3.76168 1.32041,-6.72543 3.96122,-8.89135 2.65981,-2.16578 6.31703,-3.24869 10.97168,-3.24874 1.99484,5e-5 4.02768,0.18054 6.09854,0.54148 2.07081,0.361 4.18915,0.90245 6.35501,1.62438 m 11.54167,-1.39641 5.75656,0 0,42.54734 -5.75656,0 0,-42.54734 m 31.43316,5.67107 -7.80844,21.17392 15.64535,0 -7.83691,-21.17392 m -3.24876,-5.67107 6.52599,0 16.21533,42.54734 -5.98457,0 -3.8757,-10.91471 -19.17909,0 -3.87572,10.91471 -6.07002,0 16.24378,-42.54734"
       id="text3783"
       inkscape:connector-curvature="0" />
    <path
       id="path15059"
       style="font-style:normal;font-variant:normal;font-weight:bold;font-stretch:normal;font-size:148.699646px;line-height:125%;font-family:'Bitstream Vera Sans';text-align:start;writing-mode:lr-tb;text-anchor:start;fill:#000000;fill-opacity:1;stroke:none;stroke-width:1pt;stroke-linecap:butt;stroke-linejoin:miter;stroke-opacity:1"
       d="m 484.99266,507.37936 c -10.75966,0.2898 -19.25667,4.15686 -25.50544,11.57313 -6.47105,7.71795 -9.72584,18.38195 -9.72584,31.98191 0,13.5624 3.25492,24.19722 9.72584,31.91502 6.50266,7.71795 15.43062,11.57313 26.81852,11.57313 11.41927,0 20.36967,-3.85518 26.84072,-11.57313 6.4709,-7.7178 9.7037,-18.35262 9.70362,-31.91502 -7e-5,-13.59996 -3.23272,-24.26396 -9.70362,-31.98191 -6.47105,-7.71774 -15.42152,-11.57305 -26.84072,-11.57313 -0.44485,0 -0.87572,-0.0118 -1.31308,0 z m 0.80122,15.66824 c 0.17198,-0.005 0.33736,0 0.51186,0 5.61442,6e-5 9.96491,2.42956 13.042,7.29996 3.0769,4.87054 4.62919,11.74497 4.62925,20.58684 0,8.80433 -1.5525,15.62741 -4.62925,20.49773 -3.07695,4.87061 -7.42766,7.3222 -13.042,7.3222 -5.58295,0 -9.89826,-2.45159 -12.97523,-7.3222 -3.07694,-4.87032 -4.62917,-11.6934 -4.62924,-20.49773 0,-8.8418 1.55243,-15.7163 4.62924,-20.58684 2.98067,-4.7182 7.13069,-7.1524 12.46337,-7.29996 z m -122.34889,63.50751 c -9.47757,7.95924 -23.57834,7.86772 -29.45263,7.86772 -11.83187,0 -21.2053,-3.8964 -28.12033,-11.6892 -6.91518,-7.83028 -10.37266,-18.43288 -10.37266,-31.80807 0,-13.52494 3.52095,-24.16502 10.56296,-31.92045 7.04201,-7.75519 16.68501,-11.63286 28.92924,-11.63294 4.72631,8e-5 9.24646,0.5246 13.56055,1.57352 4.34573,1.04905 8.43771,2.60391 12.27592,4.66443 l -4.92909,14.57201 c -2.15779,-1.18123 -4.62832,-2.34539 -6.91859,-3.16384 -3.90167,-1.31121 -7.81915,-1.96685 -11.75244,-1.96692 -7.29584,7e-5 -12.9263,2.4166 -16.89128,7.24954 -3.93343,4.79561 -5.90008,11.67048 -5.90008,20.62465 0,8.87933 1.90319,15.73554 5.70978,20.56854 3.80639,4.83301 9.52686,7.24948 16.22502,7.24948 6.80485,0 11.01961,-1.71525 13.2675,-3.52258 l 0,-14.51697 -14.74244,0 0,-14.49908 28.54857,0 m 12.52141,-37.31545 11.55737,0 36.51943,50.42477 0,-50.42477 15.58654,0 0,83.90355 -11.55739,0 -36.51935,-50.42476 0,50.42476 -15.5866,0 0,-83.90355 m 158.90806,0 23.31473,0 16.17752,52.38023 16.27266,-52.38023 19.70621,0 8.90241,83.90355 -17.31952,0 -5.34144,-52.46576 -16.36781,52.71738 -11.6098,0 -16.36789,-54.49786 -5.34144,54.24624 -17.36708,0 8.90239,-83.90355 m 93.31397,0 49.43659,0 0,16.35364 -31.11801,0 0,17.40347 23.92089,0 0,14.5731 -23.92089,0 0,19.21977 32.16479,0 0,16.35357 -50.48337,0 0,-83.90355"
       inkscape:connector-curvature="0" />
    <text
       x="691.53247"
       y="523.30591"
       style="font-style:normal;font-weight:normal;font-size:21.85688019px;font-family:'Bitstream Vera Sans';fill:#000000;fill-opacity:1;stroke:none;stroke-width:1pt;stroke-linecap:butt;stroke-linejoin:miter;stroke-opacity:1"
       id="text15069"
       xml:space="preserve"><tspan
         x="691.53247"
         y="523.30591"
         style="letter-spacing:7.87869263"
         id="tspan15072"><tspan
           style="letter-spacing:0.17974409"
           id="tspan15074">TM</tspan></tspan></text>
    <path
       inkscape:connector-curvature="0"
       id="path3360"
       style="fill:#4e9a06;fill-opacity:1;fill-rule:evenodd;stroke:none;stroke-width:5.69999981;stroke-linejoin:round;stroke-miterlimit:4;stroke-dasharray:none;stroke-dashoffset:0;stroke-opacity:1"
       d="m 52.72802,352.59842 c -12.7047,0 -22.97667,11.6907 -22.97667,26.21499 l 0,266.46766 c 0,14.52431 10.27199,26.21499 22.97667,26.21499 l 13.3645,0 c -0.0382,-0.32206 0,-0.64835 0.0514,-0.97664 0.17929,-1.16672 0.38617,-2.32896 0.56543,-3.49534 -1.2e-4,-0.0171 -1.2e-4,-0.0343 0,-0.0514 0.55691,-3.41037 1.08214,-6.84622 1.64486,-10.28038 l 19.84114,-1.79907 c -0.56489,3.39035 -1.08161,6.79377 -1.64486,10.22898 -0.17973,1.16575 -0.33428,2.3296 -0.51402,3.49534 -0.20026,1.34398 -1.14893,2.44982 -2.41588,2.87851 l 158.26656,0 c 12.70471,0 22.97668,-11.69064 22.97667,-26.21499 l 0,-266.46766 c 0,-14.52431 -10.27198,-26.21499 -22.97667,-26.21499 l -102.13565,0 c -0.37558,1.48593 -0.76424,2.93051 -1.18224,4.47197 -1.5224,6.2121 -2.57326,12.61322 -3.80375,19.12153 -0.0151,0.069 -0.0323,0.13759 -0.0514,0.20561 -1.05495,4.34626 -1.266,8.91912 -1.43925,13.72431 l -19.58414,-4.36916 c 0.23152,-2.61148 0.60932,-5.24923 1.23365,-7.91591 l -0.0514,0 c 0.01,-0.0519 0.0418,-0.10227 0.0514,-0.1542 1.18159,-6.35949 2.24969,-12.85572 3.80373,-19.37853 -1.1e-4,-0.0171 -1.1e-4,-0.0343 0,-0.0514 0.47734,-1.8455 0.96788,-3.75152 1.43926,-5.65422 l -67.43934,0 z m 124.64971,19.42994 c 6.28458,-0.0853 13.74844,2.58274 22.87386,9.04674 19.22779,3.04821 37.51452,20.34574 54.69166,58.90662 0.0263,0.0591 0.0765,0.0951 0.1028,0.15421 l -1.54206,0.87383 c -0.0408,-0.0537 -0.062,-0.10058 -0.1028,-0.15421 -23.22634,-30.54834 -40.55498,-48.56286 -53.86923,-58.08418 -17.03541,-2.51471 -34.8031,6.69713 -52.9954,22.00003 4.56683,-0.78763 9.05268,-1.00973 13.3645,-0.56543 12.21564,-5.10875 21.65401,-6.48065 29.0935,-5.08879 7.47214,1.39797 12.87872,5.63071 16.91124,11.46263 8.05709,11.65239 10.96643,29.61015 15.62619,45.49072 0.005,0.0156 -0.005,0.0358 0,0.0514 5.44267,8.81728 10.73404,18.36089 15.8832,28.52808 l -1.28505,1.07944 c -0.0959,-0.0735 -0.1621,-0.18233 -0.25701,-0.25701 -8.11807,-6.38646 -12.49773,-17.05844 -15.9346,-28.73369 -0.021,-0.0339 -0.0304,-0.0689 -0.0514,-0.1028 -17.59801,-28.40644 -36.97333,-48.01659 -59.62624,-50.63092 -8.14701,3.43977 -17.76938,8.69117 -28.8365,15.8832 -0.0845,0.94509 -0.16638,1.88451 -0.257,2.82712 16.41431,8.12482 23.99133,18.11616 27.24303,28.99069 3.49962,11.70369 2.30406,24.25188 2.8271,36.44397 2.68444,8.83573 5.09172,18.04613 7.24768,27.55144 l -1.59346,0.66823 c -0.0543,-0.0873 -0.1007,-0.16963 -0.15421,-0.25701 -0.0206,-0.0336 -0.0309,-0.0692 -0.0514,-0.1028 -5.33641,-8.76956 -6.72765,-18.16153 -7.14487,-27.55145 -0.0211,-0.0692 -0.0303,-0.13648 -0.0514,-0.20561 -6.99447,-22.90701 -16.18686,-42.97483 -29.0935,-58.03278 -0.21944,2.09114 -0.40516,4.19285 -0.61682,6.27104 -0.75791,7.07027 -1.63278,14.11888 -2.4673,21.12619 -0.41311,3.4022 -0.86266,6.78524 -1.28505,10.17759 l -19.68694,0.66822 c 0.36153,-2.91345 0.72619,-5.83304 1.07944,-8.73833 0.83859,-7.02853 1.71563,-13.98541 2.4673,-20.97199 0.13938,-1.36213 0.26768,-2.70468 0.41121,-4.06076 -11.43684,8.49913 -24.17487,18.64406 -38.44865,30.84117 -0.0605,0.0517 -0.0937,0.10248 -0.15421,0.15421 l -1.28505,-1.18225 c 0.0455,-0.0613 0.10876,-0.093 0.15421,-0.1542 14.77962,-19.89813 28.41923,-34.36308 41.17295,-44.41128 0.0588,-0.70483 0.15242,-1.40295 0.20561,-2.10748 0.0146,-0.22446 0.0365,-0.44399 0.0514,-0.66822 -18.40026,-5.53999 -43.9308,-9.72372 -79.57021,-11.97666 -0.0917,-0.006 -0.16517,0.006 -0.257,0 l -0.15421,-1.74766 c 34.79853,-7.63712 60.71745,-3.53417 80.34122,8.73833 0.35902,-5.0984 0.68473,-10.15871 0.77104,-15.16358 -1.1e-4,-0.0171 -1.1e-4,-0.0343 0,-0.0514 0.10163,-2.3258 0.17355,-4.7195 0.257,-7.14487 l 19.63555,4.36917 c -0.0767,4.33715 -0.32914,8.61268 -0.61683,12.85049 3.61859,-1.62101 7.1658,-2.85969 10.6402,-3.70095 0.468,-0.40034 0.94752,-0.75743 1.38786,-1.13084 0.0128,-0.0194 0.0386,-0.032 0.0514,-0.0514 4.60177,-6.96703 8.77514,-14.85447 13.77572,-21.0748 5.05095,-6.28299 11.04555,-10.94177 19.12153,-11.05141 z m -52.07017,103.78051 c -0.20459,1.62636 -0.41105,3.25706 -0.61682,4.88318 -0.8967,7.03169 -1.81371,14.05471 -2.72431,21.0748 -0.91451,7.0268 -1.85532,13.95022 -2.7757,20.97199 -0.76603,7.14234 -1.95666,14.13508 -2.98131,21.02339 -0.0262,0.13899 -0.0605,0.2763 -0.10281,0.41122 -1.6874,6.27846 -3.17901,12.57795 -4.78038,18.96732 -0.28007,1.17814 -0.51542,2.35687 -0.77103,3.54673 l -18.45329,-4.72898 c 1.33118,-5.40754 2.63103,-10.86431 4.16355,-16.34581 1.07372,-6.99432 2.34967,-13.82714 3.03272,-20.61218 -4.9e-4,-0.0343 -4.9e-4,-0.0686 0,-0.10281 0.92072,-7.02343 1.86186,-14.05457 2.7757,-21.07479 0.91136,-7.02402 1.82906,-14.00696 2.72431,-21.0234 0.26678,-2.10696 0.50646,-4.21385 0.77102,-6.32244 l 19.73835,-0.66822 z m -34.54211,91.95808 18.5561,4.78037 c -0.63838,3.34344 -1.21602,6.72573 -1.85047,10.12618 -0.01,0.0895 -0.041,0.16773 -0.0514,0.25701 -0.89131,7.64429 -3.84567,14.44413 -6.32244,20.92059 -0.016,0.0518 -0.0331,0.1032 -0.0514,0.15421 -2.69485,6.27666 -4.37843,12.96117 -6.47665,19.89255 -1.82709,6.62771 -3.02571,13.46395 -4.47196,20.45797 -0.28716,1.48434 -0.55575,2.98235 -0.82244,4.47197 l -19.89255,1.79907 c 0.27429,-1.55432 0.57436,-3.11903 0.87384,-4.67758 -1.2e-4,-0.0171 -1.2e-4,-0.0343 0,-0.0514 1.41118,-6.8778 2.64608,-13.9479 4.57477,-21.0234 -1.1e-4,-0.0171 -1.1e-4,-0.0343 0,-0.0514 1.948,-6.75834 3.8096,-13.74425 6.68226,-20.66358 0.0191,-0.0529 0.0323,-0.10142 0.0514,-0.1542 2.47295,-6.82786 5.38671,-12.96367 5.96262,-19.07012 0.0111,-0.12073 0.0282,-0.24082 0.0514,-0.35981 1.02574,-5.54049 1.98098,-11.15092 3.18692,-16.80843 z m 151.81231,-61.44831 c -32.47422,0 -38.56595,46.25353 -20.29738,46.25353 18.26593,0 52.77293,-46.25353 20.29738,-46.25353 z m -53.92263,40.52216 c 9.72696,0.594 20.39902,-37.12056 2.11725,-34.74855 -18.27516,2.37201 -11.84817,34.15456 -2.11725,34.74855 z m -44.57847,23.43499 c 6.91803,-3.04521 0.89099,-32.83063 -10.8727,-24.70745 -11.75841,8.1245 3.95467,27.75133 10.8727,24.70745 z m 19.49219,-15.59033 c 8.23537,-1.67901 8.68681,-35.46002 -5.99932,-29.39998 -14.68878,6.06136 -2.22946,31.08164 5.99932,29.39998 l 0,0 z m 43.00373,75.59676 c 1.46122,11.15914 -8.18653,16.67007 -17.63497,9.47616 -30.07846,-22.90039 49.80164,-34.32484 44.53623,-65.61108 -4.37046,-25.96935 -84.05125,-17.97421 -93.12481,22.66015 -6.14189,27.48337 25.28163,65.6124 58.07002,65.6124 16.13019,0 34.73535,-14.56469 38.21615,-33.01542 2.65845,-14.0697 -31.28228,-8.43205 -30.06262,0.87779 l 0,0 z" />
  </g>
</svg>
