<?xml version="1.0" encoding="UTF-8" standalone="no"?>
<!-- Created with Inkscape (http://www.inkscape.org/) -->

<svg
   xmlns:dc="http://purl.org/dc/elements/1.1/"
   xmlns:cc="http://creativecommons.org/ns#"
   xmlns:rdf="http://www.w3.org/1999/02/22-rdf-syntax-ns#"
   xmlns:svg="http://www.w3.org/2000/svg"
   xmlns="http://www.w3.org/2000/svg"
   xmlns:sodipodi="http://sodipodi.sourceforge.net/DTD/sodipodi-0.dtd"
   xmlns:inkscape="http://www.inkscape.org/namespaces/inkscape"
   width="1559.9493"
   height="551.39075"
   id="svg2"
   version="1.1"
   inkscape:version="0.48.4 r9939"
   sodipodi:docname="New document 14">
  <defs
     id="defs4">
    <inkscape:path-effect
       is_visible="true"
       id="path-effect6209-1-3-5-7-6-4-0"
       effect="spiro" />
  </defs>
  <sodipodi:namedview
     id="base"
     pagecolor="#ffffff"
     bordercolor="#666666"
     borderopacity="1.0"
     inkscape:pageopacity="0.0"
     inkscape:pageshadow="2"
     inkscape:zoom="0.35"
     inkscape:cx="766.40322"
     inkscape:cy="227.12396"
     inkscape:document-units="px"
     inkscape:current-layer="layer1"
     showgrid="false"
     inkscape:snap-nodes="false"
     inkscape:snap-bbox="true"
     inkscape:window-width="1920"
     inkscape:window-height="1021"
     inkscape:window-x="0"
     inkscape:window-y="27"
     inkscape:window-maximized="1"
     inkscape:snap-global="false"
     showborder="true"
     inkscape:showpageshadow="false"
     fit-margin-top="0"
     fit-margin-left="0"
     fit-margin-right="0"
     fit-margin-bottom="0">
    <inkscape:grid
       type="xygrid"
       id="grid6061"
       empspacing="5"
       visible="true"
       enabled="true"
       snapvisiblegridlinesonly="true"
       originx="317.11751px"
       originy="-270.0189px" />
  </sodipodi:namedview>
  <metadata
     id="metadata7">
    <rdf:RDF>
      <cc:Work
         rdf:about="">
        <dc:format>image/svg+xml</dc:format>
        <dc:type
           rdf:resource="http://purl.org/dc/dcmitype/StillImage" />
        <dc:title></dc:title>
      </cc:Work>
    </rdf:RDF>
  </metadata>
  <g
     inkscape:label="Layer 1"
     inkscape:groupmode="layer"
     id="layer1"
     transform="translate(317.11751,-230.95255)">
    <g
       style="fill:#6b8e9f;fill-opacity:1"
       transform="matrix(2.386413,0,0,2.3942513,-525.88831,-1714.6151)"
       id="g7332-8-6-2"
       inkscape:export-filename="/home/andreasn/SparkleShare/gnome-marketing/guadec/140x90-banner.png"
       inkscape:export-xdpi="90"
       inkscape:export-ydpi="90">
      <path
         style="fill:#6b8e9f;fill-opacity:1;stroke:none"
         d="m 462.9377,929.82559 0,-31.51998 5.2544,-6.19774 16.9759,0 11.3172,-13.2809 4.4461,0 2.8293,-26.20762 2.8294,26.20762 5.2544,0 6.2649,-7.4373 0,-20.71819 3.0314,-5.48943 2.223,-32.22829 2.223,32.22829 2.8294,5.48943 0,18.94741 1.9403,2.74471 1.6168,0 1.4952,-2.74471 0,-18.94741 3.6773,-5.48943 2.3856,-32.58245 2.3854,32.58245 3.8795,5.48943 0,21.69212 4.0418,0 5.6587,-12.30696 6.467,26.91594 30.3141,0.35415 21.0177,-8.49976 5.4565,-13.10381 0,-8.14562 5.4565,-6.72898 6.0629,0.35416 0,-7.4373 2.4252,-6.37484 2.8292,5.66652 -0.4041,7.08315 42.0355,0 4.0419,17.70785 21.2198,12.74965 0,14.8746 11.9236,12.3955 0,23.37434 -251.4048,-1.4166"
         id="path6207-1-1-2"
         inkscape:path-effect="#path-effect6209-1-3-5-7-6-4-0"
         inkscape:original-d="m 462.9377,929.82559 0,-31.51998 5.2544,-6.19774 16.9759,0 11.3172,-13.2809 4.4461,0 2.8293,-26.20762 2.8294,26.20762 5.2544,0 6.2649,-7.4373 0,-20.71819 3.0314,-5.48943 2.223,-32.22829 2.223,32.22829 2.8294,5.48943 0,18.94741 1.9403,2.74471 1.6168,0 1.4952,-2.74471 0,-18.94741 3.6773,-5.48943 2.3856,-32.58245 2.3854,32.58245 3.8795,5.48943 0,21.69212 4.0418,0 5.6587,-12.30696 6.467,26.91594 30.3141,0.35415 21.0177,-8.49976 5.4565,-13.10381 0,-8.14562 5.4565,-6.72898 6.0629,0.35416 0,-7.4373 2.4252,-6.37484 2.8292,5.66652 -0.4041,7.08315 42.0355,0 4.0419,17.70785 21.2198,12.74965 0,14.8746 11.9236,12.3955 0,23.37434 z"
         inkscape:connector-curvature="0"
         sodipodi:nodetypes="ccccccccccccccccccccccccccccccccccccccccccccc" />
      <rect
         y="850.79175"
         x="170.26135"
         height="61.399143"
         width="36.626114"
         id="rect5028-7-7-7"
         style="color:#000000;fill:#6b8e9f;fill-opacity:1;fill-rule:nonzero;stroke:none;stroke-width:0.99999994;marker:none;visibility:visible;display:inline;overflow:visible;enable-background:new" />
      <rect
         style="color:#000000;fill:#6b8e9f;fill-opacity:1;fill-rule:nonzero;stroke:none;stroke-width:0.99999994;marker:none;visibility:visible;display:inline;overflow:visible;enable-background:new"
         id="rect5030-3-7-1"
         width="36.626114"
         height="61.399143"
         x="119.39172"
         y="850.79175" />
      <g
         id="g5036-0-2-1"
         transform="matrix(0.55877953,0,0,0.55877953,-207.11092,503.27998)"
         style="fill:#6b8e9f;fill-opacity:1">
        <path
           d="m 889,701.36218 c 0,3.31371 -2.68629,6 -6,6 -3.31371,0 -6,-2.68629 -6,-6 0,-3.31371 2.68629,-6 6,-6 3.31371,0 6,2.68629 6,6 z"
           sodipodi:ry="6"
           sodipodi:rx="6"
           sodipodi:cy="701.36218"
           sodipodi:cx="883"
           id="path5032-8-3-6"
           style="color:#000000;fill:#6b8e9f;fill-opacity:1;fill-rule:nonzero;stroke:none;stroke-width:0.99999994;marker:none;visibility:visible;display:inline;overflow:visible;enable-background:new"
           sodipodi:type="arc" />
        <rect
           y="705.86218"
           x="881.625"
           height="16.625"
           width="3"
           id="rect5034-9-4-8"
           style="color:#000000;fill:#6b8e9f;fill-opacity:1;fill-rule:nonzero;stroke:none;stroke-width:0.99999994;marker:none;visibility:visible;display:inline;overflow:visible;enable-background:new" />
      </g>
      <g
         transform="matrix(0.55877953,0,0,0.55877953,-196.49003,503.27998)"
         id="g5040-9-7-5"
         style="fill:#6b8e9f;fill-opacity:1">
        <path
           sodipodi:type="arc"
           style="color:#000000;fill:#6b8e9f;fill-opacity:1;fill-rule:nonzero;stroke:none;stroke-width:0.99999994;marker:none;visibility:visible;display:inline;overflow:visible;enable-background:new"
           id="path5042-5-7-9"
           sodipodi:cx="883"
           sodipodi:cy="701.36218"
           sodipodi:rx="6"
           sodipodi:ry="6"
           d="m 889,701.36218 c 0,3.31371 -2.68629,6 -6,6 -3.31371,0 -6,-2.68629 -6,-6 0,-3.31371 2.68629,-6 6,-6 3.31371,0 6,2.68629 6,6 z" />
        <rect
           style="color:#000000;fill:#6b8e9f;fill-opacity:1;fill-rule:nonzero;stroke:none;stroke-width:0.99999994;marker:none;visibility:visible;display:inline;overflow:visible;enable-background:new"
           id="rect5044-7-5-6"
           width="3"
           height="16.625"
           x="881.625"
           y="705.86218" />
      </g>
      <g
         id="g5046-3-0-8"
         transform="matrix(0.55877953,0,0,0.55877953,-185.86914,503.27998)"
         style="fill:#6b8e9f;fill-opacity:1">
        <path
           d="m 889,701.36218 c 0,3.31371 -2.68629,6 -6,6 -3.31371,0 -6,-2.68629 -6,-6 0,-3.31371 2.68629,-6 6,-6 3.31371,0 6,2.68629 6,6 z"
           sodipodi:ry="6"
           sodipodi:rx="6"
           sodipodi:cy="701.36218"
           sodipodi:cx="883"
           id="path5048-7-1-1"
           style="color:#000000;fill:#6b8e9f;fill-opacity:1;fill-rule:nonzero;stroke:none;stroke-width:0.99999994;marker:none;visibility:visible;display:inline;overflow:visible;enable-background:new"
           sodipodi:type="arc" />
        <rect
           y="705.86218"
           x="881.625"
           height="16.625"
           width="3"
           id="rect5050-2-2-3"
           style="color:#000000;fill:#6b8e9f;fill-opacity:1;fill-rule:nonzero;stroke:none;stroke-width:0.99999994;marker:none;visibility:visible;display:inline;overflow:visible;enable-background:new" />
      </g>
      <g
         transform="matrix(0.55877953,0,0,0.55877953,-217.73181,503.27998)"
         id="g5052-6-6-0"
         style="fill:#6b8e9f;fill-opacity:1">
        <path
           sodipodi:type="arc"
           style="color:#000000;fill:#6b8e9f;fill-opacity:1;fill-rule:nonzero;stroke:none;stroke-width:0.99999994;marker:none;visibility:visible;display:inline;overflow:visible;enable-background:new"
           id="path5054-7-8-7"
           sodipodi:cx="883"
           sodipodi:cy="701.36218"
           sodipodi:rx="6"
           sodipodi:ry="6"
           d="m 889,701.36218 c 0,3.31371 -2.68629,6 -6,6 -3.31371,0 -6,-2.68629 -6,-6 0,-3.31371 2.68629,-6 6,-6 3.31371,0 6,2.68629 6,6 z" />
        <rect
           style="color:#000000;fill:#6b8e9f;fill-opacity:1;fill-rule:nonzero;stroke:none;stroke-width:0.99999994;marker:none;visibility:visible;display:inline;overflow:visible;enable-background:new"
           id="rect5056-8-8-6"
           width="3"
           height="16.625"
           x="881.625"
           y="705.86218" />
      </g>
      <g
         style="fill:#6b8e9f;fill-opacity:1"
         transform="matrix(0.55877953,0,0,0.55877953,-154.00647,503.27998)"
         id="g6541-6-7-0">
        <path
           sodipodi:type="arc"
           style="color:#000000;fill:#6b8e9f;fill-opacity:1;fill-rule:nonzero;stroke:none;stroke-width:0.99999994;marker:none;visibility:visible;display:inline;overflow:visible;enable-background:new"
           id="path6543-9-5-3"
           sodipodi:cx="883"
           sodipodi:cy="701.36218"
           sodipodi:rx="6"
           sodipodi:ry="6"
           d="m 889,701.36218 c 0,3.31371 -2.68629,6 -6,6 -3.31371,0 -6,-2.68629 -6,-6 0,-3.31371 2.68629,-6 6,-6 3.31371,0 6,2.68629 6,6 z" />
        <rect
           style="color:#000000;fill:#6b8e9f;fill-opacity:1;fill-rule:nonzero;stroke:none;stroke-width:0.99999994;marker:none;visibility:visible;display:inline;overflow:visible;enable-background:new"
           id="rect6545-0-7-8"
           width="3"
           height="16.625"
           x="881.625"
           y="705.86218" />
      </g>
      <g
         style="fill:#6b8e9f;fill-opacity:1"
         id="g6547-3-2-8"
         transform="matrix(0.55877953,0,0,0.55877953,-143.38558,503.27998)">
        <path
           d="m 889,701.36218 c 0,3.31371 -2.68629,6 -6,6 -3.31371,0 -6,-2.68629 -6,-6 0,-3.31371 2.68629,-6 6,-6 3.31371,0 6,2.68629 6,6 z"
           sodipodi:ry="6"
           sodipodi:rx="6"
           sodipodi:cy="701.36218"
           sodipodi:cx="883"
           id="path6549-8-7-4"
           style="color:#000000;fill:#6b8e9f;fill-opacity:1;fill-rule:nonzero;stroke:none;stroke-width:0.99999994;marker:none;visibility:visible;display:inline;overflow:visible;enable-background:new"
           sodipodi:type="arc" />
        <rect
           y="705.86218"
           x="881.625"
           height="16.625"
           width="3"
           id="rect6551-3-7-8"
           style="color:#000000;fill:#6b8e9f;fill-opacity:1;fill-rule:nonzero;stroke:none;stroke-width:0.99999994;marker:none;visibility:visible;display:inline;overflow:visible;enable-background:new" />
      </g>
      <g
         style="fill:#6b8e9f;fill-opacity:1"
         transform="matrix(0.55877953,0,0,0.55877953,-132.76469,503.27998)"
         id="g6553-7-7-6">
        <path
           sodipodi:type="arc"
           style="color:#000000;fill:#6b8e9f;fill-opacity:1;fill-rule:nonzero;stroke:none;stroke-width:0.99999994;marker:none;visibility:visible;display:inline;overflow:visible;enable-background:new"
           id="path6555-5-9-1"
           sodipodi:cx="883"
           sodipodi:cy="701.36218"
           sodipodi:rx="6"
           sodipodi:ry="6"
           d="m 889,701.36218 c 0,3.31371 -2.68629,6 -6,6 -3.31371,0 -6,-2.68629 -6,-6 0,-3.31371 2.68629,-6 6,-6 3.31371,0 6,2.68629 6,6 z" />
        <rect
           style="color:#000000;fill:#6b8e9f;fill-opacity:1;fill-rule:nonzero;stroke:none;stroke-width:0.99999994;marker:none;visibility:visible;display:inline;overflow:visible;enable-background:new"
           id="rect6557-2-1-1"
           width="3"
           height="16.625"
           x="881.625"
           y="705.86218" />
      </g>
      <g
         style="fill:#6b8e9f;fill-opacity:1"
         id="g6559-5-7-4"
         transform="matrix(0.55877953,0,0,0.55877953,-164.62736,503.27998)">
        <path
           d="m 889,701.36218 c 0,3.31371 -2.68629,6 -6,6 -3.31371,0 -6,-2.68629 -6,-6 0,-3.31371 2.68629,-6 6,-6 3.31371,0 6,2.68629 6,6 z"
           sodipodi:ry="6"
           sodipodi:rx="6"
           sodipodi:cy="701.36218"
           sodipodi:cx="883"
           id="path6561-8-2-8"
           style="color:#000000;fill:#6b8e9f;fill-opacity:1;fill-rule:nonzero;stroke:none;stroke-width:0.99999994;marker:none;visibility:visible;display:inline;overflow:visible;enable-background:new"
           sodipodi:type="arc" />
        <rect
           y="705.86218"
           x="881.625"
           height="16.625"
           width="3"
           id="rect6563-7-6-5"
           style="color:#000000;fill:#6b8e9f;fill-opacity:1;fill-rule:nonzero;stroke:none;stroke-width:0.99999994;marker:none;visibility:visible;display:inline;overflow:visible;enable-background:new" />
      </g>
      <g
         id="g6565-1-3-9"
         transform="matrix(0.55877953,0,0,0.55877953,-111.52291,503.27998)"
         style="fill:#6b8e9f;fill-opacity:1">
        <path
           d="m 889,701.36218 c 0,3.31371 -2.68629,6 -6,6 -3.31371,0 -6,-2.68629 -6,-6 0,-3.31371 2.68629,-6 6,-6 3.31371,0 6,2.68629 6,6 z"
           sodipodi:ry="6"
           sodipodi:rx="6"
           sodipodi:cy="701.36218"
           sodipodi:cx="883"
           id="path6567-8-7-6"
           style="color:#000000;fill:#6b8e9f;fill-opacity:1;fill-rule:nonzero;stroke:none;stroke-width:0.99999994;marker:none;visibility:visible;display:inline;overflow:visible;enable-background:new"
           sodipodi:type="arc" />
        <rect
           y="705.86218"
           x="881.625"
           height="16.625"
           width="3"
           id="rect6569-4-1-7"
           style="color:#000000;fill:#6b8e9f;fill-opacity:1;fill-rule:nonzero;stroke:none;stroke-width:0.99999994;marker:none;visibility:visible;display:inline;overflow:visible;enable-background:new" />
      </g>
      <g
         transform="matrix(0.55877953,0,0,0.55877953,-100.90202,503.27998)"
         id="g6571-9-1-3"
         style="fill:#6b8e9f;fill-opacity:1">
        <path
           sodipodi:type="arc"
           style="color:#000000;fill:#6b8e9f;fill-opacity:1;fill-rule:nonzero;stroke:none;stroke-width:0.99999994;marker:none;visibility:visible;display:inline;overflow:visible;enable-background:new"
           id="path6573-1-8-0"
           sodipodi:cx="883"
           sodipodi:cy="701.36218"
           sodipodi:rx="6"
           sodipodi:ry="6"
           d="m 889,701.36218 c 0,3.31371 -2.68629,6 -6,6 -3.31371,0 -6,-2.68629 -6,-6 0,-3.31371 2.68629,-6 6,-6 3.31371,0 6,2.68629 6,6 z" />
        <rect
           style="color:#000000;fill:#6b8e9f;fill-opacity:1;fill-rule:nonzero;stroke:none;stroke-width:0.99999994;marker:none;visibility:visible;display:inline;overflow:visible;enable-background:new"
           id="rect6575-1-8-5"
           width="3"
           height="16.625"
           x="881.625"
           y="705.86218" />
      </g>
      <g
         id="g6577-2-1-7"
         transform="matrix(0.55877953,0,0,0.55877953,-90.28113,503.27998)"
         style="fill:#6b8e9f;fill-opacity:1">
        <path
           d="m 889,701.36218 c 0,3.31371 -2.68629,6 -6,6 -3.31371,0 -6,-2.68629 -6,-6 0,-3.31371 2.68629,-6 6,-6 3.31371,0 6,2.68629 6,6 z"
           sodipodi:ry="6"
           sodipodi:rx="6"
           sodipodi:cy="701.36218"
           sodipodi:cx="883"
           id="path6579-3-2-4"
           style="color:#000000;fill:#6b8e9f;fill-opacity:1;fill-rule:nonzero;stroke:none;stroke-width:0.99999994;marker:none;visibility:visible;display:inline;overflow:visible;enable-background:new"
           sodipodi:type="arc" />
        <rect
           y="705.86218"
           x="881.625"
           height="16.625"
           width="3"
           id="rect6581-1-4-1"
           style="color:#000000;fill:#6b8e9f;fill-opacity:1;fill-rule:nonzero;stroke:none;stroke-width:0.99999994;marker:none;visibility:visible;display:inline;overflow:visible;enable-background:new" />
      </g>
      <g
         transform="matrix(0.55877953,0,0,0.55877953,-122.1438,503.27998)"
         id="g6583-1-5-5"
         style="fill:#6b8e9f;fill-opacity:1">
        <path
           sodipodi:type="arc"
           style="color:#000000;fill:#6b8e9f;fill-opacity:1;fill-rule:nonzero;stroke:none;stroke-width:0.99999994;marker:none;visibility:visible;display:inline;overflow:visible;enable-background:new"
           id="path6585-4-9-1"
           sodipodi:cx="883"
           sodipodi:cy="701.36218"
           sodipodi:rx="6"
           sodipodi:ry="6"
           d="m 889,701.36218 c 0,3.31371 -2.68629,6 -6,6 -3.31371,0 -6,-2.68629 -6,-6 0,-3.31371 2.68629,-6 6,-6 3.31371,0 6,2.68629 6,6 z" />
        <rect
           style="color:#000000;fill:#6b8e9f;fill-opacity:1;fill-rule:nonzero;stroke:none;stroke-width:0.99999994;marker:none;visibility:visible;display:inline;overflow:visible;enable-background:new"
           id="rect6587-9-1-2"
           width="3"
           height="16.625"
           x="881.625"
           y="705.86218" />
      </g>
    </g>
    <path
       inkscape:connector-curvature="0"
       id="rect3008-2-7-1-2-1"
       d="m -317.11751,453.97552 1559.94931,0 0,328.36776 -1559.94931,0 z"
       style="color:#000000;fill:#6b8e9f;fill-opacity:1;fill-rule:nonzero;stroke:none;stroke-width:0.99999994;marker:none;visibility:visible;display:inline;overflow:visible;enable-background:new"
       inkscape:export-filename="/home/andreasn/SparkleShare/gnome-marketing/guadec/140x90-banner.png"
       inkscape:export-xdpi="90"
       inkscape:export-ydpi="90" />
  </g>
</svg>
