<?xml version="1.0" encoding="UTF-8" standalone="no"?>
<!-- Created with Inkscape (http://www.inkscape.org/) -->

<svg
   xmlns:dc="http://purl.org/dc/elements/1.1/"
   xmlns:cc="http://creativecommons.org/ns#"
   xmlns:rdf="http://www.w3.org/1999/02/22-rdf-syntax-ns#"
   xmlns:svg="http://www.w3.org/2000/svg"
   xmlns="http://www.w3.org/2000/svg"
   xmlns:sodipodi="http://sodipodi.sourceforge.net/DTD/sodipodi-0.dtd"
   xmlns:inkscape="http://www.inkscape.org/namespaces/inkscape"
   width="155.22223mm"
   height="35.418888mm"
   viewBox="0 0 550.00003 125.5"
   id="svg3516"
   version="1.1"
   inkscape:version="0.91 r13725"
   sodipodi:docname="guadec-logo.svg"
   inkscape:export-filename="/home/aday/checkout/gnome-marketing/conference-brochure-2016/guadec-logo.png"
   inkscape:export-xdpi="90"
   inkscape:export-ydpi="90">
  <defs
     id="defs3518" />
  <sodipodi:namedview
     id="base"
     pagecolor="#ffffff"
     bordercolor="#666666"
     borderopacity="1.0"
     inkscape:pageopacity="0.0"
     inkscape:pageshadow="2"
     inkscape:zoom="1.4"
     inkscape:cx="311.9858"
     inkscape:cy="99.199589"
     inkscape:document-units="px"
     inkscape:current-layer="layer1"
     showgrid="true"
     fit-margin-top="0"
     fit-margin-left="0"
     fit-margin-right="0"
     fit-margin-bottom="0"
     inkscape:showpageshadow="false"
     inkscape:window-width="1920"
     inkscape:window-height="1136"
     inkscape:window-x="0"
     inkscape:window-y="27"
     inkscape:window-maximized="1"
     inkscape:snap-bbox="true"
     inkscape:bbox-paths="true"
     inkscape:bbox-nodes="true"
     inkscape:snap-nodes="false">
    <inkscape:grid
       type="xygrid"
       id="grid3542"
       originx="10.000002"
       originy="15.5" />
  </sodipodi:namedview>
  <metadata
     id="metadata3521">
    <rdf:RDF>
      <cc:Work
         rdf:about="">
        <dc:format>image/svg+xml</dc:format>
        <dc:type
           rdf:resource="http://purl.org/dc/dcmitype/StillImage" />
        <dc:title />
      </cc:Work>
    </rdf:RDF>
  </metadata>
  <g
     inkscape:label="Layer 1"
     inkscape:groupmode="layer"
     id="layer1"
     transform="translate(16.567743,-344.41827)">
    <g
       id="g7312"
       transform="matrix(1.5235009,0,0,1.5235009,-496.07574,-324.89175)"
       style="fill:#87a4b1;fill-opacity:1"
       inkscape:export-xdpi="90"
       inkscape:export-ydpi="90">
      <path
         inkscape:export-ydpi="90"
         inkscape:export-xdpi="90"
         inkscape:export-filename="/home/andreasn/SparkleShare/gnome-marketing/guadec/sponsor-2014.png"
         style="font-style:normal;font-variant:normal;font-weight:bold;font-stretch:normal;font-size:81.67692566px;line-height:125%;font-family:Cantarell;-inkscape-font-specification:'Cantarell Bold';text-align:start;letter-spacing:0px;word-spacing:0px;writing-mode:lr-tb;text-anchor:start;fill:#87a4b1;fill-opacity:1;stroke:none"
         inkscape:connector-curvature="0"
         id="path8946"
         d="m 380.95721,500.40004 0,-23.27793 -25.8099,0 0,8.82111 15.927,0 0,10.86303 c -2.45031,1.96025 -6.0441,3.34876 -10.78136,3.34876 -12.25153,0 -21.07265,-8.41274 -21.07265,-20.1742 0,-12.08818 9.63789,-19.19408 19.76582,-19.19408 5.71738,0 11.18974,2.04192 14.29346,3.67546 l 1.47019,0.81677 4.16552,-7.92266 -1.38851,-0.81677 c -4.81893,-2.69534 -11.3531,-4.98229 -18.94904,-4.98229 -19.03071,0 -29.48537,13.96677 -29.48537,28.83195 0,13.96674 9.31119,29.07699 29.64872,29.07699 13.64003,0 20.09253,-6.77919 22.21612,-9.06614" />
      <path
         inkscape:export-ydpi="90"
         inkscape:export-xdpi="90"
         inkscape:export-filename="/home/andreasn/SparkleShare/gnome-marketing/guadec/sponsor-2014.png"
         style="font-style:normal;font-variant:normal;font-weight:bold;font-stretch:normal;font-size:81.67692566px;line-height:125%;font-family:Cantarell;-inkscape-font-specification:'Cantarell Bold';text-align:start;letter-spacing:0px;word-spacing:0px;writing-mode:lr-tb;text-anchor:start;fill:#87a4b1;fill-opacity:1;stroke:none"
         inkscape:connector-curvature="0"
         id="path8948"
         d="m 416.47519,509.46618 c 22.2161,0 23.19625,-14.37515 23.19625,-21.236 0,-3.67546 -0.0817,-4e-5 -0.0817,-36.26456 l -9.96458,0 0,35.93785 c 0,1.71521 -0.16336,3.34875 -0.57174,4.81894 -1.22515,4.90061 -5.88075,7.59595 -12.57825,7.59595 -6.53415,0 -9.63788,-2.61366 -10.618,-3.67546 -2.28695,-2.45031 -2.53198,-5.309 -2.53198,-8.73943 l 0,-35.93785 -10.04627,0 0,36.83629 0,0.49007 c 0,6.28911 0.32674,20.1742 23.19625,20.1742" />
      <path
         inkscape:export-ydpi="90"
         inkscape:export-xdpi="90"
         inkscape:export-filename="/home/andreasn/SparkleShare/gnome-marketing/guadec/sponsor-2014.png"
         style="font-style:normal;font-variant:normal;font-weight:bold;font-stretch:normal;font-size:81.67692566px;line-height:125%;font-family:Cantarell;-inkscape-font-specification:'Cantarell Bold';text-align:start;letter-spacing:0px;word-spacing:0px;writing-mode:lr-tb;text-anchor:start;fill:#87a4b1;fill-opacity:1;stroke:none"
         inkscape:connector-curvature="0"
         id="path8950"
         d="m 469.0356,451.96562 -21.15435,56.68379 9.80123,0 5.63571,-14.8652 20.82761,0 5.7174,14.8652 10.373,0 -21.236,-56.68379 -9.9646,0 m 11.9248,32.67077 -14.4568,0 7.2692,-21.07265 7.1876,21.07265" />
      <path
         inkscape:export-ydpi="90"
         inkscape:export-xdpi="90"
         inkscape:export-filename="/home/andreasn/SparkleShare/gnome-marketing/guadec/sponsor-2014.png"
         style="font-style:normal;font-variant:normal;font-weight:bold;font-stretch:normal;font-size:81.67692566px;line-height:125%;font-family:Cantarell;-inkscape-font-specification:'Cantarell Bold';text-align:start;letter-spacing:0px;word-spacing:0px;writing-mode:lr-tb;text-anchor:start;fill:#87a4b1;fill-opacity:1;stroke:none"
         inkscape:connector-curvature="0"
         id="path8952"
         d="m 527.7319,461.19511 c 1.7152,0 3.3488,0.0817 4.9006,0.32671 6.7792,1.0618 14.7836,6.37081 14.7836,18.45899 0,5.30899 -1.4702,8.73943 -2.4503,10.618 -4.6556,8.57607 -13.7218,8.82111 -19.9292,8.82111 l -6.5342,0 0,-38.22481 9.2295,0 m -0.245,-9.22949 -19.0307,0 0,56.68379 14.1301,0 c 4.7372,0 9.7195,0 14.5385,-1.22516 15.7636,-3.75713 20.3375,-17.23384 20.3375,-28.75027 0,-12.49656 -6.5342,-26.70836 -29.9754,-26.70836" />
      <path
         inkscape:export-ydpi="90"
         inkscape:export-xdpi="90"
         inkscape:export-filename="/home/andreasn/SparkleShare/gnome-marketing/guadec/sponsor-2014.png"
         style="font-style:normal;font-variant:normal;font-weight:bold;font-stretch:normal;font-size:81.67692566px;line-height:125%;font-family:Cantarell;-inkscape-font-specification:'Cantarell Bold';text-align:start;letter-spacing:0px;word-spacing:0px;writing-mode:lr-tb;text-anchor:start;fill:#87a4b1;fill-opacity:1;stroke:none"
         inkscape:connector-curvature="0"
         id="path8954"
         d="m 568.1186,508.64941 37.6531,0 0,-9.22949 -27.6068,0 0,-15.35527 25.4832,0 0,-9.22949 -25.4832,0 0,-13.64005 27.6068,0 0,-9.22949 -37.6531,0 0,56.68379" />
      <path
         inkscape:export-ydpi="90"
         inkscape:export-xdpi="90"
         inkscape:export-filename="/home/andreasn/SparkleShare/gnome-marketing/guadec/sponsor-2014.png"
         style="font-style:normal;font-variant:normal;font-weight:bold;font-stretch:normal;font-size:81.67692566px;line-height:125%;font-family:Cantarell;-inkscape-font-specification:'Cantarell Bold';text-align:start;letter-spacing:0px;word-spacing:0px;writing-mode:lr-tb;text-anchor:start;fill:#87a4b1;fill-opacity:1;stroke:none"
         inkscape:connector-curvature="0"
         id="path8956"
         d="m 643.1044,451.55724 c -18.3773,0 -30.0571,12.49658 -30.0571,28.83195 0,16.09034 11.1897,29.07699 29.567,29.07699 5.2274,0 11.3531,-1.22516 17.3155,-3.75714 l 1.4702,-0.57174 -3.267,-8.00434 -1.4702,0.49006 c -4.4106,1.55186 -8.6578,2.36863 -12.2516,2.36863 -13.2316,0 -21.236,-9.14782 -21.236,-19.68414 0,-10.2096 7.4326,-19.4391 19.7658,-19.4391 2.532,0 6.6976,0.32671 12.9867,2.53198 l 1.5518,0.57174 3.1038,-8.65775 -1.4702,-0.57174 c -5.9624,-2.36863 -11.5982,-3.1854 -16.0087,-3.1854" />
    </g>
  </g>
</svg>
