<?xml version="1.0" encoding="UTF-8" standalone="no"?>
<!-- Created with Inkscape (http://www.inkscape.org/) -->

<svg
   xmlns:dc="http://purl.org/dc/elements/1.1/"
   xmlns:cc="http://creativecommons.org/ns#"
   xmlns:rdf="http://www.w3.org/1999/02/22-rdf-syntax-ns#"
   xmlns:svg="http://www.w3.org/2000/svg"
   xmlns="http://www.w3.org/2000/svg"
   xmlns:xlink="http://www.w3.org/1999/xlink"
   xmlns:sodipodi="http://sodipodi.sourceforge.net/DTD/sodipodi-0.dtd"
   xmlns:inkscape="http://www.inkscape.org/namespaces/inkscape"
   width="744.09448819"
   height="1052.3622047"
   id="svg2"
   version="1.1"
   inkscape:version="0.48.4 r9939"
   sodipodi:docname="New document 4">
  <defs
     id="defs4">
    <linearGradient
       y2="203.94012"
       x2="513.42859"
       y1="760.55048"
       x1="513.42859"
       gradientTransform="matrix(0.99226805,0,0,1.3453243,-9.7463226,-240.14018)"
       gradientUnits="userSpaceOnUse"
       id="linearGradient6247"
       xlink:href="#linearGradient3778-2"
       inkscape:collect="always" />
    <linearGradient
       inkscape:collect="always"
       id="linearGradient3778-2">
      <stop
         style="stop-color:#688c9d;stop-opacity:1"
         offset="0"
         id="stop3780-7" />
      <stop
         style="stop-color:#93adb9;stop-opacity:1"
         offset="1"
         id="stop3782-6" />
    </linearGradient>
    <inkscape:path-effect
       effect="spiro"
       id="path-effect6209-1-3-5-7"
       is_visible="true" />
    <linearGradient
       y2="203.94012"
       x2="513.42859"
       y1="760.55048"
       x1="513.42859"
       gradientTransform="matrix(0.99226805,0,0,1.3453243,-11.173267,-228.08629)"
       gradientUnits="userSpaceOnUse"
       id="linearGradient6284-7"
       xlink:href="#linearGradient3778-2-5"
       inkscape:collect="always" />
    <linearGradient
       inkscape:collect="always"
       id="linearGradient3778-2-5">
      <stop
         style="stop-color:#688c9d;stop-opacity:1"
         offset="0"
         id="stop3780-7-7" />
      <stop
         style="stop-color:#93adb9;stop-opacity:1"
         offset="1"
         id="stop3782-6-9" />
    </linearGradient>
  </defs>
  <sodipodi:namedview
     id="base"
     pagecolor="#ffffff"
     bordercolor="#666666"
     borderopacity="1.0"
     inkscape:pageopacity="0.0"
     inkscape:pageshadow="2"
     inkscape:zoom="0.5"
     inkscape:cx="755.13682"
     inkscape:cy="565.65459"
     inkscape:document-units="px"
     inkscape:current-layer="layer1"
     showgrid="false"
     inkscape:snap-nodes="false"
     inkscape:snap-bbox="true"
     inkscape:window-width="1920"
     inkscape:window-height="1021"
     inkscape:window-x="0"
     inkscape:window-y="27"
     inkscape:window-maximized="1"
     inkscape:snap-global="false"
     showborder="true"
     inkscape:showpageshadow="false">
    <inkscape:grid
       type="xygrid"
       id="grid6061"
       empspacing="5"
       visible="true"
       enabled="true"
       snapvisiblegridlinesonly="true" />
  </sodipodi:namedview>
  <metadata
     id="metadata7">
    <rdf:RDF>
      <cc:Work
         rdf:about="">
        <dc:format>image/svg+xml</dc:format>
        <dc:type
           rdf:resource="http://purl.org/dc/dcmitype/StillImage" />
        <dc:title></dc:title>
      </cc:Work>
    </rdf:RDF>
  </metadata>
  <g
     inkscape:label="Layer 1"
     inkscape:groupmode="layer"
     id="layer1">
    <g
       id="g7332"
       transform="translate(-34.426967,12.053889)"
       style="fill:#6b8e9f;fill-opacity:1">
      <path
         sodipodi:nodetypes="ccccccccccccccccccccccccccccccccccccccccccccc"
         inkscape:connector-curvature="0"
         inkscape:original-d="m 462.9377,929.82559 0,-31.51998 5.2544,-6.19774 16.9759,0 11.3172,-13.2809 4.4461,0 2.8293,-26.20762 2.8294,26.20762 5.2544,0 6.2649,-7.4373 0,-20.71819 3.0314,-5.48943 2.223,-32.22829 2.223,32.22829 2.8294,5.48943 0,18.94741 1.9403,2.74471 1.6168,0 1.4952,-2.74471 0,-18.94741 3.6773,-5.48943 2.3856,-32.58245 2.3854,32.58245 3.8795,5.48943 0,21.69212 4.0418,0 5.6587,-12.30696 6.467,26.91594 30.3141,0.35415 21.0177,-8.49976 5.4565,-13.10381 0,-8.14562 5.4565,-6.72898 6.0629,0.35416 0,-7.4373 2.4252,-6.37484 2.8292,5.66652 -0.4041,7.08315 42.0355,0 4.0419,17.70785 21.2198,12.74965 0,14.8746 11.9236,12.3955 0,23.37434 z"
         inkscape:path-effect="#path-effect6209-1-3-5-7"
         id="path6207"
         d="m 462.9377,929.82559 0,-31.51998 5.2544,-6.19774 16.9759,0 11.3172,-13.2809 4.4461,0 2.8293,-26.20762 2.8294,26.20762 5.2544,0 6.2649,-7.4373 0,-20.71819 3.0314,-5.48943 2.223,-32.22829 2.223,32.22829 2.8294,5.48943 0,18.94741 1.9403,2.74471 1.6168,0 1.4952,-2.74471 0,-18.94741 3.6773,-5.48943 2.3856,-32.58245 2.3854,32.58245 3.8795,5.48943 0,21.69212 4.0418,0 5.6587,-12.30696 6.467,26.91594 30.3141,0.35415 21.0177,-8.49976 5.4565,-13.10381 0,-8.14562 5.4565,-6.72898 6.0629,0.35416 0,-7.4373 2.4252,-6.37484 2.8292,5.66652 -0.4041,7.08315 42.0355,0 4.0419,17.70785 21.2198,12.74965 0,14.8746 11.9236,12.3955 0,23.37434 -251.4048,-1.4166"
         style="fill:#6b8e9f;fill-opacity:1;stroke:none" />
      <rect
         style="color:#000000;fill:#6b8e9f;fill-opacity:1;fill-rule:nonzero;stroke:none;stroke-width:0.99999994000000003;marker:none;visibility:visible;display:inline;overflow:visible;enable-background:new"
         id="rect5028"
         width="36.626114"
         height="61.399143"
         x="170.26135"
         y="850.79175" />
      <rect
         y="850.79175"
         x="119.39172"
         height="61.399143"
         width="36.626114"
         id="rect5030"
         style="color:#000000;fill:#6b8e9f;fill-opacity:1;fill-rule:nonzero;stroke:none;stroke-width:0.99999994000000003;marker:none;visibility:visible;display:inline;overflow:visible;enable-background:new" />
      <g
         style="fill:#6b8e9f;fill-opacity:1"
         transform="matrix(0.55877953,0,0,0.55877953,-207.11092,503.27998)"
         id="g5036">
        <path
           sodipodi:type="arc"
           style="color:#000000;fill:#6b8e9f;fill-opacity:1;fill-rule:nonzero;stroke:none;stroke-width:0.99999994000000003;marker:none;visibility:visible;display:inline;overflow:visible;enable-background:new"
           id="path5032"
           sodipodi:cx="883"
           sodipodi:cy="701.36218"
           sodipodi:rx="6"
           sodipodi:ry="6"
           d="m 889,701.36218 c 0,3.31371 -2.68629,6 -6,6 -3.31371,0 -6,-2.68629 -6,-6 0,-3.31371 2.68629,-6 6,-6 3.31371,0 6,2.68629 6,6 z" />
        <rect
           style="color:#000000;fill:#6b8e9f;fill-opacity:1;fill-rule:nonzero;stroke:none;stroke-width:0.99999994000000003;marker:none;visibility:visible;display:inline;overflow:visible;enable-background:new"
           id="rect5034"
           width="3"
           height="16.625"
           x="881.625"
           y="705.86218" />
      </g>
      <g
         style="fill:#6b8e9f;fill-opacity:1"
         id="g5040"
         transform="matrix(0.55877953,0,0,0.55877953,-196.49003,503.27998)">
        <path
           d="m 889,701.36218 c 0,3.31371 -2.68629,6 -6,6 -3.31371,0 -6,-2.68629 -6,-6 0,-3.31371 2.68629,-6 6,-6 3.31371,0 6,2.68629 6,6 z"
           sodipodi:ry="6"
           sodipodi:rx="6"
           sodipodi:cy="701.36218"
           sodipodi:cx="883"
           id="path5042"
           style="color:#000000;fill:#6b8e9f;fill-opacity:1;fill-rule:nonzero;stroke:none;stroke-width:0.99999994000000003;marker:none;visibility:visible;display:inline;overflow:visible;enable-background:new"
           sodipodi:type="arc" />
        <rect
           y="705.86218"
           x="881.625"
           height="16.625"
           width="3"
           id="rect5044"
           style="color:#000000;fill:#6b8e9f;fill-opacity:1;fill-rule:nonzero;stroke:none;stroke-width:0.99999994000000003;marker:none;visibility:visible;display:inline;overflow:visible;enable-background:new" />
      </g>
      <g
         style="fill:#6b8e9f;fill-opacity:1"
         transform="matrix(0.55877953,0,0,0.55877953,-185.86914,503.27998)"
         id="g5046">
        <path
           sodipodi:type="arc"
           style="color:#000000;fill:#6b8e9f;fill-opacity:1;fill-rule:nonzero;stroke:none;stroke-width:0.99999994000000003;marker:none;visibility:visible;display:inline;overflow:visible;enable-background:new"
           id="path5048"
           sodipodi:cx="883"
           sodipodi:cy="701.36218"
           sodipodi:rx="6"
           sodipodi:ry="6"
           d="m 889,701.36218 c 0,3.31371 -2.68629,6 -6,6 -3.31371,0 -6,-2.68629 -6,-6 0,-3.31371 2.68629,-6 6,-6 3.31371,0 6,2.68629 6,6 z" />
        <rect
           style="color:#000000;fill:#6b8e9f;fill-opacity:1;fill-rule:nonzero;stroke:none;stroke-width:0.99999994000000003;marker:none;visibility:visible;display:inline;overflow:visible;enable-background:new"
           id="rect5050"
           width="3"
           height="16.625"
           x="881.625"
           y="705.86218" />
      </g>
      <g
         style="fill:#6b8e9f;fill-opacity:1"
         id="g5052"
         transform="matrix(0.55877953,0,0,0.55877953,-217.73181,503.27998)">
        <path
           d="m 889,701.36218 c 0,3.31371 -2.68629,6 -6,6 -3.31371,0 -6,-2.68629 -6,-6 0,-3.31371 2.68629,-6 6,-6 3.31371,0 6,2.68629 6,6 z"
           sodipodi:ry="6"
           sodipodi:rx="6"
           sodipodi:cy="701.36218"
           sodipodi:cx="883"
           id="path5054"
           style="color:#000000;fill:#6b8e9f;fill-opacity:1;fill-rule:nonzero;stroke:none;stroke-width:0.99999994000000003;marker:none;visibility:visible;display:inline;overflow:visible;enable-background:new"
           sodipodi:type="arc" />
        <rect
           y="705.86218"
           x="881.625"
           height="16.625"
           width="3"
           id="rect5056"
           style="color:#000000;fill:#6b8e9f;fill-opacity:1;fill-rule:nonzero;stroke:none;stroke-width:0.99999994000000003;marker:none;visibility:visible;display:inline;overflow:visible;enable-background:new" />
      </g>
      <g
         id="g6541"
         transform="matrix(0.55877953,0,0,0.55877953,-154.00647,503.27998)"
         style="fill:#6b8e9f;fill-opacity:1">
        <path
           d="m 889,701.36218 c 0,3.31371 -2.68629,6 -6,6 -3.31371,0 -6,-2.68629 -6,-6 0,-3.31371 2.68629,-6 6,-6 3.31371,0 6,2.68629 6,6 z"
           sodipodi:ry="6"
           sodipodi:rx="6"
           sodipodi:cy="701.36218"
           sodipodi:cx="883"
           id="path6543"
           style="color:#000000;fill:#6b8e9f;fill-opacity:1;fill-rule:nonzero;stroke:none;stroke-width:0.99999994000000003;marker:none;visibility:visible;display:inline;overflow:visible;enable-background:new"
           sodipodi:type="arc" />
        <rect
           y="705.86218"
           x="881.625"
           height="16.625"
           width="3"
           id="rect6545"
           style="color:#000000;fill:#6b8e9f;fill-opacity:1;fill-rule:nonzero;stroke:none;stroke-width:0.99999994000000003;marker:none;visibility:visible;display:inline;overflow:visible;enable-background:new" />
      </g>
      <g
         transform="matrix(0.55877953,0,0,0.55877953,-143.38558,503.27998)"
         id="g6547"
         style="fill:#6b8e9f;fill-opacity:1">
        <path
           sodipodi:type="arc"
           style="color:#000000;fill:#6b8e9f;fill-opacity:1;fill-rule:nonzero;stroke:none;stroke-width:0.99999994000000003;marker:none;visibility:visible;display:inline;overflow:visible;enable-background:new"
           id="path6549"
           sodipodi:cx="883"
           sodipodi:cy="701.36218"
           sodipodi:rx="6"
           sodipodi:ry="6"
           d="m 889,701.36218 c 0,3.31371 -2.68629,6 -6,6 -3.31371,0 -6,-2.68629 -6,-6 0,-3.31371 2.68629,-6 6,-6 3.31371,0 6,2.68629 6,6 z" />
        <rect
           style="color:#000000;fill:#6b8e9f;fill-opacity:1;fill-rule:nonzero;stroke:none;stroke-width:0.99999994000000003;marker:none;visibility:visible;display:inline;overflow:visible;enable-background:new"
           id="rect6551"
           width="3"
           height="16.625"
           x="881.625"
           y="705.86218" />
      </g>
      <g
         id="g6553"
         transform="matrix(0.55877953,0,0,0.55877953,-132.76469,503.27998)"
         style="fill:#6b8e9f;fill-opacity:1">
        <path
           d="m 889,701.36218 c 0,3.31371 -2.68629,6 -6,6 -3.31371,0 -6,-2.68629 -6,-6 0,-3.31371 2.68629,-6 6,-6 3.31371,0 6,2.68629 6,6 z"
           sodipodi:ry="6"
           sodipodi:rx="6"
           sodipodi:cy="701.36218"
           sodipodi:cx="883"
           id="path6555"
           style="color:#000000;fill:#6b8e9f;fill-opacity:1;fill-rule:nonzero;stroke:none;stroke-width:0.99999994000000003;marker:none;visibility:visible;display:inline;overflow:visible;enable-background:new"
           sodipodi:type="arc" />
        <rect
           y="705.86218"
           x="881.625"
           height="16.625"
           width="3"
           id="rect6557"
           style="color:#000000;fill:#6b8e9f;fill-opacity:1;fill-rule:nonzero;stroke:none;stroke-width:0.99999994000000003;marker:none;visibility:visible;display:inline;overflow:visible;enable-background:new" />
      </g>
      <g
         transform="matrix(0.55877953,0,0,0.55877953,-164.62736,503.27998)"
         id="g6559"
         style="fill:#6b8e9f;fill-opacity:1">
        <path
           sodipodi:type="arc"
           style="color:#000000;fill:#6b8e9f;fill-opacity:1;fill-rule:nonzero;stroke:none;stroke-width:0.99999994000000003;marker:none;visibility:visible;display:inline;overflow:visible;enable-background:new"
           id="path6561"
           sodipodi:cx="883"
           sodipodi:cy="701.36218"
           sodipodi:rx="6"
           sodipodi:ry="6"
           d="m 889,701.36218 c 0,3.31371 -2.68629,6 -6,6 -3.31371,0 -6,-2.68629 -6,-6 0,-3.31371 2.68629,-6 6,-6 3.31371,0 6,2.68629 6,6 z" />
        <rect
           style="color:#000000;fill:#6b8e9f;fill-opacity:1;fill-rule:nonzero;stroke:none;stroke-width:0.99999994000000003;marker:none;visibility:visible;display:inline;overflow:visible;enable-background:new"
           id="rect6563"
           width="3"
           height="16.625"
           x="881.625"
           y="705.86218" />
      </g>
      <g
         style="fill:#6b8e9f;fill-opacity:1"
         transform="matrix(0.55877953,0,0,0.55877953,-111.52291,503.27998)"
         id="g6565">
        <path
           sodipodi:type="arc"
           style="color:#000000;fill:#6b8e9f;fill-opacity:1;fill-rule:nonzero;stroke:none;stroke-width:0.99999994000000003;marker:none;visibility:visible;display:inline;overflow:visible;enable-background:new"
           id="path6567"
           sodipodi:cx="883"
           sodipodi:cy="701.36218"
           sodipodi:rx="6"
           sodipodi:ry="6"
           d="m 889,701.36218 c 0,3.31371 -2.68629,6 -6,6 -3.31371,0 -6,-2.68629 -6,-6 0,-3.31371 2.68629,-6 6,-6 3.31371,0 6,2.68629 6,6 z" />
        <rect
           style="color:#000000;fill:#6b8e9f;fill-opacity:1;fill-rule:nonzero;stroke:none;stroke-width:0.99999994000000003;marker:none;visibility:visible;display:inline;overflow:visible;enable-background:new"
           id="rect6569"
           width="3"
           height="16.625"
           x="881.625"
           y="705.86218" />
      </g>
      <g
         style="fill:#6b8e9f;fill-opacity:1"
         id="g6571"
         transform="matrix(0.55877953,0,0,0.55877953,-100.90202,503.27998)">
        <path
           d="m 889,701.36218 c 0,3.31371 -2.68629,6 -6,6 -3.31371,0 -6,-2.68629 -6,-6 0,-3.31371 2.68629,-6 6,-6 3.31371,0 6,2.68629 6,6 z"
           sodipodi:ry="6"
           sodipodi:rx="6"
           sodipodi:cy="701.36218"
           sodipodi:cx="883"
           id="path6573"
           style="color:#000000;fill:#6b8e9f;fill-opacity:1;fill-rule:nonzero;stroke:none;stroke-width:0.99999994000000003;marker:none;visibility:visible;display:inline;overflow:visible;enable-background:new"
           sodipodi:type="arc" />
        <rect
           y="705.86218"
           x="881.625"
           height="16.625"
           width="3"
           id="rect6575"
           style="color:#000000;fill:#6b8e9f;fill-opacity:1;fill-rule:nonzero;stroke:none;stroke-width:0.99999994000000003;marker:none;visibility:visible;display:inline;overflow:visible;enable-background:new" />
      </g>
      <g
         style="fill:#6b8e9f;fill-opacity:1"
         transform="matrix(0.55877953,0,0,0.55877953,-90.28113,503.27998)"
         id="g6577">
        <path
           sodipodi:type="arc"
           style="color:#000000;fill:#6b8e9f;fill-opacity:1;fill-rule:nonzero;stroke:none;stroke-width:0.99999994000000003;marker:none;visibility:visible;display:inline;overflow:visible;enable-background:new"
           id="path6579"
           sodipodi:cx="883"
           sodipodi:cy="701.36218"
           sodipodi:rx="6"
           sodipodi:ry="6"
           d="m 889,701.36218 c 0,3.31371 -2.68629,6 -6,6 -3.31371,0 -6,-2.68629 -6,-6 0,-3.31371 2.68629,-6 6,-6 3.31371,0 6,2.68629 6,6 z" />
        <rect
           style="color:#000000;fill:#6b8e9f;fill-opacity:1;fill-rule:nonzero;stroke:none;stroke-width:0.99999994000000003;marker:none;visibility:visible;display:inline;overflow:visible;enable-background:new"
           id="rect6581"
           width="3"
           height="16.625"
           x="881.625"
           y="705.86218" />
      </g>
      <g
         style="fill:#6b8e9f;fill-opacity:1"
         id="g6583"
         transform="matrix(0.55877953,0,0,0.55877953,-122.1438,503.27998)">
        <path
           d="m 889,701.36218 c 0,3.31371 -2.68629,6 -6,6 -3.31371,0 -6,-2.68629 -6,-6 0,-3.31371 2.68629,-6 6,-6 3.31371,0 6,2.68629 6,6 z"
           sodipodi:ry="6"
           sodipodi:rx="6"
           sodipodi:cy="701.36218"
           sodipodi:cx="883"
           id="path6585"
           style="color:#000000;fill:#6b8e9f;fill-opacity:1;fill-rule:nonzero;stroke:none;stroke-width:0.99999994000000003;marker:none;visibility:visible;display:inline;overflow:visible;enable-background:new"
           sodipodi:type="arc" />
        <rect
           y="705.86218"
           x="881.625"
           height="16.625"
           width="3"
           id="rect6587"
           style="color:#000000;fill:#6b8e9f;fill-opacity:1;fill-rule:nonzero;stroke:none;stroke-width:0.99999994000000003;marker:none;visibility:visible;display:inline;overflow:visible;enable-background:new" />
      </g>
    </g>
    <path
       style="color:#000000;fill:#6b8e9f;fill-opacity:1;fill-rule:nonzero;stroke:none;stroke-width:0.99999994000000003;marker:none;visibility:visible;display:inline;overflow:visible;enable-background:new"
       d="m -15.284167,917.6354 769.999997,0 0,142.4287 -769.999997,0 z"
       id="rect3008-2-7"
       inkscape:connector-curvature="0" />
    <flowRoot
       xml:space="preserve"
       id="flowRoot6862"
       style="font-size:40px;font-style:normal;font-weight:normal;line-height:125%;letter-spacing:0px;word-spacing:0px;fill:#000000;fill-opacity:1;stroke:none;font-family:Sans"
       transform="translate(-1.1715725,12.384778)"><flowRegion
         id="flowRegion6864"><rect
           id="rect6866"
           width="532.82843"
           height="118.46594"
           x="104"
           y="441.36218" /></flowRegion><flowPara
         id="flowPara6868"
         style="font-size:14px">Tumblr sartorial thundercats proident, quis et enim small batch fap irony Truffaut tattooed ut locavore ad. Tote bag selvage kale chips vero, vegan sint keytar quinoa proident cardigan pug street art Williamsburg laborum ullamco. Semiotics cupidatat scenester, yr lomo Banksy consectetur lo-fi nostrud pop-up. +1 hoodie direct trade blue bottle organic pork belly.</flowPara></flowRoot>    <g
       transform="matrix(1.6627384,0,0,1.6627384,-172.00417,-163.04958)"
       style="font-size:79.21905518px;font-style:normal;font-variant:normal;font-weight:bold;font-stretch:normal;text-align:start;line-height:125%;letter-spacing:0px;word-spacing:0px;writing-mode:lr-tb;text-anchor:start;fill:#6b8e9f;fill-opacity:1;stroke:none;font-family:Cantarell;-inkscape-font-specification:Cantarell Bold"
       id="text3000-5-5-2-3-0"
       inkscape:export-filename="/home/andreasn/SparkleShare/gnome-marketing/t-shirts/guadec-2013.png"
       inkscape:export-xdpi="45"
       inkscape:export-ydpi="45">
      <path
         inkscape:connector-curvature="0"
         d="m 209.42126,269.34144 0,-22.57744 -25.03322,0 0,8.55566 15.44771,0 0,10.53614 c -2.37657,1.90125 -5.86221,3.24798 -10.45691,3.24798 -11.88285,0 -20.43852,-8.15958 -20.43852,-19.56711 0,-11.72441 9.34786,-18.61648 19.17101,-18.61648 5.54533,0 10.85301,1.98048 13.86334,3.56486 l 1.42594,0.79219 4.04017,-7.68425 -1.34672,-0.79219 c -4.67392,-2.61422 -11.01146,-4.83236 -18.37882,-4.83236 -18.45803,0 -28.59808,13.54647 -28.59808,27.96433 0,13.54644 9.03099,28.20198 28.75651,28.20198 13.22957,0 19.48789,-6.57518 21.54759,-8.79331"
         style="fill:#6b8e9f;fill-opacity:1"
         id="path6549-6-1-2-3-3" />
      <path
         inkscape:connector-curvature="0"
         d="m 243.8704,278.13475 c 21.54757,0 22.49822,-13.94256 22.49822,-20.59695 0,-3.56486 -0.0792,-4e-5 -0.0792,-35.17326 l -9.66473,0 0,34.85638 c 0,1.6636 -0.15844,3.24798 -0.55453,4.67392 -1.18829,4.75314 -5.70378,7.36738 -12.19974,7.36738 -6.33751,0 -9.34785,-2.53501 -10.29847,-3.56486 -2.21813,-2.37657 -2.45579,-5.14924 -2.45579,-8.47644 l 0,-34.85638 -9.74395,0 0,35.72779 0,0.47531 c 0,6.09986 0.3169,19.56711 22.49821,19.56711"
         style="fill:#6b8e9f;fill-opacity:1"
         id="path6551-0-5-4-9-7" />
      <path
         inkscape:connector-curvature="0"
         d="m 294.8491,222.36454 -20.51773,54.97802 9.50628,0 5.46612,-14.41787 20.20086,0 5.54533,14.41787 10.06082,0 -20.59695,-54.97802 -9.66473,0 m 11.56598,31.68762 -14.02177,0 7.0505,-20.43852 6.97127,20.43852"
         style="fill:#6b8e9f;fill-opacity:1"
         id="path6553-16-5-6-8-9" />
      <path
         inkscape:connector-curvature="0"
         d="m 351.77913,231.31629 c 1.6636,0 3.24798,0.0792 4.75315,0.31687 6.57517,1.02985 14.33864,6.1791 14.33864,17.90351 0,5.14923 -1.42594,8.47644 -2.37657,10.29848 -4.51548,8.31799 -13.3088,8.55566 -19.32945,8.55566 l -6.33752,0 0,-37.07452 8.95175,0 m -0.23766,-8.95175 -18.45803,0 0,54.97802 13.70489,0 c 4.5947,0 9.42707,0 14.10099,-1.18829 15.28927,-3.64407 19.72555,-16.71523 19.72555,-27.8851 0,-12.12051 -6.33755,-25.90463 -29.0734,-25.90463"
         style="fill:#6b8e9f;fill-opacity:1"
         id="path6555-2-6-4-0-7" />
      <path
         inkscape:connector-curvature="0"
         d="m 390.95049,277.34256 36.51998,0 0,-8.95175 -26.77604,0 0,-14.89319 24.71634,0 0,-8.95175 -24.71634,0 0,-13.22958 26.77604,0 0,-8.95175 -36.51998,0 0,54.97802"
         style="fill:#6b8e9f;fill-opacity:1"
         id="path6557-6-3-1-9-4" />
      <path
         inkscape:connector-curvature="0"
         d="m 463.67977,221.96844 c -17.82427,0 -29.15261,12.12053 -29.15261,27.96433 0,15.60613 10.85303,28.20198 28.6773,28.20198 5.07001,0 11.01145,-1.18829 16.79444,-3.64408 l 1.42594,-0.55453 -3.16876,-7.76347 -1.42594,0.47532 c -4.27783,1.50516 -8.39723,2.29735 -11.88286,2.29735 -12.83348,0 -20.59696,-8.87254 -20.59696,-19.09179 0,-9.90237 7.20895,-18.85414 19.17101,-18.85414 2.45579,0 6.49597,0.31688 12.59583,2.45579 l 1.50517,0.55454 3.01032,-8.39722 -1.42594,-0.55454 c -5.78299,-2.29735 -11.24911,-3.08954 -15.52694,-3.08954"
         style="fill:#6b8e9f;fill-opacity:1"
         id="path6559-6-5-4-4-2" />
    </g>
    <g
       id="g5813-5-3-9-5-94"
       style="fill:#6b8e9f;fill-opacity:1"
       transform="matrix(1.6526982,0,0,1.6526982,-1214.9187,-405.74825)"
       inkscape:export-filename="/home/andreasn/SparkleShare/gnome-marketing/t-shirts/guadec-2013.png"
       inkscape:export-xdpi="45"
       inkscape:export-ydpi="45">
      <text
         sodipodi:linespacing="125%"
         id="text5815-1-39-3-5-25"
         y="357.88382"
         x="792.4502"
         style="font-size:29.50051689px;font-style:normal;font-variant:normal;font-weight:normal;font-stretch:normal;text-align:start;line-height:125%;letter-spacing:0px;word-spacing:0px;writing-mode:lr-tb;text-anchor:start;fill:#6b8e9f;fill-opacity:1;stroke:none;font-family:Cantarell;-inkscape-font-specification:Cantarell"
         xml:space="preserve"><tspan
           y="357.88382"
           x="792.4502"
           id="tspan5817-3-0-7-5-4"
           sodipodi:role="line">The</tspan></text>
      <text
         xml:space="preserve"
         style="font-size:29.50051689px;font-style:normal;font-variant:normal;font-weight:normal;font-stretch:normal;text-align:start;line-height:125%;letter-spacing:0px;word-spacing:0px;writing-mode:lr-tb;text-anchor:start;fill:#6b8e9f;fill-opacity:1;stroke:none;font-family:Cantarell;-inkscape-font-specification:Cantarell"
         x="973.19745"
         y="357.88382"
         id="text5819-8-0-9-3-0"
         sodipodi:linespacing="125%"><tspan
           sodipodi:role="line"
           id="tspan5821-5-1-3-2-1"
           x="973.19745"
           y="357.88382">Conference</tspan></text>
      <g
         id="g5823-0-9-2-8-1"
         transform="matrix(0.92337906,0,0,0.92337906,65.460957,27.451834)"
         style="fill:#6b8e9f;fill-opacity:1">
        <g
           id="g5825-5-1-4-0-84"
           transform="matrix(0.11840388,0,0,0.11840388,865.19335,299.21794)"
           style="fill:#6b8e9f;fill-opacity:1">
          <g
             id="g5827-6-4-1-3-9"
             transform="matrix(1.293235,0,0,1.293235,-4878.321,-1224.915)"
             style="fill:#6b8e9f;fill-opacity:1">
            <g
               id="g5829-7-9-6-3-5"
               style="fill:#6b8e9f;fill-opacity:1;fill-rule:nonzero;stroke:none"
               transform="matrix(2.438586,0,0,2.438586,3659.952,1113.451)">
              <g
                 id="g5831-2-6-6-6-9"
                 style="fill:#6b8e9f;fill-opacity:1">
                <path
                   id="path5833-0-2-1-0-9"
                   style="fill:#6b8e9f;fill-opacity:1"
                   d="M 86.068,0 C 61.466,0 56.851,35.041 70.691,35.041 84.529,35.041 110.671,0 86.068,0 z"
                   inkscape:connector-curvature="0" />
                <path
                   id="path5835-4-2-5-1-11"
                   style="fill:#6b8e9f;fill-opacity:1"
                   d="M 45.217,30.699 C 52.586,31.149 60.671,2.577 46.821,4.374 32.976,6.171 37.845,30.249 45.217,30.699 z"
                   inkscape:connector-curvature="0" />
                <path
                   id="path5837-8-9-1-6-2"
                   style="fill:#6b8e9f;fill-opacity:1"
                   d="M 11.445,48.453 C 16.686,46.146 12.12,23.581 3.208,29.735 -5.7,35.89 6.204,50.759 11.445,48.453 z"
                   inkscape:connector-curvature="0" />
                <path
                   id="path5839-7-1-5-6-1"
                   style="fill:#6b8e9f;fill-opacity:1"
                   d="M 26.212,36.642 C 32.451,35.37 32.793,9.778 21.667,14.369 10.539,18.961 19.978,37.916 26.212,36.642 l 0,0 z"
                   inkscape:connector-curvature="0" />
                <path
                   id="path5841-6-0-6-9-0"
                   style="fill:#6b8e9f;fill-opacity:1"
                   d="m 58.791,93.913 c 1.107,8.454 -6.202,12.629 -13.36,7.179 C 22.644,83.743 83.16,75.088 79.171,51.386 75.86,31.712 15.495,37.769 8.621,68.553 3.968,89.374 27.774,118.26 52.614,118.26 c 12.22,0 26.315,-11.034 28.952,-25.012 C 83.58,82.589 57.867,86.86 58.791,93.913 l 0,0 z"
                   inkscape:connector-curvature="0" />
              </g>
            </g>
            <g
               id="g5843-2-2-7-7-6"
               style="fill:#6b8e9f;fill-opacity:1">
              <path
                 id="path5845-3-0-7-2-1"
                 style="font-size:148.699646px;font-style:normal;font-variant:normal;font-weight:bold;font-stretch:normal;text-align:start;line-height:125%;writing-mode:lr-tb;text-anchor:start;fill:#6b8e9f;fill-opacity:1;stroke:none;font-family:Bitstream Vera Sans"
                 d="m 4176.2963,1214.4401 c -15.1078,0.4069 -27.0386,5.8367 -35.8126,16.25 -9.0861,10.8369 -13.6562,25.8104 -13.6562,44.9063 0,19.0432 4.5703,33.9757 13.6562,44.8124 9.1305,10.8369 21.6664,16.25 37.6563,16.25 16.034,0 28.6014,-5.4131 37.6875,-16.25 9.0859,-10.8367 13.6251,-25.7692 13.625,-44.8124 -1e-4,-19.0959 -4.5391,-34.0694 -13.625,-44.9063 -9.0861,-10.8366 -21.6536,-16.2499 -37.6875,-16.25 -0.6246,0 -1.2296,-0.016 -1.8437,0 z m 1.125,22 c 0.2415,-0.01 0.4737,0 0.7187,0 7.8833,10e-5 13.9919,3.4114 18.3125,10.25 4.3203,6.8388 6.4999,16.4913 6.5,28.9063 0,12.3623 -2.1799,21.9427 -6.5,28.7812 -4.3204,6.8389 -10.4293,10.2812 -18.3125,10.2812 -7.8391,0 -13.8983,-3.4423 -18.2187,-10.2812 -4.3204,-6.8385 -6.4999,-16.4189 -6.5,-28.7812 0,-12.4149 2.1798,-22.0675 6.5,-28.9063 4.1852,-6.6249 10.0123,-10.0428 17.5,-10.25 z"
                 inkscape:connector-curvature="0" />
              <path
                 id="path5847-1-4-7-9-2"
                 style="font-size:148.699646px;font-style:normal;font-variant:normal;font-weight:bold;font-stretch:normal;text-align:start;line-height:125%;writing-mode:lr-tb;text-anchor:start;fill:#6b8e9f;fill-opacity:1;stroke:none;font-family:Bitstream Vera Sans"
                 d="m 4005.6293,1325.612 c -13.3076,11.1757 -33.1067,11.0472 -41.3549,11.0472 -16.6133,0 -29.7747,-5.471 -39.4842,-16.413 -9.7097,-10.9946 -14.5644,-25.8819 -14.5644,-44.6622 0,-18.9906 4.9438,-33.9305 14.8316,-44.82 9.8878,-10.8892 23.4277,-16.3339 40.62,-16.334 6.6363,10e-5 12.9831,0.7366 19.0406,2.2094 6.1019,1.473 11.8475,3.6562 17.2368,6.5494 l -6.921,20.4608 c -3.0298,-1.6586 -6.4987,-3.2932 -9.7145,-4.4424 -5.4784,-1.8411 -10.979,-2.7617 -16.5018,-2.7618 -10.2442,10e-5 -18.15,3.3932 -23.7173,10.1792 -5.523,6.7336 -8.2844,16.3867 -8.2844,28.9594 0,12.4676 2.6723,22.0945 8.0172,28.8806 5.3446,6.7861 13.3768,10.1791 22.7818,10.1791 9.5548,0 15.4728,-2.4084 18.6291,-4.9461 l 0,-20.3835 -20.7001,0 0,-20.3584 40.0855,0"
                 inkscape:connector-curvature="0" />
              <path
                 id="path5849-8-73-3-5-55"
                 style="font-size:148.699646px;font-style:normal;font-variant:normal;font-weight:bold;font-stretch:normal;text-align:start;line-height:125%;writing-mode:lr-tb;text-anchor:start;fill:#6b8e9f;fill-opacity:1;stroke:none;font-family:Bitstream Vera Sans"
                 d="m 4023.2108,1216.5605 16.2279,0 51.2775,70.8022 0,-70.8022 21.8853,0 0,117.8103 -16.2279,0 -51.2774,-70.8022 0,70.8022 -21.8854,0 0,-117.8103"
                 inkscape:connector-curvature="0" />
              <path
                 id="path5851-3-2-6-5-4"
                 style="font-size:148.699646px;font-style:normal;font-variant:normal;font-weight:bold;font-stretch:normal;text-align:start;line-height:125%;writing-mode:lr-tb;text-anchor:start;fill:#6b8e9f;fill-opacity:1;stroke:none;font-family:Bitstream Vera Sans"
                 d="m 4246.3361,1216.5605 32.7366,0 22.7151,73.5479 22.8487,-73.5479 27.6698,0 12.5,117.8103 -24.3186,0 -7.5,-73.668 -22.9823,74.0213 -16.3015,0 -22.9824,-76.5213 -7.5,76.168 -24.3854,0 12.5,-117.8103"
                 inkscape:connector-curvature="0" />
              <path
                 id="path5853-4-18-1-4-8"
                 style="font-size:148.699646px;font-style:normal;font-variant:normal;font-weight:bold;font-stretch:normal;text-align:start;line-height:125%;writing-mode:lr-tb;text-anchor:start;fill:#6b8e9f;fill-opacity:1;stroke:none;font-family:Bitstream Vera Sans"
                 d="m 4382.3597,1216.5605 69.4147,0 0,22.9624 -43.6933,0 0,24.4365 33.5877,0 0,20.4623 -33.5877,0 0,26.9868 45.1631,0 0,22.9623 -70.8845,0 0,-117.8103"
                 inkscape:connector-curvature="0" />
              <text
                 xml:space="preserve"
                 id="text5855-1-8-6-7-3"
                 style="font-size:30.68958855px;font-style:normal;font-weight:normal;fill:#6b8e9f;fill-opacity:1;stroke:none;font-family:Bitstream Vera Sans"
                 y="1215.743"
                 x="4474.6182"><tspan
                   id="tspan5857-7-5-9-2-5"
                   style="letter-spacing:11.06259632;fill:#6b8e9f;fill-opacity:1"
                   y="1215.743"
                   x="4474.6182"><tspan
                     id="tspan5859-9-55-5-4-5"
                     style="letter-spacing:0.2523815;fill:#6b8e9f;fill-opacity:1">TM</tspan></tspan></text>
            </g>
          </g>
        </g>
      </g>
    </g>
    <text
       xml:space="preserve"
       style="font-size:21.28855705px;font-style:normal;font-variant:normal;font-weight:normal;font-stretch:normal;text-align:start;line-height:125%;letter-spacing:0px;word-spacing:0px;writing-mode:lr-tb;text-anchor:start;fill:#6b8e9f;fill-opacity:1;stroke:none;font-family:Lobster;-inkscape-font-specification:Lobster"
       x="98.267853"
       y="341.80927"
       id="text3004-77-3-0-2-9-7"
       sodipodi:linespacing="125%"
       inkscape:export-filename="/home/andreasn/SparkleShare/gnome-marketing/t-shirts/guadec-2013.png"
       inkscape:export-xdpi="45"
       inkscape:export-ydpi="45"><tspan
         sodipodi:role="line"
         id="tspan3006-2-0-3-7-7-3"
         x="98.267853"
         y="341.80927"
         style="letter-spacing:4.39057159px;fill:#6b8e9f;fill-opacity:1">BRNO  CZECH REPUBLIC AUGUST 1-8</tspan></text>
  </g>
</svg>
