<svg id="Layer_1" data-name="Layer 1" xmlns="http://www.w3.org/2000/svg" viewBox="0 0 595.28 841.89">
  <title>20th-birthday-trivia</title>
  <g>
    <rect x="-28.36" y="-28.06" width="652" height="898" fill="#fff"/>
    <text transform="translate(168.1 197.32)" font-size="17.84" font-family="SourceSansPro-Bold, Source Sans Pro" font-weight="700">G<tspan x="11.38" y="0" letter-spacing="-0.01em">e</tspan><tspan x="20.45" y="0" letter-spacing="0em">t someone </tspan><tspan x="106.11" y="0" letter-spacing="-0.02em">t</tspan><tspan x="112.62" y="0">o initial </tspan><tspan x="175.98" y="0" letter-spacing="-0.01em">y</tspan><tspan x="185.13" y="0">our she</tspan><tspan x="243.17" y="0" letter-spacing="-0.01em">e</tspan><tspan x="252.24" y="0">t</tspan><tspan x="-40.29" y="16.96">under the i</tspan><tspan x="44.94" y="16.96" letter-spacing="-0.02em">t</tspan><tspan x="51.46" y="16.96">ems th</tspan><tspan x="104.48" y="16.96" letter-spacing="-0.01em">e</tspan><tspan x="113.62" y="16.96">y me</tspan><tspan x="151.02" y="16.96" letter-spacing="-0.01em">e</tspan><tspan x="160.08" y="16.96" letter-spacing="0em">t (no dupli</tspan><tspan x="240.91" y="16.96" letter-spacing="-0.01em">c</tspan><tspan x="249.06" y="16.96" letter-spacing="-0.02em">at</tspan><tspan x="264.65" y="16.96">es!):</tspan></text>
    <text transform="translate(76.89 747.77)" font-size="12.15" font-family="SourceSansPro-Light, Source Sans Pro">* Submit your ph<tspan x="82.98" y="0" letter-spacing="-0.01em">o</tspan><tspan x="89.34" y="0" letter-spacing="-0.01em">t</tspan><tspan x="93" y="0">os! </tspan><tspan x="110" y="0" letter-spacing="-0.01em">R</tspan><tspan x="116.48" y="0" letter-spacing="-0.02em">e</tspan><tspan x="122.17" y="0">ad how </tspan><tspan x="160.85" y="0" letter-spacing="-0.01em">t</tspan><tspan x="164.51" y="0">o do th</tspan><tspan x="199.19" y="0" letter-spacing="-0.01em">a</tspan><tspan x="205.02" y="0">t he</tspan><tspan x="223.53" y="0" letter-spacing="-0.01em">r</tspan><tspan x="227.26" y="0" letter-spacing="0em">e:</tspan><tspan x="0" y="14.95">h</tspan><tspan x="6.42" y="14.95" letter-spacing="-0.02em">t</tspan><tspan x="9.96" y="14.95">tps://wiki.gnome</tspan><tspan x="93.43" y="14.95" letter-spacing="-0.01em">.</tspan><tspan x="95.95" y="14.95">o</tspan><tspan x="102.45" y="14.95" letter-spacing="-0.01em">r</tspan><tspan x="106.18" y="14.95" letter-spacing="0.06em">g</tspan><tspan x="112.83" y="14.95">/En</tspan><tspan x="129.89" y="14.95" letter-spacing="-0.02em">g</tspan><tspan x="135.62" y="14.95">a</tspan><tspan x="141.59" y="14.95" letter-spacing="-0.01em">g</tspan><tspan x="147.37" y="14.95">emen</tspan><tspan x="175.44" y="14.95" letter-spacing="0.02em">t</tspan><tspan x="179.47" y="14.95">/Ph</tspan><tspan x="196.89" y="14.95" letter-spacing="-0.01em">o</tspan><tspan x="203.25" y="14.95" letter-spacing="-0.01em">t</tspan><tspan x="206.9" y="14.95">os/Ho</tspan><tspan x="236.93" y="14.95" letter-spacing="-0.02em">w</tspan><tspan x="245" y="14.95" letter-spacing="-0.06em">T</tspan><tspan x="250.64" y="14.95">o</tspan></text>
    <path d="M201.09,391.11H84.92a8.69,8.69,0,0,1-8.68-8.68V266.26a8.69,8.69,0,0,1,8.68-8.68H201.09a8.69,8.69,0,0,1,8.68,8.68V382.43A8.69,8.69,0,0,1,201.09,391.11Zm-116.17-133a8.19,8.19,0,0,0-8.18,8.18V382.43a8.19,8.19,0,0,0,8.18,8.18H201.09a8.19,8.19,0,0,0,8.18-8.18V266.26a8.19,8.19,0,0,0-8.18-8.18Z"/>
    <text transform="translate(98.69 280.41)" font-size="11.97" font-family="SourceSansPro-Light, Source Sans Pro">Someone who is a <tspan x="-3.79" y="12.97">GNOME </tspan><tspan x="35.88" y="12.97" letter-spacing="-0.01em">F</tspan><tspan x="41.46" y="12.97">ound</tspan><tspan x="67.08" y="12.97" letter-spacing="-0.01em">a</tspan><tspan x="72.82" y="12.97">tion </tspan><tspan x="23.49" y="25.94">member</tspan></text>
    <path d="M355.72,391.11H239.55a8.69,8.69,0,0,1-8.68-8.68V266.26a8.69,8.69,0,0,1,8.68-8.68H355.72a8.69,8.69,0,0,1,8.68,8.68V382.43A8.69,8.69,0,0,1,355.72,391.11Zm-116.17-133a8.19,8.19,0,0,0-8.18,8.18V382.43a8.19,8.19,0,0,0,8.18,8.18H355.72a8.19,8.19,0,0,0,8.18-8.18V266.26a8.19,8.19,0,0,0-8.18-8.18Z"/>
    <text transform="translate(262.46 280.41)" font-size="11.97" font-family="SourceSansPro-Light, Source Sans Pro">Someone who <tspan x="-9.8" y="12.97" letter-spacing="-0.01em">a</tspan><tspan x="-4.05" y="12.97" letter-spacing="-0.02em">t</tspan><tspan x="-0.56" y="12.97" letter-spacing="-0.01em">t</tspan><tspan x="3.05" y="12.97">ended the la</tspan><tspan x="63.35" y="12.97" letter-spacing="-0.02em">s</tspan><tspan x="67.96" y="12.97">t 3 </tspan><tspan x="1.01" y="25.94">G</tspan><tspan x="8.25" y="25.94" letter-spacing="-0.02em">U</tspan><tspan x="15.62" y="25.94">ADECs (n</tspan><tspan x="59.01" y="25.94" letter-spacing="-0.01em">o</tspan><tspan x="65.27" y="25.94">t </tspan><tspan x="-1.88" y="38.91">including 2017)</tspan></text>
    <path d="M510.36,391.11H394.18a8.69,8.69,0,0,1-8.68-8.68V266.26a8.69,8.69,0,0,1,8.68-8.68H510.36a8.69,8.69,0,0,1,8.68,8.68V382.43A8.69,8.69,0,0,1,510.36,391.11Zm-116.17-133a8.19,8.19,0,0,0-8.18,8.18V382.43a8.19,8.19,0,0,0,8.18,8.18H510.36a8.19,8.19,0,0,0,8.18-8.18V266.26a8.19,8.19,0,0,0-8.18-8.18Z"/>
    <text transform="translate(401.95 280.41)" font-size="11.97" font-family="SourceSansPro-Light, Source Sans Pro">Someone who made <tspan x="-2.59" y="12.97">their fir</tspan><tspan x="31.87" y="12.97" letter-spacing="-0.02em">s</tspan><tspan x="36.48" y="12.97">t </tspan><tspan x="42.61" y="12.97" letter-spacing="-0.02em">c</tspan><tspan x="47.78" y="12.97">ontribution </tspan><tspan x="3.85" y="25.94" letter-spacing="-0.01em">t</tspan><tspan x="7.45" y="25.94">o GNOME this y</tspan><tspan x="81.19" y="25.94" letter-spacing="-0.02em">e</tspan><tspan x="86.79" y="25.94">ar</tspan></text>
    <path d="M201.09,542.75H84.92a8.69,8.69,0,0,1-8.68-8.68V417.9a8.69,8.69,0,0,1,8.68-8.68H201.09a8.69,8.69,0,0,1,8.68,8.68V534.07A8.69,8.69,0,0,1,201.09,542.75Zm-116.17-133a8.19,8.19,0,0,0-8.18,8.18V534.07a8.19,8.19,0,0,0,8.18,8.18H201.09a8.19,8.19,0,0,0,8.18-8.18V417.9a8.19,8.19,0,0,0-8.18-8.18Z"/>
    <text transform="translate(102.83 432.05)" font-size="11.97" font-family="SourceSansPro-Light, Source Sans Pro">Someone who is <tspan x="-12.76" y="12.97" letter-spacing="-0.01em">a</tspan><tspan x="-7.01" y="12.97" letter-spacing="-0.02em">t</tspan><tspan x="-3.51" y="12.97" letter-spacing="-0.01em">t</tspan><tspan x="0.09" y="12.97">ending G</tspan><tspan x="43.33" y="12.97" letter-spacing="-0.02em">U</tspan><tspan x="50.7" y="12.97">ADEC </tspan><tspan x="79.53" y="12.97" letter-spacing="-0.01em">f</tspan><tspan x="82.56" y="12.97">or </tspan><tspan x="9.68" y="25.94">the fir</tspan><tspan x="37.6" y="25.94" letter-spacing="-0.02em">s</tspan><tspan x="42.21" y="25.94">t time</tspan></text>
    <path d="M355.72,542.75H239.55a8.69,8.69,0,0,1-8.68-8.68V417.9a8.69,8.69,0,0,1,8.68-8.68H355.72a8.69,8.69,0,0,1,8.68,8.68V534.07A8.69,8.69,0,0,1,355.72,542.75Zm-116.17-133a8.19,8.19,0,0,0-8.18,8.18V534.07a8.19,8.19,0,0,0,8.18,8.18H355.72a8.19,8.19,0,0,0,8.18-8.18V417.9a8.19,8.19,0,0,0-8.18-8.18Z"/>
    <text transform="translate(262.46 432.05)" font-size="11.97" font-family="SourceSansPro-Light, Source Sans Pro">Someone who <tspan x="-14.54" y="12.97" letter-spacing="-0.02em">p</tspan><tspan x="-8.21" y="12.97">artici</tspan><tspan x="16.05" y="12.97" letter-spacing="-0.02em">p</tspan><tspan x="22.39" y="12.97" letter-spacing="-0.01em">at</tspan><tspan x="31.74" y="12.97">ed in GSoC </tspan><tspan x="-4.23" y="25.94">or Out</tspan><tspan x="26.24" y="25.94" letter-spacing="-0.01em">r</tspan><tspan x="29.92" y="25.94" letter-spacing="-0.01em">e</tspan><tspan x="35.52" y="25.94">achy (or </tspan><tspan x="-9.99" y="38.91">OPW) with GNOME</tspan></text>
    <path d="M510.36,542.75H394.18a8.69,8.69,0,0,1-8.68-8.68V417.9a8.69,8.69,0,0,1,8.68-8.68H510.36A8.69,8.69,0,0,1,519,417.9V534.07A8.69,8.69,0,0,1,510.36,542.75Zm-116.17-133A8.19,8.19,0,0,0,386,417.9V534.07a8.19,8.19,0,0,0,8.18,8.18H510.36a8.19,8.19,0,0,0,8.18-8.18V417.9a8.19,8.19,0,0,0-8.18-8.18Z"/>
    <text transform="translate(407.37 432.05)" font-size="11.97" font-family="SourceSansPro-Light, Source Sans Pro">Someone who has <tspan x="1.92" y="12.97">helped o</tspan><tspan x="44.46" y="12.97" letter-spacing="-0.01em">r</tspan><tspan x="48.14" y="12.97" letter-spacing="-0.01em">g</tspan><tspan x="53.79" y="12.97">ani</tspan><tspan x="68.78" y="12.97" letter-spacing="-0.01em">z</tspan><tspan x="73.49" y="12.97">e a </tspan><tspan x="24.21" y="25.94">G</tspan><tspan x="31.45" y="25.94" letter-spacing="-0.02em">U</tspan><tspan x="38.81" y="25.94">ADEC</tspan></text>
    <path d="M201.09,694.39H84.92a8.69,8.69,0,0,1-8.68-8.68V569.54a8.69,8.69,0,0,1,8.68-8.68H201.09a8.69,8.69,0,0,1,8.68,8.68V685.71A8.69,8.69,0,0,1,201.09,694.39Zm-116.17-133a8.19,8.19,0,0,0-8.18,8.18V685.71a8.19,8.19,0,0,0,8.18,8.18H201.09a8.19,8.19,0,0,0,8.18-8.18V569.54a8.19,8.19,0,0,0-8.18-8.18Z"/>
    <text transform="translate(98.1 583.69)" font-size="11.97" font-family="SourceSansPro-Light, Source Sans Pro">Someone who has <tspan x="-8.11" y="12.97" letter-spacing="-0.02em">c</tspan><tspan x="-2.94" y="12.97">ontribu</tspan><tspan x="32.93" y="12.97" letter-spacing="-0.01em">t</tspan><tspan x="36.53" y="12.97">ed ph</tspan><tspan x="64.05" y="12.97" letter-spacing="-0.01em">o</tspan><tspan x="70.32" y="12.97" letter-spacing="-0.01em">t</tspan><tspan x="73.92" y="12.97">os </tspan><tspan x="87.57" y="12.97" letter-spacing="-0.01em">t</tspan><tspan x="91.17" y="12.97">o </tspan><tspan x="26.09" y="25.94">GNOME</tspan><tspan x="7.52" y="38.91">(THANK </tspan><tspan x="47.76" y="38.91" letter-spacing="-0.01em">Y</tspan><tspan x="52.98" y="38.91">OU! *)</tspan></text>
    <path d="M355.72,694.39H239.55a8.69,8.69,0,0,1-8.68-8.68V569.54a8.69,8.69,0,0,1,8.68-8.68H355.72a8.69,8.69,0,0,1,8.68,8.68V685.71A8.69,8.69,0,0,1,355.72,694.39Zm-116.17-133a8.19,8.19,0,0,0-8.18,8.18V685.71a8.19,8.19,0,0,0,8.18,8.18H355.72a8.19,8.19,0,0,0,8.18-8.18V569.54a8.19,8.19,0,0,0-8.18-8.18Z"/>
    <text transform="translate(253.33 583.69)" font-size="11.97" font-family="SourceSansPro-Light, Source Sans Pro">Someone who is a <tspan x="-1.32" y="12.97">“</tspan><tspan x="2.99" y="12.97" letter-spacing="-0.02em">F</tspan><tspan x="8.46" y="12.97">riend of GNOME”</tspan></text>
    <path d="M510.36,694.39H394.18a8.69,8.69,0,0,1-8.68-8.68V569.54a8.69,8.69,0,0,1,8.68-8.68H510.36a8.69,8.69,0,0,1,8.68,8.68V685.71A8.69,8.69,0,0,1,510.36,694.39Zm-116.17-133a8.19,8.19,0,0,0-8.18,8.18V685.71a8.19,8.19,0,0,0,8.18,8.18H510.36a8.19,8.19,0,0,0,8.18-8.18V569.54a8.19,8.19,0,0,0-8.18-8.18Z"/>
    <text transform="translate(398.46 583.69)" font-size="11.97" font-family="SourceSansPro-Light, Source Sans Pro">Th<tspan x="12.59" y="0" letter-spacing="-0.01em">r</tspan><tspan x="16.27" y="0">ee di</tspan><tspan x="39.48" y="0" letter-spacing="-0.01em">ff</tspan><tspan x="45.71" y="0">e</tspan><tspan x="51.49" y="0" letter-spacing="-0.01em">r</tspan><tspan x="55.16" y="0">ent people </tspan><tspan x="14.1" y="12.97">who live in th</tspan><tspan x="77.93" y="12.97" letter-spacing="-0.01em">r</tspan><tspan x="81.61" y="12.97">ee </tspan><tspan x="6.33" y="25.94">di</tspan><tspan x="15.58" y="25.94" letter-spacing="-0.01em">ff</tspan><tspan x="21.8" y="25.94">e</tspan><tspan x="27.59" y="25.94" letter-spacing="-0.01em">r</tspan><tspan x="31.26" y="25.94">ent </tspan><tspan x="49.54" y="25.94" letter-spacing="-0.02em">c</tspan><tspan x="54.72" y="25.94">ontinen</tspan><tspan x="92.49" y="25.94" letter-spacing="-0.01em">t</tspan><tspan x="96.1" y="25.94">s</tspan></text>
    <text transform="translate(271.56 105.78)" font-size="14.52" font-family="SourceSansPro-Bold, Source Sans Pro" font-weight="700"><tspan letter-spacing="-0.01em">R<tspan x="8.78" y="0" letter-spacing="0em">AFFLE:</tspan></tspan><tspan x="-77.04" y="13.8">1 tic</tspan><tspan x="-50.13" y="13.8" letter-spacing="-0.03em">k</tspan><tspan x="-42.58" y="13.8" letter-spacing="-0.01em">e</tspan><tspan x="-35.2" y="13.8">t </tspan><tspan x="-26.74" y="13.8" letter-spacing="-0.01em">f</tspan><tspan x="-21.93" y="13.8" letter-spacing="0em">or </tspan><tspan x="-5.19" y="13.8" letter-spacing="-0.01em">e</tspan><tspan x="2.24" y="13.8" letter-spacing="-0.01em">v</tspan><tspan x="9.72" y="13.8">e</tspan><tspan x="17.24" y="13.8" letter-spacing="0.01em">r</tspan><tspan x="23.12" y="13.8">y </tspan><tspan x="33.59" y="13.8" letter-spacing="-0.01em">r</tspan><tspan x="39.22" y="13.8" letter-spacing="-0.01em">o</tspan><tspan x="47.16" y="13.8" letter-spacing="0em">w </tspan><tspan x="61.33" y="13.8" letter-spacing="-0.03em">c</tspan><tspan x="67.71" y="13.8">ompl</tspan><tspan x="100.68" y="13.8" letter-spacing="-0.01em">e</tspan><tspan x="108.05" y="13.8" letter-spacing="-0.02em">t</tspan><tspan x="113.35" y="13.8">ed</tspan><tspan x="-20.99" y="27.6">(max 3 tic</tspan><tspan x="41.38" y="27.6" letter-spacing="-0.03em">k</tspan><tspan x="48.93" y="27.6" letter-spacing="-0.01em">et</tspan><tspan x="61.72" y="27.6">s)</tspan></text>
    <path d="M466.84,149.84H128.43a8.13,8.13,0,0,1-8.13-8.13V87.63a8.13,8.13,0,0,1,8.13-8.13H466.84A8.13,8.13,0,0,1,475,87.63v54.08A8.13,8.13,0,0,1,466.84,149.84ZM128.43,80a7.64,7.64,0,0,0-7.63,7.63v54.08a7.64,7.64,0,0,0,7.63,7.63H466.84a7.64,7.64,0,0,0,7.63-7.63V87.63A7.64,7.64,0,0,0,466.84,80Z"/>
  </g>
</svg>
