<svg id="Layer_1" data-name="Layer 1" xmlns="http://www.w3.org/2000/svg" viewBox="0 0 595.28 841.89">
  <title>20th-birthday-trivia</title>
  <g>
    <rect x="-28.36" y="-28.06" width="652" height="898" fill="#fff"/>
    <text transform="translate(130.1 156.09) scale(0.98 1)" font-size="56.13" font-family="SourceSansPro-Bold, Source Sans Pro" font-weight="700">20th Birthday<tspan x="99.63" y="50.73" letter-spacing="-0.04em">T</tspan><tspan x="128.48" y="50.73">rivia</tspan></text>
    <text transform="translate(271.72 265.73)" font-size="14.43" font-family="SourceSansPro-Bold, Source Sans Pro" font-weight="700"><tspan letter-spacing="-0.01em">R</tspan><tspan x="8.73" y="0">AFFLE:</tspan><tspan x="-76.41" y="13.71">1 tic</tspan><tspan x="-49.66" y="13.71" letter-spacing="-0.03em">k</tspan><tspan x="-42.16" y="13.71" letter-spacing="-0.01em">e</tspan><tspan x="-34.83" y="13.71">t </tspan><tspan x="-26.42" y="13.71" letter-spacing="-0.01em">f</tspan><tspan x="-21.64" y="13.71">or </tspan><tspan x="-5.01" y="13.71" letter-spacing="-0.01em">e</tspan><tspan x="2.38" y="13.71" letter-spacing="-0.01em">v</tspan><tspan x="9.81" y="13.71">e</tspan><tspan x="17.28" y="13.71" letter-spacing="0.01em">r</tspan><tspan x="23.13" y="13.71" letter-spacing="0em">y </tspan><tspan x="33.53" y="13.71" letter-spacing="-0.03em">c</tspan><tspan x="39.86" y="13.71">or</tspan><tspan x="53.61" y="13.71" letter-spacing="-0.01em">r</tspan><tspan x="59.21" y="13.71">e</tspan><tspan x="66.69" y="13.71" letter-spacing="-0.01em">c</tspan><tspan x="73.28" y="13.71">t ans</tspan><tspan x="103.94" y="13.71" letter-spacing="-0.01em">w</tspan><tspan x="115.02" y="13.71">er</tspan></text>
    <text transform="translate(266.92 695.77)" font-size="17.73" font-family="SourceSansPro-Bold, Source Sans Pro" font-weight="700">BON<tspan x="34.65" y="0" letter-spacing="-0.01em">U</tspan><tspan x="46.26" y="0">S:</tspan></text>
    <g>
      <text transform="translate(183.73 348.67)" font-size="17.73" font-family="SourceSansPro-Bold, Source Sans Pro"><tspan xml:space="preserve" font-weight="700">1  </tspan><tspan x="16.45" y="0" xml:space="preserve" font-family="SourceSansPro-Light, Source Sans Pro"> Wh</tspan><tspan x="43.02" y="0" font-family="SourceSansPro-Light, Source Sans Pro" letter-spacing="-0.01em">a</tspan><tspan x="51.53" y="0" font-family="SourceSansPro-Light, Source Sans Pro" letter-spacing="0em">t does GNOME </tspan><tspan x="157.79" y="0" font-family="SourceSansPro-Light, Source Sans Pro" letter-spacing="-0.02em">s</tspan><tspan x="164.62" y="0" font-family="SourceSansPro-Light, Source Sans Pro" letter-spacing="-0.02em">t</tspan><tspan x="169.76" y="0" font-family="SourceSansPro-Light, Source Sans Pro">and </tspan><tspan x="201.09" y="0" font-family="SourceSansPro-Light, Source Sans Pro" letter-spacing="-0.01em">f</tspan><tspan x="205.58" y="0" font-family="SourceSansPro-Light, Source Sans Pro">or?</tspan></text>
      <text transform="translate(104.54 404.29)" font-size="17.73" font-family="SourceSansPro-Bold, Source Sans Pro"><tspan xml:space="preserve" font-weight="700">2  </tspan><tspan x="16.45" y="0" xml:space="preserve" font-family="SourceSansPro-Light, Source Sans Pro"> Wh</tspan><tspan x="43.02" y="0" font-family="SourceSansPro-Light, Source Sans Pro" letter-spacing="-0.01em">a</tspan><tspan x="51.53" y="0" font-family="SourceSansPro-Light, Source Sans Pro">t </tspan><tspan x="60.61" y="0" font-family="SourceSansPro-Light, Source Sans Pro" letter-spacing="-0.01em">w</tspan><tspan x="72.57" y="0" font-family="SourceSansPro-Light, Source Sans Pro">as the e</tspan><tspan x="127.58" y="0" font-family="SourceSansPro-Light, Source Sans Pro" letter-spacing="-0.01em">x</tspan><tspan x="134.62" y="0" font-family="SourceSansPro-Light, Source Sans Pro">a</tspan><tspan x="143.32" y="0" font-family="SourceSansPro-Light, Source Sans Pro" letter-spacing="-0.01em">c</tspan><tspan x="151.11" y="0" font-family="SourceSansPro-Light, Source Sans Pro">t d</tspan><tspan x="169.83" y="0" font-family="SourceSansPro-Light, Source Sans Pro" letter-spacing="-0.01em">at</tspan><tspan x="183.68" y="0" font-family="SourceSansPro-Light, Source Sans Pro">e th</tspan><tspan x="210.68" y="0" font-family="SourceSansPro-Light, Source Sans Pro" letter-spacing="-0.01em">a</tspan><tspan x="219.19" y="0" font-family="SourceSansPro-Light, Source Sans Pro">t GNOME </tspan><tspan x="287.03" y="0" font-family="SourceSansPro-Light, Source Sans Pro" letter-spacing="-0.01em">w</tspan><tspan x="299" y="0" font-family="SourceSansPro-Light, Source Sans Pro">as </tspan><tspan x="318.44" y="0" font-family="SourceSansPro-Light, Source Sans Pro" letter-spacing="-0.01em">f</tspan><tspan x="322.92" y="0" font-family="SourceSansPro-Light, Source Sans Pro" letter-spacing="0em">ounded?</tspan></text>
      <text transform="translate(148.88 459.91)" font-size="17.73" font-family="SourceSansPro-Bold, Source Sans Pro"><tspan xml:space="preserve" font-weight="700">3  </tspan><tspan x="16.45" y="0" xml:space="preserve" font-family="SourceSansPro-Light, Source Sans Pro"> Whe</tspan><tspan x="51.58" y="0" font-family="SourceSansPro-Light, Source Sans Pro" letter-spacing="-0.01em">r</tspan><tspan x="57.02" y="0" font-family="SourceSansPro-Light, Source Sans Pro">e did the fir</tspan><tspan x="137.38" y="0" font-family="SourceSansPro-Light, Source Sans Pro" letter-spacing="-0.02em">s</tspan><tspan x="144.21" y="0" font-family="SourceSansPro-Light, Source Sans Pro" letter-spacing="0em">t G</tspan><tspan x="164.01" y="0" font-family="SourceSansPro-Light, Source Sans Pro" letter-spacing="-0.02em">U</tspan><tspan x="174.92" y="0" font-family="SourceSansPro-Light, Source Sans Pro" letter-spacing="0em">ADEC </tspan><tspan x="217.63" y="0" font-family="SourceSansPro-Light, Source Sans Pro" letter-spacing="-0.02em">t</tspan><tspan x="222.77" y="0" font-family="SourceSansPro-Light, Source Sans Pro">a</tspan><tspan x="231.48" y="0" font-family="SourceSansPro-Light, Source Sans Pro" letter-spacing="-0.01em">k</tspan><tspan x="239.49" y="0" font-family="SourceSansPro-Light, Source Sans Pro">e pla</tspan><tspan x="274.16" y="0" font-family="SourceSansPro-Light, Source Sans Pro" letter-spacing="-0.02em">c</tspan><tspan x="281.82" y="0" font-family="SourceSansPro-Light, Source Sans Pro">e?</tspan></text>
      <text transform="translate(118.62 515.53)" font-size="17.73" font-family="SourceSansPro-Bold, Source Sans Pro"><tspan xml:space="preserve" font-weight="700">4  </tspan><tspan x="16.45" y="0" xml:space="preserve" font-family="SourceSansPro-Light, Source Sans Pro"> Name one of the apps on the N</tspan><tspan x="241.69" y="0" font-family="SourceSansPro-Light, Source Sans Pro" letter-spacing="0.01em">e</tspan><tspan x="250.47" y="0" font-family="SourceSansPro-Light, Source Sans Pro" letter-spacing="0em">w</tspan><tspan x="262.62" y="0" font-family="SourceSansPro-Light, Source Sans Pro" letter-spacing="-0.02em">c</tspan><tspan x="270.27" y="0" font-family="SourceSansPro-Light, Source Sans Pro">omers </tspan><tspan x="319.07" y="0" font-family="SourceSansPro-Light, Source Sans Pro" letter-spacing="-0.01em">p</tspan><tspan x="328.45" y="0" font-family="SourceSansPro-Light, Source Sans Pro">a</tspan><tspan x="337.16" y="0" font-family="SourceSansPro-Light, Source Sans Pro" letter-spacing="-0.01em">g</tspan><tspan x="345.6" y="0" font-family="SourceSansPro-Light, Source Sans Pro" letter-spacing="0em">e.</tspan></text>
      <text transform="translate(147.32 571.16)" font-size="17.73" font-family="SourceSansPro-Bold, Source Sans Pro"><tspan xml:space="preserve" font-weight="700">5  </tspan><tspan x="16.45" y="0" xml:space="preserve" font-family="SourceSansPro-Light, Source Sans Pro"> In which </tspan><tspan x="83.67" y="0" font-family="SourceSansPro-Light, Source Sans Pro" letter-spacing="-0.02em">c</tspan><tspan x="91.33" y="0" font-family="SourceSansPro-Light, Source Sans Pro" letter-spacing="0em">ount</tspan><tspan x="125.16" y="0" font-family="SourceSansPro-Light, Source Sans Pro" letter-spacing="0.04em">r</tspan><tspan x="131.42" y="0" font-family="SourceSansPro-Light, Source Sans Pro">y </tspan><tspan x="142.7" y="0" font-family="SourceSansPro-Light, Source Sans Pro" letter-spacing="-0.01em">w</tspan><tspan x="154.67" y="0" font-family="SourceSansPro-Light, Source Sans Pro">as GNOME </tspan><tspan x="232.86" y="0" font-family="SourceSansPro-Light, Source Sans Pro" letter-spacing="-0.01em">f</tspan><tspan x="237.35" y="0" font-family="SourceSansPro-Light, Source Sans Pro" letter-spacing="0em">ounded?</tspan></text>
      <text transform="translate(74.32 625.68)" font-size="17.73" font-family="SourceSansPro-Bold, Source Sans Pro"><tspan xml:space="preserve" font-weight="700">6  </tspan><tspan x="16.45" y="0" xml:space="preserve" font-family="SourceSansPro-Light, Source Sans Pro"> Name 1 movie or TV show in which GNOME ma</tspan><tspan x="353.54" y="0" font-family="SourceSansPro-Light, Source Sans Pro" letter-spacing="-0.01em">k</tspan><tspan x="361.56" y="0" font-family="SourceSansPro-Light, Source Sans Pro" letter-spacing="0em">es a </tspan><tspan x="393.1" y="0" font-family="SourceSansPro-Light, Source Sans Pro" letter-spacing="-0.01em">c</tspan><tspan x="400.88" y="0" font-family="SourceSansPro-Light, Source Sans Pro">ameo!</tspan></text>
    </g>
    <g>
      <polygon points="486.32 68.91 479.82 68.91 479.82 75.41 486.32 68.91"/>
      <polygon points="466.81 49.44 473.31 49.44 473.31 42.94 466.81 49.44"/>
      <polygon points="544.39 73.6 544.39 80.11 550.9 80.11 544.39 73.6"/>
      <polygon points="550.9 60.64 550.9 67.14 557.4 67.14 550.9 60.64"/>
      <polygon points="557.36 80.11 550.86 80.11 550.86 86.61 557.36 80.11"/>
      <polygon points="479.82 68.95 479.82 62.45 473.31 62.45 479.82 68.95"/>
      <polygon points="479.82 49.44 479.82 55.94 486.32 55.94 479.82 49.44"/>
      <text transform="translate(488.16 88.28)" font-size="6.77" font-family="SourceSansPro-Light, Source Sans Pro" letter-spacing="0.13em">YEARS <tspan x="23.97" y="0" font-family="SourceSansPro-SemiBold, Source Sans Pro" font-weight="700">STRONG</tspan></text>
      <g>
        <path d="M488.41,80.05V75c2.45-2.29,4.64-4.43,6.66-6.41s3.77-3.85,5.24-5.6a30.63,30.63,0,0,0,3.43-4.88A9,9,0,0,0,505,53.8a5.91,5.91,0,0,0-1.45-4.31,5.31,5.31,0,0,0-4-1.48,6.21,6.21,0,0,0-3.73,1.17,20.61,20.61,0,0,0-3.07,2.74l-4.82-4.76a22,22,0,0,1,5.78-4.55,15.08,15.08,0,0,1,7-1.54,14.53,14.53,0,0,1,5.15.87,11.83,11.83,0,0,1,4,2.47,10.78,10.78,0,0,1,2.59,3.82,13.2,13.2,0,0,1,.9,5,12.89,12.89,0,0,1-1,4.91,26.81,26.81,0,0,1-2.74,5,53.07,53.07,0,0,1-3.91,5c-1.32,1.5-4.08,4.43-4.08,4.43h13.63v7.47Z"/>
        <path d="M528.91,80.1a11.91,11.91,0,0,1-5.51-1.27,11.62,11.62,0,0,1-4.23-3.76,19.23,19.23,0,0,1-2.72-6.16,33.06,33.06,0,0,1-1-8.47,32.37,32.37,0,0,1,1-8.41A18.93,18.93,0,0,1,519.17,46a11.2,11.2,0,0,1,4.23-3.67,13.1,13.1,0,0,1,11,0A11.21,11.21,0,0,1,538.65,46,19,19,0,0,1,541.38,52a32.36,32.36,0,0,1,1,8.41,33,33,0,0,1-1,8.47,19.25,19.25,0,0,1-2.72,6.16,11.62,11.62,0,0,1-4.23,3.76A11.91,11.91,0,0,1,528.91,80.1Zm0-6.75a4,4,0,0,0,2.07-.56,4.59,4.59,0,0,0,1.66-2,14.48,14.48,0,0,0,1.1-4,42.76,42.76,0,0,0,.38-6.33,42.15,42.15,0,0,0-.38-6.31,13.16,13.16,0,0,0-1.1-3.85A4.42,4.42,0,0,0,531,48.37a4.16,4.16,0,0,0-2.07-.53,4,4,0,0,0-2,.53,4.42,4.42,0,0,0-1.66,1.92,13.66,13.66,0,0,0-1.13,3.85,39.14,39.14,0,0,0-.41,6.31,39.71,39.71,0,0,0,.41,6.33,15.05,15.05,0,0,0,1.13,4,4.58,4.58,0,0,0,1.66,2A3.87,3.87,0,0,0,528.91,73.36Z"/>
      </g>
      <g id="_8jqcmI.tif" data-name="8jqcmI.tif">
        <g>
          <path d="M518.61,95.05l.16,0a.86.86,0,0,1,.42.16.55.55,0,0,1,.21.38,1.22,1.22,0,0,1-.1.57,3.13,3.13,0,0,1-.48.81,3.93,3.93,0,0,1-.91.86,1.82,1.82,0,0,1-.55.26.72.72,0,0,1-.42,0,.63.63,0,0,1-.37-.36,1.38,1.38,0,0,1-.11-.65,2.3,2.3,0,0,1,.37-1.13,1.92,1.92,0,0,1,1.54-.92h.23Z"/>
          <path d="M515.9,98.6a3.79,3.79,0,0,1,1,.13,1.8,1.8,0,0,1,.65.32.9.9,0,0,1,.34.56,1.19,1.19,0,0,1-.14.78,2.3,2.3,0,0,1-.51.62,7,7,0,0,1-.94.68l-1,.6a3.36,3.36,0,0,0-.63.49,1.46,1.46,0,0,0-.18.23.55.55,0,0,0,0,.65,1.4,1.4,0,0,0,.64.51.67.67,0,0,0,.48,0,.6.6,0,0,0,.39-.42.87.87,0,0,0,0-.38.31.31,0,0,1,.09-.27.89.89,0,0,1,.31-.21,2.14,2.14,0,0,1,.89-.18,1.14,1.14,0,0,1,.47.09.43.43,0,0,1,.24.24.47.47,0,0,1,0,.27,2.66,2.66,0,0,1-.68,1.28,3,3,0,0,1-1,.73,2.2,2.2,0,0,1-1,.17,3.4,3.4,0,0,1-1.27-.35,4.67,4.67,0,0,1-1.59-1.28,4.35,4.35,0,0,1-.73-1.28,3,3,0,0,1-.19-1,2.27,2.27,0,0,1,.42-1.33,3.13,3.13,0,0,1,.83-.81,4.89,4.89,0,0,1,1.32-.63,5.93,5.93,0,0,1,.93-.21A5.33,5.33,0,0,1,515.9,98.6Z"/>
          <path d="M514.25,96.57a1.44,1.44,0,0,1,.12-.65.81.81,0,0,1,.78-.49.49.49,0,0,1,.49.36,1.23,1.23,0,0,1,.06.48,2.52,2.52,0,0,1-.28,1,1.24,1.24,0,0,1-.24.34.41.41,0,0,1-.23.13.35.35,0,0,1-.28-.1,1,1,0,0,1-.26-.39A2,2,0,0,1,514.25,96.57Z"/>
          <path d="M513.59,97.33a1.92,1.92,0,0,1-.11.67.69.69,0,0,1-.12.21.27.27,0,0,1-.31.08.64.64,0,0,1-.26-.17,1.61,1.61,0,0,1-.39-.71,1.2,1.2,0,0,1,0-.54.71.71,0,0,1,.6-.58.41.41,0,0,1,.41.18,1.07,1.07,0,0,1,.18.43A2.16,2.16,0,0,1,513.59,97.33Z"/>
          <path d="M512.1,98.84a1,1,0,0,1-.06.35.25.25,0,0,1-.28.18l-.16,0a1,1,0,0,1-.31-.23,1.43,1.43,0,0,1-.38-.66.7.7,0,0,1,0-.5.64.64,0,0,1,.33-.3.38.38,0,0,1,.43.09,1,1,0,0,1,.23.34A2,2,0,0,1,512.1,98.84Z"/>
        </g>
      </g>
    </g>
    <path d="M465.79,299.6H129.49a8.08,8.08,0,0,1-8.07-8.07V245.71a8.08,8.08,0,0,1,8.07-8.07h336.3a8.08,8.08,0,0,1,8.07,8.07v45.81A8.08,8.08,0,0,1,465.79,299.6Zm-336.3-61.47a7.59,7.59,0,0,0-7.58,7.58v45.81a7.59,7.59,0,0,0,7.58,7.58h336.3a7.59,7.59,0,0,0,7.58-7.58V245.71a7.59,7.59,0,0,0-7.58-7.58Z"/>
    <text transform="translate(87.2 719.99)" font-size="14.87" font-family="SourceSansPro-Light, Source Sans Pro">Nomin<tspan x="40.81" y="0" letter-spacing="-0.01em">at</tspan><tspan x="52.42" y="0">e someone you</tspan><tspan x="144.15" y="0" letter-spacing="-0.04em">&apos;</tspan><tspan x="146.85" y="0">d li</tspan><tspan x="164.85" y="0" letter-spacing="-0.01em">k</tspan><tspan x="171.57" y="0">e </tspan><tspan x="181.72" y="0" letter-spacing="-0.01em">t</tspan><tspan x="186.2" y="0">o see </tspan><tspan x="220.49" y="0" letter-spacing="-0.01em">f</tspan><tspan x="224.26" y="0" letter-spacing="-0.01em">e</tspan><tspan x="231.22" y="0" letter-spacing="-0.01em">a</tspan><tspan x="238.35" y="0">tu</tspan><tspan x="250.86" y="0" letter-spacing="-0.01em">r</tspan><tspan x="255.43" y="0">ed on the En</tspan><tspan x="330.73" y="0" letter-spacing="-0.01em">g</tspan><tspan x="337.75" y="0">a</tspan><tspan x="345.05" y="0" letter-spacing="-0.01em">g</tspan><tspan x="352.13" y="0">ement blog </tspan><tspan x="88.28" y="15.86">(h</tspan><tspan x="100.28" y="15.86" letter-spacing="-0.02em">t</tspan><tspan x="104.63" y="15.86">tps://blogs.gnome</tspan><tspan x="215.68" y="15.86" letter-spacing="-0.01em">.</tspan><tspan x="218.76" y="15.86">o</tspan><tspan x="226.72" y="15.86" letter-spacing="-0.01em">r</tspan><tspan x="231.28" y="15.86" letter-spacing="0.06em">g</tspan><tspan x="239.42" y="15.86" letter-spacing="-0.04em">/</tspan><tspan x="244.12" y="15.86">en</tspan><tspan x="259.21" y="15.86" letter-spacing="-0.01em">g</tspan><tspan x="266.23" y="15.86">a</tspan><tspan x="273.53" y="15.86" letter-spacing="-0.01em">g</tspan><tspan x="280.61" y="15.86">emen</tspan><tspan x="314.96" y="15.86" letter-spacing="0.02em">t</tspan><tspan x="319.88" y="15.86">/).</tspan><tspan x="122.21" y="31.73">Include wh</tspan><tspan x="188.04" y="31.73" letter-spacing="-0.02em">y</tspan><tspan x="194.23" y="31.73">, and your </tspan><tspan x="256.74" y="31.73" letter-spacing="0.01em">e</tspan><tspan x="264.07" y="31.73">-mail!</tspan></text>
  </g>
</svg>
