<?xml version="1.0" encoding="UTF-8" standalone="no"?>
<!-- Created with Inkscape (http://www.inkscape.org/) -->

<svg
   xmlns:dc="http://purl.org/dc/elements/1.1/"
   xmlns:cc="http://creativecommons.org/ns#"
   xmlns:rdf="http://www.w3.org/1999/02/22-rdf-syntax-ns#"
   xmlns:svg="http://www.w3.org/2000/svg"
   xmlns="http://www.w3.org/2000/svg"
   xmlns:sodipodi="http://sodipodi.sourceforge.net/DTD/sodipodi-0.dtd"
   xmlns:inkscape="http://www.inkscape.org/namespaces/inkscape"
   width="168mm"
   height="229.99998mm"
   viewBox="0 0 168 229.99998"
   version="1.1"
   id="svg2022"
   inkscape:version="0.92+devel unknown"
   sodipodi:docname="20th-birthday-trivia-side1-new.svg"
   inkscape:export-filename="/home/aday/Dropbox/Public/guadec2017/badge-side-1-corner.png"
   inkscape:export-xdpi="90"
   inkscape:export-ydpi="90">
  <sodipodi:namedview
     id="base"
     pagecolor="#ffffff"
     bordercolor="#666666"
     borderopacity="1.0"
     inkscape:pageopacity="0.0"
     inkscape:pageshadow="2"
     inkscape:zoom="0.70710678"
     inkscape:cx="11.048868"
     inkscape:cy="153.92494"
     inkscape:document-units="mm"
     inkscape:current-layer="layer1"
     inkscape:document-rotation="0"
     showgrid="false"
     inkscape:showpageshadow="false"
     inkscape:window-width="1920"
     inkscape:window-height="1136"
     inkscape:window-x="0"
     inkscape:window-y="27"
     inkscape:window-maximized="1"
     inkscape:snap-global="false"
     showguides="true"
     inkscape:guide-bbox="true"
     fit-margin-top="0"
     fit-margin-left="0"
     fit-margin-right="0"
     fit-margin-bottom="0"
     inkscape:snap-page="true"
     inkscape:snap-nodes="false"
     inkscape:snap-bbox="true"
     inkscape:bbox-paths="true"
     inkscape:bbox-nodes="true">
    <inkscape:grid
       id="grid2024"
       type="xygrid"
       units="mm"
       spacingx="1"
       spacingy="1"
       empspacing="1"
       originx="10"
       originy="10" />
    <sodipodi:guide
       position="10,6.9999999"
       orientation="1,0"
       id="guide5752"
       inkscape:locked="false" />
    <sodipodi:guide
       position="97.279322,10.023924"
       orientation="0,1"
       id="guide5754"
       inkscape:locked="false" />
    <sodipodi:guide
       position="110,220"
       orientation="0,1"
       id="guide5756"
       inkscape:locked="false" />
    <sodipodi:guide
       position="158,8"
       orientation="1,0"
       id="guide4883"
       inkscape:locked="false" />
  </sodipodi:namedview>
  <defs
     id="defs2016">
    <clipPath
       clipPathUnits="userSpaceOnUse"
       id="clipPath118">
      <path
         d="M 0,898.583 H 651.969 V 0 H 0 Z"
         id="path116"
         inkscape:connector-curvature="0" />
    </clipPath>
  </defs>
  <metadata
     id="metadata2019">
    <rdf:RDF>
      <cc:Work
         rdf:about="">
        <dc:format>image/svg+xml</dc:format>
        <dc:type
           rdf:resource="http://purl.org/dc/dcmitype/StillImage" />
        <dc:title />
      </cc:Work>
    </rdf:RDF>
  </metadata>
  <g
     transform="translate(10,-77.000018)"
     id="layer1"
     inkscape:groupmode="layer"
     inkscape:label="Layer 1">
    <text
       id="text4476"
       style="font-variant:normal;font-weight:bold;font-stretch:normal;font-size:4.93888903px;font-family:'Source Sans Pro';-inkscape-font-specification:SourceSansPro-Bold;writing-mode:lr-tb;fill:#000000;fill-opacity:1;fill-rule:nonzero;stroke:none;stroke-width:0.35277775"
       x="-56.637165"
       y="277.85266">
      <tspan
         style="font-size:4.93888903px;stroke-width:0.35277775"
         id="tspan4472"
         sodipodi:role="line"
         y="277.85266"
         x="-56.637165 -53.543831 -50.046574 -46.646454 -43.29747 -40.454662">BONUS:</tspan>
      <tspan
         style="font-size:4.93888903px;stroke-width:0.35277775"
         id="tspan4474"
         sodipodi:role="line"
         y="177.76663"
         x="-80.622009 -77.922379">1</tspan>
    </text>
    <text
       id="text4480"
       style="font-style:normal;font-variant:normal;font-weight:300;font-stretch:normal;font-size:4.93888903px;font-family:'Source Sans Pro';-inkscape-font-specification:'Source Sans Pro Light';writing-mode:lr-tb;fill:#000000;fill-opacity:1;fill-rule:nonzero;stroke:none;stroke-width:0.35277775"
       x="44.127407"
       y="184.11656">
      <tspan
         style="font-style:normal;font-variant:normal;font-weight:300;font-stretch:normal;font-size:4.93888903px;font-family:'Source Sans Pro';-inkscape-font-specification:'Source Sans Pro Light';stroke-width:0.35277775"
         id="tspan4478"
         sodipodi:role="line"
         y="184.11656"
         x="44.127407 48.064381 50.764019 53.218235 54.813477 55.836067 58.617512 61.352943 63.822498 65.893242 66.915833 70.009171 73.261009 76.59465 80.204391 82.83757 83.860161 85.828644 87.311401 89.821861 92.541946 95.323395 96.345985 97.639565 100.37498 101.99581">What does GNOME stand for?</tspan>
    </text>
    <text
       id="text4488"
       style="font-variant:normal;font-weight:300;font-stretch:normal;font-size:4.93888903px;font-family:'Source Sans Pro Light';-inkscape-font-specification:SourceSansPro-Light;writing-mode:lr-tb;fill:#000000;fill-opacity:1;fill-rule:nonzero;stroke:none;stroke-width:0.35277775"
       x="21.290152"
       y="198.92834">
      <tspan
         style="font-size:4.93888903px;stroke-width:0.35277775"
         id="tspan4486"
         sodipodi:role="line"
         y="198.92834"
         x="21.290152 25.227125 27.926764 30.380981 31.976221 32.998814 36.450054 38.960514 41.031261 42.053852 43.64909 46.348728 48.818287 49.840878 52.310432 54.340275 56.850731 59.095322 60.690559 61.71315 64.494598 66.948814 68.488327 70.957886 71.980476 73.575714 76.275352 78.729568 80.324814 81.347404 84.440735 87.692574 91.026222 94.635963 97.269142 98.291725 101.74297 104.25343 106.32417 107.34678 108.64034 111.37576 114.08053 116.80063 119.58207 122.05161 124.83307">What was the exact date that GNOME was founded?</tspan>
    </text>
    <text
       id="text4496"
       style="font-style:normal;font-variant:normal;font-weight:300;font-stretch:normal;font-size:4.93888903px;font-family:'Source Sans Pro';-inkscape-font-specification:'Source Sans Pro Light';writing-mode:lr-tb;fill:#000000;fill-opacity:1;fill-rule:nonzero;stroke:none;stroke-width:0.35277775"
       x="34.077911"
       y="213.74013">
      <tspan
         style="font-style:normal;font-variant:normal;font-weight:300;font-stretch:normal;font-size:4.93888903px;font-family:'Source Sans Pro';-inkscape-font-specification:'Source Sans Pro Light';stroke-width:0.35277775"
         id="tspan4494"
         sodipodi:role="line"
         y="213.74013"
         x="34.077911 38.014885 40.714523 43.184078 44.753754 47.223312 48.245903 51.027348 52.198215 54.97966 56.002251 57.597492 60.297131 62.766685 63.789276 65.13398 66.304848 67.925652 69.893623 71.488869 72.511459 75.604797 78.74926 81.438675 84.526894 87.160065 90.04377 91.06636 92.549118 95.059578 97.370628 99.840187 100.86277 103.64423 104.856 107.36646 109.57574 112.04531">Where did the first GUADEC take place?</tspan>
    </text>
    <text
       id="text4504"
       style="font-style:normal;font-variant:normal;font-weight:300;font-stretch:normal;font-size:4.93888903px;font-family:'Source Sans Pro';-inkscape-font-specification:'Source Sans Pro Light';writing-mode:lr-tb;fill:#000000;fill-opacity:1;fill-rule:nonzero;stroke:none;stroke-width:0.35277775"
       x="25.20602"
       y="228.5519">
      <tspan
         style="font-style:normal;font-variant:normal;font-weight:300;font-stretch:normal;font-size:4.93888903px;font-family:'Source Sans Pro';-inkscape-font-specification:'Source Sans Pro Light';stroke-width:0.35277775"
         id="tspan4502"
         sodipodi:role="line"
         y="228.5519"
         x="25.20602 28.457859 30.968319 35.120037 37.589592 38.612183 41.34761 44.067703 46.537258 47.559849 50.295277 51.639984 52.662575 54.257816 56.957455 59.42701 60.4496 62.960064 65.741501 68.522949 70.593697 71.616287 74.351715 77.071808 78.094398 79.689636 82.389275 84.858826 85.881416 89.133263 91.664169 95.166542 97.374825 100.11026 104.26197 106.73153 108.35234 110.42308 111.44567 114.15043 116.66089 119.09465 121.56419">Name one of the apps on the Newcomers page.</tspan>
    </text>
    <text
       id="text4512"
       style="font-style:normal;font-variant:normal;font-weight:300;font-stretch:normal;font-size:4.93888903px;font-family:'Source Sans Pro';-inkscape-font-specification:'Source Sans Pro Light';writing-mode:lr-tb;fill:#000000;fill-opacity:1;fill-rule:nonzero;stroke:none;stroke-width:0.35277775"
       x="33.457829"
       y="243.36368">
      <tspan
         style="font-style:normal;font-variant:normal;font-weight:300;font-stretch:normal;font-size:4.93888903px;font-family:'Source Sans Pro';-inkscape-font-specification:'Source Sans Pro Light';stroke-width:0.35277775"
         id="tspan4510"
         sodipodi:role="line"
         y="243.36368"
         x="33.457829 34.684937 37.405029 38.42762 41.929993 44.629631 45.800495 48.09621 50.795849 51.818439 54.026726 56.762154 59.466908 62.186996 63.782238 65.587112 67.816353 68.838943 72.290184 74.800644 76.871391 77.893982 80.987312 84.239159 87.5728 91.182541 93.815712 94.838303 96.131882 98.86731 101.57207 104.29214 107.0736 109.54317 112.32461">In which country was GNOME founded?</tspan>
    </text>
    <text
       id="text4520"
       style="font-style:normal;font-variant:normal;font-weight:300;font-stretch:normal;font-size:4.93888903px;font-family:'Source Sans Pro';-inkscape-font-specification:'Source Sans Pro Light';writing-mode:lr-tb;fill:#000000;fill-opacity:1;fill-rule:nonzero;stroke:none;stroke-width:0.35277775"
       x="12.48647"
       y="258.17548">
      <tspan
         style="font-style:normal;font-variant:normal;font-weight:300;font-stretch:normal;font-size:4.93888903px;font-family:'Source Sans Pro';-inkscape-font-specification:'Source Sans Pro Light';stroke-width:0.35277775"
         id="tspan4518"
         sodipodi:role="line"
         y="258.17548"
         x="12.48647 15.738307 18.248768 22.400484 24.870039 25.89263 28.341736 29.364326 33.516041 36.251472 38.470493 39.641357 42.110916 43.133507 45.868935 47.489742 48.512333 51.191517 53.701977 54.724567 56.795311 59.494953 62.230381 65.73275 66.755341 67.926208 70.646294 71.668884 75.171257 77.870903 79.041763 81.337479 84.037117 85.059708 88.153046 91.404884 94.738525 98.348274 100.98145 102.00403 106.15575 108.66621 110.97726 113.44683 115.51757 116.54015 119.05061 120.0732 122.31779 124.82825 128.97998 131.44954 134.18497">Name 1 movie or TV show in which GNOME makes a cameo!</tspan>
    </text>
    <g
       id="g5443">
      <g
         id="g4524"
         transform="matrix(0.28835581,0,0,-0.28835581,123.04627,97.092625)"
         style="stroke-width:1.22341132">
        <path
           d="M 0,0 H -6.503 V -6.503 Z"
           style="fill:#000000;fill-opacity:1;fill-rule:nonzero;stroke:none;stroke-width:1.22341132"
           id="path4522"
           inkscape:connector-curvature="0" />
      </g>
      <g
         id="g4528"
         transform="matrix(0.28835581,0,0,-0.28835581,117.41939,91.479837)"
         style="stroke-width:1.22341132">
        <path
           d="M 0,0 H 6.503 V 6.503 Z"
           style="fill:#000000;fill-opacity:1;fill-rule:nonzero;stroke:none;stroke-width:1.22341132"
           id="path4526"
           inkscape:connector-curvature="0" />
      </g>
      <g
         id="g4532"
         transform="matrix(0.28835581,0,0,-0.28835581,139.79061,98.446975)"
         style="stroke-width:1.22341132">
        <path
           d="M 0,0 V -6.503 H 6.504 Z"
           style="fill:#000000;fill-opacity:1;fill-rule:nonzero;stroke:none;stroke-width:1.22341132"
           id="path4530"
           inkscape:connector-curvature="0" />
      </g>
      <g
         id="g4536"
         transform="matrix(0.28835581,0,0,-0.28835581,141.66717,94.70948)"
         style="stroke-width:1.22341132">
        <path
           d="M 0,0 V -6.503 H 6.504 Z"
           style="fill:#000000;fill-opacity:1;fill-rule:nonzero;stroke:none;stroke-width:1.22341132"
           id="path4534"
           inkscape:connector-curvature="0" />
      </g>
      <g
         id="g4540"
         transform="matrix(0.28835581,0,0,-0.28835581,143.5294,100.32227)"
         style="stroke-width:1.22341132">
        <path
           d="M 0,0 H -6.503 V -6.503 Z"
           style="fill:#000000;fill-opacity:1;fill-rule:nonzero;stroke:none;stroke-width:1.22341132"
           id="path4538"
           inkscape:connector-curvature="0" />
      </g>
      <g
         id="g4544"
         transform="matrix(0.28835581,0,0,-0.28835581,121.16971,97.105601)"
         style="stroke-width:1.22341132">
        <path
           d="M 0,0 V 6.503 H -6.503 Z"
           style="fill:#000000;fill-opacity:1;fill-rule:nonzero;stroke:none;stroke-width:1.22341132"
           id="path4542"
           inkscape:connector-curvature="0" />
      </g>
      <g
         id="g4548"
         transform="matrix(0.28835581,0,0,-0.28835581,121.16971,91.479837)"
         style="stroke-width:1.22341132">
        <path
           d="M 0,0 V -6.503 H 6.503 Z"
           style="fill:#000000;fill-opacity:1;fill-rule:nonzero;stroke:none;stroke-width:1.22341132"
           id="path4546"
           inkscape:connector-curvature="0" />
      </g>
      <text
         y="102.68033"
         x="123.57515"
         style="font-variant:normal;font-weight:300;font-stretch:normal;font-size:1.95337987px;font-family:'Source Sans Pro Light';-inkscape-font-specification:SourceSansPro-Light;writing-mode:lr-tb;fill:#000000;fill-opacity:1;fill-rule:nonzero;stroke:none;stroke-width:0.35277775"
         id="text4552">
        <tspan
           x="123.57515 124.7042 125.96609 127.24946 128.56799 129.8416"
           y="102.68033"
           sodipodi:role="line"
           id="tspan4550"
           style="stroke-width:0.35277775">YEARS</tspan>
      </text>
      <text
         y="102.68033"
         x="130.48816"
         style="font-variant:normal;font-weight:600;font-stretch:normal;font-size:1.95337987px;font-family:'Source Sans Pro SemiBold';-inkscape-font-specification:SourceSansPro-SemiBold;writing-mode:lr-tb;fill:#000000;fill-opacity:1;fill-rule:nonzero;stroke:none;stroke-width:0.35277775"
         id="text4556">
        <tspan
           x="130.48816 131.80864 133.13109 134.54338 136.11584 137.65315"
           y="102.68033"
           sodipodi:role="line"
           id="tspan4554"
           style="stroke-width:0.35277775">STRONG</tspan>
      </text>
      <g
         id="g4560"
         transform="matrix(0.28835581,0,0,-0.28835581,123.64859,100.3075)"
         style="stroke-width:1.22341132">
        <path
           d="m 0,0 v 5.059 c 2.448,2.289 4.636,4.426 6.663,6.414 2.027,1.987 3.774,3.854 5.24,5.601 1.465,1.746 2.609,3.372 3.433,4.878 0.822,1.505 1.234,2.941 1.234,4.306 0,1.887 -0.481,3.322 -1.445,4.306 -0.964,0.983 -2.289,1.475 -3.975,1.475 -1.406,0 -2.65,-0.391 -3.734,-1.174 -1.084,-0.783 -2.107,-1.697 -3.071,-2.74 l -4.819,4.757 c 1.887,2.008 3.815,3.524 5.783,4.547 1.966,1.024 4.315,1.536 7.045,1.536 1.887,0 3.604,-0.292 5.15,-0.873 1.545,-0.583 2.88,-1.406 4.005,-2.469 1.123,-1.065 1.987,-2.34 2.59,-3.825 0.601,-1.486 0.903,-3.152 0.903,-4.998 0,-1.607 -0.342,-3.243 -1.024,-4.908 C 23.295,20.225 22.382,18.558 21.237,16.893 20.094,15.227 18.788,13.56 17.323,11.895 16.003,10.394 13.242,7.466 13.242,7.466 L 26.868,7.468 V 0 Z"
           style="fill:#000000;fill-opacity:1;fill-rule:nonzero;stroke:none;stroke-width:1.22341132"
           id="path4558"
           inkscape:connector-curvature="0" />
      </g>
      <g
         id="g4564"
         transform="matrix(0.28835581,0,0,-0.28835581,135.32674,98.37601)"
         style="stroke-width:1.22341132">
        <path
           d="m 0,0 c 0.75,0 1.441,0.187 2.072,0.562 0.631,0.375 1.185,1.056 1.658,2.043 0.474,0.986 0.838,2.309 1.095,3.967 0.257,1.658 0.386,3.769 0.386,6.335 0,2.565 -0.129,4.667 -0.386,6.305 C 4.568,20.85 4.204,22.132 3.73,23.061 3.257,23.987 2.703,24.629 2.072,24.985 1.441,25.34 0.75,25.518 0,25.518 -0.71,25.518 -1.382,25.34 -2.013,24.985 -2.645,24.629 -3.196,23.987 -3.67,23.061 -4.144,22.132 -4.52,20.85 -4.795,19.212 -5.071,17.574 -5.21,15.472 -5.21,12.907 -5.21,10.341 -5.071,8.23 -4.795,6.572 -4.52,4.914 -4.144,3.591 -3.67,2.605 -3.196,1.618 -2.645,0.937 -2.013,0.562 -1.382,0.187 -0.71,0 0,0 m 0,-6.75 c -2.013,0 -3.848,0.425 -5.506,1.274 -1.657,0.848 -3.069,2.101 -4.232,3.759 -1.165,1.658 -2.073,3.71 -2.724,6.157 -0.651,2.447 -0.977,5.27 -0.977,8.467 0,3.197 0.326,5.999 0.977,8.407 0.651,2.407 1.559,4.43 2.724,6.069 1.163,1.637 2.575,2.861 4.232,3.67 1.658,0.809 3.493,1.214 5.506,1.214 2.014,0 3.849,-0.405 5.507,-1.214 1.657,-0.809 3.068,-2.033 4.232,-3.67 1.164,-1.639 2.073,-3.662 2.724,-6.069 0.651,-2.408 0.977,-5.21 0.977,-8.407 C 13.44,9.71 13.114,6.887 12.463,4.44 11.812,1.993 10.903,-0.059 9.739,-1.717 8.575,-3.375 7.164,-4.628 5.507,-5.476 3.849,-6.325 2.014,-6.75 0,-6.75"
           style="fill:#000000;fill-opacity:1;fill-rule:nonzero;stroke:none;stroke-width:1.22341132"
           id="path4562"
           inkscape:connector-curvature="0" />
      </g>
      <g
         id="g4568"
         transform="matrix(0.28835581,0,0,-0.28835581,132.35561,104.6327)"
         style="stroke-width:1.22341132">
        <path
           d="M 0,0 C 0.055,-0.006 0.109,-0.011 0.163,-0.019 0.317,-0.041 0.464,-0.083 0.588,-0.182 0.712,-0.28 0.776,-0.411 0.794,-0.566 0.816,-0.766 0.769,-0.955 0.699,-1.139 0.586,-1.436 0.418,-1.702 0.223,-1.952 c -0.26,-0.332 -0.557,-0.626 -0.91,-0.861 -0.171,-0.115 -0.352,-0.21 -0.553,-0.262 -0.142,-0.036 -0.283,-0.046 -0.424,0.003 -0.18,0.062 -0.294,0.192 -0.37,0.359 -0.095,0.208 -0.119,0.428 -0.108,0.653 0.022,0.41 0.146,0.789 0.367,1.134 0.239,0.374 0.56,0.652 0.981,0.807 0.181,0.067 0.367,0.103 0.56,0.114 0.01,0.001 0.021,0.003 0.033,0.005 z"
           style="fill:#000000;fill-opacity:1;fill-rule:nonzero;stroke:none;stroke-width:1.22341132"
           id="path4566"
           inkscape:connector-curvature="0" />
      </g>
      <g
         id="g4572"
         transform="matrix(0.28835581,0,0,-0.28835581,131.57417,105.65601)"
         style="stroke-width:1.22341132">
        <path
           d="M 0,0 C 0.341,-0.003 0.677,-0.036 1.005,-0.129 1.242,-0.196 1.466,-0.29 1.659,-0.446 1.84,-0.592 1.962,-0.775 2,-1.007 2.046,-1.282 1.995,-1.541 1.863,-1.785 1.734,-2.025 1.554,-2.223 1.353,-2.403 1.062,-2.662 0.741,-2.879 0.413,-3.086 c -0.316,-0.2 -0.636,-0.396 -0.95,-0.598 -0.225,-0.144 -0.443,-0.298 -0.628,-0.492 -0.068,-0.072 -0.131,-0.149 -0.183,-0.232 -0.135,-0.217 -0.132,-0.438 0.013,-0.648 0.161,-0.232 0.372,-0.408 0.637,-0.514 0.156,-0.063 0.318,-0.078 0.48,-0.023 0.202,0.07 0.324,0.217 0.387,0.417 0.038,0.125 0.046,0.253 0.028,0.381 -0.014,0.105 0.019,0.19 0.087,0.265 0.086,0.096 0.195,0.159 0.312,0.21 0.283,0.125 0.582,0.18 0.89,0.177 0.161,-0.002 0.321,-0.023 0.47,-0.091 0.11,-0.05 0.199,-0.122 0.242,-0.24 C 2.231,-4.562 2.226,-4.652 2.207,-4.742 2.104,-5.234 1.865,-5.655 1.525,-6.021 1.229,-6.34 0.882,-6.587 0.479,-6.753 c -0.322,-0.133 -0.656,-0.194 -1.004,-0.17 -0.45,0.03 -0.872,0.152 -1.275,0.348 -0.627,0.307 -1.148,0.743 -1.586,1.284 -0.313,0.386 -0.562,0.81 -0.73,1.279 -0.114,0.318 -0.183,0.645 -0.186,0.985 -0.004,0.487 0.142,0.928 0.417,1.329 0.222,0.323 0.504,0.584 0.826,0.805 0.406,0.279 0.849,0.478 1.317,0.625 0.304,0.096 0.613,0.165 0.927,0.21 0.27,0.04 0.543,0.06 0.815,0.058"
           style="fill:#000000;fill-opacity:1;fill-rule:nonzero;stroke:none;stroke-width:1.22341132"
           id="path4570"
           inkscape:connector-curvature="0" />
      </g>
      <g
         id="g4576"
         transform="matrix(0.28835581,0,0,-0.28835581,131.09968,105.07002)"
         style="stroke-width:1.22341132">
        <path
           d="M 0,0 C -0.002,0.229 0.025,0.446 0.122,0.649 0.278,0.976 0.544,1.132 0.9,1.135 1.135,1.137 1.306,1.005 1.387,0.775 1.442,0.618 1.455,0.455 1.445,0.291 1.425,-0.073 1.329,-0.417 1.161,-0.739 1.097,-0.863 1.021,-0.978 0.919,-1.075 0.853,-1.138 0.779,-1.19 0.685,-1.201 0.574,-1.214 0.484,-1.167 0.404,-1.097 0.285,-0.991 0.209,-0.856 0.148,-0.711 0.053,-0.481 0.007,-0.241 0,0"
           style="fill:#000000;fill-opacity:1;fill-rule:nonzero;stroke:none;stroke-width:1.22341132"
           id="path4574"
           inkscape:connector-curvature="0" />
      </g>
      <g
         id="g4580"
         transform="matrix(0.28835581,0,0,-0.28835581,130.90905,105.28897)"
         style="stroke-width:1.22341132">
        <path
           d="m 0,0 c -0.004,-0.222 -0.029,-0.451 -0.114,-0.669 -0.03,-0.074 -0.066,-0.144 -0.118,-0.205 -0.085,-0.099 -0.19,-0.124 -0.312,-0.084 -0.102,0.034 -0.185,0.098 -0.258,0.174 -0.195,0.202 -0.32,0.444 -0.393,0.713 -0.048,0.177 -0.065,0.356 -0.032,0.538 0.055,0.303 0.295,0.537 0.6,0.579 0.172,0.024 0.306,-0.045 0.408,-0.18 C -0.123,0.738 -0.074,0.589 -0.042,0.435 -0.012,0.295 -0.002,0.153 0,0"
           style="fill:#000000;fill-opacity:1;fill-rule:nonzero;stroke:none;stroke-width:1.22341132"
           id="path4578"
           inkscape:connector-curvature="0" />
      </g>
      <g
         id="g4584"
         transform="matrix(0.28835581,0,0,-0.28835581,130.47764,105.72346)"
         style="stroke-width:1.22341132">
        <path
           d="m 0,0 c -0.002,-0.106 -0.011,-0.233 -0.061,-0.353 -0.054,-0.132 -0.141,-0.19 -0.277,-0.175 -0.054,0.006 -0.109,0.024 -0.159,0.046 -0.12,0.053 -0.22,0.135 -0.31,0.229 -0.182,0.19 -0.318,0.406 -0.38,0.665 -0.04,0.169 -0.037,0.337 0.045,0.496 0.072,0.139 0.183,0.239 0.326,0.3 0.162,0.07 0.306,0.03 0.432,-0.087 C -0.281,1.026 -0.214,0.907 -0.158,0.78 -0.06,0.554 0,0.267 0,0"
           style="fill:#000000;fill-opacity:1;fill-rule:nonzero;stroke:none;stroke-width:1.22341132"
           id="path4582"
           inkscape:connector-curvature="0" />
      </g>
    </g>
    <g
       style="stroke-width:1.22341132"
       transform="matrix(0.28835581,0,0,-0.28835581,20.150541,152.24043)"
       id="g4588">
      <path
         inkscape:connector-curvature="0"
         id="path4586"
         style="fill:#000000;fill-opacity:1;fill-rule:nonzero;stroke:none;stroke-width:1.22341132"
         d="m 18.597073,0 c -4.179,0 -7.579,-3.4 -7.579,-7.579 v -45.815 c 0,-4.179 3.4,-7.578 7.579,-7.578 H 354.89607 c 4.179,0 7.579,3.399 7.579,7.578 v 45.815 c 0,4.179 -3.4,7.579 -7.579,7.579 z M 354.89607,-61.468 H 18.597073 c -4.452,0 -8.075,3.622 -8.075,8.074 v 45.815 c 0,4.452 3.623,8.075 8.075,8.075 H 354.89607 c 4.453,0 8.075,-3.623 8.075,-8.075 v -45.815 c 0,-4.452 -3.622,-8.074 -8.075,-8.074" />
    </g>
    <flowRoot
       xml:space="preserve"
       id="flowRoot5346"
       style="font-size:40px;line-height:100%;font-family:sans-serif"
       transform="matrix(0.26458333,0,0,0.26458333,-159.71832,108.75002)"><flowRegion
         id="flowRegion5348"
         style="line-height:100%"><rect
           id="rect5350"
           width="459.79697"
           height="278.59048"
           x="652.56543"
           y="17.083181"
           style="line-height:100%;" /></flowRegion><flowPara
         id="flowPara5352"
         style="font-style:normal;font-variant:normal;font-weight:bold;font-stretch:normal;font-size:58.66667175px;line-height:100%;font-family:'Source Sans Pro';-inkscape-font-specification:'Source Sans Pro Bold';text-align:center;text-anchor:middle">20th Birthday Trivia</flowPara></flowRoot>    <text
       y="184.11656"
       x="37.777405"
       style="font-style:normal;font-variant:normal;font-weight:bold;font-stretch:normal;font-size:4.93888889px;font-family:'Source Sans Pro';-inkscape-font-specification:'Source Sans Pro, Bold';writing-mode:lr;fill:#000000;fill-opacity:1;fill-rule:nonzero;stroke:none;stroke-width:0.35277775;text-anchor:start;text-align:start;font-variant-ligatures:normal;font-variant-caps:normal;font-variant-numeric:normal;font-feature-settings:normal;"
       id="text5447">
      <tspan
         sodipodi:role="line"
         id="tspan5445"
         style="font-style:normal;font-variant:normal;font-weight:bold;font-stretch:normal;font-size:4.93888889px;font-family:'Source Sans Pro';-inkscape-font-specification:'Source Sans Pro, Bold';stroke-width:0.35277775;text-anchor:start;text-align:start;writing-mode:lr;font-variant-ligatures:normal;font-variant-caps:normal;font-variant-numeric:normal;font-feature-settings:normal;"
         x="37.777405"
         y="184.11656">1</tspan>
    </text>
    <text
       y="198.92834"
       x="14.940152"
       style="font-style:normal;font-variant:normal;font-weight:bold;font-stretch:normal;font-size:4.93888903px;font-family:'Source Sans Pro';-inkscape-font-specification:'Source Sans Pro, Bold';font-variant-ligatures:normal;font-variant-caps:normal;font-variant-numeric:normal;font-feature-settings:normal;text-align:start;writing-mode:lr-tb;text-anchor:start;fill:#000000;fill-opacity:1;fill-rule:nonzero;stroke:none;stroke-width:0.35277775"
       id="text5451">
      <tspan
         sodipodi:role="line"
         id="tspan5449"
         style="font-style:normal;font-variant:normal;font-weight:bold;font-stretch:normal;font-size:4.93888903px;font-family:'Source Sans Pro';-inkscape-font-specification:'Source Sans Pro, Bold';font-variant-ligatures:normal;font-variant-caps:normal;font-variant-numeric:normal;font-feature-settings:normal;text-align:start;writing-mode:lr-tb;text-anchor:start;stroke-width:0.35277775"
         x="14.940152"
         y="198.92834">2</tspan>
    </text>
    <text
       y="213.74013"
       x="27.727911"
       style="font-style:normal;font-variant:normal;font-weight:bold;font-stretch:normal;font-size:4.93888903px;font-family:'Source Sans Pro';-inkscape-font-specification:'Source Sans Pro, Bold';font-variant-ligatures:normal;font-variant-caps:normal;font-variant-numeric:normal;font-feature-settings:normal;text-align:start;writing-mode:lr-tb;text-anchor:start;fill:#000000;fill-opacity:1;fill-rule:nonzero;stroke:none;stroke-width:0.35277775"
       id="text5455">
      <tspan
         sodipodi:role="line"
         id="tspan5453"
         style="font-style:normal;font-variant:normal;font-weight:bold;font-stretch:normal;font-size:4.93888903px;font-family:'Source Sans Pro';-inkscape-font-specification:'Source Sans Pro, Bold';font-variant-ligatures:normal;font-variant-caps:normal;font-variant-numeric:normal;font-feature-settings:normal;text-align:start;writing-mode:lr-tb;text-anchor:start;stroke-width:0.35277775"
         x="27.727911"
         y="213.74013">3</tspan>
    </text>
    <text
       y="228.5519"
       x="18.85602"
       style="font-style:normal;font-variant:normal;font-weight:bold;font-stretch:normal;font-size:4.93888903px;font-family:'Source Sans Pro';-inkscape-font-specification:'Source Sans Pro, Bold';font-variant-ligatures:normal;font-variant-caps:normal;font-variant-numeric:normal;font-feature-settings:normal;text-align:start;writing-mode:lr-tb;text-anchor:start;fill:#000000;fill-opacity:1;fill-rule:nonzero;stroke:none;stroke-width:0.35277775"
       id="text5459">
      <tspan
         sodipodi:role="line"
         id="tspan5457"
         style="font-style:normal;font-variant:normal;font-weight:bold;font-stretch:normal;font-size:4.93888903px;font-family:'Source Sans Pro';-inkscape-font-specification:'Source Sans Pro, Bold';font-variant-ligatures:normal;font-variant-caps:normal;font-variant-numeric:normal;font-feature-settings:normal;text-align:start;writing-mode:lr-tb;text-anchor:start;stroke-width:0.35277775"
         x="18.85602"
         y="228.5519">4</tspan>
    </text>
    <text
       y="243.36368"
       x="27.107828"
       style="font-style:normal;font-variant:normal;font-weight:bold;font-stretch:normal;font-size:4.93888903px;font-family:'Source Sans Pro';-inkscape-font-specification:'Source Sans Pro, Bold';font-variant-ligatures:normal;font-variant-caps:normal;font-variant-numeric:normal;font-feature-settings:normal;text-align:start;writing-mode:lr-tb;text-anchor:start;fill:#000000;fill-opacity:1;fill-rule:nonzero;stroke:none;stroke-width:0.35277775"
       id="text5463">
      <tspan
         sodipodi:role="line"
         id="tspan5461"
         style="font-style:normal;font-variant:normal;font-weight:bold;font-stretch:normal;font-size:4.93888903px;font-family:'Source Sans Pro';-inkscape-font-specification:'Source Sans Pro, Bold';font-variant-ligatures:normal;font-variant-caps:normal;font-variant-numeric:normal;font-feature-settings:normal;text-align:start;writing-mode:lr-tb;text-anchor:start;stroke-width:0.35277775"
         x="27.107828"
         y="243.36368">5</tspan>
    </text>
    <text
       y="258.17548"
       x="6.1364703"
       style="font-style:normal;font-variant:normal;font-weight:bold;font-stretch:normal;font-size:4.93888903px;font-family:'Source Sans Pro';-inkscape-font-specification:'Source Sans Pro, Bold';font-variant-ligatures:normal;font-variant-caps:normal;font-variant-numeric:normal;font-feature-settings:normal;text-align:start;writing-mode:lr-tb;text-anchor:start;fill:#000000;fill-opacity:1;fill-rule:nonzero;stroke:none;stroke-width:0.35277775"
       id="text5467">
      <tspan
         sodipodi:role="line"
         id="tspan5465"
         style="font-style:normal;font-variant:normal;font-weight:bold;font-stretch:normal;font-size:4.93888903px;font-family:'Source Sans Pro';-inkscape-font-specification:'Source Sans Pro, Bold';font-variant-ligatures:normal;font-variant-caps:normal;font-variant-numeric:normal;font-feature-settings:normal;text-align:start;writing-mode:lr-tb;text-anchor:start;stroke-width:0.35277775"
         x="6.1364703"
         y="258.17548">6</tspan>
    </text>
    <text
       id="text5471"
       style="font-style:normal;font-variant:normal;font-weight:bold;font-stretch:normal;font-size:4.93888903px;font-family:'Source Sans Pro';-inkscape-font-specification:'Source Sans Pro, Bold';font-variant-ligatures:normal;font-variant-caps:normal;font-variant-numeric:normal;font-feature-settings:normal;text-align:start;writing-mode:lr-tb;text-anchor:start;fill:#000000;fill-opacity:1;fill-rule:nonzero;stroke:none;stroke-width:0.35277775"
       x="65.406181"
       y="276.16714">
      <tspan
         y="276.16714"
         x="65.406181"
         style="font-style:normal;font-variant:normal;font-weight:bold;font-stretch:normal;font-size:4.93888903px;font-family:'Source Sans Pro';-inkscape-font-specification:'Source Sans Pro, Bold';font-variant-ligatures:normal;font-variant-caps:normal;font-variant-numeric:normal;font-feature-settings:normal;text-align:start;writing-mode:lr-tb;text-anchor:start;stroke-width:0.35277775"
         id="tspan5469"
         sodipodi:role="line">BONUS:</tspan>
    </text>
    <flowRoot
       xml:space="preserve"
       id="flowRoot6771"
       style="font-style:normal;font-variant:normal;font-weight:300;font-stretch:normal;font-size:18.66666603px;line-height:20px;font-family:'Source Sans Pro';-inkscape-font-specification:'Source Sans Pro Light';text-align:center;text-anchor:middle"
       transform="matrix(0.26458333,0,0,0.26458333,-37.937443,254.50909)"><flowRegion
         id="flowRegion6767"
         style="font-style:normal;font-variant:normal;font-weight:300;font-stretch:normal;font-size:18.66666603px;line-height:20px;font-family:'Source Sans Pro';-inkscape-font-specification:'Source Sans Pro Light';text-align:center;text-anchor:middle"><rect
           id="rect6765"
           width="535.14746"
           height="109.02624"
           x="154.68756"
           y="94.481621"
           style="font-style:normal;font-variant:normal;font-weight:300;font-stretch:normal;font-size:18.66666603px;line-height:20px;font-family:'Source Sans Pro';-inkscape-font-specification:'Source Sans Pro Light';text-align:center;text-anchor:middle" /></flowRegion><flowPara
         id="flowPara6769"
         style="font-style:normal;font-variant:normal;font-weight:300;font-stretch:normal;font-size:18.66666603px;line-height:20px;font-family:'Source Sans Pro';-inkscape-font-specification:'Source Sans Pro, Light';font-variant-ligatures:normal;font-variant-position:normal;font-variant-caps:normal;font-variant-numeric:normal;font-variant-alternates:normal;font-variant-east-asian:normal;font-feature-settings:normal;text-indent:0;text-align:center;text-decoration:none;text-decoration-line:none;text-decoration-style:solid;text-decoration-color:#000000;letter-spacing:normal;word-spacing:normal;text-transform:none;writing-mode:lr-tb;direction:ltr;text-orientation:mixed;dominant-baseline:auto;baseline-shift:baseline;text-anchor:middle;white-space:normal;shape-padding:0;opacity:1;vector-effect:none;fill:#000000;fill-opacity:1;stroke:none;stroke-width:0.35277775;stroke-linecap:butt;stroke-linejoin:miter;stroke-miterlimit:4;stroke-dasharray:none;stroke-dashoffset:0;stroke-opacity:1">Nominate someone you'd like to see featured on the Engagement blog</flowPara><flowPara
         style="font-style:normal;font-variant:normal;font-weight:300;font-stretch:normal;font-size:18.66666603px;line-height:20px;font-family:'Source Sans Pro';-inkscape-font-specification:'Source Sans Pro, Light';font-variant-ligatures:normal;font-variant-caps:normal;font-variant-numeric:normal;font-feature-settings:normal;text-align:center;writing-mode:lr-tb;text-anchor:middle"
         id="flowPara6797">(https://blogs.gnome.org/engagement/).</flowPara><flowPara
         style="font-style:normal;font-variant:normal;font-weight:300;font-stretch:normal;font-size:18.66666603px;line-height:20px;font-family:'Source Sans Pro';-inkscape-font-specification:'Source Sans Pro, Light';font-variant-ligatures:normal;font-variant-caps:normal;font-variant-numeric:normal;font-feature-settings:normal;text-align:center;writing-mode:lr-tb;text-anchor:middle"
         id="flowPara6799">Include why, and your e-mail!</flowPara></flowRoot>    <flowRoot
       transform="matrix(0.26458333,0,0,0.26458333,-21.234926,130.49718)"
       style="font-size:40px;line-height:11px;font-family:sans-serif"
       id="flowRoot6809"
       xml:space="preserve"><flowRegion
         style="line-height:11px"
         id="flowRegion6803"><rect
           style="line-height:11.00000014px;"
           y="94.481621"
           x="154.68756"
           height="108.22495"
           width="410.53888"
           id="rect6801" /></flowRegion><flowPara
         style="font-style:normal;font-variant:normal;font-weight:bold;font-stretch:normal;font-size:16px;line-height:11px;font-family:'Source Sans Pro';-inkscape-font-specification:'Source Sans Pro, Bold';font-variant-ligatures:normal;font-variant-caps:normal;font-variant-numeric:normal;font-feature-settings:normal;text-align:center;writing-mode:lr-tb;text-anchor:middle"
         id="flowPara6805">RAFFLE:</flowPara><flowPara
         style="font-style:normal;font-variant:normal;font-weight:bold;font-stretch:normal;font-size:16px;line-height:11px;font-family:'Source Sans Pro';-inkscape-font-specification:'Source Sans Pro, Bold';font-variant-ligatures:normal;font-variant-caps:normal;font-variant-numeric:normal;font-feature-settings:normal;text-align:center;writing-mode:lr-tb;text-anchor:middle"
         id="flowPara6807">1 ticket for every correct answer</flowPara></flowRoot>  </g>
  <g
     inkscape:groupmode="layer"
     inkscape:label="crop marks"
     id="printing-marks"
     transform="translate(10,71.999982)"
     style="display:inline"
     sodipodi:insensitive="true">
    <path
       inkscape:connector-curvature="0"
       d="m -5,148.0002 h -5"
       id="cropTL1"
       style="fill:none;stroke:#000000;stroke-width:0.22360678" />
    <path
       inkscape:connector-curvature="0"
       d="m 9.2316533e-7,153 v 5"
       id="cropTL2"
       style="fill:none;stroke:#000000;stroke-width:0.22360681" />
    <path
       inkscape:connector-curvature="0"
       d="m -5,-61.999795 h -5"
       id="cropTR1"
       style="fill:none;stroke:#000000;stroke-width:0.22360678" />
    <path
       inkscape:connector-curvature="0"
       d="m 9.2316284e-7,-66.999982 v -5"
       id="cropTR2"
       style="fill:none;stroke:#000000;stroke-width:0.22360678" />
    <path
       inkscape:connector-curvature="0"
       d="m 153,148.00001 h 5"
       id="cropBL1"
       style="fill:none;stroke:#000000;stroke-width:0.22360678" />
    <path
       inkscape:connector-curvature="0"
       d="m 148.0004,153 v 5"
       id="cropBL2"
       style="fill:none;stroke:#000000;stroke-width:0.22360681" />
    <path
       inkscape:connector-curvature="0"
       d="m 153,-61.999982 h 5"
       id="cropBR1"
       style="fill:none;stroke:#000000;stroke-width:0.22360678" />
    <path
       inkscape:connector-curvature="0"
       d="m 148,-66.999982 v -5"
       id="cropBR2"
       style="fill:none;stroke:#000000;stroke-width:0.22360678" />
  </g>
</svg>
