<svg id="Layer_1" data-name="Layer 1" xmlns="http://www.w3.org/2000/svg" viewBox="0 0 1748 2480"><title>Trivia</title><rect x="-3.11" width="1754.22" height="2480" style="fill:#fff"/><text transform="translate(492.47 581.36)" style="font-size:52.552730560302734px;font-family:SourceSansPro-Bold, Source Sans Pro;font-weight:700">G<tspan x="33.53" y="0" style="letter-spacing:-0.009997399172192004em">e</tspan><tspan x="60.22" y="0" style="letter-spacing:-0.00001858252634236432em">t someone </tspan><tspan x="312.53" y="0" style="letter-spacing:-0.017987885499408662em">t</tspan><tspan x="331.71" y="0">o initial </tspan><tspan x="518.32" y="0" style="letter-spacing:-0.008009068853559021em">y</tspan><tspan x="545.28" y="0" style="letter-spacing:0.00001858252634236432em">our she</tspan><tspan x="716.23" y="0" style="letter-spacing:-0.009997399172192004em">e</tspan><tspan x="742.93" y="0">t</tspan><tspan x="-118.66" y="49.95">under the i</tspan><tspan x="132.38" y="49.95" style="letter-spacing:-0.018006468025751027em">t</tspan><tspan x="151.56" y="49.95">ems th</tspan><tspan x="307.74" y="49.95" style="letter-spacing:-0.006002156008583675em">e</tspan><tspan x="334.65" y="49.95">y me</tspan><tspan x="444.8" y="49.95" style="letter-spacing:-0.009997399172192004em">e</tspan><tspan x="471.5" y="49.95">t (no dupli</tspan><tspan x="709.56" y="49.95" style="letter-spacing:-0.009997399172192004em">c</tspan><tspan x="733.57" y="49.95" style="letter-spacing:-0.017987885499408662em">at</tspan><tspan x="779.5" y="49.95">es!):</tspan></text><text transform="translate(223.83 2202.62)" style="font-size:35.79116439819336px;font-family:SourceSansPro-Light, Source Sans Pro">* Submit your pho<tspan x="263.27" y="0" style="letter-spacing:-0.010013600941077262em">t</tspan><tspan x="274.08" y="0" style="letter-spacing:0.000027285016188221418em">os! </tspan><tspan x="324.12" y="0" style="letter-spacing:-0.00998631592488904em">R</tspan><tspan x="343.55" y="0" style="letter-spacing:-0.015006758903521782em">e</tspan><tspan x="360.3" y="0">ad how </tspan><tspan x="474.44" y="0" style="letter-spacing:-0.00998631592488904em">t</tspan><tspan x="485.25" y="0">o do that he</tspan><tspan x="659.65" y="0" style="letter-spacing:-0.00998631592488904em">r</tspan><tspan x="670.64" y="0" style="letter-spacing:-0.000027285016188221418em">e:</tspan><tspan x="0" y="44.03">https://wiki.gnome</tspan><tspan x="275.91" y="44.03" style="letter-spacing:-0.010968576507665011em">.</tspan><tspan x="283.36" y="44.03">o</tspan><tspan x="302.5" y="44.03" style="letter-spacing:-0.010013600941077262em">r</tspan><tspan x="313.49" y="44.03" style="letter-spacing:0.0599997505978989em">g</tspan><tspan x="333.07" y="44.03">/En</tspan><tspan x="383.03" y="44.03" style="letter-spacing:-0.015034043919710003em">g</tspan><tspan x="399.92" y="44.03" style="letter-spacing:0.000027285016188221418em">a</tspan><tspan x="417.79" y="44.03" style="letter-spacing:-0.010995861523853232em">g</tspan><tspan x="434.82" y="44.03" style="letter-spacing:-0.000027285016188221418em">emen</tspan><tspan x="517.5" y="44.03" style="letter-spacing:0.0199999168659663em">t</tspan><tspan x="529.38" y="44.03" style="letter-spacing:-0.000027285016188221418em">/Pho</tspan><tspan x="599.92" y="44.03" style="letter-spacing:-0.00998631592488904em">t</tspan><tspan x="610.73" y="44.03">os/Ho</tspan><tspan x="698.92" y="44.03" style="letter-spacing:-0.020982177448742274em">w</tspan><tspan x="722.69" y="44.03" style="letter-spacing:-0.0599997505978989em">T</tspan><tspan x="739.04" y="44.03">o</tspan></text><path d="M589.64,1152.13H247.46a25.59,25.59,0,0,1-25.56-25.56V784.4a25.59,25.59,0,0,1,25.56-25.56H589.64a25.59,25.59,0,0,1,25.56,25.56v342.17A25.59,25.59,0,0,1,589.64,1152.13ZM247.46,760.31a24.12,24.12,0,0,0-24.09,24.09v342.17a24.12,24.12,0,0,0,24.09,24.09H589.64a24.12,24.12,0,0,0,24.09-24.09V784.4a24.12,24.12,0,0,0-24.09-24.09Z"/><text transform="translate(288.04 826.06)" style="font-size:35.26066207885742px;font-family:SourceSansPro-Light, Source Sans Pro">Someone who is a <tspan x="-11.18" y="38.2">GNOME </tspan><tspan x="105.67" y="38.2" style="letter-spacing:-0.010995122883199213em">F</tspan><tspan x="122.11" y="38.2">ound</tspan><tspan x="197.56" y="38.2" style="letter-spacing:-0.010967427359563952em">a</tspan><tspan x="214.49" y="38.2">tion </tspan><tspan x="69.2" y="76.4">member</tspan></text><path d="M1045.09,1152.13H702.91a25.59,25.59,0,0,1-25.56-25.56V784.4a25.59,25.59,0,0,1,25.56-25.56h342.17a25.59,25.59,0,0,1,25.56,25.56v342.17A25.59,25.59,0,0,1,1045.09,1152.13ZM702.91,760.31a24.12,24.12,0,0,0-24.09,24.09v342.17a24.12,24.12,0,0,0,24.09,24.09h342.17a24.12,24.12,0,0,0,24.09-24.09V784.4a24.12,24.12,0,0,0-24.09-24.09Z"/><text transform="translate(770.38 826.06)" style="font-size:35.26066207885742px;font-family:SourceSansPro-Light, Source Sans Pro">Someone who <tspan x="-28.86" y="38.2" style="letter-spacing:-0.010995122883199213em">a</tspan><tspan x="-11.94" y="38.2" style="letter-spacing:-0.019968472541024265em">t</tspan><tspan x="-1.64" y="38.2" style="letter-spacing:-0.010995122883199213em">t</tspan><tspan x="8.97" y="38.2">ended the la</tspan><tspan x="186.58" y="38.2" style="letter-spacing:-0.019996168064659526em">s</tspan><tspan x="200.15" y="38.2">t 3 </tspan><tspan x="2.98" y="76.4">G</tspan><tspan x="24.31" y="76.4" style="letter-spacing:-0.018999129213790076em">U</tspan><tspan x="46" y="76.4">ADECs (n</tspan><tspan x="173.82" y="76.4" style="letter-spacing:-0.011992161734068665em">o</tspan><tspan x="192.26" y="76.4">t </tspan><tspan x="-5.54" y="114.6">including 2017)</tspan></text><path d="M1500.54,1152.13H1158.36a25.59,25.59,0,0,1-25.56-25.56V784.4a25.59,25.59,0,0,1,25.56-25.56h342.17a25.59,25.59,0,0,1,25.56,25.56v342.17A25.59,25.59,0,0,1,1500.54,1152.13ZM1158.36,760.31a24.12,24.12,0,0,0-24.09,24.09v342.17a24.12,24.12,0,0,0,24.09,24.09h342.17a24.12,24.12,0,0,0,24.09-24.09V784.4a24.12,24.12,0,0,0-24.09-24.09Z"/><text transform="translate(1181.22 826.06)" style="font-size:35.26066207885742px;font-family:SourceSansPro-Light, Source Sans Pro">Someone who made <tspan x="-7.62" y="38.2">their fir</tspan><tspan x="93.86" y="38.2" style="letter-spacing:-0.019996168064659526em">s</tspan><tspan x="107.44" y="38.2">t </tspan><tspan x="125.49" y="38.2" style="letter-spacing:-0.016977355988415915em">c</tspan><tspan x="140.72" y="38.2">ontribution </tspan><tspan x="11.34" y="76.4" style="letter-spacing:-0.010995122883199213em">t</tspan><tspan x="21.95" y="76.4">o GNOME this y</tspan><tspan x="239.12" y="76.4" style="letter-spacing:-0.014983278286677015em">e</tspan><tspan x="255.62" y="76.4">ar</tspan></text><path d="M589.64,1598.76H247.46a25.58,25.58,0,0,1-25.56-25.56V1231a25.59,25.59,0,0,1,25.56-25.56H589.64A25.59,25.59,0,0,1,615.19,1231V1573.2A25.58,25.58,0,0,1,589.64,1598.76ZM247.46,1206.94A24.12,24.12,0,0,0,223.38,1231V1573.2a24.12,24.12,0,0,0,24.09,24.09H589.64a24.12,24.12,0,0,0,24.09-24.09V1231a24.12,24.12,0,0,0-24.09-24.09Z"/><text transform="translate(300.22 1272.7)" style="font-size:35.26066207885742px;font-family:SourceSansPro-Light, Source Sans Pro">Someone who is <tspan x="-37.57" y="38.2" style="letter-spacing:-0.010995122883199213em">a</tspan><tspan x="-20.64" y="38.2" style="letter-spacing:-0.019968472541024265em">t</tspan><tspan x="-10.35" y="38.2" style="letter-spacing:-0.010995122883199213em">t</tspan><tspan x="0.27" y="38.2">ending G</tspan><tspan x="127.63" y="38.2" style="letter-spacing:-0.018999129213790076em">U</tspan><tspan x="149.31" y="38.2">ADEC </tspan><tspan x="234.25" y="38.2" style="letter-spacing:-0.009998084032329763em">f</tspan><tspan x="243.17" y="38.2">or </tspan><tspan x="28.53" y="76.4">the fir</tspan><tspan x="110.75" y="76.4" style="letter-spacing:-0.019996168064659526em">s</tspan><tspan x="124.33" y="76.4">t time</tspan></text><path d="M1045.09,1598.76H702.91a25.58,25.58,0,0,1-25.56-25.56V1231a25.59,25.59,0,0,1,25.56-25.56h342.17a25.59,25.59,0,0,1,25.56,25.56V1573.2A25.58,25.58,0,0,1,1045.09,1598.76ZM702.91,1206.94A24.12,24.12,0,0,0,678.83,1231V1573.2a24.12,24.12,0,0,0,24.09,24.09h342.17a24.12,24.12,0,0,0,24.09-24.09V1231a24.12,24.12,0,0,0-24.09-24.09Z"/><text transform="translate(770.38 1272.7)" style="font-size:35.26066207885742px;font-family:SourceSansPro-Light, Source Sans Pro">Someone who <tspan x="-42.84" y="38.2" style="letter-spacing:-0.015010973810312276em">p</tspan><tspan x="-24.19" y="38.2">artici</tspan><tspan x="47.28" y="38.2" style="letter-spacing:-0.014983278286677015em">p</tspan><tspan x="65.94" y="38.2" style="letter-spacing:-0.010995122883199213em">at</tspan><tspan x="93.47" y="38.2" style="letter-spacing:0.000027695523635262502em">ed in GSoC </tspan><tspan x="-12.45" y="76.4">or Out</tspan><tspan x="77.29" y="76.4" style="letter-spacing:-0.009998084032329763em">r</tspan><tspan x="88.11" y="76.4" style="letter-spacing:-0.014983278286677015em">e</tspan><tspan x="104.62" y="76.4">achy (or </tspan><tspan x="-29.42" y="114.6">OPW) with GNOME</tspan></text><path d="M1500.54,1598.76H1158.36a25.58,25.58,0,0,1-25.56-25.56V1231a25.59,25.59,0,0,1,25.56-25.56h342.17a25.59,25.59,0,0,1,25.56,25.56V1573.2A25.58,25.58,0,0,1,1500.54,1598.76Zm-342.17-391.82a24.12,24.12,0,0,0-24.09,24.09V1573.2a24.12,24.12,0,0,0,24.09,24.09h342.17a24.12,24.12,0,0,0,24.09-24.09V1231a24.12,24.12,0,0,0-24.09-24.09Z"/><text transform="translate(1197.2 1272.7)" style="font-size:35.26066207885742px;font-family:SourceSansPro-Light, Source Sans Pro">Someone who has <tspan x="5.64" y="38.2">helped o</tspan><tspan x="130.96" y="38.2" style="letter-spacing:-0.009998084032329763em">r</tspan><tspan x="141.78" y="38.2" style="letter-spacing:-0.014983278286677015em">g</tspan><tspan x="158.42" y="38.2">ani</tspan><tspan x="202.57" y="38.2" style="letter-spacing:-0.009998084032329763em">z</tspan><tspan x="216.46" y="38.2">e a </tspan><tspan x="71.3" y="76.4">G</tspan><tspan x="92.63" y="76.4" style="letter-spacing:-0.018999129213790076em">U</tspan><tspan x="114.31" y="76.4">ADEC</tspan></text><path d="M589.64,2045.39H247.46a25.58,25.58,0,0,1-25.56-25.56V1677.66a25.58,25.58,0,0,1,25.56-25.56H589.64a25.58,25.58,0,0,1,25.56,25.56v342.17A25.58,25.58,0,0,1,589.64,2045.39ZM247.46,1653.58a24.12,24.12,0,0,0-24.09,24.09v342.17a24.12,24.12,0,0,0,24.09,24.09H589.64a24.12,24.12,0,0,0,24.09-24.09V1677.66a24.12,24.12,0,0,0-24.09-24.09Z"/><text transform="translate(286.29 1719.33)" style="font-size:35.26066207885742px;font-family:SourceSansPro-Light, Source Sans Pro">Someone who has <tspan x="-23.89" y="38.2" style="letter-spacing:-0.017005051512051176em">c</tspan><tspan x="-8.66" y="38.2">ontribu</tspan><tspan x="96.98" y="38.2" style="letter-spacing:-0.010967427359563952em">t</tspan><tspan x="107.6" y="38.2">ed ph</tspan><tspan x="188.66" y="38.2" style="letter-spacing:-0.011992161734068665em">o</tspan><tspan x="207.1" y="38.2" style="letter-spacing:-0.010995122883199213em">t</tspan><tspan x="217.71" y="38.2">os </tspan><tspan x="257.91" y="38.2" style="letter-spacing:-0.010995122883199213em">t</tspan><tspan x="268.52" y="38.2">o </tspan><tspan x="76.85" y="76.4">GNOME</tspan><tspan x="22.14" y="114.6">(THANK </tspan><tspan x="140.69" y="114.6" style="letter-spacing:-0.010995122883199213em">Y</tspan><tspan x="156.06" y="114.6">OU! *)</tspan></text><path d="M1045.09,2045.39H702.91a25.58,25.58,0,0,1-25.56-25.56V1677.66a25.58,25.58,0,0,1,25.56-25.56h342.17a25.58,25.58,0,0,1,25.56,25.56v342.17A25.58,25.58,0,0,1,1045.09,2045.39ZM702.91,1653.58a24.12,24.12,0,0,0-24.09,24.09v342.17a24.12,24.12,0,0,0,24.09,24.09h342.17a24.12,24.12,0,0,0,24.09-24.09V1677.66a24.12,24.12,0,0,0-24.09-24.09Z"/><text transform="translate(743.49 1719.33)" style="font-size:35.26066207885742px;font-family:SourceSansPro-Light, Source Sans Pro">Someone who is a <tspan x="-3.88" y="38.2">“</tspan><tspan x="8.82" y="38.2" style="letter-spacing:-0.019996168064659526em">F</tspan><tspan x="24.93" y="38.2">riend of GNOME”</tspan></text><path d="M1500.54,2045.39H1158.36a25.58,25.58,0,0,1-25.56-25.56V1677.66a25.58,25.58,0,0,1,25.56-25.56h342.17a25.58,25.58,0,0,1,25.56,25.56v342.17A25.58,25.58,0,0,1,1500.54,2045.39Zm-342.17-391.82a24.12,24.12,0,0,0-24.09,24.09v342.17a24.12,24.12,0,0,0,24.09,24.09h342.17a24.12,24.12,0,0,0,24.09-24.09V1677.66a24.12,24.12,0,0,0-24.09-24.09Z"/><text transform="translate(1170.96 1719.33)" style="font-size:35.26066207885742px;font-family:SourceSansPro-Light, Source Sans Pro">Th<tspan x="37.09" y="0" style="letter-spacing:-0.009998084032329763em">r</tspan><tspan x="47.92" y="0">ee di</tspan><tspan x="116.29" y="0" style="letter-spacing:-0.009998084032329763em">ff</tspan><tspan x="134.62" y="0">e</tspan><tspan x="151.65" y="0" style="letter-spacing:-0.009998084032329763em">r</tspan><tspan x="162.48" y="0">ent people </tspan><tspan x="41.54" y="38.2">who live in th</tspan><tspan x="229.54" y="38.2" style="letter-spacing:-0.009998084032329763em">r</tspan><tspan x="240.37" y="38.2">ee </tspan><tspan x="18.63" y="76.4">di</tspan><tspan x="45.89" y="76.4" style="letter-spacing:-0.009998084032329763em">ff</tspan><tspan x="64.23" y="76.4">e</tspan><tspan x="81.26" y="76.4" style="letter-spacing:-0.009998084032329763em">r</tspan><tspan x="92.08" y="76.4">ent </tspan><tspan x="145.92" y="76.4" style="letter-spacing:-0.016977355988415915em">c</tspan><tspan x="161.16" y="76.4">ontinen</tspan><tspan x="272.4" y="76.4" style="letter-spacing:-0.009998084032329763em">t</tspan><tspan x="283.05" y="76.4">s</tspan></text><text transform="translate(797.2 311.71)" style="font-size:42.762603759765625px;font-family:SourceSansPro-Bold, Source Sans Pro;font-weight:700"><tspan style="letter-spacing:-0.007992892035297182em">R</tspan><tspan x="25.87" y="0">AFFLE:</tspan><tspan x="-226.92" y="40.65">1 tic</tspan><tspan x="-147.64" y="40.65" style="letter-spacing:-0.0279979589579267em">k</tspan><tspan x="-125.4" y="40.65" style="letter-spacing:-0.009979696626928197em">e</tspan><tspan x="-103.68" y="40.65">t </tspan><tspan x="-78.75" y="40.65" style="letter-spacing:-0.009979696626928197em">f</tspan><tspan x="-64.59" y="40.65">or </tspan><tspan x="-15.29" y="40.65" style="letter-spacing:-0.005983250609279605em">e</tspan><tspan x="6.61" y="40.65" style="letter-spacing:-0.007992892035297182em">v</tspan><tspan x="28.63" y="40.65">e</tspan><tspan x="50.78" y="40.65" style="letter-spacing:0.006988071322288393em">r</tspan><tspan x="68.1" y="40.65">y </tspan><tspan x="98.93" y="40.65" style="letter-spacing:-0.01000253346131476em">r</tspan><tspan x="115.52" y="40.65" style="letter-spacing:-0.008015728869683745em">o</tspan><tspan x="138.91" y="40.65">w </tspan><tspan x="180.65" y="40.65" style="letter-spacing:-0.0279979589579267em">c</tspan><tspan x="199.42" y="40.65">ompl</tspan><tspan x="296.53" y="40.65" style="letter-spacing:-0.009979696626928197em">e</tspan><tspan x="318.26" y="40.65" style="letter-spacing:-0.01799542549661194em">t</tspan><tspan x="333.86" y="40.65">ed</tspan><tspan x="-61.83" y="81.29">(max 3 tic</tspan><tspan x="121.87" y="81.29" style="letter-spacing:-0.028020795792313265em">k</tspan><tspan x="144.11" y="81.29" style="letter-spacing:-0.009979696626928197em">et</tspan><tspan x="181.78" y="81.29">s)</tspan></text><path d="M1372.37,441.49H375.63a24,24,0,0,1-23.93-23.93V258.27a24,24,0,0,1,23.93-23.93h996.73a24,24,0,0,1,23.93,23.93V417.56A24,24,0,0,1,1372.37,441.49ZM375.63,235.81a22.49,22.49,0,0,0-22.46,22.46V417.56A22.49,22.49,0,0,0,375.63,440h996.73a22.49,22.49,0,0,0,22.46-22.46V258.27a22.49,22.49,0,0,0-22.46-22.46Z"/></svg>