<?xml version="1.0" encoding="UTF-8" standalone="no"?>
<!-- Created with Inkscape (http://www.inkscape.org/) -->

<svg
   xmlns:dc="http://purl.org/dc/elements/1.1/"
   xmlns:cc="http://creativecommons.org/ns#"
   xmlns:rdf="http://www.w3.org/1999/02/22-rdf-syntax-ns#"
   xmlns:svg="http://www.w3.org/2000/svg"
   xmlns="http://www.w3.org/2000/svg"
   xmlns:sodipodi="http://sodipodi.sourceforge.net/DTD/sodipodi-0.dtd"
   xmlns:inkscape="http://www.inkscape.org/namespaces/inkscape"
   width="168mm"
   height="229.99998mm"
   viewBox="0 0 168 229.99998"
   version="1.1"
   id="svg2022"
   inkscape:version="0.92+devel unknown"
   sodipodi:docname="20th-birthday-trivia-side2-new.svg"
   inkscape:export-filename="/home/aday/Dropbox/Public/guadec2017/badge-side-1-corner.png"
   inkscape:export-xdpi="90"
   inkscape:export-ydpi="90">
  <sodipodi:namedview
     id="base"
     pagecolor="#ffffff"
     bordercolor="#666666"
     borderopacity="1.0"
     inkscape:pageopacity="0.0"
     inkscape:pageshadow="2"
     inkscape:zoom="1"
     inkscape:cx="273.03602"
     inkscape:cy="495.51465"
     inkscape:document-units="mm"
     inkscape:current-layer="layer1"
     inkscape:document-rotation="0"
     showgrid="false"
     inkscape:showpageshadow="false"
     inkscape:window-width="1920"
     inkscape:window-height="1136"
     inkscape:window-x="0"
     inkscape:window-y="27"
     inkscape:window-maximized="1"
     inkscape:snap-global="false"
     showguides="true"
     inkscape:guide-bbox="true"
     fit-margin-top="0"
     fit-margin-left="0"
     fit-margin-right="0"
     fit-margin-bottom="0"
     inkscape:snap-page="true"
     inkscape:snap-nodes="false"
     inkscape:snap-bbox="true"
     inkscape:bbox-paths="true"
     inkscape:bbox-nodes="true">
    <inkscape:grid
       id="grid2024"
       type="xygrid"
       units="mm"
       spacingx="1"
       spacingy="1"
       empspacing="1"
       originx="10"
       originy="10" />
    <sodipodi:guide
       position="10,6.9999999"
       orientation="1,0"
       id="guide5752"
       inkscape:locked="false" />
    <sodipodi:guide
       position="-90.118587,214.14474"
       orientation="0,1"
       id="guide5756"
       inkscape:locked="false" />
    <sodipodi:guide
       position="158,8"
       orientation="1,0"
       id="guide4883"
       inkscape:locked="false" />
  </sodipodi:namedview>
  <defs
     id="defs2016">
    <clipPath
       clipPathUnits="userSpaceOnUse"
       id="clipPath118">
      <path
         d="M 0,898.583 H 651.969 V 0 H 0 Z"
         id="path116"
         inkscape:connector-curvature="0" />
    </clipPath>
  </defs>
  <metadata
     id="metadata2019">
    <rdf:RDF>
      <cc:Work
         rdf:about="">
        <dc:format>image/svg+xml</dc:format>
        <dc:type
           rdf:resource="http://purl.org/dc/dcmitype/StillImage" />
        <dc:title></dc:title>
      </cc:Work>
    </rdf:RDF>
  </metadata>
  <g
     transform="translate(10,-77.000018)"
     id="layer1"
     inkscape:groupmode="layer"
     inkscape:label="Layer 1">
    <path
       style="stroke-width:0.26458332"
       d="m 46.431405,186.22037 h -33.17083 a 2.4813163,2.4813163 0 0 1 -2.47846,-2.47846 v -33.17083 a 2.4813163,2.4813163 0 0 1 2.47846,-2.47846 h 33.17083 a 2.4813163,2.4813163 0 0 1 2.478461,2.47846 v 33.17083 a 2.4813163,2.4813163 0 0 1 -2.478461,2.47846 z m -33.17083,-37.97641 a 2.3385478,2.3385478 0 0 0 -2.335692,2.33569 v 33.16226 a 2.3385478,2.3385478 0 0 0 2.335692,2.3357 h 33.17083 a 2.3385478,2.3385478 0 0 0 2.335693,-2.3357 v -33.17083 a 2.3385478,2.3385478 0 0 0 -2.335693,-2.33569 z"
       id="path4948"
       inkscape:connector-curvature="0" />
    <path
       style="stroke-width:0.26458332"
       d="m 90.583987,186.22037 h -33.17083 a 2.4813163,2.4813163 0 0 1 -2.478461,-2.47846 v -33.17083 a 2.4813163,2.4813163 0 0 1 2.478461,-2.47846 h 33.17083 a 2.4813163,2.4813163 0 0 1 2.478461,2.47846 v 33.17083 a 2.4813163,2.4813163 0 0 1 -2.478461,2.47846 z m -33.17083,-37.97641 a 2.3385478,2.3385478 0 0 0 -2.335692,2.33569 v 33.16226 a 2.3385478,2.3385478 0 0 0 2.335692,2.3357 h 33.17083 a 2.3385478,2.3385478 0 0 0 2.335692,-2.3357 v -33.17083 a 2.3385478,2.3385478 0 0 0 -2.335692,-2.33569 z"
       id="path4964"
       inkscape:connector-curvature="0" />
    <path
       style="stroke-width:0.26458332"
       d="m 134.73942,186.22037 h -33.17368 a 2.4813163,2.4813163 0 0 1 -2.478462,-2.47846 v -33.17083 a 2.4813163,2.4813163 0 0 1 2.478462,-2.47846 h 33.17368 a 2.4813163,2.4813163 0 0 1 2.47846,2.47846 v 33.17083 a 2.4813163,2.4813163 0 0 1 -2.47846,2.47846 z m -33.17083,-37.97641 a 2.3385478,2.3385478 0 0 0 -2.335688,2.33569 v 33.16226 a 2.3385478,2.3385478 0 0 0 2.335688,2.3357 h 33.17083 a 2.3385478,2.3385478 0 0 0 2.3357,-2.3357 v -33.17083 a 2.3385478,2.3385478 0 0 0 -2.3357,-2.33569 z"
       id="path4992"
       inkscape:connector-curvature="0" />
    <path
       style="stroke-width:0.26458332"
       d="m 46.431405,229.5192 h -33.17083 a 2.4813163,2.4813163 0 0 1 -2.47846,-2.47846 v -33.17083 a 2.4813163,2.4813163 0 0 1 2.47846,-2.47846 h 33.17083 a 2.4813163,2.4813163 0 0 1 2.478461,2.47846 v 33.17083 a 2.4813163,2.4813163 0 0 1 -2.478461,2.47846 z m -33.17083,-37.97642 a 2.3385478,2.3385478 0 0 0 -2.335692,2.3357 v 33.16226 a 2.3385478,2.3385478 0 0 0 2.335692,2.33569 h 33.17083 a 2.3385478,2.3385478 0 0 0 2.335693,-2.33569 v -33.17083 a 2.3385478,2.3385478 0 0 0 -2.335693,-2.33569 z"
       id="path5014"
       inkscape:connector-curvature="0" />
    <path
       style="stroke-width:0.26458332"
       d="m 90.583987,229.5192 h -33.17083 a 2.4813163,2.4813163 0 0 1 -2.478461,-2.47846 v -33.17083 a 2.4813163,2.4813163 0 0 1 2.478461,-2.47846 h 33.17083 a 2.4813163,2.4813163 0 0 1 2.478461,2.47846 v 33.17083 a 2.4813163,2.4813163 0 0 1 -2.478461,2.47846 z m -33.17083,-37.97642 a 2.3385478,2.3385478 0 0 0 -2.335692,2.3357 v 33.16226 a 2.3385478,2.3385478 0 0 0 2.335692,2.33569 h 33.17083 a 2.3385478,2.3385478 0 0 0 2.335692,-2.33569 v -33.17083 a 2.3385478,2.3385478 0 0 0 -2.335692,-2.33569 z"
       id="path5040"
       inkscape:connector-curvature="0" />
    <path
       style="stroke-width:0.26458332"
       d="m 134.73942,229.5192 h -33.17368 a 2.4813163,2.4813163 0 0 1 -2.478462,-2.47846 v -33.17083 a 2.4813163,2.4813163 0 0 1 2.478462,-2.47846 h 33.17368 a 2.4813163,2.4813163 0 0 1 2.46704,2.47846 v 33.17083 a 2.4813163,2.4813163 0 0 1 -2.46704,2.47846 z m -33.17083,-37.97642 a 2.3385478,2.3385478 0 0 0 -2.338544,2.32713 v 33.17083 a 2.3385478,2.3385478 0 0 0 2.335694,2.33569 h 33.17368 a 2.3385478,2.3385478 0 0 0 2.3357,-2.33569 v -33.17083 a 2.3385478,2.3385478 0 0 0 -2.3357,-2.33569 z"
       id="path5064"
       inkscape:connector-curvature="0" />
    <path
       style="stroke-width:0.26458332"
       d="m 46.431405,272.81803 h -33.17083 a 2.4813163,2.4813163 0 0 1 -2.47846,-2.47846 v -33.17083 a 2.4813163,2.4813163 0 0 1 2.47846,-2.47847 h 33.17083 a 2.4813163,2.4813163 0 0 1 2.478461,2.47847 v 33.17083 a 2.4813163,2.4813163 0 0 1 -2.478461,2.47846 z m -33.17083,-37.97642 a 2.3385478,2.3385478 0 0 0 -2.335692,2.33569 v 33.16227 a 2.3385478,2.3385478 0 0 0 2.335692,2.33569 h 33.17083 a 2.3385478,2.3385478 0 0 0 2.335693,-2.33569 v -33.17083 a 2.3385478,2.3385478 0 0 0 -2.335693,-2.3357 z"
       id="path5086"
       inkscape:connector-curvature="0" />
    <path
       style="stroke-width:0.26458332"
       d="m 90.583987,272.81803 h -33.17083 a 2.4813163,2.4813163 0 0 1 -2.478461,-2.47846 v -33.17083 a 2.4813163,2.4813163 0 0 1 2.478461,-2.47847 h 33.17083 a 2.4813163,2.4813163 0 0 1 2.478461,2.47847 v 33.17083 a 2.4813163,2.4813163 0 0 1 -2.478461,2.47846 z m -33.17083,-37.97642 a 2.3385478,2.3385478 0 0 0 -2.335692,2.33569 v 33.16227 a 2.3385478,2.3385478 0 0 0 2.335692,2.33569 h 33.17083 a 2.3385478,2.3385478 0 0 0 2.335692,-2.33569 v -33.17083 a 2.3385478,2.3385478 0 0 0 -2.335692,-2.3357 z"
       id="path5116"
       inkscape:connector-curvature="0" />
    <path
       style="stroke-width:0.26458332"
       d="m 134.73942,272.81803 h -33.17368 a 2.4813163,2.4813163 0 0 1 -2.478462,-2.47846 v -33.17083 a 2.4813163,2.4813163 0 0 1 2.478462,-2.47847 h 33.17368 a 2.4813163,2.4813163 0 0 1 2.47846,2.47847 v 33.17083 a 2.4813163,2.4813163 0 0 1 -2.47846,2.47846 z m -33.17083,-37.97642 a 2.3385478,2.3385478 0 0 0 -2.335688,2.33569 v 33.16227 a 2.3385478,2.3385478 0 0 0 2.335688,2.33569 h 33.17083 a 2.3385478,2.3385478 0 0 0 2.3357,-2.33569 v -33.17083 a 2.3385478,2.3385478 0 0 0 -2.3357,-2.3357 z"
       id="path5126"
       inkscape:connector-curvature="0" />
    <path
       style="stroke-width:0.26458332"
       d="M 122.31286,114.15385 H 25.684289 a 2.3214156,2.3214156 0 0 1 -2.321416,-2.32142 V 96.390595 a 2.3214156,2.3214156 0 0 1 2.321416,-2.321416 h 96.628571 a 2.3214156,2.3214156 0 0 1 2.32998,2.321416 v 15.441835 a 2.3214156,2.3214156 0 0 1 -2.32998,2.32142 z M 25.684289,94.211948 a 2.1815025,2.1815025 0 0 0 -2.178647,2.178647 v 15.441835 a 2.1815025,2.1815025 0 0 0 2.178647,2.17865 h 96.628571 a 2.1815025,2.1815025 0 0 0 2.17864,-2.17865 V 96.390595 a 2.1815025,2.1815025 0 0 0 -2.17864,-2.178647 z"
       id="path5218"
       inkscape:connector-curvature="0" />
    <flowRoot
       transform="matrix(0.26458333,0,0,0.26458333,-10,66.416688)"
       style="font-style:normal;font-variant:normal;font-weight:300;font-stretch:normal;font-size:12px;font-family:'Source Sans Pro';-inkscape-font-specification:'Source Sans Pro, Light';font-variant-ligatures:normal;font-variant-caps:normal;font-variant-numeric:normal;font-feature-settings:normal;text-align:center;writing-mode:lr-tb;text-anchor:middle;stroke-width:0.92661673"
       id="flowRoot5874"
       xml:space="preserve"><flowRegion
         style="font-style:normal;font-variant:normal;font-weight:300;font-stretch:normal;font-size:12px;font-family:'Source Sans Pro';-inkscape-font-specification:'Source Sans Pro, Light';font-variant-ligatures:normal;font-variant-caps:normal;font-variant-numeric:normal;font-feature-settings:normal;text-align:center;writing-mode:lr-tb;text-anchor:middle"
         id="flowRegion5876"><rect
           style="font-style:normal;font-variant:normal;font-weight:300;font-stretch:normal;font-size:12.00000015px;font-family:'Source Sans Pro';-inkscape-font-specification:'Source Sans Pro, Light';font-variant-ligatures:normal;font-variant-caps:normal;font-variant-numeric:normal;font-feature-settings:normal;text-align:center;writing-mode:lr;text-anchor:middle;"
           y="321.2692"
           x="88.143318"
           height="58.253956"
           width="123.18128"
           id="rect5878" /></flowRegion><flowPara
         id="flowPara5880">Someone who is a GNOME foundation member</flowPara></flowRoot>    <flowRoot
       xml:space="preserve"
       id="flowRoot5888"
       style="font-style:normal;font-variant:normal;font-weight:300;font-stretch:normal;font-size:12px;font-family:'Source Sans Pro';-inkscape-font-specification:'Source Sans Pro, Light';font-variant-ligatures:normal;font-variant-caps:normal;font-variant-numeric:normal;font-feature-settings:normal;text-align:center;writing-mode:lr-tb;text-anchor:middle;stroke-width:0.92661673"
       transform="matrix(0.26458333,0,0,0.26458333,34.299059,66.416688)"><flowRegion
         id="flowRegion5884"
         style="font-style:normal;font-variant:normal;font-weight:300;font-stretch:normal;font-size:12px;font-family:'Source Sans Pro';-inkscape-font-specification:'Source Sans Pro, Light';font-variant-ligatures:normal;font-variant-caps:normal;font-variant-numeric:normal;font-feature-settings:normal;text-align:center;writing-mode:lr-tb;text-anchor:middle"><rect
           id="rect5882"
           width="123.18128"
           height="58.253956"
           x="88.143318"
           y="321.2692"
           style="font-style:normal;font-variant:normal;font-weight:300;font-stretch:normal;font-size:12.00000015px;font-family:'Source Sans Pro';-inkscape-font-specification:'Source Sans Pro, Light';font-variant-ligatures:normal;font-variant-caps:normal;font-variant-numeric:normal;font-feature-settings:normal;text-align:center;writing-mode:lr;text-anchor:middle;" /></flowRegion><flowPara
         id="flowPara5886">Someone who attended the last 3 GUADECs (excluding 2017)</flowPara></flowRoot>    <flowRoot
       transform="matrix(0.26458333,0,0,0.26458333,78.468945,66.416688)"
       style="font-style:normal;font-variant:normal;font-weight:300;font-stretch:normal;font-size:12px;font-family:'Source Sans Pro';-inkscape-font-specification:'Source Sans Pro, Light';font-variant-ligatures:normal;font-variant-caps:normal;font-variant-numeric:normal;font-feature-settings:normal;text-align:center;writing-mode:lr-tb;text-anchor:middle;stroke-width:0.92661673"
       id="flowRoot5896"
       xml:space="preserve"><flowRegion
         style="font-style:normal;font-variant:normal;font-weight:300;font-stretch:normal;font-size:12px;font-family:'Source Sans Pro';-inkscape-font-specification:'Source Sans Pro, Light';font-variant-ligatures:normal;font-variant-caps:normal;font-variant-numeric:normal;font-feature-settings:normal;text-align:center;writing-mode:lr-tb;text-anchor:middle"
         id="flowRegion5892"><rect
           style="font-style:normal;font-variant:normal;font-weight:300;font-stretch:normal;font-size:12.00000015px;font-family:'Source Sans Pro';-inkscape-font-specification:'Source Sans Pro, Light';font-variant-ligatures:normal;font-variant-caps:normal;font-variant-numeric:normal;font-feature-settings:normal;text-align:center;writing-mode:lr;text-anchor:middle;"
           y="321.2692"
           x="88.143318"
           height="58.253956"
           width="123.18128"
           id="rect5890" /></flowRegion><flowPara
         id="flowPara5894">Someone who made their first contribution to GNOME this year</flowPara></flowRoot>    <flowRoot
       xml:space="preserve"
       id="flowRoot5904"
       style="font-style:normal;font-variant:normal;font-weight:300;font-stretch:normal;font-size:12px;font-family:'Source Sans Pro';-inkscape-font-specification:'Source Sans Pro, Light';font-variant-ligatures:normal;font-variant-caps:normal;font-variant-numeric:normal;font-feature-settings:normal;text-align:center;writing-mode:lr-tb;text-anchor:middle;stroke-width:0.92661673"
       transform="matrix(0.26458333,0,0,0.26458333,-10,110.33754)"><flowRegion
         id="flowRegion5900"
         style="font-style:normal;font-variant:normal;font-weight:300;font-stretch:normal;font-size:12px;font-family:'Source Sans Pro';-inkscape-font-specification:'Source Sans Pro, Light';font-variant-ligatures:normal;font-variant-caps:normal;font-variant-numeric:normal;font-feature-settings:normal;text-align:center;writing-mode:lr-tb;text-anchor:middle"><rect
           id="rect5898"
           width="123.18128"
           height="58.253956"
           x="88.143318"
           y="321.2692"
           style="font-style:normal;font-variant:normal;font-weight:300;font-stretch:normal;font-size:12.00000015px;font-family:'Source Sans Pro';-inkscape-font-specification:'Source Sans Pro, Light';font-variant-ligatures:normal;font-variant-caps:normal;font-variant-numeric:normal;font-feature-settings:normal;text-align:center;writing-mode:lr;text-anchor:middle;" /></flowRegion><flowPara
         id="flowPara5902">Someone who is attending GUADEC for the first time</flowPara></flowRoot>    <flowRoot
       transform="matrix(0.26458333,0,0,0.26458333,34.299059,110.33754)"
       style="font-style:normal;font-variant:normal;font-weight:300;font-stretch:normal;font-size:12px;font-family:'Source Sans Pro';-inkscape-font-specification:'Source Sans Pro, Light';font-variant-ligatures:normal;font-variant-caps:normal;font-variant-numeric:normal;font-feature-settings:normal;text-align:center;writing-mode:lr-tb;text-anchor:middle;stroke-width:0.92661673"
       id="flowRoot5912"
       xml:space="preserve"><flowRegion
         style="font-style:normal;font-variant:normal;font-weight:300;font-stretch:normal;font-size:12px;font-family:'Source Sans Pro';-inkscape-font-specification:'Source Sans Pro, Light';font-variant-ligatures:normal;font-variant-caps:normal;font-variant-numeric:normal;font-feature-settings:normal;text-align:center;writing-mode:lr-tb;text-anchor:middle"
         id="flowRegion5908"><rect
           style="font-style:normal;font-variant:normal;font-weight:300;font-stretch:normal;font-size:12.00000015px;font-family:'Source Sans Pro';-inkscape-font-specification:'Source Sans Pro, Light';font-variant-ligatures:normal;font-variant-caps:normal;font-variant-numeric:normal;font-feature-settings:normal;text-align:center;writing-mode:lr;text-anchor:middle;"
           y="321.2692"
           x="88.143318"
           height="72.029037"
           width="123.20722"
           id="rect5906" /></flowRegion><flowPara
         id="flowPara5910">Someone who participated in GSoC or Outreachy (or OPW) with GNOME</flowPara></flowRoot>    <flowRoot
       xml:space="preserve"
       id="flowRoot5920"
       style="font-style:normal;font-variant:normal;font-weight:300;font-stretch:normal;font-size:12px;font-family:'Source Sans Pro';-inkscape-font-specification:'Source Sans Pro, Light';font-variant-ligatures:normal;font-variant-caps:normal;font-variant-numeric:normal;font-feature-settings:normal;text-align:center;writing-mode:lr-tb;text-anchor:middle;stroke-width:0.92661673"
       transform="matrix(0.26458333,0,0,0.26458333,78.468945,110.33754)"><flowRegion
         id="flowRegion5916"
         style="font-style:normal;font-variant:normal;font-weight:300;font-stretch:normal;font-size:12px;font-family:'Source Sans Pro';-inkscape-font-specification:'Source Sans Pro, Light';font-variant-ligatures:normal;font-variant-caps:normal;font-variant-numeric:normal;font-feature-settings:normal;text-align:center;writing-mode:lr-tb;text-anchor:middle"><rect
           id="rect5914"
           width="123.18128"
           height="58.253956"
           x="88.143318"
           y="321.2692"
           style="font-style:normal;font-variant:normal;font-weight:300;font-stretch:normal;font-size:12.00000015px;font-family:'Source Sans Pro';-inkscape-font-specification:'Source Sans Pro, Light';font-variant-ligatures:normal;font-variant-caps:normal;font-variant-numeric:normal;font-feature-settings:normal;text-align:center;writing-mode:lr;text-anchor:middle;" /></flowRegion><flowPara
         id="flowPara5918">Someone who has helped to organize a GUADEC</flowPara></flowRoot>    <flowRoot
       transform="matrix(0.26458333,0,0,0.26458333,-10,153.72919)"
       style="font-style:normal;font-variant:normal;font-weight:300;font-stretch:normal;font-size:12px;font-family:'Source Sans Pro';-inkscape-font-specification:'Source Sans Pro, Light';font-variant-ligatures:normal;font-variant-caps:normal;font-variant-numeric:normal;font-feature-settings:normal;text-align:center;writing-mode:lr-tb;text-anchor:middle;stroke-width:0.92661673"
       id="flowRoot5928"
       xml:space="preserve"><flowRegion
         style="font-style:normal;font-variant:normal;font-weight:300;font-stretch:normal;font-size:12px;font-family:'Source Sans Pro';-inkscape-font-specification:'Source Sans Pro, Light';font-variant-ligatures:normal;font-variant-caps:normal;font-variant-numeric:normal;font-feature-settings:normal;text-align:center;writing-mode:lr-tb;text-anchor:middle"
         id="flowRegion5924"><rect
           style="font-style:normal;font-variant:normal;font-weight:300;font-stretch:normal;font-size:12.00000015px;font-family:'Source Sans Pro';-inkscape-font-specification:'Source Sans Pro, Light';font-variant-ligatures:normal;font-variant-caps:normal;font-variant-numeric:normal;font-feature-settings:normal;text-align:center;writing-mode:lr;text-anchor:middle;"
           y="321.2692"
           x="88.143318"
           height="58.253956"
           width="123.18128"
           id="rect5922" /></flowRegion><flowPara
         id="flowPara5926">Someone who has contributed photos to GNOME (THANK YOU! *)</flowPara></flowRoot>    <flowRoot
       xml:space="preserve"
       id="flowRoot5936"
       style="font-style:normal;font-variant:normal;font-weight:300;font-stretch:normal;font-size:12px;font-family:'Source Sans Pro';-inkscape-font-specification:'Source Sans Pro, Light';font-variant-ligatures:normal;font-variant-caps:normal;font-variant-numeric:normal;font-feature-settings:normal;text-align:center;writing-mode:lr-tb;text-anchor:middle;stroke-width:0.92661673"
       transform="matrix(0.26458333,0,0,0.26458333,34.299059,153.72919)"><flowRegion
         id="flowRegion5932"
         style="font-style:normal;font-variant:normal;font-weight:300;font-stretch:normal;font-size:12px;font-family:'Source Sans Pro';-inkscape-font-specification:'Source Sans Pro, Light';font-variant-ligatures:normal;font-variant-caps:normal;font-variant-numeric:normal;font-feature-settings:normal;text-align:center;writing-mode:lr-tb;text-anchor:middle"><rect
           id="rect5930"
           width="123.20722"
           height="72.029037"
           x="88.143318"
           y="321.2692"
           style="font-style:normal;font-variant:normal;font-weight:300;font-stretch:normal;font-size:12.00000015px;font-family:'Source Sans Pro';-inkscape-font-specification:'Source Sans Pro, Light';font-variant-ligatures:normal;font-variant-caps:normal;font-variant-numeric:normal;font-feature-settings:normal;text-align:center;writing-mode:lr;text-anchor:middle;" /></flowRegion><flowPara
         id="flowPara5934">Someone who IS A &quot;Friend of GNOME&quot;</flowPara></flowRoot>    <flowRoot
       transform="matrix(0.26458333,0,0,0.26458333,78.468945,153.72919)"
       style="font-style:normal;font-variant:normal;font-weight:300;font-stretch:normal;font-size:12px;font-family:'Source Sans Pro';-inkscape-font-specification:'Source Sans Pro, Light';font-variant-ligatures:normal;font-variant-caps:normal;font-variant-numeric:normal;font-feature-settings:normal;text-align:center;writing-mode:lr-tb;text-anchor:middle;stroke-width:0.92661673"
       id="flowRoot5944"
       xml:space="preserve"><flowRegion
         style="font-style:normal;font-variant:normal;font-weight:300;font-stretch:normal;font-size:12px;font-family:'Source Sans Pro';-inkscape-font-specification:'Source Sans Pro, Light';font-variant-ligatures:normal;font-variant-caps:normal;font-variant-numeric:normal;font-feature-settings:normal;text-align:center;writing-mode:lr-tb;text-anchor:middle"
         id="flowRegion5940"><rect
           style="font-style:normal;font-variant:normal;font-weight:300;font-stretch:normal;font-size:12.00000015px;font-family:'Source Sans Pro';-inkscape-font-specification:'Source Sans Pro, Light';font-variant-ligatures:normal;font-variant-caps:normal;font-variant-numeric:normal;font-feature-settings:normal;text-align:center;writing-mode:lr;text-anchor:middle;"
           y="321.2692"
           x="88.143318"
           height="58.253956"
           width="123.18128"
           id="rect5938" /></flowRegion><flowPara
         id="flowPara5942">Three different people who live in three different continents</flowPara></flowRoot>    <flowRoot
       xml:space="preserve"
       id="flowRoot5952"
       style="font-style:normal;font-variant:normal;font-weight:300;font-stretch:normal;font-size:12px;font-family:'Source Sans Pro';-inkscape-font-specification:'Source Sans Pro Light';font-variant-ligatures:normal;font-variant-caps:normal;font-variant-numeric:normal;font-feature-settings:normal;text-align:start;writing-mode:lr-tb;text-anchor:start;stroke-width:0.92661673"
       transform="matrix(0.26458333,0,0,0.26458333,-12.672293,198.17919)"><flowRegion
         id="flowRegion5948"
         style="font-style:normal;font-variant:normal;font-weight:300;font-stretch:normal;font-size:12px;font-family:'Source Sans Pro';-inkscape-font-specification:'Source Sans Pro Light';font-variant-ligatures:normal;font-variant-caps:normal;font-variant-numeric:normal;font-feature-settings:normal;text-align:start;writing-mode:lr-tb;text-anchor:start"><rect
           id="rect5946"
           width="325.87631"
           height="59.817768"
           x="88.143318"
           y="321.2692"
           style="font-style:normal;font-variant:normal;font-weight:300;font-stretch:normal;font-size:12px;font-family:'Source Sans Pro';-inkscape-font-specification:'Source Sans Pro Light';font-variant-ligatures:normal;font-variant-caps:normal;font-variant-numeric:normal;font-feature-settings:normal;text-align:start;writing-mode:lr-tb;text-anchor:start;" /></flowRegion><flowPara
         id="flowPara5950">* Submit your photos! Read how to do that here:</flowPara><flowPara
         id="flowPara6082">https://wiki.gnome.org/Engagement/Photos/HowTo</flowPara></flowRoot>    <flowRoot
       xml:space="preserve"
       id="flowRoot6727"
       style="font-family:'Source Sans Pro';font-size:16px;-inkscape-font-specification:'Source Sans Pro Bold';font-weight:bold;font-style:normal;font-stretch:normal;font-variant:normal;fill:none;"><flowRegion
         id="flowRegion6729"
         style="font-size:16px;-inkscape-font-specification:'Source Sans Pro Bold';font-family:'Source Sans Pro';font-weight:bold;font-style:normal;font-stretch:normal;font-variant:normal;fill:none;"><rect
           id="rect6731"
           width="345.96338"
           height="67.851379"
           x="182.52051"
           y="87.498741"
           style="font-size:16px;-inkscape-font-specification:'Source Sans Pro Bold';font-family:'Source Sans Pro';font-weight:bold;font-style:normal;font-stretch:normal;font-variant:normal;fill:none;" /></flowRegion><flowPara
         id="flowPara6733"></flowPara></flowRoot>    <flowRoot
       xml:space="preserve"
       id="flowRoot6735"
       style="font-size:40px;line-height:11px;font-family:sans-serif"
       transform="matrix(0.26458333,0,0,0.26458333,-21.232069,73.577445)"><flowRegion
         id="flowRegion6737"
         style="line-height:11px"><rect
           id="rect6739"
           width="410.53888"
           height="108.22495"
           x="154.68756"
           y="94.481621"
           style="line-height:11.00000014px;" /></flowRegion><flowPara
         id="flowPara6741"
         style="font-style:normal;font-variant:normal;font-weight:bold;font-stretch:normal;font-size:16px;line-height:11px;font-family:'Source Sans Pro';-inkscape-font-specification:'Source Sans Pro, Bold';font-variant-ligatures:normal;font-variant-caps:normal;font-variant-numeric:normal;font-feature-settings:normal;text-align:center;writing-mode:lr-tb;text-anchor:middle">RAFFLE:</flowPara><flowPara
         id="flowPara6743"
         style="font-style:normal;font-variant:normal;font-weight:bold;font-stretch:normal;font-size:16px;line-height:11px;font-family:'Source Sans Pro';-inkscape-font-specification:'Source Sans Pro, Bold';font-variant-ligatures:normal;font-variant-caps:normal;font-variant-numeric:normal;font-feature-settings:normal;text-align:center;writing-mode:lr-tb;text-anchor:middle">1 ticket for every row completed (max 3 tickets)</flowPara></flowRoot>    <flowRoot
       transform="matrix(0.26458333,0,0,0.26458333,-13.905732,100.03578)"
       style="font-size:18.66666603px;line-height:22px;font-family:sans-serif"
       id="flowRoot6761"
       xml:space="preserve"><flowRegion
         style="font-size:18.66666603px;line-height:22px"
         id="flowRegion6755"><rect
           style="font-size:18.66666603px;line-height:22px"
           y="94.481621"
           x="154.68756"
           height="113.71635"
           width="354.26154"
           id="rect6753" /></flowRegion><flowPara
         style="font-style:normal;font-variant:normal;font-weight:bold;font-stretch:normal;font-size:18.66666603px;line-height:22px;font-family:'Source Sans Pro';-inkscape-font-specification:'Source Sans Pro, Bold';font-variant-ligatures:normal;font-variant-caps:normal;font-variant-numeric:normal;font-feature-settings:normal;text-align:center;writing-mode:lr-tb;text-anchor:middle"
         id="flowPara6759">Get someone to initial your sheet under the items they meet (no duplicates!)</flowPara></flowRoot>  </g>
  <g
     inkscape:groupmode="layer"
     inkscape:label="crop marks"
     id="printing-marks"
     transform="translate(10,71.999982)"
     style="display:inline"
     sodipodi:insensitive="true">
    <path
       inkscape:connector-curvature="0"
       d="m -5,148.0002 h -5"
       id="cropTL1"
       style="fill:none;stroke:#000000;stroke-width:0.22360678" />
    <path
       inkscape:connector-curvature="0"
       d="m 9.2316533e-7,153 v 5"
       id="cropTL2"
       style="fill:none;stroke:#000000;stroke-width:0.22360681" />
    <path
       inkscape:connector-curvature="0"
       d="m -5,-61.999795 h -5"
       id="cropTR1"
       style="fill:none;stroke:#000000;stroke-width:0.22360678" />
    <path
       inkscape:connector-curvature="0"
       d="m 9.2316284e-7,-66.999982 v -5"
       id="cropTR2"
       style="fill:none;stroke:#000000;stroke-width:0.22360678" />
    <path
       inkscape:connector-curvature="0"
       d="m 153,148.00001 h 5"
       id="cropBL1"
       style="fill:none;stroke:#000000;stroke-width:0.22360678" />
    <path
       inkscape:connector-curvature="0"
       d="m 148.0004,153 v 5"
       id="cropBL2"
       style="fill:none;stroke:#000000;stroke-width:0.22360681" />
    <path
       inkscape:connector-curvature="0"
       d="m 153,-61.999982 h 5"
       id="cropBR1"
       style="fill:none;stroke:#000000;stroke-width:0.22360678" />
    <path
       inkscape:connector-curvature="0"
       d="m 148,-66.999982 v -5"
       id="cropBR2"
       style="fill:none;stroke:#000000;stroke-width:0.22360678" />
  </g>
</svg>
