<svg id="Layer_1" data-name="Layer 1" xmlns="http://www.w3.org/2000/svg" viewBox="0 0 1748 2480"><title>Trivia</title><rect x="2.35" width="1743.29" height="2480" style="fill:#fff"/><text transform="translate(380.53 459.89) scale(0.98 1)" style="font-size:165.32601928710938px;font-family:SourceSansPro-Bold, Source Sans Pro;font-weight:700">20th Birthday<tspan x="293.45" y="149.43" style="letter-spacing:-0.04199191959479243em">T</tspan><tspan x="378.43" y="149.43">rivia</tspan></text><text transform="translate(797.66 782.82)" style="font-size:42.496238708496094px;font-family:SourceSansPro-Bold, Source Sans Pro;font-weight:700"><tspan style="letter-spacing:-0.007997031274489157em">R</tspan><tspan x="25.71" y="0">AFFLE:</tspan><tspan x="-225.06" y="40.39">1 tic</tspan><tspan x="-146.27" y="40.39" style="letter-spacing:-0.028012589435638745em">k</tspan><tspan x="-124.17" y="40.39" style="letter-spacing:-0.009996289093111448em">e</tspan><tspan x="-102.58" y="40.39">t </tspan><tspan x="-77.81" y="40.39" style="letter-spacing:-0.009996289093111448em">f</tspan><tspan x="-63.74" y="40.39">or </tspan><tspan x="-14.75" y="40.39" style="letter-spacing:-0.0060092634433302145em">e</tspan><tspan x="7.01" y="40.39" style="letter-spacing:-0.007985541287025812em">v</tspan><tspan x="28.9" y="40.39">e</tspan><tspan x="50.91" y="40.39" style="letter-spacing:0.006985912377714666em">r</tspan><tspan x="68.12" y="40.39">y </tspan><tspan x="98.76" y="40.39" style="letter-spacing:-0.027989609460712054em">c</tspan><tspan x="117.42" y="40.39">or</tspan><tspan x="157.91" y="40.39" style="letter-spacing:-0.009996289093111448em">r</tspan><tspan x="174.4" y="40.39">e</tspan><tspan x="196.41" y="40.39" style="letter-spacing:-0.009996289093111448em">c</tspan><tspan x="215.84" y="40.39">t ans</tspan><tspan x="306.14" y="40.39" style="letter-spacing:-0.007997031274489157em">w</tspan><tspan x="338.77" y="40.39">er</tspan></text><text transform="translate(783.52 2049.46)" style="font-size:52.22538375854492px;font-family:SourceSansPro-Bold, Source Sans Pro;font-weight:700">BON<tspan x="102.05" y="0" style="letter-spacing:-0.009985266502032677em">U</tspan><tspan x="136.25" y="0">S:</tspan></text><text transform="translate(538.54 1027.13)" style="font-size:52.22538375854492px;font-family:SourceSansPro-Bold, Source Sans Pro"><tspan xml:space="preserve" style="font-weight:700">1  </tspan><tspan x="48.46" y="0" xml:space="preserve" style="font-family:SourceSansPro-Light, Source Sans Pro"> What does GNOME s</tspan><tspan x="484.38" y="0" style="font-family:SourceSansPro-Light, Source Sans Pro;letter-spacing:-0.020980279054832702em">t</tspan><tspan x="499.58" y="0" style="font-family:SourceSansPro-Light, Source Sans Pro;letter-spacing:-0.000018699000940136097em">and </tspan><tspan x="592.23" y="0" style="font-family:SourceSansPro-Light, Source Sans Pro;letter-spacing:-0.009985266502032677em">f</tspan><tspan x="605.44" y="0" style="font-family:SourceSansPro-Light, Source Sans Pro">or?</tspan></text><text transform="translate(304.23 1190.95)" style="font-size:52.22538375854492px;font-family:SourceSansPro-Bold, Source Sans Pro"><tspan xml:space="preserve" style="font-weight:700">2  </tspan><tspan x="48.46" y="0" xml:space="preserve" style="font-family:SourceSansPro-Light, Source Sans Pro"> What </tspan><tspan x="179.03" y="0" style="font-family:SourceSansPro-Light, Source Sans Pro;letter-spacing:-0.009994616002502744em">w</tspan><tspan x="214.28" y="0" style="font-family:SourceSansPro-Light, Source Sans Pro">as the e</tspan><tspan x="376.59" y="0" style="font-family:SourceSansPro-Light, Source Sans Pro;letter-spacing:-0.009985266502032677em">x</tspan><tspan x="397.33" y="0" style="font-family:SourceSansPro-Light, Source Sans Pro">act da</tspan><tspan x="527.99" y="0" style="font-family:SourceSansPro-Light, Source Sans Pro;letter-spacing:-0.009994616002502744em">t</tspan><tspan x="543.76" y="0" style="font-family:SourceSansPro-Light, Source Sans Pro">e that GNOME </tspan><tspan x="847.08" y="0" style="font-family:SourceSansPro-Light, Source Sans Pro;letter-spacing:-0.010003965502972813em">w</tspan><tspan x="882.33" y="0" style="font-family:SourceSansPro-Light, Source Sans Pro">as </tspan><tspan x="939.94" y="0" style="font-family:SourceSansPro-Light, Source Sans Pro;letter-spacing:-0.009985266502032677em">f</tspan><tspan x="953.15" y="0" style="font-family:SourceSansPro-Light, Source Sans Pro;letter-spacing:-0.000018699000940136097em">ounded?</tspan></text><text transform="translate(436.67 1354.78)" style="font-size:52.22538375854492px;font-family:SourceSansPro-Bold, Source Sans Pro"><tspan xml:space="preserve" style="font-weight:700">3  </tspan><tspan x="48.46" y="0" xml:space="preserve" style="font-family:SourceSansPro-Light, Source Sans Pro"> Whe</tspan><tspan x="151.5" y="0" style="font-family:SourceSansPro-Light, Source Sans Pro;letter-spacing:-0.009994616002502744em">r</tspan><tspan x="167.54" y="0" style="font-family:SourceSansPro-Light, Source Sans Pro">e did the fi</tspan><tspan x="387.5" y="0" style="font-family:SourceSansPro-Light, Source Sans Pro;letter-spacing:-0.009994616002502744em">r</tspan><tspan x="403.54" y="0" style="font-family:SourceSansPro-Light, Source Sans Pro">st G</tspan><tspan x="482.55" y="0" style="font-family:SourceSansPro-Light, Source Sans Pro;letter-spacing:-0.02099897805577284em">U</tspan><tspan x="514.2" y="0" style="font-family:SourceSansPro-Light, Source Sans Pro;letter-spacing:0.000018699000940136097em">ADEC </tspan><tspan x="638.55" y="0" style="font-family:SourceSansPro-Light, Source Sans Pro;letter-spacing:-0.020980279054832702em">t</tspan><tspan x="653.75" y="0" style="font-family:SourceSansPro-Light, Source Sans Pro;letter-spacing:-0.000018699000940136097em">a</tspan><tspan x="679.8" y="0" style="font-family:SourceSansPro-Light, Source Sans Pro;letter-spacing:-0.011986059602627238em">k</tspan><tspan x="703.41" y="0" style="font-family:SourceSansPro-Light, Source Sans Pro;letter-spacing:-0.000018699000940136097em">e pla</tspan><tspan x="805.88" y="0" style="font-family:SourceSansPro-Light, Source Sans Pro;letter-spacing:-0.016997391854583713em">c</tspan><tspan x="828.44" y="0" style="font-family:SourceSansPro-Light, Source Sans Pro">e?</tspan></text><text transform="translate(346.95 1518.6)" style="font-size:52.22538375854492px;font-family:SourceSansPro-Bold, Source Sans Pro"><tspan xml:space="preserve" style="font-weight:700">4  </tspan><tspan x="48.46" y="0" xml:space="preserve" style="font-family:SourceSansPro-Light, Source Sans Pro"> Name one of the apps on the N</tspan><tspan x="711.56" y="0" style="font-family:SourceSansPro-Light, Source Sans Pro;letter-spacing:0.011986059602627238em">e</tspan><tspan x="737.41" y="0" style="font-family:SourceSansPro-Light, Source Sans Pro">w</tspan><tspan x="773.18" y="0" style="font-family:SourceSansPro-Light, Source Sans Pro;letter-spacing:-0.016978692853643576em">c</tspan><tspan x="795.74" y="0" style="font-family:SourceSansPro-Light, Source Sans Pro;letter-spacing:-0.000018699000940136097em">ome</tspan><tspan x="891.31" y="0" style="font-family:SourceSansPro-Light, Source Sans Pro;letter-spacing:-0.009985266502032677em">r</tspan><tspan x="907.35" y="0" style="font-family:SourceSansPro-Light, Source Sans Pro">s </tspan><tspan x="938.89" y="0" style="font-family:SourceSansPro-Light, Source Sans Pro;letter-spacing:-0.015015297754929286em">p</tspan><tspan x="966.52" y="0" style="font-family:SourceSansPro-Light, Source Sans Pro">a</tspan><tspan x="992.58" y="0" style="font-family:SourceSansPro-Light, Source Sans Pro;letter-spacing:-0.010995012552800026em">g</tspan><tspan x="1017.44" y="0" style="font-family:SourceSansPro-Light, Source Sans Pro">e.</tspan></text><text transform="translate(432.6 1682.43)" style="font-size:52.22538375854492px;font-family:SourceSansPro-Bold, Source Sans Pro"><tspan xml:space="preserve" style="font-weight:700">5  </tspan><tspan x="48.46" y="0" xml:space="preserve" style="font-family:SourceSansPro-Light, Source Sans Pro"> In which </tspan><tspan x="245.93" y="0" style="font-family:SourceSansPro-Light, Source Sans Pro;letter-spacing:-0.016997391854583713em">c</tspan><tspan x="268.49" y="0" style="font-family:SourceSansPro-Light, Source Sans Pro">ount</tspan><tspan x="368.13" y="0" style="font-family:SourceSansPro-Light, Source Sans Pro;letter-spacing:0.02699200785708646em">r</tspan><tspan x="386.1" y="0" style="font-family:SourceSansPro-Light, Source Sans Pro;letter-spacing:0.000009349500470068048em">y </tspan><tspan x="419.26" y="0" style="font-family:SourceSansPro-Light, Source Sans Pro;letter-spacing:-0.009994616002502744em">w</tspan><tspan x="454.51" y="0" style="font-family:SourceSansPro-Light, Source Sans Pro">as GNOME </tspan><tspan x="683.2" y="0" style="font-family:SourceSansPro-Light, Source Sans Pro;letter-spacing:-0.010003965502972813em">f</tspan><tspan x="696.41" y="0" style="font-family:SourceSansPro-Light, Source Sans Pro">ounded?</tspan></text><text transform="translate(217.25 1843.03)" style="font-size:52.22538375854492px;font-family:SourceSansPro-Bold, Source Sans Pro"><tspan xml:space="preserve" style="font-weight:700">6  </tspan><tspan x="48.46" y="0" xml:space="preserve" style="font-family:SourceSansPro-Light, Source Sans Pro"> Name 1 movie or TV show in which GNOME ma</tspan><tspan x="1038.59" y="0" style="font-family:SourceSansPro-Light, Source Sans Pro;letter-spacing:-0.011986059602627238em">k</tspan><tspan x="1062.19" y="0" style="font-family:SourceSansPro-Light, Source Sans Pro;letter-spacing:-0.000018699000940136097em">es a </tspan><tspan x="1155.41" y="0" style="font-family:SourceSansPro-Light, Source Sans Pro;letter-spacing:-0.009985266502032677em">c</tspan><tspan x="1178.34" y="0" style="font-family:SourceSansPro-Light, Source Sans Pro">ameo!</tspan></text><polygon points="1429.75 203.11 1410.6 203.11 1410.6 222.27 1429.75 203.11"/><polygon points="1372.28 145.78 1391.43 145.78 1391.43 126.63 1372.28 145.78"/><polygon points="1600.79 216.95 1600.79 236.1 1619.94 236.1 1600.79 216.95"/><polygon points="1619.95 178.77 1619.95 197.93 1639.11 197.93 1619.95 178.77"/><polygon points="1638.97 236.1 1619.82 236.1 1619.82 255.25 1638.97 236.1"/><polygon points="1410.58 203.25 1410.58 184.09 1391.43 184.09 1410.58 203.25"/><polygon points="1410.58 145.78 1410.58 164.94 1429.74 164.94 1410.58 145.78"/><text transform="translate(1435.57 260.19)" style="font-size:19.952537536621094px;font-family:SourceSansPro-Light, Source Sans Pro;letter-spacing:0.13097488202708837em">YEARS <tspan x="70.19" y="0" style="font-family:SourceSansPro-SemiBold, Source Sans Pro;font-weight:700">STRONG</tspan></text><path d="M1435.9,236v-14.9c7.21-6.74,13.65-13,19.63-18.89s11.11-11.35,15.43-16.5a90.22,90.22,0,0,0,10.11-14.37,26.52,26.52,0,0,0,3.64-12.68q0-8.34-4.26-12.68t-11.71-4.35a18.3,18.3,0,0,0-11,3.46,60.69,60.69,0,0,0-9,8.07l-14.19-14a64.78,64.78,0,0,1,17-13.39q8.69-4.52,20.75-4.52a42.8,42.8,0,0,1,15.17,2.57,34.83,34.83,0,0,1,11.8,7.27,31.74,31.74,0,0,1,7.63,11.26,38.89,38.89,0,0,1,2.66,14.72,38,38,0,0,1-3,14.46,79,79,0,0,1-8.07,14.72,156.32,156.32,0,0,1-11.53,14.72c-3.89,4.42-12,13-12,13H1515v22Z"/><path d="M1555.19,236.1a35.07,35.07,0,0,1-16.22-3.75,34.22,34.22,0,0,1-12.47-11.07,56.65,56.65,0,0,1-8-18.14,97.36,97.36,0,0,1-2.88-24.94,95.34,95.34,0,0,1,2.88-24.76,55.75,55.75,0,0,1,8-17.87A33,33,0,0,1,1539,124.76a38.58,38.58,0,0,1,32.44,0,33,33,0,0,1,12.47,10.81,55.8,55.8,0,0,1,8,17.87,95.32,95.32,0,0,1,2.88,24.76,97.34,97.34,0,0,1-2.88,24.94,56.71,56.71,0,0,1-8,18.14,34.24,34.24,0,0,1-12.47,11.07A35.07,35.07,0,0,1,1555.19,236.1Zm0-19.88a11.72,11.72,0,0,0,6.1-1.66,13.51,13.51,0,0,0,4.88-6,42.64,42.64,0,0,0,3.23-11.68,125.94,125.94,0,0,0,1.13-18.66,124.16,124.16,0,0,0-1.13-18.57,38.77,38.77,0,0,0-3.23-11.33,13,13,0,0,0-4.88-5.67,12.24,12.24,0,0,0-6.1-1.57,11.9,11.9,0,0,0-5.93,1.57,13,13,0,0,0-4.88,5.67,40.22,40.22,0,0,0-3.31,11.33,115.29,115.29,0,0,0-1.22,18.57,117,117,0,0,0,1.22,18.66,44.33,44.33,0,0,0,3.31,11.68q2.09,4.36,4.88,6A11.4,11.4,0,0,0,1555.19,216.22Z"/><g id="_8jqcmI.tif" data-name="8jqcmI.tif"><path d="M1524.84,280.13l.48.05a2.54,2.54,0,0,1,1.25.48,1.61,1.61,0,0,1,.61,1.13,3.58,3.58,0,0,1-.28,1.69,9.21,9.21,0,0,1-1.4,2.39,11.57,11.57,0,0,1-2.68,2.54,5.35,5.35,0,0,1-1.63.77,2.12,2.12,0,0,1-1.25,0,1.85,1.85,0,0,1-1.09-1.06,4.05,4.05,0,0,1-.32-1.92,6.77,6.77,0,0,1,1.08-3.34,5.64,5.64,0,0,1,4.54-2.71l.1,0Z"/><path d="M1516.86,290.58a11.16,11.16,0,0,1,3,.38,5.29,5.29,0,0,1,1.93.94,2.64,2.64,0,0,1,1,1.65,3.51,3.51,0,0,1-.4,2.29,6.77,6.77,0,0,1-1.51,1.82,20.5,20.5,0,0,1-2.77,2c-.93.59-1.87,1.17-2.8,1.76a9.9,9.9,0,0,0-1.85,1.45,4.3,4.3,0,0,0-.54.68,1.62,1.62,0,0,0,0,1.91,4.12,4.12,0,0,0,1.87,1.52,2,2,0,0,0,1.42.07,1.76,1.76,0,0,0,1.14-1.23,2.57,2.57,0,0,0,.08-1.12.92.92,0,0,1,.26-.78,2.61,2.61,0,0,1,.92-.62,6.31,6.31,0,0,1,2.62-.52,3.35,3.35,0,0,1,1.38.27,1.26,1.26,0,0,1,.71.71,1.4,1.4,0,0,1,0,.79,7.82,7.82,0,0,1-2,3.77,8.72,8.72,0,0,1-3.08,2.16,6.49,6.49,0,0,1-3,.5,10,10,0,0,1-3.75-1,13.75,13.75,0,0,1-4.67-3.78,12.82,12.82,0,0,1-2.15-3.77,8.79,8.79,0,0,1-.55-2.9,6.69,6.69,0,0,1,1.23-3.92,9.21,9.21,0,0,1,2.43-2.37,14.4,14.4,0,0,1,3.88-1.84,17.46,17.46,0,0,1,2.73-.62A15.7,15.7,0,0,1,1516.86,290.58Z"/><path d="M1512,284.6a4.24,4.24,0,0,1,.36-1.91,2.38,2.38,0,0,1,2.29-1.43,1.45,1.45,0,0,1,1.43,1.06,3.63,3.63,0,0,1,.17,1.43,7.42,7.42,0,0,1-.84,3,3.65,3.65,0,0,1-.71,1,1.21,1.21,0,0,1-.69.37,1,1,0,0,1-.82-.31,3,3,0,0,1-.75-1.14A5.82,5.82,0,0,1,1512,284.6Z"/><path d="M1510.06,286.83a5.64,5.64,0,0,1-.34,2,2,2,0,0,1-.35.6.79.79,0,0,1-.92.25,1.89,1.89,0,0,1-.76-.51,4.75,4.75,0,0,1-1.16-2.1,3.55,3.55,0,0,1-.09-1.58,2.09,2.09,0,0,1,1.77-1.71,1.22,1.22,0,0,1,1.2.53,3.14,3.14,0,0,1,.52,1.27A6.36,6.36,0,0,1,1510.06,286.83Z"/><path d="M1505.66,291.27a2.85,2.85,0,0,1-.18,1,.72.72,0,0,1-.82.52,1.64,1.64,0,0,1-.47-.14,2.9,2.9,0,0,1-.91-.67,4.2,4.2,0,0,1-1.12-2,2.05,2.05,0,0,1,.13-1.46,1.89,1.89,0,0,1,1-.88,1.11,1.11,0,0,1,1.27.26,2.91,2.91,0,0,1,.66,1A6,6,0,0,1,1505.66,291.27Z"/></g><path d="M1369.26,882.6H378.74A23.81,23.81,0,0,1,355,858.81V723.87a23.81,23.81,0,0,1,23.78-23.78h990.52A23.81,23.81,0,0,1,1393,723.87V858.81A23.81,23.81,0,0,1,1369.26,882.6Zm-990.52-181a22.35,22.35,0,0,0-22.32,22.32V858.81a22.35,22.35,0,0,0,22.32,22.32h990.52a22.35,22.35,0,0,0,22.32-22.32V723.87a22.35,22.35,0,0,0-22.32-22.32Z"/><text transform="translate(253.02 2120.81)" style="font-size:43.80128479003906px;font-family:SourceSansPro-Light, Source Sans Pro">Nomina<tspan x="141.74" y="0" style="letter-spacing:-0.009999439134022932em">t</tspan><tspan x="154.97" y="0">e someone you&apos;d li</tspan><tspan x="487.58" y="0" style="letter-spacing:-0.011983720255378652em">k</tspan><tspan x="507.38" y="0">e </tspan><tspan x="537.25" y="0" style="letter-spacing:-0.009999439134022932em">t</tspan><tspan x="550.48" y="0">o see </tspan><tspan x="651.4" y="0" style="letter-spacing:-0.01001058678077212em">f</tspan><tspan x="662.48" y="0" style="letter-spacing:-0.014982437230910613em">e</tspan><tspan x="682.98" y="0">a</tspan><tspan x="704.83" y="0" style="letter-spacing:-0.009007298573345071em">t</tspan><tspan x="718.11" y="0">u</tspan><tspan x="741.28" y="0" style="letter-spacing:-0.009988291487273742em">r</tspan><tspan x="754.72" y="0">ed on the En</tspan><tspan x="976.05" y="0" style="letter-spacing:-0.015004732524408992em">g</tspan><tspan x="996.72" y="0">a</tspan><tspan x="1018.58" y="0" style="letter-spacing:-0.010969284401202413em">g</tspan><tspan x="1039.43" y="0">ement blog </tspan><tspan x="260.48" y="46.72">(https://blogs.gnome</tspan><tspan x="636.68" y="46.72" style="letter-spacing:-0.010991579694700791em">.</tspan><tspan x="645.79" y="46.72">o</tspan><tspan x="669.23" y="46.72" style="letter-spacing:-0.009988291487273742em">r</tspan><tspan x="682.68" y="46.72" style="letter-spacing:0.05999663480413759em">g</tspan><tspan x="706.63" y="46.72" style="letter-spacing:-0.0409787494500204em">/</tspan><tspan x="720.48" y="46.72">en</tspan><tspan x="764.93" y="46.72" style="letter-spacing:-0.015004732524408992em">g</tspan><tspan x="785.61" y="46.72">a</tspan><tspan x="807.46" y="46.72" style="letter-spacing:-0.010991579694700791em">g</tspan><tspan x="828.31" y="46.72">emen</tspan><tspan x="929.49" y="46.72" style="letter-spacing:0.019998878268045864em">t</tspan><tspan x="944.03" y="46.72">/).</tspan><tspan x="361.03" y="93.44">Include wh</tspan><tspan x="554.58" y="93.44" style="letter-spacing:-0.019987730621296673em">y</tspan><tspan x="572.8" y="93.44">, and your </tspan><tspan x="757.11" y="93.44" style="letter-spacing:0.009007298573345071em">e</tspan><tspan x="778.66" y="93.44">-mail!</tspan></text></svg>