<?xml version="1.0" encoding="UTF-8" standalone="no"?>
<!-- Created with Inkscape (http://www.inkscape.org/) -->

<svg
   xmlns:dc="http://purl.org/dc/elements/1.1/"
   xmlns:cc="http://creativecommons.org/ns#"
   xmlns:rdf="http://www.w3.org/1999/02/22-rdf-syntax-ns#"
   xmlns:svg="http://www.w3.org/2000/svg"
   xmlns="http://www.w3.org/2000/svg"
   xmlns:sodipodi="http://sodipodi.sourceforge.net/DTD/sodipodi-0.dtd"
   xmlns:inkscape="http://www.inkscape.org/namespaces/inkscape"
   width="168mm"
   height="124mm"
   viewBox="0 0 634.96064 468.66142"
   version="1.1"
   id="svg34901"
   inkscape:version="0.92+devel unknown"
   sodipodi:docname="birthday-party-ticket.svg"
   inkscape:export-filename="/home/jimmac/src/git/gnome/gnome-marketing/events/guadec/2017/birthday-party-graphic.png"
   inkscape:export-xdpi="96"
   inkscape:export-ydpi="96">
  <defs
     id="defs34895">
    <style
       id="style4651">.cls-1,.cls-10,.cls-11,.cls-12,.cls-13,.cls-14,.cls-15,.cls-16,.cls-17,.cls-18,.cls-19,.cls-2,.cls-20,.cls-21,.cls-22,.cls-23,.cls-24,.cls-26,.cls-3,.cls-4,.cls-5,.cls-6,.cls-7,.cls-8,.cls-9{fill:#4a86cf;}.cls-1{opacity:0.1;}.cls-2{opacity:0.11;}.cls-3{opacity:0.15;}.cls-4{opacity:0.19;}.cls-5{opacity:0.3;}.cls-6{opacity:0.13;}.cls-7{opacity:0.12;}.cls-8{opacity:0.06;}.cls-9{opacity:0.24;}.cls-10{opacity:0.09;}.cls-11{opacity:0.2;}.cls-12{opacity:0.34;}.cls-13{opacity:0.07;}.cls-14{opacity:0.22;}.cls-15{opacity:0.29;}.cls-16{opacity:0.08;}.cls-17{opacity:0.18;}.cls-18{opacity:0.17;}.cls-19{opacity:0.16;}.cls-20{opacity:0.48;}.cls-21{opacity:0.23;}.cls-22{opacity:0.14;}.cls-23{opacity:0.31;}.cls-24{font-size:75px;font-family:SourceSansPro-Light, Source Sans Pro;letter-spacing:0.13em;}.cls-25{font-family:SourceSansPro-SemiBold, Source Sans Pro;font-weight:700;}</style>
  </defs>
  <sodipodi:namedview
     id="base"
     pagecolor="#ffffff"
     bordercolor="#666666"
     borderopacity="1.0"
     inkscape:pageopacity="0.0"
     inkscape:pageshadow="2"
     inkscape:zoom="1.4142136"
     inkscape:cx="394.53945"
     inkscape:cy="288.43064"
     inkscape:document-units="px"
     inkscape:current-layer="g35778"
     showgrid="false"
     inkscape:snap-bbox="false"
     inkscape:bbox-paths="true"
     inkscape:bbox-nodes="true"
     inkscape:snap-nodes="true"
     units="mm"
     fit-margin-top="0"
     fit-margin-left="0"
     fit-margin-right="0"
     fit-margin-bottom="0"
     inkscape:snap-global="true"
     inkscape:window-width="1920"
     inkscape:window-height="1136"
     inkscape:window-x="0"
     inkscape:window-y="27"
     inkscape:window-maximized="1"
     inkscape:document-rotation="0"
     borderlayer="true"
     inkscape:showpageshadow="false"
     showguides="true"
     inkscape:guide-bbox="true"
     height="70mm"
     inkscape:snap-intersection-paths="true">
    <inkscape:grid
       type="xygrid"
       id="grid34914"
       originx="37.795277"
       originy="37.795293"
       units="mm"
       spacingx="3.7795276"
       spacingy="3.7795276" />
    <sodipodi:guide
       position="574.48821,442.20476"
       orientation="1,0"
       id="guide6403"
       inkscape:locked="false" />
    <sodipodi:guide
       position="30.236222,430.86617"
       orientation="0,1"
       id="guide6405"
       inkscape:locked="false" />
    <sodipodi:guide
       position="49.133861,37.795297"
       orientation="0,1"
       id="guide6407"
       inkscape:locked="false" />
    <sodipodi:guide
       position="37.795277,453.54334"
       orientation="1,0"
       id="guide6409"
       inkscape:locked="false" />
    <sodipodi:guide
       position="60.472443,56.692933"
       orientation="1,0"
       id="guide6419"
       inkscape:locked="false" />
    <sodipodi:guide
       position="56.692916,52.913404"
       orientation="0,1"
       id="guide6421"
       inkscape:locked="false" />
    <sodipodi:guide
       position="18.89764,408.189"
       orientation="0,1"
       id="guide6423"
       inkscape:locked="false" />
    <sodipodi:guide
       position="597.16537,445.98429"
       orientation="1,0"
       id="guide6425"
       inkscape:locked="false" />
  </sodipodi:namedview>
  <metadata
     id="metadata34898">
    <rdf:RDF>
      <cc:Work
         rdf:about="">
        <dc:format>image/svg+xml</dc:format>
        <dc:type
           rdf:resource="http://purl.org/dc/dcmitype/StillImage" />
        <dc:title></dc:title>
      </cc:Work>
    </rdf:RDF>
  </metadata>
  <g
     transform="translate(37.795277,-35.273449)"
     style="display:inline;opacity:1"
     inkscape:label="stuff"
     id="g35778"
     inkscape:groupmode="layer">
    <g
       style="stroke-width:0.70898378"
       id="g4795"
       transform="matrix(0.25744568,0,0,0.25750561,103.84965,108.27202)">
      <polygon
         style="stroke-width:0.70898378"
         id="polygon4657"
         points="287.05,550.5 359.05,478.5 287.05,478.5 "
         class="cls-1" />
      <polygon
         style="stroke-width:0.70898378"
         id="polygon4659"
         points="287.05,406.5 215.05,478.5 287.05,478.5 "
         class="cls-2" />
      <polygon
         style="stroke-width:0.70898378"
         id="polygon4661"
         points="287.05,190.5 215.05,262.5 287.05,262.5 "
         class="cls-3" />
      <polygon
         style="stroke-width:0.70898378"
         id="polygon4663"
         points="430.95,622.5 358.95,550.5 358.95,622.5 "
         class="cls-4" />
      <polygon
         style="stroke-width:0.70898378"
         id="polygon4665"
         points="430.95,406.5 358.95,478.5 430.95,478.5 "
         class="cls-5" />
      <polygon
         style="stroke-width:0.70898378"
         id="polygon4667"
         points="430.95,262.5 358.95,334.5 430.95,334.5 "
         class="cls-6" />
      <polygon
         style="stroke-width:0.70898378"
         id="polygon4669"
         points="430.95,262.5 502.95,190.5 430.95,190.5 "
         class="cls-2" />
      <polygon
         style="stroke-width:0.70898378"
         id="polygon4671"
         points="502.95,334.5 430.95,406.5 502.95,406.5 "
         class="cls-7" />
      <polygon
         style="stroke-width:0.70898378"
         id="polygon4673"
         points="574.95,406.5 502.95,334.5 502.95,406.5 "
         class="cls-8" />
      <polygon
         style="stroke-width:0.70898378"
         id="polygon4675"
         points="358.95,406.5 430.95,334.5 358.95,334.5 "
         class="cls-9" />
      <polygon
         style="stroke-width:0.70898378"
         id="polygon4677"
         points="359,406.5 287,334.5 287,406.5 "
         class="cls-10" />
      <polygon
         style="stroke-width:0.70898378"
         id="polygon4679"
         points="718.95,190.5 790.95,262.5 790.95,190.5 "
         class="cls-11" />
      <polygon
         style="stroke-width:0.70898378"
         id="polygon4681"
         points="718.95,406.5 790.95,478.5 790.95,406.5 "
         class="cls-12" />
      <polygon
         style="stroke-width:0.70898378"
         id="polygon4683"
         points="718.95,550.5 790.95,478.5 718.95,478.5 "
         class="cls-13" />
      <polygon
         style="stroke-width:0.70898378"
         id="polygon4685"
         points="718.95,694.5 790.95,622.5 718.95,622.5 "
         class="cls-2" />
      <polygon
         style="stroke-width:0.70898378"
         id="polygon4687"
         points="791.05,547.5 863.05,475.5 791.05,475.5 "
         class="cls-14" />
      <polygon
         style="stroke-width:0.70898378"
         id="polygon4689"
         points="862.95,406.5 934.95,334.5 862.95,334.5 "
         class="cls-9" />
      <polygon
         style="stroke-width:0.70898378"
         id="polygon4691"
         points="1006.95,334.5 934.95,406.5 1006.95,406.5 "
         class="cls-2" />
      <polygon
         style="stroke-width:0.70898378"
         id="polygon4693"
         points="934.95,478.5 862.95,550.5 934.95,550.5 "
         class="cls-15" />
      <polygon
         style="stroke-width:0.70898378"
         id="polygon4695"
         points="790.95,550.5 718.95,622.5 790.95,622.5 "
         class="cls-15" />
      <polygon
         style="stroke-width:0.70898378"
         id="polygon4697"
         points="1150.95,334.5 1078.95,406.5 1150.95,406.5 "
         class="cls-16" />
      <polygon
         style="stroke-width:0.70898378"
         id="polygon4699"
         points="719,478.5 647,550.5 719,550.5 "
         class="cls-17" />
      <polygon
         style="stroke-width:0.70898378"
         id="polygon4701"
         points="1078.95,478.5 1006.95,550.5 1078.95,550.5 "
         class="cls-1" />
      <polygon
         style="stroke-width:0.70898378"
         id="polygon4703"
         points="934.95,478.5 862.95,406.5 862.95,478.5 "
         class="cls-10" />
      <polygon
         style="stroke-width:0.70898378"
         id="polygon4705"
         points="719,406.5 647,334.5 647,406.5 "
         class="cls-10" />
      <polygon
         style="stroke-width:0.70898378"
         id="polygon4707"
         points="1006.95,694.5 934.95,622.5 934.95,694.5 "
         class="cls-17" />
      <polygon
         style="stroke-width:0.70898378"
         id="polygon4709"
         points="1007.34,478.88 1078.95,406.5 1006.95,406.88 "
         class="cls-18" />
      <polygon
         style="stroke-width:0.70898378"
         id="polygon4711"
         points="935.43,622.88 1007.05,550.5 935.05,550.88 "
         class="cls-5" />
      <polygon
         style="stroke-width:0.70898378"
         id="polygon4713"
         points="1006.95,550.5 934.95,478.5 934.95,550.5 "
         class="cls-19" />
      <polygon
         style="stroke-width:0.70898378"
         id="polygon4715"
         points="1078.95,622.5 1006.95,550.5 1006.95,622.5 "
         class="cls-18" />
      <polygon
         style="stroke-width:0.70898378"
         id="polygon4717"
         points="503,334.5 575,262.5 503,262.5 "
         class="cls-19" />
      <polygon
         style="stroke-width:0.70898378"
         id="polygon4719"
         points="502.95,478.5 574.95,406.5 502.95,406.5 "
         class="cls-14" />
      <polygon
         style="stroke-width:0.70898378"
         id="polygon4721"
         points="430.95,478.5 502.95,550.5 502.95,478.5 "
         class="cls-20" />
      <polygon
         style="stroke-width:0.70898378"
         id="polygon4723"
         points="646.95,694.5 574.95,622.5 574.95,694.5 "
         class="cls-16" />
      <polygon
         style="stroke-width:0.70898378"
         id="polygon4725"
         points="574.95,406.5 646.95,478.5 646.95,406.5 "
         class="cls-11" />
      <polygon
         style="stroke-width:0.70898378"
         id="polygon4727"
         points="574.95,478.5 646.95,550.5 646.95,478.5 "
         class="cls-21" />
      <polygon
         style="stroke-width:0.70898378"
         id="polygon4729"
         points="790.95,694.5 862.95,766.5 862.95,694.5 "
         class="cls-10" />
      <polygon
         style="stroke-width:0.70898378"
         id="polygon4731"
         points="502.95,622.5 430.95,550.5 430.95,622.5 "
         class="cls-22" />
      <polygon
         style="stroke-width:0.70898378"
         id="polygon4733"
         points="574.95,550.5 502.95,478.5 502.95,550.5 "
         class="cls-23" />
      <polygon
         style="stroke-width:0.70898378"
         id="polygon4735"
         points="358.95,478.5 430.95,406.5 358.95,406.5 "
         class="cls-6" />
      <text
         style="stroke-width:0.70898378"
         id="text4739"
         transform="translate(397.33,713.03)"
         class="cls-24">YEARS <tspan
   style="stroke-width:0.70898378"
   id="tspan4737"
   y="0"
   x="265.42001"
   class="cls-25">STRONG</tspan>
</text>
      <path
         style="stroke-width:0.70898378"
         id="path4741"
         d="m 400.17,621.93 v -56 c 27.11,-25.34 51.32,-49 73.77,-71 22.45,-22 41.78,-42.67 58,-62 16.22,-19.33 28.89,-37.34 38,-54 9.11,-16.66 13.67,-32.56 13.67,-47.67 q 0,-31.33 -16,-47.67 -16,-16.34 -44,-16.33 -23.35,0 -41.34,13 a 228.13,228.13 0 0 0 -34,30.34 l -53.34,-52.68 q 31.33,-33.34 64,-50.34 32.67,-17 78,-17 31.33,0 57,9.67 a 130.94,130.94 0 0 1 44.34,27.34 119.31,119.31 0 0 1 28.73,42.29 q 10,24.67 10,55.34 0,26.68 -11.33,54.34 A 296.82,296.82 0 0 1 635.33,434.9 587.58,587.58 0 0 1 592,490.25 c -14.62,16.61 -45.18,49 -45.18,49 h 150.83 v 82.68 z"
         class="cls-26"
         inkscape:connector-curvature="0" />
      <path
         style="stroke-width:0.70898378"
         id="path4743"
         d="m 848.56,622.5 q -33.43,0 -61,-14.09 -27.57,-14.09 -46.87,-41.62 -19.34,-27.53 -30.15,-68.17 -10.81,-40.64 -10.82,-93.73 0,-53.1 10.82,-93.08 10.82,-39.98 30.15,-67.19 19.37,-27.2 46.91,-40.62 27.54,-13.42 61,-13.44 33.43,0 61,13.44 27.57,13.44 46.87,40.64 19.33,27.21 30.15,67.19 10.82,39.98 10.82,93.08 0,53.09 -10.82,93.73 -10.82,40.64 -30.15,68.17 -19.47,27.5 -46.95,41.6 -27.48,14.1 -60.96,14.09 z m 0,-74.72 a 44.07,44.07 0 0 0 22.94,-6.23 q 10.48,-6.22 18.35,-22.62 7.87,-16.4 12.15,-43.93 4.26,-27.54 4.26,-70.14 0,-42.6 -4.26,-69.79 -4.27,-27.19 -12.13,-42.61 -7.86,-15.42 -18.35,-21.3 a 46,46 0 0 0 -22.94,-5.9 44.74,44.74 0 0 0 -22.29,5.9 q -10.49,5.9 -18.35,21.3 -7.86,15.4 -12.46,42.61 -4.59,27.21 -4.59,69.81 0,42.6 4.58,70.12 4.58,27.53 12.46,43.91 7.88,16.38 18.35,22.62 a 42.85,42.85 0 0 0 22.28,6.25 z"
         class="cls-26"
         inkscape:connector-curvature="0" />
    </g>
    <flowRoot
       transform="matrix(0.8853853,0,0,0.88559141,-208.11485,130.50749)"
       style="font-style:normal;font-weight:normal;font-size:16.99063492px;line-height:6.00000048px;font-family:sans-serif;text-align:start;letter-spacing:0px;word-spacing:0px;text-anchor:start;fill:#000000;fill-opacity:1;stroke:none;stroke-width:0.2987994px;stroke-linecap:butt;stroke-linejoin:miter;stroke-opacity:1"
       id="flowRoot8350"
       xml:space="preserve"><flowRegion
         style="font-size:16.99063492px;text-align:start;text-anchor:start;fill:#000000;fill-opacity:1;stroke-width:0.2987994px"
         id="flowRegion8346"><rect
           style="font-size:16.99063492px;text-align:start;text-anchor:start;fill:#000000;fill-opacity:1;stroke-width:0.2987994px"
           y="352"
           x="271"
           height="95"
           width="445"
           id="rect8344" /></flowRegion><flowPara
         style="font-style:normal;font-variant:normal;font-weight:300;font-stretch:normal;font-size:16.99063492px;font-family:'Source Sans Pro';-inkscape-font-specification:'Source Sans Pro Light';text-align:start;text-anchor:start;fill:#000000;fill-opacity:1;stroke-width:0.15090719px"
         id="flowPara8348">Sponsored by</flowPara></flowRoot>    <g
       id="g5968"
       transform="matrix(0.08233512,0,0,0.08235429,448.2244,79.419046)"
       style="stroke-width:10.64408398">
      <g
         id="g5966"
         transform="matrix(1.293235,0,0,1.293235,-4878.321,-1224.915)"
         style="stroke-width:10.64408398">
        <g
           id="g5946"
           style="fill:#000000;fill-opacity:1;fill-rule:nonzero;stroke:none;stroke-width:10.64408398;stroke-miterlimit:4"
           transform="matrix(2.438586,0,0,2.438586,3659.952,1113.451)">
          <g
             id="g5944"
             style="fill:#000000;fill-opacity:1;stroke-width:10.64408398">
            <path
               inkscape:connector-curvature="0"
               id="path5934"
               style="fill:#000000;fill-opacity:1;stroke-width:10.64408398"
               d="M 86.068,0 C 61.466,0 56.851,35.041 70.691,35.041 84.529,35.041 110.671,0 86.068,0 Z" />
            <path
               inkscape:connector-curvature="0"
               id="path5936"
               style="fill:#000000;fill-opacity:1;stroke-width:10.64408398"
               d="M 45.217,30.699 C 52.586,31.149 60.671,2.577 46.821,4.374 32.976,6.171 37.845,30.249 45.217,30.699 Z" />
            <path
               inkscape:connector-curvature="0"
               id="path5938"
               style="fill:#000000;fill-opacity:1;stroke-width:10.64408398"
               d="M 11.445,48.453 C 16.686,46.146 12.12,23.581 3.208,29.735 -5.7,35.89 6.204,50.759 11.445,48.453 Z" />
            <path
               inkscape:connector-curvature="0"
               id="path5940"
               style="fill:#000000;fill-opacity:1;stroke-width:10.64408398"
               d="M 26.212,36.642 C 32.451,35.37 32.793,9.778 21.667,14.369 10.539,18.961 19.978,37.916 26.212,36.642 Z" />
            <path
               inkscape:connector-curvature="0"
               id="path5942"
               style="fill:#000000;fill-opacity:1;stroke-width:10.64408398"
               d="m 58.791,93.913 c 1.107,8.454 -6.202,12.629 -13.36,7.179 C 22.644,83.743 83.16,75.088 79.171,51.386 75.86,31.712 15.495,37.769 8.621,68.553 3.968,89.374 27.774,118.26 52.614,118.26 c 12.22,0 26.315,-11.034 28.952,-25.012 C 83.58,82.589 57.867,86.86 58.791,93.913 Z" />
          </g>
        </g>
        <g
           id="g5964"
           style="stroke-width:10.64408398">
          <path
             inkscape:connector-curvature="0"
             id="path5948"
             style="font-style:normal;font-variant:normal;font-weight:bold;font-stretch:normal;font-size:148.699646px;line-height:125%;font-family:'Bitstream Vera Sans';text-align:start;writing-mode:lr-tb;text-anchor:start;fill:#000000;fill-opacity:1;stroke:none;stroke-width:10.64408898pt;stroke-linecap:butt;stroke-linejoin:miter;stroke-opacity:1"
             d="m 4176.2963,1214.4401 c -15.1078,0.4069 -27.0386,5.8367 -35.8126,16.25 -9.0861,10.8369 -13.6562,25.8104 -13.6562,44.9063 0,19.0432 4.5703,33.9757 13.6562,44.8124 9.1305,10.8369 21.6664,16.25 37.6563,16.25 16.034,0 28.6014,-5.4131 37.6875,-16.25 9.0859,-10.8367 13.6251,-25.7692 13.625,-44.8124 -1e-4,-19.0959 -4.5391,-34.0694 -13.625,-44.9063 -9.0861,-10.8366 -21.6536,-16.2499 -37.6875,-16.25 -0.6246,0 -1.2296,-0.016 -1.8437,0 z m 1.125,22 c 0.2415,-0.01 0.4737,0 0.7187,0 7.8833,10e-5 13.9919,3.4114 18.3125,10.25 4.3203,6.8388 6.4999,16.4913 6.5,28.9063 0,12.3623 -2.1799,21.9427 -6.5,28.7812 -4.3204,6.8389 -10.4293,10.2812 -18.3125,10.2812 -7.8391,0 -13.8983,-3.4423 -18.2187,-10.2812 -4.3204,-6.8385 -6.4999,-16.4189 -6.5,-28.7812 0,-12.4149 2.1798,-22.0675 6.5,-28.9063 4.1852,-6.6249 10.0123,-10.0428 17.5,-10.25 z" />
          <path
             inkscape:connector-curvature="0"
             id="path5950"
             style="font-style:normal;font-variant:normal;font-weight:bold;font-stretch:normal;font-size:148.699646px;line-height:125%;font-family:'Bitstream Vera Sans';text-align:start;writing-mode:lr-tb;text-anchor:start;fill:#000000;fill-opacity:1;stroke:none;stroke-width:10.64408898pt;stroke-linecap:butt;stroke-linejoin:miter;stroke-opacity:1"
             d="m 4005.6293,1325.612 c -13.3076,11.1757 -33.1067,11.0472 -41.3549,11.0472 -16.6133,0 -29.7747,-5.471 -39.4842,-16.413 -9.7097,-10.9946 -14.5644,-25.8819 -14.5644,-44.6622 0,-18.9906 4.9438,-33.9305 14.8316,-44.82 9.8878,-10.8892 23.4277,-16.3339 40.62,-16.334 6.6363,10e-5 12.9831,0.7366 19.0406,2.2094 6.1019,1.473 11.8475,3.6562 17.2368,6.5494 l -6.921,20.4608 c -3.0298,-1.6586 -6.4987,-3.2932 -9.7145,-4.4424 -5.4784,-1.8411 -10.979,-2.7617 -16.5018,-2.7618 -10.2442,10e-5 -18.15,3.3932 -23.7173,10.1792 -5.523,6.7336 -8.2844,16.3867 -8.2844,28.9594 0,12.4676 2.6723,22.0945 8.0172,28.8806 5.3446,6.7861 13.3768,10.1791 22.7818,10.1791 9.5548,0 15.4728,-2.4084 18.6291,-4.9461 v -20.3835 h -20.7001 v -20.3584 h 40.0855" />
          <path
             inkscape:connector-curvature="0"
             id="path5952"
             style="font-style:normal;font-variant:normal;font-weight:bold;font-stretch:normal;font-size:148.699646px;line-height:125%;font-family:'Bitstream Vera Sans';text-align:start;writing-mode:lr-tb;text-anchor:start;fill:#000000;fill-opacity:1;stroke:none;stroke-width:10.64408898pt;stroke-linecap:butt;stroke-linejoin:miter;stroke-opacity:1"
             d="m 4023.2108,1216.5605 h 16.2279 l 51.2775,70.8022 v -70.8022 h 21.8853 v 117.8103 h -16.2279 l -51.2774,-70.8022 v 70.8022 h -21.8854 v -117.8103" />
          <path
             inkscape:connector-curvature="0"
             id="path5954"
             style="font-style:normal;font-variant:normal;font-weight:bold;font-stretch:normal;font-size:148.699646px;line-height:125%;font-family:'Bitstream Vera Sans';text-align:start;writing-mode:lr-tb;text-anchor:start;fill:#000000;fill-opacity:1;stroke:none;stroke-width:10.64408898pt;stroke-linecap:butt;stroke-linejoin:miter;stroke-opacity:1"
             d="m 4246.3361,1216.5605 h 32.7366 l 22.7151,73.5479 22.8487,-73.5479 h 27.6698 l 12.5,117.8103 h -24.3186 l -7.5,-73.668 -22.9823,74.0213 h -16.3015 l -22.9824,-76.5213 -7.5,76.168 h -24.3854 l 12.5,-117.8103" />
          <path
             inkscape:connector-curvature="0"
             id="path5956"
             style="font-style:normal;font-variant:normal;font-weight:bold;font-stretch:normal;font-size:148.699646px;line-height:125%;font-family:'Bitstream Vera Sans';text-align:start;writing-mode:lr-tb;text-anchor:start;fill:#000000;fill-opacity:1;stroke:none;stroke-width:10.64408898pt;stroke-linecap:butt;stroke-linejoin:miter;stroke-opacity:1"
             d="m 4382.3597,1216.5605 h 69.4147 v 22.9624 h -43.6933 v 24.4365 h 33.5877 v 20.4623 h -33.5877 v 26.9868 h 45.1631 v 22.9623 h -70.8845 v -117.8103" />
          <text
             xml:space="preserve"
             id="text5962"
             style="font-style:normal;font-weight:normal;font-size:30.68958855px;font-family:'Bitstream Vera Sans';fill:#000000;fill-opacity:1;stroke:none;stroke-width:10.64408898pt;stroke-linecap:butt;stroke-linejoin:miter;stroke-opacity:1"
             y="1215.743"
             x="4474.6182"><tspan
               id="tspan5960"
               style="letter-spacing:11.06259632;stroke-width:10.64408898pt"
               y="1215.743"
               x="4474.6182"><tspan
                 id="tspan5958"
                 style="letter-spacing:0.2523815;stroke-width:10.64408898pt">TM</tspan></tspan></text>
        </g>
      </g>
    </g>
    <flowRoot
       transform="matrix(1.3419025,0,0,1.3422148,-434.48555,-41.472192)"
       style="font-style:normal;font-variant:normal;font-weight:600;font-stretch:normal;font-size:14.01299477px;line-height:139.99999762%;font-family:'Source Sans Pro';-inkscape-font-specification:'Source Sans Pro Semi-Bold';text-align:end;letter-spacing:0.86211163px;word-spacing:0px;text-anchor:end;fill:#000000;fill-opacity:1;stroke:none;stroke-width:0.1971474px;stroke-linecap:butt;stroke-linejoin:miter;stroke-opacity:1"
       id="flowRoot9590"
       xml:space="preserve"><flowRegion
         style="font-style:normal;font-variant:normal;font-weight:600;font-stretch:normal;font-size:14.01299477px;line-height:139.99999762%;font-family:'Source Sans Pro';-inkscape-font-specification:'Source Sans Pro Semi-Bold';text-align:end;letter-spacing:0.86211163px;text-anchor:end;fill:#000000;fill-opacity:1;stroke-width:0.1971474px"
         id="flowRegion9586"><rect
           style="font-style:normal;font-variant:normal;font-weight:600;font-stretch:normal;font-size:14.01299477px;line-height:139.99999762%;font-family:'Source Sans Pro';-inkscape-font-specification:'Source Sans Pro Semi-Bold';text-align:end;letter-spacing:0.86211163px;text-anchor:end;fill:#000000;fill-opacity:1;stroke-width:0.1971474px"
           y="352"
           x="271"
           height="95"
           width="445"
           id="rect9584" /></flowRegion><flowPara
         id="flowPara9588"
         style="font-style:normal;font-variant:normal;font-weight:600;font-stretch:normal;font-size:14.01299477px;line-height:139.99999762%;font-family:'Source Sans Pro';-inkscape-font-specification:'Source Sans Pro Semi-Bold';text-align:end;letter-spacing:0.86211163px;text-anchor:end;fill:#000000;fill-opacity:1;stroke-width:0.09956835px">ADMITS ONE</flowPara></flowRoot>    <flowRoot
       transform="matrix(1.0807214,0,0,1.0809729,-284.05328,-68.646367)"
       style="font-style:normal;font-variant:normal;font-weight:normal;font-stretch:normal;font-size:33.04013824px;line-height:120.00000477%;font-family:'Source Sans Pro';-inkscape-font-specification:'Source Sans Pro';text-align:center;letter-spacing:0.66331464px;word-spacing:0px;text-anchor:middle;fill:#000000;fill-opacity:1;stroke:none;stroke-width:0.23241913px;stroke-linecap:butt;stroke-linejoin:miter;stroke-opacity:1"
       id="flowRoot4593"
       xml:space="preserve"><flowRegion
         style="font-style:normal;font-variant:normal;font-weight:normal;font-stretch:normal;font-size:33.04013824px;line-height:120.00000477%;font-family:'Source Sans Pro';-inkscape-font-specification:'Source Sans Pro';text-align:center;letter-spacing:0.66331464px;text-anchor:middle;fill:#000000;fill-opacity:1;stroke-width:0.23241913px"
         id="flowRegion4589"><rect
           style="font-style:normal;font-variant:normal;font-weight:normal;font-stretch:normal;font-size:33.04013824px;line-height:120.00000477%;font-family:'Source Sans Pro';-inkscape-font-specification:'Source Sans Pro';text-align:center;letter-spacing:0.66331464px;text-anchor:middle;fill:#000000;fill-opacity:1;stroke-width:0.23241913px"
           y="352"
           x="271"
           height="125.15992"
           width="500.56961"
           id="rect4587" /></flowRegion><flowPara
         style="font-style:normal;font-variant:normal;font-weight:normal;font-stretch:normal;font-size:24.35937881px;line-height:120.00000477%;font-family:'Source Sans Pro';-inkscape-font-specification:'Source Sans Pro';text-align:center;letter-spacing:0.66331464px;text-anchor:middle;fill:#000000;fill-opacity:1;stroke-width:0.11738218px"
         id="flowPara4591">GNOME TWENTIETH ANNIVERSARY PARTY</flowPara></flowRoot>    <flowRoot
       transform="matrix(0.6820891,0,0,0.68224788,-97.849625,119.35679)"
       style="font-style:normal;font-variant:normal;font-weight:300;font-stretch:normal;font-size:22.05468178px;line-height:139.99999762%;font-family:'Source Sans Pro';-inkscape-font-specification:'Source Sans Pro Light';text-align:center;letter-spacing:0.86211163px;word-spacing:0px;text-anchor:middle;fill:#000000;fill-opacity:1;stroke:none;stroke-width:0.3682515px;stroke-linecap:butt;stroke-linejoin:miter;stroke-opacity:1"
       id="flowRoot4601"
       xml:space="preserve"><flowRegion
         style="font-style:normal;font-variant:normal;font-weight:300;font-stretch:normal;font-size:22.05468178px;line-height:139.99999762%;font-family:'Source Sans Pro';-inkscape-font-specification:'Source Sans Pro Light';text-align:center;letter-spacing:0.86211163px;text-anchor:middle;fill:#000000;fill-opacity:1;stroke-width:0.3682515px"
         id="flowRegion4597"><rect
           style="font-style:normal;font-variant:normal;font-weight:300;font-stretch:normal;font-size:22.05468178px;line-height:139.99999762%;font-family:'Source Sans Pro';-inkscape-font-specification:'Source Sans Pro Light';text-align:center;letter-spacing:0.86211163px;text-anchor:middle;fill:#000000;fill-opacity:1;stroke-width:0.3682515px"
           y="352"
           x="271"
           height="85.146408"
           width="563.97278"
           id="rect4595" /></flowRegion><flowPara
         id="flowPara4599"
         style="font-style:normal;font-variant:normal;font-weight:300;font-stretch:normal;font-size:22.05468178px;line-height:139.99999762%;font-family:'Source Sans Pro';-inkscape-font-specification:'Source Sans Pro Light';text-align:center;letter-spacing:0.86211163px;text-anchor:middle;fill:#000000;fill-opacity:1;stroke-width:0.18598367px">Manchester Museum of Science and Industry</flowPara><flowPara
         style="font-style:normal;font-variant:normal;font-weight:300;font-stretch:normal;font-size:22.05468178px;line-height:139.99999762%;font-family:'Source Sans Pro';-inkscape-font-specification:'Source Sans Pro Light';text-align:center;letter-spacing:0.86211163px;text-anchor:middle;fill:#000000;fill-opacity:1;stroke-width:0.18598367px"
         id="flowPara4385">29 July 2017 at 19:00</flowPara></flowRoot>    <g
       transform="matrix(0.27239689,0,0,0.2724603,127.46091,429.47844)"
       id="g4281"
       fill="#64A800"
       style="stroke-width:2.69028974">
      <path
         inkscape:connector-curvature="0"
         id="path4275"
         d="m 132.31,33.555 c -4.291,4.283 -6.777,9.763 -7.472,15.374 0.7,-5.611 3.186,-11.091 7.489,-15.39 z M 124.498,3.423 v 48.754 h -0.005 c -0.02,12.317 -10,22.303 -22.321,22.327 -4.95,-0.008 -9.495,-1.652 -13.192,-4.384 0.92,-0.989 1.788,-2.034 2.55,-3.155 3.002,2.171 6.663,3.477 10.642,3.477 10.059,-0.005 18.259,-8.203 18.264,-18.268 h 0.003 V 3.423 h -4.06 v 48.751 c -0.014,7.801 -6.409,14.198 -14.208,14.215 -3.253,-0.007 -6.206,-1.196 -8.602,-3.066 0.594,-1.276 1.094,-2.596 1.484,-3.971 1.841,1.827 4.361,2.969 7.118,2.977 5.539,-0.013 10.139,-4.61 10.142,-10.151 V 3.423 h -4.054 v 23.109 c -1.95,-0.468 -3.987,-0.734 -6.085,-0.739 -6.155,0.016 -11.791,2.126 -16.264,5.647 -4.473,-3.511 -10.078,-5.632 -16.211,-5.649 -14.584,0.04 -26.356,11.804 -26.398,26.383 0.005,2.1 0.282,4.134 0.748,6.09 h -5.474 c -4.877,0 -9.406,-2.052 -12.821,-5.497 -3.398,-3.448 -5.46,-8.106 -5.449,-13.042 0.017,-9.938 8.052,-17.978 17.994,-17.994 4.989,0.005 9.414,1.994 12.707,5.252 L 53.869,24.11 C 49.862,20.122 44.396,17.673 38.3,17.673 26.121,17.695 16.266,27.549 16.244,39.725 c -0.008,6.068 2.522,11.73 6.624,15.896 4.115,4.155 9.673,6.702 15.708,6.696 l 6.774,0.004 c 0.594,1.424 1.323,2.777 2.148,4.062 H 38.575 C 24.195,66.354 12.208,54.136 12.183,39.726 12.208,25.308 23.876,13.639 38.299,13.617 c 7.205,0 13.711,2.906 18.438,7.623 l 1.434,-1.438 1.437,-1.436 H 59.603 C 54.151,12.924 46.609,9.554 38.3,9.554 21.632,9.554 8.127,23.062 8.122,39.726 8.147,56.398 21.858,70.411 38.577,70.441 h 12.124 c 1.493,1.551 3.175,2.91 5.005,4.062 H 38.574 C 19.514,74.423 4.124,58.661 4.062,39.727 4.068,20.817 19.389,5.495 38.298,5.495 c 9.414,-0.005 18,3.825 24.171,9.988 l 0.006,0.007 2.865,-2.872 -0.005,-0.006 C 58.443,5.721 48.82,1.426 38.298,1.432 17.137,1.438 0.011,18.573 0,39.725 0.112,60.92 17.173,78.423 38.574,78.561 h 31.021 l 0.104,0.006 h -0.006 c 6.142,-0.017 11.767,-2.131 16.239,-5.64 4.475,3.512 10.103,5.623 16.241,5.637 14.579,-0.041 26.345,-11.806 26.378,-26.39 h 0.008 V 3.423 Z m -22.325,54.844 c -3.287,-0.006 -6.091,-2.808 -6.094,-6.093 0.003,-3.277 2.807,-6.078 6.094,-6.091 3.276,0.013 6.08,2.813 6.08,6.091 h 0.005 c -0.005,3.285 -2.809,6.087 -6.085,6.093 z m 6.086,-27.54 v 4.257 c -1.906,-0.687 -3.951,-1.07 -6.088,-1.075 -10.064,0.007 -18.265,8.206 -18.273,18.266 l 0.005,0.003 C 83.886,59.982 77.491,66.373 69.698,66.39 V 66.383 C 61.891,66.373 55.496,59.982 55.479,52.18 c 0.017,-7.799 6.412,-14.195 14.219,-14.215 3.242,0.012 6.219,1.152 8.613,3.013 -0.605,1.291 -1.108,2.636 -1.501,4.023 -1.845,-1.824 -4.361,-2.967 -7.112,-2.974 -5.547,0.013 -10.148,4.612 -10.159,10.147 0.011,5.547 4.612,10.142 10.159,10.154 5.53,-0.013 10.137,-4.607 10.142,-10.154 l -0.002,-0.016 c 0.039,-12.312 10.014,-22.281 22.333,-22.311 2.115,0.006 4.152,0.321 6.088,0.88 z M 75.784,52.174 c -0.011,3.285 -2.812,6.09 -6.085,6.095 -3.284,-0.005 -6.085,-2.81 -6.097,-6.095 0.011,-3.273 2.812,-6.078 6.097,-6.086 3.273,0.008 6.074,2.809 6.08,6.086 z m -6.091,22.333 0.006,-0.003 C 57.375,74.48 47.386,64.499 47.361,52.174 47.386,39.856 57.375,29.873 69.699,29.848 c 4.941,0.011 9.498,1.645 13.192,4.373 -0.926,0.989 -1.772,2.052 -2.536,3.174 -3.002,-2.181 -6.677,-3.48 -10.656,-3.483 -10.067,0.007 -18.268,8.208 -18.276,18.268 0.008,10.06 8.209,18.258 18.276,18.263 v 0.004 C 79.752,70.438 87.952,62.24 87.958,52.178 v -0.003 c 0.017,-7.797 6.409,-14.193 14.213,-14.204 2.182,0.004 4.238,0.521 6.088,1.412 v 4.771 c -1.705,-1.31 -3.803,-2.122 -6.088,-2.127 -5.544,0.01 -10.14,4.612 -10.156,10.15 l 0.002,0.032 C 91.981,64.514 82.003,74.484 69.693,74.507 Z m 62.637,-3.644 c 5.117,5.123 11.92,7.703 18.613,7.703 h 55.812 V 46.088 h 4.062 v 32.479 h 4.062 V 46.088 h 4.054 v 32.479 h 4.062 V 46.088 h 2.682 c 3.248,0.008 5.977,2.696 5.982,6.091 l -0.006,26.385 h 4.061 l 0.005,-26.381 c -0.005,-5.609 -4.521,-10.142 -10.042,-10.156 h -38.303 v 10.114 c 0.016,5.54 4.614,10.14 10.158,10.149 h 5.168 v 4.06 h -5.168 c -7.81,-0.017 -14.199,-6.406 -14.213,-14.209 V 37.97 h 42.357 c 7.796,0.011 14.1,6.387 14.1,14.215 v 26.382 h 4.059 V 52.185 C 243.819,42.141 235.753,33.916 225.677,33.912 H 183.32 V 3.423 h -4.06 v 48.718 c 0.008,10.062 8.208,18.261 18.272,18.269 h 5.168 v 4.058 h -5.168 C 185.206,74.445 175.225,64.459 175.202,52.142 V 3.423 h -4.062 v 31.619 l -1.501,-1.505 c -5.137,-5.135 -11.95,-7.715 -18.655,-7.707 -6.705,-0.008 -13.521,2.561 -18.655,7.707 l -0.002,0.002 c -4.303,4.299 -6.789,9.778 -7.489,15.39 -0.137,1.088 -0.229,2.181 -0.229,3.273 -0.005,6.704 2.573,13.527 7.715,18.654 v -0.002 m 2.871,-2.87 c -4.347,-4.34 -6.532,-10.098 -6.526,-15.782 -0.005,-5.688 2.179,-11.448 6.529,-15.791 h -0.003 c 4.341,-4.35 10.098,-6.527 15.787,-6.521 5.687,-0.006 11.445,2.174 15.787,6.517 l 4.311,4.307 -17.556,17.556 h -2.539 c -0.923,-0.005 -1.797,-0.217 -2.606,-0.593 l 16.958,-16.963 -1.439,-1.431 c -3.552,-3.558 -8.245,-5.332 -12.916,-5.332 -4.676,0 -9.369,1.774 -12.913,5.332 h -0.003 c -3.555,3.552 -5.335,8.248 -5.335,12.92 0,4.665 1.78,9.362 5.335,12.914 l 0.005,0.003 h -0.005 l 0.003,0.003 0.002,0.002 c 3.552,3.547 8.242,5.327 12.913,5.321 h 27.595 c 1.504,1.561 3.214,2.908 5.065,4.063 l -32.66,-0.002 c -5.689,0.01 -11.442,-2.173 -15.784,-6.513 m 35.941,-21.612 v 5.759 c 0.008,2.116 0.29,4.161 0.759,6.128 h -12.645 z m -20.156,20.009 c -3.655,-0.007 -7.288,-1.378 -10.039,-4.143 h -0.005 v -0.002 c -2.768,-2.768 -4.144,-6.395 -4.144,-10.044 0,-3.654 1.375,-7.285 4.144,-10.051 v 0.003 c 2.754,-2.765 6.384,-4.142 10.042,-4.146 3.008,0.005 6.005,0.941 8.51,2.812 l -13.949,13.97 v 0.085 l -0.039,-0.072 c -0.379,-0.808 -0.586,-1.681 -0.594,-2.601 0.008,-1.613 0.586,-3.121 1.761,-4.307 l 5.7,-5.675 c -0.469,-0.063 -0.918,-0.147 -1.39,-0.147 -2.647,0.004 -5.212,0.983 -7.173,2.951 l 0.003,0.003 -0.003,0.004 c -1.976,1.971 -2.952,4.539 -2.958,7.171 0.005,2.634 0.979,5.195 2.958,7.168 l 0.005,0.011 c 1.962,1.967 4.534,2.941 7.171,2.947 h 22.221 c 0.597,1.426 1.331,2.776 2.157,4.062 h -24.378 z m 46.548,-8.165 c -3.287,-0.004 -6.085,-2.801 -6.094,-6.085 v -6.053 h 11.262 V 58.23 Z m 54.426,7.146 V 27.6 l -4.061,-0.001 V 38.16 C 243.269,30.767 235.109,25.804 225.677,25.791 h -2.682 V 3.466 h -4.062 V 25.79 h -4.054 V 3.466 h -4.062 V 25.79 h -4.062 V 3.466 h -4.054 V 25.79 H 191.439 V 3.464 h -4.057 l -0.003,26.389 h 38.298 c 12.35,0.011 22.193,10.069 22.219,22.33 l 0.002,13.189 v 13.194 h 4.063 z M 256.013,27.6 v -0.001"
         style="stroke-width:2.69028974" />
      <path
         inkscape:connector-curvature="0"
         id="path4277"
         d="m 256.013,78.566 h 4.062 V 27.598 h -4.062 V 27.6 Z m 2.134,-77.135 c -6.725,0.017 -12.138,5.437 -12.146,12.155 0.008,6.711 5.421,12.137 12.146,12.147 6.724,-0.006 12.143,-5.455 12.143,-12.147 0,-6.7 -5.419,-12.148 -12.143,-12.155 z m 0,20.239 c -4.476,-0.006 -8.083,-3.618 -8.086,-8.089 0.003,-4.468 3.61,-8.082 8.086,-8.086 4.476,0 8.089,3.628 8.089,8.086 0,4.459 -3.613,8.089 -8.089,8.089 z m 0,-12.114 c -2.229,0 -4.021,1.799 -4.021,4.028 0,2.224 1.791,4.028 4.021,4.028 2.23,0 4.028,-1.805 4.028,-4.028 10e-4,-2.222 -1.798,-4.028 -4.028,-4.028 z m 42.52,69.01 h -4.054 m 12.182,0 h -4.066"
         style="stroke-width:2.69028974" />
      <path
         inkscape:connector-curvature="0"
         id="path4279"
         d="M 300.667,78.566 V 52.174 c -0.006,-5.535 -4.612,-10.138 -10.143,-10.143 -5.544,0.005 -10.146,4.602 -10.153,10.143 v 26.393 h 4.062 V 52.179 c 0.003,-3.282 2.801,-6.083 6.091,-6.091 3.276,0.008 6.08,2.812 6.089,6.091 v 26.388 h 4.054 z M 290.521,37.964 c 7.802,0.02 14.191,6.416 14.208,14.21 v 26.393 h 4.065 l -0.006,-26.393 c -0.012,-10.055 -8.211,-18.256 -18.268,-18.261 -10.066,0.005 -18.259,8.206 -18.272,18.261 v 26.393 h 4.067 V 52.174 c 0.013,-7.794 6.4,-14.191 14.206,-14.21 z M 316.914,3.466 312.852,3.461 V 38.199 C 308.19,30.768 299.956,25.817 290.525,25.791 281.091,25.817 272.86,30.762 268.198,38.186 V 27.599 l -4.057,0.001 v 24.427 l -0.008,0.152 v 26.388 h 4.064 V 52.124 c 0.045,-12.29 10.022,-22.253 22.327,-22.276 12.311,0.029 22.296,10.005 22.324,22.326 l 0.003,26.393 h 4.062 V 3.466 Z m 8.111,75.097 V 3.464 h -4.054 v 75.099 z m 29.336,-26.386 c 3.504,-4.476 5.622,-10.1 5.639,-16.237 l -0.006,-8.34 h -4.06 v 8.343 c -0.02,12.318 -10.005,22.296 -22.318,22.321 v 0.005 h -0.466 v -4.064 h 0.463 v 0.005 h 0.003 c 10.053,-0.014 18.256,-8.215 18.265,-18.267 L 351.875,27.6 h -4.051 l -0.004,8.343 c -0.016,7.794 -6.402,14.187 -14.204,14.201 h -0.466 v -4.061 h 0.466 c 5.532,-0.009 10.134,-4.61 10.142,-10.141 l 0.009,-8.343 h -4.062 v 8.34 c -0.011,3.274 -2.815,6.084 -6.091,6.087 h -0.463 V 3.461 l -4.057,0.005 v 75.101 h 4.057 V 62.322 h 0.463 c 3.275,0.006 6.08,2.812 6.091,6.09 v 10.154 h 4.054 V 68.412 c -0.002,-2.756 -1.148,-5.275 -2.974,-7.116 1.387,-0.393 2.726,-0.899 4.015,-1.506 1.858,2.402 3.011,5.371 3.021,8.622 v 10.157 h 4.061 v -0.003 l -0.006,-10.154 c -0.003,-3.975 -1.297,-7.646 -3.465,-10.651 1.124,-0.762 2.168,-1.628 3.158,-2.551 2.726,3.7 4.361,8.254 4.366,13.202 V 78.566 H 360 L 359.994,68.412 C 359.98,62.275 357.865,56.65 354.361,52.177 Z"
         style="stroke-width:2.69028974" />
    </g>
  </g>
  <g
     inkscape:groupmode="layer"
     id="layer3"
     inkscape:label="crop marks"
     transform="translate(37.795277,151.18109)">
    <path
       style="fill:none;stroke:#000000;stroke-width:0.94488192"
       id="path6376"
       d="m 0,-132.28345 v -18.89764"
       inkscape:connector-curvature="0" />
    <path
       style="fill:none;stroke:#000000;stroke-width:0.94488192"
       id="path6378"
       d="M -18.897639,-113.38581 H -37.795277"
       inkscape:connector-curvature="0" />
    <path
       inkscape:connector-curvature="0"
       d="m 1e-6,298.58268 v 18.89764"
       id="path6411"
       style="fill:none;stroke:#000000;stroke-width:0.94488192" />
    <path
       inkscape:connector-curvature="0"
       d="M -18.897638,279.68504 H -37.795276"
       id="path6413"
       style="fill:none;stroke:#000000;stroke-width:0.94488192" />
    <path
       style="fill:none;stroke:#000000;stroke-width:0.94488192"
       id="path6415"
       d="m 559.37008,298.5827 v 18.89764"
       inkscape:connector-curvature="0" />
    <path
       style="fill:none;stroke:#000000;stroke-width:0.94488192"
       id="path6417"
       d="m 578.26772,279.68506 h 18.89764"
       inkscape:connector-curvature="0" />
    <g
       id="g207"
       transform="matrix(-1,0,0,1,559.37008,0)">
      <path
         style="fill:none;stroke:#000000;stroke-width:0.94488192"
         id="path201"
         d="m 0,-132.28345 v -18.89764"
         inkscape:connector-curvature="0" />
      <path
         style="fill:none;stroke:#000000;stroke-width:0.94488192"
         id="path203"
         d="M -18.897639,-113.38581 H -37.795277"
         inkscape:connector-curvature="0" />
    </g>
  </g>
</svg>
