<svg id="Layer_1" data-name="Layer 1" xmlns="http://www.w3.org/2000/svg" viewBox="0 0 595.28 839.06">
  <title>gnomeparty-placecard</title>
  <rect x="-28.56" y="-28.5" width="652" height="896" transform="translate(594.88 839) rotate(180)" fill="#fff"/>
  <g opacity="0.45">
    <path d="M322.52,348.82h-.86v-2.58h.86Zm0-5.15h-.86v-2.58h.86Zm0-5.15h-.86v-2.58h.86Zm0-5.15h-.86v-2.58h.86Zm0-5.15h-.86v-2.58h.86Zm0-5.15h-.86v-2.58h.86Zm0-5.15h-.86v-2.58h.86Zm0-5.15h-.86v-2.58h.86Zm0-5.15h-.86V305h.86Zm0-5.15h-.86v-2.58h.86Zm0-5.15h-.86v-2.58h.86Zm0-5.15h-.86v-2.58h.86Zm0-5.15h-.86v-2.58h.86Zm0-5.15h-.86v-2.58h.86Zm0-5.15h-.86v-2.58h.86Zm0-5.15h-.86V269h.86Zm0-5.15h-.86v-2.58h.86Zm0-5.15h-.86v-2.58h.86Zm0-5.15h-.86v-2.58h.86Zm0-5.15h-.86v-2.58h.86Zm0-5.15h-.86v-2.58h.86Zm0-5.15h-.86v-2.58h.86Zm0-5.15h-.86v-2.58h.86Zm0-5.15h-.86v-2.58h.86Zm0-5.15h-.86v-2.58h.86Zm0-5.15h-.86v-2.58h.86Zm0-5.15h-.86v-2.58h.86Zm0-5.15h-.86v-2.58h.86Zm0-5.15h-.86V202h.86Zm0-5.15h-.86v-2.58h.86Zm0-5.15h-.86v-2.58h.86Zm0-5.15h-.86v-2.58h.86Zm0-5.15h-.86v-2.58h.86Zm0-5.15h-.86v-2.58h.86Zm0-5.15h-.86v-2.58h.86Zm0-5.15h-.86V166h.86Zm0-5.15h-.86v-2.58h.86Zm0-5.15h-.86v-2.58h.86Zm0-5.15h-.86v-2.58h.86Zm0-5.15h-.86v-2.58h.86Zm0-5.15h-.86v-2.58h.86Zm0-5.15h-.86v-2.58h.86Zm0-5.15h-.86v-2.58h.86Zm0-5.15h-.86v-2.58h.86Zm0-5.15h-.86v-2.58h.86Zm0-5.15h-.86v-2.58h.86Zm0-5.15h-.86v-2.58h.86Zm0-5.15h-.86v-2.58h.86Zm0-5.15h-.86V99h.86Zm0-5.15h-.86V93.86h.86Zm0-5.15h-.86V88.71h.86Zm0-5.15h-.86V83.56h.86Zm0-5.15h-.86V78.41h.86Zm0-5.15h-.86V73.26h.86Zm0-5.15h-.86V68.11h.86Zm0-5.15h-.86V63h.86Zm0-5.15h-.86V57.81h.86Z" fill="#4e86c5"/>
  </g>
  <text transform="translate(553.96 335.49) rotate(180)" font-size="26.65" fill="#4e86c5" font-family="SourceSansPro-Bold, Source Sans Pro" font-weight="700">19:00</text>
  <text transform="translate(463.87 335.49) rotate(180)" font-size="26.65" fill="#4e86c5" font-family="SourceSansPro-Light, Source Sans Pro">Arri<tspan x="37.01" y="0" letter-spacing="-0.02em">v</tspan><tspan x="48.04" y="0">al</tspan></text>
  <text transform="translate(553.96 278.59) rotate(180)" font-size="26.65" fill="#4e86c5" font-family="SourceSansPro-Bold, Source Sans Pro" font-weight="700">19:30</text>
  <text transform="translate(463.87 278.59) rotate(180)" font-size="26.65" fill="#4e86c5" font-family="SourceSansPro-Light, Source Sans Pro">Wel<tspan x="39.7" y="0" letter-spacing="-0.02em">c</tspan><tspan x="51.22" y="0">ome</tspan><tspan x="0" y="28.45">Ce</tspan><tspan x="27.9" y="28.45" letter-spacing="-0.01em">r</tspan><tspan x="36.08" y="28.45">emony</tspan></text>
  <text transform="translate(553.96 197.98) rotate(180)" font-size="26.65" fill="#4e86c5" font-family="SourceSansPro-Bold, Source Sans Pro" font-weight="700">20:00</text>
  <text transform="translate(463.87 197.98) rotate(180)" font-size="26.65" fill="#4e86c5" font-family="SourceSansPro-Light, Source Sans Pro">Dinner</text>
  <text transform="translate(553.96 141.07) rotate(180)" font-size="26.65" fill="#4e86c5" font-family="SourceSansPro-Bold, Source Sans Pro" font-weight="700">21:00</text>
  <text transform="translate(463.87 141.07) rotate(180)" font-size="26.65" fill="#4e86c5" font-family="SourceSansPro-Light, Source Sans Pro">Raffle</text>
  <text transform="translate(553.96 84.17) rotate(180)" font-size="26.65" fill="#4e86c5" font-family="SourceSansPro-Bold, Source Sans Pro" font-weight="700">22:00</text>
  <text transform="translate(463.87 84.17) rotate(180)" font-size="26.65" fill="#4e86c5" font-family="SourceSansPro-Light, Source Sans Pro">Q&amp;A with<tspan x="0" y="28.45" letter-spacing="-0.01em">F</tspan><tspan x="12.42" y="28.45">ederi</tspan><tspan x="67.2" y="28.45" letter-spacing="-0.02em">c</tspan><tspan x="78.71" y="28.45">o</tspan></text>
  <text transform="translate(288.02 335.49) rotate(180)" font-size="26.65" fill="#4e86c5" font-family="SourceSansPro-Bold, Source Sans Pro" font-weight="700">22:30</text>
  <text transform="translate(197.92 335.49) rotate(180)" font-size="26.65" fill="#4e86c5" font-family="SourceSansPro-Light, Source Sans Pro">Ca<tspan x="28.11" y="0" letter-spacing="-0.01em">k</tspan><tspan x="40.16" y="0">e Ce</tspan><tspan x="86.26" y="0" letter-spacing="-0.01em">r</tspan><tspan x="94.44" y="0" letter-spacing="0em">emony</tspan><tspan x="0" y="28.45">+ 90s music</tspan></text>
  <text transform="translate(288.02 257.25) rotate(180)" font-size="26.65" fill="#4e86c5" font-family="SourceSansPro-Bold, Source Sans Pro" font-weight="700">23:00</text>
  <text transform="translate(197.92 257.25) rotate(180)" font-size="26.65" fill="#4e86c5" font-family="SourceSansPro-Light, Source Sans Pro"><tspan letter-spacing="-0.08em">T</tspan><tspan x="11.88" y="0">alent Show</tspan><tspan x="0" y="28.45">(win poin</tspan><tspan x="100.33" y="28.45" letter-spacing="-0.01em">t</tspan><tspan x="108.37" y="28.45">s </tspan><tspan x="124.5" y="28.45" letter-spacing="-0.01em">f</tspan><tspan x="131.24" y="28.45">or</tspan><tspan x="0" y="56.9">the house)</tspan></text>
  <text transform="translate(288.02 141.07) rotate(180)" font-size="26.65" fill="#4e86c5" font-family="SourceSansPro-Bold, Source Sans Pro" font-weight="700">00:30</text>
  <text transform="translate(197.92 141.07) rotate(180)" font-size="26.65" fill="#4e86c5" font-family="SourceSansPro-Light, Source Sans Pro">Close</text>
  <polygon points="200.67 89.51 162.74 89.51 200.67 51.57 200.67 89.51" fill="#4e86c5" opacity="0.1"/>
  <polygon points="70.27 89.51 70.27 127.44 32.34 89.51 70.27 89.51" fill="#4e86c5" opacity="0.1"/>
  <polygon points="108.21 51.57 70.27 51.57 108.21 13.64 108.21 51.57" fill="#4e86c5" opacity="0.26"/>
  <polygon points="32.34 51.57 70.27 51.57 32.34 89.51 32.34 51.57" fill="#4e86c5" opacity="0.5"/>
  <g opacity="0.45">
    <path d="M501.27,632H498.7v-.86h2.57Zm-5.14,0h-2.57v-.86h2.57ZM491,632h-2.57v-.86H491Zm-5.14,0h-2.57v-.86h2.57Zm-5.14,0h-2.57v-.86h2.57Zm-5.14,0H473v-.86h2.57Zm-5.14,0h-2.57v-.86h2.57Zm-5.14,0h-2.57v-.86h2.57Zm-5.14,0h-2.57v-.86h2.57ZM455,632h-2.57v-.86H455Zm-5.14,0h-2.57v-.86h2.57Zm-5.14,0h-2.57v-.86h2.57Zm-5.14,0H437v-.86h2.57Zm-5.14,0h-2.57v-.86h2.57Zm-5.14,0h-2.57v-.86h2.57Zm-5.14,0h-2.57v-.86h2.57ZM419,632h-2.57v-.86H419Zm-5.14,0h-2.57v-.86h2.57Zm-5.14,0h-2.57v-.86h2.57Zm-5.14,0H401v-.86h2.57Zm-5.14,0h-2.57v-.86h2.57Zm-5.14,0h-2.57v-.86h2.57Zm-5.14,0h-2.57v-.86h2.57ZM383,632h-2.57v-.86H383Zm-5.14,0H375.3v-.86h2.57Zm-5.14,0h-2.57v-.86h2.57Zm-5.14,0H365v-.86h2.57Zm-5.14,0h-2.57v-.86h2.57Zm-5.14,0h-2.57v-.86h2.57Zm-5.14,0H349.6v-.86h2.57ZM347,632h-2.57v-.86H347Zm-5.14,0h-2.57v-.86h2.57Zm-5.14,0h-2.57v-.86h2.57Zm-5.14,0H329v-.86h2.57Zm-5.14,0h-2.57v-.86h2.57Zm-5.14,0h-2.57v-.86h2.57Zm-5.14,0h-2.57v-.86h2.57ZM311,632h-2.57v-.86H311Zm-5.14,0h-2.57v-.86h2.57Zm-5.14,0h-2.57v-.86h2.57Zm-5.14,0H293v-.86h2.57Zm-5.14,0H287.9v-.86h2.57Zm-5.14,0h-2.57v-.86h2.57Zm-5.14,0h-2.57v-.86h2.57ZM275,632h-2.57v-.86H275Zm-5.14,0h-2.57v-.86h2.57Zm-5.14,0h-2.57v-.86h2.57Zm-5.14,0H257v-.86h2.57Zm-5.14,0h-2.57v-.86h2.57Zm-5.14,0h-2.57v-.86h2.57Zm-5.14,0h-2.57v-.86h2.57Zm-5.14,0h-2.57v-.86h2.57Zm-5.14,0h-2.57v-.86h2.57Zm-5.14,0H226.2v-.86h2.57Zm-5.14,0h-2.57v-.86h2.57Zm-5.14,0h-2.57v-.86h2.57Zm-5.14,0h-2.57v-.86h2.57Zm-5.14,0h-2.57v-.86h2.57Zm-5.14,0h-2.57v-.86h2.57Zm-5.14,0h-2.57v-.86h2.57Zm-5.14,0h-2.57v-.86h2.57Zm-5.14,0h-2.57v-.86h2.57Zm-5.14,0h-2.57v-.86h2.57Zm-5.14,0h-2.57v-.86h2.57Zm-5.14,0h-2.57v-.86h2.57Zm-5.14,0H164.5v-.86h2.57Zm-5.14,0h-2.57v-.86h2.57Zm-5.14,0h-2.57v-.86h2.57Zm-5.14,0h-2.57v-.86h2.57Zm-5.14,0h-2.57v-.86h2.57Zm-5.14,0H138.8v-.86h2.57Zm-5.14,0h-2.57v-.86h2.57Zm-5.14,0h-2.57v-.86h2.57Zm-5.14,0h-2.57v-.86h2.57Zm-5.14,0h-2.57v-.86h2.57Zm-5.14,0h-2.57v-.86h2.57Zm-5.14,0h-2.57v-.86h2.57Zm-5.14,0h-2.57v-.86h2.57Zm-5.14,0H97.66v-.86h2.57Zm-5.14,0H92.52v-.86h2.57Z" fill="#4e86c5"/>
  </g>
  <g opacity="0.45">
    <path d="M501.27,704.75H498.7v-.86h2.57Zm-5.14,0h-2.57v-.86h2.57Zm-5.14,0h-2.57v-.86H491Zm-5.14,0h-2.57v-.86h2.57Zm-5.14,0h-2.57v-.86h2.57Zm-5.14,0H473v-.86h2.57Zm-5.14,0h-2.57v-.86h2.57Zm-5.14,0h-2.57v-.86h2.57Zm-5.14,0h-2.57v-.86h2.57Zm-5.14,0h-2.57v-.86H455Zm-5.14,0h-2.57v-.86h2.57Zm-5.14,0h-2.57v-.86h2.57Zm-5.14,0H437v-.86h2.57Zm-5.14,0h-2.57v-.86h2.57Zm-5.14,0h-2.57v-.86h2.57Zm-5.14,0h-2.57v-.86h2.57Zm-5.14,0h-2.57v-.86H419Zm-5.14,0h-2.57v-.86h2.57Zm-5.14,0h-2.57v-.86h2.57Zm-5.14,0H401v-.86h2.57Zm-5.14,0h-2.57v-.86h2.57Zm-5.14,0h-2.57v-.86h2.57Zm-5.14,0h-2.57v-.86h2.57Zm-5.14,0h-2.57v-.86H383Zm-5.14,0H375.3v-.86h2.57Zm-5.14,0h-2.57v-.86h2.57Zm-5.14,0H365v-.86h2.57Zm-5.14,0h-2.57v-.86h2.57Zm-5.14,0h-2.57v-.86h2.57Zm-5.14,0H349.6v-.86h2.57Zm-5.14,0h-2.57v-.86H347Zm-5.14,0h-2.57v-.86h2.57Zm-5.14,0h-2.57v-.86h2.57Zm-5.14,0H329v-.86h2.57Zm-5.14,0h-2.57v-.86h2.57Zm-5.14,0h-2.57v-.86h2.57Zm-5.14,0h-2.57v-.86h2.57Zm-5.14,0h-2.57v-.86H311Zm-5.14,0h-2.57v-.86h2.57Zm-5.14,0h-2.57v-.86h2.57Zm-5.14,0H293v-.86h2.57Zm-5.14,0H287.9v-.86h2.57Zm-5.14,0h-2.57v-.86h2.57Zm-5.14,0h-2.57v-.86h2.57Zm-5.14,0h-2.57v-.86H275Zm-5.14,0h-2.57v-.86h2.57Zm-5.14,0h-2.57v-.86h2.57Zm-5.14,0H257v-.86h2.57Zm-5.14,0h-2.57v-.86h2.57Zm-5.14,0h-2.57v-.86h2.57Zm-5.14,0h-2.57v-.86h2.57Zm-5.14,0h-2.57v-.86h2.57Zm-5.14,0h-2.57v-.86h2.57Zm-5.14,0H226.2v-.86h2.57Zm-5.14,0h-2.57v-.86h2.57Zm-5.14,0h-2.57v-.86h2.57Zm-5.14,0h-2.57v-.86h2.57Zm-5.14,0h-2.57v-.86h2.57Zm-5.14,0h-2.57v-.86h2.57Zm-5.14,0h-2.57v-.86h2.57Zm-5.14,0h-2.57v-.86h2.57Zm-5.14,0h-2.57v-.86h2.57Zm-5.14,0h-2.57v-.86h2.57Zm-5.14,0h-2.57v-.86h2.57Zm-5.14,0h-2.57v-.86h2.57Zm-5.14,0H164.5v-.86h2.57Zm-5.14,0h-2.57v-.86h2.57Zm-5.14,0h-2.57v-.86h2.57Zm-5.14,0h-2.57v-.86h2.57Zm-5.14,0h-2.57v-.86h2.57Zm-5.14,0H138.8v-.86h2.57Zm-5.14,0h-2.57v-.86h2.57Zm-5.14,0h-2.57v-.86h2.57Zm-5.14,0h-2.57v-.86h2.57Zm-5.14,0h-2.57v-.86h2.57Zm-5.14,0h-2.57v-.86h2.57Zm-5.14,0h-2.57v-.86h2.57Zm-5.14,0h-2.57v-.86h2.57Zm-5.14,0H97.66v-.86h2.57Zm-5.14,0H92.52v-.86h2.57Z" fill="#4e86c5"/>
  </g>
  <text transform="translate(220.1 518.5)" font-size="24.07" fill="#4e86c5" font-family="SourceSansPro-Light, Source Sans Pro">HASH<tspan x="55.95" y="0" letter-spacing="-0.04em">T</tspan><tspan x="67.6" y="0" letter-spacing="-0.01em">A</tspan><tspan x="80.02" y="0">G IT ON</tspan></text>
  <text transform="translate(168.95 760.46)" font-size="24.07" fill="#4e86c5" font-family="SourceSansPro-Light, Source Sans Pro">Help us <tspan x="77.9" y="0" letter-spacing="-0.01em">c</tspan><tspan x="88.46" y="0">a</tspan><tspan x="100.28" y="0" letter-spacing="-0.01em">p</tspan><tspan x="113.08" y="0">tu</tspan><tspan x="133.32" y="0" letter-spacing="-0.01em">r</tspan><tspan x="140.71" y="0">e the fun! :-)</tspan></text>
  <text transform="translate(92.68 589.73)" font-size="71.68" fill="#4e86c5" font-family="SourceSansPro-ExtraLight, Source Sans Pro">SOCIAL MEDIA</text>
  <text transform="translate(111.43 680)" font-size="33.03" fill="#4e86c5" font-family="Montserrat-Regular, Montserrat">#<tspan x="24.28" y="0" font-family="SourceSansPro-Bold, Source Sans Pro" font-weight="700">G</tspan><tspan x="45.35" y="0" font-family="SourceSansPro-Bold, Source Sans Pro" font-weight="700" letter-spacing="-0.01em">U</tspan><tspan x="66.92" y="0" xml:space="preserve" font-family="SourceSansPro-Bold, Source Sans Pro" font-weight="700" letter-spacing="0em">ADEC   </tspan><tspan x="163.96" y="0">#</tspan><tspan x="188.23" y="0" font-family="SourceSansPro-Bold, Source Sans Pro" font-weight="700">Gnome</tspan><tspan x="291.94" y="0" font-family="SourceSansPro-Bold, Source Sans Pro" font-weight="700" letter-spacing="-0.03em">P</tspan><tspan x="310.51" y="0" font-family="SourceSansPro-Bold, Source Sans Pro" font-weight="700">arty</tspan></text>
  <polygon points="530.7 452.26 568.64 452.26 530.7 490.19 530.7 452.26" fill="#4e86c5" opacity="0.15"/>
  <polygon points="527.67 807.9 527.67 769.97 565.61 807.9 527.67 807.9" fill="#4e86c5" opacity="0.15"/>
  <polygon points="65.64 779.45 103.58 779.45 65.64 817.38 65.64 779.45" fill="#4e86c5" opacity="0.11"/>
  <polygon points="29.03 488.3 66.96 488.3 29.03 526.24 29.03 488.3" fill="#4e86c5" opacity="0.2"/>
  <polygon points="66.96 488.3 66.96 450.37 104.9 488.3 66.96 488.3" fill="#4e86c5" opacity="0.1"/>
  <polygon points="502.25 452.26 502.25 490.19 464.31 452.26 502.25 452.26" fill="#4e86c5" opacity="0.26"/>
  <polygon points="65.64 741.51 65.64 779.45 27.71 741.51 65.64 741.51" fill="#4e86c5" opacity="0.26"/>
  <polygon points="568.63 490.19 568.63 528.13 530.7 490.19 568.63 490.19" fill="#4e86c5" opacity="0.58"/>
</svg>
