<svg id="Layer_1" data-name="Layer 1" xmlns="http://www.w3.org/2000/svg" viewBox="0 0 3508 4960"><title>Placecard</title><rect x="-0.2" y="-0.03" width="3508" height="2480" transform="translate(3507.6 2479.94) rotate(180)" style="fill:#fff"/><g style="opacity:0.45"><line x1="1898.11" y1="358.19" x2="1898.11" y2="365.69" style="fill:none;stroke:#4a86cf;stroke-miterlimit:10;stroke-width:5px"/><line x1="1898.11" y1="380.66" x2="1898.11" y2="2079.21" style="fill:none;stroke:#4a86cf;stroke-miterlimit:10;stroke-width:5px;stroke-dasharray:14.965217590332031,14.965217590332031"/><line x1="1898.11" y1="2086.69" x2="1898.11" y2="2094.19" style="fill:none;stroke:#4a86cf;stroke-miterlimit:10;stroke-width:5px"/></g><text transform="translate(3245.56 1994.31) rotate(180)" style="font-size:154.85153198242188px;fill:#4a86cf;font-family:SourceSansPro-Bold, Source Sans Pro;font-weight:700">19:00</text><text transform="translate(2722 1994.31) rotate(180)" style="font-size:154.85153198242188px;fill:#4a86cf;font-family:SourceSansPro-Light, Source Sans Pro">Arri<tspan x="215.08" y="0" style="letter-spacing:-0.01998512073391241em">v</tspan><tspan x="279.19" y="0">al</tspan></text><text transform="translate(3245.56 1663.63) rotate(180)" style="font-size:154.85153198242188px;fill:#4a86cf;font-family:SourceSansPro-Bold, Source Sans Pro;font-weight:700">19:30</text><text transform="translate(2722 1663.63) rotate(180)" style="font-size:154.85153198242188px;fill:#4a86cf;font-family:SourceSansPro-Light, Source Sans Pro">Wel<tspan x="230.72" y="0" style="letter-spacing:-0.016995866323096857em">c</tspan><tspan x="297.62" y="0">ome</tspan><tspan x="0" y="165.33">Ce</tspan><tspan x="162.13" y="165.33" style="letter-spacing:-0.009995713588908542em">r</tspan><tspan x="209.67" y="165.33">emony</tspan></text><text transform="translate(3245.56 1195.18) rotate(180)" style="font-size:154.85153198242188px;fill:#4a86cf;font-family:SourceSansPro-Bold, Source Sans Pro;font-weight:700">20:00</text><text transform="translate(2722 1195.18) rotate(180)" style="font-size:154.85153198242188px;fill:#4a86cf;font-family:SourceSansPro-Light, Source Sans Pro">Dinner</text><text transform="translate(3245.56 864.51) rotate(180)" style="font-size:154.85153198242188px;fill:#4a86cf;font-family:SourceSansPro-Bold, Source Sans Pro;font-weight:700">21:00</text><text transform="translate(2722 864.51) rotate(180)" style="font-size:154.85153198242188px;fill:#4a86cf;font-family:SourceSansPro-Light, Source Sans Pro">Raffle</text><text transform="translate(3245.56 533.85) rotate(180)" style="font-size:154.85153198242188px;fill:#4a86cf;font-family:SourceSansPro-Bold, Source Sans Pro;font-weight:700">22:00</text><text transform="translate(2722 533.85) rotate(180)" style="font-size:154.85153198242188px;fill:#4a86cf;font-family:SourceSansPro-Light, Source Sans Pro">Q&amp;A with<tspan x="0" y="165.33" style="letter-spacing:-0.010985825281942386em">F</tspan><tspan x="72.16" y="165.33">ederi</tspan><tspan x="390.53" y="165.33" style="letter-spacing:-0.016995866323096857em">c</tspan><tspan x="457.42" y="165.33">o</tspan></text><text transform="translate(1700.11 1994.31) rotate(180)" style="font-size:154.85153198242188px;fill:#4a86cf;font-family:SourceSansPro-Bold, Source Sans Pro;font-weight:700">22:30</text><text transform="translate(1176.56 1994.31) rotate(180)" style="font-size:154.85153198242188px;fill:#4a86cf;font-family:SourceSansPro-Light, Source Sans Pro">Ca<tspan x="163.37" y="0" style="letter-spacing:-0.01199485630669025em">k</tspan><tspan x="233.36" y="0">e Ce</tspan><tspan x="501.25" y="0" style="letter-spacing:-0.009995713588908542em">r</tspan><tspan x="548.79" y="0" style="letter-spacing:0.0000031532219523370795em">emony</tspan><tspan x="0" y="165.33">+ 90s music</tspan></text><text transform="translate(1700.11 1539.63) rotate(180)" style="font-size:154.85153198242188px;fill:#4a86cf;font-family:SourceSansPro-Bold, Source Sans Pro;font-weight:700">23:00</text><text transform="translate(1176.56 1539.63) rotate(180)" style="font-size:154.85153198242188px;fill:#4a86cf;font-family:SourceSansPro-Light, Source Sans Pro"><tspan style="letter-spacing:-0.07798863854715299em">T</tspan><tspan x="69.06" y="0">alent Show</tspan><tspan x="0" y="165.33">(win poin</tspan><tspan x="583.01" y="165.33" style="letter-spacing:-0.009992560366956204em">t</tspan><tspan x="629.77" y="165.33" style="letter-spacing:-0.0000031532219523370795em">s </tspan><tspan x="723.46" y="165.33" style="letter-spacing:-0.009995713588908542em">f</tspan><tspan x="762.63" y="165.33">or</tspan><tspan x="0" y="330.67">the house)</tspan></text><text transform="translate(1700.11 864.51) rotate(180)" style="font-size:154.85153198242188px;fill:#4a86cf;font-family:SourceSansPro-Bold, Source Sans Pro;font-weight:700">00:30</text><text transform="translate(1176.56 864.51) rotate(180)" style="font-size:154.85153198242188px;fill:#4a86cf;font-family:SourceSansPro-Light, Source Sans Pro">Close</text><polygon points="1192.55 564.86 972.11 564.86 1192.55 344.42 1192.55 564.86" style="fill:#4a86cf;opacity:0.1"/><polygon points="434.77 564.86 434.77 785.3 214.33 564.86 434.77 564.86" style="fill:#4a86cf;opacity:0.1"/><polygon points="655.22 344.42 434.77 344.42 655.22 123.97 655.22 344.42" style="fill:#4a86cf;opacity:0.26"/><polygon points="214.33 344.42 434.77 344.42 214.33 564.86 214.33 344.42" style="fill:#4a86cf;opacity:0.5"/><rect x="-0.2" y="2479.97" width="3508" height="2480" style="fill:#fff"/><g style="opacity:0.45"><line x1="541.64" y1="3714.56" x2="549.14" y2="3714.56" style="fill:none;stroke:#4a86cf;stroke-miterlimit:10;stroke-width:5px"/><line x1="564.08" y1="3714.56" x2="2946.83" y2="3714.56" style="fill:none;stroke:#4a86cf;stroke-miterlimit:10;stroke-width:5px;stroke-dasharray:14.938876152038574,14.938876152038574"/><line x1="2954.3" y1="3714.56" x2="2961.8" y2="3714.56" style="fill:none;stroke:#4a86cf;stroke-miterlimit:10;stroke-width:5px"/></g><g style="opacity:0.45"><line x1="541.64" y1="4137.63" x2="549.14" y2="4137.63" style="fill:none;stroke:#4a86cf;stroke-miterlimit:10;stroke-width:5px"/><line x1="564.08" y1="4137.63" x2="2946.83" y2="4137.63" style="fill:none;stroke:#4a86cf;stroke-miterlimit:10;stroke-width:5px;stroke-dasharray:14.938876152038574,14.938876152038574"/><line x1="2954.3" y1="4137.63" x2="2961.8" y2="4137.63" style="fill:none;stroke:#4a86cf;stroke-miterlimit:10;stroke-width:5px"/></g><text transform="translate(1305.45 3057.8)" style="font-size:139.8494415283203px;fill:#4a86cf;font-family:SourceSansPro-Light, Source Sans Pro">HASH<tspan x="325.15" y="0" style="letter-spacing:-0.03999138914235443em">T</tspan><tspan x="392.83" y="0" style="letter-spacing:-0.009992610068571536em">A</tspan><tspan x="464.99" y="0">G IT ON</tspan></text><text transform="translate(1008.21 4463.86)" style="font-size:139.8494415283203px;fill:#4a86cf;font-family:SourceSansPro-Light, Source Sans Pro">Help us <tspan x="452.69" y="0" style="letter-spacing:-0.009992610068571536em">c</tspan><tspan x="514.08" y="0" style="letter-spacing:-0.000006982956022761382em">a</tspan><tspan x="582.74" y="0" style="letter-spacing:-0.011989735491081292em">p</tspan><tspan x="657.15" y="0" style="letter-spacing:-0.000006982956022761382em">tu</tspan><tspan x="774.76" y="0" style="letter-spacing:-0.009992610068571536em">r</tspan><tspan x="817.69" y="0">e the fun! :-)</tspan></text><text transform="translate(564.98 3471.69)" style="font-size:416.5549011230469px;fill:#4a86cf;font-family:SourceSansPro-ExtraLight, Source Sans Pro">SOCIAL MEDIA</text><text transform="translate(673.98 3996.31)" style="font-size:191.93882751464844px;fill:#4a86cf;font-family:Montserrat-Regular, Montserrat">#<tspan x="141.07" y="0" style="font-family:SourceSansPro-Bold, Source Sans Pro;font-weight:700">G</tspan><tspan x="263.53" y="0" style="font-family:SourceSansPro-Bold, Source Sans Pro;font-weight:700;letter-spacing:-0.01199468665908307em">U</tspan><tspan x="388.86" y="0" xml:space="preserve" style="font-family:SourceSansPro-Bold, Source Sans Pro;font-weight:700">ADEC   </tspan><tspan x="952.77" y="0">#</tspan><tspan x="1093.84" y="0" style="font-family:SourceSansPro-Bold, Source Sans Pro;font-weight:700">Gnome</tspan><tspan x="1696.52" y="0" style="font-family:SourceSansPro-Bold, Source Sans Pro;font-weight:700;letter-spacing:-0.03399724125386769em">P</tspan><tspan x="1804.39" y="0" style="font-family:SourceSansPro-Bold, Source Sans Pro;font-weight:700">arty</tspan></text><polygon points="3110.38 2672.86 3330.83 2672.86 3110.38 2893.3 3110.38 2672.86" style="fill:#4a86cf;opacity:0.15"/><polygon points="3092.77 4739.53 3092.77 4519.08 3313.22 4739.53 3092.77 4739.53" style="fill:#4a86cf;opacity:0.15"/><polygon points="407.88 4574.19 628.33 4574.19 407.88 4794.64 407.88 4574.19" style="fill:#4a86cf;opacity:0.11"/><polygon points="195.11 2882.3 415.55 2882.3 195.11 3102.75 195.11 2882.3" style="fill:#4a86cf;opacity:0.2"/><polygon points="415.55 2882.3 415.55 2661.86 635.99 2882.3 415.55 2882.3" style="fill:#4a86cf;opacity:0.1"/><polygon points="2945.05 2672.86 2945.05 2893.3 2724.61 2672.86 2945.05 2672.86" style="fill:#4a86cf;opacity:0.26"/><polygon points="407.88 4353.75 407.88 4574.19 187.44 4353.75 407.88 4353.75" style="fill:#4a86cf;opacity:0.26"/><polygon points="3330.83 2893.3 3330.83 3113.75 3110.38 2893.3 3330.83 2893.3" style="fill:#4a86cf;opacity:0.58"/></svg>