<?xml version="1.0" encoding="UTF-8" standalone="no"?>
<!-- Created with Inkscape (http://www.inkscape.org/) -->

<svg
   xmlns:dc="http://purl.org/dc/elements/1.1/"
   xmlns:cc="http://creativecommons.org/ns#"
   xmlns:rdf="http://www.w3.org/1999/02/22-rdf-syntax-ns#"
   xmlns:svg="http://www.w3.org/2000/svg"
   xmlns="http://www.w3.org/2000/svg"
   xmlns:sodipodi="http://sodipodi.sourceforge.net/DTD/sodipodi-0.dtd"
   xmlns:inkscape="http://www.inkscape.org/namespaces/inkscape"
   width="230mm"
   height="230mm"
   viewBox="0 0 230 230"
   version="1.1"
   id="svg4478"
   inkscape:version="0.92+devel unknown"
   sodipodi:docname="volunteers.svg">
  <defs
     id="defs4472" />
  <sodipodi:namedview
     id="base"
     pagecolor="#c12634"
     bordercolor="#666666"
     borderopacity="1.0"
     inkscape:pageopacity="1"
     inkscape:pageshadow="2"
     inkscape:zoom="0.7"
     inkscape:cx="376.35326"
     inkscape:cy="409.29621"
     inkscape:document-units="mm"
     inkscape:current-layer="g5085"
     inkscape:document-rotation="0"
     showgrid="false"
     inkscape:showpageshadow="false"
     inkscape:window-width="1920"
     inkscape:window-height="1136"
     inkscape:window-x="0"
     inkscape:window-y="27"
     inkscape:window-maximized="1"
     inkscape:pagecheckerboard="true">
    <inkscape:grid
       type="xygrid"
       id="grid5434"
       units="mm"
       spacingx="1"
       spacingy="1" />
  </sodipodi:namedview>
  <metadata
     id="metadata4475">
    <rdf:RDF>
      <cc:Work
         rdf:about="">
        <dc:format>image/svg+xml</dc:format>
        <dc:type
           rdf:resource="http://purl.org/dc/dcmitype/StillImage" />
        <dc:title></dc:title>
      </cc:Work>
    </rdf:RDF>
  </metadata>
  <g
     inkscape:label="Layer 1"
     inkscape:groupmode="layer"
     id="layer1"
     transform="translate(0,-67)">
    <g
       transform="matrix(0.87134873,0,0,0.87004902,-346.00445,879.15952)"
       id="g5143"
       style="stroke-width:0.30387476">
      <g
         style="fill:#ffffff;fill-opacity:1;stroke-width:0.30387476"
         transform="matrix(1.1797066,0,0,1.1797066,-47.889102,-966.1187)"
         id="g5085">
        <rect
           style="fill:#c12634;fill-opacity:1;stroke:#919191;stroke-width:0;stroke-linecap:round;stroke-linejoin:round;stroke-dasharray:none"
           id="rect5432"
           width="223.74934"
           height="224.0836"
           x="377.19531"
           y="27.680285" />
        <g
           transform="matrix(0.84640401,0,0,0.84766839,-720.50057,818.94824)"
           id="g5556">
          <text
             id="text5438"
             y="-695.32336"
             x="1428.7014"
             style="color:#000000;font-style:normal;font-variant:normal;font-weight:normal;font-stretch:normal;font-size:7.88514662px;line-height:0%;font-family:'Source Sans Pro';-inkscape-font-specification:'Source Sans Pro';text-indent:0;text-align:center;text-decoration:none;text-decoration-line:none;letter-spacing:9.52075958px;word-spacing:0px;text-transform:none;writing-mode:lr-tb;direction:ltr;baseline-shift:baseline;text-anchor:middle;display:inline;overflow:visible;visibility:visible;fill:#ffffff;fill-opacity:1;fill-rule:nonzero;stroke:none;stroke-width:0.65709555;marker:none;enable-background:accumulate"
             xml:space="preserve"><tspan
               style="font-style:normal;font-variant:normal;font-weight:normal;font-stretch:normal;font-size:8.4836235px;line-height:125%;font-family:'Source Sans Pro';-inkscape-font-specification:'Source Sans Pro';text-align:center;letter-spacing:9.52075958px;writing-mode:lr-tb;text-anchor:middle;fill:#ffffff;fill-opacity:1;stroke-width:0.65709555"
               y="-695.32336"
               x="1433.4618"
               id="tspan5436"
               sodipodi:role="line">MANCHESTER UK</tspan></text>
          <g
             id="g5498"
             transform="matrix(1.1797066,0,0,1.1797066,852.1109,-966.11871)"
             style="fill:#ffffff;fill-opacity:1">
            <text
               id="text5442"
               y="145.11259"
               x="489.11847"
               style="color:#000000;font-style:normal;font-variant:normal;font-weight:normal;font-stretch:normal;font-size:19.04151917px;line-height:0%;font-family:'Source Sans Pro';-inkscape-font-specification:'Source Sans Pro';text-indent:0;text-align:center;text-decoration:none;text-decoration-line:none;letter-spacing:0px;word-spacing:0px;text-transform:none;writing-mode:lr-tb;direction:ltr;baseline-shift:baseline;text-anchor:middle;display:inline;overflow:visible;visibility:visible;fill:#ffffff;fill-opacity:1;fill-rule:nonzero;stroke:none;stroke-width:1.0730238;marker:none;enable-background:accumulate"
               xml:space="preserve"><tspan
                 style="font-style:normal;font-variant:normal;font-weight:normal;font-stretch:normal;font-size:19.04151917px;line-height:125%;font-family:'Source Sans Pro';-inkscape-font-specification:'Source Sans Pro';text-align:center;letter-spacing:3.60870385;writing-mode:lr-tb;text-anchor:middle;fill:#ffffff;fill-opacity:1;stroke-width:1.0730238"
                 y="145.11259"
                 x="490.92282"
                 id="tspan5440"
                 sodipodi:role="line">2017</tspan></text>
            <g
               id="g5496"
               transform="matrix(0.49311005,0,0,0.49311005,212.30699,232.69533)"
               style="fill:#ffffff;fill-opacity:1">
              <g
                 id="g5490"
                 transform="matrix(0.9944177,0,0,0.9944177,100.67823,-513.44707)"
                 style="fill:#ffffff;fill-opacity:1;stroke-width:1.67566872">
                <g
                   transform="matrix(1.0736709,0,0,1.0736709,-558.02149,-205.22598)"
                   id="g5480"
                   style="fill:#ffffff;fill-opacity:1;stroke-width:1.67566872">
                  <g
                     transform="matrix(0.11840388,0,0,0.11840388,865.19335,299.21794)"
                     id="g5478"
                     style="fill:#ffffff;fill-opacity:1;stroke-width:1.67566872">
                    <g
                       transform="matrix(1.293235,0,0,1.293235,-4878.321,-1224.915)"
                       id="g5476"
                       style="fill:#ffffff;fill-opacity:1;stroke-width:1.67566872">
                      <g
                         transform="matrix(2.438586,0,0,2.438586,3659.952,1113.451)"
                         style="fill:#ffffff;fill-opacity:1;fill-rule:nonzero;stroke:none;stroke-width:1.67566872"
                         id="g5456">
                        <g
                           style="fill:#ffffff;fill-opacity:1;stroke-width:1.67566872"
                           id="g5454">
                          <path
                             d="M 86.068,0 C 61.466,0 56.851,35.041 70.691,35.041 84.529,35.041 110.671,0 86.068,0 Z"
                             style="fill:#ffffff;fill-opacity:1;stroke-width:1.67566872"
                             id="path5444"
                             inkscape:connector-curvature="0" />
                          <path
                             d="M 45.217,30.699 C 52.586,31.149 60.671,2.577 46.821,4.374 32.976,6.171 37.845,30.249 45.217,30.699 Z"
                             style="fill:#ffffff;fill-opacity:1;stroke-width:1.67566872"
                             id="path5446"
                             inkscape:connector-curvature="0" />
                          <path
                             d="M 11.445,48.453 C 16.686,46.146 12.12,23.581 3.208,29.735 -5.7,35.89 6.204,50.759 11.445,48.453 Z"
                             style="fill:#ffffff;fill-opacity:1;stroke-width:1.67566872"
                             id="path5448"
                             inkscape:connector-curvature="0" />
                          <path
                             d="M 26.212,36.642 C 32.451,35.37 32.793,9.778 21.667,14.369 10.539,18.961 19.978,37.916 26.212,36.642 Z"
                             style="fill:#ffffff;fill-opacity:1;stroke-width:1.67566872"
                             id="path5450"
                             inkscape:connector-curvature="0" />
                          <path
                             d="m 58.791,93.913 c 1.107,8.454 -6.202,12.629 -13.36,7.179 C 22.644,83.743 83.16,75.088 79.171,51.386 75.86,31.712 15.495,37.769 8.621,68.553 3.968,89.374 27.774,118.26 52.614,118.26 c 12.22,0 26.315,-11.034 28.952,-25.012 C 83.58,82.589 57.867,86.86 58.791,93.913 Z"
                             style="fill:#ffffff;fill-opacity:1;stroke-width:1.67566872"
                             id="path5452"
                             inkscape:connector-curvature="0" />
                        </g>
                      </g>
                      <g
                         id="g5474"
                         style="fill:#ffffff;fill-opacity:1;stroke-width:1.67566872">
                        <path
                           d="m 4176.2963,1214.4401 c -15.1078,0.4069 -27.0386,5.8367 -35.8126,16.25 -9.0861,10.8369 -13.6562,25.8104 -13.6562,44.9063 0,19.0432 4.5703,33.9757 13.6562,44.8124 9.1305,10.8369 21.6664,16.25 37.6563,16.25 16.034,0 28.6014,-5.4131 37.6875,-16.25 9.0859,-10.8367 13.6251,-25.7692 13.625,-44.8124 -1e-4,-19.0959 -4.5391,-34.0694 -13.625,-44.9063 -9.0861,-10.8366 -21.6536,-16.2499 -37.6875,-16.25 -0.6246,0 -1.2296,-0.016 -1.8437,0 z m 1.125,22 c 0.2415,-0.01 0.4737,0 0.7187,0 7.8833,10e-5 13.9919,3.4114 18.3125,10.25 4.3203,6.8388 6.4999,16.4913 6.5,28.9063 0,12.3623 -2.1799,21.9427 -6.5,28.7812 -4.3204,6.8389 -10.4293,10.2812 -18.3125,10.2812 -7.8391,0 -13.8983,-3.4423 -18.2187,-10.2812 -4.3204,-6.8385 -6.4999,-16.4189 -6.5,-28.7812 0,-12.4149 2.1798,-22.0675 6.5,-28.9063 4.1852,-6.6249 10.0123,-10.0428 17.5,-10.25 z"
                           style="font-style:normal;font-variant:normal;font-weight:bold;font-stretch:normal;font-size:148.699646px;line-height:125%;font-family:'Bitstream Vera Sans';text-align:start;writing-mode:lr-tb;text-anchor:start;fill:#ffffff;fill-opacity:1;stroke:none;stroke-width:1.67566872"
                           id="path5458"
                           inkscape:connector-curvature="0" />
                        <path
                           d="m 4005.6293,1325.612 c -13.3076,11.1757 -33.1067,11.0472 -41.3549,11.0472 -16.6133,0 -29.7747,-5.471 -39.4842,-16.413 -9.7097,-10.9946 -14.5644,-25.8819 -14.5644,-44.6622 0,-18.9906 4.9438,-33.9305 14.8316,-44.82 9.8878,-10.8892 23.4277,-16.3339 40.62,-16.334 6.6363,10e-5 12.9831,0.7366 19.0406,2.2094 6.1019,1.473 11.8475,3.6562 17.2368,6.5494 l -6.921,20.4608 c -3.0298,-1.6586 -6.4987,-3.2932 -9.7145,-4.4424 -5.4784,-1.8411 -10.979,-2.7617 -16.5018,-2.7618 -10.2442,10e-5 -18.15,3.3932 -23.7173,10.1792 -5.523,6.7336 -8.2844,16.3867 -8.2844,28.9594 0,12.4676 2.6723,22.0945 8.0172,28.8806 5.3446,6.7861 13.3768,10.1791 22.7818,10.1791 9.5548,0 15.4728,-2.4084 18.6291,-4.9461 v -20.3835 h -20.7001 v -20.3584 h 40.0855"
                           style="font-style:normal;font-variant:normal;font-weight:bold;font-stretch:normal;font-size:148.699646px;line-height:125%;font-family:'Bitstream Vera Sans';text-align:start;writing-mode:lr-tb;text-anchor:start;fill:#ffffff;fill-opacity:1;stroke:none;stroke-width:1.67566872"
                           id="path5460"
                           inkscape:connector-curvature="0" />
                        <path
                           d="m 4023.2108,1216.5605 h 16.2279 l 51.2775,70.8022 v -70.8022 h 21.8853 v 117.8103 h -16.2279 l -51.2774,-70.8022 v 70.8022 h -21.8854 v -117.8103"
                           style="font-style:normal;font-variant:normal;font-weight:bold;font-stretch:normal;font-size:148.699646px;line-height:125%;font-family:'Bitstream Vera Sans';text-align:start;writing-mode:lr-tb;text-anchor:start;fill:#ffffff;fill-opacity:1;stroke:none;stroke-width:1.67566872"
                           id="path5462"
                           inkscape:connector-curvature="0" />
                        <path
                           d="m 4246.3361,1216.5605 h 32.7366 l 22.7151,73.5479 22.8487,-73.5479 h 27.6698 l 12.5,117.8103 h -24.3186 l -7.5,-73.668 -22.9823,74.0213 h -16.3015 l -22.9824,-76.5213 -7.5,76.168 h -24.3854 l 12.5,-117.8103"
                           style="font-style:normal;font-variant:normal;font-weight:bold;font-stretch:normal;font-size:148.699646px;line-height:125%;font-family:'Bitstream Vera Sans';text-align:start;writing-mode:lr-tb;text-anchor:start;fill:#ffffff;fill-opacity:1;stroke:none;stroke-width:1.67566872"
                           id="path5464"
                           inkscape:connector-curvature="0" />
                        <path
                           d="m 4382.3597,1216.5605 h 69.4147 v 22.9624 h -43.6933 v 24.4365 h 33.5877 v 20.4623 h -33.5877 v 26.9868 h 45.1631 v 22.9623 h -70.8845 v -117.8103"
                           style="font-style:normal;font-variant:normal;font-weight:bold;font-stretch:normal;font-size:148.699646px;line-height:125%;font-family:'Bitstream Vera Sans';text-align:start;writing-mode:lr-tb;text-anchor:start;fill:#ffffff;fill-opacity:1;stroke:none;stroke-width:1.67566872"
                           id="path5466"
                           inkscape:connector-curvature="0" />
                        <g
                           style="font-style:normal;font-weight:normal;font-size:30.68958855px;font-family:'Bitstream Vera Sans';fill:#ffffff;fill-opacity:1;stroke:none;stroke-width:1.67566872"
                           id="g5472">
                          <path
                             d="m 4474.5283,1193.3702 h 18.9262 v 2.5475 h -7.9421 v 19.8253 h -3.042 v -19.8253 h -7.9421 v -2.5475"
                             style="letter-spacing:0.2523815;fill:#ffffff;fill-opacity:1;stroke-width:1.67566872"
                             id="path5468"
                             inkscape:connector-curvature="0" />
                          <path
                             d="m 4496.644,1193.3702 h 4.5105 l 5.7093,15.2249 5.7394,-15.2249 h 4.5105 v 22.3728 h -2.9521 v -19.6455 l -5.7693,15.3448 h -3.042 l -5.7692,-15.3448 v 19.6455 h -2.9371 v -22.3728"
                             style="letter-spacing:0.2523815;fill:#ffffff;fill-opacity:1;stroke-width:1.67566872"
                             id="path5470"
                             inkscape:connector-curvature="0" />
                        </g>
                      </g>
                    </g>
                  </g>
                </g>
                <text
                   xml:space="preserve"
                   style="color:#000000;font-style:normal;font-variant:normal;font-weight:300;font-stretch:normal;font-size:27.49932289px;line-height:42.96768951px;font-family:'Source Sans Pro';-inkscape-font-specification:'Source Sans Pro, Light';font-variant-ligatures:normal;font-variant-caps:normal;font-variant-numeric:normal;font-feature-settings:normal;text-indent:0;text-align:start;text-decoration:none;text-decoration-line:none;letter-spacing:0px;word-spacing:0px;text-transform:none;writing-mode:lr-tb;direction:ltr;baseline-shift:baseline;text-anchor:start;display:inline;overflow:visible;visibility:visible;fill:#ffffff;fill-opacity:1;fill-rule:nonzero;stroke:none;stroke-width:2.87998486;stroke-linecap:butt;stroke-linejoin:miter;stroke-opacity:1;marker:none;marker-start:none;marker-mid:none;marker-end:none;enable-background:accumulate"
                   x="298.63791"
                   y="180.08826"
                   id="text5484"><tspan
                     id="tspan5482"
                     x="298.63791"
                     y="180.08826"
                     style="font-style:normal;font-variant:normal;font-weight:300;font-stretch:normal;font-size:27.49932289px;font-family:'Source Sans Pro';-inkscape-font-specification:'Source Sans Pro, Light';font-variant-ligatures:normal;font-variant-caps:normal;font-variant-numeric:normal;font-feature-settings:normal;text-align:start;writing-mode:lr-tb;text-anchor:start;fill:#ffffff;fill-opacity:1;stroke-width:2.87998486">The</tspan></text>
                <text
                   id="text5488"
                   y="180.08826"
                   x="501.38858"
                   style="color:#000000;font-style:normal;font-variant:normal;font-weight:300;font-stretch:normal;font-size:27.49932289px;line-height:42.96768951px;font-family:'Source Sans Pro';-inkscape-font-specification:'Source Sans Pro, Light';font-variant-ligatures:normal;font-variant-caps:normal;font-variant-numeric:normal;font-feature-settings:normal;text-indent:0;text-align:start;text-decoration:none;text-decoration-line:none;letter-spacing:0px;word-spacing:0px;text-transform:none;writing-mode:lr-tb;direction:ltr;baseline-shift:baseline;text-anchor:start;display:inline;overflow:visible;visibility:visible;fill:#ffffff;fill-opacity:1;fill-rule:nonzero;stroke:none;stroke-width:2.87998486;stroke-linecap:butt;stroke-linejoin:miter;stroke-opacity:1;marker:none;marker-start:none;marker-mid:none;marker-end:none;enable-background:accumulate"
                   xml:space="preserve"><tspan
                     style="font-style:normal;font-variant:normal;font-weight:300;font-stretch:normal;font-size:27.49932289px;font-family:'Source Sans Pro';-inkscape-font-specification:'Source Sans Pro, Light';font-variant-ligatures:normal;font-variant-caps:normal;font-variant-numeric:normal;font-feature-settings:normal;text-align:start;writing-mode:lr-tb;text-anchor:start;fill:#ffffff;fill-opacity:1;stroke-width:2.87998486"
                     y="180.08826"
                     x="501.38858"
                     id="tspan5486">Conference</tspan></text>
              </g>
              <text
                 id="text5494"
                 y="-247.86864"
                 x="385.77158"
                 style="font-style:normal;font-variant:normal;font-weight:bold;font-stretch:normal;font-size:85.93907166px;line-height:125%;font-family:Cantarell;-inkscape-font-specification:'Cantarell Bold';text-align:start;letter-spacing:0px;word-spacing:0px;writing-mode:lr-tb;text-anchor:start;fill:#ffffff;fill-opacity:1;stroke:none;stroke-width:1.06666672"
                 xml:space="preserve"
                 transform="scale(1.0020838,0.99792051)"><tspan
                   style="fill:#ffffff;fill-opacity:1;stroke-width:1.06666672"
                   y="-247.86864"
                   x="385.77158"
                   id="tspan5492">GUADEC</tspan></text>
            </g>
          </g>
          <g
             transform="translate(899.99999,920)"
             id="g5514">
            <g
               style="fill:none;stroke:#ffffff;stroke-opacity:1"
               id="g5510"
               transform="matrix(0.83745205,0,0,0.83745205,404.70833,-1880.6168)">
              <path
                 inkscape:connector-curvature="0"
                 id="path5500"
                 d="m 25.244153,287.08852 v -7.12896 l 3.001664,-4.8777 H 40.252471 V 264.95125 L 37.250808,262.7 v -28.89102 h 8.254574 v -10.50582 l 3.001665,2.62645 v 54.40517"
                 style="fill:none;stroke:#ffffff;stroke-width:0.52916664;stroke-linecap:butt;stroke-linejoin:miter;stroke-miterlimit:4;stroke-dasharray:none;stroke-opacity:1" />
              <path
                 id="path5502"
                 d="m 91.255885,286.85145 c -4.250625,-6.64449 -12.318439,-12.15809 -23.585157,-12.59236 -10.896052,0.23967 -16.600166,4.2348 -19.133101,5.89404 m 19.133101,-1.60292 c 0.521949,0 0.942064,0.42012 0.942064,0.94207 0,0.52196 -0.420115,0.94208 -0.942064,0.94208 -0.521949,0 -0.94266,-0.42012 -0.94266,-0.94208 0,-0.52195 0.420711,-0.94207 0.94266,-0.94207 z"
                 clip-path="none"
                 style="color:#000000;clip-rule:nonzero;display:inline;overflow:visible;visibility:visible;opacity:1;isolation:auto;mix-blend-mode:normal;color-interpolation:sRGB;color-interpolation-filters:linearRGB;solid-color:#000000;solid-opacity:1;vector-effect:none;fill:none;fill-opacity:1;fill-rule:nonzero;stroke:#ffffff;stroke-width:0.52916664;stroke-linecap:square;stroke-linejoin:miter;stroke-miterlimit:4;stroke-dasharray:none;stroke-dashoffset:0;stroke-opacity:1;marker:none;marker-start:none;marker-mid:none;marker-end:none;paint-order:normal;color-rendering:auto;image-rendering:auto;shape-rendering:auto;text-rendering:auto;enable-background:accumulate"
                 inkscape:connector-curvature="0"
                 sodipodi:nodetypes="cccsssss" />
              <path
                 sodipodi:nodetypes="ccccccccccccccccccccccccccccc"
                 inkscape:connector-curvature="0"
                 id="path5504"
                 d="m 91.280759,287.08852 v -4.87771 h 8.25457 l 1.876041,4.87771 v -6.00334 l 2.25125,-3.37687 1.87603,3.37689 h 2.62647 v -1.87605 h 1.12562 v 1.87605 h 1.12562 v -1.12563 h 1.12563 v 1.12563 h 9.00499 v -13.88271 l 1.12562,-2.62645 v -3.00167 h 0.75041 v 0.37521 l 2.62646,-12.00665 2.62646,12.00665 v -0.37521 h 0.7504 v 3.00167 l 1.12563,2.62645 v 14.25791 h 6.37854"
                 style="fill:none;stroke:#ffffff;stroke-width:0.52916664;stroke-linecap:butt;stroke-linejoin:miter;stroke-miterlimit:4;stroke-dasharray:none;stroke-opacity:1" />
              <path
                 sodipodi:nodetypes="cccccccccccccccccccccccc"
                 inkscape:connector-curvature="0"
                 style="color:#000000;clip-rule:nonzero;display:inline;overflow:visible;visibility:visible;opacity:1;isolation:auto;mix-blend-mode:normal;color-interpolation:sRGB;color-interpolation-filters:linearRGB;solid-color:#000000;solid-opacity:1;vector-effect:none;fill:none;fill-opacity:1;fill-rule:nonzero;stroke:#ffffff;stroke-width:0.52916664;stroke-linecap:square;stroke-linejoin:miter;stroke-miterlimit:4;stroke-dasharray:none;stroke-dashoffset:0;stroke-opacity:1;marker:none;marker-start:none;marker-mid:none;marker-end:none;paint-order:normal;color-rendering:auto;image-rendering:auto;shape-rendering:auto;text-rendering:auto;enable-background:accumulate"
                 d="m 151.69767,283.07811 v -2.23364 h 0.67054 c 0.10224,-0.23838 0.15447,-0.48054 0.15609,-0.72329 -5.6e-4,-2.14916 -3.88603,-3.89127 -8.67886,-3.8913 -4.79282,3e-5 -8.6783,1.74214 -8.67885,3.8913 10e-4,0.24277 0.0543,0.48492 0.15683,0.72329 h 0.66908 v 0.62918 m 4.72891,-0.5603 h 1.32347 v 3.92647 h -1.32347 z m 2.51799,0 h 1.32274 v 3.92647 h -1.32274 z m 2.47548,0 h 1.32275 v 3.92647 h -1.32275 z"
                 id="path5506" />
              <path
                 sodipodi:nodetypes="cccccccccccccccccccccccccccccccccccccccccccccccccccccccccc"
                 inkscape:connector-curvature="0"
                 id="path5508"
                 d="m 151.68923,283.33643 h 2.25125 v -16.50914 h 0.75042 v -1.50084 h 0.3752 l 0.3752,0.37522 c 0.37522,-0.75041 0.37522,-1.87603 0,-2.62647 2e-5,-1.87603 1.50085,-3.00165 3.00167,-3.00167 1.50084,2e-5 3.00167,1.12564 3.00167,3.00167 -0.3752,0.75044 -0.46118,1.82766 0,2.62647 l 0.3752,-0.37522 h 0.37521 v 1.50084 h 0.75042 v 16.13394 h 3.00167 v -1.50083 h 4.12727 v -1.87604 h 1.87605 v -0.75042 l 7.87937,-2.62646 7.50416,2.62646 v 0.75042 h 2.62645 v 1.87604 h 3.00167 v -4.12729 h 4.8777 v 4.12729 h 1.87604 l 0.16455,-10.65598 h 0.62354 l 0.17626,5.77163 0.66312,-0.52069 0.0844,-5.25596 0.59825,0.009 0.17906,5.79045 11.3936,-0.016 2.25125,4.5025 h 5.25291 v 0.75042 l 21.01164,-12.00666 h 4.30459 c 0.97177,-0.003 1.65838,0.79604 1.69875,1.68553 v 8.44509 h 2.62645 l 2.25124,-2.25125 2.25125,2.25125 h 5.62812 l 2.62645,-2.25125 1.87605,2.25125 h 0.75042 l 2.25124,-2.25125 2.25125,2.25125 h 1.12563 v 7.12894"
                 style="fill:none;stroke:#ffffff;stroke-width:0.52916664;stroke-linecap:butt;stroke-linejoin:miter;stroke-miterlimit:4;stroke-dasharray:none;stroke-opacity:1" />
            </g>
            <path
               style="fill:none;stroke:#ffffff;stroke-width:0.44315168;stroke-linecap:butt;stroke-linejoin:miter;stroke-miterlimit:4;stroke-dasharray:none;stroke-opacity:1"
               d="m 608.12868,-1654.5777 2.66663,-1.7161 h 1.47912"
               id="path5512"
               inkscape:connector-curvature="0"
               sodipodi:nodetypes="ccc" />
          </g>
        </g>
      </g>
    </g>
  </g>
</svg>
