<?xml version="1.0" encoding="UTF-8" standalone="no"?>
<!-- Created with Inkscape (http://www.inkscape.org/) -->

<svg
   xmlns:dc="http://purl.org/dc/elements/1.1/"
   xmlns:cc="http://creativecommons.org/ns#"
   xmlns:rdf="http://www.w3.org/1999/02/22-rdf-syntax-ns#"
   xmlns:svg="http://www.w3.org/2000/svg"
   xmlns="http://www.w3.org/2000/svg"
   xmlns:sodipodi="http://sodipodi.sourceforge.net/DTD/sodipodi-0.dtd"
   xmlns:inkscape="http://www.inkscape.org/namespaces/inkscape"
   width="600"
   height="600"
   id="svg6836"
   version="1.1"
   inkscape:version="0.48.4 r9939"
   sodipodi:docname="New document 3">
  <defs
     id="defs6838" />
  <sodipodi:namedview
     id="base"
     pagecolor="#ffffff"
     bordercolor="#666666"
     borderopacity="1.0"
     inkscape:pageopacity="0.0"
     inkscape:pageshadow="2"
     inkscape:zoom="0.84852814"
     inkscape:cx="488.93435"
     inkscape:cy="339.69367"
     inkscape:current-layer="layer1"
     inkscape:document-units="px"
     showgrid="false"
     inkscape:window-width="1920"
     inkscape:window-height="1021"
     inkscape:window-x="0"
     inkscape:window-y="27"
     inkscape:window-maximized="1" />
  <metadata
     id="metadata6841">
    <rdf:RDF>
      <cc:Work
         rdf:about="">
        <dc:format>image/svg+xml</dc:format>
        <dc:type
           rdf:resource="http://purl.org/dc/dcmitype/StillImage" />
        <dc:title></dc:title>
      </cc:Work>
    </rdf:RDF>
  </metadata>
  <g
     id="layer1"
     inkscape:label="Layer 1"
     inkscape:groupmode="layer">
    <g
       id="g20"
       transform="matrix(1.25,0,0,-1.25,487.88651,300.42234)">
      <path
         d="m 0,0 c -0.372,-2.274 -0.724,-4.337 -0.66,-6.673 -0.911,-5.045 -1.549,-10.166 -2.76,-15.057 -1.987,-8.807 -4.613,-16.473 -8.25,-24.57 -2.612,-5.457 -4.745,-11.429 -8.724,-16.324 -1.353,-2.618 -3.049,-5.044 -4.678,-7.671 -1.636,-1.209 -1.986,-3.201 -3.478,-4.474 -8.664,-11.501 -18.19,-20.509 -29.543,-29.258 -2.346,-1.768 -4.826,-3.398 -7.235,-5.035 -7.182,-4.896 -14.704,-8.958 -22.438,-12.276 -0.297,-0.792 -1.425,-0.299 -1.919,-0.792 -7.249,-2.985 -14.714,-5.391 -22.429,-6.883 -45.955,-10.443 -96.358,2.768 -130.797,34.503 -13.702,12.567 -24.859,27.972 -32.727,44.447 -0.494,1.843 -1.64,3.483 -2.199,5.261 -2.708,5.97 -4.695,11.997 -6.187,18.528 -0.285,0.28 -0.211,0.777 -0.35,1.209 -1.643,6.031 -3.059,12.423 -3.483,18.877 -2.13,14.634 -1.132,29.048 1.42,43.536 3.203,15.617 8.444,31.096 16.686,44.865 5.253,9.159 12.061,18.034 19.171,25.773 22.001,22.796 49.059,37.49 79.949,43.244 9.163,1.843 19.526,2.555 28.679,2.408 3.418,0.293 6.34,-0.068 9.732,-0.281 8.036,-0.422 16.115,-2.057 24.002,-3.83 2.125,-0.85 4.541,-1.134 6.75,-1.921 18.456,-5.46 34.653,-14.413 49.333,-26.622 4.121,-3.05 7.317,-6.963 11.289,-10.509 l 0.146,-0.357 c 4.608,-4.329 8.883,-9.871 12.783,-14.979 3.762,-4.4 6.396,-9.302 9.514,-14.129 1.773,-3.408 3.692,-6.606 5.102,-10.223 2.49,-4.761 4.414,-10.222 6.265,-15.338 2.049,-5.755 3.404,-12.076 4.752,-18.101 0.857,-5.325 1.776,-10.3 2.131,-15.917 C 0.475,14.91 0.13,6.811 0,0 M 8.29,22.433 C 7.374,29.47 6.726,37.128 4.889,44.016 2.615,52.891 0.552,61.342 -3.42,69.435 c -0.492,2.199 -1.641,4.125 -2.639,6.106 -1.192,2.842 -2.828,5.396 -4.105,8.162 -1.206,1.427 -2.06,3.136 -2.842,4.762 -3.409,5.254 -6.661,9.945 -10.502,15.052 -1.497,2.272 -3.55,4.057 -5.042,6.177 -3.972,4.47 -8.175,8.452 -12.366,12.714 -1.336,0.854 -2.406,2.413 -3.902,3.115 -2.759,2.769 -6.175,5.332 -9.307,7.812 -13.201,10.009 -28.033,16.968 -43.874,22.011 -6.103,1.493 -12.068,3.908 -18.375,4.405 -12.152,2.489 -24.076,2.986 -36.715,2.201 -12.287,-0.708 -24.703,-3.193 -36.286,-6.459 -0.646,-0.859 -1.992,0.208 -1.992,-1.203 l -0.347,0.211 c -3.277,-0.931 -6.39,-2.135 -9.591,-3.201 l -0.914,-0.63 c -5.975,-1.993 -11.31,-4.979 -16.908,-7.891 -1.641,-0.924 -3.33,-2.051 -5.117,-2.832 -4.752,-3.199 -9.717,-6.612 -14.469,-9.873 -3.992,-3.201 -7.669,-6.673 -11.507,-9.94 -2.267,-2.41 -4.481,-4.752 -6.962,-6.82 -3.046,-4.116 -6.613,-7.45 -9.223,-11.644 -1.365,-0.854 -1.427,-2.627 -2.852,-3.551 -0.273,-0.357 -0.06,-1.066 -0.494,-1.203 -0.638,-0.712 -1.284,-1.423 -1.77,-2.347 -0.926,-1.134 -1.55,-2.558 -2.426,-3.756 -4.396,-6.676 -8.007,-13.776 -11.06,-21.093 -1.572,-2.765 -2.212,-6.036 -3.565,-8.943 -1.343,-3.408 -2.049,-7.247 -3.329,-10.651 -0.147,-2.706 -1.425,-4.897 -1.641,-7.666 -0.772,-1.288 -0.564,-2.849 -0.84,-4.337 -1.851,-7.661 -1.993,-15.336 -2.634,-23.356 -0.201,-1.281 0.423,-2.204 -0.071,-3.482 -0.351,-0.85 -0.065,-1.628 0.15,-2.412 -0.215,-2.13 0,-3.904 0.276,-5.961 -0.276,-2.99 0.497,-6.68 0.562,-9.935 0.931,-6.403 1.929,-12.935 3.416,-19.324 1.348,-0.988 0.134,-2.981 1.209,-3.973 -0.068,-1.778 1.132,-2.783 1.213,-4.47 1.759,-3.913 2.543,-8.524 4.611,-12.424 l -0.221,-0.156 c 6.885,-16.393 16.341,-31.942 28.896,-45.014 4.538,-4.748 9.595,-9.366 14.474,-13.485 1.291,-1.204 2.566,-1.847 3.788,-3.132 4.094,-2.982 8.652,-6.164 13.063,-8.939 7.161,-4.621 15.117,-8.383 22.71,-11.565 5.19,-1.856 10.228,-3.767 15.337,-5.473 4.126,-0.844 8.101,-2.06 12.071,-2.906 6.747,-1.425 14.064,-2.345 20.879,-2.778 7.525,-0.778 15.256,-0.423 22.577,0 4.469,0.559 9.434,0.712 13.697,1.842 12.493,1.722 23.858,5.617 35.075,10.159 15.34,6.958 29.399,16.334 42.324,27.906 10.439,9.239 20.092,21.011 27.624,33.019 1.847,3.188 3.831,6.247 5.241,9.723 3.773,6.538 6.177,13.784 8.878,20.729 0.29,0.438 0.084,1.139 0.504,1.493 3.982,12.783 6.596,25.911 7.244,39.635 L 8.36,4.042 c 0.281,5.75 0.367,12.419 -0.07,18.391"
         style="fill:#005daa;fill-opacity:1;fill-rule:nonzero;stroke:none"
         id="path22"
         inkscape:connector-curvature="0" />
    </g>
    <g
       id="g24"
       transform="matrix(1.25,0,0,-1.25,461.77631,278.95022)">
      <path
         d="m 0,0 c 0.494,-1.916 1.065,-3.831 1.703,-5.539 l 0.633,-0.565 c 2.917,-0.5 5.968,0.211 8.806,-0.073 0.506,-1.344 -1.281,-1.273 -1.924,-2.128 -1.405,-1.984 -6.157,-2.13 -4.744,-5.327 0.854,-2.058 1.703,-4.263 2.204,-6.532 l -0.777,0.069 c -1.929,1.492 -3.485,2.917 -5.551,4.262 -2.125,0.645 -3.401,-1.846 -5.109,-2.554 l -2.845,-2.134 c -1.202,0.505 0.22,1.57 0.163,2.494 0.983,1.695 1.055,3.83 2.185,5.452 0.281,1.502 -1.49,1.28 -2.128,2.14 -1.628,1.276 -3.699,2.052 -5.188,3.544 -0.127,0.366 0.151,0.581 0.432,0.714 2.837,-0.212 5.179,-0.427 7.956,-0.212 1.914,0.429 0.564,2.908 1.845,3.978 0.64,1.492 0.353,3.05 1.125,4.404 C -0.139,1.993 -0.427,0.639 0,0"
         style="fill:#005daa;fill-opacity:1;fill-rule:nonzero;stroke:none"
         id="path26"
         inkscape:connector-curvature="0" />
    </g>
    <g
       id="g28"
       transform="matrix(1.25,0,0,-1.25,153.44439,281.07359)">
      <path
         d="m 0,0 c 0.148,-1.709 1.079,-3.197 1.492,-4.69 0.787,-0.717 1.78,-0.079 2.629,-0.354 1.698,-0.285 4.051,0.275 5.959,0.218 0.22,-0.218 0.364,-0.581 0.153,-0.862 C 8.172,-6.892 6.184,-8.516 4.198,-9.729 L 3.55,-10.725 c 0.293,-2.343 1.636,-4.267 2.423,-6.395 0,-0.706 0.71,-1.345 0.146,-1.984 -2.487,1.415 -4.123,3.767 -6.688,4.828 -2.053,-0.357 -3.399,-1.838 -5.035,-2.976 -0.57,-0.574 -0.854,-1.144 -1.641,-1.43 l -0.494,0.143 c 0.578,2.269 1.428,5.126 2.428,7.244 l -0.432,0.853 c -2.274,1.489 -4.84,3.19 -7.028,4.754 l 0.638,0.57 c 2.612,-0.137 5.613,-0.426 8.165,-0.074 l 0.844,0.931 c 0.217,1.417 0.576,2.629 0.854,4.114 0.567,0.849 -0.071,2.204 0.854,2.986 C -0.35,2.407 -0.35,0.982 0,0"
         style="fill:#005daa;fill-opacity:1;fill-rule:nonzero;stroke:none"
         id="path30"
         inkscape:connector-curvature="0" />
    </g>
    <g
       id="g32"
       transform="matrix(1.25,0,0,-1.25,295.45114,297.31747)">
      <path
         d="m 0,0 c -0.345,-0.494 -0.768,-1.212 -0.494,-1.924 1.71,-0.279 0.998,-2.834 2.907,-3.189 0.711,0.14 1.646,-1.138 2.001,0.071 0.201,1.923 2.758,1.709 3.752,3.045 1.492,0.857 3.127,1.355 4.689,2.062 2.054,-0.281 4.478,0 5.603,-1.911 -0.697,-1.139 -1.839,0.501 -2.77,-0.423 -0.779,-0.215 -0.638,1.057 -1.348,0.631 l -0.7,-1.269 C 11.997,-1.709 11.083,-3.834 9.732,-3.761 9.451,-5.322 7.031,-4.55 7.679,-6.251 L 9.305,-7.11 C 9.235,-8.098 8.113,-7.462 7.604,-7.881 7.379,-8.519 6.107,-8.592 6.393,-9.59 c 1.211,-1.415 2.703,0.142 4.119,0.083 2.187,0.132 4.397,-0.152 6.529,-0.934 0.568,-0.642 0.849,-1.555 0.568,-2.484 -0.496,-0.068 -0.568,-0.845 -1.355,-0.569 -0.353,0.501 -0.983,0.501 -1.478,0.569 -0.436,0.561 -0.225,1.64 -1.136,1.7 -1.147,-1.7 -2.486,0.57 -3.908,-0.493 -0.914,0.061 -2.485,0.855 -3.274,-0.141 0.643,-1.419 1.777,-3.192 3.334,-3.766 1.218,-0.984 0.503,-2.559 0.573,-3.901 -0.707,-1.63 1.063,-2.627 0.645,-4.262 0.418,-0.496 -0.216,-0.928 -0.076,-1.488 -0.072,-0.57 0.494,-1.924 -0.569,-1.85 -0.352,0.293 -0.633,-0.134 -0.854,-0.423 -0.276,0.147 -0.276,1.277 -0.993,1.207 -0.633,0.988 1.847,2.839 -0.487,3.055 0.35,1.134 1.42,2.131 0.989,3.693 -0.353,0.271 -0.854,0.423 -1.07,0.845 0.642,1.276 -0.216,2.627 -0.271,3.845 -0.859,0.565 -2.137,0.417 -2.706,1.41 -0.492,-0.364 -0.78,-0.919 -0.859,-1.557 0.079,-1.071 0.146,-2.348 0.501,-3.412 0.564,-2.693 -1.703,-4.544 -1.631,-7.029 -0.491,-0.427 -1.074,-0.354 -1.636,-0.074 0.077,0.358 0.713,0.85 0.077,1.282 -0.139,0 -0.494,-0.137 -0.494,0.138 0,1.352 2.624,2.771 0.705,3.844 0.343,0.56 0.857,1.131 0.643,1.769 -0.218,0.5 -0.931,0.143 -1.132,0.643 -0.216,0.776 0.832,1.768 -0.288,2.19 -1.42,-0.638 -0.576,-3.325 -2.428,-2.906 -0.412,-0.854 -0.705,-1.774 -1.827,-1.696 -0.663,-1.073 0.916,-2.567 -0.363,-3.56 -0.141,-1.492 1.567,-3.687 -0.499,-4.477 0.358,-1.48 -1.633,-0.977 -1.705,-2.266 -0.561,0.846 -0.561,2.063 -0.854,3.056 -0.07,1.35 -0.07,2.695 1.281,3.403 0.849,0.712 -0.427,1.071 -0.71,1.419 0.283,0.923 2.125,1.708 0.71,2.555 0.271,1.147 1.712,1.207 1.991,2.415 -0.279,0.432 -0.713,0.432 -1.068,0.502 0.643,0.495 1.217,1.345 1.346,2.13 -0.278,0.363 -0.703,0.923 -0.427,1.267 0.849,0.865 2.989,0.933 2.557,2.775 -1.343,1.075 -2.557,-0.635 -3.838,-1.057 -1.199,0.639 -2.118,-1.286 -2.758,0 -1.423,-0.504 -2.198,-2.273 -3.903,-2.062 -0.854,-0.849 -1.423,-1.988 -2.354,-2.558 -0.558,0.422 -0.489,1.998 -1.633,1.561 0.362,0.86 1.425,1.341 2.281,1.846 2.62,2.56 6.04,4.337 10.075,3.694 0.717,-0.207 1.214,-0.849 2.053,-0.566 0.226,0.217 0.72,0.498 0.446,0.921 -0.148,1.059 -1.995,0.215 -1.65,1.423 0.437,0.211 0.796,0.771 0.576,1.134 -1.065,0.355 -2.341,-1.134 -3.334,-0.074 -0.854,-1.35 -2.275,-0.56 -3.34,-1.424 -1.204,0.783 -1.7,-0.702 -2.557,-1.13 -0.705,0.286 -1.417,1.204 -2.197,0.502 -0.216,-0.143 -0.355,-0.854 -0.511,-0.357 -0.065,1.768 1.934,2.483 3.212,3.342 2.053,-0.143 3.387,1.194 5.465,0.846 0.705,0.211 0.129,0.785 -0.072,1.065 -0.922,0 -1.348,1.209 -2.418,0.858 -0.423,0.419 0.355,1.348 -0.499,1.549 -0.849,-0.633 -1.706,-1.198 -2.697,-1.271 -0.846,1.629 -7.177,-2.132 -3.127,1.992 0.22,0.487 0.575,0.987 1.216,0.914 2.334,0.432 4.041,-1.346 6.321,-1.494 0.702,-0.84 1.559,-1.133 2.41,-0.417 0.782,-0.224 1.125,-1.631 1.917,-0.716 0.352,1.07 -0.07,2.2 0.715,3.196 C -0.852,0.634 0.072,0.782 0,0"
         style="fill:#ffffff;fill-opacity:1;fill-rule:nonzero;stroke:none"
         id="path34"
         inkscape:connector-curvature="0" />
    </g>
    <g
       id="g36"
       transform="matrix(1.25,0,0,-1.25,392.53851,301.04922)">
      <path
         d="M 0,0 C 1.492,1.062 3.265,0.078 4.629,-0.708 2.996,-1.208 1.351,-0.561 0,0 m -4.032,-2.558 -1.929,-0.565 c 0.082,0.638 1.214,0.787 1.502,1.558 l 0.146,1.276 c 0.909,-1.557 3.394,0.79 3.049,-1.698 l 0.273,-0.282 c -0.916,-0.364 -2.044,0.068 -3.041,-0.289 m -3.541,3.184 c -0.115,-0.061 -0.204,-0.116 -0.3,-0.203 0.096,0.097 0.19,0.153 0.3,0.203 0.348,0.156 0.816,0.205 1.185,0.362 0.427,0 0.715,-0.272 1.07,-0.423 -0.667,-0.055 -1.598,0.35 -2.255,0.061 M 2.842,1.276 C 1.576,1.705 -0.127,1.214 -1.264,0.423 -2.684,-0.432 -4.186,0.643 -5.03,1.773 -6.388,2.491 -7.659,1.557 -8.943,1.14 c -0.424,-0.639 -2.132,-0.639 -1.415,-1.848 1.926,-1.206 3.275,1.623 5.112,-0.141 -0.072,-0.997 -1.487,-1.208 -1.78,-2.132 -0.214,-0.425 -0.13,-0.998 0.293,-1.207 0.914,-0.497 1.636,0.353 2.42,0.568 1.835,0.497 4.186,-0.289 5.664,0.639 0.225,0.348 0.225,0.645 -0.065,0.994 0.995,0.278 2.194,-0.214 3.343,-0.07 0.768,0.07 1.346,0.786 1.406,1.496 C 5.337,0.501 3.992,0.782 2.842,1.276"
         style="fill:#005daa;fill-opacity:1;fill-rule:nonzero;stroke:none"
         id="path38"
         inkscape:connector-curvature="0" />
    </g>
    <g
       id="g40"
       transform="matrix(1.25,0,0,-1.25,383.07261,300.26672)">
      <path
         d="M 0,0 C -0.11,-0.05 -0.204,-0.106 -0.3,-0.203 -0.204,-0.116 -0.115,-0.061 0,0"
         style="fill:#ffffff;fill-opacity:1;fill-rule:nonzero;stroke:none"
         id="path42"
         inkscape:connector-curvature="0" />
    </g>
    <g
       id="g44"
       transform="matrix(1.25,0,0,-1.25,307.52331,307.96634)">
      <path
         d="M 0,0 0.074,0.068 0.221,0 0,0 z"
         style="fill:#ffffff;fill-opacity:1;fill-rule:nonzero;stroke:none"
         id="path46"
         inkscape:connector-curvature="0" />
    </g>
    <g
       id="g48"
       transform="matrix(1.25,0,0,-1.25,306.62971,308.15672)">
      <path
         d="m 0,0 c 0.077,-0.202 -0.211,-0.276 -0.425,-0.202 l -0.283,0 C -0.638,0 -0.276,0.079 0,0"
         style="fill:#ffffff;fill-opacity:1;fill-rule:nonzero;stroke:none"
         id="path50"
         inkscape:connector-curvature="0" />
    </g>
    <g
       id="g52"
       transform="matrix(1.25,0,0,-1.25,332.99201,312.49272)">
      <path
         d="m 0,0 c 0.153,-0.367 0.153,-0.853 0.638,-0.927 2.49,0.074 3.267,3.693 6.11,2.485 C 8.727,0.709 10.862,0 13.203,0.422 13.481,0 14.7,0 14.277,-0.642 12.848,-1.07 11.716,-2.563 10.099,-2.199 c -0.514,-0.217 -0.163,-0.712 0,-1.01 1.118,-1.976 3.545,-1.26 4.31,-3.257 -0.765,-0.487 -1.561,0.495 -2.482,0.143 -0.71,1.924 -3.052,0.216 -3.479,2.414 -0.637,0.29 -1.281,0.501 -1.906,0 -0.78,-0.785 -2.071,-1.56 -2.352,-2.7 1.14,-1.631 2.632,0.565 4.124,0.286 2.696,0 4.39,-1.709 6.748,-2.633 1.269,-0.914 0.842,-2.835 2.271,-3.899 l 0,-0.281 c -1.563,-0.85 -0.647,1.558 -2.142,1.204 -0.06,0.715 -0.698,0.997 -1.343,0.928 -0.151,0 -0.271,-0.082 -0.429,-0.082 -0.351,0.572 0.429,1.28 -0.351,1.708 -0.928,0.284 -1.424,-0.635 -2.134,-0.635 -0.629,0.143 -0.418,0.851 -0.835,1.278 -1.224,-0.79 -2.428,0.703 -3.277,-0.643 -0.787,-1.209 -3.977,0.643 -2.415,-1.839 1.772,-1.496 5.121,0.213 5.965,-2.769 -0.273,-2.213 3.411,-3.844 1.272,-5.971 -0.348,1.705 -3.047,1.278 -2.269,3.413 -0.927,0.488 -0.564,1.424 -0.648,2.123 -0.991,0.435 -1.624,1.639 -2.833,1.069 -0.703,-0.707 0.285,-1.634 0.213,-2.342 -0.995,-1.781 0.13,-3.623 0.996,-5.113 -0.866,-1.134 0.99,-2.214 -0.281,-3.192 l 0.345,-2.136 c -0.419,-0.496 -1.273,-0.068 -1.688,-0.772 -0.288,1.053 -1.996,1.131 -1.924,2.413 -1.005,0.922 0.566,2.553 -1.065,3.187 -0.077,1.13 1.631,1.488 1.065,2.842 -1.634,0.213 -0.288,2.063 -1.634,2.343 -0.285,1.99 0.78,3.481 -0.439,5.118 -0.844,0.275 -1.329,-0.787 -2.182,-0.718 0.067,-1.06 -0.931,-1.201 -1.2,-2.057 0.055,-0.569 -0.3,-1.134 -0.801,-1.281 -0.643,0.368 -1.06,0 -1.636,-0.275 -0.346,0.127 -0.566,0.987 -1.202,0.772 -0.29,-0.772 0.219,-1.701 -0.065,-2.555 0.351,-1.907 -2.341,-2.269 -1.28,-4.258 -0.499,-0.565 -1.778,-0.279 -1.91,-1.35 l -0.288,0.15 c -0.141,1.058 0.777,2.905 -0.499,3.828 -0.076,1.572 0.787,2.838 1.07,4.258 1.627,2.067 3.961,2.768 5.46,4.684 0.208,0.281 0.076,0.712 -0.219,0.927 -0.849,-0.215 -1.48,0.778 -2.123,0.217 0,-1.428 -1.914,-0.648 -1.703,-2.067 -0.923,-0.918 -2.058,-1.493 -2.917,-2.407 -0.482,0.069 -0.918,0.773 -1.204,0 0.072,-1.066 -0.995,-1.708 -1.348,-2.558 -0.777,-0.362 -1.566,0.781 -2.197,-0.064 -0.144,0.27 -0.293,1.129 0.144,1.556 1.348,0.85 1.132,2.985 3.118,2.702 2.773,2.484 6.4,4.891 10.167,4.046 0.906,0.211 0.416,1.131 0.416,1.837 -0.565,0.57 -0.928,1.346 -1.784,1.419 -0.569,-0.073 -0.916,-0.849 -1.418,-0.638 -0.218,1.498 -2.058,0 -1.911,1.7 -0.147,0.225 -0.428,0.295 -0.634,0.151 -0.364,-0.353 -0.787,-0.997 -0.643,-1.484 0.132,-0.225 0.353,-0.073 0.487,-0.151 0.216,-0.216 -0.064,-0.713 0.362,-0.849 0.576,-0.148 1.272,-0.281 1.555,-0.924 -0.979,-0.79 -2.61,-0.79 -3.68,-1.708 -0.359,0.142 0,0.499 0,0.781 0.638,0.367 1.763,0.927 1.276,1.772 l 0,0.363 c -0.362,0.07 -0.575,-0.786 -1.06,-0.859 -0.427,-0.987 -1.919,-0.349 -2.068,-1.558 -0.35,-0.499 -0.854,0 -1.199,0 -0.578,-0.499 0.134,-1.492 -0.859,-1.56 -0.561,0.206 -0.355,1.276 -0.146,1.776 1.139,2.127 2.415,4.622 4.97,5.256 2.276,0 5.261,0.917 6.673,-1.278 0.727,0.199 0.727,1.346 0.785,2.054 -1.353,0.569 -2.84,2.131 -4.339,1.562 -0.77,0.569 -1.687,0 -2.334,-0.432 -0.144,0.288 -0.629,0.432 -0.849,0.707 1.415,1.359 3.689,2.209 5.533,1.216 C -1.276,1.417 -0.269,1.057 0,0"
         style="fill:#ffffff;fill-opacity:1;fill-rule:nonzero;stroke:none"
         id="path54"
         inkscape:connector-curvature="0" />
    </g>
    <g
       id="g56"
       transform="matrix(1.25,0,0,-1.25,290.83389,313.02485)">
      <path
         d="M 0,0 -0.065,0.059 0.211,0.35 0.297,0.276 0,0 z"
         style="fill:#ffffff;fill-opacity:1;fill-rule:nonzero;stroke:none"
         id="path58"
         inkscape:connector-curvature="0" />
    </g>
    <g
       id="g60"
       transform="matrix(1.25,0,0,-1.25,342.75521,318.80122)">
      <path
         d="M 0,0 C -0.557,-0.286 -1.269,-0.703 -1.917,-0.643 -2.118,-0.212 -1.343,0 -1.063,0.29 -0.708,0.211 -0.204,0.505 0,0"
         style="fill:#ffffff;fill-opacity:1;fill-rule:nonzero;stroke:none"
         id="path62"
         inkscape:connector-curvature="0" />
    </g>
    <g
       id="g64"
       transform="matrix(1.25,0,0,-1.25,330.07761,319.6051)">
      <path
         d="m 0,0 c -0.151,-0.281 -0.437,-0.137 -0.643,-0.203 l 0.132,0.56 C -0.297,0.281 0,0.221 0,0"
         style="fill:#ffffff;fill-opacity:1;fill-rule:nonzero;stroke:none"
         id="path66"
         inkscape:connector-curvature="0" />
    </g>
    <g
       id="g68"
       transform="matrix(1.25,0,0,-1.25,320.92051,323.41184)">
      <path
         d="m 0,0 c -0.629,-0.427 -1.061,-1.134 -1.842,-1.277 0.136,0.634 1.065,0.997 1.631,1.424 L 0,0 z"
         style="fill:#ffffff;fill-opacity:1;fill-rule:nonzero;stroke:none"
         id="path70"
         inkscape:connector-curvature="0" />
    </g>
    <g
       id="g72"
       transform="matrix(1.25,0,0,-1.25,326.97701,324.91509)">
      <path
         d="m 0,0 -0.091,-0.075 -0.197,0.143 c 0.14,0 0.197,0 0.288,-0.068"
         style="fill:#ffffff;fill-opacity:1;fill-rule:nonzero;stroke:none"
         id="path74"
         inkscape:connector-curvature="0" />
    </g>
    <g
       id="g76"
       transform="matrix(1.25,0,0,-1.25,416.33131,323.68772)">
      <path
         d="m 0,0 c -1.343,-2.691 -2.125,-5.888 -3.61,-8.519 -0.861,-2.541 -2.564,-4.898 -3.702,-7.378 -1.209,-1.001 -0.712,-3.407 -2.77,-3.27 -16.544,-0.211 -33.931,-0.211 -50.266,-0.344 -0.144,0.133 -0.216,0.344 -0.087,0.427 0.437,0.339 1.224,0 1.37,0.634 0.643,0.918 -0.573,2.273 0.777,2.912 0,0.848 -0.841,1.768 -0.069,2.622 -0.427,1.419 -1.06,2.555 -1.708,3.904 0.367,0.997 -0.065,2.058 0.067,3.055 0.494,-0.147 0.074,-1.143 0.869,-1.209 0.268,-0.362 -0.082,-0.637 0,-1.138 1.184,-0.142 1.055,-1.346 1.333,-2.127 0.849,-0.569 1.139,-1.203 2.135,-1.277 0.422,-0.496 0.286,-1.635 1.065,-1.492 0.561,1.979 1.708,4.477 0.065,6.316 -1.341,1.35 -1.13,3.618 -2.987,4.623 -0.77,0 -1.693,0.424 -2.18,0.489 0.633,0.141 0.633,0.995 1.341,0.715 0.561,-0.922 1.621,-0.854 2.269,-1.28 0.633,-0.143 1.06,0.289 1.492,0.5 0.496,-0.354 0,-1.488 0.71,-1.63 1.344,0.923 1.844,-0.929 2.838,-1.283 0.074,-0.642 0.215,-1.28 0.496,-1.782 0.715,-0.206 0.715,1.213 1.358,0.226 0.482,-0.073 1.068,0.276 0.984,0.772 0.426,2.209 -1.919,3.054 -2.054,5.039 -0.144,1.07 -2.711,1.565 -0.784,2.626 -0.285,2.068 -2.555,2.627 -3.98,3.417 0.638,0.845 1.934,1.278 3.128,1.278 0.852,0.63 0.291,1.704 0.144,2.485 -1.132,1.919 -3.413,0.78 -5.256,1.277 -1.772,0.5 -3.624,1.916 -5.538,0.781 -1.13,-0.781 -2.063,-2.489 -3.697,-1.774 -0.635,1.911 -2.545,1.911 -4.042,2.554 -2.77,0.074 -4.687,-2.136 -6.817,-3.619 -0.283,-0.299 0.072,-0.644 0.348,-0.787 0.712,-0.073 1.72,1.063 1.988,-0.073 -0.777,-0.432 -1.837,-0.844 -2.619,-1.625 -1.494,-2.348 -3.414,-4.616 -2.984,-7.528 l 1.137,-0.289 c -1.487,-1.063 -2.692,-2.624 -3.334,-4.332 0,-0.698 -0.494,-1.773 0.417,-2.2 0.789,0.216 1.852,0.996 2.634,0.084 0.988,0.343 1.981,1.193 2.197,2.332 0.501,0.068 0.993,0.712 1.427,0.152 -0.863,-1.002 -0.863,-2.352 -1.063,-3.56 -1.985,-1.925 -3.984,-3.904 -5.406,-6.459 -1.344,-0.992 -1.641,-2.417 -2.399,-3.756 -2.209,-0.58 -4.769,-0.299 -7.249,-0.232 -0.499,0.576 0.211,1.436 -0.278,2.141 0.127,1.981 0.201,4.903 -0.077,7.028 0.204,3.266 -1.214,6.532 0.425,9.592 0.914,1.837 0.417,4.469 0.211,6.729 l 1.847,-0.351 c 1.847,-1.555 -1.567,-3.967 1.293,-4.758 0.192,-1.488 -2.437,-3.404 -0.163,-4.395 -0.14,-0.993 -1.13,-2.347 0.431,-2.775 1.277,-0.85 -0.431,-2.48 0.492,-3.468 2.137,0.208 0.638,2.834 2.631,3.262 0.075,0.918 0.149,1.851 0.917,2.416 -0.35,2.411 -2.197,4.96 -0.993,7.661 -0.062,1.419 -0.418,3.054 -1.977,3.555 l -0.432,0 c -0.201,0.635 -1.34,0.776 -1.069,1.636 1.204,-0.359 2.912,0 4.341,-0.571 1.924,1.636 1.924,-2.268 3.824,-1.493 0.216,-0.274 0.648,-0.918 0.863,-0.646 0.71,0 0.843,1.006 1.421,1.506 0.271,1.774 0.059,3.762 -1.421,4.613 -1.928,0.21 -3.701,0.986 -5.55,0.913 -0.418,1.071 -1.415,1.709 -2.193,2.499 0.276,1.621 2.418,0.344 2.836,1.984 1.074,0.487 1.775,-1.493 2.48,-0.073 0,0.288 -0.06,0.56 0.293,0.716 0.918,-0.934 2.134,0.211 2.977,-1.006 0.578,0.791 1.925,-0.21 2.415,0.85 -0.566,1.993 -2.209,2.78 -3.617,4.12 -3.623,0.996 -6.324,-0.988 -9.308,-2.275 -0.988,-1.271 -2.974,-0.913 -3.54,-2.623 -0.648,-0.141 -0.859,-0.141 -1.492,0.075 -1.929,0.644 0.35,2.765 -1.569,3.128 -0.571,0.987 1.14,2.407 -0.571,2.844 -0.278,-0.083 -0.633,-0.083 -0.844,0.276 l -0.147,1.128 c -1.628,-0.776 -0.568,-3.201 -2.199,-4.464 -0.849,1.625 -1.924,-0.644 -2.912,0.354 -0.787,1.704 -2.843,0.07 -3.757,1.626 -0.285,-0.133 -0.427,0.22 -0.647,0 l 0.062,0 0,-0.281 -0.062,0 c -0.073,0.726 -0.998,0.428 -1.48,0.642 -1.071,-0.283 -2.567,-0.43 -2.776,-1.638 -0.288,-1.484 -1.979,-2.2 -1.283,-3.762 1.648,-0.634 3.269,1.356 4.756,0.147 1.351,0.284 2.208,0.5 3.416,-0.28 -1.072,-0.715 -2.413,-0.501 -3.468,-0.997 -2.788,-0.713 -3.212,-3.693 -3.858,-5.971 0.149,-0.276 0.581,-0.432 0.936,-0.206 0.71,0.492 0.71,1.565 1.703,1.423 l 0.574,-0.855 c -1.778,-2.002 -4.484,-2.907 -5.328,-5.548 0,-0.349 0.201,-0.633 0.573,-0.776 0.636,-0.285 0.979,1.065 1.41,0.29 0.43,-0.428 0.934,-1.774 1.706,-0.933 l 1.418,1.851 c 1.499,-0.143 2.204,1.217 3.188,2.068 1.501,-0.993 2.274,1.345 3.84,0.141 0.564,-0.432 0.981,-1.355 0.065,-1.579 -0.703,-0.63 -1.055,-1.627 -1.842,-2.339 0.151,-0.702 0.926,-0.559 1.281,-1.061 -2.058,-0.918 0.074,-3.481 -2.058,-4.258 0.074,-0.569 0.215,-0.924 0.637,-1.207 -0.863,-2.416 -0.863,-4.544 0.207,-6.813 -0.207,-0.643 0,-0.996 0.225,-1.566 0.211,-0.427 0.847,-0.642 1.125,-0.074 -0.136,1.64 1.576,1.848 1.917,3.267 2.269,0.922 0.295,3.058 0.638,4.837 1.857,1.206 -1.631,3.761 1.507,3.688 0,1.133 1.559,0.279 1.41,1.492 0.278,0.29 0.499,-0.143 0.787,-0.211 -0.355,-0.578 -0.787,-1.059 -0.859,-1.708 0.283,-0.502 0.931,-0.216 1.147,-0.776 l -1.492,-3.06 0.206,-0.216 -0.139,0 c -0.283,-0.427 0.499,-0.629 0.561,-1.061 -0.283,-1.213 -0.71,-2.343 -1.135,-3.404 0.646,-3.76 -0.486,-6.599 0,-10.16 0.147,-0.141 0.214,-0.284 0.147,-0.421 l -0.509,-0.439 c -2.907,-0.132 -5.805,-0.132 -8.506,0 -5.34,-0.067 -10.578,-0.273 -15.558,-0.199 l -34.303,-0.074 c -2.686,0.074 -5.454,-0.075 -8.439,0 -3.406,4.827 -5.881,10.366 -8.311,15.758 -0.562,1.282 -0.636,2.7 -1.483,3.836 -1.129,4.331 -2.631,8.451 -3.188,12.787 -0.719,2.764 -0.791,6.105 -1.213,8.929 0.139,2.287 -0.569,4.487 -0.293,6.694 l 0.715,0.352 c 5.116,-0.144 9.878,0.143 15.27,0.064 l 0.132,0.143 c 14.698,-0.207 30.107,0.073 45.023,0.073 0.357,0.427 0.501,-0.137 0.914,0 3.852,0.065 8.244,0.279 11.938,0 35.847,0.354 72.273,0.427 108.559,0.993 0.427,0 1.209,0 1.346,-0.639 C 4.548,18.534 3.119,9.665 0,0 m -92.089,-21.51 0.358,0.291 5.821,-0.075 0.216,-0.423 c -2.067,-2.208 -2.192,-5.19 -3.764,-7.6 -0.215,-1.063 -0.923,-2.193 -1.34,-3.267 l -0.3,0 c -0.564,3.556 -0.564,7.385 -0.991,11.074 m 79.306,-2.912 c -3.462,-4.754 -7.242,-9.434 -11.925,-13.623 -0.489,-0.933 -1.765,-1.286 -2.403,-2.202 -7.177,-5.754 -14.709,-11.151 -23.441,-14.409 -17.453,-7.678 -38.906,-9.162 -57.354,-4.687 -21.877,5.249 -42.684,18.238 -55.539,37.48 0,0.496 0.559,0.353 0.852,0.428 l 37.708,0.068 24.784,0.148 c 0.917,-0.216 2.409,0.495 2.836,-0.718 0,-4.621 1.346,-8.732 0.494,-13.56 -0.278,0.428 -1.147,0.781 -1.775,0.566 -0.708,-0.358 -1.209,-1.199 -0.854,-2.053 -0.149,-0.712 1.206,-1.277 0.422,-1.774 -0.276,0.139 -0.571,0.065 -0.844,0.065 -0.782,-0.496 0.494,-1.838 -1.003,-1.701 0.151,-1.132 -1.631,-0.137 -1.144,-1.426 0.371,-0.703 0.444,-2.053 1.571,-1.847 0.211,-0.206 0.506,-0.562 0.715,-0.206 0.429,0.642 -0.921,2.053 0.499,2.13 0.498,0.349 0.148,1.066 0,1.496 l -0.07,0.06 0.132,0.148 c 0.717,-0.288 0.436,-1.209 1.204,-1.355 1.008,1.502 -0.703,2.917 -0.909,4.41 -0.295,0.56 0.141,1.062 0.554,1.209 1.708,-0.147 1.502,-2.137 2.354,-3.133 0,-0.493 0.28,-0.984 0.64,-1.279 0.554,-0.14 0.425,0.502 0.705,0.649 0.638,0.56 2.063,0.56 2.063,1.842 0.986,0.077 0.71,-1.212 1.204,-1.705 -0.355,-1.346 0.427,-2.972 0.144,-4.472 0.216,-0.217 0.495,-0.487 0.782,-0.217 1.627,0.501 0.216,2.985 2.195,2.985 0.149,-0.289 0.3,-0.494 0.501,-0.715 0.919,0.715 0.639,2.209 1.562,2.912 0.501,-1.131 0.352,-2.766 0.923,-4.043 -0.076,-0.501 -0.282,-1.355 0.149,-1.774 1.046,0.365 0.562,2.771 2.408,2.128 l 0.989,-0.427 c 0.437,-0.987 -1.483,-2.054 0,-2.477 0.491,1.195 0.638,2.766 1.928,3.547 0,0.49 0.912,0.849 0.71,1.56 -0.71,0.709 -1.285,-1.28 -2.274,-0.711 0.073,0.358 0.274,0.711 0.073,1.066 l -0.996,0 c -0.07,0.922 1.197,1.703 0.487,2.48 -0.844,-0.918 -1.701,-2.195 -2.123,-3.402 -0.717,0.284 0.643,1.207 -0.362,1.63 -0.497,-0.28 -0.914,-0.207 -1.127,0.353 -0.073,0.717 -0.212,1.496 -0.854,1.919 1.559,5.255 2.484,10.8 5.104,15.624 l 0.868,0.351 c 10.279,0 19.944,0.217 30.309,0.144 l 0.074,0.426 c 0,-0.142 0,-0.353 0.129,-0.426 2.141,0.284 4.549,-0.144 6.262,0 l 32.726,0.284 0.285,-0.211 c -0.424,-1.276 -1.7,-2.264 -2.348,-3.555 M 15.055,29.97 c -0.279,1.485 -1.771,0.427 -2.553,1.205 -1.559,-0.354 -3.348,-0.067 -4.615,0.073 -3.277,-0.929 -6.959,0.074 -10.231,-0.5 -5.961,0 -11.353,0.073 -17.328,-0.06 -7.021,-0.153 -14.616,-0.078 -22.297,-0.153 -1.122,0.153 -2.83,-0.358 -3.893,0.423 -0.075,0.497 -0.214,1.287 0.067,1.787 6.249,1.695 12.918,2.623 19.169,3.968 12.785,2.771 26.137,5.537 38.783,7.884 0.41,0.288 1.127,0.43 1.127,0.995 -0.717,3.409 -1.292,6.95 -2.206,10.148 -0.495,1.206 -1.699,0.641 -2.618,0.431 -11.583,-3.546 -22.865,-7.17 -34.367,-10.653 -0.859,-0.289 -1.851,-0.422 -2.562,-0.854 -5.469,-1.7 -11.221,-3.477 -16.69,-5.034 -1.996,-1.423 -1.914,1.273 -2.543,2.195 17.391,7.526 35.01,14.769 52.603,22.087 0.928,0.565 2.343,0.489 2.708,1.702 -0.857,3.124 -2.5,5.889 -3.699,8.87 -0.631,0.785 -0.708,2.347 -1.705,2.347 l 0,0.142 C -8.242,71.012 -19.305,64.544 -30.03,58.655 -36.629,55.175 -42.813,50.847 -49.708,47.714 l -0.491,0.369 c -0.28,0.775 -1.41,1.62 -0.775,2.47 16.326,11.089 32.3,22.157 48.348,33.447 0.347,0.57 0.074,1.35 -0.13,1.915 l -5.765,7.814 -0.923,0 c -2.914,-2.775 -6.532,-5.47 -9.59,-8.453 -6.455,-5.537 -12.702,-11.215 -19.296,-16.611 -0.29,-0.777 -1.36,-1.061 -1.998,-1.636 -1.276,-1.493 -3.267,-2.769 -4.831,-4.259 -3.186,-2.552 -5.674,-5.175 -9.015,-7.521 -1.127,-0.503 -1.487,0.996 -2.279,1.697 l 1.497,1.847 c 9.943,10.656 20.668,21.235 30.604,32.024 2.994,3.196 6.467,6.744 9.163,10.156 -1.631,1.557 -3.33,3.551 -5.181,4.965 -1.425,0.711 -1.78,2.562 -3.484,2.41 -9.722,-12.626 -19.029,-24.986 -28.969,-37.765 -0.494,-1.07 -1.212,-1.845 -2.133,-2.769 0,-0.639 -0.554,-1.069 -1.063,-1.414 -1.125,-1.923 -2.559,-3.698 -4.111,-5.4 -1.286,-0.356 -2.07,1.278 -3.119,1.702 l 0,0.638 c 8.859,14.13 17.809,28.543 26.62,42.598 1.629,2.204 2.758,4.896 4.466,7.102 0.854,0.784 0,1.492 -0.494,2.063 -2.624,1.054 -4.833,3.048 -7.597,4.114 -0.58,0.285 -1.35,0.993 -2.137,0.569 -1.055,-3.123 -2.768,-6.246 -4.39,-9.163 -0.431,-1.842 -1.429,-3.477 -2.068,-5.245 -2.053,-3.982 -4.039,-8.103 -5.958,-12.214 -0.278,-1.065 -0.703,-1.993 -1.281,-2.917 -2.2,-5.185 -5.047,-10.43 -7.381,-15.829 -0.427,-1.276 -1.567,-2.276 -1.72,-3.623 -0.974,-0.919 -0.696,-2.412 -1.909,-3.339 -0.072,-0.575 -0.36,-1.424 -0.988,-1.557 -1.287,0.216 -3.136,0.633 -3.397,1.915 6.525,18.607 13.471,36.993 20.003,55.734 l -0.129,0.707 c -2.565,0.57 -5.403,1.783 -7.96,2.279 -0.561,0.564 -1.847,0.707 -2.696,0.497 -0.285,-0.28 -0.216,-0.571 -0.139,-0.928 -0.643,-0.782 -0.362,-2.054 -0.926,-2.903 -0.139,-0.786 0.081,-1.927 -0.566,-2.633 -0.923,-5.039 -2.622,-9.796 -3.476,-14.909 -1.499,-3.836 -1.499,-7.951 -2.991,-11.781 -0.487,-2.28 -0.859,-4.055 -1.562,-6.395 -0.492,-2.206 -1.065,-4.046 -1.41,-6.25 -1.281,-3.831 -2.13,-7.883 -3.133,-11.719 l -0.566,-0.565 c -0.854,0.139 -1.849,0.139 -2.485,0.782 0.208,1.708 0.283,3.339 0.636,4.833 1.717,10.651 2.763,20.875 4.329,32.229 0.854,7.171 2.001,14.561 2.629,21.874 -1.35,1.133 -3.408,0.918 -5.181,1.204 -1.708,-0.071 -4.184,0.565 -5.814,-0.286 0.062,-2.486 -0.078,-4.827 -0.144,-7.243 -0.142,-3.267 0.206,-6.744 -0.495,-10.151 0.206,-1.419 -0.29,-3.055 0.132,-4.76 -0.281,-11.564 -1.206,-22.368 -1.206,-33.658 -0.567,-1.198 0.35,-2.76 -0.567,-3.896 -0.992,0 -2.199,-0.427 -3.055,0.35 -0.499,4.473 -0.639,9.299 -1.07,13.631 -0.348,15.413 -2.2,29.404 -2.617,44.665 -0.348,0.629 -0.281,1.913 -1.341,1.494 -2.356,-0.29 -5.206,-0.432 -7.391,-0.865 -1.206,-0.348 -2.204,0.217 -3.212,-0.844 0.089,-1.494 0.868,-3.619 0.802,-4.896 0.556,-1.494 0.556,-3.482 1.204,-4.902 0.282,-4.404 1.417,-8.585 2.058,-13.131 0.422,-3.483 1.136,-6.753 1.698,-10.091 0.504,-3.621 1.214,-7.028 1.77,-10.427 0.715,-0.86 0,-2.066 0.581,-2.982 0.494,-4.261 1.348,-8.037 1.981,-12.291 l -0.499,-0.5 c -1.348,-0.069 -2.192,-0.914 -3.329,-0.349 -2.843,9.443 -5.69,18.96 -8.31,28.537 -1.343,4.331 -2.552,8.736 -3.692,12.931 -1.206,3.899 -2.559,8.019 -3.413,12.07 -0.487,1.272 -0.777,2.765 -1.415,3.827 -2.84,-0.423 -5.68,-1.484 -8.317,-2.412 -0.914,-0.355 -2.269,-0.423 -2.535,-1.562 2.331,-5.677 4.459,-11.506 7.014,-17.041 4.476,-11.707 9.806,-23.356 14.345,-34.862 0.352,-1.208 1.348,-2.132 1.276,-3.481 -0.643,-0.56 -1.339,-0.713 -2.054,-1.131 -2.288,-0.923 -1.847,2.48 -3.348,3.404 -4.174,7.955 -8.23,15.764 -12.563,23.572 -4.404,8.589 -8.947,17.11 -13.491,25.487 -0.434,0.217 -0.913,0.575 -0.978,0 l 0,0.074 c -3.419,-1.488 -6.052,-3.192 -9.175,-5.249 l -0.068,-0.432 c 2.198,-3.473 4.407,-7.092 7.033,-10.294 1.416,-2.692 3.33,-4.901 4.76,-7.532 1.696,-2.054 2.972,-4.613 4.608,-6.597 l 3.624,-5.751 c 4.544,-6.25 8.305,-12.993 12.992,-19.239 0.209,-0.429 -0.057,-0.93 -0.288,-1.284 -0.35,-0.773 -1.271,-1.345 -2.063,-1.276 -2.691,2.633 -4.538,5.324 -6.954,8.102 -3.55,3.905 -6.457,7.735 -10.014,11.497 l 0,0.281 c -1.627,1.571 -2.841,3.201 -4.035,4.973 -6.257,6.533 -12.081,14.199 -18.116,20.803 -1.907,-0.421 -2.763,-1.984 -4.337,-3.049 l -0.127,-0.422 c -1.425,-1.355 -3.418,-2.638 -4.186,-4.41 6.808,-6.606 13.832,-13.058 20.726,-19.526 l 0,-0.285 c 1.626,-0.707 2.475,-2.48 3.845,-3.403 5.666,-5.117 10.355,-10.235 16.244,-15.273 0.785,-1.415 2.632,-1.98 3.193,-3.614 -0.777,-0.849 -1.12,-2.347 -2.624,-2.347 -14.762,11.643 -30.028,23.793 -44.797,35.289 -0.991,0.638 -2.351,2.986 -3.546,1.497 -2.07,-2.204 -3.212,-4.474 -5.049,-6.753 0,-0.922 -0.986,-1.414 -1.137,-2.34 10.367,-7.099 21.303,-13.28 31.949,-20.312 6.604,-3.973 13.275,-8.377 19.811,-12.493 0.358,-0.708 -0.206,-1.42 -0.712,-1.917 -0.568,-0.136 -0.991,-0.21 -1.557,0.075 -4.332,2.481 -9.369,4.262 -13.696,6.672 -13.712,6.387 -26.641,12.573 -40.266,19.032 -1.137,-0.787 -1.699,-2.348 -2.342,-3.487 -0.064,-2.629 -2.705,-4.543 -2.13,-7.17 14.34,-4.825 27.831,-10.432 42.036,-15.402 3.399,-1.703 7.581,-2.484 11.006,-4.051 1.621,-0.923 3.481,-0.923 4.889,-2.273 -0.214,-0.996 -0.504,-2.338 -1.341,-2.77 -17.97,4.62 -35.077,8.736 -53.109,13.569 -0.784,0 -1.849,0.276 -2.703,0.638 -1.416,0 -2.98,1.133 -4.191,0.349 -0.708,-2.122 -0.638,-4.612 -1.346,-6.811 0.07,-1.566 -0.782,-3.272 -0.71,-4.975 0.365,-0.776 1.418,-0.497 2.13,-0.707 2.195,-0.143 4.548,-0.786 6.746,-0.786 16.604,-2.764 33.302,-4.47 49.769,-6.812 1.207,-0.431 2.917,0.285 3.694,-1.276 l -0.564,-0.64 -5.121,-0.14 -32.225,-0.144 c -0.36,-0.206 -0.863,0.284 -1.206,-0.073 -4.695,0.073 -8.871,0.073 -13.57,0.073 -2.687,-0.565 -5.743,0.211 -8.511,0.284 -0.648,-0.214 -0.859,-0.647 -1.641,-0.49 -0.571,-2.849 0.075,-5.472 0.075,-8.105 0.146,-2.621 1.204,-5.533 0.995,-7.875 0.777,-2.48 0.777,-4.911 1.485,-7.455 1.355,-5.545 3.063,-11.148 5.543,-16.265 4.189,-10.294 9.653,-18.956 17.243,-27.476 3.06,-3.768 5.903,-6.177 9.165,-9.233 2.706,-2.195 5.467,-4.326 8.092,-6.463 5.687,-3.407 11.437,-7.307 17.688,-9.734 0.561,0 0.705,-0.907 1.36,-0.559 12.618,-5.819 27.032,-8.373 41.734,-8.727 l 0.785,0.271 c 0.849,-0.348 2.201,-0.134 3.185,-0.212 29.178,1.362 55.46,14.561 74.069,37.284 5.107,6.527 10.075,13.559 13.193,21.225 0.214,0.79 1.569,1.145 1.07,2.273 4.973,11.722 8.725,24.864 8.813,37.987 0.423,1.134 -0.436,2.42 0.063,3.554"
         style="fill:#005daa;fill-opacity:1;fill-rule:nonzero;stroke:none"
         id="path78"
         inkscape:connector-curvature="0" />
    </g>
    <g
       id="g80"
       transform="matrix(1.25,0,0,-1.25,290.67151,380.92347)">
      <path
         d="M 0,0 C -0.359,0.638 -0.715,1.355 -0.715,2.2 -0.434,1.698 0.278,0.711 0,0"
         style="fill:#231f20;fill-opacity:1;fill-rule:nonzero;stroke:none"
         id="path82"
         inkscape:connector-curvature="0" />
    </g>
    <g
       id="g84"
       transform="matrix(1.25,0,0,-1.25,220.53176,411.17184)">
      <path
         d="M 0,0 C 0.283,0.704 0.83,2.04 -0.844,3.34 -1.804,4.093 -3.728,4.563 -5.863,1.833 -7.21,0.101 -7.743,-1.994 -6.03,-3.33 c 1.108,-0.877 2.374,-0.844 3.547,0.158 l 2.013,-1.582 c -2.034,-1.782 -4.558,-2.173 -6.971,-0.284 -2.571,1.998 -3.056,5.172 -0.454,8.502 2.632,3.366 5.931,3.57 8.408,1.631 2.879,-2.256 2.5,-5.153 1.502,-6.66 L 0,0 z"
         style="fill:#005daa;fill-opacity:1;fill-rule:nonzero;stroke:none"
         id="path86"
         inkscape:connector-curvature="0" />
    </g>
    <g
       id="g88"
       transform="matrix(1.25,0,0,-1.25,222.76251,425.17522)">
      <path
         d="M 0,0 -2.128,1.396 4.605,11.618 6.752,10.199 0,0 z"
         style="fill:#005daa;fill-opacity:1;fill-rule:nonzero;stroke:none"
         id="path90"
         inkscape:connector-curvature="0" />
    </g>
    <g
       id="g92"
       transform="matrix(1.25,0,0,-1.25,232.44764,430.94972)">
      <path
         d="M 0,0 -2.24,1.253 2.691,10.03 -0.528,11.846 0.537,13.733 9.207,8.861 8.144,6.962 4.925,8.777 0,0 z"
         style="fill:#005daa;fill-opacity:1;fill-rule:nonzero;stroke:none"
         id="path94"
         inkscape:connector-curvature="0" />
    </g>
    <g
       id="g96"
       transform="matrix(1.25,0,0,-1.25,246.59439,437.8161)">
      <path
         d="m 0,0 -2.336,1.015 1.842,4.238 -0.825,8.673 2.768,-1.208 0.192,-5.894 4.344,3.91 L 8.645,9.581 1.833,4.207 0,0 z"
         style="fill:#005daa;fill-opacity:1;fill-rule:nonzero;stroke:none"
         id="path98"
         inkscape:connector-curvature="0" />
    </g>
    <g
       id="g100"
       transform="matrix(1.25,0,0,-1.25,263.48151,436.06259)">
      <path
         d="m 0,0 c -1.439,-5.557 2.509,-7.292 4.078,-7.7 1.576,-0.401 5.87,-0.772 7.299,4.776 C 12.805,2.633 8.852,4.37 7.288,4.779 5.721,5.192 1.42,5.564 0,0 M 2.461,-0.632 C 3.32,2.693 5.421,3.029 6.757,2.685 8.089,2.34 9.753,1.037 8.909,-2.286 8.045,-5.602 5.966,-5.946 4.625,-5.592 3.289,-5.259 1.603,-3.943 2.461,-0.632"
         style="fill:#005daa;fill-opacity:1;fill-rule:nonzero;stroke:none"
         id="path102"
         inkscape:connector-curvature="0" />
    </g>
    <g
       id="g104"
       transform="matrix(1.25,0,0,-1.25,283.59514,448.37097)">
      <path
         d="M 0,0 -2.533,0.363 -0.777,12.466 7.834,11.231 7.537,9.092 1.437,9.958 1.037,7.239 6.374,6.462 6.071,4.327 0.739,5.09 0,0 z"
         style="fill:#005daa;fill-opacity:1;fill-rule:nonzero;stroke:none"
         id="path106"
         inkscape:connector-curvature="0" />
    </g>
    <g
       id="g108"
       transform="matrix(1.25,0,0,-1.25,306.02361,444.72347)">
      <path
         d="M 0,0 2.936,0 C 6.228,0.013 6.832,2.801 6.832,3.917 6.827,6.315 5.388,7.831 3.008,7.818 L -2.576,7.808 -2.542,-4.421 0.01,-4.415 0,0 z M -0.009,2.108 -0.014,5.7 2.02,5.709 C 3.598,5.717 4.27,5.211 4.27,4.023 4.27,3.471 4.275,2.121 2.363,2.121 L -0.009,2.108 z"
         style="fill:#005daa;fill-opacity:1;fill-rule:nonzero;stroke:none"
         id="path110"
         inkscape:connector-curvature="0" />
    </g>
    <g
       id="g112"
       transform="matrix(1.25,0,0,-1.25,319.16321,449.96759)">
      <path
         d="M 0,0 2.49,0.272 1.945,5.035 4.586,5.317 C 6.462,5.532 6.642,4.887 6.82,3.235 6.947,1.981 7.115,1.356 7.354,0.805 l 2.819,0.307 -0.046,0.327 C 9.566,1.572 9.516,2.022 9.321,3.8 9.072,6.061 8.511,6.381 7.451,6.716 8.606,7.254 9.163,8.479 9.01,9.817 8.899,10.859 8.055,13.182 4.821,12.839 L -1.343,12.167 0,0 z m 1.737,7.08 -0.36,3.252 3.176,0.347 C 6.052,10.845 6.429,9.922 6.493,9.289 6.635,8.08 6.035,7.548 4.716,7.41 L 1.737,7.08 z"
         style="fill:#005daa;fill-opacity:1;fill-rule:nonzero;stroke:none"
         id="path114"
         inkscape:connector-curvature="0" />
    </g>
    <g
       id="g116"
       transform="matrix(1.25,0,0,-1.25,333.78971,440.55422)">
      <path
         d="m 0,0 c 1.262,-5.604 5.577,-5.349 7.158,-4.994 1.564,0.358 5.584,1.966 4.322,7.569 C 10.219,8.184 5.903,7.926 4.318,7.573 2.749,7.214 -1.243,5.593 0,0 M 2.5,0.565 C 1.746,3.898 3.459,5.166 4.797,5.455 6.141,5.773 8.237,5.353 8.995,2.01 9.734,-1.324 8.021,-2.587 6.681,-2.891 5.339,-3.18 3.243,-2.786 2.5,0.565"
         style="fill:#005daa;fill-opacity:1;fill-rule:nonzero;stroke:none"
         id="path118"
         inkscape:connector-curvature="0" />
    </g>
    <g
       id="g120"
       transform="matrix(1.25,0,0,-1.25,358.49681,433.20009)">
      <path
         d="M 0,0 4.81,1.703 7.019,-4.502 5.424,-5.077 4.673,-3.716 c -0.365,-0.928 -0.868,-2.279 -2.97,-3.032 -2.787,-0.988 -6.001,0.11 -7.46,4.143 -1.098,3.152 -0.417,6.748 3.469,8.106 C 1.24,6.761 3.455,4.964 4.147,3.426 L 1.742,2.562 C 1.576,3.016 0.247,4.165 -1.451,3.554 -3.166,2.943 -4.327,1.193 -3.289,-1.75 c 1.121,-3.156 3.138,-3.362 4.776,-2.788 0.518,0.2 2.224,1.037 1.886,3.541 L 0.686,-1.949 0,0 z"
         style="fill:#005daa;fill-opacity:1;fill-rule:nonzero;stroke:none"
         id="path122"
         inkscape:connector-curvature="0" />
    </g>
    <g
       id="g124"
       transform="matrix(1.25,0,0,-1.25,372.06191,436.74922)">
      <path
         d="M 0,0 2.255,1.103 0.132,5.401 2.495,6.567 C 4.188,7.41 4.567,6.876 5.306,5.374 5.863,4.245 6.239,3.726 6.645,3.274 L 9.173,4.529 9.048,4.818 C 8.463,4.768 8.266,5.168 7.47,6.765 6.462,8.81 5.798,8.92 4.716,8.865 5.611,9.766 5.702,11.111 5.119,12.306 4.635,13.256 3.046,15.148 0.134,13.71 L -5.423,10.964 0,0 z m -0.787,7.243 -1.448,2.935 2.857,1.412 C 1.967,12.259 2.648,11.529 2.941,10.951 3.474,9.871 3.092,9.159 1.905,8.575 L -0.787,7.243 z"
         style="fill:#005daa;fill-opacity:1;fill-rule:nonzero;stroke:none"
         id="path126"
         inkscape:connector-curvature="0" />
    </g>
    <g
       id="g128"
       transform="matrix(1.25,0,0,-1.25,390.34381,412.05385)">
      <path
         d="M 0,0 -5.484,-3.484 -4.1,-5.659 0.938,-2.463 2.094,-4.287 -2.934,-7.484 -1.23,-10.161 4.488,-6.519 5.642,-8.343 -2.19,-13.321 -8.758,-3.01 -1.164,1.817 0,0 z"
         style="fill:#005daa;fill-opacity:1;fill-rule:nonzero;stroke:none"
         id="path130"
         inkscape:connector-curvature="0" />
    </g>
    <g
       id="g132"
       transform="matrix(1.25,0,0,-1.25,400.06181,414.63872)">
      <path
         d="M 0,0 C 0.444,-0.524 1.523,-1.328 3.252,0.065 4.203,0.813 5.085,1.874 4.284,2.885 3.691,3.633 2.813,3.276 1.603,2.7 L 0.379,2.131 C -1.454,1.258 -3.219,0.424 -4.889,2.535 -5.733,3.612 -6.662,5.943 -3.543,8.41 -0.607,10.733 1.712,9.436 2.648,8.272 L 0.72,6.751 C 0.34,7.133 -0.626,8.016 -2.375,6.641 -3.138,6.031 -3.833,5.03 -3.138,4.17 -2.555,3.409 -1.802,3.737 -1.324,3.968 L 1.463,5.245 C 3.03,5.962 4.653,6.38 6.016,4.654 8.305,1.77 5.56,-0.813 4.721,-1.479 1.218,-4.249 -0.979,-2.71 -1.921,-1.521 L 0,0 z"
         style="fill:#005daa;fill-opacity:1;fill-rule:nonzero;stroke:none"
         id="path134"
         inkscape:connector-curvature="0" />
    </g>
    <g
       id="g136"
       transform="matrix(1.25,0,0,-1.25,412.14551,404.45434)">
      <path
         d="M 0,0 C 0.487,-0.481 1.641,-1.161 3.229,0.396 4.106,1.24 4.85,2.39 3.963,3.321 3.291,3.998 2.447,3.542 1.319,2.849 L 0.153,2.151 c -1.734,-1.043 -3.41,-2.054 -5.291,-0.143 -0.945,0.988 -2.097,3.221 0.753,5.99 2.677,2.613 5.107,1.553 6.162,0.501 L 0.024,6.785 C -0.408,7.129 -1.456,7.905 -3.063,6.363 -3.745,5.683 -4.328,4.607 -3.56,3.813 -2.888,3.133 -2.19,3.534 -1.732,3.808 L 0.912,5.365 C 2.379,6.239 3.963,6.821 5.503,5.243 8.064,2.609 5.599,-0.242 4.841,-0.992 1.646,-4.111 -0.698,-2.802 -1.768,-1.712 L 0,0 z"
         style="fill:#005daa;fill-opacity:1;fill-rule:nonzero;stroke:none"
         id="path138"
         inkscape:connector-curvature="0" />
    </g>
    <g
       id="g140"
       transform="matrix(1.25,0,0,-1.25,164.60464,253.12497)">
      <path
         d="M 0,0 2.706,10.294 6.46,9.316 2.615,-5.318 -18.097,0.128 -16.969,4.456 0,0 z"
         style="fill:#005daa;fill-opacity:1;fill-rule:nonzero;stroke:none"
         id="path142"
         inkscape:connector-curvature="0" />
    </g>
    <g
       id="g144"
       transform="matrix(1.25,0,0,-1.25,173.82764,224.76072)">
      <path
         d="m 0,0 3.591,7.027 4.56,-0.79 2.231,4.327 -22.512,3.05 L -14.479,9.03 1.094,-7.533 3.243,-3.35 0,0 z m -9.043,9.053 0.048,0.055 8.734,-1.503 -2.493,-4.859 -6.289,6.307 z"
         style="fill:#005daa;fill-opacity:1;fill-rule:nonzero;stroke:none"
         id="path146"
         inkscape:connector-curvature="0" />
    </g>
    <g
       id="g148"
       transform="matrix(1.25,0,0,-1.25,192.18451,203.90197)">
      <path
         d="m 0,0 2.84,3.349 -6.395,5.41 2.97,3.529 c 2.149,2.53 3.123,1.938 5.356,0.052 1.691,-1.427 2.65,-2.006 3.62,-2.437 l 3.195,3.785 -0.434,0.366 c -0.885,-0.496 -1.476,0 -3.879,2.026 -3.056,2.581 -4.16,2.279 -5.897,1.435 0.835,2.074 0.051,4.294 -1.746,5.819 -1.424,1.193 -5.301,3.114 -8.973,-1.24 L -16.35,13.833 0,0 z m -6.321,11.097 -4.368,3.694 3.615,4.258 c 1.681,2.011 3.288,1.308 4.147,0.581 1.622,-1.368 1.507,-2.759 0,-4.528 l -3.394,-4.005 z"
         style="fill:#005daa;fill-opacity:1;fill-rule:nonzero;stroke:none"
         id="path150"
         inkscape:connector-curvature="0" />
    </g>
    <g
       id="g152"
       transform="matrix(1.25,0,0,-1.25,215.73439,160.73736)">
      <path
         d="m 0,0 7.201,5.301 6.851,-9.298 -2.404,-1.764 -1.947,1.901 c -0.147,-1.734 -0.326,-4.265 -3.459,-6.579 -4.15,-3.052 -10.123,-2.853 -14.575,3.194 -3.467,4.714 -4.119,11.08 1.708,15.332 5.291,3.892 9.916,1.99 11.85,-0.247 L 1.631,5.194 C 1.118,5.865 -1.687,7.128 -4.227,5.254 -6.808,3.358 -7.873,-0.17 -4.615,-4.58 c 3.454,-4.713 6.928,-4.047 9.379,-2.24 0.799,0.582 3.205,2.842 1.391,6.866 L 2.137,-2.898 0,0 z"
         style="fill:#005daa;fill-opacity:1;fill-rule:nonzero;stroke:none"
         id="path154"
         inkscape:connector-curvature="0" />
    </g>
    <g
       id="g156"
       transform="matrix(1.25,0,0,-1.25,236.70239,148.44973)">
      <path
         d="m 0,0 c 3.835,-9.293 11.2,-7.58 13.814,-6.5 2.601,1.074 9.037,5.042 5.211,14.34 C 15.196,17.133 7.832,15.418 5.217,14.345 2.603,13.259 -3.826,9.292 0,0 m 4.128,1.699 c -2.281,5.548 0.305,8.221 2.534,9.14 2.23,0.915 5.948,0.836 8.234,-4.708 2.282,-5.54 -0.304,-8.213 -2.53,-9.132 -2.234,-0.922 -5.945,-0.841 -8.238,4.7"
         style="fill:#005daa;fill-opacity:1;fill-rule:nonzero;stroke:none"
         id="path158"
         inkscape:connector-curvature="0" />
    </g>
    <g
       id="g160"
       transform="matrix(1.25,0,0,-1.25,282.90602,134.67773)">
      <path
         d="m 0,0 0.331,0.042 c 2.286,0.302 2.73,1.57 2.672,2.471 L 4.937,2.771 6.52,-9.222 4.164,-9.535 3.065,-1.276 0.216,-1.658 0,0 z"
         style="fill:#005daa;fill-opacity:1;fill-rule:nonzero;stroke:none"
         id="path162"
         inkscape:connector-curvature="0" />
    </g>
    <g
       id="g164"
       transform="matrix(1.25,0,0,-1.25,295.28939,142.19235)">
      <path
         d="M 0,0 C 0.312,-1.915 1.837,-3.027 3.905,-2.921 6.085,-2.815 8.218,-1.181 7.974,3.5 7.887,5.205 7.583,9.71 3.404,9.489 1.027,9.37 -0.638,7.899 -0.501,4.937 -0.391,2.912 1.046,1.226 3.358,1.35 4.179,1.39 5.102,1.644 5.584,2.49 L 5.646,2.458 C 5.759,-0.078 4.812,-0.965 3.826,-1.015 3.085,-1.061 2.542,-0.721 2.365,0.106 l 0,0.007 L 0,0 z M 1.859,5.407 C 1.78,7.138 2.874,7.5 3.49,7.532 4.702,7.601 5.34,6.775 5.431,5.407 5.493,3.973 4.61,3.33 3.771,3.284 2.874,3.239 1.972,3.583 1.859,5.407"
         style="fill:#005daa;fill-opacity:1;fill-rule:nonzero;stroke:none"
         id="path166"
         inkscape:connector-curvature="0" />
    </g>
    <g
       id="g168"
       transform="matrix(1.25,0,0,-1.25,307.05511,137.77835)">
      <path
         d="M 0,0 C -0.125,-4.235 1.176,-6.256 4.008,-6.333 6.861,-6.406 8.262,-4.478 8.372,-0.234 8.506,4.007 7.216,6.004 4.371,6.09 1.519,6.165 0.125,4.245 0,0 M 2.452,-0.067 C 2.548,3.055 2.946,4.213 4.315,4.175 5.676,4.144 6.016,2.954 5.928,-0.161 5.844,-3.278 5.426,-4.464 4.068,-4.422 2.706,-4.39 2.37,-3.182 2.452,-0.067"
         style="fill:#005daa;fill-opacity:1;fill-rule:nonzero;stroke:none"
         id="path170"
         inkscape:connector-curvature="0" />
    </g>
    <g
       id="g172"
       transform="matrix(1.25,0,0,-1.25,322.38351,136.8146)">
      <path
         d="M 0,0 C 0.468,0.253 1.056,0.557 2.226,0.425 3.84,0.245 5.743,-1.091 5.438,-3.852 5.277,-5.492 4.14,-8.081 0.604,-7.697 c -1.88,0.212 -3.679,1.53 -3.526,3.973 l 2.365,-0.261 c -0.005,-1.002 0.461,-1.708 1.507,-1.829 1.132,-0.125 1.895,0.767 2.036,2.054 0.128,1.073 -0.271,2.214 -1.53,2.347 -0.312,0.036 -1.13,0.114 -1.682,-0.69 l -2.106,0.336 1.55,6.513 L 5.819,4.024 5.604,2.032 0.71,2.56 0,0 z"
         style="fill:#005daa;fill-opacity:1;fill-rule:nonzero;stroke:none"
         id="path174"
         inkscape:connector-curvature="0" />
    </g>
    <g
       id="g176"
       transform="matrix(1.25,0,0,-1.25,356.29291,153.59498)">
      <path
         d="M 0,0 -4.181,1.602 3.5,21.592 17.72,16.13 16.353,12.598 6.316,16.457 4.584,11.947 13.378,8.566 12.025,5.034 3.231,8.406 0,0 z"
         style="fill:#005daa;fill-opacity:1;fill-rule:nonzero;stroke:none"
         id="path178"
         inkscape:connector-curvature="0" />
    </g>
    <g
       id="g180"
       transform="matrix(1.25,0,0,-1.25,378.51151,158.2861)">
      <path
         d="M 0,0 9.243,-5.291 7.314,-8.663 -5.807,-1.149 4.829,17.435 8.71,15.208 0,0 z"
         style="fill:#005daa;fill-opacity:1;fill-rule:nonzero;stroke:none"
         id="path182"
         inkscape:connector-curvature="0" />
    </g>
    <g
       id="g184"
       transform="matrix(1.25,0,0,-1.25,397.62101,159.52448)">
      <path
         d="m 0,0 c -6.415,-7.736 -1.471,-13.446 0.715,-15.247 2.178,-1.813 8.698,-5.636 15.121,2.104 6.413,7.731 1.461,13.425 -0.712,15.242 C 12.939,3.912 6.419,7.729 0,0 m 3.44,-2.863 c 3.826,4.607 7.397,3.587 9.249,2.05 1.867,-1.544 3.534,-4.865 -0.297,-9.477 -3.836,-4.611 -7.4,-3.59 -9.254,-2.048 -1.862,1.544 -3.527,4.863 0.302,9.475"
         style="fill:#005daa;fill-opacity:1;fill-rule:nonzero;stroke:none"
         id="path186"
         inkscape:connector-curvature="0" />
    </g>
    <g
       id="g188"
       transform="matrix(1.25,0,0,-1.25,411.00901,188.69386)">
      <path
         d="M 0,0 2.802,-3.372 9.254,1.98 12.193,-1.575 C 14.304,-4.128 13.56,-4.987 11.31,-6.853 9.602,-8.264 8.859,-9.103 8.288,-9.981 l 3.145,-3.808 0.439,0.36 c -0.334,0.964 0.263,1.454 2.681,3.457 3.075,2.552 2.965,3.697 2.447,5.555 1.895,-1.177 4.227,-0.8 6.04,0.701 1.42,1.182 3.992,4.666 0.353,9.054 L 16.487,13.669 0,0 z m 12.03,4.281 4.409,3.656 3.555,-4.299 C 21.666,1.63 20.711,0.17 19.821,-0.554 18.214,-1.901 16.861,-1.552 15.369,0.235 L 12.03,4.281 z"
         style="fill:#005daa;fill-opacity:1;fill-rule:nonzero;stroke:none"
         id="path190"
         inkscape:connector-curvature="0" />
    </g>
    <g
       id="g192"
       transform="matrix(1.25,0,0,-1.25,429.74931,213.57059)">
      <path
         d="M 0,0 -2.403,3.77 15.652,15.293 18.051,11.518 0,0 z"
         style="fill:#005daa;fill-opacity:1;fill-rule:nonzero;stroke:none"
         id="path194"
         inkscape:connector-curvature="0" />
    </g>
    <g
       id="g196"
       transform="matrix(1.25,0,0,-1.25,432.33711,217.19847)">
      <path
         d="m 0,0 3.96,-8.385 c 3.032,-6.389 9.799,-5.198 13.93,-3.227 3.68,1.74 8.6,5.722 5.498,12.24 L 19.344,9.167 0,0 z m 17.871,3.628 1.844,-3.891 c 0.823,-1.718 1.653,-4.654 -4.056,-7.367 -3.19,-1.507 -7.028,-1.971 -8.583,1.313 l -1.861,3.936 12.656,6.009 z"
         style="fill:#005daa;fill-opacity:1;fill-rule:nonzero;stroke:none"
         id="path198"
         inkscape:connector-curvature="0" />
    </g>
    <g
       id="g200"
       transform="matrix(1.25,0,0,-1.25,449.33851,243.23735)">
      <path
         d="M 0,0 2.121,-7.62 -1.768,-10.119 -0.463,-14.81 18.135,-1.792 16.763,3.183 -5.916,4.786 -4.649,0.249 0,0 z m 12.771,-0.528 0.019,-0.064 -7.451,-4.818 -1.458,5.243 8.89,-0.361 z"
         style="fill:#005daa;fill-opacity:1;fill-rule:nonzero;stroke:none"
         id="path202"
         inkscape:connector-curvature="0" />
    </g>
    <g
       id="g204"
       transform="matrix(1.25,0,0,-1.25,334.77301,329.00997)">
      <path
         d="m 0,0 c 0,-1.276 -0.276,-2.544 -0.576,-3.904 0.507,-0.777 1.133,-1.63 1.495,-2.554 -0.144,-0.992 -1.706,-2.484 0,-3.054 0.923,-1.135 -0.562,-3.193 1.079,-3.905 -0.432,-1.276 4.037,-1.492 0.698,-1.916 -5.685,-0.284 -11.854,0.287 -17.391,-0.152 l -0.431,0.364 c 0.565,1.351 2.484,1.989 3.051,3.413 1.427,0.644 2.067,2.122 3.766,1.988 1.002,1.062 0.427,2.918 1.564,3.823 0,0.858 0.417,1.216 0.221,2.066 0.417,0.143 0.92,-0.85 1.407,-0.357 0.423,0.5 0.423,1.492 1.361,1 0.849,0.138 0.633,1.625 1.698,1.839 0.422,0.784 0.062,1.922 1.271,2.061 C -0.276,0.933 0,0.432 0,0"
         style="fill:#ffffff;fill-opacity:1;fill-rule:nonzero;stroke:none"
         id="path206"
         inkscape:connector-curvature="0" />
    </g>
  </g>
</svg>
