<?xml version="1.0" encoding="UTF-8" standalone="no"?>
<!-- Created with Inkscape (http://www.inkscape.org/) -->

<svg
   xmlns:dc="http://purl.org/dc/elements/1.1/"
   xmlns:cc="http://creativecommons.org/ns#"
   xmlns:rdf="http://www.w3.org/1999/02/22-rdf-syntax-ns#"
   xmlns:svg="http://www.w3.org/2000/svg"
   xmlns="http://www.w3.org/2000/svg"
   xmlns:sodipodi="http://sodipodi.sourceforge.net/DTD/sodipodi-0.dtd"
   xmlns:inkscape="http://www.inkscape.org/namespaces/inkscape"
   width="200"
   height="100"
   id="svg12513"
   version="1.1"
   inkscape:version="0.48.4 r9939"
   sodipodi:docname="New document 3">
  <defs
     id="defs12515" />
  <sodipodi:namedview
     id="base"
     pagecolor="#ffffff"
     bordercolor="#666666"
     borderopacity="1.0"
     inkscape:pageopacity="0.0"
     inkscape:pageshadow="2"
     inkscape:zoom="3.3941125"
     inkscape:cx="229.04765"
     inkscape:cy="53.331781"
     inkscape:current-layer="g5210"
     inkscape:document-units="px"
     showgrid="false"
     inkscape:window-width="1920"
     inkscape:window-height="1021"
     inkscape:window-x="0"
     inkscape:window-y="27"
     inkscape:window-maximized="1" />
  <metadata
     id="metadata12518">
    <rdf:RDF>
      <cc:Work
         rdf:about="">
        <dc:format>image/svg+xml</dc:format>
        <dc:type
           rdf:resource="http://purl.org/dc/dcmitype/StillImage" />
        <dc:title></dc:title>
      </cc:Work>
    </rdf:RDF>
  </metadata>
  <g
     id="layer1"
     inkscape:label="Layer 1"
     inkscape:groupmode="layer"
     transform="translate(0,-500)">
    <g
       id="g5042"
       transform="matrix(1.4935003,0,0,-1.4935003,80.456366,534.25709)">
      <path
         inkscape:connector-curvature="0"
         d="m 0,0 c -1.233,1.106 -1.54,2.558 -1.54,3.766 0,0.853 0.293,2.341 1.426,3.473 0.763,0.764 1.921,1.362 3.88,1.362 0.51,0 1.222,-0.038 1.844,-0.154 C 6.095,8.359 6.502,8.281 6.909,8.256 7.049,8.244 7.074,8.193 7.074,8.117 7.074,8.016 7.036,7.863 7.011,7.404 6.984,6.985 6.984,6.284 6.973,6.095 6.959,5.902 6.934,5.827 6.858,5.827 6.769,5.827 6.757,5.916 6.757,6.095 6.757,6.59 6.552,7.111 6.221,7.392 5.778,7.773 4.797,8.117 3.678,8.117 1.985,8.117 1.196,7.62 0.751,7.188 -0.176,6.297 -0.395,5.165 -0.395,3.867 c 0,-2.429 1.871,-4.656 4.594,-4.656 0.954,0 1.705,0.115 2.214,0.637 0.267,0.279 0.433,0.84 0.471,1.067 0.025,0.141 0.05,0.191 0.127,0.191 0.063,0 0.088,-0.087 0.088,-0.191 0,-0.089 -0.152,-1.194 -0.28,-1.629 C 6.743,-0.954 6.718,-0.979 6.488,-1.082 5.98,-1.285 5.013,-1.375 4.199,-1.375 2.291,-1.375 1.005,-0.903 0,0"
         style="fill:#005daa;fill-opacity:1;fill-rule:nonzero;stroke:none"
         id="path5044" />
    </g>
    <g
       id="g5046"
       transform="matrix(1.4935003,0,0,-1.4935003,97.592334,530.53364)">
      <path
         inkscape:connector-curvature="0"
         d="m 0,0 c 0,-1.222 0,-2.227 0.065,-2.761 0.037,-0.369 0.113,-0.648 0.496,-0.699 0.176,-0.025 0.457,-0.051 0.572,-0.051 0.076,0 0.101,-0.039 0.101,-0.077 0,-0.063 -0.063,-0.102 -0.204,-0.102 -0.7,0 -1.502,0.039 -1.564,0.039 -0.064,0 -0.866,-0.039 -1.247,-0.039 -0.139,0 -0.204,0.026 -0.204,0.102 0,0.038 0.025,0.077 0.102,0.077 0.114,0 0.268,0.026 0.382,0.051 0.255,0.051 0.317,0.33 0.368,0.699 0.064,0.534 0.064,1.539 0.064,2.761 l 0,2.239 c 0,1.986 0,2.342 -0.024,2.749 -0.027,0.431 -0.153,0.648 -0.433,0.712 -0.141,0.039 -0.307,0.051 -0.394,0.051 -0.051,0 -0.102,0.025 -0.102,0.076 0,0.076 0.062,0.102 0.202,0.102 0.42,0 1.222,-0.038 1.286,-0.038 0.062,0 0.864,0.038 1.247,0.038 0.14,0 0.204,-0.026 0.204,-0.102 C 0.917,5.776 0.865,5.751 0.814,5.751 0.727,5.751 0.649,5.739 0.497,5.713 0.153,5.649 0.05,5.433 0.025,4.988 0,4.581 0,4.225 0,2.239 L 0,0 z"
         style="fill:#005daa;fill-opacity:1;fill-rule:nonzero;stroke:none"
         id="path5048" />
    </g>
    <g
       id="g5050"
       transform="matrix(1.4935003,0,0,-1.4935003,108.78195,530.53364)">
      <path
         inkscape:connector-curvature="0"
         d="m 0,0 c 0,-1.222 0,-2.227 0.063,-2.761 0.041,-0.369 0.116,-0.648 0.498,-0.699 0.178,-0.025 0.457,-0.051 0.572,-0.051 0.076,0 0.101,-0.039 0.101,-0.077 0,-0.063 -0.063,-0.102 -0.203,-0.102 -0.699,0 -1.501,0.039 -1.565,0.039 -0.064,0 -0.865,-0.039 -1.247,-0.039 -0.139,0 -0.203,0.026 -0.203,0.102 0,0.038 0.025,0.077 0.102,0.077 0.115,0 0.266,0.026 0.381,0.051 0.255,0.051 0.318,0.33 0.369,0.699 0.065,0.534 0.065,1.539 0.065,2.761 l 0,5.382 -1.884,-0.026 C -3.74,5.345 -4.045,5.255 -4.249,4.949 -4.389,4.732 -4.427,4.645 -4.465,4.556 -4.503,4.453 -4.542,4.428 -4.593,4.428 c -0.037,0 -0.064,0.039 -0.064,0.114 0,0.127 0.255,1.221 0.281,1.324 0.025,0.075 0.076,0.241 0.127,0.241 0.089,0 0.216,-0.128 0.56,-0.153 0.369,-0.038 0.852,-0.063 1.004,-0.063 l 4.772,0 c 0.408,0 0.701,0.025 0.904,0.063 0.19,0.025 0.304,0.065 0.356,0.065 C 3.41,6.019 3.41,5.941 3.41,5.866 3.41,5.483 3.373,4.605 3.373,4.467 3.373,4.352 3.333,4.301 3.283,4.301 3.22,4.301 3.194,4.34 3.181,4.517 L 3.167,4.657 C 3.13,5.039 2.825,5.332 1.603,5.356 L 0,5.382 0,0 z"
         style="fill:#005daa;fill-opacity:1;fill-rule:nonzero;stroke:none"
         id="path5052" />
    </g>
    <g
       id="g5054"
       transform="matrix(1.4935003,0,0,-1.4935003,120.76848,531.12283)">
      <path
         inkscape:connector-curvature="0"
         d="M 0,0 C 0,0.687 -0.126,0.967 -0.292,1.337 -0.382,1.54 -2.086,4.34 -2.533,5 -2.85,5.471 -3.168,5.79 -3.397,5.941 -3.588,6.069 -3.83,6.146 -3.943,6.146 c -0.064,0 -0.127,0.025 -0.127,0.088 0,0.051 0.05,0.089 0.165,0.089 0.241,0 1.196,-0.038 1.259,-0.038 0.089,0 0.572,0.038 1.069,0.038 0.14,0 0.164,-0.038 0.164,-0.089 0,-0.051 -0.075,-0.063 -0.19,-0.114 -0.103,-0.051 -0.166,-0.128 -0.166,-0.229 0,-0.152 0.063,-0.305 0.166,-0.495 0.204,-0.37 2.112,-3.653 2.341,-4.022 0.242,0.534 1.858,3.321 2.112,3.74 0.165,0.269 0.217,0.484 0.217,0.651 0,0.176 -0.052,0.318 -0.204,0.355 -0.114,0.037 -0.192,0.063 -0.192,0.128 0,0.05 0.078,0.075 0.204,0.075 0.333,0 0.739,-0.038 0.84,-0.038 0.077,0 0.993,0.038 1.235,0.038 0.089,0 0.165,-0.025 0.165,-0.075 C 5.115,6.183 5.051,6.146 4.95,6.146 4.81,6.146 4.569,6.095 4.364,5.968 4.11,5.813 3.971,5.663 3.69,5.319 3.271,4.81 1.489,1.82 1.26,1.273 1.07,0.814 1.07,0.42 1.07,0 l 0,-1.094 c 0,-0.204 0,-0.738 0.037,-1.272 0.026,-0.369 0.14,-0.649 0.522,-0.699 0.178,-0.026 0.458,-0.051 0.572,-0.051 0.077,0 0.102,-0.039 0.102,-0.077 0,-0.064 -0.063,-0.103 -0.203,-0.103 -0.699,0 -1.502,0.039 -1.566,0.039 -0.063,0 -0.864,-0.039 -1.247,-0.039 -0.139,0 -0.203,0.026 -0.203,0.103 0,0.038 0.026,0.077 0.103,0.077 0.114,0 0.267,0.025 0.38,0.051 0.255,0.05 0.369,0.33 0.395,0.699 C 0,-1.832 0,-1.298 0,-1.094 L 0,0 z"
         style="fill:#005daa;fill-opacity:1;fill-rule:nonzero;stroke:none"
         id="path5056" />
    </g>
    <g
       id="g5058"
       transform="matrix(1.4935003,0,0,-1.4935003,71.987619,552.90688)">
      <path
         inkscape:connector-curvature="0"
         d="m 0,0 c 0,-3.591 0.098,-5.154 0.538,-5.595 0.391,-0.39 1.026,-0.562 2.933,-0.562 1.294,0 2.37,0.025 2.955,0.733 0.318,0.392 0.562,1.002 0.637,1.466 0.023,0.196 0.073,0.318 0.218,0.318 0.122,0 0.147,-0.097 0.147,-0.366 0,-0.268 -0.17,-1.735 -0.365,-2.444 -0.172,-0.563 -0.245,-0.659 -1.541,-0.659 -1.759,0 -3.029,0.048 -4.056,0.074 -1.026,0.048 -1.783,0.073 -2.491,0.073 -0.099,0 -0.514,-0.025 -1.002,-0.025 -0.49,-0.026 -1.027,-0.048 -1.393,-0.048 -0.27,0 -0.392,0.048 -0.392,0.194 0,0.074 0.05,0.147 0.196,0.147 0.221,0 0.513,0.048 0.733,0.097 0.488,0.099 0.61,0.636 0.709,1.345 0.122,1.026 0.122,2.956 0.122,5.302 l 0,4.301 c 0,3.812 0,4.495 -0.05,5.277 -0.047,0.832 -0.244,1.222 -1.051,1.393 -0.194,0.049 -0.609,0.072 -0.829,0.072 -0.099,0 -0.195,0.051 -0.195,0.148 0,0.147 0.121,0.196 0.39,0.196 1.099,0 2.639,-0.074 2.762,-0.074 0.122,0 1.905,0.074 2.638,0.074 0.269,0 0.391,-0.049 0.391,-0.196 0,-0.097 -0.099,-0.148 -0.196,-0.148 -0.17,0 -0.512,-0.023 -0.806,-0.072 C 0.293,10.898 0.098,10.483 0.049,9.628 0,8.846 0,8.163 0,4.351 L 0,0 z"
         style="fill:#005daa;fill-opacity:1;fill-rule:nonzero;stroke:none"
         id="path5060" />
    </g>
    <g
       id="g5062"
       transform="matrix(1.4935003,0,0,-1.4935003,99.284172,553.48889)">
      <path
         inkscape:connector-curvature="0"
         d="M 0,0 C 0.098,0 0.098,0.049 0.073,0.146 L -2.054,5.84 c -0.121,0.317 -0.243,0.317 -0.365,0 L -4.424,0.146 C -4.447,0.049 -4.424,0 -4.35,0 L 0,0 z m -2.395,8.648 c 0.269,0.686 0.366,0.809 0.514,0.809 0.219,0 0.293,-0.295 0.511,-0.759 0.392,-0.88 3.837,-9.456 5.158,-12.607 0.78,-1.859 1.367,-2.126 1.832,-2.273 0.317,-0.097 0.634,-0.123 0.854,-0.123 0.123,0 0.27,-0.049 0.27,-0.171 0,-0.122 -0.246,-0.17 -0.49,-0.17 -0.317,0 -1.906,0 -3.396,0.048 -0.416,0.026 -0.757,0.026 -0.757,0.147 0,0.097 0.05,0.097 0.147,0.146 0.122,0.049 0.341,0.219 0.194,0.563 l -1.929,4.764 c -0.05,0.097 -0.074,0.123 -0.197,0.123 l -4.959,0 c -0.097,0 -0.171,-0.049 -0.219,-0.17 L -6.085,-4.35 c -0.195,-0.512 -0.317,-1.026 -0.317,-1.392 0,-0.416 0.366,-0.563 0.733,-0.563 l 0.196,0 c 0.171,0 0.219,-0.072 0.219,-0.171 0,-0.122 -0.122,-0.17 -0.318,-0.17 -0.513,0 -1.686,0.074 -1.93,0.074 -0.22,0 -1.295,-0.074 -2.174,-0.074 -0.269,0 -0.415,0.048 -0.415,0.17 0,0.099 0.097,0.171 0.194,0.171 0.147,0 0.465,0.026 0.636,0.049 0.978,0.122 1.393,0.856 1.808,1.906 l 5.058,12.998 z"
         style="fill:#005daa;fill-opacity:1;fill-rule:nonzero;stroke:none"
         id="path5064" />
    </g>
    <g
       id="g5066"
       transform="matrix(1.4935003,0,0,-1.4935003,117.08953,551.55481)">
      <path
         inkscape:connector-curvature="0"
         d="m 0,0 c 0,-0.122 0.05,-0.196 0.148,-0.27 0.317,-0.169 1.417,-0.317 2.37,-0.317 0.513,0 1.099,0.024 1.612,0.367 0.734,0.488 1.295,1.587 1.295,3.176 0,2.591 -1.417,4.081 -3.714,4.081 C 1.076,7.037 0.392,6.963 0.172,6.914 0.074,6.866 0,6.793 0,6.671 L 0,0 z m -1.855,1.76 c 0,3.224 0,3.81 -0.05,4.47 -0.05,0.708 -0.172,1.051 -0.88,1.148 -0.17,0.025 -0.538,0.05 -0.733,0.05 -0.073,0 -0.17,0.097 -0.17,0.172 0,0.121 0.097,0.171 0.341,0.171 0.977,0 2.419,-0.05 2.543,-0.05 0.218,0 2.026,0.05 2.686,0.05 1.368,0 2.884,-0.123 4.008,-0.905 0.538,-0.391 1.49,-1.392 1.49,-2.835 0,-1.539 -0.635,-3.029 -2.638,-4.74 1.758,-2.199 3.249,-4.08 4.495,-5.376 1.148,-1.172 1.857,-1.368 2.395,-1.44 0.415,-0.075 0.635,-0.075 0.757,-0.075 0.123,0 0.195,-0.096 0.195,-0.171 0,-0.122 -0.122,-0.169 -0.512,-0.169 l -1.345,0 c -1.221,0 -1.759,0.122 -2.296,0.415 -0.929,0.488 -1.71,1.49 -2.932,3.053 -0.904,1.124 -1.857,2.467 -2.322,3.03 C 3.08,-1.344 3.031,-1.32 2.884,-1.32 L 0.148,-1.271 C 0.05,-1.271 0,-1.32 0,-1.442 L 0,-1.93 C 0,-3.935 0,-5.546 0.099,-6.401 0.172,-7.012 0.294,-7.403 0.954,-7.502 1.248,-7.551 1.711,-7.6 1.907,-7.6 c 0.147,0 0.171,-0.096 0.171,-0.171 0,-0.096 -0.098,-0.169 -0.343,-0.169 -1.172,0 -2.539,0.073 -2.638,0.073 -0.025,0 -1.467,-0.073 -2.127,-0.073 -0.218,0 -0.34,0.047 -0.34,0.169 0,0.075 0.047,0.171 0.169,0.171 0.197,0 0.465,0.049 0.661,0.098 0.415,0.099 0.463,0.49 0.561,1.101 0.124,0.855 0.124,2.492 0.124,4.496 l 0,3.665 z"
         style="fill:#005daa;fill-opacity:1;fill-rule:nonzero;stroke:none"
         id="path5068" />
    </g>
    <g
       id="g5070"
       transform="matrix(1.4935003,0,0,-1.4935003,155.18828,555.4957)">
      <path
         inkscape:connector-curvature="0"
         d="M 0,0 C 0,1.686 -0.049,1.93 -0.929,2.102 -1.1,2.126 -1.466,2.15 -1.661,2.15 c -0.074,0 -0.172,0.098 -0.172,0.17 0,0.147 0.098,0.172 0.343,0.172 0.976,0 2.419,-0.05 2.541,-0.05 0.098,0 1.441,0.05 2.1,0.05 0.245,0 0.344,-0.025 0.344,-0.172 C 3.495,2.248 3.396,2.15 3.323,2.15 3.176,2.15 3.03,2.15 2.786,2.102 2.199,2.004 2.028,1.686 1.98,0.952 1.955,0.293 1.955,-0.318 1.955,-1.197 l 0,-2.322 c 0,-0.953 -0.025,-0.978 -0.294,-1.124 -1.367,-0.709 -3.322,-0.929 -4.568,-0.929 -1.638,0 -4.693,0.196 -7.087,2.224 -1.319,1.1 -2.566,3.323 -2.566,5.914 0,3.323 1.686,5.668 3.593,6.817 1.93,1.174 4.079,1.319 5.717,1.319 1.369,0 2.883,-0.245 3.298,-0.343 0.44,-0.097 1.198,-0.22 1.735,-0.22 0.22,0 0.269,-0.097 0.269,-0.195 C 2.052,9.65 1.93,9.089 1.93,7.012 1.93,6.67 1.833,6.572 1.686,6.572 1.564,6.572 1.54,6.694 1.54,6.891 1.515,7.158 1.393,7.77 1.051,8.258 c -0.537,0.783 -2.175,1.614 -4.96,1.614 -1.296,0 -2.86,-0.1 -4.496,-1.345 -1.248,-0.953 -2.126,-2.809 -2.126,-5.229 0,-2.932 1.514,-5.033 2.273,-5.741 1.711,-1.589 3.519,-2.175 5.496,-2.175 0.758,0 1.761,0.073 2.322,0.39 C -0.171,-4.081 0,-3.983 0,-3.592 L 0,0 z"
         style="fill:#005daa;fill-opacity:1;fill-rule:nonzero;stroke:none"
         id="path5072" />
    </g>
    <g
       id="g5074"
       transform="matrix(1.4935003,0,0,-1.4935003,178.3223,562.54025)">
      <path
         inkscape:connector-curvature="0"
         d="m 0,0 c 1.931,0 5.816,1.026 5.816,7.037 0,4.985 -3.03,7.6 -6.426,7.6 -3.593,0 -6.182,-2.248 -6.182,-6.769 C -6.792,3.031 -3.884,0 0,0 m -0.488,15.419 c 4.837,0 8.503,-2.956 8.503,-7.796 0,-4.642 -3.445,-8.478 -8.625,-8.478 -5.89,0 -8.406,4.422 -8.406,8.161 0,3.347 2.59,8.113 8.528,8.113"
         style="fill:#005daa;fill-opacity:1;fill-rule:nonzero;stroke:none"
         id="path5076" />
    </g>
    <g
       id="g5078"
       transform="matrix(1.4935003,0,0,-1.4935003,132.78951,535.30867)">
      <path
         inkscape:connector-curvature="0"
         d="m 0,0 c 0.105,-0.159 0.265,-0.238 0.478,-0.238 0.287,0 0.571,0.077 0.853,0.23 0.281,0.154 0.551,0.355 0.812,0.606 0.26,0.249 0.501,0.534 0.726,0.851 C 3.091,1.769 3.284,2.098 3.45,2.438 3.615,2.777 3.744,3.11 3.84,3.434 3.936,3.759 3.983,4.053 3.983,4.317 3.983,4.54 3.928,4.729 3.817,4.883 3.704,5.037 3.532,5.114 3.298,5.114 3.075,5.114 2.836,5.043 2.581,4.899 2.326,4.757 2.068,4.567 1.809,4.334 1.548,4.101 1.301,3.829 1.068,3.521 0.833,3.212 0.624,2.894 0.437,2.565 0.252,2.235 0.105,1.907 0,1.576 -0.106,1.248 -0.159,0.939 -0.159,0.653 -0.159,0.377 -0.106,0.159 0,0 M 7.854,3.728 C 7.6,3.442 7.313,3.212 6.996,3.043 6.676,2.873 6.363,2.788 6.055,2.788 5.757,2.788 5.502,2.854 5.29,2.988 5.077,3.12 4.913,3.277 4.796,3.457 l -0.033,0 C 4.657,3.054 4.461,2.623 4.174,2.166 3.888,1.71 3.545,1.29 3.146,0.908 2.749,0.526 2.31,0.207 1.833,-0.047 1.354,-0.304 0.866,-0.431 0.367,-0.431 c -0.456,0 -0.803,0.133 -1.036,0.4 -0.234,0.264 -0.351,0.62 -0.351,1.066 0,0.235 0.058,0.505 0.175,0.814 0.117,0.307 0.279,0.618 0.487,0.931 0.207,0.314 0.451,0.622 0.732,0.925 0.282,0.303 0.587,0.573 0.917,0.812 0.328,0.24 0.677,0.43 1.043,0.575 0.367,0.143 0.735,0.214 1.108,0.214 0.435,0 0.772,-0.127 1.012,-0.382 C 4.692,4.668 4.822,4.34 4.844,3.935 4.866,3.69 4.979,3.466 5.187,3.259 5.393,3.053 5.678,2.948 6.038,2.948 c 0.319,0 0.619,0.079 0.901,0.239 0.281,0.16 0.544,0.366 0.788,0.621 l 0.127,-0.08 z"
         style="fill:#005daa;fill-opacity:1;fill-rule:nonzero;stroke:none"
         id="path5080" />
    </g>
    <g
       id="g5082"
       transform="matrix(1.4935003,0,0,-1.4935003,143.73553,527.86013)">
      <path
         inkscape:connector-curvature="0"
         d="m 0,0 0,0.191 1.227,0 C 1.64,0.85 2.065,1.514 2.501,2.183 2.937,2.853 3.395,3.454 3.873,3.99 4.35,4.526 4.849,4.963 5.37,5.298 5.889,5.631 6.437,5.799 7.011,5.799 7.35,5.799 7.626,5.729 7.839,5.584 8.05,5.44 8.158,5.22 8.158,4.924 8.158,4.669 8.078,4.459 7.919,4.293 7.759,4.129 7.558,4.036 7.314,4.015 c 0.042,0.148 0.077,0.29 0.103,0.423 0.027,0.132 0.04,0.288 0.04,0.469 0,0.212 -0.051,0.384 -0.152,0.51 C 7.205,5.544 7.032,5.608 6.788,5.608 6.395,5.608 5.993,5.43 5.584,5.075 5.176,4.719 4.771,4.27 4.374,3.728 3.975,3.186 3.588,2.599 3.21,1.969 2.833,1.335 2.476,0.744 2.136,0.191 l 3.6,0 L 5.736,0 2.04,0 C 1.02,-1.742 0.106,-3.235 -0.702,-4.478 -1.508,-5.721 -2.285,-6.74 -3.028,-7.535 c -0.743,-0.799 -1.486,-1.383 -2.229,-1.754 -0.745,-0.372 -1.568,-0.558 -2.47,-0.558 -0.319,0 -0.624,0.04 -0.917,0.12 -0.292,0.079 -0.549,0.199 -0.773,0.358 -0.223,0.159 -0.404,0.357 -0.541,0.598 -0.138,0.24 -0.207,0.517 -0.207,0.835 0,0.416 0.129,0.769 0.39,1.06 0.26,0.292 0.699,0.438 1.315,0.438 l 0.143,0 0,-0.127 c -0.318,-0.021 -0.589,-0.143 -0.812,-0.366 -0.224,-0.223 -0.336,-0.532 -0.336,-0.924 0,-0.551 0.155,-0.991 0.464,-1.315 0.307,-0.324 0.758,-0.485 1.353,-0.485 0.574,0 1.121,0.13 1.641,0.389 0.521,0.26 1.023,0.62 1.506,1.075 0.483,0.459 0.956,0.994 1.417,1.611 0.463,0.616 0.925,1.282 1.386,1.998 0.463,0.718 0.928,1.467 1.396,2.248 0.466,0.78 0.945,1.559 1.433,2.334 L 0,0 z"
         style="fill:#005daa;fill-opacity:1;fill-rule:nonzero;stroke:none"
         id="path5084" />
    </g>
    <g
       id="g5086"
       transform="matrix(1.4935003,0,0,-1.4935003,190.91207,568.72423)">
      <path
         inkscape:connector-curvature="0"
         d="M 0,0 -83.505,0 0,0 z"
         style="fill:#005daa;fill-opacity:1;fill-rule:nonzero;stroke:none"
         id="path5088" />
    </g>
    <g
       id="g5090"
       transform="matrix(1.4935003,0,0,-1.4935003,190.91207,568.72423)">
      <path
         style="font-size:medium;font-style:normal;font-variant:normal;font-weight:normal;font-stretch:normal;text-indent:0;text-align:start;text-decoration:none;line-height:normal;letter-spacing:normal;word-spacing:normal;text-transform:none;direction:ltr;block-progression:tb;writing-mode:lr-tb;text-anchor:start;baseline-shift:baseline;color:#000000;fill:#005daa;fill-opacity:1;stroke:none;stroke-width:1;marker:none;visibility:visible;display:inline;overflow:visible;enable-background:accumulate;font-family:Sans;-inkscape-font-specification:Sans"
         d="m -83.5,-0.5 0,1 83.5,0 0,-1 -83.5,0 z"
         id="path5092"
         inkscape:connector-curvature="0" />
    </g>
    <g
       id="g5094"
       transform="matrix(1.4935003,0,0,-1.4935003,190.91207,580.00435)">
      <path
         inkscape:connector-curvature="0"
         d="M 0,0 -83.505,0 0,0 z"
         style="fill:#005daa;fill-opacity:1;fill-rule:nonzero;stroke:none"
         id="path5096" />
    </g>
    <g
       id="g5098"
       transform="matrix(1.4935003,0,0,-1.4935003,190.91207,580.00435)">
      <path
         style="font-size:medium;font-style:normal;font-variant:normal;font-weight:normal;font-stretch:normal;text-indent:0;text-align:start;text-decoration:none;line-height:normal;letter-spacing:normal;word-spacing:normal;text-transform:none;direction:ltr;block-progression:tb;writing-mode:lr-tb;text-anchor:start;baseline-shift:baseline;color:#000000;fill:#005daa;fill-opacity:1;stroke:none;stroke-width:1;marker:none;visibility:visible;display:inline;overflow:visible;enable-background:accumulate;font-family:Sans;-inkscape-font-specification:Sans"
         d="m -83.5,-0.5 0,1 83.5,0 0,-1 -83.5,0 z"
         id="path5100"
         inkscape:connector-curvature="0" />
    </g>
    <g
       id="g5102"
       transform="matrix(1.4935003,0,0,-1.4935003,96.7143,576.34496)">
      <path
         inkscape:connector-curvature="0"
         d="m 0,0 0.022,0 c 0.118,0.376 0.541,1.695 0.708,2.28 0.049,0.172 0.053,0.225 0.053,0.284 0,0.081 -0.037,0.134 -0.252,0.134 -0.027,0 -0.043,0.027 -0.043,0.043 0,0.022 0.022,0.032 0.081,0.032 0.241,0 0.44,-0.01 0.483,-0.01 0.032,0 0.235,0.01 0.381,0.01 0.044,0 0.064,-0.01 0.064,-0.027 C 1.497,2.725 1.486,2.698 1.453,2.698 1.437,2.698 1.346,2.692 1.293,2.677 1.153,2.629 1.078,2.446 0.987,2.194 0.779,1.614 0.312,0.167 0.123,-0.344 0,-0.681 -0.027,-0.735 -0.081,-0.735 c -0.047,0 -0.091,0.059 -0.155,0.237 l -0.923,2.494 c -0.161,-0.397 -0.799,-2.066 -0.97,-2.49 -0.081,-0.193 -0.113,-0.241 -0.166,-0.241 -0.049,0 -0.086,0.048 -0.183,0.359 l -0.836,2.703 c -0.076,0.243 -0.124,0.302 -0.248,0.345 -0.065,0.02 -0.182,0.026 -0.214,0.026 -0.023,0 -0.044,0.017 -0.044,0.043 0,0.022 0.032,0.032 0.076,0.032 0.246,0 0.51,-0.01 0.558,-0.01 0.042,0 0.257,0.01 0.493,0.01 0.065,0 0.087,-0.01 0.087,-0.032 0,-0.026 -0.028,-0.043 -0.049,-0.043 -0.038,0 -0.113,0 -0.167,-0.026 -0.032,-0.011 -0.065,-0.038 -0.065,-0.098 0,-0.057 0.04,-0.219 0.092,-0.423 C -2.719,1.862 -2.237,0.188 -2.178,0 l 0.011,0 0.986,2.549 c 0.07,0.182 0.104,0.208 0.13,0.208 0.031,0 0.07,-0.059 0.129,-0.214 L 0,0 z"
         style="fill:#005daa;fill-opacity:1;fill-rule:nonzero;stroke:none"
         id="path5104" />
    </g>
    <g
       id="g5106"
       transform="matrix(1.4935003,0,0,-1.4935003,104.46841,576.34496)">
      <path
         inkscape:connector-curvature="0"
         d="m 0,0 0.022,0 c 0.118,0.376 0.541,1.695 0.708,2.28 0.048,0.172 0.055,0.225 0.055,0.284 0,0.081 -0.038,0.134 -0.253,0.134 -0.027,0 -0.043,0.027 -0.043,0.043 0,0.022 0.02,0.032 0.08,0.032 0.241,0 0.44,-0.01 0.483,-0.01 0.032,0 0.236,0.01 0.381,0.01 0.044,0 0.064,-0.01 0.064,-0.027 C 1.497,2.725 1.487,2.698 1.455,2.698 1.438,2.698 1.346,2.692 1.294,2.677 1.154,2.629 1.079,2.446 0.987,2.194 0.778,1.614 0.312,0.167 0.124,-0.344 0,-0.681 -0.027,-0.735 -0.08,-0.735 c -0.048,0 -0.092,0.059 -0.156,0.237 l -0.921,2.494 c -0.162,-0.397 -0.801,-2.066 -0.972,-2.49 -0.08,-0.193 -0.113,-0.241 -0.166,-0.241 -0.049,0 -0.086,0.048 -0.183,0.359 l -0.836,2.703 c -0.077,0.243 -0.124,0.302 -0.249,0.345 -0.063,0.02 -0.181,0.026 -0.213,0.026 -0.022,0 -0.042,0.017 -0.042,0.043 0,0.022 0.031,0.032 0.074,0.032 0.246,0 0.51,-0.01 0.558,-0.01 0.043,0 0.257,0.01 0.494,0.01 0.064,0 0.086,-0.01 0.086,-0.032 0,-0.026 -0.028,-0.043 -0.049,-0.043 -0.037,0 -0.113,0 -0.167,-0.026 -0.032,-0.011 -0.063,-0.038 -0.063,-0.098 0,-0.057 0.038,-0.219 0.09,-0.423 C -2.719,1.862 -2.237,0.188 -2.178,0 l 0.011,0 0.987,2.549 c 0.07,0.182 0.103,0.208 0.129,0.208 0.031,0 0.07,-0.059 0.129,-0.214 L 0,0 z"
         style="fill:#005daa;fill-opacity:1;fill-rule:nonzero;stroke:none"
         id="path5108" />
    </g>
    <g
       id="g5110"
       transform="matrix(1.4935003,0,0,-1.4935003,112.22251,576.34496)">
      <path
         inkscape:connector-curvature="0"
         d="m 0,0 0.022,0 c 0.119,0.376 0.543,1.695 0.708,2.28 0.049,0.172 0.055,0.225 0.055,0.284 0,0.081 -0.038,0.134 -0.252,0.134 -0.028,0 -0.044,0.027 -0.044,0.043 0,0.022 0.021,0.032 0.08,0.032 0.242,0 0.441,-0.01 0.484,-0.01 0.032,0 0.235,0.01 0.381,0.01 0.042,0 0.064,-0.01 0.064,-0.027 C 1.498,2.725 1.487,2.698 1.455,2.698 1.438,2.698 1.348,2.692 1.294,2.677 1.154,2.629 1.079,2.446 0.988,2.194 0.779,1.614 0.312,0.167 0.125,-0.344 0,-0.681 -0.027,-0.735 -0.08,-0.735 c -0.048,0 -0.09,0.059 -0.156,0.237 l -0.921,2.494 c -0.162,-0.397 -0.8,-2.066 -0.971,-2.49 -0.081,-0.193 -0.113,-0.241 -0.167,-0.241 -0.049,0 -0.086,0.048 -0.183,0.359 l -0.836,2.703 c -0.076,0.243 -0.124,0.302 -0.248,0.345 -0.064,0.02 -0.182,0.026 -0.213,0.026 -0.023,0 -0.043,0.017 -0.043,0.043 0,0.022 0.032,0.032 0.074,0.032 0.247,0 0.511,-0.01 0.558,-0.01 0.043,0 0.258,0.01 0.494,0.01 0.064,0 0.086,-0.01 0.086,-0.032 0,-0.026 -0.028,-0.043 -0.049,-0.043 -0.037,0 -0.113,0 -0.166,-0.026 -0.032,-0.011 -0.065,-0.038 -0.065,-0.098 0,-0.057 0.039,-0.219 0.092,-0.423 C -2.719,1.862 -2.237,0.188 -2.178,0 l 0.011,0 0.988,2.549 c 0.069,0.182 0.101,0.208 0.128,0.208 0.033,0 0.07,-0.059 0.129,-0.214 L 0,0 z"
         style="fill:#005daa;fill-opacity:1;fill-rule:nonzero;stroke:none"
         id="path5112" />
    </g>
    <g
       id="g5114"
       transform="matrix(1.4935003,0,0,-1.4935003,114.11343,576.89039)">
      <path
         inkscape:connector-curvature="0"
         d="m 0,0 c 0,0.125 0.086,0.295 0.294,0.295 0.167,0 0.295,-0.107 0.295,-0.278 0,-0.172 -0.118,-0.311 -0.299,-0.311 C 0.086,-0.294 0,-0.133 0,0"
         style="fill:#005daa;fill-opacity:1;fill-rule:nonzero;stroke:none"
         id="path5116" />
    </g>
    <g
       id="g5118"
       transform="matrix(1.4935003,0,0,-1.4935003,117.65318,575.04682)">
      <path
         inkscape:connector-curvature="0"
         d="m 0,0 c 0,-0.789 0.021,-1.131 0.118,-1.229 0.087,-0.086 0.226,-0.123 0.645,-0.123 0.284,0 0.52,0.005 0.65,0.162 0.068,0.086 0.122,0.218 0.137,0.321 0.006,0.044 0.017,0.07 0.05,0.07 0.026,0 0.032,-0.022 0.032,-0.081 0,-0.059 -0.038,-0.381 -0.082,-0.535 -0.036,-0.124 -0.052,-0.147 -0.337,-0.147 -0.386,0 -0.665,0.012 -0.89,0.017 -0.225,0.012 -0.392,0.017 -0.548,0.017 -0.021,0 -0.112,-0.005 -0.219,-0.005 -0.109,-0.006 -0.226,-0.012 -0.306,-0.012 -0.06,0 -0.087,0.012 -0.087,0.043 0,0.017 0.012,0.032 0.044,0.032 0.047,0 0.112,0.011 0.161,0.022 0.107,0.021 0.134,0.139 0.156,0.295 0.026,0.224 0.026,0.648 0.026,1.163 l 0,0.945 c 0,0.837 0,0.987 -0.01,1.159 -0.011,0.181 -0.054,0.268 -0.23,0.305 -0.044,0.013 -0.135,0.017 -0.183,0.017 -0.022,0 -0.044,0.011 -0.044,0.031 0,0.033 0.028,0.044 0.086,0.044 0.243,0 0.58,-0.016 0.606,-0.016 0.027,0 0.418,0.016 0.58,0.016 C 0.414,2.511 0.44,2.5 0.44,2.467 0.44,2.447 0.42,2.436 0.397,2.436 0.361,2.436 0.286,2.432 0.221,2.419 0.065,2.392 0.021,2.301 0.011,2.114 0,1.942 0,1.792 0,0.955 L 0,0 z"
         style="fill:#005daa;fill-opacity:1;fill-rule:nonzero;stroke:none"
         id="path5120" />
    </g>
    <g
       id="g5122"
       transform="matrix(1.4935003,0,0,-1.4935003,123.48649,575.17526)">
      <path
         inkscape:connector-curvature="0"
         d="m 0,0 c 0.021,0 0.021,0.011 0.016,0.032 l -0.467,1.25 c -0.027,0.071 -0.053,0.071 -0.08,0 l -0.44,-1.25 C -0.977,0.011 -0.971,0 -0.956,0 L 0,0 z m -0.525,1.899 c 0.058,0.151 0.08,0.178 0.112,0.178 0.048,0 0.063,-0.065 0.113,-0.168 0.084,-0.193 0.842,-2.076 1.132,-2.766 0.172,-0.409 0.3,-0.468 0.401,-0.5 0.069,-0.022 0.14,-0.027 0.189,-0.027 0.026,0 0.057,-0.011 0.057,-0.039 0,-0.024 -0.052,-0.036 -0.106,-0.036 -0.071,0 -0.418,0 -0.745,0.012 -0.092,0.005 -0.166,0.005 -0.166,0.031 0,0.021 0.011,0.021 0.031,0.032 0.028,0.011 0.076,0.049 0.043,0.123 l -0.424,1.047 c -0.01,0.022 -0.016,0.026 -0.043,0.026 l -1.089,0 c -0.02,0 -0.036,-0.01 -0.048,-0.038 l -0.267,-0.729 c -0.043,-0.112 -0.07,-0.225 -0.07,-0.306 0,-0.091 0.08,-0.123 0.16,-0.123 l 0.043,0 c 0.037,0 0.049,-0.015 0.049,-0.039 0,-0.024 -0.028,-0.036 -0.07,-0.036 -0.112,0 -0.371,0.017 -0.423,0.017 -0.049,0 -0.285,-0.017 -0.479,-0.017 -0.059,0 -0.09,0.012 -0.09,0.036 0,0.024 0.022,0.039 0.042,0.039 0.032,0 0.102,0.005 0.139,0.011 0.216,0.026 0.307,0.187 0.398,0.418 l 1.111,2.854 z"
         style="fill:#005daa;fill-opacity:1;fill-rule:nonzero;stroke:none"
         id="path5124" />
    </g>
    <g
       id="g5126"
       transform="matrix(1.4935003,0,0,-1.4935003,127.23547,574.7508)">
      <path
         inkscape:connector-curvature="0"
         d="m 0,0 c 0,-0.027 0.01,-0.042 0.031,-0.059 0.071,-0.037 0.312,-0.07 0.52,-0.07 0.114,0 0.243,0.006 0.355,0.081 C 1.067,0.06 1.191,0.301 1.191,0.65 1.191,1.217 0.879,1.545 0.375,1.545 0.236,1.545 0.085,1.53 0.037,1.518 0.015,1.507 0,1.492 0,1.466 L 0,0 z m -0.407,0.386 c 0,0.708 0,0.838 -0.012,0.983 -0.012,0.155 -0.037,0.231 -0.193,0.252 -0.037,0.004 -0.117,0.01 -0.16,0.01 -0.017,0 -0.038,0.022 -0.038,0.037 0,0.027 0.021,0.038 0.073,0.038 0.216,0 0.533,-0.011 0.561,-0.011 0.048,0 0.443,0.011 0.59,0.011 0.299,0 0.632,-0.027 0.878,-0.199 C 1.41,1.422 1.62,1.201 1.62,0.886 1.62,0.547 1.48,0.221 1.041,-0.155 c 0.385,-0.484 0.713,-0.896 0.987,-1.18 0.251,-0.259 0.407,-0.301 0.525,-0.317 0.092,-0.016 0.14,-0.016 0.166,-0.016 0.028,0 0.044,-0.022 0.044,-0.039 0,-0.024 -0.027,-0.036 -0.114,-0.036 l -0.294,0 c -0.269,0 -0.386,0.027 -0.504,0.091 -0.205,0.107 -0.376,0.328 -0.643,0.672 -0.2,0.246 -0.409,0.541 -0.512,0.664 -0.02,0.021 -0.031,0.026 -0.063,0.026 L 0.031,-0.279 C 0.01,-0.279 0,-0.29 0,-0.316 l 0,-0.108 c 0,-0.439 0,-0.793 0.021,-0.98 0.016,-0.136 0.043,-0.221 0.187,-0.242 0.065,-0.011 0.167,-0.022 0.209,-0.022 0.033,0 0.039,-0.022 0.039,-0.039 0,-0.02 -0.022,-0.036 -0.076,-0.036 -0.256,0 -0.556,0.016 -0.579,0.016 -0.005,0 -0.322,-0.016 -0.467,-0.016 -0.047,0 -0.075,0.012 -0.075,0.036 0,0.017 0.012,0.039 0.037,0.039 0.044,0 0.104,0.011 0.145,0.022 0.093,0.021 0.103,0.106 0.124,0.242 0.028,0.187 0.028,0.547 0.028,0.986 l 0,0.804 z"
         style="fill:#005daa;fill-opacity:1;fill-rule:nonzero;stroke:none"
         id="path5128" />
    </g>
    <g
       id="g5130"
       transform="matrix(1.4935003,0,0,-1.4935003,135.43733,575.61718)">
      <path
         inkscape:connector-curvature="0"
         d="m 0,0 c 0,0.371 -0.01,0.425 -0.203,0.462 -0.038,0.006 -0.119,0.011 -0.161,0.011 -0.017,0 -0.037,0.021 -0.037,0.037 0,0.032 0.02,0.039 0.074,0.039 0.215,0 0.532,-0.011 0.558,-0.011 0.021,0 0.317,0.011 0.462,0.011 0.053,0 0.075,-0.007 0.075,-0.039 0,-0.016 -0.022,-0.037 -0.038,-0.037 -0.031,0 -0.064,0 -0.118,-0.011 C 0.483,0.44 0.447,0.371 0.434,0.21 0.43,0.066 0.43,-0.068 0.43,-0.262 l 0,-0.509 c 0,-0.21 -0.006,-0.214 -0.065,-0.247 -0.3,-0.156 -0.729,-0.205 -1.003,-0.205 -0.359,0 -1.029,0.043 -1.556,0.49 -0.289,0.241 -0.563,0.727 -0.563,1.296 0,0.732 0.371,1.247 0.789,1.499 0.425,0.256 0.896,0.288 1.256,0.288 0.299,0 0.633,-0.053 0.723,-0.075 C 0.108,2.254 0.275,2.228 0.393,2.228 0.44,2.228 0.451,2.205 0.451,2.185 0.451,2.12 0.424,1.996 0.424,1.541 0.424,1.466 0.403,1.443 0.371,1.443 0.344,1.443 0.339,1.471 0.339,1.514 0.333,1.572 0.307,1.707 0.231,1.814 0.114,1.986 -0.247,2.168 -0.857,2.168 c -0.286,0 -0.628,-0.022 -0.988,-0.294 -0.274,-0.21 -0.467,-0.618 -0.467,-1.149 0,-0.643 0.333,-1.105 0.5,-1.261 0.375,-0.348 0.772,-0.478 1.207,-0.478 0.166,0 0.385,0.018 0.508,0.087 C -0.037,-0.895 0,-0.873 0,-0.787 L 0,0 z"
         style="fill:#005daa;fill-opacity:1;fill-rule:nonzero;stroke:none"
         id="path5132" />
    </g>
    <g
       id="g5134"
       transform="matrix(1.4935003,0,0,-1.4935003,140.35544,577.16027)">
      <path
         inkscape:connector-curvature="0"
         d="m 0,0 c 0.426,0 1.277,0.225 1.277,1.543 0,1.096 -0.665,1.67 -1.41,1.67 -0.788,0 -1.358,-0.494 -1.358,-1.486 C -1.491,0.663 -0.852,0 0,0 m -0.105,3.383 c 1.061,0 1.866,-0.649 1.866,-1.71 0,-1.02 -0.757,-1.862 -1.894,-1.862 -1.293,0 -1.845,0.97 -1.845,1.791 0,0.736 0.568,1.781 1.873,1.781"
         style="fill:#005daa;fill-opacity:1;fill-rule:nonzero;stroke:none"
         id="path5136" />
    </g>
    <g
       id="g5138"
       transform="matrix(1.4935003,0,0,-1.4935003,143.9936,576.89039)">
      <path
         inkscape:connector-curvature="0"
         d="m 0,0 c 0,0.125 0.086,0.295 0.294,0.295 0.167,0 0.295,-0.107 0.295,-0.278 0,-0.172 -0.118,-0.311 -0.3,-0.311 C 0.086,-0.294 0,-0.133 0,0"
         style="fill:#005daa;fill-opacity:1;fill-rule:nonzero;stroke:none"
         id="path5140" />
    </g>
    <g
       id="g5142"
       transform="matrix(1.4935003,0,0,-1.4935003,146.73342,576.71252)">
      <path
         inkscape:connector-curvature="0"
         d="m 0,0 c -0.461,0.397 -0.574,0.917 -0.574,1.352 0,0.305 0.113,0.836 0.531,1.243 C 0.241,2.869 0.67,3.083 1.395,3.083 1.583,3.083 1.85,3.069 2.081,3.03 2.258,2.997 2.409,2.967 2.564,2.961 2.612,2.961 2.623,2.938 2.623,2.913 2.623,2.875 2.612,2.82 2.602,2.654 2.596,2.505 2.596,2.252 2.59,2.188 2.586,2.119 2.564,2.091 2.537,2.091 2.505,2.091 2.5,2.123 2.5,2.188 2.5,2.364 2.424,2.548 2.302,2.645 2.135,2.784 1.791,2.897 1.373,2.897 0.767,2.897 0.478,2.735 0.311,2.579 -0.039,2.259 -0.112,1.852 -0.112,1.39 c 0,-0.875 0.691,-1.653 1.7,-1.653 0.354,0 0.59,0.027 0.777,0.214 0.102,0.103 0.167,0.295 0.183,0.382 0.011,0.047 0.016,0.064 0.048,0.064 0.023,0 0.043,-0.034 0.043,-0.064 C 2.639,0.3 2.575,-0.098 2.526,-0.252 2.5,-0.339 2.488,-0.354 2.409,-0.387 2.215,-0.462 1.862,-0.489 1.555,-0.489 0.847,-0.489 0.37,-0.322 0,0"
         style="fill:#005daa;fill-opacity:1;fill-rule:nonzero;stroke:none"
         id="path5144" />
    </g>
    <g
       id="g5146"
       transform="matrix(1.4935003,0,0,-1.4935003,154.43287,577.16027)">
      <path
         inkscape:connector-curvature="0"
         d="m 0,0 c 0.423,0 1.277,0.225 1.277,1.543 0,1.096 -0.665,1.67 -1.411,1.67 -0.789,0 -1.357,-0.494 -1.357,-1.486 C -1.491,0.663 -0.854,0 0,0 m -0.108,3.383 c 1.063,0 1.866,-0.649 1.866,-1.71 0,-1.02 -0.755,-1.862 -1.892,-1.862 -1.293,0 -1.846,0.97 -1.846,1.791 0,0.736 0.569,1.781 1.872,1.781"
         style="fill:#005daa;fill-opacity:1;fill-rule:nonzero;stroke:none"
         id="path5148" />
    </g>
    <g
       id="g5150"
       transform="matrix(1.4935003,0,0,-1.4935003,163.95901,576.47177)">
      <path
         inkscape:connector-curvature="0"
         d="m 0,0 c 0.016,-0.161 0.047,-0.409 0.241,-0.473 0.134,-0.043 0.257,-0.043 0.306,-0.043 0.019,0 0.037,-0.01 0.037,-0.032 0,-0.026 -0.043,-0.043 -0.097,-0.043 -0.108,0 -0.633,0.012 -0.804,0.028 -0.113,0.008 -0.135,0.025 -0.135,0.047 0,0.016 0.012,0.033 0.033,0.037 0.027,0.006 0.032,0.076 0.022,0.162 l -0.227,2.307 -0.01,0 -1.137,-2.329 c -0.098,-0.199 -0.124,-0.24 -0.167,-0.24 -0.042,0 -0.069,0.041 -0.16,0.208 -0.125,0.225 -0.435,0.809 -0.552,1.057 -0.14,0.29 -0.522,1.057 -0.602,1.244 l -0.022,0 -0.182,-2.061 c -0.005,-0.068 -0.005,-0.154 -0.005,-0.23 0,-0.069 0.043,-0.112 0.112,-0.128 0.08,-0.022 0.152,-0.027 0.183,-0.027 0.016,0 0.038,-0.015 0.038,-0.032 0,-0.031 -0.034,-0.043 -0.086,-0.043 -0.177,0 -0.402,0.017 -0.44,0.017 -0.043,0 -0.268,-0.017 -0.397,-0.017 -0.049,0 -0.081,0.012 -0.081,0.043 0,0.017 0.021,0.032 0.049,0.032 0.038,0 0.07,0.005 0.14,0.016 0.155,0.027 0.16,0.193 0.182,0.365 l 0.343,2.977 c 0.005,0.049 0.027,0.08 0.054,0.08 0.031,0 0.069,-0.014 0.095,-0.068 l 1.428,-2.833 1.373,2.827 c 0.022,0.043 0.044,0.074 0.076,0.074 0.031,0 0.059,-0.036 0.069,-0.122 L 0,0 z"
         style="fill:#005daa;fill-opacity:1;fill-rule:nonzero;stroke:none"
         id="path5152" />
    </g>
    <g
       id="g5154"
       transform="matrix(1.4935003,0,0,-1.4935003,60.836692,552.89373)">
      <path
         inkscape:connector-curvature="0"
         d="m 0,0 c -0.048,-0.295 -0.095,-0.564 -0.086,-0.868 -0.118,-0.658 -0.202,-1.326 -0.359,-1.962 -0.259,-1.149 -0.601,-2.148 -1.076,-3.204 -0.34,-0.71 -0.617,-1.488 -1.135,-2.128 -0.177,-0.34 -0.4,-0.656 -0.612,-0.999 -0.212,-0.157 -0.258,-0.415 -0.452,-0.583 -1.131,-1.498 -2.371,-2.674 -3.85,-3.815 -0.307,-0.228 -0.631,-0.441 -0.945,-0.655 -0.936,-0.638 -1.915,-1.165 -2.924,-1.6 -0.038,-0.102 -0.185,-0.037 -0.25,-0.102 -0.945,-0.389 -1.917,-0.703 -2.922,-0.897 -5.991,-1.361 -12.56,0.36 -17.047,4.497 -1.788,1.638 -3.241,3.646 -4.268,5.793 -0.063,0.24 -0.212,0.454 -0.287,0.685 -0.351,0.777 -0.61,1.565 -0.806,2.414 -0.037,0.037 -0.028,0.103 -0.044,0.158 -0.215,0.787 -0.399,1.619 -0.455,2.461 -0.277,1.907 -0.148,3.787 0.186,5.674 0.416,2.035 1.101,4.052 2.174,5.847 0.684,1.194 1.572,2.35 2.498,3.361 2.869,2.97 6.395,4.887 10.422,5.634 1.194,0.241 2.544,0.334 3.737,0.316 0.446,0.036 0.825,-0.01 1.269,-0.039 1.047,-0.054 2.1,-0.267 3.128,-0.498 0.277,-0.11 0.592,-0.148 0.879,-0.251 2.407,-0.712 4.517,-1.879 6.431,-3.468 0.536,-0.4 0.953,-0.91 1.471,-1.371 l 0.018,-0.046 c 0.601,-0.565 1.159,-1.288 1.666,-1.953 0.492,-0.575 0.833,-1.212 1.241,-1.84 0.23,-0.446 0.482,-0.863 0.666,-1.334 0.324,-0.62 0.575,-1.332 0.815,-1.999 C -0.649,6.479 -0.473,5.654 -0.299,4.869 -0.186,4.174 -0.067,3.526 -0.021,2.794 0.063,1.945 0.017,0.89 0,0 M 1.082,2.927 C 0.96,3.841 0.877,4.839 0.637,5.738 0.339,6.895 0.073,7.996 -0.445,9.051 -0.51,9.338 -0.659,9.589 -0.789,9.848 c -0.156,0.369 -0.368,0.702 -0.535,1.064 -0.158,0.185 -0.27,0.407 -0.37,0.618 -0.444,0.687 -0.869,1.296 -1.369,1.964 -0.195,0.295 -0.463,0.527 -0.657,0.805 -0.518,0.581 -1.066,1.099 -1.612,1.655 -0.174,0.112 -0.314,0.317 -0.509,0.407 -0.359,0.361 -0.805,0.696 -1.214,1.018 -1.72,1.305 -3.652,2.213 -5.717,2.869 -0.796,0.195 -1.573,0.509 -2.395,0.573 -1.584,0.325 -3.138,0.391 -4.786,0.288 -1.599,-0.091 -3.219,-0.416 -4.729,-0.841 -0.084,-0.113 -0.259,0.026 -0.259,-0.159 l -0.045,0.029 c -0.428,-0.121 -0.834,-0.279 -1.251,-0.417 l -0.119,-0.082 c -0.779,-0.259 -1.475,-0.649 -2.204,-1.028 -0.213,-0.122 -0.434,-0.268 -0.667,-0.371 -0.619,-0.416 -1.267,-0.861 -1.885,-1.285 -0.52,-0.417 -0.999,-0.87 -1.499,-1.297 -0.297,-0.314 -0.584,-0.621 -0.908,-0.887 -0.399,-0.539 -0.861,-0.973 -1.202,-1.519 -0.178,-0.11 -0.187,-0.342 -0.372,-0.461 -0.036,-0.049 -0.008,-0.14 -0.065,-0.159 -0.082,-0.092 -0.167,-0.185 -0.23,-0.305 -0.121,-0.149 -0.202,-0.334 -0.316,-0.49 -0.575,-0.871 -1.044,-1.795 -1.442,-2.749 -0.204,-0.361 -0.289,-0.785 -0.466,-1.166 -0.175,-0.443 -0.265,-0.943 -0.433,-1.39 -0.02,-0.35 -0.184,-0.636 -0.213,-0.997 -0.101,-0.168 -0.075,-0.371 -0.11,-0.566 -0.241,-0.998 -0.259,-1.999 -0.342,-3.045 -0.028,-0.166 0.054,-0.285 -0.011,-0.452 -0.046,-0.111 -0.008,-0.211 0.02,-0.315 -0.028,-0.276 0,-0.508 0.036,-0.776 -0.036,-0.391 0.063,-0.87 0.073,-1.294 0.122,-0.836 0.252,-1.687 0.446,-2.521 0.175,-0.129 0.017,-0.387 0.156,-0.515 -0.008,-0.234 0.149,-0.365 0.159,-0.584 0.229,-0.509 0.332,-1.112 0.601,-1.619 l -0.03,-0.02 c 0.899,-2.139 2.131,-4.164 3.769,-5.867 0.59,-0.618 1.249,-1.221 1.885,-1.758 0.168,-0.158 0.333,-0.24 0.494,-0.408 0.533,-0.389 1.128,-0.803 1.701,-1.166 0.935,-0.601 1.971,-1.092 2.961,-1.508 0.676,-0.24 1.334,-0.49 2.001,-0.711 0.536,-0.112 1.053,-0.269 1.571,-0.379 0.879,-0.187 1.834,-0.306 2.722,-0.364 0.98,-0.101 1.988,-0.055 2.943,0 0.582,0.075 1.229,0.094 1.783,0.24 1.631,0.224 3.111,0.734 4.572,1.324 2.001,0.908 3.832,2.129 5.518,3.638 1.36,1.205 2.619,2.738 3.601,4.304 0.239,0.416 0.498,0.815 0.681,1.268 0.493,0.852 0.806,1.796 1.158,2.702 0.038,0.056 0.01,0.147 0.066,0.195 0.518,1.665 0.859,3.375 0.943,5.164 L 1.09,0.527 c 0.036,0.75 0.048,1.619 -0.008,2.4"
         style="fill:#005daa;fill-opacity:1;fill-rule:nonzero;stroke:none"
         id="path5156" />
    </g>
    <g
       id="g5158"
       transform="matrix(1.4935003,0,0,-1.4935003,56.772578,549.54799)">
      <path
         inkscape:connector-curvature="0"
         d="M 0,0 C 0.065,-0.248 0.137,-0.5 0.222,-0.723 L 0.303,-0.797 C 0.684,-0.861 1.081,-0.769 1.452,-0.805 1.517,-0.979 1.285,-0.973 1.2,-1.083 1.017,-1.341 0.399,-1.359 0.583,-1.778 0.693,-2.045 0.805,-2.333 0.87,-2.627 l -0.102,0.008 c -0.25,0.194 -0.454,0.379 -0.725,0.556 -0.275,0.083 -0.442,-0.242 -0.665,-0.333 l -0.369,-0.278 c -0.158,0.065 0.028,0.202 0.02,0.324 0.128,0.221 0.136,0.498 0.284,0.712 0.038,0.195 -0.193,0.166 -0.276,0.279 -0.212,0.164 -0.483,0.267 -0.676,0.461 -0.017,0.044 0.019,0.076 0.056,0.093 0.369,-0.027 0.674,-0.056 1.037,-0.027 0.25,0.056 0.074,0.379 0.239,0.516 0.084,0.197 0.046,0.398 0.148,0.575 C -0.02,0.259 -0.056,0.082 0,0"
         style="fill:#005daa;fill-opacity:1;fill-rule:nonzero;stroke:none"
         id="path5160" />
    </g>
    <g
       id="g5162"
       transform="matrix(1.4935003,0,0,-1.4935003,8.7559466,549.8806)">
      <path
         inkscape:connector-curvature="0"
         d="M 0,0 C 0.02,-0.222 0.141,-0.416 0.195,-0.609 0.296,-0.703 0.426,-0.621 0.538,-0.656 0.759,-0.693 1.065,-0.621 1.314,-0.631 1.343,-0.656 1.363,-0.703 1.333,-0.74 1.065,-0.896 0.805,-1.109 0.547,-1.268 L 0.463,-1.397 c 0.039,-0.304 0.214,-0.554 0.313,-0.832 0,-0.094 0.096,-0.175 0.021,-0.26 -0.322,0.184 -0.537,0.491 -0.871,0.63 -0.267,-0.047 -0.443,-0.241 -0.656,-0.39 -0.074,-0.074 -0.111,-0.147 -0.213,-0.186 l -0.064,0.021 c 0.073,0.295 0.183,0.666 0.316,0.942 l -0.057,0.113 c -0.297,0.194 -0.631,0.415 -0.917,0.619 l 0.084,0.075 c 0.34,-0.019 0.73,-0.057 1.064,-0.011 l 0.111,0.122 c 0.028,0.186 0.073,0.342 0.111,0.536 0.073,0.111 -0.01,0.289 0.111,0.389 C -0.045,0.314 -0.045,0.129 0,0"
         style="fill:#005daa;fill-opacity:1;fill-rule:nonzero;stroke:none"
         id="path5164" />
    </g>
    <g
       id="g5166"
       transform="matrix(1.4935003,0,0,-1.4935003,30.869011,552.40805)">
      <path
         inkscape:connector-curvature="0"
         d="m 0,0 c -0.044,-0.065 -0.099,-0.157 -0.063,-0.251 0.222,-0.036 0.129,-0.369 0.379,-0.415 0.092,0.019 0.214,-0.148 0.259,0.009 0.027,0.25 0.362,0.222 0.49,0.398 0.195,0.111 0.407,0.176 0.611,0.268 0.267,-0.036 0.585,0 0.731,-0.25 C 2.316,-0.39 2.166,-0.176 2.045,-0.297 1.943,-0.325 1.963,-0.157 1.87,-0.214 L 1.778,-0.379 C 1.564,-0.222 1.446,-0.501 1.269,-0.489 1.232,-0.694 0.917,-0.595 1.002,-0.814 L 1.214,-0.927 C 1.204,-1.056 1.059,-0.974 0.992,-1.026 0.962,-1.112 0.796,-1.12 0.834,-1.249 0.992,-1.436 1.187,-1.233 1.371,-1.238 1.657,-1.222 1.943,-1.259 2.222,-1.361 2.296,-1.445 2.333,-1.563 2.296,-1.684 2.232,-1.693 2.222,-1.795 2.119,-1.759 2.073,-1.693 1.989,-1.693 1.926,-1.684 1.87,-1.612 1.897,-1.472 1.778,-1.464 1.629,-1.684 1.455,-1.389 1.269,-1.526 1.149,-1.521 0.946,-1.415 0.843,-1.546 0.926,-1.73 1.074,-1.962 1.278,-2.037 1.437,-2.165 1.343,-2.37 1.353,-2.545 1.26,-2.757 1.49,-2.889 1.437,-3.101 1.49,-3.166 1.408,-3.222 1.426,-3.297 1.417,-3.369 1.49,-3.546 1.353,-3.536 1.306,-3.498 1.269,-3.554 1.24,-3.591 c -0.036,0.019 -0.036,0.166 -0.129,0.157 -0.081,0.129 0.242,0.37 -0.065,0.399 0.046,0.146 0.186,0.278 0.13,0.481 C 1.13,-2.52 1.065,-2.501 1.037,-2.445 1.122,-2.277 1.009,-2.101 1.002,-1.942 0.89,-1.87 0.725,-1.889 0.648,-1.759 0.584,-1.808 0.547,-1.879 0.537,-1.962 0.547,-2.101 0.557,-2.269 0.602,-2.407 0.677,-2.757 0.381,-2.998 0.391,-3.322 0.325,-3.378 0.25,-3.369 0.177,-3.332 c 0.009,0.048 0.093,0.11 0.009,0.166 -0.018,0 -0.065,-0.019 -0.065,0.02 0,0.174 0.342,0.36 0.094,0.5 0.044,0.074 0.11,0.145 0.082,0.23 -0.027,0.065 -0.12,0.018 -0.147,0.083 -0.029,0.103 0.109,0.232 -0.038,0.287 -0.184,-0.084 -0.074,-0.433 -0.315,-0.38 -0.054,-0.111 -0.093,-0.231 -0.24,-0.22 -0.084,-0.14 0.121,-0.335 -0.045,-0.464 -0.02,-0.195 0.203,-0.481 -0.067,-0.583 0.047,-0.195 -0.213,-0.128 -0.221,-0.296 -0.073,0.11 -0.073,0.269 -0.111,0.398 -0.009,0.175 -0.009,0.351 0.167,0.445 0.109,0.09 -0.056,0.137 -0.094,0.184 0.038,0.119 0.278,0.223 0.094,0.333 0.035,0.15 0.222,0.157 0.258,0.314 -0.036,0.057 -0.093,0.057 -0.138,0.066 0.083,0.064 0.157,0.175 0.175,0.276 -0.037,0.049 -0.092,0.121 -0.056,0.165 0.112,0.115 0.39,0.124 0.335,0.363 -0.176,0.141 -0.335,-0.081 -0.501,-0.137 -0.157,0.082 -0.277,-0.167 -0.361,0 -0.184,-0.065 -0.285,-0.297 -0.508,-0.27 -0.111,-0.11 -0.186,-0.258 -0.307,-0.333 -0.073,0.055 -0.063,0.261 -0.213,0.205 0.049,0.11 0.187,0.172 0.297,0.239 0.343,0.333 0.788,0.566 1.314,0.482 0.094,-0.027 0.159,-0.112 0.268,-0.074 0.029,0.029 0.094,0.064 0.058,0.121 -0.021,0.138 -0.259,0.026 -0.215,0.186 0.057,0.027 0.104,0.099 0.074,0.146 -0.138,0.046 -0.303,-0.146 -0.434,-0.01 -0.11,-0.175 -0.297,-0.073 -0.435,-0.184 -0.156,0.1 -0.221,-0.091 -0.333,-0.148 -0.093,0.036 -0.185,0.157 -0.287,0.065 -0.028,-0.018 -0.044,-0.112 -0.065,-0.047 -0.011,0.23 0.251,0.324 0.417,0.436 0.268,-0.018 0.442,0.156 0.713,0.111 0.091,0.026 0.017,0.1 -0.01,0.138 -0.12,0 -0.175,0.158 -0.315,0.112 -0.055,0.054 0.046,0.176 -0.066,0.204 -0.11,-0.084 -0.222,-0.158 -0.35,-0.168 -0.111,0.214 -0.937,-0.276 -0.408,0.259 0.03,0.065 0.074,0.131 0.158,0.121 0.305,0.054 0.528,-0.176 0.824,-0.196 0.094,-0.11 0.204,-0.148 0.314,-0.054 0.102,-0.029 0.148,-0.212 0.251,-0.094 0.044,0.141 -0.009,0.288 0.091,0.416 C -0.11,0.081 0.01,0.103 0,0"
         style="fill:#ffffff;fill-opacity:1;fill-rule:nonzero;stroke:none"
         id="path5168" />
    </g>
    <g
       id="g5170"
       transform="matrix(1.4935003,0,0,-1.4935003,45.989208,552.99006)">
      <path
         inkscape:connector-curvature="0"
         d="M 0,0 C 0.194,0.139 0.426,0.011 0.604,-0.092 0.392,-0.157 0.176,-0.073 0,0 m -0.526,-0.332 -0.251,-0.075 c 0.011,0.085 0.157,0.102 0.196,0.202 l 0.019,0.168 c 0.119,-0.204 0.442,0.101 0.397,-0.221 l 0.035,-0.037 c -0.116,-0.048 -0.266,0.009 -0.396,-0.037 M -0.988,0.083 C -1.001,0.075 -1.014,0.065 -1.026,0.055 c 0.012,0.013 0.025,0.02 0.038,0.028 0.046,0.02 0.108,0.026 0.155,0.048 0.056,0 0.093,-0.038 0.14,-0.056 -0.088,-0.01 -0.209,0.045 -0.295,0.008 M 0.369,0.168 C 0.205,0.223 -0.017,0.158 -0.165,0.055 -0.351,-0.057 -0.545,0.084 -0.656,0.232 -0.833,0.324 -0.998,0.203 -1.166,0.148 -1.221,0.064 -1.442,0.064 -1.35,-0.092 c 0.249,-0.158 0.425,0.212 0.666,-0.019 -0.009,-0.13 -0.193,-0.157 -0.233,-0.278 -0.025,-0.055 -0.016,-0.13 0.04,-0.157 0.12,-0.063 0.212,0.046 0.315,0.074 0.238,0.065 0.545,-0.037 0.738,0.083 0.029,0.046 0.029,0.084 -0.009,0.131 0.131,0.035 0.286,-0.028 0.437,-0.01 0.1,0.01 0.175,0.101 0.183,0.195 C 0.695,0.064 0.52,0.103 0.369,0.168"
         style="fill:#005daa;fill-opacity:1;fill-rule:nonzero;stroke:none"
         id="path5172" />
    </g>
    <g
       id="g5174"
       transform="matrix(1.4935003,0,0,-1.4935003,44.513928,552.8661)">
      <path
         inkscape:connector-curvature="0"
         d="M 0,0 C -0.013,-0.008 -0.026,-0.015 -0.039,-0.028 -0.026,-0.018 -0.013,-0.008 0,0"
         style="fill:#ffffff;fill-opacity:1;fill-rule:nonzero;stroke:none"
         id="path5176" />
    </g>
    <g
       id="g5178"
       transform="matrix(1.4935003,0,0,-1.4935003,32.75112,554.06926)">
      <path
         inkscape:connector-curvature="0"
         d="M 0,0 0.008,0.01 0.028,0 0,0 z"
         style="fill:#ffffff;fill-opacity:1;fill-rule:nonzero;stroke:none"
         id="path5180" />
    </g>
    <g
       id="g5182"
       transform="matrix(1.4935003,0,0,-1.4935003,32.611926,554.09555)">
      <path
         inkscape:connector-curvature="0"
         d="m 0,0 c 0.009,-0.027 -0.027,-0.035 -0.056,-0.027 l -0.037,0 C -0.084,0 -0.037,0.01 0,0"
         style="fill:#ffffff;fill-opacity:1;fill-rule:nonzero;stroke:none"
         id="path5184" />
    </g>
    <g
       id="g5186"
       transform="matrix(1.4935003,0,0,-1.4935003,36.717559,554.77091)">
      <path
         inkscape:connector-curvature="0"
         d="M 0,0 C 0.019,-0.049 0.019,-0.111 0.083,-0.12 0.408,-0.111 0.508,0.36 0.879,0.202 1.137,0.093 1.415,0 1.72,0.056 1.758,0 1.915,0 1.859,-0.085 1.673,-0.14 1.526,-0.335 1.315,-0.288 c -0.067,-0.028 -0.021,-0.092 0,-0.131 0.146,-0.257 0.462,-0.164 0.564,-0.425 -0.102,-0.063 -0.206,0.065 -0.327,0.019 -0.091,0.251 -0.397,0.028 -0.451,0.314 -0.084,0.039 -0.168,0.066 -0.249,0 -0.101,-0.101 -0.27,-0.202 -0.306,-0.352 0.148,-0.212 0.343,0.075 0.536,0.038 0.353,0 0.573,-0.222 0.881,-0.343 0.165,-0.119 0.107,-0.37 0.295,-0.508 l 0,-0.039 C 2.055,-1.823 2.174,-1.509 1.978,-1.556 1.972,-1.463 1.889,-1.427 1.805,-1.435 1.783,-1.435 1.77,-1.446 1.747,-1.446 1.702,-1.37 1.805,-1.278 1.702,-1.223 1.583,-1.185 1.516,-1.307 1.423,-1.307 1.341,-1.287 1.37,-1.194 1.315,-1.139 1.155,-1.241 1,-1.047 0.889,-1.223 0.787,-1.38 0.369,-1.139 0.573,-1.463 0.805,-1.658 1.241,-1.435 1.352,-1.823 1.315,-2.111 1.796,-2.326 1.516,-2.602 1.471,-2.379 1.12,-2.436 1.222,-2.155 1.101,-2.093 1.148,-1.972 1.137,-1.88 1.007,-1.823 0.924,-1.666 0.768,-1.74 0.676,-1.834 0.805,-1.954 0.795,-2.046 0.665,-2.278 0.813,-2.518 0.924,-2.712 0.813,-2.86 1.055,-3.001 0.889,-3.13 L 0.933,-3.405 C 0.879,-3.473 0.768,-3.416 0.713,-3.507 0.676,-3.37 0.452,-3.36 0.463,-3.192 0.331,-3.073 0.536,-2.86 0.324,-2.776 0.313,-2.63 0.536,-2.583 0.463,-2.407 0.25,-2.379 0.424,-2.138 0.25,-2.102 c -0.038,0.259 0.102,0.456 -0.057,0.667 -0.11,0.036 -0.174,-0.103 -0.284,-0.093 0.007,-0.138 -0.122,-0.159 -0.157,-0.268 0.007,-0.073 -0.039,-0.147 -0.106,-0.168 -0.083,0.048 -0.137,0 -0.212,-0.035 -0.046,0.018 -0.075,0.13 -0.157,0.1 -0.038,-0.1 0.029,-0.222 -0.008,-0.332 0.046,-0.25 -0.306,-0.295 -0.166,-0.556 -0.066,-0.073 -0.232,-0.037 -0.25,-0.176 l -0.038,0.02 c -0.018,0.138 0.102,0.379 -0.065,0.499 -0.01,0.205 0.103,0.37 0.14,0.554 0.213,0.272 0.516,0.362 0.711,0.612 0.027,0.037 0.009,0.093 -0.029,0.121 -0.109,-0.028 -0.191,0.099 -0.276,0.026 0,-0.185 -0.249,-0.082 -0.221,-0.268 -0.121,-0.12 -0.268,-0.194 -0.381,-0.316 -0.063,0.013 -0.119,0.103 -0.156,0 0.009,-0.137 -0.131,-0.221 -0.177,-0.331 -0.101,-0.047 -0.204,0.103 -0.288,-0.009 -0.016,0.034 -0.035,0.146 0.022,0.203 0.175,0.112 0.146,0.389 0.405,0.352 0.362,0.325 0.833,0.637 1.325,0.528 0.117,0.03 0.055,0.147 0.055,0.239 -0.075,0.075 -0.121,0.175 -0.234,0.185 -0.074,-0.01 -0.118,-0.11 -0.183,-0.084 -0.029,0.197 -0.269,0 -0.25,0.223 -0.019,0.029 -0.056,0.037 -0.081,0.018 -0.048,-0.044 -0.104,-0.128 -0.085,-0.192 0.015,-0.029 0.047,-0.009 0.063,-0.02 0.029,-0.029 -0.007,-0.092 0.047,-0.11 0.074,-0.02 0.167,-0.038 0.202,-0.121 -0.128,-0.104 -0.339,-0.104 -0.479,-0.224 -0.046,0.02 0,0.068 0,0.103 0.083,0.048 0.23,0.121 0.167,0.232 l 0,0.047 c -0.049,0.009 -0.075,-0.103 -0.138,-0.112 -0.056,-0.131 -0.252,-0.046 -0.268,-0.202 -0.048,-0.068 -0.113,0 -0.159,0 -0.075,-0.068 0.018,-0.195 -0.11,-0.204 -0.075,0.026 -0.047,0.166 -0.019,0.231 0.147,0.276 0.314,0.603 0.645,0.685 0.298,0 0.687,0.119 0.873,-0.167 0.093,0.026 0.093,0.175 0.1,0.268 -0.175,0.075 -0.37,0.278 -0.565,0.204 -0.1,0.074 -0.219,0 -0.303,-0.057 -0.019,0.039 -0.083,0.057 -0.112,0.092 0.184,0.177 0.481,0.287 0.722,0.159 C -0.167,0.184 -0.036,0.137 0,0"
         style="fill:#ffffff;fill-opacity:1;fill-rule:nonzero;stroke:none"
         id="path5188" />
    </g>
    <g
       id="g5190"
       transform="matrix(1.4935003,0,0,-1.4935003,30.150638,554.85544)">
      <path
         inkscape:connector-curvature="0"
         d="M 0,0 -0.007,0.008 0.029,0.046 0.038,0.036 0,0 z"
         style="fill:#ffffff;fill-opacity:1;fill-rule:nonzero;stroke:none"
         id="path5192" />
    </g>
    <g
       id="g5194"
       transform="matrix(1.4935003,0,0,-1.4935003,38.236597,555.75393)">
      <path
         inkscape:connector-curvature="0"
         d="M 0,0 C -0.074,-0.037 -0.165,-0.093 -0.25,-0.083 -0.276,-0.028 -0.174,0 -0.138,0.038 -0.093,0.026 -0.026,0.066 0,0"
         style="fill:#ffffff;fill-opacity:1;fill-rule:nonzero;stroke:none"
         id="path5196" />
    </g>
    <g
       id="g5198"
       transform="matrix(1.4935003,0,0,-1.4935003,36.263236,555.87789)">
      <path
         inkscape:connector-curvature="0"
         d="m 0,0 c -0.019,-0.038 -0.056,-0.019 -0.086,-0.027 l 0.019,0.073 C -0.039,0.035 0,0.028 0,0"
         style="fill:#ffffff;fill-opacity:1;fill-rule:nonzero;stroke:none"
         id="path5200" />
    </g>
    <g
       id="g5202"
       transform="matrix(1.4935003,0,0,-1.4935003,34.836047,556.47141)">
      <path
         inkscape:connector-curvature="0"
         d="m 0,0 c -0.083,-0.056 -0.14,-0.148 -0.24,-0.168 0.019,0.084 0.14,0.132 0.213,0.188 L 0,0 z"
         style="fill:#ffffff;fill-opacity:1;fill-rule:nonzero;stroke:none"
         id="path5204" />
    </g>
    <g
       id="g5206"
       transform="matrix(1.4935003,0,0,-1.4935003,35.780537,556.70635)">
      <path
         inkscape:connector-curvature="0"
         d="m 0,0 -0.014,-0.011 -0.025,0.02 c 0.019,0 0.025,0 0.039,-0.009"
         style="fill:#ffffff;fill-opacity:1;fill-rule:nonzero;stroke:none"
         id="path5208" />
    </g>
    <g
       id="g5210"
       transform="matrix(1.4935003,0,0,-1.4935003,49.692342,556.51517)">
      <path
         inkscape:connector-curvature="0"
         d="m 0,0 c -0.174,-0.351 -0.276,-0.768 -0.47,-1.11 -0.113,-0.332 -0.332,-0.639 -0.482,-0.961 -0.158,-0.131 -0.092,-0.446 -0.361,-0.428 -2.156,-0.027 -4.421,-0.027 -6.551,-0.045 -0.019,0.018 -0.029,0.045 -0.01,0.056 0.055,0.045 0.158,0 0.177,0.083 0.084,0.12 -0.074,0.297 0.099,0.381 0,0.109 -0.108,0.229 -0.007,0.34 -0.056,0.185 -0.139,0.334 -0.222,0.509 0.047,0.129 -0.008,0.269 0.008,0.4 0.065,-0.021 0.01,-0.15 0.113,-0.159 0.036,-0.047 -0.01,-0.084 0,-0.148 0.155,-0.018 0.139,-0.177 0.173,-0.276 0.113,-0.076 0.15,-0.158 0.28,-0.166 0.056,-0.066 0.036,-0.214 0.138,-0.197 0.073,0.259 0.224,0.583 0.01,0.825 -0.176,0.174 -0.148,0.471 -0.391,0.601 -0.102,0 -0.22,0.055 -0.284,0.064 0.083,0.019 0.083,0.129 0.175,0.092 0.072,-0.12 0.212,-0.109 0.296,-0.167 0.083,-0.017 0.138,0.039 0.194,0.066 0.066,-0.045 0,-0.195 0.092,-0.21 0.176,0.118 0.242,-0.122 0.371,-0.169 0.01,-0.082 0.028,-0.167 0.065,-0.234 0.093,-0.025 0.093,0.16 0.175,0.031 0.065,-0.009 0.141,0.036 0.131,0.1 0.055,0.287 -0.253,0.399 -0.269,0.658 -0.018,0.138 -0.354,0.204 -0.102,0.342 -0.037,0.27 -0.333,0.342 -0.519,0.445 0.084,0.11 0.253,0.167 0.407,0.167 0.112,0.082 0.039,0.221 0.02,0.324 -0.147,0.25 -0.445,0.1 -0.684,0.165 C -7.661,1.446 -7.901,1.63 -8.151,1.481 -8.298,1.379 -8.421,1.157 -8.632,1.25 -8.717,1.501 -8.965,1.501 -9.16,1.585 -9.521,1.593 -9.771,1.305 -10.047,1.111 -10.087,1.073 -10.04,1.028 -10.002,1.009 -9.91,1.001 -9.778,1.147 -9.744,1.001 -9.844,0.942 -9.982,0.89 -10.087,0.788 -10.281,0.481 -10.53,0.187 -10.474,-0.194 l 0.147,-0.037 c -0.193,-0.139 -0.351,-0.341 -0.432,-0.565 0,-0.091 -0.067,-0.23 0.053,-0.286 0.102,0.028 0.241,0.129 0.344,0.011 0.129,0.045 0.258,0.155 0.285,0.303 0.067,0.009 0.13,0.093 0.187,0.02 -0.112,-0.13 -0.112,-0.306 -0.14,-0.463 -0.257,-0.251 -0.518,-0.51 -0.704,-0.842 -0.175,-0.131 -0.212,-0.315 -0.312,-0.491 -0.289,-0.073 -0.621,-0.038 -0.944,-0.029 -0.066,0.074 0.027,0.187 -0.038,0.279 0.017,0.26 0.027,0.638 -0.008,0.916 0.025,0.425 -0.159,0.852 0.054,1.25 0.118,0.238 0.055,0.583 0.026,0.877 l 0.242,-0.045 c 0.241,-0.203 -0.203,-0.517 0.169,-0.621 0.024,-0.193 -0.319,-0.443 -0.021,-0.573 -0.019,-0.129 -0.148,-0.306 0.055,-0.363 0.168,-0.109 -0.055,-0.322 0.065,-0.451 0.279,0.028 0.082,0.37 0.342,0.426 0.011,0.119 0.02,0.241 0.121,0.315 -0.046,0.315 -0.288,0.646 -0.13,0.998 -0.008,0.185 -0.054,0.398 -0.258,0.463 l -0.056,0 c -0.027,0.082 -0.175,0.103 -0.139,0.213 0.158,-0.045 0.379,0 0.565,-0.074 0.251,0.213 0.251,-0.295 0.499,-0.194 0.028,-0.035 0.084,-0.12 0.112,-0.084 0.092,0 0.109,0.131 0.184,0.196 0.038,0.233 0.01,0.491 -0.184,0.602 -0.251,0.028 -0.482,0.128 -0.723,0.119 -0.054,0.138 -0.185,0.22 -0.286,0.324 0.035,0.214 0.315,0.046 0.37,0.261 0.14,0.062 0.231,-0.196 0.323,-0.012 0,0.038 -0.008,0.074 0.038,0.094 0.12,-0.121 0.278,0.028 0.387,-0.129 0.075,0.101 0.251,-0.029 0.316,0.109 -0.075,0.26 -0.288,0.362 -0.473,0.536 -0.471,0.131 -0.823,-0.128 -1.211,-0.296 -0.13,-0.166 -0.387,-0.119 -0.461,-0.341 -0.085,-0.019 -0.113,-0.019 -0.197,0.009 -0.249,0.084 0.047,0.362 -0.203,0.407 -0.073,0.131 0.147,0.314 -0.073,0.372 -0.037,-0.011 -0.084,-0.011 -0.111,0.035 l -0.02,0.148 C -12.926,3.091 -12.789,2.775 -13,2.612 c -0.111,0.211 -0.251,-0.084 -0.38,0.043 -0.102,0.223 -0.37,0.012 -0.489,0.214 -0.037,-0.016 -0.055,0.028 -0.084,0 l 0.008,0 0,-0.038 -0.008,0 c -0.009,0.096 -0.13,0.056 -0.193,0.084 -0.141,-0.037 -0.336,-0.056 -0.362,-0.212 -0.037,-0.194 -0.259,-0.288 -0.168,-0.489 0.215,-0.084 0.426,0.175 0.62,0.017 0.176,0.038 0.288,0.066 0.445,-0.038 -0.139,-0.09 -0.313,-0.063 -0.452,-0.128 -0.363,-0.093 -0.419,-0.48 -0.502,-0.779 0.02,-0.036 0.075,-0.057 0.121,-0.025 0.093,0.062 0.093,0.203 0.223,0.185 l 0.075,-0.111 c -0.231,-0.262 -0.584,-0.38 -0.695,-0.725 0,-0.045 0.026,-0.083 0.074,-0.1 0.084,-0.037 0.127,0.139 0.184,0.038 0.056,-0.056 0.122,-0.233 0.223,-0.121 l 0.185,0.241 c 0.195,-0.019 0.287,0.158 0.415,0.269 0.196,-0.129 0.298,0.174 0.501,0.018 0.072,-0.057 0.128,-0.178 0.008,-0.206 -0.09,-0.081 -0.137,-0.213 -0.24,-0.304 0.02,-0.093 0.12,-0.074 0.167,-0.14 -0.269,-0.118 0.009,-0.453 -0.269,-0.553 0.01,-0.075 0.029,-0.122 0.084,-0.157 -0.113,-0.317 -0.113,-0.594 0.027,-0.888 -0.027,-0.085 0,-0.132 0.029,-0.206 0.027,-0.056 0.112,-0.082 0.146,-0.008 -0.017,0.214 0.205,0.239 0.251,0.425 0.296,0.12 0.037,0.398 0.083,0.632 0.241,0.155 -0.214,0.487 0.195,0.479 0,0.149 0.204,0.036 0.184,0.197 0.038,0.035 0.067,-0.021 0.103,-0.03 -0.047,-0.075 -0.103,-0.138 -0.113,-0.222 0.039,-0.067 0.122,-0.029 0.151,-0.102 l -0.195,-0.398 0.028,-0.029 -0.018,0 c -0.038,-0.055 0.064,-0.082 0.073,-0.138 -0.039,-0.16 -0.095,-0.306 -0.149,-0.445 0.084,-0.488 -0.064,-0.858 0,-1.323 0.02,-0.019 0.029,-0.038 0.02,-0.056 l -0.066,-0.056 c -0.38,-0.018 -0.759,-0.018 -1.109,0 -0.696,-0.009 -1.38,-0.035 -2.028,-0.028 l -4.472,-0.007 c -0.348,0.007 -0.711,-0.009 -1.098,0 -0.446,0.629 -0.768,1.349 -1.083,2.053 -0.074,0.167 -0.083,0.353 -0.195,0.5 -0.147,0.565 -0.342,1.103 -0.415,1.665 -0.093,0.362 -0.104,0.797 -0.158,1.165 0.019,0.299 -0.075,0.583 -0.038,0.873 l 0.092,0.044 c 0.668,-0.017 1.287,0.021 1.992,0.01 l 0.017,0.019 c 1.915,-0.029 3.924,0.009 5.867,0.009 0.047,0.056 0.066,-0.017 0.119,0 0.502,0.009 1.074,0.037 1.557,0 4.671,0.047 9.42,0.056 14.148,0.13 0.056,0 0.158,0 0.177,-0.083 C 0.594,2.415 0.407,1.261 0,0 m -12.001,-2.802 0.045,0.035 0.76,-0.007 0.029,-0.057 c -0.27,-0.287 -0.287,-0.675 -0.491,-0.99 -0.028,-0.138 -0.121,-0.285 -0.175,-0.426 l -0.039,0 c -0.073,0.465 -0.073,0.963 -0.129,1.445 m 10.335,-0.381 c -0.45,-0.621 -0.943,-1.229 -1.553,-1.776 -0.065,-0.121 -0.232,-0.167 -0.312,-0.286 -0.937,-0.75 -1.919,-1.453 -3.056,-1.877 -2.276,-1.002 -5.071,-1.197 -7.476,-0.613 -2.852,0.683 -5.562,2.378 -7.239,4.885 0,0.065 0.074,0.048 0.113,0.057 l 4.913,0.008 3.23,0.018 c 0.12,-0.026 0.314,0.067 0.37,-0.093 0,-0.603 0.176,-1.137 0.066,-1.766 -0.038,0.055 -0.15,0.102 -0.234,0.074 -0.091,-0.048 -0.156,-0.158 -0.111,-0.269 -0.018,-0.093 0.159,-0.166 0.055,-0.231 -0.035,0.018 -0.073,0.009 -0.11,0.009 -0.101,-0.065 0.065,-0.241 -0.13,-0.22 0.02,-0.149 -0.213,-0.021 -0.148,-0.186 0.047,-0.093 0.057,-0.269 0.204,-0.243 0.028,-0.026 0.065,-0.073 0.094,-0.026 0.055,0.084 -0.121,0.269 0.064,0.279 0.066,0.043 0.019,0.137 0,0.194 l -0.009,0.008 0.017,0.018 c 0.093,-0.037 0.058,-0.156 0.158,-0.177 0.13,0.198 -0.093,0.381 -0.118,0.575 -0.04,0.074 0.018,0.14 0.072,0.158 0.223,-0.018 0.196,-0.279 0.306,-0.408 0,-0.063 0.037,-0.127 0.083,-0.166 0.072,-0.019 0.054,0.065 0.092,0.083 0.083,0.074 0.269,0.074 0.269,0.24 0.129,0.011 0.093,-0.157 0.155,-0.22 -0.044,-0.176 0.058,-0.389 0.022,-0.584 0.027,-0.027 0.063,-0.062 0.1,-0.027 0.213,0.063 0.029,0.388 0.286,0.388 0.02,-0.039 0.039,-0.064 0.066,-0.092 0.119,0.092 0.084,0.286 0.204,0.378 0.065,-0.148 0.045,-0.36 0.119,-0.526 -0.009,-0.066 -0.036,-0.177 0.02,-0.232 0.138,0.049 0.074,0.361 0.314,0.277 l 0.129,-0.056 c 0.058,-0.129 -0.192,-0.267 0,-0.323 0.065,0.157 0.083,0.362 0.251,0.463 0,0.063 0.119,0.111 0.092,0.205 -0.092,0.091 -0.167,-0.168 -0.295,-0.094 0.01,0.047 0.035,0.094 0.01,0.138 l -0.131,0 c -0.009,0.121 0.156,0.223 0.065,0.325 -0.11,-0.121 -0.223,-0.287 -0.278,-0.444 -0.094,0.036 0.084,0.157 -0.047,0.212 -0.066,-0.037 -0.119,-0.028 -0.147,0.046 -0.011,0.093 -0.028,0.195 -0.111,0.25 0.203,0.686 0.323,1.407 0.665,2.037 l 0.112,0.046 c 1.34,0 2.6,0.026 3.952,0.018 l 0.009,0.055 c 0,-0.018 0,-0.047 0.015,-0.055 0.28,0.037 0.595,-0.018 0.818,0 l 4.265,0.037 0.038,-0.029 C -1.414,-2.886 -1.58,-3.015 -1.666,-3.183 m 3.63,7.09 C 1.929,4.101 1.731,3.962 1.631,4.063 1.428,4.019 1.196,4.055 1.028,4.074 0.603,3.951 0.122,4.082 -0.303,4.008 -1.08,4.008 -1.785,4.019 -2.563,4.001 -3.478,3.979 -4.468,3.989 -5.469,3.979 -5.616,4.001 -5.837,3.934 -5.975,4.035 c -0.011,0.066 -0.029,0.167 0.007,0.235 0.815,0.218 1.685,0.34 2.499,0.516 1.666,0.361 3.405,0.721 5.053,1.027 0.055,0.038 0.147,0.055 0.147,0.13 C 1.639,6.387 1.564,6.849 1.446,7.264 1.381,7.421 1.224,7.351 1.104,7.319 -0.405,6.858 -1.875,6.387 -3.375,5.935 -3.487,5.896 -3.616,5.879 -3.708,5.821 -4.422,5.601 -5.172,5.368 -5.884,5.165 -6.144,4.979 -6.134,5.331 -6.216,5.451 -3.949,6.431 -1.653,7.376 0.64,8.329 0.76,8.403 0.944,8.396 0.991,8.551 0.881,8.957 0.668,9.319 0.512,9.708 0.428,9.81 0.419,10.015 0.288,10.015 l 0,0.016 C -1.073,9.256 -2.517,8.412 -3.912,7.646 -4.772,7.191 -5.578,6.628 -6.479,6.218 l -0.062,0.048 c -0.036,0.102 -0.184,0.213 -0.101,0.325 2.127,1.443 4.21,2.885 6.301,4.358 0.045,0.074 0.008,0.176 -0.017,0.249 l -0.752,1.019 -0.119,0 C -1.609,11.854 -2.081,11.504 -2.479,11.114 -3.32,10.394 -4.133,9.652 -4.995,8.949 -5.033,8.849 -5.172,8.811 -5.254,8.735 -5.422,8.542 -5.681,8.376 -5.884,8.182 -6.3,7.849 -6.624,7.506 -7.06,7.201 -7.207,7.136 -7.253,7.331 -7.356,7.421 l 0.195,0.242 c 1.296,1.39 2.693,2.768 3.989,4.175 0.389,0.416 0.842,0.878 1.193,1.323 -0.212,0.203 -0.434,0.461 -0.674,0.648 -0.187,0.09 -0.231,0.333 -0.455,0.314 C -4.376,12.476 -5.587,10.865 -6.883,9.2 -6.947,9.061 -7.042,8.957 -7.161,8.838 -7.161,8.756 -7.234,8.7 -7.3,8.653 -7.446,8.403 -7.632,8.173 -7.835,7.95 -8.004,7.904 -8.105,8.117 -8.242,8.173 l 0,0.082 c 1.155,1.842 2.322,3.72 3.47,5.554 0.211,0.287 0.358,0.637 0.583,0.923 0.109,0.103 0,0.195 -0.066,0.27 -0.342,0.139 -0.628,0.396 -0.989,0.536 -0.076,0.037 -0.178,0.131 -0.279,0.075 -0.138,-0.408 -0.361,-0.814 -0.574,-1.195 -0.056,-0.24 -0.184,-0.453 -0.268,-0.684 C -6.633,13.216 -6.891,12.679 -7.142,12.142 -7.179,12.004 -7.234,11.883 -7.309,11.763 -7.598,11.087 -7.968,10.403 -8.27,9.7 -8.328,9.532 -8.476,9.403 -8.494,9.228 -8.622,9.107 -8.586,8.912 -8.746,8.792 -8.753,8.717 -8.791,8.606 -8.872,8.588 c -0.169,0.029 -0.409,0.085 -0.443,0.25 0.851,2.426 1.756,4.823 2.606,7.264 l -0.016,0.094 c -0.335,0.075 -0.703,0.232 -1.038,0.296 -0.072,0.073 -0.241,0.092 -0.352,0.065 -0.036,-0.037 -0.027,-0.076 -0.017,-0.121 -0.084,-0.102 -0.048,-0.268 -0.121,-0.38 -0.017,-0.1 0.011,-0.249 -0.075,-0.342 -0.119,-0.657 -0.341,-1.276 -0.451,-1.943 -0.196,-0.498 -0.196,-1.038 -0.39,-1.536 -0.064,-0.296 -0.112,-0.528 -0.203,-0.834 -0.065,-0.287 -0.14,-0.527 -0.184,-0.814 C -9.725,10.088 -9.835,9.561 -9.965,9.061 L -10.04,8.985 c -0.11,0.019 -0.241,0.019 -0.322,0.103 0.028,0.222 0.035,0.435 0.081,0.629 0.224,1.389 0.362,2.723 0.566,4.204 0.111,0.933 0.259,1.894 0.343,2.848 -0.177,0.148 -0.444,0.121 -0.675,0.158 -0.224,-0.01 -0.546,0.073 -0.759,-0.037 0.008,-0.325 -0.009,-0.629 -0.02,-0.946 -0.017,-0.424 0.028,-0.878 -0.063,-1.321 0.027,-0.185 -0.038,-0.398 0.017,-0.621 -0.037,-1.509 -0.157,-2.915 -0.157,-4.386 -0.075,-0.157 0.046,-0.36 -0.075,-0.509 -0.128,0 -0.286,-0.054 -0.397,0.046 -0.065,0.582 -0.084,1.213 -0.14,1.777 -0.045,2.008 -0.286,3.831 -0.341,5.82 -0.046,0.083 -0.038,0.25 -0.175,0.196 -0.306,-0.037 -0.678,-0.056 -0.963,-0.113 -0.158,-0.046 -0.288,0.029 -0.418,-0.109 0.011,-0.196 0.112,-0.474 0.103,-0.639 0.073,-0.194 0.073,-0.453 0.157,-0.64 0.037,-0.573 0.187,-1.118 0.268,-1.711 0.055,-0.453 0.15,-0.88 0.221,-1.314 0.066,-0.472 0.159,-0.916 0.233,-1.361 0.093,-0.11 0,-0.269 0.074,-0.387 0.065,-0.557 0.175,-1.048 0.259,-1.603 l -0.065,-0.065 c -0.175,-0.007 -0.286,-0.119 -0.435,-0.047 -0.368,1.233 -0.739,2.474 -1.082,3.722 -0.175,0.564 -0.334,1.138 -0.482,1.685 -0.157,0.508 -0.331,1.044 -0.443,1.572 -0.065,0.166 -0.103,0.361 -0.184,0.5 -0.373,-0.055 -0.743,-0.195 -1.086,-0.315 -0.119,-0.047 -0.296,-0.056 -0.329,-0.202 0.303,-0.742 0.58,-1.501 0.913,-2.222 0.583,-1.526 1.277,-3.045 1.869,-4.544 0.047,-0.156 0.176,-0.277 0.167,-0.453 -0.082,-0.074 -0.175,-0.094 -0.267,-0.149 -0.298,-0.118 -0.241,0.325 -0.436,0.446 -0.544,1.034 -1.074,2.054 -1.639,3.072 -0.574,1.119 -1.165,2.23 -1.757,3.322 -0.055,0.028 -0.119,0.073 -0.129,0 l 0,0.007 c -0.446,-0.193 -0.788,-0.416 -1.195,-0.682 l -0.01,-0.058 c 0.287,-0.452 0.576,-0.924 0.917,-1.343 0.187,-0.349 0.435,-0.636 0.621,-0.98 0.22,-0.266 0.388,-0.6 0.603,-0.859 l 0.471,-0.748 c 0.592,-0.815 1.081,-1.696 1.693,-2.509 0.026,-0.056 -0.01,-0.12 -0.037,-0.167 -0.045,-0.102 -0.166,-0.175 -0.27,-0.166 -0.351,0.342 -0.592,0.693 -0.907,1.054 -0.462,0.51 -0.841,1.006 -1.305,1.499 l 0,0.037 c -0.211,0.204 -0.369,0.42 -0.525,0.649 -0.816,0.85 -1.574,1.85 -2.361,2.712 -0.249,-0.057 -0.361,-0.26 -0.566,-0.399 l -0.017,-0.055 c -0.185,-0.176 -0.444,-0.343 -0.545,-0.575 0.888,-0.86 1.803,-1.702 2.701,-2.545 l 0,-0.036 c 0.214,-0.091 0.322,-0.323 0.502,-0.443 0.739,-0.669 1.349,-1.334 2.116,-1.992 0.105,-0.185 0.344,-0.258 0.415,-0.473 -0.1,-0.108 -0.144,-0.304 -0.34,-0.304 -1.924,1.517 -3.914,3.1 -5.838,4.599 -0.13,0.083 -0.307,0.39 -0.464,0.196 -0.268,-0.288 -0.417,-0.582 -0.656,-0.88 0,-0.119 -0.129,-0.185 -0.149,-0.306 1.352,-0.924 2.776,-1.73 4.165,-2.646 0.86,-0.517 1.729,-1.092 2.581,-1.628 0.048,-0.093 -0.028,-0.185 -0.092,-0.251 -0.075,-0.019 -0.131,-0.027 -0.204,0.009 -0.564,0.323 -1.22,0.556 -1.786,0.871 -1.786,0.833 -3.471,1.638 -5.248,2.48 -0.146,-0.103 -0.221,-0.306 -0.305,-0.455 -0.007,-0.342 -0.352,-0.592 -0.276,-0.934 1.868,-0.629 3.626,-1.358 5.477,-2.007 0.444,-0.223 0.989,-0.324 1.436,-0.528 0.21,-0.12 0.453,-0.12 0.637,-0.296 -0.027,-0.131 -0.065,-0.306 -0.176,-0.361 -2.341,0.601 -4.571,1.138 -6.92,1.768 -0.104,0 -0.242,0.035 -0.353,0.082 -0.185,0 -0.389,0.149 -0.546,0.046 -0.092,-0.276 -0.083,-0.601 -0.176,-0.886 0.009,-0.206 -0.102,-0.428 -0.093,-0.649 0.048,-0.101 0.186,-0.063 0.278,-0.092 0.287,-0.02 0.592,-0.102 0.879,-0.102 2.164,-0.362 4.34,-0.584 6.489,-0.888 0.155,-0.056 0.379,0.036 0.48,-0.168 l -0.074,-0.082 -0.667,-0.018 -4.2,-0.021 c -0.047,-0.025 -0.113,0.039 -0.157,-0.008 -0.612,0.008 -1.158,0.008 -1.769,0.008 -0.35,-0.072 -0.748,0.028 -1.11,0.039 -0.084,-0.03 -0.112,-0.086 -0.214,-0.064 -0.074,-0.373 0.009,-0.713 0.009,-1.055 0.021,-0.344 0.158,-0.723 0.13,-1.028 0.103,-0.325 0.103,-0.641 0.195,-0.972 0.176,-0.723 0.396,-1.454 0.721,-2.119 0.548,-1.343 1.259,-2.473 2.247,-3.583 0.4,-0.491 0.769,-0.804 1.195,-1.202 0.353,-0.286 0.713,-0.565 1.055,-0.842 0.741,-0.445 1.492,-0.953 2.307,-1.269 0.072,0 0.09,-0.12 0.175,-0.073 1.646,-0.759 3.524,-1.092 5.441,-1.138 l 0.102,0.037 c 0.111,-0.047 0.288,-0.019 0.415,-0.03 3.802,0.178 7.228,1.9 9.653,4.86 0.667,0.851 1.313,1.769 1.721,2.766 0.028,0.103 0.204,0.149 0.138,0.298 0.649,1.527 1.139,3.239 1.15,4.949 0.055,0.149 -0.059,0.317 0.008,0.465"
         style="fill:#005daa;fill-opacity:1;fill-rule:nonzero;stroke:none"
         id="path5212" />
    </g>
    <g
       id="g5214"
       transform="matrix(1.4935003,0,0,-1.4935003,30.125099,565.42809)">
      <path
         inkscape:connector-curvature="0"
         d="M 0,0 C -0.045,0.082 -0.093,0.176 -0.093,0.286 -0.057,0.223 0.036,0.093 0,0"
         style="fill:#231f20;fill-opacity:1;fill-rule:nonzero;stroke:none"
         id="path5216" />
    </g>
    <g
       id="g5218"
       transform="matrix(1.4935003,0,0,-1.4935003,19.203281,570.13903)">
      <path
         inkscape:connector-curvature="0"
         d="M 0,0 C 0.037,0.092 0.108,0.268 -0.11,0.438 -0.235,0.535 -0.485,0.595 -0.765,0.239 -0.94,0.014 -1.009,-0.26 -0.785,-0.434 c 0.144,-0.114 0.309,-0.11 0.462,0.02 l 0.262,-0.205 c -0.265,-0.233 -0.595,-0.284 -0.908,-0.037 -0.337,0.261 -0.399,0.674 -0.059,1.107 0.343,0.441 0.772,0.467 1.094,0.215 0.376,-0.295 0.328,-0.672 0.195,-0.869 L 0,0 z"
         style="fill:#005daa;fill-opacity:1;fill-rule:nonzero;stroke:none"
         id="path5220" />
    </g>
    <g
       id="g5222"
       transform="matrix(1.4935003,0,0,-1.4935003,19.549623,572.31954)">
      <path
         inkscape:connector-curvature="0"
         d="M 0,0 -0.275,0.182 0.603,1.515 0.881,1.329 0,0 z"
         style="fill:#005daa;fill-opacity:1;fill-rule:nonzero;stroke:none"
         id="path5224" />
    </g>
    <g
       id="g5226"
       transform="matrix(1.4935003,0,0,-1.4935003,21.058357,573.21654)">
      <path
         inkscape:connector-curvature="0"
         d="M 0,0 -0.291,0.163 0.352,1.305 -0.07,1.543 0.071,1.789 1.199,1.153 1.062,0.907 0.643,1.144 0,0 z"
         style="fill:#005daa;fill-opacity:1;fill-rule:nonzero;stroke:none"
         id="path5228" />
    </g>
    <g
       id="g5230"
       transform="matrix(1.4935003,0,0,-1.4935003,23.262913,574.28558)">
      <path
         inkscape:connector-curvature="0"
         d="M 0,0 -0.305,0.13 -0.064,0.683 -0.172,1.813 0.188,1.657 0.215,0.888 0.778,1.397 1.126,1.247 0.238,0.546 0,0 z"
         style="fill:#005daa;fill-opacity:1;fill-rule:nonzero;stroke:none"
         id="path5232" />
    </g>
    <g
       id="g5234"
       transform="matrix(1.4935003,0,0,-1.4935003,25.890429,574.01287)">
      <path
         inkscape:connector-curvature="0"
         d="M 0,0 C -0.186,-0.725 0.328,-0.951 0.533,-1.004 0.738,-1.058 1.297,-1.105 1.484,-0.382 1.671,0.344 1.155,0.568 0.952,0.623 0.746,0.675 0.186,0.723 0,0 M 0.322,-0.084 C 0.434,0.35 0.707,0.393 0.882,0.348 1.055,0.304 1.272,0.134 1.163,-0.299 1.05,-0.73 0.779,-0.776 0.604,-0.73 0.429,-0.687 0.21,-0.515 0.322,-0.084"
         style="fill:#005daa;fill-opacity:1;fill-rule:nonzero;stroke:none"
         id="path5236" />
    </g>
    <g
       id="g5238"
       transform="matrix(1.4935003,0,0,-1.4935003,29.023344,575.92933)">
      <path
         inkscape:connector-curvature="0"
         d="M 0,0 -0.331,0.047 -0.101,1.624 1.021,1.463 0.982,1.184 0.188,1.296 0.136,0.942 0.832,0.841 0.791,0.563 0.098,0.661 0,0 z"
         style="fill:#005daa;fill-opacity:1;fill-rule:nonzero;stroke:none"
         id="path5240" />
    </g>
    <g
       id="g5242"
       transform="matrix(1.4935003,0,0,-1.4935003,32.515596,575.36344)">
      <path
         inkscape:connector-curvature="0"
         d="M 0,0 0.384,0 C 0.812,0.001 0.89,0.365 0.89,0.511 0.89,0.822 0.703,1.021 0.393,1.02 L -0.335,1.018 -0.33,-0.575 0.002,-0.574 0,0 z m 0,0.274 0,0.47 0.265,0 C 0.47,0.745 0.556,0.68 0.556,0.524 0.556,0.453 0.558,0.277 0.309,0.277 L 0,0.274 z"
         style="fill:#005daa;fill-opacity:1;fill-rule:nonzero;stroke:none"
         id="path5244" />
    </g>
    <g
       id="g5246"
       transform="matrix(1.4935003,0,0,-1.4935003,34.562587,576.18009)">
      <path
         inkscape:connector-curvature="0"
         d="M 0,0 0.324,0.036 0.253,0.656 0.599,0.694 C 0.842,0.721 0.866,0.637 0.89,0.422 0.906,0.258 0.928,0.178 0.958,0.104 L 1.326,0.146 1.32,0.188 C 1.246,0.207 1.242,0.265 1.215,0.497 1.182,0.791 1.108,0.831 0.971,0.875 1.123,0.945 1.195,1.105 1.176,1.28 1.161,1.415 1.05,1.718 0.63,1.674 L -0.174,1.586 0,0 z M 0.225,0.924 0.18,1.348 0.593,1.393 C 0.789,1.414 0.839,1.295 0.846,1.211 0.865,1.055 0.787,0.984 0.614,0.967 L 0.225,0.924 z"
         style="fill:#005daa;fill-opacity:1;fill-rule:nonzero;stroke:none"
         id="path5248" />
    </g>
    <g
       id="g5250"
       transform="matrix(1.4935003,0,0,-1.4935003,36.841519,574.71587)">
      <path
         inkscape:connector-curvature="0"
         d="M 0,0 C 0.166,-0.73 0.726,-0.695 0.933,-0.649 1.137,-0.604 1.66,-0.395 1.497,0.337 1.331,1.068 0.769,1.035 0.563,0.989 0.356,0.94 -0.163,0.73 0,0 m 0.325,0.074 c -0.097,0.435 0.126,0.6 0.3,0.639 C 0.801,0.754 1.072,0.699 1.172,0.263 1.269,-0.172 1.046,-0.336 0.87,-0.375 0.695,-0.413 0.421,-0.362 0.325,0.074"
         style="fill:#005daa;fill-opacity:1;fill-rule:nonzero;stroke:none"
         id="path5252" />
    </g>
    <g
       id="g5254"
       transform="matrix(1.4935003,0,0,-1.4935003,40.690567,573.56945)">
      <path
         inkscape:connector-curvature="0"
         d="M 0,0 0.625,0.223 0.914,-0.587 0.705,-0.661 0.607,-0.483 C 0.561,-0.605 0.493,-0.78 0.221,-0.88 c -0.363,-0.128 -0.784,0.015 -0.972,0.542 -0.145,0.409 -0.056,0.879 0.45,1.055 0.462,0.164 0.75,-0.07 0.84,-0.27 L 0.225,0.335 c -0.021,0.06 -0.194,0.208 -0.415,0.13 -0.224,-0.08 -0.376,-0.309 -0.24,-0.694 0.145,-0.41 0.408,-0.438 0.621,-0.361 0.069,0.025 0.292,0.134 0.247,0.459 L 0.088,-0.253 0,0 z"
         style="fill:#005daa;fill-opacity:1;fill-rule:nonzero;stroke:none"
         id="path5256" />
    </g>
    <g
       id="g5258"
       transform="matrix(1.4935003,0,0,-1.4935003,42.800883,574.12219)">
      <path
         inkscape:connector-curvature="0"
         d="M 0,0 0.294,0.145 0.017,0.705 0.326,0.856 C 0.545,0.966 0.595,0.896 0.692,0.7 0.762,0.554 0.813,0.485 0.866,0.429 L 1.195,0.592 1.179,0.629 C 1.103,0.62 1.077,0.673 0.975,0.882 0.843,1.147 0.756,1.163 0.613,1.156 0.73,1.272 0.743,1.448 0.666,1.604 0.604,1.729 0.396,1.976 0.018,1.788 L -0.708,1.429 0,0 z m -0.102,0.944 -0.19,0.382 0.373,0.185 C 0.257,1.598 0.344,1.503 0.383,1.428 0.452,1.288 0.402,1.194 0.248,1.117 l -0.35,-0.173 z"
         style="fill:#005daa;fill-opacity:1;fill-rule:nonzero;stroke:none"
         id="path5260" />
    </g>
    <g
       id="g5262"
       transform="matrix(1.4935003,0,0,-1.4935003,45.64645,570.27614)">
      <path
         inkscape:connector-curvature="0"
         d="m 0,0 -0.713,-0.454 0.179,-0.283 0.658,0.417 0.151,-0.239 -0.658,-0.417 0.223,-0.348 0.744,0.474 0.152,-0.237 -1.02,-0.649 -0.857,1.344 0.99,0.629 L 0,0 z"
         style="fill:#005daa;fill-opacity:1;fill-rule:nonzero;stroke:none"
         id="path5264" />
    </g>
    <g
       id="g5266"
       transform="matrix(1.4935003,0,0,-1.4935003,47.159664,570.67729)">
      <path
         inkscape:connector-curvature="0"
         d="M 0,0 C 0.058,-0.069 0.199,-0.174 0.425,0.008 0.55,0.104 0.664,0.243 0.561,0.377 0.482,0.474 0.368,0.427 0.21,0.352 L 0.051,0.277 C -0.189,0.164 -0.418,0.053 -0.637,0.329 -0.747,0.47 -0.868,0.774 -0.462,1.096 -0.078,1.399 0.223,1.229 0.345,1.079 L 0.095,0.88 c -0.051,0.049 -0.176,0.163 -0.404,-0.015 -0.1,-0.079 -0.19,-0.21 -0.1,-0.323 0.076,-0.099 0.175,-0.055 0.237,-0.026 L 0.192,0.683 C 0.395,0.777 0.607,0.832 0.785,0.606 1.082,0.229 0.726,-0.106 0.617,-0.193 0.16,-0.553 -0.127,-0.354 -0.249,-0.198 L 0,0 z"
         style="fill:#005daa;fill-opacity:1;fill-rule:nonzero;stroke:none"
         id="path5268" />
    </g>
    <g
       id="g5270"
       transform="matrix(1.4935003,0,0,-1.4935003,49.041922,569.09329)">
      <path
         inkscape:connector-curvature="0"
         d="M 0,0 C 0.064,-0.063 0.215,-0.149 0.421,0.053 0.536,0.163 0.633,0.313 0.518,0.434 0.429,0.522 0.318,0.462 0.172,0.372 L 0.021,0.281 c -0.228,-0.136 -0.444,-0.267 -0.69,-0.018 -0.123,0.128 -0.274,0.42 0.096,0.781 0.351,0.34 0.667,0.201 0.806,0.064 L 0.003,0.885 C -0.053,0.929 -0.19,1.031 -0.398,0.83 -0.487,0.742 -0.563,0.603 -0.463,0.497 c 0.087,-0.089 0.178,-0.036 0.237,0 L 0.119,0.7 C 0.309,0.813 0.518,0.891 0.717,0.684 1.051,0.339 0.729,-0.03 0.631,-0.128 0.215,-0.534 -0.091,-0.364 -0.229,-0.222 L 0,0 z"
         style="fill:#005daa;fill-opacity:1;fill-rule:nonzero;stroke:none"
         id="path5272" />
    </g>
    <g
       id="g5274"
       transform="matrix(1.4935003,0,0,-1.4935003,10.493037,545.52539)">
      <path
         inkscape:connector-curvature="0"
         d="M 0,0 0.353,1.342 0.842,1.214 0.341,-0.694 -2.358,0.016 -2.211,0.579 0,0 z"
         style="fill:#005daa;fill-opacity:1;fill-rule:nonzero;stroke:none"
         id="path5276" />
    </g>
    <g
       id="g5278"
       transform="matrix(1.4935003,0,0,-1.4935003,11.931876,541.10911)">
      <path
         inkscape:connector-curvature="0"
         d="M 0,0 0.468,0.916 1.062,0.813 1.352,1.377 -1.582,1.773 -1.889,1.176 0.141,-0.981 0.421,-0.438 0,0 z M -1.181,1.18 -1.173,1.187 -0.035,0.991 -0.359,0.357 -1.181,1.18 z"
         style="fill:#005daa;fill-opacity:1;fill-rule:nonzero;stroke:none"
         id="path5280" />
    </g>
    <g
       id="g5282"
       transform="matrix(1.4935003,0,0,-1.4935003,14.790585,537.86105)">
      <path
         inkscape:connector-curvature="0"
         d="m 0,0 0.369,0.438 -0.833,0.704 0.386,0.461 C 0.203,1.931 0.33,1.854 0.621,1.608 0.84,1.421 0.968,1.347 1.092,1.291 L 1.509,1.784 1.453,1.831 C 1.338,1.767 1.259,1.831 0.946,2.096 0.549,2.433 0.404,2.393 0.179,2.282 0.287,2.553 0.185,2.842 -0.05,3.042 -0.234,3.196 -0.74,3.445 -1.219,2.879 L -2.131,1.803 0,0 z m -0.826,1.446 -0.569,0.481 0.472,0.556 c 0.22,0.261 0.429,0.171 0.542,0.075 0.21,-0.178 0.194,-0.36 0,-0.59 L -0.826,1.446 z"
         style="fill:#005daa;fill-opacity:1;fill-rule:nonzero;stroke:none"
         id="path5284" />
    </g>
    <g
       id="g5286"
       transform="matrix(1.4935003,0,0,-1.4935003,18.455784,531.1403)">
      <path
         inkscape:connector-curvature="0"
         d="M 0,0 0.939,0.692 1.832,-0.521 1.52,-0.75 1.265,-0.502 C 1.246,-0.728 1.224,-1.059 0.814,-1.36 c -0.542,-0.398 -1.32,-0.372 -1.9,0.417 -0.453,0.614 -0.537,1.444 0.222,1.998 0.69,0.507 1.293,0.259 1.544,-0.033 L 0.213,0.68 C 0.145,0.765 -0.22,0.93 -0.55,0.687 -0.887,0.439 -1.026,-0.022 -0.602,-0.597 -0.15,-1.21 0.303,-1.124 0.621,-0.89 0.726,-0.813 1.039,-0.519 0.802,0.006 L 0.279,-0.377 0,0 z"
         style="fill:#005daa;fill-opacity:1;fill-rule:nonzero;stroke:none"
         id="path5288" />
    </g>
    <g
       id="g5290"
       transform="matrix(1.4935003,0,0,-1.4935003,21.721322,529.22817)">
      <path
         inkscape:connector-curvature="0"
         d="M 0,0 C 0.5,-1.211 1.458,-0.988 1.8,-0.846 2.14,-0.705 2.979,-0.188 2.481,1.023 1.981,2.234 1.021,2.012 0.68,1.87 0.339,1.73 -0.498,1.213 0,0 M 0.539,0.223 C 0.24,0.945 0.577,1.293 0.87,1.414 1.16,1.533 1.644,1.523 1.942,0.8 2.239,0.077 1.903,-0.27 1.613,-0.39 1.32,-0.51 0.836,-0.498 0.539,0.223"
         style="fill:#005daa;fill-opacity:1;fill-rule:nonzero;stroke:none"
         id="path5292" />
    </g>
    <g
       id="g5294"
       transform="matrix(1.4935003,0,0,-1.4935003,28.91611,527.08425)">
      <path
         inkscape:connector-curvature="0"
         d="M 0,0 0.044,0.01 C 0.342,0.048 0.399,0.211 0.391,0.328 L 0.644,0.363 0.851,-1.199 0.545,-1.242 0.4,-0.164 0.027,-0.215 0,0 z"
         style="fill:#005daa;fill-opacity:1;fill-rule:nonzero;stroke:none"
         id="path5296" />
    </g>
    <g
       id="g5298"
       transform="matrix(1.4935003,0,0,-1.4935003,30.845713,528.25097)">
      <path
         inkscape:connector-curvature="0"
         d="M 0,0 C 0.04,-0.249 0.238,-0.396 0.509,-0.383 0.793,-0.367 1.07,-0.154 1.039,0.455 1.027,0.678 0.988,1.266 0.443,1.236 0.134,1.222 -0.083,1.029 -0.065,0.643 -0.053,0.379 0.136,0.16 0.439,0.176 0.543,0.18 0.664,0.214 0.728,0.324 L 0.735,0.32 C 0.751,-0.012 0.628,-0.127 0.499,-0.133 0.402,-0.139 0.332,-0.094 0.309,0.014 l 0,0.002 L 0,0 z M 0.241,0.703 C 0.231,0.93 0.374,0.978 0.455,0.98 0.612,0.99 0.695,0.883 0.708,0.703 0.715,0.518 0.6,0.435 0.49,0.427 0.374,0.422 0.256,0.466 0.241,0.703"
         style="fill:#005daa;fill-opacity:1;fill-rule:nonzero;stroke:none"
         id="path5300" />
    </g>
    <g
       id="g5302"
       transform="matrix(1.4935003,0,0,-1.4935003,32.676744,527.56547)">
      <path
         inkscape:connector-curvature="0"
         d="m 0,0 c -0.015,-0.551 0.154,-0.816 0.524,-0.824 0.371,-0.012 0.554,0.24 0.568,0.795 C 1.108,0.522 0.94,0.784 0.57,0.794 0.197,0.805 0.016,0.555 0,0 M 0.32,-0.008 C 0.333,0.399 0.384,0.551 0.563,0.545 0.739,0.541 0.785,0.386 0.771,-0.021 0.762,-0.428 0.708,-0.58 0.531,-0.574 0.353,-0.573 0.309,-0.414 0.32,-0.008"
         style="fill:#005daa;fill-opacity:1;fill-rule:nonzero;stroke:none"
         id="path5304" />
    </g>
    <g
       id="g5306"
       transform="matrix(1.4935003,0,0,-1.4935003,35.064403,527.41387)">
      <path
         inkscape:connector-curvature="0"
         d="M 0,0 C 0.061,0.032 0.139,0.071 0.29,0.053 0.5,0.03 0.748,-0.142 0.709,-0.503 0.688,-0.716 0.539,-1.055 0.079,-1.004 c -0.246,0.028 -0.48,0.198 -0.459,0.519 l 0.308,-0.035 c -0.002,-0.129 0.059,-0.223 0.196,-0.237 0.148,-0.017 0.248,0.099 0.264,0.267 0.018,0.14 -0.034,0.289 -0.199,0.304 -0.041,0.006 -0.146,0.017 -0.218,-0.088 l -0.275,0.043 0.203,0.85 L 0.759,0.523 0.731,0.265 0.092,0.334 0,0 z"
         style="fill:#005daa;fill-opacity:1;fill-rule:nonzero;stroke:none"
         id="path5308" />
    </g>
    <g
       id="g5310"
       transform="matrix(1.4935003,0,0,-1.4935003,40.344823,530.0275)">
      <path
         inkscape:connector-curvature="0"
         d="m 0,0 -0.544,0.21 1,2.604 L 2.31,2.103 2.132,1.641 0.823,2.145 0.598,1.557 1.744,1.116 1.568,0.655 0.421,1.096 0,0 z"
         style="fill:#005daa;fill-opacity:1;fill-rule:nonzero;stroke:none"
         id="path5312" />
    </g>
    <g
       id="g5314"
       transform="matrix(1.4935003,0,0,-1.4935003,43.804367,530.75812)">
      <path
         inkscape:connector-curvature="0"
         d="M 0,0 1.207,-0.689 0.953,-1.127 -0.757,-0.149 0.63,2.273 1.135,1.983 0,0 z"
         style="fill:#005daa;fill-opacity:1;fill-rule:nonzero;stroke:none"
         id="path5316" />
    </g>
    <g
       id="g5318"
       transform="matrix(1.4935003,0,0,-1.4935003,46.779718,530.95062)">
      <path
         inkscape:connector-curvature="0"
         d="M 0,0 C -0.835,-1.009 -0.191,-1.752 0.094,-1.987 0.377,-2.225 1.229,-2.722 2.065,-1.713 2.9,-0.707 2.255,0.038 1.972,0.272 1.687,0.51 0.837,1.007 0,0 m 0.448,-0.373 c 0.5,0.601 0.964,0.468 1.206,0.268 0.245,-0.203 0.461,-0.636 -0.038,-1.237 -0.5,-0.6 -0.965,-0.469 -1.207,-0.265 -0.241,0.2 -0.46,0.633 0.039,1.234"
         style="fill:#005daa;fill-opacity:1;fill-rule:nonzero;stroke:none"
         id="path5320" />
    </g>
    <g
       id="g5322"
       transform="matrix(1.4935003,0,0,-1.4935003,48.866885,535.49384)">
      <path
         inkscape:connector-curvature="0"
         d="M 0,0 0.364,-0.438 1.206,0.259 1.588,-0.205 C 1.864,-0.538 1.766,-0.65 1.472,-0.893 1.25,-1.076 1.153,-1.186 1.08,-1.3 l 0.408,-0.497 0.058,0.047 c -0.043,0.125 0.035,0.188 0.35,0.45 0.4,0.334 0.387,0.482 0.318,0.725 0.247,-0.154 0.551,-0.104 0.788,0.093 0.186,0.152 0.519,0.606 0.044,1.177 L 2.148,1.782 0,0 z M 1.568,0.558 2.141,1.036 2.605,0.475 C 2.823,0.212 2.698,0.023 2.583,-0.072 2.374,-0.248 2.198,-0.201 2.002,0.032 L 1.568,0.558 z"
         style="fill:#005daa;fill-opacity:1;fill-rule:nonzero;stroke:none"
         id="path5324" />
    </g>
    <g
       id="g5326"
       transform="matrix(1.4935003,0,0,-1.4935003,51.782346,539.36619)">
      <path
         inkscape:connector-curvature="0"
         d="M 0,0 -0.313,0.491 2.042,1.993 2.354,1.503 0,0 z"
         style="fill:#005daa;fill-opacity:1;fill-rule:nonzero;stroke:none"
         id="path5328" />
    </g>
    <g
       id="g5330"
       transform="matrix(1.4935003,0,0,-1.4935003,52.187832,539.93209)">
      <path
         inkscape:connector-curvature="0"
         d="M 0,0 0.516,-1.093 C 0.911,-1.925 1.793,-1.77 2.33,-1.514 2.811,-1.287 3.453,-0.768 3.048,0.082 L 2.52,1.194 0,0 z M 2.328,0.473 2.569,-0.033 C 2.676,-0.259 2.786,-0.642 2.04,-0.994 1.624,-1.19 1.124,-1.251 0.921,-0.823 L 0.679,-0.31 2.328,0.473 z"
         style="fill:#005daa;fill-opacity:1;fill-rule:nonzero;stroke:none"
         id="path5332" />
    </g>
    <g
       id="g5334"
       transform="matrix(1.4935003,0,0,-1.4935003,54.835061,543.98529)">
      <path
         inkscape:connector-curvature="0"
         d="M 0,0 0.275,-0.994 -0.231,-1.319 -0.061,-1.93 2.362,-0.233 2.184,0.414 -0.771,0.622 -0.607,0.03 0,0 z m 1.665,-0.069 0.002,-0.009 -0.973,-0.627 -0.19,0.682 1.161,-0.046 z"
         style="fill:#005daa;fill-opacity:1;fill-rule:nonzero;stroke:none"
         id="path5336" />
    </g>
    <g
       id="g5338"
       transform="matrix(1.4935003,0,0,-1.4935003,36.993259,557.34362)">
      <path
         inkscape:connector-curvature="0"
         d="M 0,0 C 0,-0.167 -0.036,-0.332 -0.074,-0.509 -0.009,-0.61 0.073,-0.722 0.12,-0.842 0.102,-0.97 -0.102,-1.166 0.12,-1.24 0.24,-1.389 0.047,-1.656 0.261,-1.75 0.205,-1.916 0.787,-1.944 0.352,-1.998 c -0.74,-0.038 -1.545,0.036 -2.267,-0.021 l -0.056,0.047 c 0.075,0.178 0.324,0.26 0.397,0.446 0.187,0.085 0.27,0.276 0.492,0.26 0.129,0.137 0.054,0.378 0.203,0.498 0,0.112 0.053,0.158 0.028,0.269 0.055,0.02 0.121,-0.111 0.184,-0.046 0.055,0.066 0.055,0.193 0.178,0.13 0.109,0.017 0.082,0.211 0.22,0.238 0.055,0.104 0.009,0.253 0.167,0.27 C -0.036,0.12 0,0.057 0,0"
         style="fill:#ffffff;fill-opacity:1;fill-rule:nonzero;stroke:none"
         id="path5340" />
    </g>
  </g>
</svg>
