<svg id="Layer_1" data-name="Layer 1" xmlns="http://www.w3.org/2000/svg" viewBox="0 0 1225 998"><title>logos-white</title><polygon points="307.05 478.5 235.05 478.5 235.05 550.5 307.05 478.5" style="fill:#fff"/><polygon points="91 263 163 263 163 191 91 263" style="fill:#fff"/><polygon points="949.95 530.5 949.95 602.5 1021.95 602.5 949.95 530.5" style="fill:#fff"/><polygon points="1022 387 1022 459 1094 459 1022 387" style="fill:#fff"/><polygon points="1093.5 602.5 1021.5 602.5 1021.5 674.5 1093.5 602.5" style="fill:#fff"/><polygon points="235 479 235 407 163 407 235 479" style="fill:#fff"/><polygon points="235 263 235 335 307 335 235 263" style="fill:#fff"/><text transform="translate(328.91 693.03)" style="font-size:75px;fill:#fff;font-family:SourceSansPro-Light, Source Sans Pro;letter-spacing:0.13100260416666668em">YEARS <tspan x="263.85" y="0" style="font-family:SourceSansPro-SemiBold, Source Sans Pro;font-weight:700">STRONG</tspan></text><path d="M330.17,601.93v-56c27.11-25.34,51.32-49,73.77-71s41.78-42.67,58-62,28.89-37.34,38-54,13.67-32.56,13.67-47.67q0-31.33-16-47.67t-44-16.33q-23.35,0-41.34,13a228.13,228.13,0,0,0-34,30.34l-53.34-52.68q31.33-33.34,64-50.34t78-17q31.33,0,57,9.67a130.94,130.94,0,0,1,44.34,27.34A119.31,119.31,0,0,1,597,249.88q10,24.67,10,55.34,0,26.68-11.33,54.34a296.82,296.82,0,0,1-30.34,55.34A587.58,587.58,0,0,1,522,470.25c-14.62,16.61-45.18,49-45.18,49H627.65v82.68Z" style="fill:#fff"/><path d="M778.56,602.5q-33.43,0-61-14.09t-46.87-41.62q-19.34-27.53-30.15-68.17t-10.82-93.73q0-53.1,10.82-93.08t30.15-67.19Q690.06,197.42,717.6,184t61-13.44q33.43,0,61,13.44t46.87,40.64q19.33,27.21,30.15,67.19t10.82,93.08q0,53.09-10.82,93.73t-30.15,68.17Q867,574.31,839.52,588.41T778.56,602.5Zm0-74.72a44.07,44.07,0,0,0,22.94-6.23q10.48-6.22,18.35-22.62T832,455q4.26-27.54,4.26-70.14T832,315.07q-4.27-27.19-12.13-42.61t-18.35-21.3a46,46,0,0,0-22.94-5.9,44.74,44.74,0,0,0-22.29,5.9q-10.49,5.9-18.35,21.3t-12.46,42.61q-4.59,27.21-4.59,69.81T725.47,455q4.58,27.53,12.46,43.91t18.35,22.62A42.85,42.85,0,0,0,778.56,527.78Z" style="fill:#fff"/><g id="_8jqcmI.tif" data-name="8jqcmI.tif"><path d="M664.48,768c.6.07,1.21.12,1.81.21A9.55,9.55,0,0,1,671,770a6,6,0,0,1,2.28,4.26,13.47,13.47,0,0,1-1.05,6.33,34.61,34.61,0,0,1-5.27,9,43.5,43.5,0,0,1-10.07,9.54,20.12,20.12,0,0,1-6.13,2.9,8,8,0,0,1-4.69,0,7,7,0,0,1-4.09-4,15.23,15.23,0,0,1-1.19-7.23,25.44,25.44,0,0,1,4.05-12.55,21.22,21.22,0,0,1,17.06-10.2,3.66,3.66,0,0,0,.36-.06Z" style="fill:#fff"/><path d="M634.48,807.29a42,42,0,0,1,11.13,1.43,19.88,19.88,0,0,1,7.24,3.52,9.92,9.92,0,0,1,3.78,6.2,13.19,13.19,0,0,1-1.52,8.62,25.46,25.46,0,0,1-5.66,6.84,77.06,77.06,0,0,1-10.4,7.56c-3.5,2.21-7,4.39-10.52,6.62a37.2,37.2,0,0,0-7,5.45,16.15,16.15,0,0,0-2,2.57,6.09,6.09,0,0,0,.15,7.17,15.48,15.48,0,0,0,7,5.7,7.46,7.46,0,0,0,5.32.25,6.6,6.6,0,0,0,4.28-4.62,9.66,9.66,0,0,0,.31-4.22,3.47,3.47,0,0,1,1-2.94,9.82,9.82,0,0,1,3.45-2.32,23.72,23.72,0,0,1,9.86-2,12.59,12.59,0,0,1,5.2,1,4.74,4.74,0,0,1,2.68,2.66,5.26,5.26,0,0,1,.09,3A29.41,29.41,0,0,1,651.37,874a32.78,32.78,0,0,1-11.59,8.11,24.4,24.4,0,0,1-11.12,1.88,37.68,37.68,0,0,1-14.1-3.86A51.69,51.69,0,0,1,597,865.87a48.21,48.21,0,0,1-8.08-14.16,33,33,0,0,1-2.05-10.9,25.15,25.15,0,0,1,4.61-14.72,34.63,34.63,0,0,1,9.15-8.92,54.14,54.14,0,0,1,14.58-6.92,65.63,65.63,0,0,1,10.26-2.33A59,59,0,0,1,634.48,807.29Z" style="fill:#fff"/><path d="M616.26,784.79a15.93,15.93,0,0,1,1.35-7.19,9,9,0,0,1,8.62-5.38,5.43,5.43,0,0,1,5.39,4,13.65,13.65,0,0,1,.65,5.37,27.9,27.9,0,0,1-3.15,11.4,13.73,13.73,0,0,1-2.68,3.71,4.54,4.54,0,0,1-2.6,1.4,3.92,3.92,0,0,1-3.1-1.16,11.31,11.31,0,0,1-2.84-4.27A21.89,21.89,0,0,1,616.26,784.79Z" style="fill:#fff"/><path d="M608.94,793.2a21.2,21.2,0,0,1-1.26,7.41,7.68,7.68,0,0,1-1.31,2.27,3,3,0,0,1-3.44.93,7.1,7.1,0,0,1-2.86-1.92,17.86,17.86,0,0,1-4.35-7.9,13.33,13.33,0,0,1-.35-6,7.86,7.86,0,0,1,6.64-6.41,4.58,4.58,0,0,1,4.52,2,11.81,11.81,0,0,1,2,4.77A23.9,23.9,0,0,1,608.94,793.2Z" style="fill:#fff"/><path d="M592.38,809.88a10.73,10.73,0,0,1-.67,3.91,2.71,2.71,0,0,1-3.07,1.94,6.16,6.16,0,0,1-1.77-.52,10.91,10.91,0,0,1-3.43-2.53,15.81,15.81,0,0,1-4.2-7.36,7.72,7.72,0,0,1,.49-5.5,7.09,7.09,0,0,1,3.6-3.32,4.18,4.18,0,0,1,4.79,1,10.93,10.93,0,0,1,2.5,3.77A22.61,22.61,0,0,1,592.38,809.88Z" style="fill:#fff"/></g></svg>